<?xml version="1.0" encoding="UTF-8"?>
<svg width="92px" height="124px" viewBox="0 0 92 124" version="1.1" xmlns="http://www.w3.org/2000/svg" xmlns:xlink="http://www.w3.org/1999/xlink">
    <!-- Generator: Sketch 59.1 (86144) - https://sketch.com -->
    <title>imgMan2 Copy</title>
    <desc>Created with Sketch.</desc>
    <g id="imgMan2-Copy" stroke="none" stroke-width="1" fill="none" fill-rule="evenodd">
        <g id="Group-45" transform="translate(0.000000, 5.000000)">
            <path d="M88.91825,58.01385 C88.09675,57.55835 87.80075,56.52385 88.25625,55.70235 C88.71175,54.88135 89.74625,54.58535 90.56775,55.04085 C91.38825,55.49585 91.68475,56.53085 91.22925,57.35185 C90.77375,58.17285 89.73925,58.46935 88.91825,58.01385" id="Fill-1" fill="#F1DBCD"></path>
            <g id="Group-2" transform="translate(38.750501, 88.200285) rotate(16.000000) translate(-38.750501, -88.200285) translate(2.250501, 76.700285)">
                <path d="M64.7468491,7.45981519 C63.9258491,7.00431519 63.6298491,5.96981519 64.0853491,5.14831519 C64.5403491,4.32731519 65.5753491,4.03131519 66.3963491,4.48681519 C67.2173491,4.94181519 67.5138491,5.97681519 67.0583491,6.79781519 C66.6028491,7.61881519 65.5683491,7.91531519 64.7468491,7.45981519" id="Fill-3" fill="#F1DBCD"></path>
                <path d="M37.4777991,16.3824152 C17.5757991,22.0819152 0.809299113,24.4919152 0.0282991126,21.7644152 C-0.753200887,19.0369152 14.7472991,12.2054152 34.6492991,6.50541519 C54.5507991,0.805415189 71.3182991,-1.60408481 72.0987991,1.12341519 C72.8802991,3.85091519 57.3797991,10.6829152 37.4777991,16.3824152 Z" id="Stroke-29" stroke="#F1DBCD" stroke-width="0.5005" stroke-dasharray="0.7064999938011169,0.7064999938011169"></path>
            </g>
            <path d="M38.30305,108.57245 C37.48205,108.11695 37.18605,107.08245 37.64105,106.26095 C38.09655,105.43995 39.13105,105.14395 39.95255,105.59945 C40.77305,106.05445 41.06955,107.08945 40.61405,107.91045 C40.15905,108.73145 39.12455,109.02795 38.30305,108.57245" id="Fill-5" fill="#F1DBCD"></path>
            <path d="M24.05305,68.91205 C23.23205,68.45655 22.93605,67.42205 23.39155,66.60055 C23.84655,65.77955 24.88155,65.48355 25.70255,65.93855 C26.52305,66.39405 26.81955,67.42905 26.36455,68.25005 C25.90905,69.07105 24.87455,69.36755 24.05305,68.91205" id="Fill-7" fill="#F1DBCD"></path>
            <path d="M37.04425,29.2377 C36.22325,28.7822 35.92725,27.7477 36.38225,26.9262 C36.83775,26.1052 37.87225,25.8092 38.69375,26.2647 C39.51425,26.7197 39.81075,27.7547 39.35575,28.5757 C38.90025,29.3967 37.86575,29.6932 37.04425,29.2377" id="Fill-9" fill="#F1DBCD"></path>
            <line x1="89.74295" y1="56.52725" x2="37.86895" y2="27.75125" id="Stroke-11" stroke="#F1DBCD" stroke-width="0.5" stroke-linecap="round" stroke-linejoin="round"></line>
            <line x1="57.53105" y1="53.39935" x2="68.61505" y2="33.41785" id="Stroke-13" stroke="#F1DBCD" stroke-width="0.5" stroke-linecap="round" stroke-linejoin="round"></line>
            <line x1="50.0701" y1="66.84855" x2="54.5246" y2="58.81805" id="Stroke-15" stroke="#F1DBCD" stroke-width="0.5" stroke-linecap="round" stroke-linejoin="round"></line>
            <path d="M15.3377,98.6413 C12.2982,91.7518 12.4242,83.5883 16.3287,76.5488 C22.9747,64.5683 38.0902,60.2028 50.1142,66.8728 C62.1377,73.5428 66.4597,88.6338 59.7897,100.6578 C55.8607,107.7408 49.0012,112.1693 41.5717,113.1938" id="Stroke-21" stroke="#F1DBCD" stroke-width="0.5" stroke-linecap="round" stroke-linejoin="round"></path>
            <path d="M33.51155,96.80145 C28.73005,94.14895 27.00455,88.12295 29.65705,83.34195 C32.30905,78.56045 38.33505,76.83445 43.11655,79.48695 C47.89755,82.13945 49.62355,88.16545 46.97105,92.94645 C44.31855,97.72795 38.29305,99.45345 33.51155,96.80145" id="Fill-23" fill="#F1DBCD"></path>
            <path d="M52.658,62.2868 C49.5025,60.5363 48.3635,56.5593 50.114,53.4043 C51.8645,50.2488 55.841,49.1098 58.9965,50.8603 C62.1515,52.6108 63.291,56.5878 61.5405,59.7428 C59.79,62.8983 55.8135,64.0368 52.658,62.2868 Z" id="Stroke-25" stroke="#F1DBCD" stroke-width="0.5"></path>
            <path d="M29.0496,104.84465 C19.8261,99.72815 16.4971,88.10315 21.6136,78.87965 C26.7296,69.65615 38.3546,66.32715 47.5786,71.44365 C56.8021,76.56015 60.1311,88.18515 55.0146,97.40865 C49.8981,106.63215 38.2731,109.96115 29.0496,104.84465 Z" id="Stroke-27" stroke="#F1DBCD" stroke-width="0.5005" stroke-dasharray="0.7055000066757202,0.7055000066757202"></path>
            <path d="M71.08425,29.06975 C70.26325,28.61425 69.96725,27.57975 70.42275,26.75825 C70.87825,25.93725 71.91275,25.64125 72.73375,26.09675 C73.55475,26.55175 73.85125,27.58675 73.39575,28.40775 C72.94025,29.22875 71.90575,29.52525 71.08425,29.06975 Z" id="Stroke-31" stroke="#F1DBCD" stroke-width="0.5" stroke-linecap="round" stroke-linejoin="round"></path>
            <path d="M68.659,33.44205 C68.128,33.14755 67.936,32.47755 68.231,31.94655 C68.525,31.41505 69.195,31.22355 69.7265,31.51805 C70.2575,31.81305 70.449,32.48255 70.1545,33.01405 C69.8595,33.54505 69.19,33.73655 68.659,33.44205 Z" id="Stroke-33" stroke="#F1DBCD" stroke-width="0.5" stroke-linecap="round" stroke-linejoin="round"></path>
            <path d="M74.1165,23.6044 C73.5855,23.3099 73.3935,22.6399 73.688,22.1089 C73.9825,21.5774 74.652,21.3859 75.1835,21.6804 C75.7145,21.9754 75.9065,22.6449 75.6115,23.1759 C75.317,23.7074 74.6475,23.8989 74.1165,23.6044" id="Fill-35" fill="#F1DBCD"></path>
            <path d="M74.1165,23.6044 C73.5855,23.3099 73.3935,22.6399 73.688,22.1089 C73.9825,21.5774 74.652,21.3859 75.1835,21.6804 C75.7145,21.9754 75.9065,22.6449 75.6115,23.1759 C75.317,23.7074 74.6475,23.8989 74.1165,23.6044 Z" id="Stroke-37" stroke="#FFFFFF" stroke-width="0.5" stroke-linecap="round" stroke-linejoin="round"></path>
            <polygon id="Stroke-39" stroke="#F1DBCD" stroke-width="0.5" stroke-linecap="round" stroke-linejoin="round" points="87.9466 12.89715 76.5661 19.18865 75.8791 6.20265 87.0721 0.24965"></polygon>
            <polygon id="Stroke-41" stroke="#F1DBCD" stroke-width="0.5" stroke-linecap="round" stroke-linejoin="round" points="83.68635 11.1972 76.56635 19.1882 79.57635 8.9172 87.07185 0.2497"></polygon>
            <polyline id="Stroke-43" stroke="#F1DBCD" stroke-width="0.5" stroke-linecap="round" stroke-linejoin="round" points="75.8792 6.2028 79.5767 8.9173 83.6862 11.1973 87.9467 12.8973"></polyline>
        </g>
    </g>
</svg>