<?xml version="1.0" standalone="no"?>
<!DOCTYPE svg PUBLIC "-//W3C//DTD SVG 1.0//EN" "http://www.w3.org/TR/2001/REC-SVG-20010904/DTD/svg10.dtd">
<svg xmlns="http://www.w3.org/2000/svg" xmlns:xlink="http://www.w3.org/1999/xlink" id="body_6" width="247" height="421">

<defs>
    <clipPath  id="1">

    <path id=""  clip-rule="evenodd" transform="matrix(1 0 0 1 0 0)"  d="M0 316L0 0L0 0L185 0L185 0L185 316L185 316L0 316z" />    </clipPath>
    <clipPath  id="2">

    <path id=""  clip-rule="evenodd" transform="matrix(1 0 0 1 0 0)"  d="M0 0L185 0L185 0L185 316L185 316L0 316z" />    </clipPath>
</defs>

<g transform="matrix(1.3333 0 0 1.3333 0 0)">
	<g clip-path="url(#1)" >
		<g clip-path="url(#2)" >
    <path id=""  transform="matrix(1 0 0 -1 0 316)"  d="M105.7422 262.7814C 107.587204 262.7814 109.3732 262.5624 110.7892 262.3204C 111.3312 262.22742 111.6882 261.7124 111.584206 261.1734C 111.0202 258.2634 109.6612 253.7214 106.514206 251.6894C 105.323204 250.92041 104.0532 250.2964 102.736206 249.8344C 102.1022 249.6124 101.5192 249.2324 101.1482 248.6734C 100.238205 247.3014 100.5652 245.5934 101.723206 244.6454C 103.031204 243.57541 103.833206 241.4274 104.2322 239.3524C 103.29121 239.17241 102.0482 239.0154 100.7542 239.0154C 98.989204 239.0154 97.528206 239.3074 96.640205 239.8374C 95.918205 240.2674 95.307205 240.7514 94.8272 241.2724C 94.2592 241.8894 93.459206 242.2414 92.6202 242.2414C 91.781204 242.2414 90.9812 241.8894 90.4122 241.2724C 89.932205 240.7514 89.322205 240.2674 88.599205 239.8374C 87.711205 239.3074 86.2502 239.0154 84.4852 239.0154C 83.1922 239.0154 81.9492 239.17241 81.0072 239.3524C 81.406204 241.42241 82.2032 243.5614 83.5042 244.6354C 84.1072 245.1344 84.5182 245.85541 84.599205 246.6344C 84.7502 248.0744 83.88721 249.3574 82.5932 249.8034C 81.2442 250.2674 79.94321 250.9024 78.725204 251.6894C 75.5782 253.7214 74.2192 258.2634 73.6552 261.1734C 73.5512 261.7124 73.9092 262.22742 74.4502 262.3204C 75.8672 262.5624 77.6532 262.7814 79.4972 262.7814C 82.460205 262.7814 84.7992 262.2414 86.4492 261.1754C 88.0002 260.1734 89.27721 259.0294 90.2442 257.7754C 90.8122 257.0384 91.6902 256.6064 92.6202 256.6064C 93.5502 256.6064 94.4282 257.0384 94.9962 257.7754C 95.9632 259.0294 97.240204 260.1734 98.7912 261.1754C 100.4412 262.2414 102.779205 262.7814 105.7422 262.7814M105.7422 265.7814C 102.7762 265.7814 99.627205 265.2864 97.1632 263.6954C 95.253204 262.4624 93.7452 261.0664 92.6202 259.6064C 91.4942 261.0664 89.986206 262.4624 88.0762 263.6954C 85.613205 265.2864 82.4632 265.7814 79.4972 265.7814C 76.3602 265.7814 73.42821 265.22742 71.7332 264.8314C 70.84421 264.6234 70.253204 263.7944 70.3562 262.8874C 70.7202 259.6924 72.0842 252.40741 77.0972 249.1694C 78.5762 248.2144 80.1042 247.4884 81.6162 246.9674C 78.6462 244.5364 77.933205 239.6374 77.7732 237.8914C 77.737206 237.5054 77.9502 237.14641 78.307205 236.9944C 79.3002 236.5704 81.8262 236.0154 84.4852 236.0154C 86.4942 236.0154 88.5792 236.3324 90.1362 237.2604C 91.1492 237.86441 91.9692 238.53441 92.6202 239.2414C 93.2702 238.53441 94.0912 237.86441 95.1042 237.2604C 96.6602 236.3324 98.7462 236.0154 100.7542 236.0154C 103.4142 236.0154 105.9392 236.5704 106.932205 236.9944C 107.2892 237.14641 107.503204 237.5054 107.4672 237.8914C 107.306206 239.6374 106.5942 244.5364 103.62421 246.9674C 105.1362 247.4884 106.6642 248.2144 108.142204 249.1694C 113.155205 252.40741 114.5202 259.6924 114.8842 262.8874C 114.986206 263.7944 114.3952 264.6234 113.5072 264.8314C 111.8122 265.22742 108.8802 265.7814 105.7422 265.7814z" stroke="#E7BC9E" stroke-width="1" fill="none" />
    <path id=""  transform="matrix(1 0 0 -1 0 316)"  d="M57.7414 252.81418C 58.0914 253.23718 58.717403 253.29019 59.1324 252.92918C 61.370403 250.98518 64.6224 247.53918 64.8084 243.79918C 64.8784 242.40619 64.7874 241.01819 64.5384 239.66919C 64.3904 238.86218 64.4754 238.00818 64.9214 237.31918C 65.5074 236.41618 66.471405 235.93419 67.4534 235.93419C 67.8094 235.93419 68.1694 235.99818 68.513405 236.12819C 69.027405 236.32219 69.6474 236.42119 70.3544 236.42119C 71.763405 236.42119 73.2394 236.03218 74.3534 235.6482C 73.6284 233.5792 72.040405 230.38618 70.1354 229.32118C 69.4014 228.9112 68.678406 228.62419 67.985405 228.46918C 67.167404 228.28519 66.4634 227.76718 66.0434 227.04118C 65.624405 226.31519 65.527405 225.44618 65.778404 224.64519C 65.9904 223.96918 66.1034 223.19818 66.1154 222.35718C 66.1454 220.17519 64.1714 217.19919 62.7414 215.53719C 61.1584 216.90819 59.711403 218.65518 59.418404 220.30919C 59.280403 221.08118 58.8824 221.80818 58.253403 222.27419C 57.704403 222.68118 57.072403 222.87518 56.4494 222.87518C 55.7364 222.87518 55.0354 222.62119 54.481403 222.13919C 53.404404 221.2042 52.204403 220.39319 50.913403 219.73218C 49.7484 219.1352 48.330402 218.83218 46.697403 218.83218C 44.336403 218.83218 41.9654 219.45018 40.1664 220.07718C 39.6474 220.25818 39.379402 220.82419 39.570404 221.34018C 40.710403 224.4112 43.018402 229.34819 46.560402 231.16418C 48.204403 232.00719 49.8334 232.54118 51.4024 232.75119C 52.3244 232.87518 53.1374 233.41919 53.6024 234.22519C 54.0674 235.03018 54.1324 236.00618 53.7784 236.86618C 53.1754 238.33118 52.823402 240.00919 52.731403 241.85219C 52.5334 245.82619 55.6514 250.29118 57.7414 252.81418zM58.2344 256.9962C 57.754402 256.9962 57.2764 256.8022 56.9234 256.42517C 54.607403 253.95518 49.434402 247.73018 49.7354 241.70319C 49.848404 239.43318 50.302402 237.42918 51.004402 235.72519C 49.177402 235.47919 47.2154 234.87119 45.1924 233.83418C 39.821404 231.08018 37.018402 223.48819 36.0364 220.2472C 35.7724 219.37418 36.1944 218.44818 37.031403 218.08418C 39.0094 217.22319 42.808403 215.83218 46.697403 215.83218C 48.6054 215.83218 50.5344 216.16719 52.282402 217.0622C 53.8484 217.86519 55.2414 218.82518 56.448402 219.87518C 57.0684 216.08719 60.955402 213.02019 62.386402 212.00919C 62.5414 211.89919 62.7204 211.84518 62.899403 211.84518C 63.086403 211.84518 63.2724 211.90419 63.4314 212.0232C 64.9464 213.15918 69.1734 218.18918 69.1154 222.39919C 69.098404 223.58018 68.928406 224.62418 68.6414 225.54118C 69.5794 225.75218 70.568405 226.12718 71.5994 226.70218C 75.2744 228.75719 77.5174 234.93219 77.7434 236.81319C 77.790405 237.19818 77.5864 237.56218 77.234406 237.72519C 76.0514 238.26918 73.209404 239.42119 70.3544 239.42119C 69.3654 239.42119 68.3764 239.28319 67.4524 238.93419C 67.7574 240.50418 67.8924 242.19019 67.8044 243.94818C 67.5074 249.90918 61.8804 254.73318 59.295403 256.64517C 58.976402 256.8812 58.6044 256.9962 58.2344 256.9962z" stroke="#E7BC9E" stroke-width="1" fill="none" />
    <path id=""  transform="matrix(1 0 0 -1 0 316)"  d="M63.9939 209.0092L63.998898 209.0092L63.998898 209.0092L63.9939 209.0092M62.6159 207.9302C 64.0459 206.2682 66.0209 203.2922 65.9899 201.10919C 65.9789 200.2692 65.8649 199.4992 65.6529 198.8212C 65.4029 198.0202 65.4989 197.1522 65.9189 196.4262C 66.3379 195.6992 67.0419 195.1822 67.8599 194.9982C 68.5529 194.8432 69.2759 194.5572 70.0109 194.1462C 71.9149 193.0822 73.5029 189.8892 74.2289 187.8182C 73.1149 187.4352 71.6389 187.0462 70.2289 187.0462C 69.522896 187.0462 68.9029 187.1442 68.3879 187.3392C 68.0439 187.4702 67.6849 187.5332 67.327896 187.5332C 66.3459 187.5332 65.3819 187.0502 64.7959 186.1462C 64.3499 185.45819 64.2649 184.6032 64.4139 183.7972C 64.661896 182.4482 64.7529 181.0612 64.6839 179.6682C 64.4969 175.9292 61.2449 172.4812 59.0079 170.53821C 58.5919 170.17819 57.9669 170.2292 57.6159 170.6532C 55.525898 173.1772 52.407898 177.6412 52.6069 181.6142C 52.6989 183.4592 53.0509 185.1372 53.6529 186.6022C 54.006897 187.4622 53.9419 188.4372 53.4769 189.2432C 53.011898 190.0492 52.199898 190.5932 51.2779 190.7162C 49.7079 190.9272 48.0789 191.4612 46.435898 192.30319C 42.8929 194.1192 40.5849 199.0562 39.4459 202.1272C 39.2539 202.6432 39.521896 203.2092 40.0419 203.3912C 41.839897 204.0182 44.2119 204.6352 46.5719 204.6352C 48.2049 204.6352 49.6239 204.3322 50.7889 203.7352C 52.0789 203.0732 53.2789 202.2642 54.3559 201.3282C 54.9109 200.84619 55.6119 200.5932 56.3239 200.5932C 56.949898 200.5932 57.5849 200.7892 58.1339 201.1982C 58.7579 201.6632 59.1569 202.3832 59.2919 203.1492C 59.581898 204.8062 61.0309 206.5572 62.6159 207.9302zM62.7739 211.6232C 62.5949 211.6232 62.4169 211.5682 62.261898 211.4582C 60.8299 210.4462 56.9439 207.3802 56.3239 203.5932C 55.116898 204.6422 53.7239 205.6022 52.1569 206.4042C 50.409897 207.3012 48.4799 207.6352 46.5719 207.6352C 42.6829 207.6352 38.8849 206.2442 36.9059 205.3832C 36.0699 205.0192 35.646896 204.0932 35.9119 203.2202C 36.8929 199.9782 39.6959 192.3872 45.0669 189.6342C 47.089897 188.59619 49.0519 187.9872 50.8789 187.7432C 50.1779 186.03821 49.7239 184.0352 49.6099 181.7642C 49.3099 175.7362 54.4819 169.5132 56.7989 167.0422C 57.150898 166.6662 57.6289 166.47119 58.1089 166.47119C 58.4799 166.47119 58.8509 166.5862 59.1699 166.8222C 61.754898 168.7332 67.3819 173.5592 67.6799 179.5192C 67.7679 181.2762 67.6319 182.9632 67.327896 184.5332C 68.2509 184.1852 69.2409 184.0462 70.2289 184.0462C 73.0849 184.0462 75.9259 185.1972 77.1089 185.7422C 77.4619 185.9052 77.6649 186.2692 77.6179 186.6542C 77.3919 188.5352 75.148895 194.7112 71.4739 196.7652C 70.4439 197.3412 69.453896 197.7162 68.5169 197.9262C 68.8029 198.8432 68.9739 199.8882 68.9899 201.0672C 69.0489 205.2772 64.8219 210.3082 63.3059 211.4442C 63.1479 211.5622 62.9609 211.6232 62.7739 211.6232z" stroke="#E7BC9E" stroke-width="1" fill="none" />
    <path id=""  transform="matrix(1 0 0 -1 0 316)"  d="M84.2349 184.2345C 85.9999 184.2345 87.4619 183.9435 88.3499 183.41449C 89.0719 182.98349 89.6819 182.5005 90.1629 181.9775C 90.730896 181.3605 91.5309 181.00949 92.369896 181.00949C 93.2089 181.00949 94.008896 181.3605 94.5769 181.9775C 95.0579 182.5005 95.6679 182.98349 96.3909 183.41449C 97.2779 183.9435 98.7389 184.2345 100.5039 184.2345C 101.7979 184.2345 103.0409 184.07849 103.982895 183.89749C 103.5839 181.8295 102.7859 179.68849 101.4859 178.6155C 100.8819 178.1175 100.4719 177.3955 100.3909 176.6165C 100.2399 175.17549 101.1029 173.8935 102.3969 173.4475C 103.744896 172.9825 105.0469 172.3485 106.2649 171.5615C 109.4109 169.5295 110.7709 164.9875 111.3339 162.07849C 111.438896 161.53949 111.0809 161.0235 110.538895 160.9305C 109.1229 160.6875 107.3369 160.4695 105.4919 160.4695C 102.5299 160.4695 100.1919 161.00949 98.5409 162.0755C 96.9889 163.0775 95.7129 164.2215 94.745895 165.4755C 94.1779 166.2125 93.2999 166.6435 92.369896 166.6435C 91.439896 166.6435 90.5619 166.2125 89.9939 165.4755C 89.0269 164.2215 87.7499 163.0775 86.1989 162.0755C 84.5489 161.00949 82.2099 160.4695 79.247894 160.4695C 77.4029 160.4695 75.6169 160.6875 74.1999 160.9305C 73.6589 161.0235 73.3009 161.53949 73.4049 162.07849C 73.9689 164.9875 75.3289 169.5295 78.4749 171.5615C 79.6669 172.3315 80.9369 172.9545 82.2539 173.4165C 82.8869 173.6385 83.4709 174.0185 83.841896 174.57849C 84.7519 175.9485 84.4239 177.6575 83.2659 178.6055C 81.9589 179.67549 81.1569 181.8225 80.7569 183.89749C 81.6989 184.07849 82.941895 184.2345 84.2349 184.2345M100.5039 187.2345C 98.494896 187.2345 96.4109 186.9185 94.8549 185.9905C 93.8409 185.38649 93.0209 184.71649 92.369896 184.00949C 91.7189 184.71649 90.8999 185.38649 89.885895 185.9905C 88.328896 186.9185 86.2439 187.2345 84.2349 187.2345C 81.5759 187.2345 79.0499 186.6805 78.0579 186.2555C 77.7009 186.1035 77.4869 185.74649 77.522896 185.3595C 77.6839 183.6135 78.3959 178.7145 81.3659 176.2845C 79.8539 175.7625 78.3259 175.0365 76.8479 174.0815C 71.8349 170.84349 70.469894 163.5585 70.1069 160.3635C 70.0039 159.4565 70.5939 158.6275 71.482895 158.4205C 73.1779 158.0235 76.1099 157.4695 79.247894 157.4695C 82.2129 157.4695 85.3629 157.9635 87.8269 159.5555C 89.7359 160.78949 91.244896 162.1845 92.369896 163.6435C 93.494896 162.1845 95.0029 160.78949 96.912895 159.5555C 99.3769 157.9645 102.5259 157.4695 105.4919 157.4695C 108.6299 157.4695 111.5619 158.0235 113.2569 158.4205C 114.1459 158.6275 114.7359 159.4565 114.633896 160.3635C 114.2709 163.5585 112.9049 170.84349 107.8929 174.0815C 106.413895 175.0365 104.885895 175.7625 103.3739 176.2845C 106.3439 178.7145 107.0569 183.6135 107.216896 185.3595C 107.2529 185.74649 107.038895 186.1035 106.6829 186.2555C 105.689896 186.6805 103.162895 187.2345 100.5039 187.2345z" stroke="#E7BC9E" stroke-width="1" fill="none" />
    <path id=""  transform="matrix(1 0 0 -1 0 316)"  d="M123.358795 208.82741L123.3628 208.82741L123.3628 208.82741L123.358795 208.82741M122.247795 207.71341C 123.830795 206.3434 125.277794 204.5954 125.5718 202.9424C 125.7088 202.17041 126.1068 201.4424 126.7368 200.9754C 127.2858 200.5704 127.9178 200.3764 128.5408 200.3764C 129.25279 200.3764 129.9538 200.6304 130.5088 201.1114C 131.5848 202.04741 132.7858 202.8564 134.07579 203.5184C 135.2408 204.11641 136.65979 204.4194 138.2918 204.4194C 140.6528 204.4194 143.0248 203.8014 144.8228 203.17441C 145.3428 202.9924 145.6108 202.4274 145.4188 201.9104C 144.2788 198.84041 141.9718 193.9024 138.4288 192.0864C 136.7858 191.2444 135.1568 190.7104 133.58679 190.5004C 132.6648 190.3764 131.8528 189.8324 131.3878 189.0264C 130.92279 188.2204 130.8578 187.2454 131.2108 186.3854C 131.8148 184.92041 132.1658 183.2424 132.2578 181.3984C 132.4568 177.42441 129.33879 172.9604 127.248795 170.4364C 126.8978 170.0124 126.2728 169.9614 125.857796 170.32141C 123.6198 172.2644 120.3678 175.7124 120.1818 179.45241C 120.1118 180.8444 120.2028 182.2334 120.4508 183.5834C 120.6008 184.3894 120.5148 185.2444 120.068794 185.9314C 119.4818 186.8344 118.5188 187.3164 117.5368 187.3164C 117.179794 187.3164 116.8208 187.2534 116.4768 187.1234C 115.9618 186.9284 115.3428 186.8304 114.635796 186.8304C 113.2258 186.8304 111.7498 187.2194 110.636795 187.6024C 111.3618 189.67241 112.9498 192.8654 114.8548 193.9294C 115.5878 194.34041 116.3118 194.62741 117.0038 194.78241C 117.8228 194.96541 118.527794 195.4824 118.9458 196.2094C 119.3658 196.93541 119.4618 197.8044 119.2118 198.6044C 118.999794 199.28241 118.886795 200.0524 118.874794 200.8924C 118.843796 203.0764 120.818794 206.0514 122.247795 207.71341zM122.0908 211.4064C 121.9038 211.4064 121.7178 211.3464 121.5588 211.2274C 120.0428 210.0914 115.816795 205.0614 115.874794 200.85141C 115.8918 199.6714 116.0618 198.6264 116.3488 197.7094C 115.4098 197.4994 114.4208 197.1244 113.3908 196.5484C 109.7148 194.4944 107.47279 188.3184 107.2458 186.43741C 107.1998 186.0524 107.4028 185.6884 107.7558 185.5254C 108.9388 184.98041 111.7808 183.8304 114.635796 183.8304C 115.623795 183.8304 116.6128 183.9684 117.5368 184.3164C 117.232796 182.7464 117.09779 181.0604 117.1858 179.3024C 117.482796 173.3424 123.109795 168.5174 125.69479 166.60541C 126.013794 166.3694 126.385796 166.2554 126.7548 166.2554C 127.2368 166.2554 127.7128 166.4494 128.0668 166.82541C 130.3828 169.2964 135.5558 175.51941 135.25479 181.5484C 135.1418 183.8184 134.6878 185.82141 133.9858 187.5264C 135.8128 187.77141 137.7748 188.3804 139.79779 189.4174C 145.1688 192.17041 147.9718 199.7614 148.95279 203.0034C 149.2178 203.8764 148.7948 204.8024 147.9588 205.1674C 145.9808 206.0274 142.1818 207.4194 138.2928 207.4194C 136.3848 207.4194 134.4548 207.0844 132.7078 206.18741C 131.1418 205.3854 129.7478 204.4254 128.5408 203.3764C 127.9208 207.1634 124.0348 210.23041 122.6038 211.2424C 122.4478 211.35141 122.2698 211.4064 122.0908 211.4064z" stroke="#E7BC9E" stroke-width="1" fill="none" />
    <path id=""  transform="matrix(1 0 0 -1 0 316)"  d="M125.982895 252.7134C 126.397896 253.0734 127.022896 253.0214 127.3739 252.59738C 129.4639 250.07439 132.5809 245.61038 132.3829 241.63539C 132.2909 239.79239 131.9399 238.11438 131.33589 236.64938C 130.9829 235.78938 131.0479 234.81339 131.5129 234.00839C 131.9779 233.2024 132.7899 232.65839 133.7119 232.5344C 135.28189 232.32439 136.9109 231.79039 138.5549 230.94739C 142.0969 229.13239 144.4039 224.1944 145.5439 221.12439C 145.7349 220.60739 145.4679 220.04239 144.9479 219.86038C 143.1499 219.23338 140.7779 218.61539 138.4179 218.61539C 136.7849 218.61539 135.3659 218.9184 134.2009 219.51538C 132.9109 220.17738 131.7099 220.9874 130.6339 221.92339C 130.0789 222.40439 129.3779 222.65839 128.6659 222.65839C 128.0399 222.65839 127.4059 222.46239 126.856895 222.05339C 126.231895 221.58939 125.8329 220.86739 125.6979 220.0994C 125.4069 218.44339 123.9579 216.69339 122.372894 215.32138C 120.9429 216.98239 118.968895 219.95839 118.9999 222.14038C 119.0119 222.98239 119.1249 223.75238 119.3369 224.42938C 119.5869 225.22939 119.4909 226.09839 119.0709 226.8254C 118.6519 227.55038 117.9479 228.0694 117.1289 228.25238C 116.4369 228.4074 115.7139 228.6944 114.9799 229.10439C 113.0749 230.16939 111.4859 233.3624 110.7619 235.4314C 111.8749 235.81538 113.3509 236.20439 114.760895 236.20439C 115.467896 236.20439 116.0869 236.1054 116.6019 235.91139C 116.9459 235.78139 117.3049 235.71739 117.661896 235.71739C 118.6439 235.71739 119.607895 236.2004 120.1929 237.1034C 120.6399 237.79239 120.7249 238.6464 120.5759 239.45338C 120.327896 240.80139 120.2369 242.19038 120.3069 243.58238C 120.4929 247.32239 123.744896 250.7694 125.982895 252.7134zM126.8799 256.7794C 126.510895 256.7794 126.1389 256.66537 125.8199 256.42838C 123.2339 254.51639 117.607895 249.69238 117.3109 243.73138C 117.2229 241.97339 117.357895 240.28738 117.661896 238.71739C 116.7389 239.06639 115.7489 239.20439 114.760895 239.20439C 111.9049 239.20439 109.063896 238.05339 107.8809 237.50839C 107.5279 237.34538 107.3249 236.98239 107.370895 236.59639C 107.5979 234.71638 109.8399 228.54039 113.5159 226.48639C 114.5459 225.91039 115.5349 225.53539 116.4739 225.3254C 116.1869 224.40738 116.0169 223.36339 115.9999 222.18239C 115.941895 217.97238 120.1679 212.94339 121.6839 211.8064C 121.842896 211.6874 122.0289 211.62839 122.2159 211.62839C 122.3949 211.62839 122.5729 211.68239 122.7289 211.79239C 124.1599 212.80339 128.0459 215.87138 128.6659 219.65839C 129.8729 218.60939 131.26689 217.64938 132.8329 216.8454C 134.5799 215.9504 136.5099 215.61539 138.4179 215.61539C 142.3069 215.61539 146.1059 217.00739 148.0839 217.86739C 148.91989 218.23138 149.3429 219.15738 149.0779 220.03139C 148.0969 223.27238 145.2939 230.86438 139.9229 233.61739C 137.8999 234.65439 135.9379 235.26239 134.1099 235.50839C 134.8129 237.21239 135.26689 239.21638 135.3799 241.48639C 135.6809 247.51439 130.5079 253.73839 128.1919 256.20938C 127.8389 256.5854 127.3609 256.7794 126.8799 256.7794z" stroke="#E7BC9E" stroke-width="1" fill="none" />
    <path id=""  transform="matrix(1 0 0 -1 0 316)"  d="M75.6177 245.7882L74.7547 242.56819L74.7547 242.56819L71.5347 243.4312L71.5347 243.4312L72.3977 246.65019L72.3977 246.65019L75.6177 245.7882z" stroke="#E7BC9E" stroke-width="1" stroke-linecap="round" fill="none" />
    <path id=""  transform="matrix(1 0 0 -1 0 316)"  d="M54.5327 213.9816L56.889698 211.6256L56.889698 211.6256L54.5327 209.2676L54.5327 209.2676L52.1757 211.6256L52.1757 211.6256L54.5327 213.9816z" stroke="#E7BC9E" stroke-width="1" stroke-linecap="round" fill="none" />
    <path id=""  transform="matrix(1 0 0 -1 0 316)"  d="M71.5352 179.8185L74.7552 180.6815L74.7552 180.6815L75.6182 177.4625L75.6182 177.4625L72.3982 176.5985L72.3982 176.5985L71.5352 179.8185z" stroke="#E7BC9E" stroke-width="1" stroke-linecap="round" fill="none" />
    <path id=""  transform="matrix(1 0 0 -1 0 316)"  d="M109.6221 177.4621L110.4851 180.6821L110.4851 180.6821L113.7051 179.8181L113.7051 179.8181L112.8421 176.59909L112.8421 176.59909L109.6221 177.4621z" stroke="#E7BC9E" stroke-width="1" stroke-linecap="round" fill="none" />
    <path id=""  transform="matrix(1 0 0 -1 0 316)"  d="M130.707 209.2677L128.351 211.6247L128.351 211.6247L130.707 213.9817L130.707 213.9817L133.064 211.6247L133.064 211.6247L130.707 209.2677z" stroke="#E7BC9E" stroke-width="1" stroke-linecap="round" fill="none" />
    <path id=""  transform="matrix(1 0 0 -1 0 316)"  d="M113.7051 243.4308L110.4851 242.5688L110.4851 242.5688L109.6221 245.7878L109.6221 245.7878L112.8421 246.6508L112.8421 246.6508L113.7051 243.4308z" stroke="#E7BC9E" stroke-width="1" stroke-linecap="round" fill="none" />
    <path id=""  transform="matrix(1 0 0 -1 0 316)"  d="M92.4951 268.4933C 123.851105 268.4933 149.3621 242.98228 149.3621 211.62529C 149.3621 180.26828 123.851105 154.75829 92.4951 154.75829C 61.1381 154.75829 35.6271 180.26828 35.6271 211.62529C 35.6271 242.98228 61.1381 268.4933 92.4951 268.4933M92.4951 269.2433C 60.674103 269.2433 34.8771 243.44629 34.8771 211.62529C 34.8771 179.80429 60.674103 154.00829 92.4951 154.00829C 124.3161 154.00829 150.1121 179.80429 150.1121 211.62529C 150.1121 243.44629 124.3161 269.2433 92.4951 269.2433" stroke="none" fill="#E7BC9E" fill-rule="nonzero" />
		</g>
	</g>
</g>
</svg>