<?xml version="1.0" standalone="no"?>
<!DOCTYPE svg PUBLIC "-//W3C//DTD SVG 1.0//EN" "http://www.w3.org/TR/2001/REC-SVG-20010904/DTD/svg10.dtd">
<svg xmlns="http://www.w3.org/2000/svg" xmlns:xlink="http://www.w3.org/1999/xlink" id="body_7" width="247" height="421">

<defs>
    <clipPath  id="1">

    <path id=""  clip-rule="evenodd" transform="matrix(1 0 0 1 0 0)"  d="M0 316L0 0L0 0L185 0L185 0L185 316L185 316L0 316z" />    </clipPath>
    <clipPath  id="2">

    <path id=""  clip-rule="evenodd" transform="matrix(1 0 0 1 0 0)"  d="M0 0L185 0L185 0L185 316L185 316L0 316z" />    </clipPath>
</defs>

<g transform="matrix(1.3333 0 0 1.3333 0 0)">
	<g clip-path="url(#1)" >
		<g clip-path="url(#2)" >
    <path id=""  transform="matrix(1 0 0 -1 0 316)"  d="M93.6836 238.5127C 93.6836 237.8557 93.150604 237.3227 92.4936 237.3227C 91.8356 237.3227 91.302605 237.8557 91.302605 238.5127C 91.302605 239.1707 91.8356 239.70369 92.4936 239.70369C 93.150604 239.70369 93.6836 239.1707 93.6836 238.5127z" stroke="#E7BC9E" stroke-width="1" fill="none" />
    <path id=""  transform="matrix(1 0 0 -1 0 316)"  d="M86.6831 237.9043C 86.853096 237.2693 86.4761 236.6163 85.841095 236.4463C 85.2051 236.2753 84.5531 236.65329 84.382095 237.2883C 84.2121 237.9243 84.589096 238.5773 85.2251 238.7473C 85.8601 238.9173 86.5131 238.5403 86.6831 237.9043z" stroke="#E7BC9E" stroke-width="1" fill="none" />
    <path id=""  transform="matrix(1 0 0 -1 0 316)"  d="M80.0781 235.5059C 80.407104 234.9359 80.212105 234.20691 79.642105 233.8789C 79.073105 233.54991 78.3441 233.7449 78.0151 234.31491C 77.686104 234.88391 77.8821 235.61191 78.4511 235.94191C 79.0211 236.2709 79.7491 236.0749 80.0781 235.5059z" stroke="#E7BC9E" stroke-width="1" fill="none" />
    <path id=""  transform="matrix(1 0 0 -1 0 316)"  d="M74.3193 231.4785C 74.784294 231.0135 74.784294 230.2585 74.3193 229.7935C 73.8543 229.3295 73.100296 229.3295 72.6353 229.7935C 72.170296 230.2585 72.170296 231.0135 72.6353 231.4785C 73.100296 231.9435 73.8543 231.9435 74.3193 231.4785z" stroke="#E7BC9E" stroke-width="1" fill="none" />
    <path id=""  transform="matrix(1 0 0 -1 0 316)"  d="M69.7988 226.0977C 70.3688 225.7697 70.5638 225.0407 70.234795 224.4707C 69.9058 223.9017 69.177795 223.7057 68.607796 224.0347C 68.038795 224.3647 67.8428 225.0927 68.1718 225.6617C 68.5008 226.2317 69.2298 226.4267 69.7988 226.0977z" stroke="#E7BC9E" stroke-width="1" fill="none" />
    <path id=""  transform="matrix(1 0 0 -1 0 316)"  d="M66.8252 219.7314C 67.460205 219.5604 67.837204 218.9084 67.667206 218.2724C 67.4972 217.6364 66.8442 217.2594 66.208206 217.4304C 65.573204 217.6004 65.196205 218.2534 65.3672 218.8884C 65.5362 219.5244 66.1902 219.9014 66.8252 219.7314z" stroke="#E7BC9E" stroke-width="1" fill="none" />
    <path id=""  transform="matrix(1 0 0 -1 0 316)"  d="M65.6006 212.8115C 66.2586 212.8115 66.7916 212.27849 66.7916 211.6205C 66.7916 210.9625 66.2586 210.42949 65.6006 210.42949C 64.942604 210.42949 64.4096 210.9625 64.4096 211.6205C 64.4096 212.27849 64.942604 212.8115 65.6006 212.8115z" stroke="#E7BC9E" stroke-width="1" fill="none" />
    <path id=""  transform="matrix(1 0 0 -1 0 316)"  d="M66.2085 205.8105C 66.844505 205.9805 67.497505 205.6035 67.6675 204.9685C 67.8375 204.3325 67.4605 203.6795 66.8255 203.5095C 66.18951 203.33951 65.53651 203.7165 65.3665 204.3515C 65.1965 204.9875 65.5735 205.6405 66.2085 205.8105z" stroke="#E7BC9E" stroke-width="1" fill="none" />
    <path id=""  transform="matrix(1 0 0 -1 0 316)"  d="M68.6079 199.2061C 69.1779 199.5341 69.9059 199.3391 70.2349 198.7691C 70.5639 198.2001 70.368904 197.4721 69.798904 197.1431C 69.229904 196.8131 68.5009 197.0091 68.171906 197.5791C 67.8429 198.1481 68.0389 198.8771 68.6079 199.2061z" stroke="#E7BC9E" stroke-width="1" fill="none" />
    <path id=""  transform="matrix(1 0 0 -1 0 316)"  d="M72.6353 193.4463C 73.100296 193.91231 73.8543 193.91231 74.3193 193.4463C 74.7843 192.98131 74.7843 192.22731 74.3193 191.7623C 73.8543 191.2973 73.100296 191.2973 72.6353 191.7623C 72.1703 192.22731 72.1703 192.98131 72.6353 193.4463z" stroke="#E7BC9E" stroke-width="1" fill="none" />
    <path id=""  transform="matrix(1 0 0 -1 0 316)"  d="M78.0156 188.9268C 78.344604 189.4958 79.0726 189.6918 79.6416 189.36281C 80.2116 189.0328 80.4076 188.30481 80.078606 187.73581C 79.7496 187.1658 79.0206 186.97081 78.4516 187.2998C 77.8816 187.6278 77.6866 188.3568 78.0156 188.9268z" stroke="#E7BC9E" stroke-width="1" fill="none" />
    <path id=""  transform="matrix(1 0 0 -1 0 316)"  d="M84.3823 185.9521C 84.5523 186.5881 85.2053 186.9651 85.8403 186.7951C 86.4763 186.6241 86.8533 185.9721 86.683304 185.3361C 86.5123 184.7011 85.8603 184.3231 85.224304 184.49411C 84.5893 184.66411 84.2123 185.31711 84.3823 185.9521z" stroke="#E7BC9E" stroke-width="1" fill="none" />
    <path id=""  transform="matrix(1 0 0 -1 0 316)"  d="M91.3022 184.7275C 91.3022 185.3855 91.8352 185.91849 92.4932 185.91849C 93.1502 185.91849 93.6832 185.3855 93.6832 184.7275C 93.6832 184.0705 93.1502 183.53749 92.4932 183.53749C 91.8352 183.53749 91.3022 184.0705 91.3022 184.7275z" stroke="#E7BC9E" stroke-width="1" fill="none" />
    <path id=""  transform="matrix(1 0 0 -1 0 316)"  d="M98.3027 185.3359C 98.1327 185.97191 98.5097 186.6239 99.1457 186.7949C 99.78069 186.9649 100.43369 186.5879 100.6037 185.9519C 100.7747 185.31691 100.3967 184.66391 99.761696 184.49391C 99.125694 184.3229 98.473694 184.70091 98.3027 185.3359z" stroke="#E7BC9E" stroke-width="1" fill="none" />
    <path id=""  transform="matrix(1 0 0 -1 0 316)"  d="M104.9082 187.7354C 104.5792 188.3044 104.7742 189.0334 105.3442 189.3624C 105.9132 189.69139 106.641205 189.4964 106.97121 188.92639C 107.3002 188.3564 107.1042 187.6284 106.5352 187.2994C 105.9652 186.9704 105.236206 187.1664 104.9082 187.7354z" stroke="#E7BC9E" stroke-width="1" fill="none" />
    <path id=""  transform="matrix(1 0 0 -1 0 316)"  d="M110.667 191.7627C 110.201 192.22769 110.201 192.98169 110.667 193.4467C 111.131996 193.9117 111.886 193.9117 112.351 193.4467C 112.816 192.98169 112.816 192.22769 112.351 191.7627C 111.886 191.29669 111.131996 191.29669 110.667 191.7627z" stroke="#E7BC9E" stroke-width="1" fill="none" />
    <path id=""  transform="matrix(1 0 0 -1 0 316)"  d="M115.1875 197.1426C 114.6175 197.47159 114.4215 198.20059 114.7505 198.76959C 115.0805 199.3386 115.8085 199.53459 116.3775 199.2056C 116.9475 198.87659 117.1425 198.14859 116.8145 197.57959C 116.4855 197.00859 115.7565 196.8136 115.1875 197.1426z" stroke="#E7BC9E" stroke-width="1" fill="none" />
    <path id=""  transform="matrix(1 0 0 -1 0 316)"  d="M118.1611 203.5098C 117.5251 203.6798 117.1481 204.3328 117.3181 204.9688C 117.489105 205.60379 118.141106 205.98079 118.7771 205.81079C 119.4131 205.6408 119.7901 204.9878 119.6191 204.35179C 119.449104 203.7168 118.796104 203.3398 118.1611 203.5098z" stroke="#E7BC9E" stroke-width="1" fill="none" />
    <path id=""  transform="matrix(1 0 0 -1 0 316)"  d="M119.3857 210.4297C 118.7277 210.4297 118.194695 210.9627 118.194695 211.6197C 118.194695 212.2787 118.7277 212.8117 119.3857 212.8117C 120.042694 212.8117 120.5757 212.2787 120.5757 211.6197C 120.5757 210.9627 120.042694 210.4297 119.3857 210.4297z" stroke="#E7BC9E" stroke-width="1" fill="none" />
    <path id=""  transform="matrix(1 0 0 -1 0 316)"  d="M118.7773 217.4307C 118.1413 217.25969 117.489296 217.63669 117.3183 218.27269C 117.1483 218.90869 117.5253 219.5607 118.1613 219.73169C 118.796295 219.90169 119.449295 219.52469 119.6193 218.88869C 119.7903 218.2537 119.4133 217.6007 118.7773 217.4307z" stroke="#E7BC9E" stroke-width="1" fill="none" />
    <path id=""  transform="matrix(1 0 0 -1 0 316)"  d="M116.3779 224.0352C 115.8089 223.7062 115.0799 223.9012 114.7509 224.4712C 114.4219 225.0412 114.6169 225.7692 115.1879 226.0982C 115.7569 226.4272 116.4849 226.2312 116.814896 225.6622C 117.1429 225.0932 116.9469 224.3642 116.3779 224.0352z" stroke="#E7BC9E" stroke-width="1" fill="none" />
    <path id=""  transform="matrix(1 0 0 -1 0 316)"  d="M112.3506 229.7939C 111.885605 229.3289 111.1316 229.3289 110.6666 229.7939C 110.2016 230.2589 110.2016 231.0139 110.6666 231.4789C 111.1316 231.9429 111.885605 231.9429 112.3506 231.4789C 112.816605 231.0139 112.816605 230.2589 112.3506 229.7939z" stroke="#E7BC9E" stroke-width="1" fill="none" />
    <path id=""  transform="matrix(1 0 0 -1 0 316)"  d="M106.9707 234.3145C 106.6417 233.7455 105.912704 233.5495 105.343704 233.8785C 104.774704 234.2075 104.578705 234.9355 104.9077 235.5055C 105.2367 236.0755 105.96471 236.2705 106.534706 235.9415C 107.104706 235.6125 107.299706 234.8835 106.9707 234.3145z" stroke="#E7BC9E" stroke-width="1" fill="none" />
    <path id=""  transform="matrix(1 0 0 -1 0 316)"  d="M100.6035 237.2881C 100.4335 236.6531 99.7805 236.2751 99.1455 236.4461C 98.5095 236.6161 98.1325 237.2691 98.3025 237.9041C 98.4735 238.5401 99.1255 238.9171 99.7615 238.7471C 100.3965 238.5771 100.7745 237.9241 100.6035 237.2881z" stroke="#E7BC9E" stroke-width="1" fill="none" />
    <path id=""  transform="matrix(1 0 0 -1 0 316)"  d="M122.1396 211.6201C 122.1396 195.2471 108.8666 181.9741 92.49361 181.9741C 76.1196 181.9741 62.846603 195.2471 62.846603 211.6201C 62.846603 227.9931 76.1196 241.2661 92.49361 241.2661C 108.8666 241.2661 122.1396 227.9931 122.1396 211.6201z" stroke="#E7BC9E" stroke-width="1" fill="none" />
    <path id=""  transform="matrix(1 0 0 -1 0 316)"  d="M141.9375 211.6201C 141.9375 184.31311 119.7995 162.1761 92.4935 162.1761C 65.1855 162.1761 43.0485 184.31311 43.0485 211.6201C 43.0485 238.9281 65.1855 261.0641 92.4935 261.0641C 119.7995 261.0641 141.9375 238.9281 141.9375 211.6201z" stroke="#E7BC9E" stroke-width="1" fill="none" />
    <path id=""  transform="matrix(1 0 0 -1 0 316)"  d="M144.3818 211.6201C 144.3818 182.9631 121.1508 159.73111 92.492805 159.73111C 63.835808 159.73111 40.603806 182.9631 40.603806 211.6201C 40.603806 240.2781 63.835808 263.5101 92.492805 263.5101C 121.1508 263.5101 144.3818 240.2781 144.3818 211.6201z" stroke="#E7BC9E" stroke-width="1" fill="none" />
    <path id=""  transform="matrix(1 0 0 -1 0 316)"  d="M150.0762 211.6201C 150.0762 179.8181 124.295204 154.03711 92.4932 154.03711C 60.6912 154.03711 34.909203 179.8181 34.909203 211.6201C 34.909203 243.4231 60.6912 269.2041 92.4932 269.2041C 124.295204 269.2041 150.0762 243.4231 150.0762 211.6201z" stroke="#E7BC9E" stroke-width="1" fill="none" />
    <path id=""  transform="matrix(1 0 0 -1 0 316)"  d="M102.3916 251.166C 102.3916 245.698 97.9596 241.267 92.4936 241.267C 87.025604 241.267 82.594604 245.698 82.594604 251.166C 82.594604 256.633 87.025604 261.064 92.4936 261.064C 97.9596 261.064 102.3916 256.633 102.3916 251.166z" stroke="#E7BC9E" stroke-width="1" fill="none" />
    <path id=""  transform="matrix(1 0 0 -1 0 316)"  d="M71.5298 246.583C 75.3958 242.717 75.3958 236.44899 71.5298 232.584C 67.6638 228.71799 61.3968 228.71799 57.5308 232.584C 53.664803 236.44899 53.664803 242.717 57.5308 246.583C 61.3968 250.448 67.6638 250.448 71.5298 246.583z" stroke="#E7BC9E" stroke-width="1" fill="none" />
    <path id=""  transform="matrix(1 0 0 -1 0 316)"  d="M72.4966 244.25C 72.4966 246.072 71.0186 247.549 69.196594 247.549C 67.374596 247.549 65.8966 246.072 65.8966 244.25C 65.8966 243.339 66.266594 242.514 66.863594 241.916C 67.460594 241.319 68.2856 240.95 69.196594 240.95C 71.0186 240.95 72.4966 242.427 72.4966 244.25z" stroke="#E7BC9E" stroke-width="1" fill="none" />
    <path id=""  transform="matrix(1 0 0 -1 0 316)"  d="M56.5645 234.917C 56.5645 233.095 58.0415 231.617 59.8635 231.617C 61.6865 231.617 63.163498 233.095 63.163498 234.917C 63.163498 235.828 62.7945 236.65201 62.1975 237.25C 61.6005 237.847 60.774498 238.21701 59.8635 238.21701C 58.0415 238.21701 56.5645 236.73901 56.5645 234.917z" stroke="#E7BC9E" stroke-width="1" fill="none" />
    <path id=""  transform="matrix(1 0 0 -1 0 316)"  d="M72.4966 234.917C 72.4966 236.73901 71.0186 238.21701 69.196594 238.21701C 67.374596 238.21701 65.8966 236.73901 65.8966 234.917C 65.8966 233.095 67.374596 231.617 69.196594 231.617C 71.0186 231.617 72.4966 233.095 72.4966 234.917z" stroke="#E7BC9E" stroke-width="1" fill="none" />
    <path id=""  transform="matrix(1 0 0 -1 0 316)"  d="M62.1973 241.916C 61.6003 241.319 61.2313 240.494 61.2303 239.58301C 61.2303 238.672 61.6003 237.847 62.1973 237.25C 62.7943 236.65201 63.6193 236.283 64.5303 236.283C 66.3523 236.283 67.8303 237.761 67.8303 239.58301C 67.8303 240.494 67.4603 241.319 66.8643 241.916C 66.2663 242.514 65.4413 242.883 64.5303 242.883C 63.6193 242.883 62.7943 242.514 62.1973 241.916z" stroke="#E7BC9E" stroke-width="1" fill="none" />
    <path id=""  transform="matrix(1 0 0 -1 0 316)"  d="M59.8638 247.5488C 58.0418 247.5488 56.5648 246.0718 56.5648 244.2498C 56.5648 242.4268 58.0418 240.9498 59.8638 240.9498C 60.7748 240.9498 61.5998 241.3198 62.1968 241.9158C 62.7948 242.5138 63.1638 243.33879 63.1638 244.2498C 63.1638 246.0718 61.6858 247.5488 59.8638 247.5488z" stroke="#E7BC9E" stroke-width="1" fill="none" />
    <path id=""  transform="matrix(1 0 0 -1 0 316)"  d="M59.8638 191.624C 58.0418 191.624 56.5648 190.146 56.5648 188.32399C 56.5648 186.502 58.0418 185.02399 59.8638 185.02399C 60.7748 185.02399 61.5998 185.394 62.1968 185.991C 62.7948 186.588 63.1638 187.413 63.1638 188.32399C 63.1638 190.146 61.6858 191.624 59.8638 191.624z" stroke="#E7BC9E" stroke-width="1" fill="none" />
    <path id=""  transform="matrix(1 0 0 -1 0 316)"  d="M69.1968 175.6914C 71.0188 175.6914 72.495804 177.1694 72.495804 178.99141C 72.495804 180.8134 71.0188 182.29141 69.1968 182.29141C 68.2858 182.29141 67.4608 181.9214 66.8638 181.3244C 66.2668 180.7274 65.8968 179.9024 65.8968 178.99141C 65.8968 177.1694 67.3748 175.6914 69.1968 175.6914z" stroke="#E7BC9E" stroke-width="1" fill="none" />
    <path id=""  transform="matrix(1 0 0 -1 0 316)"  d="M69.1968 191.624C 67.3748 191.624 65.8968 190.146 65.8968 188.32399C 65.8968 186.502 67.3748 185.02399 69.1968 185.02399C 71.0188 185.02399 72.495804 186.502 72.495804 188.32399C 72.495804 190.146 71.0188 191.624 69.1968 191.624z" stroke="#E7BC9E" stroke-width="1" fill="none" />
    <path id=""  transform="matrix(1 0 0 -1 0 316)"  d="M62.1973 181.3242C 62.7943 180.7272 63.6193 180.3582 64.5303 180.3582C 65.4413 180.3582 66.2663 180.7272 66.8633 181.3242C 67.4603 181.92221 67.8303 182.7462 67.8303 183.6572C 67.8303 185.48021 66.3523 186.9572 64.5303 186.9572C 63.6193 186.9572 62.7943 186.5882 62.1973 185.99121C 61.6003 185.3932 61.2303 184.5682 61.2303 183.6572C 61.2303 182.7462 61.6003 181.92221 62.1973 181.3242z" stroke="#E7BC9E" stroke-width="1" fill="none" />
    <path id=""  transform="matrix(1 0 0 -1 0 316)"  d="M56.5645 178.9912C 56.5645 177.16919 58.0415 175.6912 59.8635 175.6912C 61.6865 175.6912 63.163498 177.16919 63.163498 178.9912C 63.163498 179.90219 62.7945 180.72719 62.1975 181.32419C 61.6005 181.9222 60.774498 182.2912 59.8635 182.2912C 58.0415 182.2912 56.5645 180.8132 56.5645 178.9912z" stroke="#E7BC9E" stroke-width="1" fill="none" />
    <path id=""  transform="matrix(1 0 0 -1 0 316)"  d="M112.4893 178.9912C 112.4903 177.16919 113.9673 175.6912 115.78931 175.6912C 117.611305 175.6912 119.0893 177.16919 119.0893 178.9912C 119.0893 179.90219 118.71931 180.72719 118.12231 181.32419C 117.52531 181.9222 116.7003 182.2912 115.78931 182.2912C 113.9673 182.2912 112.4903 180.8132 112.4893 178.9912z" stroke="#E7BC9E" stroke-width="1" fill="none" />
    <path id=""  transform="matrix(1 0 0 -1 0 316)"  d="M128.4219 188.3242C 128.4219 190.14621 126.94391 191.6242 125.1219 191.6242C 123.299904 191.6242 121.82191 190.14621 121.82191 188.3242C 121.82191 187.41321 122.1919 186.58821 122.7889 185.99121C 123.3859 185.3932 124.21091 185.0242 125.1219 185.0242C 126.94391 185.0242 128.4219 186.5022 128.4219 188.3242z" stroke="#E7BC9E" stroke-width="1" fill="none" />
    <path id=""  transform="matrix(1 0 0 -1 0 316)"  d="M112.4893 188.3242C 112.4893 186.5022 113.9673 185.0242 115.78931 185.0242C 117.611305 185.0242 119.0893 186.5022 119.0893 188.3242C 119.0893 190.14621 117.611305 191.6242 115.78931 191.6242C 113.9673 191.6242 112.4893 190.14621 112.4893 188.3242z" stroke="#E7BC9E" stroke-width="1" fill="none" />
    <path id=""  transform="matrix(1 0 0 -1 0 316)"  d="M122.7891 181.3242C 123.3861 181.92221 123.755104 182.7462 123.7561 183.6572C 123.7561 184.5682 123.3861 185.3932 122.7891 185.99121C 122.1911 186.5882 121.3671 186.9572 120.4561 186.9572C 118.6341 186.9572 117.1561 185.4792 117.1561 183.6572C 117.1561 182.7462 117.5251 181.92221 118.1221 181.3242C 118.7201 180.7272 119.5451 180.3582 120.4561 180.3582C 121.3671 180.3582 122.1911 180.7272 122.7891 181.3242z" stroke="#E7BC9E" stroke-width="1" fill="none" />
    <path id=""  transform="matrix(1 0 0 -1 0 316)"  d="M125.1221 175.6914C 126.9441 175.6914 128.4221 177.1694 128.4221 178.99141C 128.4221 180.8134 126.9441 182.29141 125.1221 182.29141C 124.2111 182.29141 123.3861 181.9214 122.7891 181.3244C 122.1911 180.7274 121.8221 179.9024 121.8221 178.99141C 121.8221 177.1694 123.3001 175.6914 125.1221 175.6914z" stroke="#E7BC9E" stroke-width="1" fill="none" />
    <path id=""  transform="matrix(1 0 0 -1 0 316)"  d="M125.1221 231.6172C 126.9441 231.6172 128.4221 233.0952 128.4221 234.9172C 128.4221 236.7392 126.9441 238.21721 125.1221 238.21721C 124.2111 238.21721 123.3861 237.8462 122.7891 237.2502C 122.1911 236.6522 121.8221 235.8282 121.8221 234.9172C 121.8221 233.0952 123.3001 231.6172 125.1221 231.6172z" stroke="#E7BC9E" stroke-width="1" fill="none" />
    <path id=""  transform="matrix(1 0 0 -1 0 316)"  d="M115.7891 247.5488C 113.9671 247.5488 112.4901 246.0718 112.4901 244.2488C 112.4901 242.4268 113.9671 240.9498 115.7891 240.9498C 116.7001 240.9498 117.5251 241.3198 118.1231 241.9158C 118.7201 242.5138 119.0891 243.3378 119.0891 244.2498C 119.0891 246.0718 117.6111 247.5488 115.7891 247.5488z" stroke="#E7BC9E" stroke-width="1" fill="none" />
    <path id=""  transform="matrix(1 0 0 -1 0 316)"  d="M115.7891 231.6172C 117.6111 231.6172 119.0891 233.0952 119.0891 234.9172C 119.0891 236.7392 117.6111 238.21721 115.7891 238.21721C 113.9671 238.21721 112.4901 236.7392 112.4901 234.9172C 112.4901 233.0952 113.9671 231.6172 115.7891 231.6172z" stroke="#E7BC9E" stroke-width="1" fill="none" />
    <path id=""  transform="matrix(1 0 0 -1 0 316)"  d="M122.7891 241.916C 122.1911 242.514 121.3671 242.883 120.4561 242.883C 119.5451 242.883 118.7201 242.514 118.1231 241.916C 117.5251 241.319 117.1561 240.494 117.1561 239.58301C 117.1561 237.761 118.6341 236.283 120.4561 236.283C 121.3671 236.283 122.1911 236.65201 122.7891 237.25C 123.3861 237.847 123.7561 238.672 123.7561 239.58301C 123.7561 240.494 123.3861 241.319 122.7891 241.916z" stroke="#E7BC9E" stroke-width="1" fill="none" />
    <path id=""  transform="matrix(1 0 0 -1 0 316)"  d="M128.4219 244.249C 128.4219 246.07199 126.94391 247.549 125.1219 247.549C 123.299904 247.549 121.82191 246.07199 121.82191 244.249C 121.82191 243.338 122.1919 242.51399 122.7889 241.916C 123.3859 241.319 124.21091 240.95 125.1219 240.95C 126.94391 240.95 128.4219 242.42699 128.4219 244.249z" stroke="#E7BC9E" stroke-width="1" fill="none" />
    <path id=""  transform="matrix(1 0 0 -1 0 316)"  d="M57.5903 190.4736C 61.456303 194.33861 67.723305 194.33861 71.5893 190.4736C 75.4553 186.6076 75.4553 180.3396 71.5893 176.47461C 67.723305 172.6086 61.456303 172.6086 57.5903 176.47461C 53.7243 180.3396 53.7243 186.6076 57.5903 190.4736z" stroke="#E7BC9E" stroke-width="1" fill="none" />
    <path id=""  transform="matrix(1 0 0 -1 0 316)"  d="M113.6992 176.5342C 109.833206 180.3992 109.833206 186.66719 113.6992 190.53319C 117.5652 194.3982 123.833206 194.3982 127.698204 190.53319C 131.56421 186.66719 131.56421 180.3992 127.698204 176.5342C 123.833206 172.6682 117.5652 172.6682 113.6992 176.5342z" stroke="#E7BC9E" stroke-width="1" fill="none" />
    <path id=""  transform="matrix(1 0 0 -1 0 316)"  d="M127.6387 232.6426C 123.773705 228.77759 117.5057 228.77759 113.6397 232.6426C 109.774704 236.50859 109.774704 242.7766 113.6397 246.64159C 117.5057 250.5076 123.773705 250.5076 127.6387 246.64159C 131.5047 242.7766 131.5047 236.50859 127.6387 232.6426z" stroke="#E7BC9E" stroke-width="1" fill="none" />
    <path id=""  transform="matrix(1 0 0 -1 0 316)"  d="M99.251 251.166C 99.251 247.434 96.226 244.408 92.493 244.408C 88.761 244.408 85.735 247.434 85.735 251.166C 85.735 254.897 88.761 257.924 92.493 257.924C 96.226 257.924 99.251 254.897 99.251 251.166z" stroke="#E7BC9E" stroke-width="1" fill="none" />
    <path id=""  transform="matrix(1 0 0 -1 0 316)"  d="M95.3398 266.3564C 95.3398 264.78442 94.065796 263.50943 92.4928 263.50943C 90.9208 263.50943 89.6458 264.78442 89.6458 266.3564C 89.6458 267.9284 90.9208 269.2044 92.4928 269.2044C 94.065796 269.2044 95.3398 267.9284 95.3398 266.3564z" stroke="#E7BC9E" stroke-width="1" fill="none" />
    <path id=""  transform="matrix(1 0 0 -1 0 316)"  d="M81.0767 265.2285C 81.483696 263.7085 80.581696 262.1485 79.0627 261.7415C 77.5447 261.3335 75.9827 262.23547 75.5767 263.7545C 75.1687 265.2735 76.0707 266.83447 77.5897 267.2415C 79.108696 267.6485 80.6697 266.7475 81.0767 265.2285z" stroke="#E7BC9E" stroke-width="1" fill="none" />
    <path id=""  transform="matrix(1 0 0 -1 0 316)"  d="M67.5908 260.4473C 68.3768 259.0853 67.9098 257.3433 66.5488 256.55728C 65.1868 255.7713 63.444798 256.23828 62.6588 257.5993C 61.8728 258.9623 62.339798 260.7033 63.700798 261.4893C 65.0628 262.2753 66.804794 261.8083 67.5908 260.4473z" stroke="#E7BC9E" stroke-width="1" fill="none" />
    <path id=""  transform="matrix(1 0 0 -1 0 316)"  d="M55.8022 252.3379C 56.9142 251.2259 56.9142 249.42291 55.8022 248.3119C 54.6902 247.19891 52.8872 247.19891 51.7752 248.3119C 50.6632 249.42291 50.6632 251.2259 51.7752 252.3379C 52.8872 253.4499 54.6902 253.4499 55.8022 252.3379z" stroke="#E7BC9E" stroke-width="1" fill="none" />
    <path id=""  transform="matrix(1 0 0 -1 0 316)"  d="M46.5137 241.4541C 47.875698 240.6681 48.342697 238.92711 47.5557 237.5641C 46.7697 236.2031 45.028698 235.7361 43.6667 236.5221C 42.3047 237.3081 41.8387 239.0501 42.6247 240.4121C 43.410698 241.7731 45.1517 242.2401 46.5137 241.4541z" stroke="#E7BC9E" stroke-width="1" fill="none" />
    <path id=""  transform="matrix(1 0 0 -1 0 316)"  d="M40.3589 228.5371C 41.8779 228.1301 42.7789 226.56909 42.3719 225.0501C 41.964897 223.5311 40.403896 222.6301 38.8849 223.0371C 37.3659 223.44409 36.464897 225.0051 36.8719 226.5241C 37.2789 228.04309 38.839897 228.94409 40.3589 228.5371z" stroke="#E7BC9E" stroke-width="1" fill="none" />
    <path id=""  transform="matrix(1 0 0 -1 0 316)"  d="M37.7568 214.4678C 39.329803 214.4678 40.6038 213.19281 40.6038 211.6198C 40.6038 210.0478 39.329803 208.7738 37.7568 208.7738C 36.184803 208.7738 34.9098 210.0478 34.9098 211.6198C 34.9098 213.19281 36.184803 214.4678 37.7568 214.4678z" stroke="#E7BC9E" stroke-width="1" fill="none" />
    <path id=""  transform="matrix(1 0 0 -1 0 316)"  d="M38.8853 200.2041C 40.4043 200.6101 41.9653 199.7091 42.3723 198.1901C 42.7793 196.6721 41.8783 195.1101 40.3593 194.7031C 38.8403 194.2971 37.2793 195.1981 36.8723 196.7171C 36.4653 198.2351 37.3663 199.7971 38.8853 200.2041z" stroke="#E7BC9E" stroke-width="1" fill="none" />
    <path id=""  transform="matrix(1 0 0 -1 0 316)"  d="M43.6665 186.7178C 45.0285 187.5038 46.7695 187.03781 47.5555 185.6758C 48.3425 184.3148 47.8755 182.5728 46.5135 181.7868C 45.1515 180.9998 43.4105 181.4668 42.6245 182.8288C 41.8385 184.19081 42.3045 185.93181 43.6665 186.7178z" stroke="#E7BC9E" stroke-width="1" fill="none" />
    <path id=""  transform="matrix(1 0 0 -1 0 316)"  d="M51.7754 174.9297C 52.887398 176.0407 54.6904 176.0407 55.8024 174.9297C 56.9144 173.8177 56.9144 172.01471 55.8024 170.9037C 54.6904 169.79071 52.887398 169.79071 51.7754 170.9037C 50.6634 172.01471 50.6634 173.8177 51.7754 174.9297z" stroke="#E7BC9E" stroke-width="1" fill="none" />
    <path id=""  transform="matrix(1 0 0 -1 0 316)"  d="M62.6592 165.6416C 63.445198 167.0026 65.1872 167.4696 66.5482 166.68361C 67.9102 165.8976 68.3772 164.15561 67.5912 162.7936C 66.8052 161.4326 65.0632 160.9656 63.7012 161.7516C 62.3402 162.5376 61.8732 164.2796 62.6592 165.6416z" stroke="#E7BC9E" stroke-width="1" fill="none" />
    <path id=""  transform="matrix(1 0 0 -1 0 316)"  d="M75.5762 159.4863C 75.9832 161.0053 77.544205 161.9063 79.0632 161.5003C 80.5822 161.0923 81.4832 159.5313 81.0762 158.0123C 80.669205 156.4933 79.1082 155.5923 77.5892 155.9993C 76.070206 156.4063 75.169205 157.9673 75.5762 159.4863z" stroke="#E7BC9E" stroke-width="1" fill="none" />
    <path id=""  transform="matrix(1 0 0 -1 0 316)"  d="M89.646 156.8848C 89.646 158.4568 90.920006 159.7318 92.493004 159.7318C 94.065 159.7318 95.340004 158.4568 95.340004 156.8848C 95.340004 155.3118 94.065 154.03679 92.493004 154.03679C 90.920006 154.03679 89.646 155.3118 89.646 156.8848z" stroke="#E7BC9E" stroke-width="1" fill="none" />
    <path id=""  transform="matrix(1 0 0 -1 0 316)"  d="M103.9092 158.0127C 103.503204 159.5317 104.404205 161.0927 105.9232 161.4997C 107.4412 161.9067 109.003204 161.0047 109.4102 159.4867C 109.8162 157.9677 108.9152 156.4067 107.3962 155.99869C 105.878204 155.5927 104.3162 156.49269 103.9092 158.0127z" stroke="#E7BC9E" stroke-width="1" fill="none" />
    <path id=""  transform="matrix(1 0 0 -1 0 316)"  d="M117.3955 162.7939C 116.6095 164.15489 117.0765 165.8979 118.4375 166.6839C 119.7985 167.4699 121.541504 167.0029 122.3275 165.6419C 123.1135 164.2789 122.6465 162.5379 121.2845 161.75189C 119.9225 160.9659 118.1815 161.4329 117.3955 162.7939z" stroke="#E7BC9E" stroke-width="1" fill="none" />
    <path id=""  transform="matrix(1 0 0 -1 0 316)"  d="M129.1836 170.9033C 128.0726 172.0143 128.0726 173.8173 129.1836 174.9293C 130.2956 176.0413 132.09859 176.0413 133.21059 174.9293C 134.3226 173.8173 134.3226 172.0143 133.21059 170.9033C 132.09859 169.7913 130.2956 169.7913 129.1836 170.9033z" stroke="#E7BC9E" stroke-width="1" fill="none" />
    <path id=""  transform="matrix(1 0 0 -1 0 316)"  d="M138.4727 181.7871C 137.1107 182.57309 136.6437 184.31409 137.4297 185.67609C 138.2167 187.0381 139.9577 187.50409 141.3197 186.7181C 142.6817 185.9321 143.1477 184.1901 142.3617 182.8291C 141.5757 181.46709 139.8337 181.00009 138.4727 181.7871z" stroke="#E7BC9E" stroke-width="1" fill="none" />
    <path id=""  transform="matrix(1 0 0 -1 0 316)"  d="M144.627 194.7031C 143.108 195.11009 142.207 196.67209 142.614 198.1901C 143.021 199.70909 144.582 200.61009 146.101 200.2041C 147.62 199.79709 148.522 198.23509 148.114 196.7171C 147.707 195.19809 146.146 194.29709 144.627 194.7031z" stroke="#E7BC9E" stroke-width="1" fill="none" />
    <path id=""  transform="matrix(1 0 0 -1 0 316)"  d="M147.2295 208.7734C 145.65651 208.7734 144.3815 210.04741 144.3815 211.6204C 144.3815 213.19241 145.65651 214.4674 147.2295 214.4674C 148.80151 214.4674 150.0765 213.19241 150.0765 211.6204C 150.0765 210.04741 148.80151 208.7734 147.2295 208.7734z" stroke="#E7BC9E" stroke-width="1" fill="none" />
    <path id=""  transform="matrix(1 0 0 -1 0 316)"  d="M146.1006 223.0371C 144.5816 222.6301 143.0206 223.5311 142.6146 225.0501C 142.2066 226.56909 143.1086 228.1301 144.6266 228.5371C 146.1456 228.94409 147.7066 228.04309 148.1146 226.5241C 148.5216 225.0051 147.6206 223.44409 146.1006 223.0371z" stroke="#E7BC9E" stroke-width="1" fill="none" />
    <path id=""  transform="matrix(1 0 0 -1 0 316)"  d="M141.3193 236.5225C 139.95831 235.73651 138.21631 236.2035 137.4293 237.56451C 136.64331 238.92651 137.1103 240.6685 138.4723 241.45451C 139.8343 242.24051 141.5753 241.77351 142.36131 240.4125C 143.14731 239.0495 142.6813 237.3085 141.3193 236.5225z" stroke="#E7BC9E" stroke-width="1" fill="none" />
    <path id=""  transform="matrix(1 0 0 -1 0 316)"  d="M133.2109 248.3115C 132.0989 247.1995 130.29591 247.1995 129.18391 248.3115C 128.0719 249.42249 128.0719 251.2255 129.18391 252.3375C 130.29591 253.4505 132.0989 253.4505 133.2109 252.3375C 134.3219 251.2255 134.3219 249.42249 133.2109 248.3115z" stroke="#E7BC9E" stroke-width="1" fill="none" />
    <path id=""  transform="matrix(1 0 0 -1 0 316)"  d="M122.3271 257.5996C 121.5411 256.23862 119.7991 255.7716 118.4371 256.55762C 117.0761 257.3436 116.6091 259.0846 117.3951 260.4476C 118.18111 261.80862 119.9231 262.2756 121.2841 261.48962C 122.6461 260.7036 123.113106 258.9616 122.3271 257.5996z" stroke="#E7BC9E" stroke-width="1" fill="none" />
    <path id=""  transform="matrix(1 0 0 -1 0 316)"  d="M109.4102 263.7549C 109.003204 262.23492 107.4412 261.33392 105.9232 261.7409C 104.404205 262.14893 103.503204 263.70892 103.9092 265.2289C 104.3162 266.74692 105.878204 267.64893 107.3962 267.2409C 108.9152 266.8349 109.8162 265.27393 109.4102 263.7549z" stroke="#E7BC9E" stroke-width="1" fill="none" />
    <path id=""  transform="matrix(1 0 0 -1 0 316)"  d="M92.4932 261.0645L92.4932 257.92352" stroke="#E7BC9E" stroke-width="1" fill="none" />
    <path id=""  transform="matrix(1 0 0 -1 0 316)"  d="M92.4932 244.4082L92.4932 241.2662" stroke="#E7BC9E" stroke-width="1" fill="none" />
    <path id=""  transform="matrix(1 0 0 -1 0 316)"  d="M99.251 251.166L102.392 251.166" stroke="#E7BC9E" stroke-width="1" fill="none" />
    <path id=""  transform="matrix(1 0 0 -1 0 316)"  d="M85.7354 251.166L82.5944 251.166" stroke="#E7BC9E" stroke-width="1" fill="none" />
    <path id=""  transform="matrix(1 0 0 -1 0 316)"  d="M52.9478 221.5195C 58.4148 221.5195 62.8468 217.0875 62.8468 211.6205C 62.8468 206.1535 58.4148 201.7215 52.9478 201.7215C 47.4808 201.7215 43.048798 206.1535 43.048798 211.6205C 43.048798 217.0875 47.4808 221.5195 52.9478 221.5195z" stroke="#E7BC9E" stroke-width="1" fill="none" />
    <path id=""  transform="matrix(1 0 0 -1 0 316)"  d="M52.9478 218.3779C 56.6798 218.3779 59.7058 215.3529 59.7058 211.6199C 59.7058 207.8879 56.6798 204.8619 52.9478 204.8619C 49.2158 204.8619 46.1898 207.8879 46.1898 211.6199C 46.1898 215.3529 49.2158 218.3779 52.9478 218.3779z" stroke="#E7BC9E" stroke-width="1" fill="none" />
    <path id=""  transform="matrix(1 0 0 -1 0 316)"  d="M43.0488 211.6201L46.1898 211.6201" stroke="#E7BC9E" stroke-width="1" fill="none" />
    <path id=""  transform="matrix(1 0 0 -1 0 316)"  d="M59.7056 211.6201L62.8466 211.6201" stroke="#E7BC9E" stroke-width="1" fill="none" />
    <path id=""  transform="matrix(1 0 0 -1 0 316)"  d="M52.9478 218.3779L52.9478 221.5199" stroke="#E7BC9E" stroke-width="1" fill="none" />
    <path id=""  transform="matrix(1 0 0 -1 0 316)"  d="M52.9478 204.8623L52.9478 201.7213" stroke="#E7BC9E" stroke-width="1" fill="none" />
    <path id=""  transform="matrix(1 0 0 -1 0 316)"  d="M82.5942 172.0752C 82.5942 177.54219 87.0262 181.97319 92.4932 181.97319C 97.9602 181.97319 102.391205 177.54219 102.391205 172.0752C 102.391205 166.6082 97.9602 162.1762 92.4932 162.1762C 87.0262 162.1762 82.5942 166.6082 82.5942 172.0752z" stroke="#E7BC9E" stroke-width="1" fill="none" />
    <path id=""  transform="matrix(1 0 0 -1 0 316)"  d="M85.7354 172.0752C 85.7354 175.80719 88.7604 178.83319 92.4934 178.83319C 96.225395 178.83319 99.251396 175.80719 99.251396 172.0752C 99.251396 168.3432 96.225395 165.3172 92.4934 165.3172C 88.7604 165.3172 85.7354 168.3432 85.7354 172.0752z" stroke="#E7BC9E" stroke-width="1" fill="none" />
    <path id=""  transform="matrix(1 0 0 -1 0 316)"  d="M92.4932 162.1758L92.4932 165.3178" stroke="#E7BC9E" stroke-width="1" fill="none" />
    <path id=""  transform="matrix(1 0 0 -1 0 316)"  d="M92.4932 178.833L92.4932 181.974" stroke="#E7BC9E" stroke-width="1" fill="none" />
    <path id=""  transform="matrix(1 0 0 -1 0 316)"  d="M85.7354 172.0752L82.5944 172.0752" stroke="#E7BC9E" stroke-width="1" fill="none" />
    <path id=""  transform="matrix(1 0 0 -1 0 316)"  d="M99.251 172.0752L102.392 172.0752" stroke="#E7BC9E" stroke-width="1" fill="none" />
    <path id=""  transform="matrix(1 0 0 -1 0 316)"  d="M132.0381 201.7217C 126.5711 201.7217 122.1401 206.1537 122.1401 211.61969C 122.1401 217.08769 126.5711 221.5197 132.0381 221.5197C 137.5051 221.5197 141.9371 217.08769 141.9371 211.61969C 141.9371 206.1537 137.5051 201.7217 132.0381 201.7217z" stroke="#E7BC9E" stroke-width="1" fill="none" />
    <path id=""  transform="matrix(1 0 0 -1 0 316)"  d="M132.0381 204.8623C 128.3061 204.8623 125.2801 207.8873 125.2801 211.6203C 125.2801 215.35231 128.3061 218.37831 132.0381 218.37831C 135.7701 218.37831 138.7961 215.35231 138.7961 211.6203C 138.7961 207.8873 135.7701 204.8623 132.0381 204.8623z" stroke="#E7BC9E" stroke-width="1" fill="none" />
    <path id=""  transform="matrix(1 0 0 -1 0 316)"  d="M141.9375 211.6201L138.7955 211.6201" stroke="#E7BC9E" stroke-width="1" fill="none" />
    <path id=""  transform="matrix(1 0 0 -1 0 316)"  d="M125.2803 211.6201L122.1393 211.6201" stroke="#E7BC9E" stroke-width="1" fill="none" />
    <path id=""  transform="matrix(1 0 0 -1 0 316)"  d="M132.0381 204.8623L132.0381 201.7213" stroke="#E7BC9E" stroke-width="1" fill="none" />
    <path id=""  transform="matrix(1 0 0 -1 0 316)"  d="M132.0381 218.3779L132.0381 221.5199" stroke="#E7BC9E" stroke-width="1" fill="none" />
    <path id=""  transform="matrix(1 0 0 -1 0 316)"  d="M92.4932 263.5098L92.4932 261.0648" stroke="#E7BC9E" stroke-width="1" fill="none" />
    <path id=""  transform="matrix(1 0 0 -1 0 316)"  d="M83.4824 262.7207L83.9074 260.3137" stroke="#E7BC9E" stroke-width="1" fill="none" />
    <path id=""  transform="matrix(1 0 0 -1 0 316)"  d="M74.7461 260.3799L75.5821 258.08292" stroke="#E7BC9E" stroke-width="1" fill="none" />
    <path id=""  transform="matrix(1 0 0 -1 0 316)"  d="M66.5483 256.5576L67.7713 254.44058" stroke="#E7BC9E" stroke-width="1" fill="none" />
    <path id=""  transform="matrix(1 0 0 -1 0 316)"  d="M59.1396 251.3701L60.710598 249.4971" stroke="#E7BC9E" stroke-width="1" fill="none" />
    <path id=""  transform="matrix(1 0 0 -1 0 316)"  d="M52.7437 244.9736L54.6167 243.4026" stroke="#E7BC9E" stroke-width="1" fill="none" />
    <path id=""  transform="matrix(1 0 0 -1 0 316)"  d="M47.5557 237.5645L49.6737 236.3425" stroke="#E7BC9E" stroke-width="1" fill="none" />
    <path id=""  transform="matrix(1 0 0 -1 0 316)"  d="M43.7334 229.3672L46.0304 228.5312" stroke="#E7BC9E" stroke-width="1" fill="none" />
    <path id=""  transform="matrix(1 0 0 -1 0 316)"  d="M41.3926 220.6309L43.799603 220.2059" stroke="#E7BC9E" stroke-width="1" fill="none" />
    <path id=""  transform="matrix(1 0 0 -1 0 316)"  d="M40.604 211.6201L43.049 211.6201" stroke="#E7BC9E" stroke-width="1" fill="none" />
    <path id=""  transform="matrix(1 0 0 -1 0 316)"  d="M41.3926 202.6104L43.799603 203.0344" stroke="#E7BC9E" stroke-width="1" fill="none" />
    <path id=""  transform="matrix(1 0 0 -1 0 316)"  d="M43.7334 193.873L46.0304 194.71" stroke="#E7BC9E" stroke-width="1" fill="none" />
    <path id=""  transform="matrix(1 0 0 -1 0 316)"  d="M47.5557 185.6758L49.6737 186.8988" stroke="#E7BC9E" stroke-width="1" fill="none" />
    <path id=""  transform="matrix(1 0 0 -1 0 316)"  d="M52.7437 178.2666L54.6167 179.8376" stroke="#E7BC9E" stroke-width="1" fill="none" />
    <path id=""  transform="matrix(1 0 0 -1 0 316)"  d="M59.1396 171.8711L60.710598 173.7441" stroke="#E7BC9E" stroke-width="1" fill="none" />
    <path id=""  transform="matrix(1 0 0 -1 0 316)"  d="M66.5483 166.6836L67.7713 168.8006" stroke="#E7BC9E" stroke-width="1" fill="none" />
    <path id=""  transform="matrix(1 0 0 -1 0 316)"  d="M74.7461 162.8604L75.5821 165.1584" stroke="#E7BC9E" stroke-width="1" fill="none" />
    <path id=""  transform="matrix(1 0 0 -1 0 316)"  d="M83.4824 160.5195L83.9074 162.9275" stroke="#E7BC9E" stroke-width="1" fill="none" />
    <path id=""  transform="matrix(1 0 0 -1 0 316)"  d="M92.4932 159.7314L92.4932 162.1754" stroke="#E7BC9E" stroke-width="1" fill="none" />
    <path id=""  transform="matrix(1 0 0 -1 0 316)"  d="M101.5039 160.5195L101.078896 162.9275" stroke="#E7BC9E" stroke-width="1" fill="none" />
    <path id=""  transform="matrix(1 0 0 -1 0 316)"  d="M110.2402 162.8604L109.4042 165.1584" stroke="#E7BC9E" stroke-width="1" fill="none" />
    <path id=""  transform="matrix(1 0 0 -1 0 316)"  d="M118.4375 166.6836L117.2145 168.8006" stroke="#E7BC9E" stroke-width="1" fill="none" />
    <path id=""  transform="matrix(1 0 0 -1 0 316)"  d="M125.8467 171.8711L124.2757 173.7441" stroke="#E7BC9E" stroke-width="1" fill="none" />
    <path id=""  transform="matrix(1 0 0 -1 0 316)"  d="M132.2422 178.2666L130.3692 179.8376" stroke="#E7BC9E" stroke-width="1" fill="none" />
    <path id=""  transform="matrix(1 0 0 -1 0 316)"  d="M137.4297 185.6758L135.3127 186.8988" stroke="#E7BC9E" stroke-width="1" fill="none" />
    <path id=""  transform="matrix(1 0 0 -1 0 316)"  d="M141.2529 193.873L138.9549 194.71" stroke="#E7BC9E" stroke-width="1" fill="none" />
    <path id=""  transform="matrix(1 0 0 -1 0 316)"  d="M143.5937 202.6104L141.1857 203.0344" stroke="#E7BC9E" stroke-width="1" fill="none" />
    <path id=""  transform="matrix(1 0 0 -1 0 316)"  d="M144.3818 211.6201L141.9378 211.6201" stroke="#E7BC9E" stroke-width="1" fill="none" />
    <path id=""  transform="matrix(1 0 0 -1 0 316)"  d="M143.5937 220.6309L141.1857 220.2059" stroke="#E7BC9E" stroke-width="1" fill="none" />
    <path id=""  transform="matrix(1 0 0 -1 0 316)"  d="M141.2529 229.3672L138.9549 228.5312" stroke="#E7BC9E" stroke-width="1" fill="none" />
    <path id=""  transform="matrix(1 0 0 -1 0 316)"  d="M137.4297 237.5645L135.3127 236.3425" stroke="#E7BC9E" stroke-width="1" fill="none" />
    <path id=""  transform="matrix(1 0 0 -1 0 316)"  d="M132.2422 244.9736L130.3692 243.4026" stroke="#E7BC9E" stroke-width="1" fill="none" />
    <path id=""  transform="matrix(1 0 0 -1 0 316)"  d="M125.8467 251.3701L124.2757 249.4971" stroke="#E7BC9E" stroke-width="1" fill="none" />
    <path id=""  transform="matrix(1 0 0 -1 0 316)"  d="M118.4375 256.5576L117.2145 254.44058" stroke="#E7BC9E" stroke-width="1" fill="none" />
    <path id=""  transform="matrix(1 0 0 -1 0 316)"  d="M110.2402 260.3799L109.4042 258.08292" stroke="#E7BC9E" stroke-width="1" fill="none" />
    <path id=""  transform="matrix(1 0 0 -1 0 316)"  d="M101.5039 262.7207L101.078896 260.3137" stroke="#E7BC9E" stroke-width="1" fill="none" />
    <path id=""  transform="matrix(1 0 0 -1 0 316)"  d="M73.5718 257.3008L81.1478 239.00981" stroke="#E7BC9E" stroke-width="1" fill="none" />
    <path id=""  transform="matrix(1 0 0 -1 0 316)"  d="M73.4526 249.2002L79.3836 251.6572" stroke="#E7BC9E" stroke-width="1" fill="none" />
    <path id=""  transform="matrix(1 0 0 -1 0 316)"  d="M46.7969 230.5391L65.087906 222.96309" stroke="#E7BC9E" stroke-width="1" fill="none" />
    <path id=""  transform="matrix(1 0 0 -1 0 316)"  d="M52.4409 224.7266L54.8979 230.6576" stroke="#E7BC9E" stroke-width="1" fill="none" />
    <path id=""  transform="matrix(1 0 0 -1 0 316)"  d="M46.7881 192.6826L65.0791 200.2586" stroke="#E7BC9E" stroke-width="1" fill="none" />
    <path id=""  transform="matrix(1 0 0 -1 0 316)"  d="M54.8887 192.5635L52.431698 198.4945" stroke="#E7BC9E" stroke-width="1" fill="none" />
    <path id=""  transform="matrix(1 0 0 -1 0 316)"  d="M73.5503 165.9082L81.127304 184.1992" stroke="#E7BC9E" stroke-width="1" fill="none" />
    <path id=""  transform="matrix(1 0 0 -1 0 316)"  d="M79.3623 171.5518L73.4313 174.0088" stroke="#E7BC9E" stroke-width="1" fill="none" />
    <path id=""  transform="matrix(1 0 0 -1 0 316)"  d="M111.4063 165.8994L103.83031 184.1904" stroke="#E7BC9E" stroke-width="1" fill="none" />
    <path id=""  transform="matrix(1 0 0 -1 0 316)"  d="M111.5254 174L105.5944 171.543" stroke="#E7BC9E" stroke-width="1" fill="none" />
    <path id=""  transform="matrix(1 0 0 -1 0 316)"  d="M138.1807 192.6611L119.89069 200.2371" stroke="#E7BC9E" stroke-width="1" fill="none" />
    <path id=""  transform="matrix(1 0 0 -1 0 316)"  d="M132.5371 198.4736L130.0811 192.5426" stroke="#E7BC9E" stroke-width="1" fill="none" />
    <path id=""  transform="matrix(1 0 0 -1 0 316)"  d="M138.1895 230.5176L119.8995 222.94159" stroke="#E7BC9E" stroke-width="1" fill="none" />
    <path id=""  transform="matrix(1 0 0 -1 0 316)"  d="M130.0889 230.6367L132.5459 224.7047" stroke="#E7BC9E" stroke-width="1" fill="none" />
    <path id=""  transform="matrix(1 0 0 -1 0 316)"  d="M111.4277 257.292L103.8517 239.00099" stroke="#E7BC9E" stroke-width="1" fill="none" />
    <path id=""  transform="matrix(1 0 0 -1 0 316)"  d="M105.6152 251.6484L111.547195 249.1914" stroke="#E7BC9E" stroke-width="1" fill="none" />
		</g>
	</g>
</g>
</svg>