<?xml version="1.0" standalone="no"?>
<!DOCTYPE svg PUBLIC "-//W3C//DTD SVG 1.0//EN" "http://www.w3.org/TR/2001/REC-SVG-20010904/DTD/svg10.dtd">
<svg xmlns="http://www.w3.org/2000/svg" xmlns:xlink="http://www.w3.org/1999/xlink" id="body_8" width="247" height="421">

<defs>
    <clipPath  id="1">

    <path id=""  clip-rule="evenodd" transform="matrix(1 0 0 1 0 0)"  d="M0 316L0 0L0 0L185 0L185 0L185 316L185 316L0 316z" />    </clipPath>
    <clipPath  id="2">

    <path id=""  clip-rule="evenodd" transform="matrix(1 0 0 1 0 0)"  d="M0 0L185 0L185 0L185 316L185 316L0 316z" />    </clipPath>
    <clipPath  id="3">

    <path id=""  clip-rule="evenodd" transform="matrix(1 0 0 1 0 0)"  d="M77.1198 51.786987L86.5433 51.786987L86.5433 51.786987L86.5433 81.41L86.5433 81.41L77.1198 81.41z" />    </clipPath>
    <clipPath  id="4">

    <path id=""  clip-rule="evenodd" transform="matrix(1 0 0 1 0 0)"  d="M53.7063 65.558L75.7723 65.558L75.7723 65.558L75.7723 87.62399L75.7723 87.62399L53.7063 87.62399z" />    </clipPath>
    <clipPath  id="5">

    <path id=""  clip-rule="evenodd" transform="matrix(1 0 0 1 0 0)"  d="M39.9357 88.97099L69.558 88.97099L69.558 88.97099L69.558 98.395004L69.558 98.395004L39.9357 98.395004z" />    </clipPath>
    <clipPath  id="6">

    <path id=""  clip-rule="evenodd" transform="matrix(1 0 0 1 0 0)"  d="M39.9357 110.308L69.558 110.308L69.558 110.308L69.558 119.731995L69.558 119.731995L39.9357 119.731995z" />    </clipPath>
    <clipPath  id="7">

    <path id=""  clip-rule="evenodd" transform="matrix(1 0 0 1 0 0)"  d="M53.7063 121.078995L75.7723 121.078995L75.7723 121.078995L75.7723 143.145L75.7723 143.145L53.7063 143.145z" />    </clipPath>
    <clipPath  id="8">

    <path id=""  clip-rule="evenodd" transform="matrix(1 0 0 1 0 0)"  d="M77.1198 127.29401L86.5433 127.29401L86.5433 127.29401L86.5433 156.916L86.5433 156.916L77.1198 156.916z" />    </clipPath>
    <clipPath  id="9">

    <path id=""  clip-rule="evenodd" transform="matrix(1 0 0 1 0 0)"  d="M98.4569 127.29401L107.88 127.29401L107.88 127.29401L107.88 156.916L107.88 156.916L98.4569 156.916z" />    </clipPath>
    <clipPath  id="10">

    <path id=""  clip-rule="evenodd" transform="matrix(1 0 0 1 0 0)"  d="M109.228 121.078995L131.294 121.078995L131.294 121.078995L131.294 143.145L131.294 143.145L109.228 143.145z" />    </clipPath>
    <clipPath  id="11">

    <path id=""  clip-rule="evenodd" transform="matrix(1 0 0 1 0 0)"  d="M115.442 110.308L145.065 110.308L145.065 110.308L145.065 119.731995L145.065 119.731995L115.442 119.731995z" />    </clipPath>
    <clipPath  id="12">

    <path id=""  clip-rule="evenodd" transform="matrix(1 0 0 1 0 0)"  d="M115.442 88.97099L145.065 88.97099L145.065 88.97099L145.065 98.395004L145.065 98.395004L115.442 98.395004z" />    </clipPath>
    <clipPath  id="13">

    <path id=""  clip-rule="evenodd" transform="matrix(1 0 0 1 0 0)"  d="M109.228 65.558L131.294 65.558L131.294 65.558L131.294 87.62399L131.294 87.62399L109.228 87.62399z" />    </clipPath>
    <clipPath  id="14">

    <path id=""  clip-rule="evenodd" transform="matrix(1 0 0 1 0 0)"  d="M98.4569 51.786987L107.88 51.786987L107.88 51.786987L107.88 81.41L107.88 81.41L98.4569 81.41z" />    </clipPath>
</defs>

<g transform="matrix(1.3333 0 0 1.3333 0 0)">
	<g clip-path="url(#1)" >
		<g clip-path="url(#2)" >
    <path id=""  transform="matrix(1 0 0 -1 0 316)"  d="M93.9131 267.1934C 93.9131 266.4134 93.2801 265.7804 92.5001 265.7804C 91.7201 265.7804 91.087105 266.4134 91.087105 267.1934C 91.087105 267.9734 91.7201 268.60638 92.5001 268.60638C 93.2801 268.60638 93.9131 267.9734 93.9131 267.1934z" stroke="#E7BC9E" stroke-width="0.5" fill="none" />
    <path id=""  transform="matrix(1 0 0 -1 0 316)"  d="M91.0039 267.1914C 91.0449 266.4124 90.4459 265.7474 89.6669 265.70642C 88.8879 265.6654 88.2229 266.2634 88.1819 267.0434C 88.1409 267.82242 88.7399 268.4874 89.5189 268.5284C 90.2979 268.5694 90.9629 267.9704 91.0039 267.1914z" stroke="#E7BC9E" stroke-width="0.5" fill="none" />
    <path id=""  transform="matrix(1 0 0 -1 0 316)"  d="M88.0991 267.0371C 88.1811 266.2611 87.618095 265.56512 86.8421 265.48312C 86.0661 265.4021 85.3701 265.96512 85.2891 266.74112C 85.2071 267.51712 85.770096 268.2131 86.5461 268.2941C 87.3221 268.3761 88.0171 267.8121 88.0991 267.0371z" stroke="#E7BC9E" stroke-width="0.5" fill="none" />
    <path id=""  transform="matrix(1 0 0 -1 0 316)"  d="M85.2065 266.7305C 85.3285 265.9595 84.8025 265.2365 84.03249 265.1145C 83.2615 264.9925 82.5375 265.5175 82.4155 266.2885C 82.293495 267.0595 82.819496 267.7835 83.5895 267.9055C 84.3605 268.0275 85.084496 267.5015 85.2065 266.7305z" stroke="#E7BC9E" stroke-width="0.5" fill="none" />
    <path id=""  transform="matrix(1 0 0 -1 0 316)"  d="M82.3335 266.2734C 82.496506 265.5094 82.00851 264.7594 81.24551 264.5974C 80.48151 264.4354 79.73151 264.9224 79.5695 265.6854C 79.4075 266.4494 79.8945 267.1994 80.6575 267.36142C 81.4215 267.5234 82.1715 267.0364 82.3335 266.2734z" stroke="#E7BC9E" stroke-width="0.5" fill="none" />
    <path id=""  transform="matrix(1 0 0 -1 0 316)"  d="M79.4888 265.666C 79.6908 264.912 79.2438 264.13797 78.4898 263.93597C 77.7358 263.73398 76.9618 264.18198 76.759796 264.935C 76.5568 265.688 77.0048 266.464 77.7588 266.66498C 78.5118 266.86697 79.2868 266.41998 79.4888 265.666z" stroke="#E7BC9E" stroke-width="0.5" fill="none" />
    <path id=""  transform="matrix(1 0 0 -1 0 316)"  d="M76.6797 264.9111C 76.9207 264.1691 76.5147 263.3721 75.772705 263.1311C 75.0307 262.8901 74.2337 263.2961 73.9917 264.03812C 73.7507 264.7801 74.1577 265.5771 74.899704 265.8181C 75.6407 266.0591 76.438705 265.6531 76.6797 264.9111z" stroke="#E7BC9E" stroke-width="0.5" fill="none" />
    <path id=""  transform="matrix(1 0 0 -1 0 316)"  d="M73.9136 264.0107C 74.193596 263.2817 73.8296 262.46472 73.1016 262.18472C 72.3726 261.9057 71.555595 262.2697 71.2756 262.9977C 70.9966 263.7267 71.3596 264.54272 72.0886 264.82272C 72.8166 265.10272 73.6336 264.73972 73.9136 264.0107z" stroke="#E7BC9E" stroke-width="0.5" fill="none" />
    <path id=""  transform="matrix(1 0 0 -1 0 316)"  d="M71.1987 262.9658C 71.5157 262.25278 71.1957 261.4178 70.4827 261.1008C 69.7697 260.78278 68.9347 261.1038 68.6167 261.8168C 68.2997 262.52878 68.6207 263.3638 69.3337 263.6818C 70.0457 263.99878 70.8817 263.6788 71.1987 262.9658z" stroke="#E7BC9E" stroke-width="0.5" fill="none" />
    <path id=""  transform="matrix(1 0 0 -1 0 316)"  d="M68.542 261.7803C 68.895996 261.0853 68.62 260.2343 67.925 259.88132C 67.23 259.5263 66.378 259.8023 66.024 260.4983C 65.67 261.1933 65.947 262.0443 66.642 262.39832C 67.337 262.7523 68.188 262.4753 68.542 261.7803z" stroke="#E7BC9E" stroke-width="0.5" fill="none" />
    <path id=""  transform="matrix(1 0 0 -1 0 316)"  d="M65.9512 260.458C 66.3412 259.782 66.1102 258.918 65.434204 258.528C 64.7582 258.138 63.894203 258.36902 63.504204 259.045C 63.114204 259.721 63.345203 260.58502 64.0212 260.976C 64.697205 261.36502 65.5612 261.134 65.9512 260.458z" stroke="#E7BC9E" stroke-width="0.5" fill="none" />
    <path id=""  transform="matrix(1 0 0 -1 0 316)"  d="M63.4331 259.002C 63.8581 258.34802 63.6721 257.47302 63.0171 257.04703C 62.363102 256.622 61.488102 256.80902 61.063103 257.463C 60.6381 258.117 60.8241 258.992 61.4781 259.41702C 62.133102 259.842 63.008102 259.656 63.4331 259.002z" stroke="#E7BC9E" stroke-width="0.5" fill="none" />
    <path id=""  transform="matrix(1 0 0 -1 0 316)"  d="M60.9946 257.416C 61.4526 256.784 61.3136 255.89998 60.6826 255.44199C 60.0506 254.98299 59.1666 255.12299 58.7086 255.75499C 58.2496 256.386 58.3896 257.27 59.0206 257.728C 59.6526 258.18698 60.5366 258.047 60.9946 257.416z" stroke="#E7BC9E" stroke-width="0.5" fill="none" />
    <path id=""  transform="matrix(1 0 0 -1 0 316)"  d="M58.6426 255.7041C 59.133602 255.0981 59.0396 254.2081 58.4336 253.7171C 57.827602 253.2251 56.9376 253.3191 56.4466 253.9261C 55.9556 254.5321 56.0486 255.4221 56.6556 255.9131C 57.2616 256.4041 58.1516 256.3101 58.6426 255.7041z" stroke="#E7BC9E" stroke-width="0.5" fill="none" />
    <path id=""  transform="matrix(1 0 0 -1 0 316)"  d="M56.3833 253.8721C 56.9053 253.2921 56.8583 252.3981 56.2793 251.8761C 55.6983 251.3541 54.8053 251.40111 54.283302 251.9801C 53.7613 252.5601 53.8083 253.4541 54.387302 253.9761C 54.9673 254.49811 55.8613 254.4511 56.3833 253.8721z" stroke="#E7BC9E" stroke-width="0.5" fill="none" />
    <path id=""  transform="matrix(1 0 0 -1 0 316)"  d="M54.2231 251.9238C 54.775097 251.3718 54.775097 250.4778 54.2231 249.9258C 53.6711 249.3738 52.7771 249.3738 52.225098 249.9258C 51.6731 250.4778 51.6731 251.3718 52.225098 251.9238C 52.7771 252.4758 53.6711 252.4758 54.2231 251.9238z" stroke="#E7BC9E" stroke-width="0.5" fill="none" />
    <path id=""  transform="matrix(1 0 0 -1 0 316)"  d="M52.1675 249.8652C 52.7475 249.3432 52.7945 248.4492 52.2715 247.87021C 51.7505 247.2902 50.8565 247.24321 50.2765 247.7652C 49.6965 248.2872 49.649498 249.1802 50.1725 249.7612C 50.6945 250.3412 51.587498 250.3872 52.1675 249.8652z" stroke="#E7BC9E" stroke-width="0.5" fill="none" />
    <path id=""  transform="matrix(1 0 0 -1 0 316)"  d="M50.2227 247.7021C 50.828697 247.2111 50.9227 246.3211 50.431698 245.7151C 49.940697 245.10811 49.050697 245.0141 48.4447 245.5061C 47.8377 245.9971 47.744698 246.8871 48.2357 247.4931C 48.7267 248.0991 49.6167 248.1931 50.2227 247.7021z" stroke="#E7BC9E" stroke-width="0.5" fill="none" />
    <path id=""  transform="matrix(1 0 0 -1 0 316)"  d="M48.3936 245.4395C 49.0246 244.9815 49.1646 244.0975 48.7066 243.46649C 48.2476 242.8355 47.3646 242.6955 46.7326 243.1535C 46.1016 243.6125 45.9616 244.4965 46.4206 245.1275C 46.8786 245.7585 47.7626 245.8985 48.3936 245.4395z" stroke="#E7BC9E" stroke-width="0.5" fill="none" />
    <path id=""  transform="matrix(1 0 0 -1 0 316)"  d="M46.6855 243.085C 47.3405 242.66 47.5255 241.785 47.1015 241.13101C 46.676502 240.477 45.801502 240.29001 45.1465 240.716C 44.4925 241.141 44.3065 242.016 44.731503 242.67001C 45.1565 243.324 46.0315 243.51001 46.6855 243.085z" stroke="#E7BC9E" stroke-width="0.5" fill="none" />
    <path id=""  transform="matrix(1 0 0 -1 0 316)"  d="M45.103 240.6445C 45.779 240.2535 46.011 239.3905 45.62 238.71451C 45.23 238.0395 44.366 237.8065 43.690002 238.1975C 43.015 238.5865 42.783 239.4515 43.173 240.1265C 43.563 240.8025 44.427002 241.0345 45.103 240.6445z" stroke="#E7BC9E" stroke-width="0.5" fill="none" />
    <path id=""  transform="matrix(1 0 0 -1 0 316)"  d="M43.6504 238.124C 44.345398 237.76999 44.6224 236.91899 44.2684 236.224C 43.9144 235.528 43.063396 235.252 42.367397 235.60599C 41.672398 235.961 41.396397 236.812 41.750397 237.50699C 42.104397 238.202 42.9554 238.478 43.6504 238.124z" stroke="#E7BC9E" stroke-width="0.5" fill="none" />
    <path id=""  transform="matrix(1 0 0 -1 0 316)"  d="M42.332 235.5312C 43.045002 235.2142 43.365 234.37921 43.048 233.6662C 42.73 232.9532 41.895 232.63321 41.183002 232.95021C 40.47 233.26721 40.149002 234.1022 40.467 234.8152C 40.784 235.5282 41.619 235.8482 42.332 235.5312z" stroke="#E7BC9E" stroke-width="0.5" fill="none" />
    <path id=""  transform="matrix(1 0 0 -1 0 316)"  d="M41.1509 232.873C 41.8799 232.593 42.2429 231.776 41.962902 231.048C 41.683903 230.319 40.8669 229.955 40.1379 230.23401C 39.4099 230.515 39.045902 231.332 39.3249 232.061C 39.6049 232.789 40.4219 233.15201 41.1509 232.873z" stroke="#E7BC9E" stroke-width="0.5" fill="none" />
    <path id=""  transform="matrix(1 0 0 -1 0 316)"  d="M40.1104 230.1562C 40.8524 229.9152 41.2584 229.11821 41.017403 228.3762C 40.7764 227.6342 39.9794 227.2272 39.2374 227.4682C 38.4954 227.7102 38.0894 228.5072 38.330402 229.2492C 38.5714 229.99121 39.3684 230.3972 40.1104 230.1562z" stroke="#E7BC9E" stroke-width="0.5" fill="none" />
    <path id=""  transform="matrix(1 0 0 -1 0 316)"  d="M39.2134 227.3887C 39.967403 227.1877 40.414402 226.4117 40.212402 225.6597C 40.010403 224.9057 39.2354 224.4577 38.482403 224.6597C 37.7284 224.86171 37.281403 225.6367 37.483402 226.38971C 37.685402 227.1437 38.460403 227.5907 39.2134 227.3887z" stroke="#E7BC9E" stroke-width="0.5" fill="none" />
    <path id=""  transform="matrix(1 0 0 -1 0 316)"  d="M38.4629 224.5791C 39.2259 224.4171 39.7129 223.6661 39.5509 222.9031C 39.388897 222.1401 38.638897 221.6521 37.874897 221.8141C 37.111897 221.9761 36.624897 222.7271 36.7869 223.4901C 36.9489 224.2541 37.6989 224.7411 38.4629 224.5791z" stroke="#E7BC9E" stroke-width="0.5" fill="none" />
    <path id=""  transform="matrix(1 0 0 -1 0 316)"  d="M37.8599 221.7334C 38.6309 221.6114 39.156902 220.8864 39.0349 220.1164C 38.912903 219.3454 38.1889 218.8204 37.4179 218.9424C 36.6479 219.06439 36.121902 219.78839 36.2439 220.5584C 36.365902 221.32939 37.0889 221.8554 37.8599 221.7334z" stroke="#E7BC9E" stroke-width="0.5" fill="none" />
    <path id=""  transform="matrix(1 0 0 -1 0 316)"  d="M37.4072 218.8594C 38.1832 218.77841 38.7462 218.0834 38.6642 217.30641C 38.5832 216.53041 37.8872 215.9674 37.1122 216.0484C 36.3362 216.1304 35.7732 216.8264 35.8542 217.60141C 35.9362 218.3784 36.6312 218.9414 37.4072 218.8594z" stroke="#E7BC9E" stroke-width="0.5" fill="none" />
    <path id=""  transform="matrix(1 0 0 -1 0 316)"  d="M37.1055 215.9658C 37.8845 215.92581 38.4825 215.2608 38.4425 214.48181C 38.4015 213.70181 37.7365 213.1038 36.9575 213.1448C 36.1785 213.1858 35.5795 213.84981 35.6205 214.6288C 35.6615 215.4078 36.3265 216.0068 37.1055 215.9658z" stroke="#E7BC9E" stroke-width="0.5" fill="none" />
    <path id=""  transform="matrix(1 0 0 -1 0 316)"  d="M36.9551 213.0615C 37.7351 213.0615 38.3681 212.4285 38.3681 211.6485C 38.3681 210.8685 37.7351 210.23549 36.9551 210.23549C 36.175102 210.23549 35.542103 210.8685 35.542103 211.6485C 35.542103 212.4285 36.175102 213.0615 36.9551 213.0615z" stroke="#E7BC9E" stroke-width="0.5" fill="none" />
    <path id=""  transform="matrix(1 0 0 -1 0 316)"  d="M36.9575 210.1523C 37.7365 210.1933 38.4015 209.5943 38.4425 208.81529C 38.482502 208.0363 37.8845 207.37129 37.1055 207.33029C 36.3265 207.2903 35.6615 207.8873 35.6205 208.6673C 35.579502 209.4463 36.1785 210.1113 36.9575 210.1523z" stroke="#E7BC9E" stroke-width="0.5" fill="none" />
    <path id=""  transform="matrix(1 0 0 -1 0 316)"  d="M37.1118 207.2471C 37.887802 207.3291 38.5828 206.7661 38.664803 205.9901C 38.7458 205.2141 38.1828 204.5181 37.4068 204.4371C 36.630802 204.3551 35.935802 204.9191 35.8548 205.6941C 35.7728 206.4711 36.3358 207.1661 37.1118 207.2471z" stroke="#E7BC9E" stroke-width="0.5" fill="none" />
    <path id=""  transform="matrix(1 0 0 -1 0 316)"  d="M37.418 204.3545C 38.189 204.4765 38.913 203.9515 39.035 203.18051C 39.156998 202.4095 38.631 201.6855 37.86 201.5635C 37.089 201.44151 36.365997 201.96751 36.244 202.73851C 36.121998 203.50851 36.647 204.23251 37.418 204.3545z" stroke="#E7BC9E" stroke-width="0.5" fill="none" />
    <path id=""  transform="matrix(1 0 0 -1 0 316)"  d="M37.875 201.4814C 38.639 201.6444 39.389 201.1574 39.551 200.3934C 39.713 199.6304 39.226 198.8794 38.463 198.7174C 37.699 198.5554 36.949 199.0434 36.787 199.8054C 36.625 200.5694 37.112 201.3194 37.875 201.4814z" stroke="#E7BC9E" stroke-width="0.5" fill="none" />
    <path id=""  transform="matrix(1 0 0 -1 0 316)"  d="M38.4819 198.6367C 39.2359 198.8387 40.0109 198.39171 40.2119 197.63771C 40.414898 196.8837 39.9669 196.10971 39.2129 195.9077C 38.4599 195.7057 37.6849 196.1537 37.4829 196.90671C 37.2809 197.6597 37.7289 198.43471 38.4819 198.6367z" stroke="#E7BC9E" stroke-width="0.5" fill="none" />
    <path id=""  transform="matrix(1 0 0 -1 0 316)"  d="M39.2373 195.8281C 39.9793 196.06909 40.776302 195.6631 41.0173 194.9211C 41.2583 194.1791 40.852303 193.3821 40.110302 193.14009C 39.3683 192.8991 38.5713 193.30609 38.3303 194.0481C 38.089302 194.7891 38.4953 195.5871 39.2373 195.8281z" stroke="#E7BC9E" stroke-width="0.5" fill="none" />
    <path id=""  transform="matrix(1 0 0 -1 0 316)"  d="M40.1382 193.0615C 40.8672 193.34149 41.683197 192.9775 41.9632 192.2495C 42.2432 191.5205 41.8792 190.70349 41.1512 190.4235C 40.4222 190.14449 39.605198 190.50749 39.3252 191.2365C 39.0462 191.9645 39.4092 192.78249 40.1382 193.0615z" stroke="#E7BC9E" stroke-width="0.5" fill="none" />
    <path id=""  transform="matrix(1 0 0 -1 0 316)"  d="M41.1826 190.3467C 41.8956 190.6637 42.7306 190.34369 43.0476 189.63069C 43.365597 188.9177 43.044598 188.0827 42.331596 187.7657C 41.6196 187.4487 40.7846 187.76869 40.4666 188.48169C 40.149597 189.1947 40.469597 190.0297 41.1826 190.3467z" stroke="#E7BC9E" stroke-width="0.5" fill="none" />
    <path id=""  transform="matrix(1 0 0 -1 0 316)"  d="M42.3677 187.6904C 43.0627 188.0444 43.9137 187.7684 44.2677 187.0734C 44.6227 186.3784 44.3457 185.5264 43.6507 185.1724C 42.9557 184.8184 42.1047 185.0944 41.750698 185.7904C 41.3957 186.4854 41.6727 187.3364 42.3677 187.6904z" stroke="#E7BC9E" stroke-width="0.5" fill="none" />
    <path id=""  transform="matrix(1 0 0 -1 0 316)"  d="M43.6904 185.0996C 44.366398 185.4896 45.2304 185.2576 45.6204 184.58159C 46.0104 183.9066 45.7784 183.0416 45.103397 182.65259C 44.4274 182.2616 43.5634 182.4946 43.1734 183.1696C 42.783398 183.84459 43.0144 184.70859 43.6904 185.0996z" stroke="#E7BC9E" stroke-width="0.5" fill="none" />
    <path id=""  transform="matrix(1 0 0 -1 0 316)"  d="M45.1465 182.5811C 45.8015 183.0061 46.6765 182.8201 47.1015 182.1661C 47.5255 181.5121 47.3405 180.6371 46.6855 180.2121C 46.031498 179.7861 45.156498 179.9731 44.7315 180.6271C 44.3065 181.2811 44.4925 182.1561 45.1465 182.5811z" stroke="#E7BC9E" stroke-width="0.5" fill="none" />
    <path id=""  transform="matrix(1 0 0 -1 0 316)"  d="M46.7329 180.1426C 47.3639 180.6016 48.2479 180.4616 48.706898 179.8306C 49.164898 179.1996 49.0249 178.3156 48.393898 177.8566C 47.762897 177.39859 46.8789 177.53859 46.4209 178.1686C 45.9619 178.8006 46.1019 179.6846 46.7329 180.1426z" stroke="#E7BC9E" stroke-width="0.5" fill="none" />
    <path id=""  transform="matrix(1 0 0 -1 0 316)"  d="M48.4443 177.791C 49.0503 178.282 49.9403 178.188 50.4313 177.582C 50.9233 176.976 50.8293 176.086 50.2223 175.595C 49.616302 175.103 48.726303 175.197 48.235302 175.804C 47.7443 176.41 47.838303 177.3 48.4443 177.791z" stroke="#E7BC9E" stroke-width="0.5" fill="none" />
    <path id=""  transform="matrix(1 0 0 -1 0 316)"  d="M50.2769 175.5312C 50.856903 176.0532 51.7499 176.0072 52.2719 175.4272C 52.794903 174.8462 52.747902 173.95421 52.1679 173.4312C 51.587902 172.90921 50.6939 172.9562 50.1729 173.53621C 49.649902 174.11621 49.6969 175.01021 50.2769 175.5312z" stroke="#E7BC9E" stroke-width="0.5" fill="none" />
    <path id=""  transform="matrix(1 0 0 -1 0 316)"  d="M52.2251 173.3711C 52.7771 173.9231 53.6711 173.9231 54.223103 173.3711C 54.7751 172.81909 54.7751 171.9251 54.223103 171.3731C 53.6711 170.82109 52.7771 170.82109 52.2251 171.3731C 51.673103 171.9251 51.673103 172.81909 52.2251 173.3711z" stroke="#E7BC9E" stroke-width="0.5" fill="none" />
    <path id=""  transform="matrix(1 0 0 -1 0 316)"  d="M54.2832 171.3154C 54.8052 171.8954 55.6992 171.9424 56.279198 171.4194C 56.8582 170.89839 56.9052 170.0044 56.383198 169.4244C 55.8612 168.8444 54.9682 168.7974 54.3872 169.3204C 53.8082 169.84239 53.7612 170.7364 54.2832 171.3154z" stroke="#E7BC9E" stroke-width="0.5" fill="none" />
    <path id=""  transform="matrix(1 0 0 -1 0 316)"  d="M56.4468 169.3711C 56.9378 169.9771 57.8268 170.07109 58.4338 169.5801C 59.0398 169.0891 59.1338 168.1991 58.6428 167.5931C 58.151802 166.9861 57.2618 166.89209 56.6548 167.3841C 56.0488 167.87509 55.9558 168.76509 56.4468 169.3711z" stroke="#E7BC9E" stroke-width="0.5" fill="none" />
    <path id=""  transform="matrix(1 0 0 -1 0 316)"  d="M58.7085 167.542C 59.1665 168.173 60.0505 168.313 60.6825 167.854C 61.3135 167.39601 61.4535 166.513 60.9945 165.88101C 60.5365 165.25 59.6525 165.10901 59.0205 165.56801C 58.3895 166.02701 58.2505 166.91101 58.7085 167.542z" stroke="#E7BC9E" stroke-width="0.5" fill="none" />
    <path id=""  transform="matrix(1 0 0 -1 0 316)"  d="M61.0635 165.834C 61.4885 166.488 62.3635 166.675 63.017498 166.249C 63.6715 165.824 63.8575 164.949 63.4335 164.295C 63.0085 163.641 62.1335 163.454 61.4785 163.88C 60.8245 164.305 60.6385 165.18 61.0635 165.834z" stroke="#E7BC9E" stroke-width="0.5" fill="none" />
    <path id=""  transform="matrix(1 0 0 -1 0 316)"  d="M63.5039 164.251C 63.893898 164.927 64.7579 165.15901 65.4339 164.76901C 66.1099 164.37901 66.3409 163.51501 65.9509 162.839C 65.5609 162.16301 64.6969 161.932 64.0209 162.32101C 63.3449 162.712 63.1139 163.57501 63.5039 164.251z" stroke="#E7BC9E" stroke-width="0.5" fill="none" />
    <path id=""  transform="matrix(1 0 0 -1 0 316)"  d="M66.0244 162.7988C 66.378395 163.4938 67.2294 163.7708 67.9244 163.4158C 68.6204 163.0628 68.8964 162.2108 68.5424 161.5158C 68.1884 160.8198 67.336395 160.5438 66.641396 160.8988C 65.946396 161.25279 65.6704 162.10379 66.0244 162.7988z" stroke="#E7BC9E" stroke-width="0.5" fill="none" />
    <path id=""  transform="matrix(1 0 0 -1 0 316)"  d="M68.6172 161.4805C 68.934204 162.1935 69.7692 162.5135 70.4822 162.1965C 71.195206 161.8785 71.516205 161.0435 71.1992 160.3315C 70.8812 159.6185 70.0462 159.2975 69.333206 159.6155C 68.6202 159.9325 68.3002 160.7675 68.6172 161.4805z" stroke="#E7BC9E" stroke-width="0.5" fill="none" />
    <path id=""  transform="matrix(1 0 0 -1 0 316)"  d="M71.2754 160.2988C 71.5554 161.0278 72.3724 161.3918 73.101395 161.1108C 73.8294 160.8318 74.1934 160.0148 73.9134 159.2858C 73.6334 158.5578 72.8174 158.1948 72.0884 158.4738C 71.3594 158.75279 70.9964 159.5698 71.2754 160.2988z" stroke="#E7BC9E" stroke-width="0.5" fill="none" />
    <path id=""  transform="matrix(1 0 0 -1 0 316)"  d="M73.9922 159.2588C 74.2332 160.00081 75.030205 160.4068 75.7722 160.1658C 76.514206 159.9248 76.920204 159.1278 76.68021 158.3858C 76.4382 157.6438 75.641205 157.23781 74.8992 157.4788C 74.1572 157.7198 73.751205 158.5168 73.9922 159.2588z" stroke="#E7BC9E" stroke-width="0.5" fill="none" />
    <path id=""  transform="matrix(1 0 0 -1 0 316)"  d="M76.7593 158.3613C 76.9613 159.1153 77.7363 159.5623 78.4893 159.36029C 79.2433 159.1593 79.6913 158.3833 79.4883 157.6303C 79.2863 156.8773 78.5123 156.42929 77.7583 156.6313C 77.0043 156.8333 76.5573 157.60829 76.7593 158.3613z" stroke="#E7BC9E" stroke-width="0.5" fill="none" />
    <path id=""  transform="matrix(1 0 0 -1 0 316)"  d="M79.5698 157.6113C 79.731804 158.3743 80.481804 158.8613 81.245804 158.6993C 82.008804 158.5373 82.495804 157.7873 82.3338 157.0233C 82.1718 156.2593 81.4218 155.7733 80.6578 155.9353C 79.8948 156.09729 79.4068 156.84729 79.5698 157.6113z" stroke="#E7BC9E" stroke-width="0.5" fill="none" />
    <path id=""  transform="matrix(1 0 0 -1 0 316)"  d="M82.4155 157.0078C 82.5375 157.7788 83.2615 158.3048 84.03249 158.1828C 84.8025 158.06079 85.3285 157.33679 85.2065 156.5668C 85.084496 155.79579 84.3605 155.26979 83.5895 155.3918C 82.819496 155.5138 82.293495 156.2368 82.4155 157.0078z" stroke="#E7BC9E" stroke-width="0.5" fill="none" />
    <path id=""  transform="matrix(1 0 0 -1 0 316)"  d="M85.2891 156.5557C 85.3711 157.33069 86.0661 157.8947 86.8421 157.8127C 87.6181 157.73169 88.1811 157.03569 88.0991 156.25969C 88.0181 155.4847 87.3221 154.9207 86.5461 155.0027C 85.7701 155.0837 85.2071 155.7797 85.2891 156.5557z" stroke="#E7BC9E" stroke-width="0.5" fill="none" />
    <path id=""  transform="matrix(1 0 0 -1 0 316)"  d="M88.1821 156.2539C 88.2231 157.0319 88.8881 157.6309 89.6671 157.59091C 90.4461 157.54991 91.0451 156.8849 91.0041 156.10591C 90.9631 155.32591 90.298096 154.7279 89.5191 154.7689C 88.7401 154.8099 88.1411 155.4749 88.1821 156.2539z" stroke="#E7BC9E" stroke-width="0.5" fill="none" />
    <path id=""  transform="matrix(1 0 0 -1 0 316)"  d="M91.0874 156.1035C 91.0874 156.8835 91.719406 157.5165 92.500404 157.5165C 93.2804 157.5165 93.9134 156.8835 93.9134 156.1035C 93.9134 155.3235 93.2804 154.6905 92.500404 154.6905C 91.719406 154.6905 91.0874 155.3235 91.0874 156.1035z" stroke="#E7BC9E" stroke-width="0.5" fill="none" />
    <path id=""  transform="matrix(1 0 0 -1 0 316)"  d="M93.9961 156.1055C 93.9551 156.8845 94.5541 157.5495 95.3331 157.5905C 96.1121 157.6305 96.7771 157.0325 96.8181 156.2535C 96.8581 155.4745 96.2611 154.8095 95.4811 154.7685C 94.7021 154.7275 94.0371 155.32649 93.9961 156.1055z" stroke="#E7BC9E" stroke-width="0.5" fill="none" />
    <path id=""  transform="matrix(1 0 0 -1 0 316)"  d="M96.9014 156.2598C 96.8194 157.0358 97.3824 157.7318 98.1584 157.81279C 98.934395 157.89479 99.6304 157.3308 99.711395 156.5558C 99.793396 155.7798 99.2294 155.0838 98.4544 155.00279C 97.6774 154.92079 96.9824 155.4848 96.9014 156.2598z" stroke="#E7BC9E" stroke-width="0.5" fill="none" />
    <path id=""  transform="matrix(1 0 0 -1 0 316)"  d="M99.7939 156.5664C 99.6719 157.3374 100.1969 158.06041 100.9679 158.1824C 101.7389 158.30441 102.4629 157.7794 102.5849 157.0074C 102.7069 156.23741 102.1809 155.51341 101.4099 155.3914C 100.6399 155.26941 99.9159 155.79541 99.7939 156.5664z" stroke="#E7BC9E" stroke-width="0.5" fill="none" />
    <path id=""  transform="matrix(1 0 0 -1 0 316)"  d="M102.667 157.0234C 102.504 157.78741 102.991 158.53741 103.755 158.6994C 104.518 158.8614 105.269 158.3744 105.431 157.6114C 105.593 156.84741 105.105 156.09741 104.343 155.93541C 103.579 155.7734 102.829 156.2594 102.667 157.0234z" stroke="#E7BC9E" stroke-width="0.5" fill="none" />
    <path id=""  transform="matrix(1 0 0 -1 0 316)"  d="M105.5117 157.6299C 105.3097 158.3839 105.75671 159.1589 106.510704 159.3599C 107.2647 159.5629 108.038704 159.1149 108.24071 158.3609C 108.4437 157.6089 107.994705 156.8329 107.24171 156.6309C 106.4887 156.4299 105.71371 156.87689 105.5117 157.6299z" stroke="#E7BC9E" stroke-width="0.5" fill="none" />
    <path id=""  transform="matrix(1 0 0 -1 0 316)"  d="M108.3203 158.3857C 108.0803 159.1277 108.4853 159.9247 109.227295 160.1657C 109.9693 160.4067 110.7663 160.0007 111.0083 159.2587C 111.2493 158.5167 110.8423 157.7197 110.100296 157.4787C 109.3593 157.2377 108.561295 157.64369 108.3203 158.3857z" stroke="#E7BC9E" stroke-width="0.5" fill="none" />
    <path id=""  transform="matrix(1 0 0 -1 0 316)"  d="M111.0869 159.2861C 110.8069 160.0151 111.1709 160.8321 111.898895 161.1111C 112.6279 161.3911 113.4449 161.0271 113.7249 160.2991C 114.0039 159.5701 113.6409 158.7531 112.911896 158.4741C 112.1839 158.1941 111.3659 158.5571 111.0869 159.2861z" stroke="#E7BC9E" stroke-width="0.5" fill="none" />
    <path id=""  transform="matrix(1 0 0 -1 0 316)"  d="M113.8018 160.3311C 113.4848 161.0441 113.8048 161.8791 114.51781 162.1961C 115.230804 162.5141 116.0658 162.1931 116.382805 161.4801C 116.69981 160.7681 116.37981 159.9331 115.6668 159.6151C 114.953804 159.2981 114.118805 159.6181 113.8018 160.3311z" stroke="#E7BC9E" stroke-width="0.5" fill="none" />
    <path id=""  transform="matrix(1 0 0 -1 0 316)"  d="M116.458 161.5156C 116.104004 162.2106 116.38 163.06259 117.075 163.41559C 117.77 163.7706 118.622 163.4946 118.976 162.7986C 119.33 162.10359 119.054 161.2526 118.358 160.89859C 117.663 160.5436 116.812 160.82059 116.458 161.5156z" stroke="#E7BC9E" stroke-width="0.5" fill="none" />
    <path id=""  transform="matrix(1 0 0 -1 0 316)"  d="M119.0488 162.8389C 118.6588 163.5149 118.8908 164.37889 119.566795 164.76889C 120.2418 165.1589 121.1068 164.9269 121.4958 164.2509C 121.886795 163.57489 121.6538 162.7119 120.9798 162.32089C 120.303795 161.9319 119.4398 162.1629 119.0488 162.8389z" stroke="#E7BC9E" stroke-width="0.5" fill="none" />
    <path id=""  transform="matrix(1 0 0 -1 0 316)"  d="M121.5674 164.2949C 121.142395 164.94891 121.3284 165.82391 121.9824 166.2489C 122.6364 166.67491 123.5114 166.4879 123.9364 165.83391C 124.3624 165.1799 124.1754 164.3049 123.5214 163.87991C 122.8674 163.4539 121.9924 163.6409 121.5674 164.2949z" stroke="#E7BC9E" stroke-width="0.5" fill="none" />
    <path id=""  transform="matrix(1 0 0 -1 0 316)"  d="M124.0059 165.8809C 123.5469 166.51291 123.6869 167.3959 124.317894 167.8549C 124.9489 168.3139 125.8329 168.17291 126.2919 167.5419C 126.7499 166.9109 126.60989 166.0269 125.9799 165.56891C 125.3479 165.10991 124.4639 165.24991 124.0059 165.8809z" stroke="#E7BC9E" stroke-width="0.5" fill="none" />
    <path id=""  transform="matrix(1 0 0 -1 0 316)"  d="M126.3574 167.5928C 125.8664 168.1988 125.960396 169.0888 126.5664 169.5798C 127.1724 170.07181 128.0624 169.9778 128.5534 169.3708C 129.0454 168.7648 128.9514 167.8748 128.3444 167.3838C 127.738396 166.8928 126.8484 166.9868 126.3574 167.5928z" stroke="#E7BC9E" stroke-width="0.5" fill="none" />
    <path id=""  transform="matrix(1 0 0 -1 0 316)"  d="M128.6172 169.4248C 128.0952 170.0048 128.1412 170.8988 128.7212 171.4198C 129.3022 171.94281 130.1942 171.8958 130.71721 171.31581C 131.2392 170.7368 131.1922 169.8428 130.6122 169.3208C 130.0322 168.7978 129.1382 168.8448 128.6172 169.4248z" stroke="#E7BC9E" stroke-width="0.5" fill="none" />
    <path id=""  transform="matrix(1 0 0 -1 0 316)"  d="M130.7773 171.373C 130.2253 171.925 130.2253 172.819 130.7773 173.371C 131.3293 173.923 132.2233 173.923 132.7753 173.371C 133.3273 172.819 133.3273 171.925 132.7753 171.373C 132.2233 170.821 131.3293 170.821 130.7773 171.373z" stroke="#E7BC9E" stroke-width="0.5" fill="none" />
    <path id=""  transform="matrix(1 0 0 -1 0 316)"  d="M132.833 173.4316C 132.25299 173.9536 132.206 174.84659 132.72899 175.42659C 133.25 176.00659 134.144 176.05359 134.724 175.5316C 135.30399 175.0096 135.351 174.1166 134.82799 173.5356C 134.306 172.9556 133.41199 172.90959 132.833 173.4316z" stroke="#E7BC9E" stroke-width="0.5" fill="none" />
    <path id=""  transform="matrix(1 0 0 -1 0 316)"  d="M134.7773 175.5947C 134.1713 176.0857 134.0773 176.9757 134.5683 177.5817C 135.0593 178.18869 135.9493 178.2827 136.5553 177.7907C 137.1623 177.2997 137.2563 176.4097 136.7643 175.8037C 136.2733 175.1977 135.3833 175.1037 134.7773 175.5947z" stroke="#E7BC9E" stroke-width="0.5" fill="none" />
    <path id=""  transform="matrix(1 0 0 -1 0 316)"  d="M136.6064 177.8564C 135.9754 178.3154 135.8354 179.1994 136.2944 179.8304C 136.7524 180.4614 137.6354 180.6014 138.2674 180.1424C 138.8984 179.6844 139.0394 178.8004 138.5804 178.1684C 138.1214 177.5384 137.2374 177.3984 136.6064 177.8564z" stroke="#E7BC9E" stroke-width="0.5" fill="none" />
    <path id=""  transform="matrix(1 0 0 -1 0 316)"  d="M138.3145 180.2119C 137.66049 180.6369 137.4735 181.5119 137.8995 182.1659C 138.3245 182.8199 139.1995 183.0059 139.8535 182.5809C 140.50749 182.1559 140.6945 181.2809 140.2685 180.62689C 139.8435 179.9729 138.9685 179.7859 138.3145 180.2119z" stroke="#E7BC9E" stroke-width="0.5" fill="none" />
    <path id=""  transform="matrix(1 0 0 -1 0 316)"  d="M139.8975 182.6523C 139.22151 183.0423 138.9895 183.9063 139.3795 184.58229C 139.7695 185.2573 140.6335 185.4893 141.30951 185.0993C 141.9855 184.7093 142.2165 183.8443 141.8275 183.1703C 141.43651 182.4943 140.5735 182.26129 139.8975 182.6523z" stroke="#E7BC9E" stroke-width="0.5" fill="none" />
    <path id=""  transform="matrix(1 0 0 -1 0 316)"  d="M141.3496 185.1729C 140.65459 185.5269 140.3776 186.3779 140.73259 187.07289C 141.08559 187.76889 141.93759 188.04489 142.6326 187.6909C 143.3286 187.33589 143.6046 186.4849 143.24959 185.7899C 142.8956 185.0949 142.0446 184.8189 141.3496 185.1729z" stroke="#E7BC9E" stroke-width="0.5" fill="none" />
    <path id=""  transform="matrix(1 0 0 -1 0 316)"  d="M142.668 187.7656C 141.955 188.0826 141.635 188.91759 141.952 189.6306C 142.27 190.3436 143.105 190.66359 143.817 190.34659C 144.53 190.0296 144.851 189.1946 144.533 188.4816C 144.216 187.7686 143.381 187.4486 142.668 187.7656z" stroke="#E7BC9E" stroke-width="0.5" fill="none" />
    <path id=""  transform="matrix(1 0 0 -1 0 316)"  d="M143.8496 190.4238C 143.12059 190.7028 142.75659 191.5208 143.0376 192.2488C 143.31659 192.9778 144.13359 193.3418 144.8626 193.0618C 145.59059 192.7818 145.9536 191.9648 145.67459 191.2358C 145.3956 190.5078 144.5786 190.14479 143.8496 190.4238z" stroke="#E7BC9E" stroke-width="0.5" fill="none" />
    <path id=""  transform="matrix(1 0 0 -1 0 316)"  d="M144.8896 193.1406C 144.1476 193.38159 143.74161 194.17859 143.9826 194.9206C 144.2236 195.6626 145.0206 196.0696 145.7626 195.8286C 146.50461 195.5866 146.9106 194.78859 146.6696 194.04759C 146.4286 193.30559 145.6316 192.8996 144.8896 193.1406z" stroke="#E7BC9E" stroke-width="0.5" fill="none" />
    <path id=""  transform="matrix(1 0 0 -1 0 316)"  d="M145.7871 195.9072C 145.0331 196.10919 144.58609 196.8842 144.7881 197.63719C 144.98909 198.39119 145.76509 198.8392 146.5181 198.6362C 147.27109 198.43419 147.7191 197.6602 147.51709 196.90619C 147.3151 196.1532 146.5401 195.70619 145.7871 195.9072z" stroke="#E7BC9E" stroke-width="0.5" fill="none" />
    <path id=""  transform="matrix(1 0 0 -1 0 316)"  d="M146.5371 198.7178C 145.7741 198.8798 145.2871 199.6308 145.4491 200.3938C 145.6111 201.1568 146.3611 201.6448 147.12509 201.48181C 147.8891 201.31981 148.37509 200.56981 148.21309 199.8058C 148.0511 199.0428 147.3011 198.5558 146.5371 198.7178z" stroke="#E7BC9E" stroke-width="0.5" fill="none" />
    <path id=""  transform="matrix(1 0 0 -1 0 316)"  d="M147.1406 201.5635C 146.3696 201.6855 145.8436 202.4095 145.96559 203.18051C 146.0876 203.9515 146.8116 204.4765 147.58159 204.3545C 148.3526 204.23251 148.8786 203.50851 148.75659 202.73851C 148.6346 201.96751 147.91159 201.44151 147.1406 201.5635z" stroke="#E7BC9E" stroke-width="0.5" fill="none" />
    <path id=""  transform="matrix(1 0 0 -1 0 316)"  d="M147.5928 204.4375C 146.81781 204.5185 146.2538 205.2135 146.3358 205.9905C 146.41681 206.7655 147.11281 207.3295 147.88881 207.2475C 148.6638 207.1665 149.2278 206.4705 149.1458 205.6945C 149.0648 204.9185 148.3688 204.3555 147.5928 204.4375z" stroke="#E7BC9E" stroke-width="0.5" fill="none" />
    <path id=""  transform="matrix(1 0 0 -1 0 316)"  d="M147.8945 207.3301C 147.1165 207.3711 146.5175 208.03609 146.5575 208.8151C 146.5985 209.5951 147.2635 210.1931 148.0425 210.1521C 148.8225 210.1111 149.4205 209.44609 149.3795 208.6671C 149.3385 207.88809 148.67351 207.2901 147.8945 207.3301z" stroke="#E7BC9E" stroke-width="0.5" fill="none" />
    <path id=""  transform="matrix(1 0 0 -1 0 316)"  d="M148.0449 210.2354C 147.26491 210.2354 146.63191 210.8684 146.63191 211.64839C 146.63191 212.42839 147.26491 213.0614 148.0449 213.0614C 148.8249 213.0614 149.4579 212.42839 149.4579 211.64839C 149.4579 210.8684 148.8249 210.2354 148.0449 210.2354z" stroke="#E7BC9E" stroke-width="0.5" fill="none" />
    <path id=""  transform="matrix(1 0 0 -1 0 316)"  d="M148.043 213.1445C 147.26399 213.1035 146.599 213.7025 146.558 214.4815C 146.518 215.2605 147.116 215.9255 147.895 215.9655C 148.674 216.0065 149.339 215.40851 149.38 214.6285C 149.421 213.8495 148.822 213.1855 148.043 213.1445z" stroke="#E7BC9E" stroke-width="0.5" fill="none" />
    <path id=""  transform="matrix(1 0 0 -1 0 316)"  d="M147.8887 216.0488C 147.1127 215.9678 146.4167 216.5298 146.33571 217.3068C 146.25371 218.0828 146.8177 218.7778 147.5927 218.8598C 148.3687 218.9418 149.0647 218.37779 149.1457 217.60179C 149.2277 216.82579 148.6637 216.1308 147.8887 216.0488z" stroke="#E7BC9E" stroke-width="0.5" fill="none" />
    <path id=""  transform="matrix(1 0 0 -1 0 316)"  d="M147.582 218.9424C 146.811 218.8204 146.088 219.3454 145.966 220.1164C 145.844 220.8864 146.369 221.6114 147.141 221.7334C 147.911 221.8554 148.635 221.32939 148.757 220.5584C 148.879 219.78839 148.353 219.06439 147.582 218.9424z" stroke="#E7BC9E" stroke-width="0.5" fill="none" />
    <path id=""  transform="matrix(1 0 0 -1 0 316)"  d="M147.125 221.8145C 146.361 221.6525 145.611 222.1395 145.449 222.9035C 145.287 223.6665 145.774 224.4175 146.537 224.5795C 147.301 224.7415 148.051 224.2535 148.213 223.4905C 148.375 222.7275 147.889 221.9765 147.125 221.8145z" stroke="#E7BC9E" stroke-width="0.5" fill="none" />
    <path id=""  transform="matrix(1 0 0 -1 0 316)"  d="M146.5186 224.6602C 145.7646 224.4582 144.9896 224.9052 144.7886 225.6592C 144.5856 226.4122 145.0336 227.1872 145.7876 227.3892C 146.5396 227.5912 147.3156 227.1432 147.5176 226.3892C 147.7186 225.6372 147.2716 224.8612 146.5186 224.6602z" stroke="#E7BC9E" stroke-width="0.5" fill="none" />
    <path id=""  transform="matrix(1 0 0 -1 0 316)"  d="M145.7627 227.4687C 145.02069 227.2277 144.2237 227.6337 143.9827 228.3757C 143.7417 229.1177 144.14769 229.9147 144.8897 230.15671C 145.6317 230.3977 146.4287 229.9907 146.6697 229.2487C 146.91069 228.5067 146.5047 227.7097 145.7627 227.4687z" stroke="#E7BC9E" stroke-width="0.5" fill="none" />
    <path id=""  transform="matrix(1 0 0 -1 0 316)"  d="M144.8623 230.2344C 144.1333 229.9554 143.3163 230.31941 143.03731 231.04741C 142.75731 231.77641 143.1213 232.5924 143.8493 232.87341C 144.57831 233.1524 145.39531 232.7894 145.6743 232.06041C 145.9543 231.33241 145.59131 230.5144 144.8623 230.2344z" stroke="#E7BC9E" stroke-width="0.5" fill="none" />
    <path id=""  transform="matrix(1 0 0 -1 0 316)"  d="M143.8174 232.9502C 143.1044 232.6332 142.2694 232.9532 141.9524 233.6662C 141.6344 234.3792 141.9554 235.2142 142.6684 235.53119C 143.3804 235.84819 144.2154 235.5282 144.5334 234.8152C 144.8504 234.10219 144.5304 233.2672 143.8174 232.9502z" stroke="#E7BC9E" stroke-width="0.5" fill="none" />
    <path id=""  transform="matrix(1 0 0 -1 0 316)"  d="M142.6328 235.6064C 141.93779 235.2524 141.0858 235.5284 140.7328 236.2234C 140.37779 236.9184 140.6538 237.7694 141.3498 238.1244C 142.0448 238.4784 142.8958 238.2024 143.2498 237.5064C 143.6048 236.8114 143.3278 235.9604 142.6328 235.6064z" stroke="#E7BC9E" stroke-width="0.5" fill="none" />
    <path id=""  transform="matrix(1 0 0 -1 0 316)"  d="M141.3096 238.1973C 140.6336 237.80629 139.7696 238.03929 139.37961 238.7153C 138.9896 239.39029 139.2216 240.2543 139.8976 240.6443C 140.57361 241.0343 141.4366 240.80229 141.8276 240.12729C 142.2166 239.4513 141.9856 238.5873 141.3096 238.1973z" stroke="#E7BC9E" stroke-width="0.5" fill="none" />
    <path id=""  transform="matrix(1 0 0 -1 0 316)"  d="M139.8535 240.7158C 139.1995 240.28981 138.3245 240.4768 137.8995 241.1308C 137.4735 241.7848 137.6605 242.6598 138.3145 243.08481C 138.9685 243.50981 139.8435 243.3238 140.2685 242.6698C 140.6945 242.01581 140.5075 241.14081 139.8535 240.7158z" stroke="#E7BC9E" stroke-width="0.5" fill="none" />
    <path id=""  transform="matrix(1 0 0 -1 0 316)"  d="M138.2676 243.1533C 137.63559 242.69531 136.7526 242.83531 136.2936 243.46631C 135.8346 244.0973 135.97559 244.98131 136.6066 245.4393C 137.2376 245.8983 138.1216 245.7583 138.57959 245.1273C 139.03859 244.4963 138.89859 243.6123 138.2676 243.1533z" stroke="#E7BC9E" stroke-width="0.5" fill="none" />
    <path id=""  transform="matrix(1 0 0 -1 0 316)"  d="M136.5557 245.5059C 135.94969 245.01491 135.0597 245.1089 134.5687 245.7149C 134.07669 246.3209 134.1707 247.2109 134.7777 247.7019C 135.3837 248.19391 136.2737 248.0999 136.7647 247.4929C 137.25569 246.8869 137.1617 245.9969 136.5557 245.5059z" stroke="#E7BC9E" stroke-width="0.5" fill="none" />
    <path id=""  transform="matrix(1 0 0 -1 0 316)"  d="M134.7236 247.7656C 134.1436 247.24359 133.2496 247.2896 132.7286 247.8696C 132.2056 248.4496 132.25261 249.34259 132.8326 249.8656C 133.4116 250.38759 134.3056 250.34059 134.8276 249.76059C 135.3506 249.18059 135.3036 248.28659 134.7236 247.7656z" stroke="#E7BC9E" stroke-width="0.5" fill="none" />
    <path id=""  transform="matrix(1 0 0 -1 0 316)"  d="M132.7754 249.9258C 132.2234 249.3738 131.3294 249.3738 130.7774 249.9258C 130.2254 250.4778 130.2254 251.3718 130.7774 251.9238C 131.3294 252.4758 132.2234 252.4758 132.7754 251.9238C 133.32741 251.3718 133.32741 250.4778 132.7754 249.9258z" stroke="#E7BC9E" stroke-width="0.5" fill="none" />
    <path id=""  transform="matrix(1 0 0 -1 0 316)"  d="M130.7168 251.9805C 130.1948 251.4015 129.3018 251.35449 128.7218 251.8765C 128.1418 252.3985 128.0948 253.2925 128.61679 253.8725C 129.1388 254.45149 130.0318 254.4985 130.6128 253.9765C 131.1928 253.4545 131.2388 252.5605 130.7168 251.9805z" stroke="#E7BC9E" stroke-width="0.5" fill="none" />
    <path id=""  transform="matrix(1 0 0 -1 0 316)"  d="M128.5537 253.9258C 128.0627 253.3198 127.1727 253.2258 126.566696 253.7168C 125.959694 254.2078 125.86569 255.0978 126.3577 255.7038C 126.848694 256.3108 127.73869 256.4048 128.3447 255.9128C 128.9507 255.4218 129.0447 254.5318 128.5537 253.9258z" stroke="#E7BC9E" stroke-width="0.5" fill="none" />
    <path id=""  transform="matrix(1 0 0 -1 0 316)"  d="M126.292 255.7549C 125.833 255.1229 124.949 254.9839 124.318 255.4429C 123.687 255.9009 123.547 256.7839 124.006 257.4159C 124.464 258.0469 125.348 258.1869 125.98 257.7289C 126.61 257.2699 126.75 256.3859 126.292 255.7549z" stroke="#E7BC9E" stroke-width="0.5" fill="none" />
    <path id=""  transform="matrix(1 0 0 -1 0 316)"  d="M123.9365 257.4629C 123.5115 256.8089 122.6365 256.6219 121.9825 257.0469C 121.3285 257.4729 121.1425 258.3479 121.5675 259.0019C 121.9925 259.65588 122.8675 259.8419 123.5215 259.4169C 124.1755 258.99188 124.3625 258.11688 123.9365 257.4629z" stroke="#E7BC9E" stroke-width="0.5" fill="none" />
    <path id=""  transform="matrix(1 0 0 -1 0 316)"  d="M121.4961 259.0449C 121.1061 258.3689 120.2421 258.13788 119.5661 258.5279C 118.8911 258.91788 118.6591 259.7819 119.0491 260.4579C 119.4391 261.13388 120.3041 261.3649 120.9791 260.9759C 121.6541 260.5849 121.8871 259.7209 121.4961 259.0449z" stroke="#E7BC9E" stroke-width="0.5" fill="none" />
    <path id=""  transform="matrix(1 0 0 -1 0 316)"  d="M118.9756 260.498C 118.621605 259.80298 117.7706 259.526 117.0756 259.88098C 116.3796 260.23398 116.1036 261.085 116.4576 261.78C 116.8126 262.47598 117.663605 262.75198 118.358604 262.39798C 119.053604 262.04398 119.3296 261.193 118.9756 260.498z" stroke="#E7BC9E" stroke-width="0.5" fill="none" />
    <path id=""  transform="matrix(1 0 0 -1 0 316)"  d="M116.3828 261.8164C 116.065796 261.1034 115.2308 260.78342 114.5178 261.1004C 113.804794 261.4184 113.484795 262.25342 113.801796 262.9654C 114.1188 263.6784 114.9538 263.99942 115.666794 263.6814C 116.3798 263.3644 116.6998 262.52942 116.3828 261.8164z" stroke="#E7BC9E" stroke-width="0.5" fill="none" />
    <path id=""  transform="matrix(1 0 0 -1 0 316)"  d="M113.7246 262.998C 113.4456 262.26898 112.6276 261.905 111.899605 262.185C 111.1706 262.465 110.8066 263.28198 111.0866 264.011C 111.3666 264.73898 112.1836 265.102 112.912605 264.823C 113.6406 264.543 114.0036 263.727 113.7246 262.998z" stroke="#E7BC9E" stroke-width="0.5" fill="none" />
    <path id=""  transform="matrix(1 0 0 -1 0 316)"  d="M111.0078 264.0381C 110.7668 263.29608 109.969795 262.89008 109.2278 263.13107C 108.485794 263.3721 108.079796 264.1691 108.31979 264.91107C 108.5618 265.65308 109.359795 266.05908 110.1008 265.81808C 110.8428 265.5771 111.248795 264.7801 111.0078 264.0381z" stroke="#E7BC9E" stroke-width="0.5" fill="none" />
    <path id=""  transform="matrix(1 0 0 -1 0 316)"  d="M108.2412 264.9346C 108.0392 264.1816 107.264206 263.7346 106.5112 263.9356C 105.7572 264.1376 105.309204 264.9126 105.51221 265.6656C 105.7142 266.4196 106.488205 266.8676 107.2422 266.6646C 107.9952 266.4636 108.44321 265.6886 108.2412 264.9346z" stroke="#E7BC9E" stroke-width="0.5" fill="none" />
    <path id=""  transform="matrix(1 0 0 -1 0 316)"  d="M105.4307 265.6855C 105.2687 264.9225 104.5177 264.4355 103.7547 264.59747C 102.9917 264.7595 102.5037 265.5095 102.6667 266.2735C 102.828705 267.0365 103.578705 267.5235 104.342705 267.36148C 105.105705 267.1995 105.592705 266.4495 105.4307 265.6855z" stroke="#E7BC9E" stroke-width="0.5" fill="none" />
    <path id=""  transform="matrix(1 0 0 -1 0 316)"  d="M102.585 266.2881C 102.463 265.5171 101.739 264.9921 100.968 265.11407C 100.197 265.23608 99.672 265.96008 99.794 266.73007C 99.916 267.5011 100.64 268.0271 101.409996 267.9051C 102.181 267.78308 102.707 267.05908 102.585 266.2881z" stroke="#E7BC9E" stroke-width="0.5" fill="none" />
    <path id=""  transform="matrix(1 0 0 -1 0 316)"  d="M99.7109 266.7412C 99.6299 265.9652 98.9349 265.40222 98.1579 265.48322C 97.3829 265.56522 96.8189 266.2612 96.9009 267.0372C 96.9819 267.81223 97.6779 268.37622 98.4539 268.29422C 99.2299 268.2132 99.7929 267.5172 99.7109 266.7412z" stroke="#E7BC9E" stroke-width="0.5" fill="none" />
    <path id=""  transform="matrix(1 0 0 -1 0 316)"  d="M96.8184 267.043C 96.7774 266.264 96.1124 265.665 95.3334 265.706C 94.5534 265.747 93.9554 266.412 93.9964 267.191C 94.0374 267.971 94.7024 268.569 95.4814 268.52798C 96.2604 268.487 96.8584 267.822 96.8184 267.043z" stroke="#E7BC9E" stroke-width="0.5" fill="none" />
    <path id=""  transform="matrix(1 0 0 -1 0 316)"  d="M92.2188 251.1768C 92.1118 251.22281 92.0148 251.2738 91.9288 251.3288C 90.547806 252.2008 89.3578 253.1168 88.3598 254.0778C 87.3618 255.03981 86.5938 256.0288 86.0558 257.0448C 85.51881 258.0618 85.2508 259.0878 85.2508 260.1258C 85.2508 260.9918 85.4318 261.7598 85.7938 262.4288C 86.15681 263.09882 86.644806 263.6218 87.258804 263.99982C 87.8728 264.3778 88.563805 264.5668 89.3308 264.5668C 90.0558 264.5668 90.6818 264.3838 91.2108 264.0188C 91.7388 263.6528 92.1688 263.1718 92.4998 262.5758C 92.83781 263.1788 93.270805 263.6598 93.798805 264.0228C 94.326805 264.3848 94.94981 264.5668 95.6688 264.5668C 96.436806 264.5668 97.1288 264.3778 97.745804 263.99982C 98.3638 263.6218 98.85181 263.09882 99.2108 262.4288C 99.5708 261.7598 99.7498 260.9918 99.7498 260.1258C 99.7498 259.0878 99.481804 258.0618 98.9448 257.0448C 98.4058 256.0288 97.6388 255.03981 96.6408 254.0778C 95.64281 253.1168 94.452805 252.2008 93.0718 251.3288C 92.99081 251.2738 92.896805 251.22281 92.785805 251.1768C 92.674805 251.1308 92.5798 251.1078 92.4998 251.1078C 92.4198 251.1078 92.325806 251.1308 92.2188 251.1768z" stroke="#E7BC9E" stroke-width="0.5" fill="none" />
    <path id=""  transform="matrix(1 0 0 -1 0 316)"  d="M72.4927 245.7402C 72.3767 245.7262 72.2677 245.7212 72.164696 245.7262C 70.5327 245.7912 69.0437 245.9902 67.6997 246.3232C 66.3537 246.65721 65.1947 247.1302 64.221695 247.74121C 63.2477 248.3522 62.501698 249.10721 61.982697 250.0072C 61.549698 250.7572 61.3227 251.5112 61.301697 252.2722C 61.2807 253.0332 61.4417 253.7312 61.7847 254.3652C 62.1277 254.9992 62.6317 255.5092 63.2967 255.89221C 63.924698 256.25522 64.5577 256.4092 65.1987 256.3572C 65.8387 256.3042 66.4507 256.1032 67.0357 255.75421C 67.027695 256.4432 67.1617 257.0772 67.4377 257.6552C 67.7137 258.23322 68.1627 258.7022 68.7857 259.06122C 69.4507 259.4452 70.1447 259.6282 70.8677 259.6092C 71.5917 259.59122 72.275696 259.3822 72.9217 258.9812C 73.567696 258.5812 74.1067 258.0062 74.539696 257.2562C 75.0587 256.3572 75.3397 255.3342 75.3827 254.1842C 75.4257 253.03621 75.2547 251.7962 74.8707 250.46521C 74.4877 249.13321 73.914696 247.7442 73.1547 246.2982C 73.1127 246.2102 73.0557 246.1192 72.983696 246.02321C 72.9107 245.9282 72.8397 245.8612 72.7707 245.8212C 72.7007 245.7812 72.608696 245.75421 72.4927 245.7402z" stroke="#E7BC9E" stroke-width="0.5" fill="none" />
    <path id=""  transform="matrix(1 0 0 -1 0 316)"  d="M58.127 231.1689C 58.032997 231.0999 57.940998 231.0409 57.85 230.9939C 56.404 230.2329 55.016 229.6609 53.684 229.2769C 52.352997 228.8939 51.113 228.72389 49.963997 228.7659C 48.815 228.8089 47.791 229.0899 46.892 229.6079C 46.142 230.0419 45.568 230.5819 45.169 231.2309C 44.771 231.8799 44.562 232.5649 44.542 233.2849C 44.522 234.0059 44.704 234.6979 45.086998 235.3629C 45.449997 235.9899 45.920998 236.4409 46.502 236.7169C 47.082 236.9909 47.712997 237.1229 48.394997 237.1119C 48.043 237.7059 47.842 238.3219 47.792 238.9609C 47.741997 239.5989 47.897 240.2299 48.255997 240.8519C 48.64 241.5169 49.149998 242.0219 49.786 242.3669C 50.420998 242.7129 51.119 242.8739 51.878 242.8509C 52.637 242.8269 53.392 242.5989 54.142 242.1659C 55.041 241.6469 55.795998 240.8999 56.407997 239.9269C 57.018997 238.9529 57.492 237.7939 57.825 236.4489C 58.157997 235.1049 58.357 233.6159 58.420998 231.9829C 58.428997 231.8869 58.426 231.7779 58.41 231.6599C 58.395 231.5409 58.367 231.4469 58.327 231.3779C 58.288 231.3089 58.221 231.2389 58.127 231.1689z" stroke="#E7BC9E" stroke-width="0.5" fill="none" />
    <path id=""  transform="matrix(1 0 0 -1 0 316)"  d="M52.9717 211.3672C 52.925697 211.26021 52.8747 211.16321 52.8197 211.07721C 51.9477 209.6952 51.0317 208.5062 50.0697 207.50821C 49.1087 206.51021 48.119698 205.7422 47.1037 205.20421C 46.0877 204.6672 45.0597 204.39821 44.022697 204.39821C 43.1567 204.39821 42.3887 204.5802 41.7197 204.9422C 41.049698 205.3052 40.5267 205.7932 40.148697 206.4072C 39.7707 207.0202 39.5817 207.7122 39.5817 208.4792C 39.5817 209.20421 39.764698 209.8302 40.1307 210.3582C 40.495697 210.8872 40.9757 211.31621 41.5717 211.64821C 40.9707 211.9862 40.487698 212.4192 40.125698 212.9472C 39.7637 213.4752 39.5817 214.0982 39.5817 214.8172C 39.5817 215.5852 39.7707 216.2772 40.148697 216.8942C 40.5267 217.5122 41.049698 218.0002 41.7197 218.3592C 42.3887 218.71921 43.1567 218.89821 44.022697 218.89821C 45.0597 218.89821 46.0877 218.6302 47.1037 218.09221C 48.119698 217.5542 49.1087 216.7872 50.0697 215.7892C 51.0317 214.7912 51.9477 213.6012 52.8197 212.2202C 52.8747 212.1392 52.925697 212.0452 52.9717 211.9332C 53.0177 211.8232 53.0407 211.7282 53.0407 211.64821C 53.0407 211.5682 53.0177 211.4742 52.9717 211.3672z" stroke="#E7BC9E" stroke-width="0.5" fill="none" />
    <path id=""  transform="matrix(1 0 0 -1 0 316)"  d="M58.4077 191.6406C 58.4217 191.5246 58.4267 191.41559 58.4217 191.3136C 58.3567 189.68059 58.1577 188.1926 57.8247 186.8476C 57.4917 185.50159 57.0187 184.34259 56.4077 183.3696C 55.7957 182.39659 55.0407 181.6496 54.1417 181.1306C 53.3917 180.6986 52.6367 180.4706 51.875698 180.45059C 51.1147 180.42859 50.4177 180.5896 49.7827 180.9336C 49.1487 181.2766 48.6397 181.7806 48.2567 182.44559C 47.8937 183.0726 47.7387 183.7056 47.7917 184.34659C 47.8437 184.98659 48.0447 185.5996 48.3947 186.1846C 47.7047 186.1756 47.0707 186.3096 46.4927 186.5856C 45.9147 186.8626 45.4467 187.3116 45.0877 187.9336C 44.703697 188.59859 44.5207 189.29259 44.5397 190.0156C 44.5577 190.7396 44.7667 191.4236 45.1667 192.0696C 45.5677 192.71559 46.1417 193.2546 46.8917 193.68759C 47.7907 194.20659 48.814697 194.4876 49.9637 194.5306C 51.1127 194.5736 52.3527 194.4036 53.6837 194.01959C 55.0157 193.63559 56.4047 193.0636 57.8497 192.3026C 57.9377 192.2616 58.0297 192.2036 58.1247 192.13159C 58.2197 192.0586 58.2877 191.9886 58.3267 191.9186C 58.3667 191.8496 58.3937 191.75659 58.4077 191.6406z" stroke="#E7BC9E" stroke-width="0.5" fill="none" />
    <path id=""  transform="matrix(1 0 0 -1 0 316)"  d="M72.979 177.2754C 73.048996 177.18141 73.107994 177.08841 73.154 176.99841C 73.91499 175.5524 74.487 174.1644 74.870995 172.83241C 75.255 171.5014 75.424995 170.2604 75.381996 169.11241C 75.339 167.9624 75.059 166.9394 74.53999 166.0404C 74.106995 165.2904 73.565994 164.71541 72.917 164.31741C 72.269 163.9194 71.584 163.7104 70.864 163.6894C 70.143 163.67041 69.45 163.85141 68.785995 164.23541C 68.158 164.59741 67.70699 165.06941 67.432 165.6494C 67.157 166.23041 67.024994 166.8614 67.035995 167.54341C 66.44199 167.1904 65.826996 166.9904 65.187996 166.9404C 64.548996 166.89041 63.918995 167.04541 63.296997 167.4044C 62.631996 167.7884 62.125996 168.29741 61.781 168.93341C 61.435997 169.56941 61.273994 170.2664 61.297997 171.02641C 61.320995 171.7864 61.549995 172.5404 61.982994 173.2904C 62.500996 174.1894 63.247997 174.94441 64.22099 175.5554C 65.195 176.1674 66.354 176.6394 67.699 176.97241C 69.044 177.30641 70.533 177.50441 72.16499 177.56941C 72.26199 177.57741 72.369995 177.5744 72.489 177.55841C 72.606995 177.54341 72.701 177.51541 72.770996 177.4754C 72.839 177.43541 72.909 177.3694 72.979 177.2754z" stroke="#E7BC9E" stroke-width="0.5" fill="none" />
    <path id=""  transform="matrix(1 0 0 -1 0 316)"  d="M92.7813 172.1201C 92.888306 172.0741 92.985306 172.0231 93.071304 171.96811C 94.4533 171.0961 95.6423 170.1801 96.640305 169.21811C 97.638306 168.2571 98.4063 167.2681 98.944305 166.2521C 99.4813 165.2351 99.750305 164.2081 99.750305 163.1711C 99.750305 162.3051 99.568306 161.53711 99.20631 160.8671C 98.8433 160.1981 98.3553 159.67511 97.7423 159.2971C 97.1283 158.9191 96.4363 158.7301 95.669304 158.7301C 94.944305 158.7301 94.318306 158.9131 93.790306 159.2781C 93.26131 159.6431 92.832306 160.1241 92.500305 160.72011C 92.1623 160.1181 91.7293 159.63611 91.2013 159.2731C 90.6733 158.9111 90.0503 158.7301 89.33131 158.7301C 88.5633 158.7301 87.87131 158.9191 87.2543 159.2971C 86.63631 159.67511 86.1483 160.1981 85.78931 160.8671C 85.430305 161.53711 85.250305 162.3051 85.250305 163.1711C 85.250305 164.2081 85.5193 165.2351 86.056305 166.2521C 86.59431 167.2681 87.361305 168.2571 88.35931 169.21811C 89.3573 170.1801 90.5473 171.0961 91.929306 171.96811C 92.0093 172.0231 92.1033 172.0741 92.2153 172.1201C 92.3253 172.1661 92.4203 172.1891 92.500305 172.1891C 92.58031 172.1891 92.6743 172.1661 92.7813 172.1201z" stroke="#E7BC9E" stroke-width="0.5" fill="none" />
    <path id=""  transform="matrix(1 0 0 -1 0 316)"  d="M112.5078 177.5566C 112.623795 177.5706 112.732796 177.5746 112.8348 177.5696C 114.4678 177.5046 115.955795 177.3066 117.3008 176.9726C 118.6468 176.63959 119.80579 176.1666 120.77879 175.55559C 121.7518 174.9446 122.498795 174.18959 123.0178 173.2896C 123.4498 172.5396 123.677795 171.7856 123.6978 171.0246C 123.719795 170.26259 123.5588 169.5656 123.2148 168.9316C 122.871796 168.2966 122.3678 167.7876 121.7028 167.4046C 121.0758 167.0416 120.442795 166.8866 119.801796 166.93959C 119.1618 166.9926 118.5488 167.19359 117.9638 167.5426C 117.97279 166.85359 117.8388 166.2186 117.5628 165.6416C 117.2858 165.0636 116.8368 164.59459 116.2148 164.2356C 115.5498 163.8516 114.8558 163.6686 114.1328 163.68759C 113.4088 163.7056 112.7248 163.9146 112.0788 164.3156C 111.4328 164.71559 110.8938 165.2896 110.4608 166.0396C 109.941795 166.93959 109.6608 167.9626 109.6178 169.1126C 109.5748 170.26059 109.7448 171.5006 110.1288 172.83159C 110.512794 174.16359 111.0848 175.5526 111.845795 176.99759C 111.887794 177.0856 111.94479 177.1776 112.0168 177.2726C 112.0898 177.36859 112.1598 177.4356 112.2298 177.4756C 112.2988 177.5156 112.3918 177.5416 112.5078 177.5566z" stroke="#E7BC9E" stroke-width="0.5" fill="none" />
    <path id=""  transform="matrix(1 0 0 -1 0 316)"  d="M126.873 192.127C 126.967 192.197 127.06 192.256 127.15 192.303C 128.59601 193.064 129.98401 193.636 131.316 194.02C 132.647 194.403 133.888 194.573 135.036 194.53C 136.186 194.487 137.209 194.207 138.108 193.688C 138.858 193.255 139.433 192.714 139.831 192.065C 140.229 191.41699 140.438 190.732 140.459 190.012C 140.478 189.291 140.297 188.599 139.913 187.934C 139.551 187.306 139.079 186.855 138.49901 186.58C 137.918 186.306 137.287 186.174 136.605 186.185C 136.95801 185.591 137.158 184.975 137.20801 184.336C 137.258 183.69699 137.103 183.067 136.744 182.44499C 136.36 181.78 135.851 181.275 135.215 180.93C 134.579 180.584 133.882 180.423 133.122 180.446C 132.363 180.47 131.608 180.698 130.858 181.131C 129.959 181.649 129.204 182.397 128.593 183.37C 127.981 184.343 127.509 185.502 127.176 186.84799C 126.842 188.192 126.644005 189.681 126.579 191.314C 126.571 191.41 126.574 191.518 126.590004 191.637C 126.605 191.756 126.633 191.85 126.673004 191.919C 126.713 191.98799 126.779 192.058 126.873 192.127z" stroke="#E7BC9E" stroke-width="0.5" fill="none" />
    <path id=""  transform="matrix(1 0 0 -1 0 316)"  d="M132.0283 211.9297C 132.07431 212.0367 132.1253 212.1337 132.1803 212.2197C 133.0523 213.6017 133.9683 214.79071 134.9303 215.7887C 135.89131 216.7867 136.88031 217.5547 137.8963 218.0917C 138.9133 218.6297 139.9403 218.8987 140.97731 218.8987C 141.8433 218.8987 142.6113 218.7167 143.28131 218.3547C 143.9503 217.9917 144.4733 217.50371 144.8513 216.88971C 145.22931 216.2757 145.4183 215.5847 145.4183 214.8177C 145.4183 214.0927 145.2353 213.4657 144.8703 212.9387C 144.50531 212.4097 144.0243 211.9797 143.4283 211.6487C 144.0303 211.3107 144.5123 210.8777 144.8753 210.3497C 145.2373 209.8217 145.4183 209.1987 145.4183 208.4797C 145.4183 207.7117 145.22931 207.0197 144.8513 206.40271C 144.4733 205.7847 143.9503 205.2967 143.28131 204.9377C 142.6113 204.5777 141.8433 204.3987 140.97731 204.3987C 139.9403 204.3987 138.9133 204.6667 137.8963 205.2037C 136.88031 205.7427 135.89131 206.5097 134.9303 207.5077C 133.9683 208.5057 133.0523 209.69571 132.1803 211.0767C 132.1253 211.1577 132.07431 211.25171 132.0283 211.3627C 131.9823 211.47371 131.9593 211.56871 131.9593 211.6487C 131.9593 211.7287 131.9823 211.82271 132.0283 211.9297z" stroke="#E7BC9E" stroke-width="0.5" fill="none" />
    <path id=""  transform="matrix(1 0 0 -1 0 316)"  d="M126.5918 231.6562C 126.5778 231.7722 126.5738 231.88121 126.5788 231.9832C 126.6438 233.61621 126.8418 235.1042 127.1758 236.4492C 127.5088 237.7942 127.9818 238.9532 128.5928 239.9272C 129.2038 240.9002 129.9588 241.64621 130.8588 242.1662C 131.6088 242.5982 132.3628 242.82521 133.1238 242.8462C 133.8858 242.8672 134.5828 242.7062 135.2168 242.3632C 135.85179 242.0202 136.3608 241.5162 136.7438 240.8512C 137.1068 240.2232 137.2618 239.59021 137.2088 238.95021C 137.15579 238.31021 136.9548 237.6972 136.6058 237.1122C 137.2948 237.1212 137.9298 236.9872 138.50679 236.7112C 139.0848 236.4342 139.5538 235.9852 139.9128 235.3632C 140.2968 234.69821 140.4798 234.00421 140.4608 233.2802C 140.4428 232.5572 140.2338 231.8732 139.8328 231.22621C 139.4328 230.5812 138.8588 230.0422 138.1088 229.6082C 137.2088 229.09021 136.18579 228.8082 135.0358 228.7652C 133.8878 228.7232 132.6478 228.8932 131.3168 229.2772C 129.9848 229.66121 128.5958 230.2332 127.150795 230.9942C 127.0628 231.0352 126.970795 231.0932 126.87579 231.1652C 126.7798 231.2382 126.7128 231.3082 126.6728 231.3782C 126.6328 231.4472 126.6068 231.5402 126.5918 231.6562z" stroke="#E7BC9E" stroke-width="0.5" fill="none" />
    <path id=""  transform="matrix(1 0 0 -1 0 316)"  d="M112.0215 246.0215C 111.9515 246.1155 111.8925 246.2075 111.8455 246.2975C 111.0845 247.7445 110.5125 249.1325 110.1285 250.4645C 109.7455 251.7955 109.5755 253.0365 109.6185 254.1845C 109.6615 255.3345 109.9415 256.3575 110.4605 257.2555C 110.8935 258.0055 111.4345 258.5805 112.083496 258.9785C 112.7315 259.3775 113.4165 259.5865 114.1365 259.6065C 114.8575 259.6265 115.5495 259.4455 116.2145 259.0615C 116.8425 258.6995 117.2935 258.2275 117.5685 257.64648C 117.8425 257.0665 117.9745 256.4355 117.9635 255.7535C 118.5575 256.1055 119.1735 256.3065 119.8125 256.3565C 120.4515 256.4065 121.0815 256.2515 121.7035 255.8925C 122.3685 255.5085 122.8735 254.9995 123.2185 254.3635C 123.5645 253.7275 123.7255 253.0295 123.7025 252.2705C 123.6785 251.5105 123.4505 250.7565 123.0175 250.0065C 122.4995 249.1075 121.751495 248.3525 120.7785 247.7415C 119.8055 247.1295 118.6465 246.6575 117.3005 246.3235C 115.9565 245.9905 114.4675 245.7915 112.8345 245.7265C 112.7385 245.7185 112.6305 245.7225 112.5115 245.7385C 112.3925 245.7535 112.2985 245.7815 112.2295 245.8215C 112.1605 245.8615 112.0905 245.9275 112.0215 246.0215z" stroke="#E7BC9E" stroke-width="0.5" fill="none" />
    <path id=""  transform="matrix(1 0 0 -1 0 316)"  d="M92.5 265.7803C 97.705 265.7803 101.923996 261.5613 101.923996 256.3563C 101.923996 244.5433 92.5 235.65831 92.5 235.65831C 92.5 235.65831 83.076004 244.5433 83.076004 256.3563C 83.076004 261.5613 87.295 265.7803 92.5 265.7803z" stroke="#E7BC9E" stroke-width="0.75" stroke-linecap="round" fill="none" />
			<g>
				<g clip-path="url(#3)" >
    <path id=""  transform="matrix(1 0 0 -1 0 316)"  d="M78.4897 263.9355C 79.9207 264.3195 82.1737 260.55447 83.5207 255.52748C 86.5777 244.1175 86.2857 234.84048 86.2857 234.84048C 86.2857 234.84048 81.3947 242.72748 78.3367 254.13849C 76.9897 259.1655 77.0577 263.5525 78.4897 263.9355z" stroke="#E7BC9E" stroke-width="0.5" stroke-linecap="round" fill="none" stroke-opacity="0.69803923" />
				</g>
			</g>
			<g>
				<g clip-path="url(#4)" >
    <path id=""  transform="matrix(1 0 0 -1 0 316)"  d="M54.2231 249.9258C 55.2711 250.9738 59.1031 248.83879 62.7841 245.1588C 71.1371 236.8058 75.522095 228.6258 75.522095 228.6258C 75.522095 228.6258 67.3431 233.0108 58.989098 241.3638C 55.309097 245.0448 53.1751 248.87779 54.2231 249.9258z" stroke="#E7BC9E" stroke-width="0.5" stroke-linecap="round" fill="none" stroke-opacity="0.69803923" />
				</g>
			</g>
			<g>
				<g clip-path="url(#5)" >
    <path id=""  transform="matrix(1 0 0 -1 0 316)"  d="M40.2124 225.6592C 40.596397 227.0902 44.9824 227.15819 50.0094 225.81119C 61.4204 222.7542 69.308395 217.8622 69.308395 217.8622C 69.308395 217.8622 60.0314 217.57019 48.6214 220.62819C 43.5934 221.9742 39.8294 224.22719 40.2124 225.6592z" stroke="#E7BC9E" stroke-width="0.5" stroke-linecap="round" fill="none" stroke-opacity="0.69803923" />
				</g>
			</g>
			<g>
				<g clip-path="url(#6)" >
    <path id=""  transform="matrix(1 0 0 -1 0 316)"  d="M40.2124 197.6377C 39.8294 199.0697 43.5934 201.3217 48.6214 202.6687C 60.0314 205.7267 69.308395 205.4337 69.308395 205.4337C 69.308395 205.4337 61.4204 200.5427 50.0094 197.4857C 44.9824 196.1377 40.596397 196.20569 40.2124 197.6377z" stroke="#E7BC9E" stroke-width="0.5" stroke-linecap="round" fill="none" stroke-opacity="0.69803923" />
				</g>
			</g>
			<g>
				<g clip-path="url(#7)" >
    <path id=""  transform="matrix(1 0 0 -1 0 316)"  d="M54.2231 173.3711C 53.1751 174.4191 55.309097 178.25209 58.989098 181.93309C 67.3431 190.2851 75.522095 194.6711 75.522095 194.6711C 75.522095 194.6711 71.1371 186.49109 62.7841 178.13809C 59.1031 174.45709 55.2711 172.32309 54.2231 173.3711z" stroke="#E7BC9E" stroke-width="0.5" stroke-linecap="round" fill="none" stroke-opacity="0.69803923" />
				</g>
			</g>
			<g>
				<g clip-path="url(#8)" >
    <path id=""  transform="matrix(1 0 0 -1 0 316)"  d="M78.4897 159.3604C 77.0577 159.7444 76.9897 164.1314 78.3367 169.1584C 81.3947 180.5694 86.2857 188.45639 86.2857 188.45639C 86.2857 188.45639 86.5777 179.1794 83.5207 167.7694C 82.1737 162.7424 79.9207 158.9774 78.4897 159.3604z" stroke="#E7BC9E" stroke-width="0.5" stroke-linecap="round" fill="none" stroke-opacity="0.69803923" />
				</g>
			</g>
			<g>
				<g clip-path="url(#9)" >
    <path id=""  transform="matrix(1 0 0 -1 0 316)"  d="M106.5107 159.3604C 105.0787 158.9774 102.8267 162.7424 101.4797 167.7694C 98.4217 179.1794 98.7147 188.45639 98.7147 188.45639C 98.7147 188.45639 103.6057 180.5694 106.6627 169.1584C 108.0107 164.1314 107.942696 159.7444 106.5107 159.3604z" stroke="#E7BC9E" stroke-width="0.5" stroke-linecap="round" fill="none" stroke-opacity="0.69803923" />
				</g>
			</g>
			<g>
				<g clip-path="url(#10)" >
    <path id=""  transform="matrix(1 0 0 -1 0 316)"  d="M130.7773 173.3711C 129.7293 172.32309 125.8963 174.45709 122.2153 178.13809C 113.8633 186.49109 109.477295 194.6711 109.477295 194.6711C 109.477295 194.6711 117.657295 190.2851 126.0103 181.93309C 129.6913 178.25209 131.8253 174.4191 130.7773 173.3711z" stroke="#E7BC9E" stroke-width="0.5" stroke-linecap="round" fill="none" stroke-opacity="0.69803923" />
				</g>
			</g>
			<g>
				<g clip-path="url(#11)" >
    <path id=""  transform="matrix(1 0 0 -1 0 316)"  d="M144.7881 197.6377C 144.4041 196.20569 140.0171 196.1377 134.9901 197.4857C 123.5801 200.5427 115.6921 205.4337 115.6921 205.4337C 115.6921 205.4337 124.9691 205.7267 136.3791 202.6687C 141.4061 201.3217 145.1711 199.0697 144.7881 197.6377z" stroke="#E7BC9E" stroke-width="0.5" stroke-linecap="round" fill="none" stroke-opacity="0.69803923" />
				</g>
			</g>
			<g>
				<g clip-path="url(#12)" >
    <path id=""  transform="matrix(1 0 0 -1 0 316)"  d="M144.7881 225.6592C 145.1711 224.22719 141.4061 221.9742 136.3791 220.62819C 124.9691 217.57019 115.6921 217.8622 115.6921 217.8622C 115.6921 217.8622 123.5801 222.7542 134.9901 225.81119C 140.0171 227.15819 144.4041 227.0902 144.7881 225.6592z" stroke="#E7BC9E" stroke-width="0.5" stroke-linecap="round" fill="none" stroke-opacity="0.69803923" />
				</g>
			</g>
			<g>
				<g clip-path="url(#13)" >
    <path id=""  transform="matrix(1 0 0 -1 0 316)"  d="M130.7773 249.9258C 131.8253 248.87779 129.6913 245.0448 126.0103 241.3638C 117.657295 233.0108 109.477295 228.6258 109.477295 228.6258C 109.477295 228.6258 113.8633 236.8058 122.2153 245.1588C 125.8963 248.83879 129.7293 250.9738 130.7773 249.9258z" stroke="#E7BC9E" stroke-width="0.5" stroke-linecap="round" fill="none" stroke-opacity="0.69803923" />
				</g>
			</g>
			<g>
				<g clip-path="url(#14)" >
    <path id=""  transform="matrix(1 0 0 -1 0 316)"  d="M106.5107 263.9355C 107.942696 263.5525 108.0107 259.1655 106.6627 254.13849C 103.6057 242.72748 98.7147 234.84048 98.7147 234.84048C 98.7147 234.84048 98.4217 244.1175 101.4797 255.52748C 102.8267 260.55447 105.0787 264.3195 106.5107 263.9355z" stroke="#E7BC9E" stroke-width="0.5" stroke-linecap="round" fill="none" stroke-opacity="0.69803923" />
				</g>
			</g>
    <path id=""  transform="matrix(1 0 0 -1 0 316)"  d="M65.3511 258.542C 69.85809 261.145 75.6221 259.6 78.2241 255.09299C 84.131096 244.862 80.412094 232.456 80.412094 232.456C 80.412094 232.456 67.8081 235.43799 61.901096 245.66899C 59.299095 250.176 60.843098 255.939 65.3511 258.542z" stroke="#E7BC9E" stroke-width="0.5" stroke-linecap="round" fill="none" />
    <path id=""  transform="matrix(1 0 0 -1 0 316)"  d="M45.458 238.6982C 48.061 243.20619 53.824 244.7502 58.332 242.1472C 68.562 236.2412 71.544 223.63719 71.544 223.63719C 71.544 223.63719 59.138 219.91919 48.908 225.8252C 44.4 228.4272 42.856 234.1912 45.458 238.6982z" stroke="#E7BC9E" stroke-width="0.5" stroke-linecap="round" fill="none" />
    <path id=""  transform="matrix(1 0 0 -1 0 316)"  d="M38.1523 211.5674C 38.1523 216.7724 42.3713 220.9914 47.5763 220.9914C 59.3893 220.9914 68.2743 211.5674 68.2743 211.5674C 68.2743 211.5674 59.3893 202.1434 47.5763 202.1434C 42.3713 202.1434 38.1523 206.3624 38.1523 211.5674z" stroke="#E7BC9E" stroke-width="0.75" stroke-linecap="round" fill="none" />
    <path id=""  transform="matrix(1 0 0 -1 0 316)"  d="M45.3911 184.418C 42.7881 188.926 44.333103 194.689 48.840103 197.291C 59.071102 203.198 71.477104 199.479 71.477104 199.479C 71.477104 199.479 68.4951 186.875 58.264103 180.969C 53.757103 178.366 47.993103 179.911 45.3911 184.418z" stroke="#E7BC9E" stroke-width="0.5" stroke-linecap="round" fill="none" />
    <path id=""  transform="matrix(1 0 0 -1 0 316)"  d="M65.2344 164.5254C 60.727398 167.1284 59.182396 172.8914 61.784397 177.3984C 67.6914 187.62941 80.295395 190.6114 80.295395 190.6114C 80.295395 190.6114 84.0144 178.20541 78.1084 167.97441C 75.5054 163.4674 69.741394 161.92241 65.2344 164.5254z" stroke="#E7BC9E" stroke-width="0.5" stroke-linecap="round" fill="none" />
    <path id=""  transform="matrix(1 0 0 -1 0 316)"  d="M92.3652 157.2197C 87.160194 157.2197 82.94119 161.43869 82.94119 166.64369C 82.94119 178.4567 92.3652 187.34169 92.3652 187.34169C 92.3652 187.34169 101.7892 178.4567 101.7892 166.64369C 101.7892 161.43869 97.5702 157.2197 92.3652 157.2197z" stroke="#E7BC9E" stroke-width="0.75" stroke-linecap="round" fill="none" />
    <path id=""  transform="matrix(1 0 0 -1 0 316)"  d="M119.5146 164.458C 115.0066 161.855 109.24361 163.4 106.6416 167.907C 100.734604 178.138 104.453606 190.54399 104.453606 190.54399C 104.453606 190.54399 117.0576 187.562 122.9636 177.331C 125.566605 172.82399 124.022606 167.06099 119.5146 164.458z" stroke="#E7BC9E" stroke-width="0.5" stroke-linecap="round" fill="none" />
    <path id=""  transform="matrix(1 0 0 -1 0 316)"  d="M139.4072 184.3018C 136.8042 179.79381 131.0412 178.2498 126.534195 180.8528C 116.30319 186.7588 113.3212 199.36281 113.3212 199.36281C 113.3212 199.36281 125.727196 203.08081 135.95819 197.1748C 140.4662 194.5728 142.0102 188.8088 139.4072 184.3018z" stroke="#E7BC9E" stroke-width="0.5" stroke-linecap="round" fill="none" />
    <path id=""  transform="matrix(1 0 0 -1 0 316)"  d="M146.7129 211.4326C 146.7129 206.2276 142.49391 202.0086 137.28891 202.0086C 125.47591 202.0086 116.5919 211.4326 116.5919 211.4326C 116.5919 211.4326 125.47591 220.8566 137.28891 220.8566C 142.49391 220.8566 146.7129 216.6376 146.7129 211.4326z" stroke="#E7BC9E" stroke-width="0.75" stroke-linecap="round" fill="none" />
    <path id=""  transform="matrix(1 0 0 -1 0 316)"  d="M139.4746 238.582C 142.07759 234.074 140.5326 228.311 136.02559 225.709C 125.79459 219.802 113.388596 223.521 113.388596 223.521C 113.388596 223.521 116.37059 236.125 126.60159 242.031C 131.1086 244.634 136.8716 243.089 139.4746 238.582z" stroke="#E7BC9E" stroke-width="0.5" stroke-linecap="round" fill="none" />
    <path id=""  transform="matrix(1 0 0 -1 0 316)"  d="M119.6309 258.4746C 124.1389 255.87161 125.6829 250.10861 123.080894 245.60161C 117.1739 235.3706 104.5699 232.38861 104.5699 232.38861C 104.5699 232.38861 100.8519 244.79462 106.7579 255.0256C 109.35989 259.53262 115.1239 261.0776 119.6309 258.4746z" stroke="#E7BC9E" stroke-width="0.5" stroke-linecap="round" fill="none" />
    <path id=""  transform="matrix(1 0 0 -1 0 316)"  d="M94.3477 258.2324C 93.3267 258.2324 92.4997 259.1434 92.4997 260.2674C 92.4997 259.1434 91.6727 258.2324 90.6527 258.2324C 91.6727 258.2324 92.4997 257.32138 92.4997 256.1974C 92.4997 257.32138 93.3267 258.2324 94.3477 258.2324" stroke="none" fill="#E7BC9E" fill-rule="nonzero" />
    <path id=""  transform="matrix(1 0 0 -1 0 316)"  d="M94.3477 258.2324C 93.3267 258.2324 92.4997 259.1434 92.4997 260.2674C 92.4997 259.1434 91.6727 258.2324 90.6527 258.2324C 91.6727 258.2324 92.4997 257.32138 92.4997 256.1974C 92.4997 257.32138 93.3267 258.2324 94.3477 258.2324z" stroke="#E7BC9E" stroke-width="0.25" stroke-linecap="round" fill="none" />
    <path id=""  transform="matrix(1 0 0 -1 0 316)"  d="M70.8081 252.915C 69.924095 252.40399 68.7521 252.78 68.1911 253.754C 68.7521 252.78 68.492096 251.577 67.6081 251.06699C 68.492096 251.577 69.6631 251.202 70.2251 250.228C 69.6631 251.202 69.924095 252.40399 70.8081 252.915" stroke="none" fill="#E7BC9E" fill-rule="nonzero" />
    <path id=""  transform="matrix(1 0 0 -1 0 316)"  d="M70.8081 252.915C 69.924095 252.40399 68.7521 252.78 68.1911 253.754C 68.7521 252.78 68.492096 251.577 67.6081 251.06699C 68.492096 251.577 69.6631 251.202 70.2251 250.228C 69.6631 251.202 69.924095 252.40399 70.8081 252.915z" stroke="#E7BC9E" stroke-width="0.25" stroke-linecap="round" fill="none" />
    <path id=""  transform="matrix(1 0 0 -1 0 316)"  d="M53.0811 236.54C 52.571102 235.65599 51.3681 235.39499 50.3951 235.958C 51.3681 235.39499 51.7441 234.224 51.2331 233.34099C 51.7441 234.224 52.946102 234.484 53.9191 233.92299C 52.946102 234.484 52.571102 235.65599 53.0811 236.54" stroke="none" fill="#E7BC9E" fill-rule="nonzero" />
    <path id=""  transform="matrix(1 0 0 -1 0 316)"  d="M53.0811 236.54C 52.571102 235.65599 51.3681 235.39499 50.3951 235.958C 51.3681 235.39499 51.7441 234.224 51.2331 233.34099C 51.7441 234.224 52.946102 234.484 53.9191 233.92299C 52.946102 234.484 52.571102 235.65599 53.0811 236.54z" stroke="#E7BC9E" stroke-width="0.25" stroke-linecap="round" fill="none" />
    <path id=""  transform="matrix(1 0 0 -1 0 316)"  d="M45.916 213.4961C 45.916 212.4751 45.005 211.64809 43.881 211.64809C 45.005 211.64809 45.916 210.82109 45.916 209.80109C 45.916 210.82109 46.827 211.64809 47.951 211.64809C 46.827 211.64809 45.916 212.4751 45.916 213.4961" stroke="none" fill="#E7BC9E" fill-rule="nonzero" />
    <path id=""  transform="matrix(1 0 0 -1 0 316)"  d="M45.916 213.4961C 45.916 212.4751 45.005 211.64809 43.881 211.64809C 45.005 211.64809 45.916 210.82109 45.916 209.80109C 45.916 210.82109 46.827 211.64809 47.951 211.64809C 46.827 211.64809 45.916 212.4751 45.916 213.4961z" stroke="#E7BC9E" stroke-width="0.25" stroke-linecap="round" fill="none" />
    <path id=""  transform="matrix(1 0 0 -1 0 316)"  d="M51.2334 189.9561C 51.743397 189.0721 51.368397 187.9001 50.395397 187.3391C 51.368397 187.9001 52.5704 187.6401 53.081398 186.7571C 52.5704 187.6401 52.9464 188.8111 53.9194 189.3741C 52.9464 188.8111 51.743397 189.0721 51.2334 189.9561" stroke="none" fill="#E7BC9E" fill-rule="nonzero" />
    <path id=""  transform="matrix(1 0 0 -1 0 316)"  d="M51.2334 189.9561C 51.743397 189.0721 51.368397 187.9001 50.395397 187.3391C 51.368397 187.9001 52.5704 187.6401 53.081398 186.7571C 52.5704 187.6401 52.9464 188.8111 53.9194 189.3741C 52.9464 188.8111 51.743397 189.0721 51.2334 189.9561z" stroke="#E7BC9E" stroke-width="0.25" stroke-linecap="round" fill="none" />
    <path id=""  transform="matrix(1 0 0 -1 0 316)"  d="M67.6084 172.2295C 68.4914 171.7185 68.752396 170.51651 68.1914 169.54251C 68.752396 170.51651 69.9244 170.89151 70.808395 170.3815C 69.9244 170.89151 69.6634 172.09451 70.225395 173.0675C 69.6634 172.09451 68.4914 171.7185 67.6084 172.2295" stroke="none" fill="#E7BC9E" fill-rule="nonzero" />
    <path id=""  transform="matrix(1 0 0 -1 0 316)"  d="M67.6084 172.2295C 68.4914 171.7185 68.752396 170.51651 68.1914 169.54251C 68.752396 170.51651 69.9244 170.89151 70.808395 170.3815C 69.9244 170.89151 69.6634 172.09451 70.225395 173.0675C 69.6634 172.09451 68.4914 171.7185 67.6084 172.2295z" stroke="#E7BC9E" stroke-width="0.25" stroke-linecap="round" fill="none" />
    <path id=""  transform="matrix(1 0 0 -1 0 316)"  d="M90.6528 165.0645C 91.6728 165.0645 92.4998 164.1535 92.4998 163.0295C 92.4998 164.1535 93.326805 165.0645 94.3478 165.0645C 93.326805 165.0645 92.4998 165.9755 92.4998 167.0995C 92.4998 165.9755 91.6728 165.0645 90.6528 165.0645" stroke="none" fill="#E7BC9E" fill-rule="nonzero" />
    <path id=""  transform="matrix(1 0 0 -1 0 316)"  d="M90.6528 165.0645C 91.6728 165.0645 92.4998 164.1535 92.4998 163.0295C 92.4998 164.1535 93.326805 165.0645 94.3478 165.0645C 93.326805 165.0645 92.4998 165.9755 92.4998 167.0995C 92.4998 165.9755 91.6728 165.0645 90.6528 165.0645z" stroke="#E7BC9E" stroke-width="0.25" stroke-linecap="round" fill="none" />
    <path id=""  transform="matrix(1 0 0 -1 0 316)"  d="M114.1924 170.3818C 115.0764 170.8918 116.2484 170.5168 116.809395 169.5428C 116.2484 170.5168 116.5084 171.71881 117.391396 172.22981C 116.5084 171.71881 115.337395 172.0948 114.7744 173.06781C 115.337395 172.0948 115.0764 170.8918 114.1924 170.3818" stroke="none" fill="#E7BC9E" fill-rule="nonzero" />
    <path id=""  transform="matrix(1 0 0 -1 0 316)"  d="M114.1924 170.3818C 115.0764 170.8918 116.2484 170.5168 116.809395 169.5428C 116.2484 170.5168 116.5084 171.71881 117.391396 172.22981C 116.5084 171.71881 115.337395 172.0948 114.7744 173.06781C 115.337395 172.0948 115.0764 170.8918 114.1924 170.3818z" stroke="#E7BC9E" stroke-width="0.25" stroke-linecap="round" fill="none" />
    <path id=""  transform="matrix(1 0 0 -1 0 316)"  d="M131.9189 186.7568C 132.4299 187.6398 133.6319 187.9008 134.6059 187.3388C 133.6319 187.9008 133.2569 189.07181 133.7669 189.95581C 133.2569 189.07181 132.0539 188.8118 131.0809 189.37381C 132.0539 188.8118 132.4299 187.6398 131.9189 186.7568" stroke="none" fill="#E7BC9E" fill-rule="nonzero" />
    <path id=""  transform="matrix(1 0 0 -1 0 316)"  d="M131.9189 186.7568C 132.4299 187.6398 133.6319 187.9008 134.6059 187.3388C 133.6319 187.9008 133.2569 189.07181 133.7669 189.95581C 133.2569 189.07181 132.0539 188.8118 131.0809 189.37381C 132.0539 188.8118 132.4299 187.6398 131.9189 186.7568z" stroke="#E7BC9E" stroke-width="0.25" stroke-linecap="round" fill="none" />
    <path id=""  transform="matrix(1 0 0 -1 0 316)"  d="M139.084 209.8008C 139.084 210.8218 139.995 211.6488 141.119 211.6488C 139.995 211.6488 139.084 212.4758 139.084 213.4958C 139.084 212.4758 138.173 211.6488 137.049 211.6488C 138.173 211.6488 139.084 210.8218 139.084 209.8008" stroke="none" fill="#E7BC9E" fill-rule="nonzero" />
    <path id=""  transform="matrix(1 0 0 -1 0 316)"  d="M139.084 209.8008C 139.084 210.8218 139.995 211.6488 141.119 211.6488C 139.995 211.6488 139.084 212.4758 139.084 213.4958C 139.084 212.4758 138.173 211.6488 137.049 211.6488C 138.173 211.6488 139.084 210.8218 139.084 209.8008z" stroke="#E7BC9E" stroke-width="0.25" stroke-linecap="round" fill="none" />
    <path id=""  transform="matrix(1 0 0 -1 0 316)"  d="M133.7666 233.3408C 133.2566 234.2238 133.6316 235.3958 134.6056 235.95781C 133.6316 235.3958 132.4296 235.6558 131.9186 236.53981C 132.4296 235.6558 132.0536 234.4848 131.0806 233.9228C 132.0536 234.4848 133.2566 234.2238 133.7666 233.3408" stroke="none" fill="#E7BC9E" fill-rule="nonzero" />
    <path id=""  transform="matrix(1 0 0 -1 0 316)"  d="M133.7666 233.3408C 133.2566 234.2238 133.6316 235.3958 134.6056 235.95781C 133.6316 235.3958 132.4296 235.6558 131.9186 236.53981C 132.4296 235.6558 132.0536 234.4848 131.0806 233.9228C 132.0536 234.4848 133.2566 234.2238 133.7666 233.3408z" stroke="#E7BC9E" stroke-width="0.25" stroke-linecap="round" fill="none" />
    <path id=""  transform="matrix(1 0 0 -1 0 316)"  d="M117.3916 251.0674C 116.5086 251.5774 116.247604 252.7804 116.8096 253.7544C 116.247604 252.7804 115.0766 252.4044 114.192604 252.9154C 115.0766 252.4044 115.3366 251.2024 114.774605 250.2284C 115.3366 251.2024 116.5086 251.5774 117.3916 251.0674" stroke="none" fill="#E7BC9E" fill-rule="nonzero" />
    <path id=""  transform="matrix(1 0 0 -1 0 316)"  d="M117.3916 251.0674C 116.5086 251.5774 116.247604 252.7804 116.8096 253.7544C 116.247604 252.7804 115.0766 252.4044 114.192604 252.9154C 115.0766 252.4044 115.3366 251.2024 114.774605 250.2284C 115.3366 251.2024 116.5086 251.5774 117.3916 251.0674z" stroke="#E7BC9E" stroke-width="0.25" stroke-linecap="round" fill="none" />
		</g>
	</g>
</g>
</svg>