<?xml version="1.0" standalone="no"?>
<!DOCTYPE svg PUBLIC "-//W3C//DTD SVG 1.0//EN" "http://www.w3.org/TR/2001/REC-SVG-20010904/DTD/svg10.dtd">
<svg xmlns="http://www.w3.org/2000/svg" xmlns:xlink="http://www.w3.org/1999/xlink" id="body_6" width="247" height="421">

<defs>
    <clipPath  id="1">

    <path id=""  clip-rule="evenodd" transform="matrix(1 0 0 1 0 0)"  d="M0 316L0 0L0 0L185 0L185 0L185 316L185 316L0 316z" />    </clipPath>
    <clipPath  id="2">

    <path id=""  clip-rule="evenodd" transform="matrix(1 0 0 1 0 0)"  d="M0 0L185 0L185 0L185 316L185 316L0 316z" />    </clipPath>
</defs>

<g transform="matrix(1.3333 0 0 1.3333 0 0)">
	<g clip-path="url(#1)" >
		<g clip-path="url(#2)" >
    <path id=""  transform="matrix(1 0 0 -1 0 316)"  d="M107.4015 226.5222C 105.4545 228.46721 103.1215 230.0312 100.5675 231.0882C 98.014496 232.1492 95.2415 232.6932 92.4995 232.6942C 89.7585 232.6932 86.9855 232.1492 84.4335 231.0882C 81.878494 230.0312 79.5455 228.46721 77.598495 226.5222C 75.6535 224.5752 74.08949 222.2422 73.031494 219.68721C 71.9705 217.1342 71.4275 214.3622 71.4265 211.62021C 71.4275 208.8782 71.9705 206.10521 73.031494 203.5532C 74.08949 200.9982 75.6525 198.6652 77.598495 196.7182C 79.5455 194.77321 81.878494 193.2092 84.4335 192.1522C 86.9855 191.09021 89.7585 190.54721 92.4995 190.5462C 95.2415 190.54721 98.014496 191.09021 100.5675 192.1522C 103.1215 193.2092 105.4545 194.77321 107.4015 196.7182C 109.347496 198.6652 110.9105 200.9982 111.9675 203.5532C 113.029495 206.10521 113.5725 208.8782 113.5735 211.62021C 113.5725 214.3622 113.029495 217.1342 111.9675 219.68721C 110.9105 222.2422 109.347496 224.5752 107.4015 226.5222zM105.7475 216.3392C 103.9335 216.7082 102.113495 216.0392 100.4705 215.16121C 100.362495 215.3712 100.266495 215.5872 100.1635 215.79921C 100.0345 215.9982 99.9105 216.2012 99.792496 216.4062C 100.1855 216.6802 100.6335 217.01021 101.0655 217.38321C 101.4905 217.7512 101.8945 218.1602 102.2025 218.5992C 102.5125 219.03821 102.7245 219.5072 102.7725 219.9872C 102.8055 220.45421 102.6435 220.9072 102.279495 221.3192C 101.8805 221.6982 101.4135 221.8462 100.9565 221.82921C 100.4795 221.78821 100.001495 221.5732 99.5595 221.2652C 98.6715 220.6472 97.904495 219.6582 97.348495 218.8772C 97.1375 218.9982 96.9295 219.1232 96.725494 219.2542C 96.515495 219.3742 96.2875 219.4592 96.0735 219.5742C 96.516495 220.3952 96.9055 221.2502 97.1445 222.1412C 97.3865 223.0422 97.4555 223.9332 97.2745 224.8472C 99.8425 225.8462 103.031494 226.1622 106.3645 225.42621C 107.083496 222.0872 106.7575 218.9032 105.7475 216.3392zM101.1965 212.1192L101.1875 212.3692C 101.1855 212.45221 101.1855 212.53621 101.1655 212.6172C 101.9355 212.6862 102.7415 212.7522 103.4745 212.6212C 104.0275 212.5302 104.9255 212.20221 104.975494 211.62021L104.975494 211.62021L104.975494 211.5932C 104.9275 210.9622 104.2765 210.6522 103.488495 210.5532C 102.6965 210.45221 101.753494 210.5332 101.1585 210.5872L101.1585 210.5872L101.182495 210.7142L101.182495 210.7142L101.1865 210.84421L101.1865 210.84421L101.195496 211.10321C 101.2025 211.2752 101.2145 211.4482 101.2285 211.62021C 101.2145 211.7872 101.2035 211.9532 101.1965 212.1192zM97.753494 206.36621C 97.0605 205.6752 96.2335 205.1232 95.3405 204.7552C 94.447495 204.38521 93.49049 204.1952 92.4995 204.1902C 91.5095 204.1952 90.5535 204.38521 89.6585 204.7552C 88.766495 205.1232 87.9395 205.6752 87.2455 206.36621C 86.5545 207.0592 86.003494 207.8862 85.6355 208.7802C 85.2655 209.6732 85.0745 210.6292 85.070496 211.62021C 85.0745 212.6112 85.2655 213.5672 85.6355 214.4602C 86.003494 215.35321 86.5545 216.1812 87.2455 216.8742C 87.9395 217.5652 88.766495 218.1172 89.6585 218.4852C 90.5535 218.85521 91.5095 219.0452 92.4995 219.0502C 93.49049 219.0452 94.447495 218.85521 95.3405 218.4852C 96.2335 218.1172 97.0615 217.5652 97.753494 216.8742C 98.445496 216.1812 98.9955 215.35321 99.3645 214.4602C 99.7355 213.5672 99.9255 212.6112 99.9305 211.62021C 99.9255 210.6292 99.7355 209.6732 99.3645 208.7792C 98.9955 207.8862 98.445496 207.0592 97.753494 206.36621zM100.9535 204.54721C 101.1165 204.3132 101.306496 203.98021 101.3995 203.6452C 101.4905 203.3132 101.4915 202.96921 101.2845 202.7632C 100.8045 202.3502 100.1295 202.5882 99.501495 203.0812C 98.861496 203.5822 98.2625 204.29721 97.8795 204.7612C 97.9465 204.8132 98.0215 204.8542 98.0815 204.9142L98.0815 204.9142L98.266495 205.0872C 98.390495 205.20221 98.516495 205.31421 98.6445 205.42421C 98.7625 205.5452 98.8685 205.6782 98.9845 205.80121C 99.0925 205.9302 99.2285 206.03821 99.3175 206.1822C 99.9105 205.6862 100.5225 205.1642 100.9535 204.54721zM93.4995 200.6452C 93.4095 200.09221 93.0815 199.1952 92.4995 199.1452L92.4995 199.1452L92.473495 199.1442C 91.8415 199.1932 91.5305 199.84421 91.4335 200.63121C 91.3315 201.4232 91.4125 202.36621 91.4675 202.9602L91.4675 202.9602L91.5945 202.9382L91.5945 202.9382L91.723495 202.9342L91.723495 202.9342L91.9835 202.92421C 92.1555 202.9162 92.3275 202.9062 92.4995 202.8912C 92.6665 202.9052 92.8325 202.9152 92.9985 202.9232L92.9985 202.9232L93.2485 202.9332C 93.3315 202.93521 93.4155 202.93521 93.4955 202.9552C 93.5665 202.18521 93.6315 201.3782 93.4995 200.6452zM87.0625 204.8032C 86.5665 204.2092 86.044495 203.5982 85.4275 203.1662C 85.1935 203.0032 84.8605 202.81421 84.5255 202.7212C 84.1935 202.62921 83.8495 202.6282 83.64349 202.8352C 83.2305 203.3152 83.4675 203.99121 83.960495 204.6192C 84.462494 205.25821 85.1775 205.8582 85.641495 206.24121C 85.6935 206.17421 85.7345 206.0992 85.792496 206.0392L85.792496 206.0392L85.9675 205.8542C 86.0815 205.73021 86.194496 205.6042 86.3045 205.4752C 86.4255 205.3582 86.5585 205.2512 86.681496 205.1362C 86.8105 205.0282 86.9165 204.8912 87.0625 204.8032zM83.8035 211.12221L83.8135 210.87221C 83.8155 210.7892 83.8145 210.7052 83.8345 210.6232C 83.0645 210.5542 82.2585 210.4882 81.5255 210.62021C 80.972496 210.7102 80.0735 211.0392 80.0255 211.62021L80.0255 211.62021L80.0245 211.64621C 80.072495 212.2782 80.7245 212.5882 81.5105 212.68721C 82.3035 212.7892 83.2455 212.7072 83.8405 212.6532L83.8405 212.6532L83.8185 212.5262L83.8185 212.5262L83.8145 212.39621L83.8145 212.39621L83.8045 212.1372C 83.7965 211.9642 83.7855 211.7922 83.7715 211.62021C 83.7845 211.45421 83.7955 211.28821 83.8035 211.12221zM84.0455 218.6932C 83.8835 218.9272 83.694496 219.26021 83.6015 219.5952C 83.5085 219.9272 83.5085 220.27121 83.7155 220.4772C 84.195496 220.8902 84.8705 220.6522 85.4975 220.15921C 86.1385 219.6572 86.738495 218.9432 87.1205 218.4792C 87.0545 218.4272 86.9795 218.3862 86.9185 218.32721L86.9185 218.32721L86.7345 218.1532C 86.6105 218.0392 86.4845 217.92621 86.3555 217.81621C 86.238495 217.6952 86.1315 217.56221 86.0155 217.43921C 85.906494 217.3102 85.7715 217.2032 85.6835 217.0572C 85.0895 217.5542 84.4785 218.0762 84.0455 218.6932zM91.4995 222.59421C 91.5905 223.14821 91.9185 224.0452 92.4995 224.0952L92.4995 224.0952L92.5265 224.0952C 93.1575 224.04721 93.4685 223.39621 93.5675 222.6092C 93.6685 221.81621 93.587494 220.8742 93.531494 220.2792L93.531494 220.2792L93.4055 220.3022L93.4055 220.3022L93.2765 220.3062L93.2765 220.3062L93.0175 220.31621C 92.8445 220.3242 92.6725 220.3342 92.4995 220.3482C 92.333496 220.3342 92.167496 220.3242 92.000496 220.31621L92.000496 220.31621L91.751495 220.3072C 91.667496 220.3052 91.5845 220.3052 91.503494 220.28621C 91.434494 221.0552 91.3675 221.8622 91.4995 222.59421zM97.9375 218.43721C 98.4345 219.0312 98.9555 219.6422 99.572495 220.0742C 99.807495 220.2372 100.140495 220.42621 100.475494 220.5192C 100.807495 220.6112 101.1505 220.6122 101.3575 220.4052C 101.7695 219.92421 101.531494 219.2492 101.0385 218.62221C 100.5365 217.9812 99.822495 217.3822 99.3595 216.9992C 99.307495 217.06621 99.266495 217.1412 99.2065 217.20221L99.2065 217.20221L99.0325 217.3862C 98.918495 217.51021 98.8055 217.6362 98.695496 217.7652C 98.5735 217.8822 98.4425 217.9892 98.319496 218.1042C 98.1905 218.2122 98.0825 218.3482 97.9375 218.43721zM93.4115 231.35721L94.1805 231.3152C 94.3085 231.3052 94.4375 231.3022 94.5645 231.28821L94.5645 231.28821L94.947495 231.2332C 95.4565 231.1602 95.9655 231.0802 96.473495 230.9962C 96.9745 230.8742 97.4745 230.74721 97.973495 230.6152L97.973495 230.6152L98.3465 230.5142C 98.4695 230.4762 98.5905 230.4302 98.7125 230.3882L98.7125 230.3882L99.4405 230.1242L99.4405 230.1242L100.1635 229.85321C 100.4005 229.7492 100.6315 229.6362 100.8645 229.5262L100.8645 229.5262L101.5605 229.18921L101.5605 229.18921L101.906494 229.0172C 102.0195 228.9562 102.128494 228.8872 102.2395 228.8222C 102.681496 228.5592 103.1215 228.2902 103.557495 228.0172C 103.973495 227.71521 104.3865 227.4082 104.7955 227.0962C 101.8835 227.4102 99.1525 226.9852 96.8815 226.0582C 96.723495 226.3802 96.5265 226.70421 96.2915 227.0162C 96.0585 227.32721 95.7895 227.6432 95.4785 227.88121C 95.169495 228.1322 94.8275 228.3602 94.462494 228.5532C 94.2805 228.6562 94.0895 228.7242 93.8955 228.7852C 93.7015 228.8452 93.5025 228.8972 93.3015 228.9362L93.3015 228.9362L93.4115 231.35721zM92.5325 227.3372C 92.99049 227.31621 93.4155 227.2342 93.794495 227.1012C 93.8905 227.0682 93.9825 227.0322 94.0715 226.9922C 94.1595 226.9462 94.2445 226.8942 94.3275 226.84021C 94.4925 226.7342 94.6455 226.6172 94.7855 226.49121C 95.0665 226.2352 95.2985 225.9602 95.473495 225.62921C 95.6485 225.2932 95.7725 224.93521 95.850494 224.56421C 96.0065 223.8202 95.9785 223.0302 95.8265 222.24121C 95.6735 221.4442 95.4055 220.6642 95.1035 219.9552C 94.819496 220.0202 94.5375 220.09221 94.2575 220.17221C 94.4215 221.1122 94.587494 222.3562 94.403496 223.4172C 94.3105 223.9462 94.128494 224.43721 93.8215 224.8052C 93.5135 225.1432 93.0785 225.3632 92.529495 225.3942L92.529495 225.3942L92.4995 225.3942C 91.9575 225.3612 91.528496 225.1392 91.222496 224.7982C 90.917496 224.4382 90.738495 223.9402 90.6455 223.41321C 90.460495 222.3502 90.6205 221.10721 90.779495 220.17621C 90.4955 220.1082 90.2175 220.0252 89.932495 219.9632C 89.6315 220.6812 89.3675 221.4562 89.2195 222.2482C 89.072495 223.0312 89.044495 223.8232 89.2005 224.56421C 89.279495 224.93521 89.403496 225.2932 89.5765 225.62921C 89.753494 225.9502 89.9835 226.23221 90.2615 226.4862C 90.8155 227.02121 91.5885 227.28821 92.4995 227.3372L92.4995 227.3372L92.5325 227.3372zM85.6385 230.1532C 86.598495 230.53821 87.6065 230.77321 88.6095 231.0092C 89.1165 231.0932 89.625496 231.1712 90.1355 231.24521C 90.2635 231.2622 90.3905 231.28421 90.51849 231.2962L90.51849 231.2962L90.9025 231.3202L90.9025 231.3202L91.6705 231.3612L91.6705 231.3612L91.7715 228.9402C 91.3685 228.85521 90.975494 228.7482 90.6085 228.56221C 90.24049 228.3692 89.8975 228.1402 89.5865 227.8892C 89.431496 227.76021 89.281494 227.6392 89.1475 227.4892C 89.0115 227.3392 88.8845 227.18521 88.766495 227.0302C 88.531494 226.71721 88.333496 226.39621 88.1755 226.0762C 85.9105 227.0112 83.182495 227.4482 80.2715 227.1472C 81.8715 228.44121 83.7095 229.4332 85.6385 230.1532zM78.6935 225.4852C 82.0325 226.20421 85.2165 225.8772 87.7805 224.86821C 87.4115 223.0532 88.0805 221.2332 88.958496 219.59021C 88.7485 219.48221 88.5325 219.3872 88.320496 219.28421C 88.1205 219.1552 87.919495 219.0312 87.7145 218.91321C 87.4405 219.3052 87.1105 219.7532 86.7375 220.18521C 86.3675 220.6112 85.9595 221.0142 85.5215 221.3232C 85.0825 221.6322 84.6125 221.84421 84.1325 221.8922C 83.6665 221.9252 83.212494 221.7642 82.8015 221.3992C 82.4225 221.0002 82.2735 220.53421 82.2915 220.07721C 82.3315 219.5992 82.5475 219.12221 82.8545 218.6792C 83.473495 217.7912 84.462494 217.0242 85.2425 216.4682C 85.1225 216.2572 84.9975 216.0502 84.86549 215.8452C 84.7455 215.63521 84.6595 215.4082 84.5465 215.1942C 83.7245 215.6362 82.8695 216.0262 81.9795 216.2642C 81.0765 216.50621 80.1875 216.5762 79.2735 216.3952C 78.2745 218.9622 77.9575 222.1522 78.6935 225.4852zM72.8055 213.3002C 72.8145 213.4292 72.8175 213.5572 72.8325 213.6842L72.8325 213.6842L72.8875 214.0672C 72.960495 214.57721 73.0395 215.0852 73.1245 215.5932C 73.2445 216.09421 73.3725 216.5952 73.50549 217.0932L73.50549 217.0932L73.6055 217.46721C 73.64349 217.59021 73.6905 217.7102 73.7325 217.8322L73.7325 217.8322L73.9955 218.56021L73.9955 218.56021L74.2675 219.2852C 74.3705 219.5202 74.4845 219.7512 74.5945 219.9852L74.5945 219.9852L74.9315 220.6802L74.9315 220.6802L75.10249 221.0272C 75.1645 221.1392 75.2325 221.2482 75.2975 221.3602C 75.56149 221.8022 75.8295 222.2422 76.1035 222.6772C 76.4055 223.0932 76.712494 223.50621 77.0235 223.9152C 76.7095 221.0032 77.1355 218.2722 78.0625 216.0012C 77.7395 215.8432 77.416504 215.64621 77.1045 215.41321C 76.7935 215.1782 76.47749 214.9102 76.238495 214.5982C 75.988495 214.2892 75.7595 213.9482 75.5675 213.5822C 75.4635 213.4002 75.3965 213.2102 75.335495 213.0162C 75.2745 212.8222 75.223495 212.6232 75.184494 212.4212L75.184494 212.4212L72.763504 212.5322L72.763504 212.5322L72.8055 213.3002zM76.7825 211.6532C 76.8035 212.1112 76.8865 212.53621 77.0195 212.9152C 77.0525 213.01021 77.0885 213.1022 77.1275 213.19121C 77.1745 213.2802 77.2265 213.3652 77.279495 213.4482C 77.3855 213.6132 77.5025 213.7652 77.628494 213.9062C 77.8845 214.1862 78.1595 214.4182 78.4895 214.59421C 78.8265 214.7682 79.1855 214.8922 79.5565 214.9702C 80.3005 215.1272 81.0895 215.0982 81.8795 214.9472C 82.6755 214.7932 83.4545 214.5262 84.1655 214.2232C 84.100494 213.93921 84.028496 213.65921 83.947495 213.3782C 83.0075 213.5412 81.7635 213.7072 80.7025 213.52321C 80.1735 213.4302 79.6835 213.2482 79.3155 212.9422C 78.9765 212.63321 78.7575 212.1992 78.7265 211.6492L78.7265 211.6492L78.7265 211.62021C 78.7585 211.0782 78.9815 210.64821 79.3215 210.34221C 79.6815 210.03821 80.1805 209.8582 80.7075 209.7652C 81.7705 209.5812 83.0135 209.74121 83.944496 209.8992C 84.0125 209.61621 84.0955 209.3372 84.1555 209.0522C 83.4395 208.7512 82.6635 208.4882 81.8725 208.3392C 81.0895 208.1922 80.2975 208.1652 79.5555 208.3222C 79.1855 208.4002 78.8265 208.52321 78.49049 208.6972C 78.1705 208.8732 77.888504 209.10321 77.6335 209.3822C 77.0995 209.9352 76.8325 210.7092 76.781494 211.62021L76.781494 211.62021L76.7825 211.6532zM76.9725 199.3912C 75.6795 200.9922 74.68649 202.8302 73.9665 204.7592C 73.5825 205.7182 73.3475 206.7262 73.111496 207.7292C 73.0275 208.2372 72.947495 208.7462 72.8755 209.2552C 72.8585 209.38321 72.8365 209.51021 72.8235 209.6382L72.8235 209.6382L72.8005 210.0222L72.8005 210.0222L72.7595 210.7902L72.7595 210.7902L75.1805 210.8922C 75.2655 210.4902 75.3715 210.0952 75.5585 209.72821C 75.751495 209.3612 75.9805 209.0172 76.2315 208.7062C 76.3605 208.5522 76.4805 208.4022 76.6315 208.2672C 76.7805 208.13121 76.934494 208.0042 77.0905 207.8872C 77.4035 207.6522 77.7245 207.4552 78.044495 207.2952C 77.1085 205.0312 76.67149 202.3022 76.9725 199.3912zM79.2525 206.9012C 81.0675 206.5322 82.8875 207.2012 84.5305 208.07921C 84.6385 207.8692 84.7335 207.6532 84.8365 207.4402C 84.9655 207.24121 85.0885 207.0402 85.2065 206.8342C 84.8145 206.56021 84.3665 206.23021 83.9355 205.85721C 83.5095 205.4882 83.1065 205.0812 82.7965 204.6412C 82.488495 204.2032 82.2755 203.73221 82.2285 203.2522C 82.195496 202.7872 82.3565 202.3322 82.7215 201.9212C 83.1185 201.5422 83.5865 201.3932 84.042496 201.4122C 84.5205 201.45221 84.9985 201.6672 85.4415 201.9752C 86.3285 202.5932 87.0965 203.5822 87.6525 204.3632C 87.863495 204.24321 88.070496 204.11821 88.2745 203.9862C 88.4855 203.86621 88.712494 203.7802 88.9255 203.6662C 88.4845 202.8452 88.0935 201.9902 87.8565 201.0992C 87.613495 200.1982 87.544495 199.3072 87.725494 198.3932C 85.1575 197.3942 81.9675 197.0782 78.6345 197.8132C 77.916504 201.1532 78.2425 204.3372 79.2525 206.9012zM91.587494 191.88321L90.819496 191.9252C 90.6915 191.93521 90.5635 191.9372 90.4355 191.9532L90.4355 191.9532L90.0535 192.0072C 89.5435 192.0812 89.0335 192.16121 88.5275 192.24521C 88.0255 192.36621 87.5255 192.49321 87.0275 192.6252L87.0275 192.6252L86.653496 192.7262C 86.5305 192.7632 86.4095 192.81021 86.2875 192.8522L86.2875 192.8522L85.5605 193.11621L85.5605 193.11621L84.835495 193.3872C 84.600494 193.49121 84.3685 193.6042 84.1355 193.7142L84.1355 193.7142L83.4395 194.05121L83.4395 194.05121L83.0935 194.2232C 82.9805 194.2852 82.8705 194.35321 82.7605 194.4172C 82.3185 194.6812 81.878494 194.9502 81.4425 195.2232C 81.0265 195.5252 80.6145 195.8322 80.2045 196.1442C 83.11549 195.8302 85.848495 196.2552 88.1175 197.1822C 88.2775 196.8602 88.473495 196.5372 88.7075 196.2242C 88.9425 195.9142 89.210495 195.5972 89.5225 195.3592C 89.8305 195.1082 90.1725 194.8802 90.5375 194.6872C 90.7205 194.5832 90.9095 194.5162 91.1045 194.4562C 91.2985 194.3942 91.4965 194.3432 91.6985 194.3042L91.6985 194.3042L91.587494 191.88321zM92.4665 195.9032C 92.0095 195.92421 91.5845 196.0062 91.2045 196.1392C 91.1105 196.17221 91.01849 196.2082 90.9285 196.2482C 90.8405 196.2942 90.7545 196.3462 90.6725 196.3992C 90.5075 196.5062 90.3545 196.6232 90.2145 196.7482C 89.934494 197.00421 89.7015 197.2802 89.5265 197.6102C 89.3515 197.9472 89.2275 198.3052 89.1495 198.67621C 88.9925 199.4202 89.0225 200.2092 89.1735 200.9992C 89.3265 201.7962 89.5945 202.5752 89.8965 203.28621C 90.1805 203.2202 90.4615 203.14821 90.7415 203.0682C 90.5785 202.1272 90.4125 200.88321 90.597496 199.8232C 90.6895 199.2932 90.8715 198.8032 91.1785 198.43521C 91.4875 198.0962 91.9215 197.8772 92.4715 197.8462L92.4715 197.8462L92.4995 197.8462C 93.042496 197.87921 93.472496 198.1012 93.7775 198.44121C 94.0815 198.80121 94.2625 199.3002 94.3555 199.8282C 94.5395 200.8902 94.3795 202.13321 94.2215 203.06421C 94.5045 203.1322 94.7825 203.21521 95.0685 203.2762C 95.3685 202.5592 95.6315 201.78421 95.7805 200.99321C 95.9275 200.2092 95.9555 199.4172 95.7985 198.67621C 95.7205 198.3052 95.5965 197.9472 95.4235 197.6112C 95.2465 197.2902 95.016495 197.00821 94.738495 196.7532C 94.1855 196.21921 93.4105 195.9532 92.4995 195.9032L92.4995 195.9032L92.4665 195.9032zM99.361496 193.0862C 98.4025 192.7032 97.3935 192.46721 96.391495 192.2312C 95.8835 192.1472 95.3735 192.0682 94.8645 191.9962C 94.7375 191.97821 94.6095 191.9562 94.4825 191.9442L94.4825 191.9442L94.097496 191.9202L94.097496 191.9202L93.3285 191.87921L93.3285 191.87921L93.2285 194.3002C 93.6305 194.38521 94.0255 194.4922 94.3925 194.6782C 94.7585 194.87221 95.1025 195.1002 95.4135 195.3512C 95.5685 195.48021 95.7175 195.6002 95.8535 195.7512C 95.9895 195.9012 96.11549 196.0552 96.2335 196.2102C 96.4685 196.52321 96.6655 196.84421 96.8235 197.1652C 99.0885 196.22821 101.8175 195.7912 104.7295 196.0932C 103.128494 194.79921 101.2895 193.8072 99.361496 193.0862zM106.306496 197.7552C 102.9675 197.0372 99.7825 197.3632 97.2185 198.3732C 97.5885 200.18721 96.918495 202.0072 96.0405 203.6502C 96.250496 203.75821 96.4675 203.85321 96.6795 203.9562C 96.878494 204.0852 97.0805 204.2082 97.2855 204.3282C 97.5605 203.9342 97.890495 203.4872 98.2625 203.0552C 98.6315 202.62921 99.0395 202.2262 99.4795 201.9162C 99.917496 201.6082 100.3875 201.39621 100.8665 201.3482C 101.3325 201.3152 101.7865 201.4762 102.1985 201.8412C 102.5765 202.2402 102.7265 202.7062 102.708496 203.1642C 102.667496 203.6412 102.4525 204.1192 102.1455 204.5612C 101.5275 205.4492 100.5375 206.2162 99.7575 206.7722C 99.8775 206.9832 100.0025 207.1902 100.1335 207.3952C 100.253494 207.60521 100.3395 207.8322 100.4535 208.0452C 101.2755 207.6042 102.1305 207.2132 103.0215 206.9762C 103.9225 206.7342 104.8135 206.6652 105.7275 206.8452C 106.7265 204.2782 107.0415 201.0882 106.306496 197.7552zM112.195496 209.93921C 112.1855 209.8112 112.182495 209.6832 112.1665 209.5552L112.1665 209.5552L112.113495 209.1732C 112.0385 208.6642 111.959496 208.1542 111.8745 207.6472C 111.7545 207.14621 111.626495 206.6452 111.4945 206.1472L111.4945 206.1472L111.3945 205.77321C 111.3565 205.6502 111.3105 205.5302 111.2685 205.4082L111.2685 205.4082L111.0045 204.6802L111.0045 204.6802L110.7335 203.9562C 110.6295 203.7202 110.516495 203.4892 110.405495 203.2552L110.405495 203.2552L110.069496 202.56021L110.069496 202.56021L109.8975 202.2132C 109.835495 202.1012 109.7675 201.9922 109.7015 201.8802C 109.4385 201.4382 109.169495 200.9982 108.8975 200.56221C 108.5955 200.1472 108.2875 199.7342 107.9765 199.3252C 108.2895 202.2362 107.8645 204.9682 106.9385 207.2382C 107.2605 207.3972 107.583496 207.59421 107.8965 207.8282C 108.2065 208.06221 108.5235 208.3312 108.7615 208.6422C 109.0125 208.9512 109.2395 209.2922 109.4335 209.6582C 109.5355 209.84021 109.6045 210.0302 109.6645 210.2242C 109.7255 210.4182 109.7765 210.61821 109.8165 210.8192L109.8165 210.8192L112.237495 210.7072L112.237495 210.7072L112.195496 209.93921zM108.2175 211.5872C 108.196495 211.1292 108.1145 210.7052 107.9815 210.32521C 107.947495 210.23021 107.9105 210.1382 107.8715 210.04921C 107.8255 209.9602 107.7745 209.8742 107.7205 209.7922C 107.6145 209.6272 107.4965 209.4742 107.3705 209.3342C 107.1145 209.0542 106.8405 208.8222 106.5095 208.64621C 106.1735 208.4722 105.8155 208.3472 105.444496 208.2702C 104.6995 208.1132 103.9095 208.1422 103.1205 208.2932C 102.3235 208.4472 101.544495 208.7142 100.834496 209.0172C 100.8995 209.30121 100.972496 209.5812 101.0515 209.8622C 101.9915 209.6992 103.236496 209.5332 104.2975 209.71721C 104.8255 209.8102 105.3175 209.9922 105.6855 210.2982C 106.0235 210.60721 106.2425 211.0412 106.2745 211.5912L106.2745 211.5912L106.2745 211.62021C 106.2405 212.16321 106.0195 212.59221 105.6785 212.8972C 105.3185 213.20221 104.820496 213.3822 104.2915 213.4752C 103.2295 213.6602 101.987495 213.4992 101.056496 213.3412C 100.988495 213.6242 100.9055 213.9032 100.8435 214.1882C 101.5605 214.4892 102.3365 214.7512 103.126495 214.9012C 103.9105 215.0482 104.7015 215.0762 105.444496 214.9182C 105.8155 214.84021 106.1725 214.7162 106.5095 214.5432C 106.8295 214.3672 107.112495 214.1372 107.3655 213.8582C 107.9015 213.3052 108.167496 212.5312 108.2175 211.62021L108.2175 211.62021L108.2175 211.5872zM112.1765 213.6022L112.1995 213.2182L112.1995 213.2182L112.2405 212.45021L112.2405 212.45021L109.820496 212.3482C 109.7355 212.7502 109.6285 213.1452 109.4425 213.5122C 109.2475 213.8782 109.0205 214.2222 108.7695 214.53421C 108.639496 214.6882 108.5195 214.8372 108.3685 214.9732C 108.2185 215.1092 108.0655 215.2362 107.9085 215.35321C 107.597496 215.5882 107.2765 215.78621 106.9555 215.9442C 107.891495 218.2092 108.3275 220.9382 108.0275 223.8492C 109.320496 222.2482 110.3135 220.41121 111.0325 218.4812C 111.4165 217.5222 111.653496 216.5142 111.8885 215.5112C 111.973495 215.0032 112.0515 214.4942 112.1245 213.9842C 112.1425 213.85721 112.1635 213.73021 112.1765 213.6022z" stroke="#E7BC9E" stroke-width="0.425" fill="none" />
    <path id=""  transform="matrix(1 0 0 -1 0 316)"  d="M114.9253 220.9139C 113.70631 223.8589 111.9063 226.54489 109.665306 228.7859C 107.4243 231.0259 104.7393 232.8269 101.793304 234.0469C 98.8523 235.26889 95.652306 235.8949 92.499306 235.8959C 89.347305 235.8949 86.1483 235.26889 83.2063 234.0469C 80.26131 232.8269 77.5763 231.0259 75.3333 228.7859C 73.09331 226.54489 71.292305 223.8589 70.0743 220.9139C 68.8503 217.9719 68.224304 214.7719 68.224304 211.6199C 68.224304 208.4679 68.8503 205.2679 70.0743 202.3269C 71.292305 199.3819 73.09331 196.69589 75.3333 194.4549C 77.5763 192.2139 80.26131 190.4139 83.2063 189.1939C 86.1483 187.9699 89.347305 187.3449 92.499306 187.3449C 95.652306 187.3449 98.8523 187.9699 101.793304 189.1939C 104.7393 190.4139 107.4243 192.2139 109.665306 194.4549C 111.9063 196.69589 113.70631 199.3819 114.9253 202.3269C 116.1493 205.2679 116.77531 208.4679 116.776306 211.6199C 116.77531 214.7719 116.1493 217.9719 114.9253 220.9139zM113.7263 202.8239C 112.5733 200.0369 110.8693 197.4949 108.7473 195.3729C 106.625305 193.25189 104.082306 191.5469 101.2963 190.3929C 98.51231 189.2359 95.486305 188.6429 92.499306 188.64189C 89.514305 188.6429 86.487305 189.2359 83.7043 190.3929C 80.916306 191.5469 78.37331 193.25189 76.251305 195.3729C 74.1313 197.4949 72.4263 200.0369 71.2733 202.8239C 70.1163 205.6079 69.5233 208.6349 69.52231 211.6199C 69.5233 214.6059 70.1163 217.6329 71.2733 220.4169C 72.4263 223.2039 74.1313 225.7459 76.251305 227.8679C 78.37331 229.98889 80.916306 231.6929 83.7043 232.8469C 86.487305 234.0049 89.514305 234.5969 92.499306 234.5979C 95.486305 234.5969 98.51231 234.0049 101.2963 232.8469C 104.082306 231.6929 106.625305 229.98889 108.7473 227.8679C 110.8693 225.7459 112.5733 223.2029 113.7263 220.4169C 114.8843 217.6329 115.4773 214.6059 115.4783 211.6199C 115.4773 208.6349 114.8843 205.6079 113.7263 202.8239z" stroke="#E7BC9E" stroke-width="0.425" fill="none" />
    <path id=""  transform="matrix(1 0 0 -1 0 316)"  d="M96.4467 215.567C 95.9237 216.089 95.300705 216.503 94.632706 216.778C 93.9637 217.054 93.2537 217.197 92.4997 217.203C 91.746704 217.197 91.036705 217.054 90.3667 216.778C 89.6997 216.503 89.0757 216.089 88.552704 215.567C 88.0317 215.044 87.61771 214.421 87.342705 213.753C 87.065704 213.084 86.923706 212.374 86.9177 211.62C 86.923706 210.867 87.065704 210.157 87.342705 209.487C 87.61771 208.82 88.0317 208.196 88.552704 207.672C 89.0757 207.15201 89.6997 206.738 90.3667 206.463C 91.036705 206.186 91.746704 206.044 92.4997 206.038C 93.2537 206.044 93.9637 206.186 94.632706 206.463C 95.300705 206.738 95.9237 207.15201 96.4467 207.672C 96.968704 208.196 97.382706 208.82 97.6577 209.487C 97.9347 210.157 98.076706 210.867 98.0817 211.62C 98.076706 212.374 97.9347 213.084 97.6577 213.753C 97.382706 214.421 96.968704 215.044 96.4467 215.567zM96.4587 209.985C 96.2487 209.475 95.9317 208.995 95.5287 208.59C 95.1247 208.189 94.6457 207.872 94.135704 207.662C 93.6237 207.451 93.0867 207.342 92.4997 207.337C 91.912704 207.342 91.3757 207.451 90.8647 207.662C 90.354706 207.872 89.8747 208.189 89.4707 208.59C 89.0687 208.995 88.7517 209.475 88.5417 209.985C 88.3307 210.497 88.2217 211.033 88.2157 211.62C 88.2217 212.207 88.3307 212.744 88.5417 213.256C 88.7517 213.765 89.0687 214.246 89.4707 214.649C 89.8747 215.051 90.354706 215.369 90.8647 215.579C 91.3757 215.79 91.912704 215.898 92.4997 215.904C 93.0867 215.898 93.6237 215.79 94.135704 215.579C 94.6457 215.369 95.1247 215.051 95.5287 214.649C 95.9317 214.246 96.2487 213.765 96.4587 213.256C 96.6687 212.744 96.7777 212.207 96.7837 211.62C 96.7777 211.033 96.6687 210.496 96.4587 209.985z" stroke="#E7BC9E" stroke-width="0.425" fill="none" />
		</g>
	</g>
</g>
</svg>