<?xml version="1.0" standalone="no"?>
<!DOCTYPE svg PUBLIC "-//W3C//DTD SVG 1.0//EN" "http://www.w3.org/TR/2001/REC-SVG-20010904/DTD/svg10.dtd">
<svg xmlns="http://www.w3.org/2000/svg" xmlns:xlink="http://www.w3.org/1999/xlink" id="body_7" width="247" height="421">

<defs>
    <clipPath  id="1">

    <path id=""  clip-rule="evenodd" transform="matrix(1 0 0 1 0 0)"  d="M0 316L0 0L0 0L185 0L185 0L185 316L185 316L0 316z" />    </clipPath>
    <clipPath  id="2">

    <path id=""  clip-rule="evenodd" transform="matrix(1 0 0 1 0 0)"  d="M0 0L185 0L185 0L185 316L185 316L0 316z" />    </clipPath>
</defs>

<g transform="matrix(1.3333 0 0 1.3333 0 0)">
	<g clip-path="url(#1)" >
		<g clip-path="url(#2)" >
    <path id=""  transform="matrix(1 0 0 -1 0 316)"  d="M116.0236 216.3855C 115.5096 217.8845 114.7256 219.2035 113.7746 220.14551C 113.4586 220.4655 113.1276 220.7255 112.8066 220.9385C 112.4866 221.1535 112.1636 221.3155 111.8466 221.4345C 111.5296 221.5545 111.2236 221.6355 110.9206 221.6775C 110.6156 221.7185 110.3196 221.7245 110.0316 221.7015C 110.4646 222.3445 110.7426 223.1435 110.7626 224.1495C 110.7866 225.3985 110.3206 226.8025 109.4836 228.1325C 108.6506 229.46451 107.4416 230.7065 106.0966 231.6905C 105.6346 232.0195 105.1556 232.3475 104.6466 232.6375C 103.2506 233.4545 101.679596 234.0775 100.1216 234.3765C 98.5656 234.6805 97.0316 234.65851 95.7446 234.3075C 95.3106 234.1825 94.9216 234.0425 94.5776 233.8645C 94.234604 233.6885 93.9336 233.4925 93.6726 233.2825C 93.151596 232.8525 92.788605 232.3615 92.541595 231.8455C 92.372604 232.1915 92.151596 232.5215 91.8656 232.8355C 91.7226 232.9925 91.5636 233.14551 91.3866 233.2915C 91.2086 233.4345 91.0146 233.5695 90.7996 233.6985C 89.734604 234.3465 88.2796 234.6565 86.6986 234.59149C 85.1186 234.53351 83.4266 234.10449 81.8996 233.4225C 81.3826 233.1885 80.859604 232.9335 80.3536 232.6375C 78.9486 231.8345 77.6326 230.7875 76.6026 229.5955C 75.5686 228.4055 74.8266 227.0765 74.4886 225.7875C 74.431595 225.5695 74.385605 225.3605 74.3506 225.1555C 74.3186 224.9485 74.2986 224.7495 74.286606 224.5575C 74.263596 224.1725 74.2796 223.8165 74.3356 223.4805C 74.390594 223.1465 74.4766 222.8395 74.5886 222.5575C 74.7026 222.2745 74.847595 222.0125 75.010605 221.7755C 74.6266 221.8005 74.222595 221.7775 73.806595 221.6845C 73.3956 221.5895 72.9646 221.4295 72.5226 221.1865C 71.431595 220.5785 70.4386 219.4695 69.704605 218.0685C 68.9656 216.6695 68.497604 214.9895 68.3226 213.3375C 68.2536 212.7755 68.2366 212.2015 68.2246 211.6195C 68.2156 210.0205 68.4586 208.3525 68.9766 206.8555C 69.4896 205.3565 70.2746 204.0365 71.2256 203.0955C 71.5406 202.7755 71.8716 202.5155 72.1936 202.3025C 72.5126 202.0875 72.8356 201.9255 73.1526 201.8055C 73.4706 201.6855 73.775604 201.6055 74.079605 201.5635C 74.3846 201.5225 74.6806 201.5165 74.967606 201.5385C 74.5356 200.8965 74.2566 200.0975 74.2366 199.0915C 74.2136 197.8415 74.679596 196.4385 75.5166 195.1075C 76.3506 193.7765 77.5586 192.5335 78.903595 191.5495C 79.3646 191.2215 79.8436 190.8925 80.3536 190.6035C 81.7496 189.78549 83.3206 189.1625 84.8786 188.8635C 86.4356 188.5605 87.9686 188.5815 89.2546 188.9335C 89.6906 189.0585 90.0776 189.1965 90.4216 189.3755C 90.7666 189.5525 91.066605 189.7475 91.3266 189.9575C 91.8486 190.3885 92.2116 190.8795 92.457596 191.39551C 92.6266 191.0495 92.8486 190.7195 93.1346 190.4045C 93.276596 190.2475 93.4366 190.0955 93.6136 189.9485C 93.7906 189.8065 93.985596 189.6705 94.2006 189.5415C 95.2666 188.8945 96.7206 188.5835 98.3006 188.6495C 99.8806 188.7065 101.5736 189.1365 103.1006 189.8185C 103.6166 190.0525 104.1406 190.3075 104.6466 190.6035C 106.0506 191.4055 107.3666 192.4525 108.3976 193.64551C 109.4306 194.8345 110.1736 196.1635 110.5116 197.4525C 110.5676 197.6695 110.6146 197.8805 110.6496 198.0845C 110.6806 198.2915 110.7016 198.4905 110.7136 198.6835C 110.7366 199.0685 110.7206 199.4245 110.6636 199.7605C 110.609604 200.0945 110.5246 200.4015 110.4116 200.6835C 110.2976 200.9665 110.1526 201.2285 109.9896 201.4655C 110.3736 201.4405 110.7766 201.4635 111.1926 201.5565C 111.6056 201.6515 112.0356 201.8115 112.4776 202.0535C 113.5686 202.6605 114.5616 203.7715 115.2956 205.1725C 116.0346 206.5695 116.5026 208.2505 116.6776 209.9035C 116.7466 210.4655 116.7626 211.0385 116.7756 211.6195C 116.7836 213.2205 116.5416 214.8875 116.0236 216.3855zM93.010605 229.8585C 93.0726 230.4245 93.2176 230.9755 93.4866 231.4935C 93.7576 232.0055 94.1556 232.4815 94.7256 232.8925C 95.6536 233.5495 96.9966 233.8655 98.4776 233.8105C 99.956604 233.7605 101.5566 233.3335 102.9786 232.6805C 103.1946 232.5795 103.4136 232.4755 103.6336 232.3655C 103.8526 232.2555 104.0676 232.1325 104.2836 232.0105C 105.6126 231.2545 106.8786 230.2585 107.8516 229.1205C 108.8276 227.9865 109.5056 226.7195 109.7486 225.5135C 109.8086 225.2115 109.8416 224.9265 109.8536 224.6565C 109.8616 224.3855 109.8446 224.1265 109.8096 223.8855C 109.7746 223.6435 109.7206 223.4155 109.6486 223.2025C 109.5736 222.9865 109.4836 222.78549 109.3776 222.5985C 108.956604 221.8455 108.3146 221.2995 107.5836 220.8625C 106.8516 220.4275 106.0296 220.0975 105.2256 219.8045C 104.8226 219.6575 104.4256 219.5215 104.0416 219.3905C 103.6556 219.2565 103.2836 219.1275 102.9336 219.0055C 101.9936 218.6745 101.0576 218.3215 100.1686 217.9375C 99.7186 217.7395 99.2786 217.5345 98.8536 217.3195C 98.4266 217.1035 98.0046 216.8685 97.6036 216.6275C 97.0936 216.3215 96.5936 215.9915 96.1276 215.6395C 95.651596 215.2775 95.2136 214.8975 94.7876 214.4675L94.7876 214.4675L94.7706 214.4815L94.7706 214.4815L94.7486 214.4975C 95.1706 214.9615 95.6146 215.4065 96.0736 215.8205C 96.5336 216.2365 97.0236 216.6385 97.5196 217.0095C 98.0166 217.3825 98.5406 217.7445 99.0696 218.0885C 99.5996 218.4335 100.1436 218.77051 100.6936 219.1115C 101.2706 219.4675 101.9066 219.8365 102.5636 220.2285C 103.2186 220.6205 103.8916 221.0335 104.5116 221.4955C 105.1316 221.9585 105.7036 222.4755 106.1366 223.0885C 106.3536 223.3965 106.5356 223.7285 106.6716 224.0925C 106.7396 224.2745 106.7966 224.46451 106.8396 224.6615C 106.8796 224.8585 106.9066 225.0625 106.9176 225.2755C 106.929596 225.4895 106.9196 225.7125 106.8896 225.9415C 106.8576 226.1675 106.8006 226.3985 106.7266 226.6335C 106.5796 227.1075 106.3356 227.5765 106.0286 228.0485C 105.4046 228.9765 104.4716 229.8425 103.3926 230.4695C 102.5376 230.9765 101.5896 231.3195 100.679596 231.47949C 100.2216 231.5545 99.776596 231.5945 99.3506 231.5715C 99.1376 231.5635 98.9316 231.5445 98.7336 231.5145C 98.5336 231.4825 98.3406 231.4355 98.1576 231.3805C 96.3486 230.8235 95.6166 229.4555 95.2926 228.0215C 95.1306 227.2985 95.0646 226.5425 95.026596 225.8095C 94.9886 225.0755 94.9806 224.3635 94.9616 223.7255C 94.9356 222.7965 94.9106 221.8695 94.859604 220.9605C 94.8066 220.0465 94.7246 219.1395 94.5966 218.2545C 94.5156 217.6995 94.4226 217.1535 94.3056 216.6165C 94.1876 216.0755 94.041595 215.5365 93.8706 215.0085L93.8706 215.0085L93.8256 215.0265C 93.8936 215.2695 93.9546 215.5155 94.0066 215.7605C 94.0586 216.0025 94.1026 216.2465 94.1406 216.4925C 94.1776 216.7375 94.2086 216.9885 94.2326 217.2365C 94.2566 217.4825 94.2746 217.7305 94.2876 217.9805C 94.3816 219.6125 94.2296 221.3035 93.9506 223.0015C 93.8176 223.8535 93.6136 224.7945 93.4126 225.7805C 93.2156 226.77249 93.0186 227.7775 92.9776 228.7755C 93.0116 229.1385 93.025604 229.4995 93.010605 229.8585zM104.3306 212.4635C 104.3386 212.5985 104.3546 212.7325 104.3716 212.8625C 104.3856 212.9935 104.4056 213.1235 104.4336 213.2535C 104.4936 213.5135 104.554596 213.7685 104.6646 214.0315C 104.7686 214.2955 104.8936 214.5625 105.0656 214.8475C 105.4256 214.6005 105.8156 214.3585 106.1926 214.1125C 105.7886 213.3565 105.6166 212.4845 105.6106 211.6195C 105.609604 210.7425 105.7776 209.8555 106.1856 209.0855C 105.8086 208.8425 105.4166 208.6015 105.0556 208.3555C 104.8856 208.6415 104.7576 208.9105 104.6566 209.1745C 104.6036 209.3075 104.5596 209.4385 104.5226 209.5685C 104.4866 209.6975 104.456604 209.8275 104.4276 209.9585C 104.400604 210.0885 104.3796 210.2195 104.3666 210.3515C 104.3516 210.4835 104.3336 210.6175 104.3266 210.7535C 104.3176 211.0255 104.3006 211.3065 104.3106 211.6025L104.3106 211.6025L104.3116 211.6195C 104.3006 211.9135 104.3206 212.1945 104.3306 212.4635zM107.5626 212.3965C 107.4886 212.1455 107.4536 211.8825 107.4576 211.6195C 107.4486 211.3505 107.4836 211.0795 107.553604 210.8195C 107.6156 210.5615 107.7196 210.3135 107.8666 210.0905C 107.5116 209.8925 107.1586 209.6875 106.8196 209.4775C 106.4706 210.0925 106.3276 210.8605 106.3346 211.6195C 106.3346 212.3655 106.4836 213.1165 106.8256 213.7195C 107.1636 213.5095 107.5196 213.3035 107.8696 213.10449C 107.7276 212.8875 107.6246 212.6475 107.5626 212.3965zM109.3626 209.8895C 110.0256 210.1795 110.7106 210.4215 111.4076 210.5825C 112.1026 210.7435 112.8056 210.8235 113.5176 210.7805C 113.4426 210.0285 113.2456 209.3025 112.9476 208.6805C 112.6456 208.0575 112.2526 207.5385 111.7786 207.1855C 111.1716 206.7195 110.5006 206.5505 109.8576 206.5325C 109.2116 206.5165 108.5776 206.6525 107.9926 206.8205C 107.1426 207.0695 106.3236 207.4195 105.5186 207.7915C 106.7366 208.5535 108.0196 209.3085 109.3626 209.8895zM111.2756 211.5925C 110.8096 211.4585 110.3496 211.2915 109.8996 211.1015C 109.6736 211.0055 109.4506 210.9045 109.2306 210.7995C 109.0086 210.6935 108.7836 210.5825 108.5656 210.4695C 108.2926 210.7365 108.1556 211.1825 108.1706 211.6195C 108.1656 212.0425 108.3056 212.4665 108.5686 212.7235C 108.9966 212.5005 109.4216 212.2925 109.8566 212.1065C 110.2916 211.9195 110.7356 211.7545 111.1856 211.6195L111.1856 211.6195L111.2756 211.5925zM111.3956 212.6055C 110.6996 212.7695 110.0176 213.0145 109.3576 213.3055C 108.0196 213.8895 106.7436 214.6465 105.5286 215.4085C 106.0216 215.6335 106.5176 215.8495 107.0236 216.0405C 107.6256 216.2685 108.2616 216.4845 108.9156 216.5915C 109.5696 216.6975 110.2456 216.6945 110.9266 216.4605C 111.5596 216.2385 112.1516 215.7265 112.6056 215.0055C 112.7226 214.8255 112.8266 214.6345 112.9196 214.4315C 113.0146 214.22949 113.1016 214.0165 113.1796 213.7955C 113.2546 213.5745 113.3166 213.3465 113.3706 213.1115C 113.4256 212.8775 113.4716 212.6385 113.4966 212.3965C 112.7866 212.3585 112.0836 212.4415 111.3956 212.6055zM104.2236 208.4055L103.7516 208.6325C 103.1326 208.9295 102.5066 209.22949 101.8916 209.5085C 101.276596 209.7865 100.651596 210.0505 100.0246 210.2825C 99.7096 210.3995 99.3976 210.5075 99.0796 210.6095C 98.760605 210.7105 98.4396 210.8045 98.1166 210.8895C 97.4746 211.0585 96.8246 211.1945 96.1556 211.2995C 96.150604 211.3005 96.1446 211.3015 96.138596 211.3015L96.138596 211.3015L96.1446 211.3735C 96.1826 211.3655 96.2246 211.3595 96.2746 211.35449C 97.5156 211.22949 98.7546 211.0665 99.9906 210.8625C 101.2246 210.6605 102.4486 210.4195 103.6716 210.1385C 103.7226 209.8535 103.7716 209.5735 103.8716 209.2855C 103.9136 209.1445 103.9636 208.9995 104.0246 208.8535C 104.0856 208.7055 104.1526 208.5575 104.2236 208.4055zM104.0326 214.35449C 103.9716 214.2075 103.9236 214.0645 103.8786 213.9215C 103.7796 213.6335 103.7276 213.3535 103.6766 213.0685C 102.4516 212.7905 101.2306 212.5545 99.9926 212.3555C 98.7556 212.1555 97.5166 211.9955 96.275604 211.8745C 96.2266 211.8695 96.1836 211.8625 96.1456 211.8555L96.1456 211.8555L96.138596 211.9275C 96.1456 211.9285 96.150604 211.9295 96.1566 211.9295C 96.7266 212.0175 97.288605 212.1295 97.8366 212.2655C 98.3866 212.4015 98.9406 212.5655 99.4786 212.7495C 100.0156 212.9335 100.5506 213.1415 101.0866 213.3645C 101.6186 213.5885 102.1456 213.8255 102.6806 214.0695C 103.1996 214.3075 103.7196 214.5545 104.234604 214.8015C 104.1646 214.6515 104.0936 214.5015 104.0326 214.35449zM96.151596 211.6625C 96.191605 211.6595 96.234604 211.6585 96.2836 211.6605C 98.7296 211.7685 101.1866 212.0255 103.6086 212.4315C 103.5996 212.1695 103.5776 211.8995 103.5876 211.6195L103.5876 211.6195L103.5866 211.6035C 103.5776 211.3185 103.5966 211.0425 103.6056 210.7755C 101.1846 211.1895 98.7316 211.4525 96.2826 211.5675C 96.2336 211.5695 96.1906 211.5695 96.151596 211.5665L96.151596 211.5665L96.1546 211.6195L96.1546 211.6195L96.151596 211.6625zM102.7916 206.0805C 102.734604 205.9735 102.6706 205.8695 102.6106 205.7645C 102.4946 205.5505 102.3576 205.3505 102.2276 205.1455C 101.4946 205.3795 100.7736 205.6285 100.0756 205.9035C 100.5406 206.5185 100.9256 207.1915 101.2326 207.8955C 101.8116 207.4285 102.3986 206.9215 102.9576 206.4045L102.9576 206.4045L102.7916 206.0805zM103.2356 205.3995C 103.3286 205.5615 103.4246 205.7225 103.5066 205.8905C 104.0516 205.3645 104.6346 204.8035 105.2286 204.2305C 104.7626 204.3765 104.3126 204.5095 103.8756 204.6405L103.8756 204.6405L102.9436 204.9215C 103.0456 205.0775 103.1466 205.2365 103.2356 205.3995zM100.0866 207.2295C 99.8776 206.8665 99.6446 206.5175 99.3806 206.1905C 99.1476 206.2905 98.9186 206.3935 98.6926 206.5005C 98.4626 206.6095 98.2376 206.7215 98.0166 206.8365C 97.7936 206.9525 97.5746 207.0695 97.3576 207.1935C 97.9916 207.8915 98.4716 208.7205 98.7576 209.6055L98.7576 209.6055L98.8566 209.5465C 99.1586 209.3675 99.4606 209.1785 99.7606 208.9785C 100.0556 208.7795 100.3466 208.5715 100.6366 208.3555C 100.4806 207.9675 100.3016 207.5885 100.0866 207.2295zM97.5626 208.6925C 97.331604 208.2865 97.0446 207.9115 96.7186 207.5735C 96.4066 207.7685 96.1036 207.9755 95.804596 208.1995C 95.5066 208.4235 95.2236 208.6545 94.9446 208.9045C 95.5216 209.4255 95.913605 210.1135 96.0696 210.8395C 96.4236 210.7235 96.7716 210.5915 97.1136 210.4445C 97.4536 210.2985 97.7806 210.1395 98.109604 209.9655C 97.984604 209.5205 97.7946 209.0945 97.5626 208.6925zM95.1656 210.4035C 94.9986 210.0265 94.7316 209.6765 94.4066 209.3985C 94.2656 209.2775 94.1146 209.1695 93.957596 209.0785C 93.5926 208.8705 93.207596 208.7385 92.7836 208.7045C 92.5716 208.6855 92.3406 208.6895 92.1336 208.7145C 91.9246 208.7395 91.7256 208.7865 91.5306 208.8535C 91.3636 208.9125 91.1996 208.9875 91.0426 209.0785C 90.8616 209.1835 90.6876 209.3075 90.5286 209.4515C 90.3716 209.5975 90.2296 209.7595 90.1076 209.9325C 89.859604 210.2785 89.6946 210.6595 89.622604 211.0655C 89.5896 211.2415 89.5706 211.4255 89.5686 211.6195C 89.5716 212.0675 89.6626 212.4595 89.8336 212.8365C 90.0006 213.2135 90.2686 213.5645 90.5936 213.8425C 90.734604 213.9635 90.885605 214.0705 91.0426 214.1615C 91.4066 214.3695 91.791595 214.5005 92.2156 214.5355C 92.4276 214.5555 92.6596 214.5515 92.8666 214.5265C 93.0756 214.5005 93.275604 214.4535 93.4686 214.3875C 93.6366 214.3275 93.7996 214.2525 93.957596 214.1615C 94.138596 214.0575 94.3126 213.9325 94.4716 213.7885C 94.6286 213.6435 94.7706 213.4815 94.8936 213.3085C 95.1406 212.9615 95.304596 212.5805 95.3766 212.1755C 95.4106 211.9975 95.429596 211.8155 95.4316 211.6195C 95.428604 211.1725 95.3366 210.7805 95.1656 210.4035zM99.9806 198.6695C 99.8616 198.6025 99.7486 198.5275 99.6416 198.4445C 99.5316 198.3645 99.429596 198.2775 99.3336 198.1845C 99.2366 198.0905 99.150604 197.9865 99.0696 197.8805C 98.9886 197.7765 98.916595 197.6645 98.8566 197.5475C 98.6826 197.6515 98.5066 197.7515 98.331604 197.8495C 98.1556 197.9505 97.9786 198.0505 97.8026 198.1475C 98.1646 198.7495 98.7576 199.2615 99.4176 199.6415C 100.0666 200.0125 100.7946 200.2565 101.4826 200.2685C 101.4776 200.0675 101.4746 199.8645 101.4746 199.6605C 101.4736 199.4585 101.4716 199.2585 101.4736 199.0555C 101.2166 199.0695 100.9606 199.0315 100.7056 198.9685C 100.4536 198.9015 100.2116 198.7955 99.9806 198.6695zM94.3196 208.4525L94.3556 208.4725C 94.372604 208.4375 94.3936 208.3995 94.4206 208.3575C 95.7386 206.2855 97.1836 204.3035 98.7566 202.4015C 98.5176 202.2905 98.2876 202.1515 98.041595 202.0185L98.041595 202.0185L98.026596 202.0105C 97.7826 201.8625 97.5436 201.7305 97.3236 201.5745C 96.4656 203.8925 95.4756 206.1305 94.3416 208.3125C 94.3186 208.3575 94.2966 208.3935 94.275604 208.4265L94.275604 208.4265L94.3196 208.4525zM94.110596 208.3395C 94.1236 208.3025 94.1396 208.2615 94.1596 208.2155C 94.6756 207.0745 95.150604 205.9275 95.5926 204.7555C 96.0316 203.5885 96.4406 202.3955 96.8056 201.2015C 96.3566 200.8415 95.9556 200.4255 95.5796 199.8585L95.5796 199.8585L95.5396 200.3825C 95.485596 201.0735 95.4366 201.7565 95.3706 202.4285C 95.303604 203.1085 95.2206 203.7775 95.109604 204.4335C 94.997604 205.0955 94.8556 205.7495 94.6826 206.3875C 94.5066 207.0305 94.2966 207.6685 94.0556 208.2915C 94.0526 208.2975 94.0506 208.3035 94.0476 208.3095C 94.0696 208.3165 94.0916 208.32649 94.110596 208.3395zM99.429596 196.1515C 99.7226 195.9345 100.0076 195.7065 100.2796 195.4685C 100.5516 195.2335 100.8116 194.9865 101.054596 194.7275C 101.5416 194.2075 101.9656 193.6345 102.2836 192.9975C 101.9356 192.8445 101.5836 192.7085 101.2256 192.6195C 100.8696 192.5265 100.5176 192.4595 100.1706 192.4385C 99.4826 192.3815 98.8306 192.4775 98.2906 192.7005C 97.5806 193.0065 97.1056 193.4855 96.7666 194.0435C 96.429596 194.5975 96.2306 195.2145 96.0846 195.8065C 95.8756 196.6665 95.7716 197.5495 95.6926 198.4325C 96.9606 197.7515 98.2566 197.0185 99.429596 196.1515zM99.0556 200.2675C 98.2936 199.8285 97.609604 199.2385 97.1476 198.4985C 96.9446 198.6075 96.7446 198.7105 96.5456 198.8115L96.5456 198.8115L95.9486 199.1165C 96.1126 199.4035 96.2836 199.6455 96.4606 199.8705C 96.5486 199.9825 96.6416 200.0805 96.734604 200.1795C 96.8286 200.2785 96.9246 200.3715 97.025604 200.4585C 97.1266 200.5425 97.2296 200.6265 97.3346 200.7095C 97.4406 200.7905 97.5516 200.8645 97.6656 200.9395C 97.8896 201.0965 98.135605 201.2305 98.388596 201.3835L98.388596 201.3835L98.4036 201.3925C 98.6626 201.5325 98.900604 201.6795 99.1476 201.7925C 99.3846 201.9195 99.6346 202.0125 99.8806 202.1025C 100.0046 202.1455 100.1336 202.1815 100.2666 202.2115C 100.3956 202.2455 100.5286 202.2735 100.6686 202.2935C 100.9516 202.3315 101.2426 202.3605 101.5736 202.3565C 101.5596 202.1365 101.5476 201.9125 101.5386 201.6865C 101.525604 201.4635 101.5146 201.2385 101.5066 201.0115C 100.6486 200.9835 99.8076 200.6945 99.0556 200.2675zM99.3406 202.6625C 98.4896 203.5775 97.6646 204.5265 96.8736 205.4945C 96.081604 206.4635 95.3246 207.4505 94.5966 208.4665C 94.5676 208.5075 94.5396 208.5415 94.513596 208.5705C 94.5346 208.5815 94.553604 208.5975 94.5716 208.6115L94.5716 208.6115L94.5836 208.5975C 94.9426 208.1515 95.3196 207.7225 95.7176 207.3105C 96.110596 206.9035 96.525604 206.5135 96.9586 206.1365C 97.8176 205.3905 98.7556 204.7025 99.7086 204.0295C 100.1716 203.7005 100.6486 203.3735 101.1216 203.0485C 100.4406 203.0115 99.8816 202.8675 99.3406 202.6625zM92.4866 202.8535C 92.0656 202.8615 91.6446 202.8835 91.2306 202.9445C 91.1696 203.4445 91.1296 203.9555 91.1076 204.4485C 91.0956 204.6975 91.0886 204.9485 91.0876 205.2005C 91.9916 204.9995 92.984604 204.9955 93.8906 205.1955L93.8906 205.1955L93.8896 205.0795C 93.8866 204.7245 93.8696 204.3755 93.8466 204.0175C 93.8216 203.6605 93.7876 203.2965 93.7436 202.9425C 93.3296 202.8785 92.9076 202.8615 92.4866 202.8535zM93.6416 202.1995C 93.5276 201.4485 93.3786 200.7145 93.2116 199.9575C 92.969604 199.9415 92.7266 199.9425 92.4836 199.9345C 92.2396 199.9445 91.9966 199.9395 91.7546 199.9605C 91.5896 200.7155 91.4426 201.4525 91.3306 202.2035C 92.094604 202.1075 92.8776 202.1055 93.6416 202.1995zM92.4876 205.7715C 92.0116 205.7755 91.5486 205.8335 91.0986 205.9415C 91.110596 206.3055 91.1426 206.6815 91.1866 207.0465C 91.2326 207.4135 91.291595 207.7745 91.3706 208.1435C 92.0616 207.9095 92.9276 207.9055 93.6186 208.1395C 93.6966 207.7685 93.7536 207.4115 93.7976 207.0415C 93.8406 206.6745 93.8676 206.3015 93.8796 205.9365C 93.429596 205.8295 92.9656 205.7725 92.4876 205.7715zM84.3066 202.3175C 84.4466 202.2965 84.581604 202.2685 84.7116 202.2345C 84.8426 202.2005 84.9736 202.1655 85.0986 202.1215C 85.3466 202.0305 85.5956 201.9355 85.8346 201.8075C 85.956604 201.7455 86.0806 201.6855 86.2036 201.6145C 86.3246 201.5435 86.4506 201.4735 86.5796 201.4015L86.5796 201.4015L86.5956 201.3925C 86.8476 201.2395 87.0906 201.10449 87.3136 200.9475C 87.4246 200.8725 87.5356 200.7995 87.6406 200.7185C 87.7456 200.6375 87.8466 200.5505 87.9466 200.4665C 88.1456 200.2935 88.3286 200.0955 88.5066 199.8795C 88.5956 199.7705 88.6806 199.6505 88.7646 199.5255C 88.8496 199.4035 88.9326 199.2705 89.013596 199.1275C 88.6156 198.9255 88.2176 198.7275 87.8136 198.5125C 87.359604 199.2435 86.6906 199.8285 85.9446 200.2675C 85.1856 200.7085 84.332596 201.0075 83.4616 201.0385L83.4616 201.0385L83.4326 201.7135C 83.4236 201.9405 83.4116 202.1635 83.3976 202.3835C 83.7316 202.3885 84.0216 202.3565 84.3066 202.3175zM83.8566 203.0745L84.2876 203.3705C 84.860596 203.7635 85.428604 204.1495 85.9786 204.5415C 86.5286 204.9345 87.0726 205.3455 87.5856 205.7685C 88.6216 206.6195 89.5626 207.5575 90.4076 208.6045C 90.4116 208.6095 90.4146 208.6125 90.4186 208.6185C 90.4386 208.6055 90.4556 208.5875 90.4766 208.57649C 90.4496 208.5465 90.4226 208.5135 90.3936 208.4725C 89.663605 207.4615 88.9026 206.4745 88.1086 205.5075C 87.3136 204.5405 86.485596 203.5975 85.6326 202.6845C 85.0936 202.8905 84.5356 203.0335 83.8566 203.0745zM89.2686 198.4415C 89.2166 197.9045 89.1566 197.3675 89.0706 196.8345C 88.9676 196.1995 88.8366 195.5415 88.6036 194.9195C 88.3696 194.3015 88.026596 193.7035 87.4866 193.2405C 87.2326 193.0225 86.9206 192.8465 86.5656 192.7215C 86.2116 192.60449 85.8126 192.5275 85.3866 192.5105C 84.5376 192.47949 83.5736 192.6575 82.6706 193.0465C 82.9916 193.6805 83.4176 194.2485 83.9066 194.7655C 84.151596 195.0235 84.4106 195.2685 84.6826 195.5015C 84.9546 195.7365 85.2406 195.9645 85.5336 196.1795C 86.706604 197.0385 88.0006 197.7665 89.2686 198.4415zM88.1626 201.2135C 88.5326 202.4085 88.9426 203.5985 89.3876 204.7655C 89.831604 205.9345 90.3116 207.0805 90.8296 208.2215C 90.8506 208.2665 90.8656 208.3075 90.8786 208.3445C 90.900604 208.3335 90.9196 208.3195 90.9426 208.3135C 90.9396 208.3075 90.9376 208.3025 90.9346 208.2955C 90.7276 207.7635 90.5436 207.2235 90.3836 206.6735C 90.2256 206.1255 90.094604 205.5775 89.984604 205.0145C 89.8716 204.4485 89.7866 203.8895 89.7146 203.3145C 89.6416 202.7395 89.582596 202.1575 89.5286 201.5785C 89.4766 201.0135 89.4316 200.4415 89.3876 199.8655C 89.0116 200.4315 88.6126 200.8555 88.1626 201.2135zM90.7156 208.4325C 90.6936 208.3995 90.6716 208.3625 90.6486 208.3185C 89.5076 206.1385 88.5116 203.9045 87.6466 201.5895C 87.4306 201.7415 87.1956 201.8735 86.957596 202.0185L86.957596 202.0185L86.9436 202.0275C 86.8816 202.0625 86.8196 202.0965 86.7586 202.1295C 86.6976 202.1645 86.6376 202.1985 86.5776 202.2335C 86.4586 202.3015 86.3346 202.3585 86.2156 202.4205C 87.7926 204.3155 89.2456 206.2985 90.5696 208.3625C 90.5966 208.4045 90.6176 208.4425 90.6346 208.4775L90.6346 208.4775L90.6806 208.4525L90.6806 208.4525L90.7156 208.4325zM82.026596 206.4345C 82.5896 206.9505 83.176605 207.4555 83.7566 207.9195C 84.0616 207.2145 84.4456 206.5425 84.9066 205.9255C 84.2116 205.6535 83.484604 205.4035 82.7546 205.1735C 82.6236 205.3775 82.4886 205.5795 82.3716 205.7935C 82.2466 206.0015 82.1376 206.2185 82.026596 206.4345zM82.0346 204.9535C 81.3086 204.7435 80.5306 204.5185 79.737595 204.2885C 80.0966 204.6185 80.4406 204.9455 80.7666 205.2555L80.7666 205.2555L81.4756 205.9255C 81.5576 205.7575 81.650604 205.5945 81.7446 205.4335L81.7446 205.4335L81.8846 205.1905L81.8846 205.1905L82.0346 204.9535zM84.900604 207.2515C 84.7906 207.4305 84.7016 207.6195 84.6036 207.8045C 84.5206 207.9955 84.4246 208.1825 84.3536 208.3785C 84.760605 208.6825 85.1696 208.9665 85.5956 209.2355C 85.8086 209.3695 86.0216 209.5015 86.234604 209.6265C 86.5186 208.7405 86.9956 207.9115 87.6266 207.2095L87.6266 207.2095L87.526596 207.1535C 86.9146 206.8115 86.2646 206.4915 85.6036 206.2105C 85.469604 206.3715 85.3546 206.5485 85.2306 206.7165C 85.1196 206.8955 84.9986 207.0675 84.900604 207.2515zM87.4266 208.7115C 87.3056 208.9095 87.2116 209.1225 87.1136 209.3325C 87.0286 209.5485 86.9426 209.7635 86.8836 209.9865C 87.5336 210.3305 88.219604 210.6205 88.9266 210.8495C 89.0806 210.1225 89.4746 209.4365 90.0466 208.9115C 89.4926 208.4195 88.8906 207.9765 88.2656 207.5905C 88.0986 207.7565 87.9556 207.9425 87.8096 208.1245C 87.6756 208.3175 87.5376 208.5065 87.4266 208.7115zM80.6696 210.7775C 80.661606 210.6425 80.6466 210.5085 80.6276 210.3775C 80.6146 210.2455 80.594604 210.1155 80.5676 209.9865C 80.5056 209.7265 80.4456 209.4725 80.3356 209.2085C 80.2316 208.9445 80.107605 208.6785 79.9356 208.3935C 79.5736 208.6405 79.1846 208.8825 78.8076 209.1265C 79.2116 209.8845 79.3836 210.7555 79.3896 211.6195C 79.3916 212.4975 79.2216 213.3855 78.8156 214.1545C 79.1926 214.3985 79.5836 214.6395 79.944595 214.8855C 80.1136 214.5995 80.2426 214.3295 80.342606 214.0665C 80.3966 213.9335 80.441605 213.8025 80.4776 213.6725C 80.5126 213.5425 80.5426 213.4125 80.5726 213.2815C 80.6006 213.1525 80.6196 213.0215 80.6336 212.8895C 80.648605 212.7575 80.6656 212.6225 80.6726 212.4865C 80.6826 212.2155 80.6986 211.9345 80.689606 211.6385L80.689606 211.6385L80.6886 211.6195C 80.6986 211.3265 80.678604 211.0465 80.6696 210.7775zM77.4386 210.8445C 77.5116 211.0955 77.5456 211.3585 77.5426 211.6195C 77.551605 211.8905 77.5176 212.1605 77.4456 212.4205C 77.3846 212.6795 77.2796 212.9275 77.1336 213.1505C 77.487595 213.3485 77.8416 213.5535 78.1806 213.7635C 78.5296 213.1485 78.6716 212.3795 78.6656 211.6195C 78.6656 210.8745 78.5176 210.1235 78.1746 209.5215C 77.8366 209.7315 77.4816 209.9375 77.1296 210.1365C 77.2726 210.3525 77.3746 210.5935 77.4386 210.8445zM75.6376 213.3515C 74.9746 213.0615 74.2896 212.8195 73.592606 212.6575C 72.898605 212.4965 72.194595 212.4165 71.4836 212.4595C 71.5576 213.2115 71.7546 213.9385 72.0526 214.5605C 72.3546 215.1825 72.7466 215.7015 73.2206 216.0555C 73.8276 216.5215 74.4986 216.6905 75.1426 216.7075C 75.788605 216.7245 76.4216 216.5885 77.0076 216.4195C 77.857605 216.1715 78.6756 215.8195 79.482605 215.4485C 78.2626 214.6875 76.9806 213.9325 75.6376 213.3515zM73.7256 211.6485C 74.191605 211.7815 74.650604 211.9485 75.1016 212.1395C 75.3266 212.2355 75.5496 212.3355 75.7706 212.4415C 75.9916 212.5465 76.2156 212.6565 76.4356 212.7715C 76.707596 212.5035 76.8436 212.0585 76.829605 211.6195C 76.8336 211.1975 76.6936 210.7745 76.431595 210.5175C 76.0026 210.7385 75.5786 210.9465 75.1436 211.1335C 74.707596 211.3195 74.2646 211.4865 73.814606 211.6195L73.814606 211.6195L73.7256 211.6485zM73.6056 210.6355C 74.3006 210.4715 74.9836 210.2265 75.6436 209.9355C 76.9806 209.3515 78.2566 208.5935 79.4706 207.8315C 78.9796 207.6075 78.4836 207.3905 77.9776 207.1985C 77.3746 206.9725 76.7386 206.7565 76.084595 206.6495C 75.429596 206.5425 74.7546 206.5455 74.0726 206.7795C 73.441605 207.0015 72.847595 207.5145 72.3956 208.2355C 72.2776 208.4135 72.1726 208.6065 72.0806 208.8095C 71.985596 209.0115 71.8996 209.2245 71.819595 209.4445C 71.7446 209.6655 71.6846 209.8945 71.6296 210.1285C 71.5746 210.3625 71.528595 210.6025 71.5036 210.8445C 72.2126 210.8825 72.9156 210.7995 73.6056 210.6355zM80.775604 214.8345L81.247604 214.6085C 81.8676 214.3115 82.4926 214.0115 83.109604 213.7325C 83.7226 213.4525 84.3486 213.1905 84.9766 212.9575C 85.2896 212.8415 85.6036 212.7335 85.9196 212.6315C 86.2396 212.5295 86.5606 212.4365 86.8826 212.3515C 87.525604 212.1815 88.1756 212.0465 88.8436 211.9415C 88.8506 211.9405 88.8566 211.9395 88.8616 211.9385L88.8616 211.9385L88.8566 211.8665C 88.8176 211.8745 88.775604 211.8815 88.7266 211.8865C 87.484604 212.0105 86.2456 212.1745 85.0086 212.3775C 83.776596 212.5795 82.5506 212.8205 81.3276 213.1015C 81.276596 213.3875 81.2286 213.6655 81.1286 213.9535C 81.0866 214.0965 81.036606 214.2405 80.9766 214.3875C 80.9146 214.5345 80.847595 214.6835 80.775604 214.8345zM80.967606 208.8865C 81.0276 209.0325 81.0756 209.1765 81.1216 209.3195C 81.2206 209.6075 81.273605 209.8865 81.3236 210.1725C 82.5476 210.4495 83.7706 210.6865 85.0076 210.8855C 86.2436 211.0845 87.484604 211.2445 88.7246 211.3655C 88.7746 211.3705 88.8176 211.3775 88.8556 211.3855L88.8556 211.3855L88.860596 211.3135L88.860596 211.3135L88.8436 211.3105C 88.2746 211.2235 87.7116 211.1115 87.1626 210.9755C 86.6126 210.8385 86.0606 210.6755 85.5226 210.4905C 84.984604 210.3075 84.4486 210.0995 83.9126 209.8755C 83.3816 209.6525 82.8546 209.4135 82.319595 209.1705C 81.7996 208.9335 81.2796 208.6865 80.7646 208.4395C 80.8356 208.5895 80.9066 208.7385 80.967606 208.8865zM88.8486 211.5775C 88.8096 211.5805 88.7666 211.5815 88.7166 211.5785C 86.2706 211.4725 83.8136 211.2155 81.3916 210.8085C 81.400604 211.0705 81.4216 211.3415 81.411606 211.6195L81.411606 211.6195L81.4126 211.6375C 81.4226 211.9225 81.403595 212.1965 81.3946 212.4655C 83.816605 212.0515 86.2696 211.7865 88.7166 211.6735C 88.7666 211.6705 88.8096 211.6715 88.8486 211.6745L88.8486 211.6745L88.8456 211.6195L88.8456 211.6195L88.8486 211.5775zM82.2086 217.1595C 82.2666 217.2665 82.3286 217.3705 82.388596 217.4765C 82.5056 217.6905 82.6436 217.8905 82.7726 218.0955C 83.5056 217.8615 84.2276 217.6115 84.9246 217.3375C 84.4596 216.7225 84.0746 216.0495 83.7686 215.3455C 83.189606 215.8115 82.6016 216.3195 82.0426 216.8355L82.0426 216.8355L82.2086 217.1595zM81.7646 217.8415C 81.6706 217.6795 81.5746 217.5185 81.4926 217.3505C 80.9476 217.8755 80.3656 218.4375 79.7716 219.0105C 80.2366 218.8635 80.6886 218.7315 81.1236 218.6005C 81.4356 218.5065 81.745605 218.4125 82.056595 218.3195C 81.9536 218.1625 81.8546 218.0045 81.7646 217.8415zM84.9126 216.0115C 85.122604 216.3735 85.3566 216.7235 85.6196 217.0505C 85.8536 216.9495 86.0806 216.8475 86.3086 216.7395C 86.5366 216.6315 86.7626 216.5195 86.9836 216.4035C 87.206604 216.2875 87.4256 216.1705 87.6426 216.0475C 87.0076 215.3495 86.5286 214.5205 86.2426 213.6355L86.2426 213.6355L86.1436 213.6945C 85.8406 213.8725 85.5396 214.0625 85.2396 214.2625C 84.9436 214.4605 84.6536 214.6685 84.3626 214.8855C 84.5196 215.2735 84.6986 215.6525 84.9126 216.0115zM87.4386 214.5485C 87.6686 214.9535 87.9556 215.3285 88.2806 215.6665C 88.5936 215.4725 88.8976 215.2655 89.1946 215.0405C 89.4926 214.8175 89.776596 214.5855 90.0556 214.3355C 89.4796 213.8155 89.0866 213.1265 88.929596 212.4015C 88.5756 212.5175 88.2296 212.6485 87.8866 212.7955C 87.5466 212.9425 87.219604 213.1015 86.8896 213.2755C 87.0146 213.7205 87.2056 214.1465 87.4386 214.5485zM82.7056 221.0075C 82.2666 221.3195 81.831604 221.6415 81.4126 221.9835C 80.9146 222.3915 80.4106 222.8345 79.9896 223.3475C 79.569595 223.8605 79.2316 224.4485 79.0936 225.1525C 79.0306 225.4825 79.0356 225.8365 79.1036 226.2065C 79.1726 226.5745 79.3136 226.9495 79.5046 227.3305C 79.900604 228.0765 80.528595 228.8245 81.3176 229.4095C 81.706604 228.8165 81.9866 228.1635 82.191605 227.4835C 82.2936 227.1425 82.3746 226.7975 82.4426 226.4445C 82.5126 226.0885 82.566605 225.72949 82.607605 225.3685C 82.7696 223.9235 82.7566 222.4405 82.7056 221.0075zM83.1526 227.7985L83.1326 227.8905C 83.4826 227.5555 83.8556 227.2455 84.2456 226.9515C 84.6396 226.6535 85.0476 226.3745 85.4626 226.1135C 85.3736 225.7315 85.0436 225.4095 84.6626 225.1885C 84.5696 225.1365 84.4736 225.0925 84.3746 225.0565C 84.276596 225.0195 84.178604 224.9875 84.0786 224.9685C 83.8816 224.9285 83.6836 224.9295 83.5026 224.9845C 83.484604 225.4585 83.4496 225.9355 83.3936 226.4075C 83.334595 226.8815 83.260605 227.34149 83.1526 227.7985zM90.6806 214.7875L90.6446 214.7685C 90.6276 214.8035 90.6066 214.8415 90.5796 214.8835C 89.260605 216.9545 87.8176 218.9375 86.2426 220.8385C 86.4836 220.9495 86.7126 221.0885 86.957596 221.2225L86.957596 221.2225L86.9726 221.2305C 87.2166 221.3775 87.4556 221.5105 87.6766 221.6655C 88.5346 219.3485 89.525604 217.1105 90.6576 214.9275C 90.6816 214.8835 90.7036 214.8465 90.7256 214.8145L90.7256 214.8145L90.6806 214.7875zM90.888596 214.9015C 90.8756 214.9385 90.859604 214.97949 90.8406 215.0245C 90.3246 216.1655 89.8506 217.3135 89.4076 218.4845C 88.9676 219.6525 88.5596 220.8455 88.1946 222.0385C 88.6446 222.3995 89.0446 222.8155 89.4206 223.3825L89.4206 223.3825L89.4606 222.8575C 89.5146 222.1665 89.5636 221.4845 89.6286 220.8125C 89.6956 220.1315 89.7796 219.4625 89.8906 218.8075C 90.0026 218.14551 90.1446 217.4905 90.3176 216.8535C 90.4926 216.2095 90.7036 215.5715 90.9446 214.9485C 90.9466 214.9435 90.9496 214.9375 90.9516 214.9315C 90.929596 214.9235 90.9086 214.9135 90.888596 214.9015zM85.0206 224.5705C 85.138596 224.6375 85.2516 224.7135 85.3586 224.7965C 85.4676 224.8755 85.5706 224.9615 85.666595 225.0565C 85.7626 225.1505 85.8496 225.2535 85.9306 225.3605C 86.0116 225.46451 86.082596 225.5755 86.1436 225.6935C 86.3176 225.58951 86.4926 225.4885 86.6676 225.3915C 86.844604 225.2895 87.0216 225.1895 87.1976 225.0935C 86.8356 224.4905 86.2416 223.97949 85.582596 223.5995C 84.9346 223.2285 84.2056 222.9845 83.5176 222.9725C 83.5226 223.1735 83.525604 223.3755 83.525604 223.5795C 83.526596 223.7815 83.5286 223.9825 83.526596 224.1845C 83.7836 224.1715 84.0396 224.2085 84.2936 224.27249C 84.5466 224.33951 84.788605 224.4445 85.0206 224.5705zM85.5706 227.08951C 85.2776 227.3065 84.9926 227.53351 84.719604 227.77249C 84.4486 228.0065 84.1896 228.2535 83.9446 228.5135C 83.457596 229.0325 83.0346 229.6055 82.7166 230.2425C 83.064606 230.3965 83.4156 230.5305 83.7746 230.6205C 84.1296 230.71451 84.4826 230.7795 84.8286 230.8025C 85.5186 230.8595 86.1696 230.7635 86.7086 230.5395C 87.4196 230.2335 87.8956 229.7555 88.234604 229.1965C 88.5706 228.6435 88.7696 228.0265 88.9146 227.4345C 89.1246 226.5735 89.2286 225.6905 89.3076 224.8085C 88.038605 225.4885 86.7436 226.2225 85.5706 227.08951zM83.4616 221.5545C 83.4746 221.7775 83.485596 222.0015 83.4936 222.22949C 84.3526 222.2575 85.1926 222.5455 85.9446 222.9735C 86.7056 223.4115 87.3906 224.0015 87.8536 224.7415C 88.054596 224.6335 88.2556 224.5285 88.4536 224.4295L88.4536 224.4295L89.0516 224.1235C 88.8866 223.8375 88.7166 223.5945 88.5396 223.3695C 88.4506 223.2585 88.3586 223.1595 88.2646 223.0615C 88.1716 222.9615 88.0746 222.8685 87.9746 222.7815C 87.8736 222.6975 87.7716 222.6135 87.6656 222.5305C 87.5596 222.4495 87.4486 222.3755 87.3346 222.3015C 87.110596 222.1445 86.8646 222.0095 86.610596 221.8575L86.610596 221.8575L86.5956 221.8485C 86.3376 221.7075 86.1006 221.5615 85.8536 221.4475C 85.6146 221.3205 85.3656 221.2285 85.1196 221.1375C 84.9946 221.0955 84.8666 221.0595 84.734604 221.0285C 84.6056 220.9945 84.4716 220.9675 84.3306 220.9465C 84.0486 220.9085 83.7566 220.8795 83.4256 220.8845C 83.441605 221.10449 83.4526 221.3275 83.4616 221.5545zM85.6596 220.5765C 86.5096 219.6615 87.3356 218.7135 88.1266 217.7455C 88.9186 216.7775 89.6756 215.7895 90.4026 214.7735C 90.4326 214.7335 90.4596 214.6985 90.485596 214.6695C 90.4646 214.6585 90.4466 214.6435 90.4276 214.6285C 90.4236 214.6335 90.4206 214.6385 90.416595 214.6435C 90.0576 215.0885 89.679596 215.5185 89.2816 215.9305C 88.888596 216.3365 88.4746 216.7275 88.041595 217.1035C 87.1826 217.8505 86.2446 218.5375 85.291595 219.2105C 84.8276 219.5395 84.3526 219.8665 83.8776 220.1925C 84.5606 220.22949 85.1186 220.3715 85.6596 220.5765zM92.513596 220.3875C 92.9356 220.3795 93.3556 220.3575 93.7696 220.2945C 93.8296 219.7945 93.8706 219.2835 93.8926 218.7905C 93.9036 218.5425 93.9116 218.2915 93.9126 218.0395C 93.0086 218.2405 92.0156 218.2445 91.109604 218.0445L91.109604 218.0445L91.110596 218.16049C 91.1136 218.5165 91.1296 218.8645 91.1536 219.2235C 91.178604 219.5795 91.2116 219.9445 91.2566 220.2985C 91.6706 220.3615 92.0916 220.3785 92.513596 220.3875zM91.359604 221.0405C 91.4716 221.7915 91.6206 222.5255 91.7876 223.2825C 92.0306 223.2995 92.2746 223.2985 92.5176 223.3055C 92.7596 223.2955 93.0036 223.3005 93.2456 223.2795C 93.4096 222.5255 93.5576 221.7865 93.6686 221.0365C 92.9056 221.1325 92.1216 221.1355 91.359604 221.0405zM92.5116 217.4695C 92.9876 217.4655 93.4516 217.4065 93.901596 217.2995C 93.8896 216.9355 93.8586 216.5595 93.8136 216.1945C 93.7686 215.8265 93.7086 215.4665 93.6286 215.0965C 92.9396 215.3305 92.0716 215.3335 91.3806 215.1005C 91.3026 215.4725 91.2456 215.8285 91.2026 216.1985C 91.1596 216.5665 91.1326 216.9395 91.1206 217.3045C 91.5706 217.41049 92.0346 217.4685 92.5116 217.4695zM102.4356 225.3515C 102.609604 226.7995 102.9596 228.2035 103.7466 229.39551C 103.900604 229.28351 104.0506 229.1675 104.1936 229.0485C 104.3366 228.9275 104.4706 228.7975 104.6006 228.6685C 104.7296 228.5375 104.8526 228.4055 104.9666 228.2695C 105.0786 228.1305 105.1846 227.9895 105.2806 227.8475C 105.3776 227.7045 105.4676 227.5625 105.5466 227.4165C 105.6236 227.2695 105.6926 227.1215 105.7516 226.9745C 105.8696 226.6785 105.9526 226.3865 105.984604 226.0925C 106.0296 225.7105 106.0096 225.3575 105.9376 225.0275C 105.8616 224.6945 105.7376 224.3895 105.5826 224.1055C 105.2726 223.5365 104.8386 223.0565 104.3996 222.6345C 103.7596 222.0225 103.0466 221.4885 102.3216 220.9775C 102.275604 222.4135 102.2676 223.9025 102.4356 225.3515zM101.9166 227.8615C 101.6886 226.9295 101.5776 225.9385 101.5366 224.9565C 101.3516 224.9025 101.1446 224.9025 100.9396 224.9465C 100.8356 224.9695 100.734604 225.0025 100.6336 225.0445C 100.5306 225.0835 100.4316 225.1325 100.3366 225.1885L100.3366 225.1885L99.9806 224.5705C 100.2156 224.4385 100.4636 224.3245 100.7226 224.2535C 100.984604 224.1865 101.2456 224.1445 101.5116 224.1575C 101.5086 223.7565 101.5076 223.3475 101.5166 222.9455C 100.8166 222.9595 100.0726 223.2135 99.4176 223.5995C 99.0976 223.7925 98.788605 224.0065 98.5226 224.2595C 98.2496 224.5005 98.0206 224.78351 97.8426 225.0765C 98.1976 225.2745 98.5496 225.4685 98.8996 225.6745C 98.957596 225.5595 99.026596 225.4505 99.1056 225.3495C 99.1816 225.2435 99.2666 225.1445 99.3586 225.0515C 99.4496 224.9585 99.5496 224.8735 99.6546 224.7955C 99.7576 224.7125 99.8656 224.6385 99.9806 224.5705L99.9806 224.5705L100.3366 225.1885C 99.9756 225.41049 99.6656 225.7235 99.5806 226.09149C 99.9836 226.3445 100.3796 226.6125 100.7616 226.8995C 101.1416 227.1805 101.5046 227.4785 101.8466 227.7985L101.8466 227.7985L101.9166 227.8615zM100.6936 220.9225C 100.553604 220.9445 100.4186 220.9725 100.2886 221.0065C 100.1566 221.0395 100.025604 221.0735 99.901596 221.1175C 99.6536 221.2085 99.4046 221.3055 99.1656 221.4335C 99.0436 221.4935 98.9186 221.5555 98.7966 221.6255C 98.6746 221.6965 98.5486 221.7675 98.4196 221.8395L98.4196 221.8395L98.4036 221.8485C 98.1526 222.0005 97.9086 222.1365 97.6876 222.2915C 97.5746 222.3675 97.4636 222.4405 97.359604 222.5225C 97.2546 222.6035 97.1536 222.6905 97.053604 222.7735C 96.8546 222.9455 96.6716 223.14551 96.4926 223.3605C 96.4046 223.4695 96.3196 223.5905 96.235596 223.7155C 96.151596 223.8375 96.0676 223.9705 95.985596 224.1125C 96.3846 224.3155 96.7826 224.5135 97.1866 224.7285C 97.6406 223.9965 98.3096 223.4115 99.0556 222.9735C 99.8146 222.5315 100.6666 222.2335 101.5376 222.2015L101.5376 222.2015L101.5676 221.5265C 101.5766 221.2995 101.5876 221.0765 101.6026 220.8575C 101.2686 220.8525 100.9786 220.8845 100.6936 220.9225zM101.1446 220.1655L100.7116 219.8695C 100.1396 219.4775 99.5716 219.0915 99.0216 218.6985C 98.4706 218.3065 97.9276 217.8945 97.413605 217.4725C 96.3786 216.6205 95.4386 215.6835 94.5926 214.6365C 94.5886 214.6315 94.5856 214.6265 94.581604 214.6215C 94.5616 214.6355 94.5446 214.6525 94.5236 214.6635C 94.5496 214.6945 94.5766 214.7275 94.6066 214.7675C 95.3356 215.7785 96.0976 216.7665 96.8926 217.7335C 97.6876 218.6995 98.513596 219.6435 99.3666 220.5565C 99.9066 220.3505 100.4646 220.2065 101.1446 220.1655zM101.0936 228.4755C 100.8496 228.2175 100.5886 227.9725 100.3176 227.7385C 100.0456 227.5045 99.7586 227.2765 99.4666 227.0615C 98.2936 226.2015 96.9996 225.4745 95.7326 224.7995C 95.7826 225.3355 95.8426 225.8725 95.929596 226.4055C 96.0316 227.0405 96.1626 227.6985 96.3976 228.3205C 96.6306 228.9395 96.9736 229.5365 97.513596 229.9985C 97.7676 230.2175 98.0796 230.3945 98.4356 230.5195C 98.7876 230.6365 99.1886 230.7115 99.6136 230.7305C 100.4626 230.7615 101.4256 230.5825 102.3296 230.1935C 102.0076 229.5605 101.581604 228.9915 101.0936 228.4755zM96.8366 222.0275C 96.4676 220.8315 96.0576 219.6425 95.6126 218.4755C 95.1676 217.3065 94.6896 216.1585 94.1696 215.0195C 94.1496 214.9745 94.1336 214.9335 94.1206 214.8955C 94.1006 214.9065 94.0806 214.9205 94.0586 214.9275C 94.0606 214.9335 94.0626 214.9385 94.0656 214.9445C 94.2736 215.4775 94.456604 216.0165 94.6156 216.5665C 94.775604 217.1145 94.9046 217.6625 95.0166 218.2265C 95.1276 218.7915 95.2126 219.3515 95.2856 219.9265C 95.359604 220.5005 95.4176 221.0815 95.4716 221.6615C 95.5246 222.2275 95.5676 222.7995 95.6126 223.3745C 95.9886 222.8085 96.3866 222.3855 96.8366 222.0275zM94.2846 214.8085C 94.3066 214.8415 94.3286 214.8775 94.3516 214.9215C 95.4926 217.1025 96.4876 219.3355 97.3546 221.6515C 97.5696 221.4985 97.803604 221.3665 98.041595 221.2225L98.041595 221.2225L98.0566 221.2135C 98.1176 221.1775 98.1806 221.1435 98.2416 221.1115C 98.3026 221.0755 98.3626 221.0415 98.4226 221.0075C 98.541595 220.9395 98.6656 220.8815 98.7836 220.8195C 97.206604 218.9255 95.7536 216.9425 94.4306 214.8775C 94.4026 214.8355 94.3826 214.7975 94.3646 214.7635L94.3646 214.7635L94.3196 214.7875L94.3196 214.7875L94.2846 214.8085zM94.9536 214.3285C 95.5066 214.8205 96.109604 215.2645 96.734604 215.6505C 96.901596 215.4845 97.0446 215.2975 97.191605 215.1155C 97.3236 214.9235 97.4626 214.7345 97.5726 214.5285C 97.6946 214.3295 97.788605 214.1175 97.8866 213.9075C 97.9716 213.6925 98.0566 213.4775 98.1156 213.2535C 97.4656 212.9095 96.7796 212.6185 96.0726 212.3915C 95.9186 213.1175 95.526596 213.8045 94.9536 214.3285zM97.372604 216.0305L97.4736 216.0865C 98.0846 216.4295 98.734604 216.7485 99.3966 217.0295C 99.5306 216.8675 99.6456 216.6925 99.7706 216.5235C 99.8796 216.3455 100.0006 216.1735 100.1006 215.9885C 100.2096 215.8105 100.2986 215.6205 100.3966 215.4365C 100.4806 215.2445 100.5756 215.0585 100.6466 214.8615C 100.2386 214.5585 99.8306 214.2735 99.4046 214.0055C 99.1926 213.8705 98.9796 213.7385 98.7656 213.6135C 98.4826 214.4995 98.0036 215.3285 97.372604 216.0305zM100.0926 217.3155C 100.7876 217.5855 101.5146 217.8375 102.2456 218.0675C 102.3766 217.8625 102.5116 217.66049 102.6276 217.4465C 102.7536 217.2385 102.8626 217.0225 102.9726 216.8055C 102.4096 216.2895 101.8236 215.7845 101.2436 215.3195C 100.9396 216.0265 100.553604 216.6975 100.0926 217.3155zM102.9646 218.2865C 103.6926 218.4965 104.4696 218.7225 105.2616 218.9515C 104.9036 218.6205 104.5606 218.2935 104.234604 217.9845L104.234604 217.9845L103.5246 217.3155C 103.4426 217.4835 103.3506 217.6465 103.2556 217.8075L103.2556 217.8075L103.1156 218.0505L103.1156 218.0505L102.9646 218.2865zM92.8556 224.9575C 92.9306 224.6435 93.0056 224.3285 93.0796 224.0155L93.0796 224.0155L92.5196 224.0285L92.5196 224.0285L91.9586 224.0165C 92.1416 224.7515 92.3356 225.5375 92.5326 226.3385C 92.6406 225.8615 92.7506 225.39749 92.8556 224.9575zM76.275604 227.8965C 77.054596 229.14551 78.2136 230.3095 79.484604 231.21451C 79.8766 231.4875 80.2826 231.7645 80.7166 232.0105C 82.0326 232.78549 83.5346 233.3905 85.0156 233.6665C 86.4946 233.9485 87.941605 233.9025 89.109604 233.5105C 89.691605 233.3065 90.166595 233.0545 90.5496 232.7455C 90.9336 232.4385 91.2266 232.0955 91.4446 231.7285C 91.8836 230.9835 92.0326 230.1515 92.0446 229.2995C 92.054596 228.4475 91.928604 227.5735 91.7796 226.7345C 91.6296 225.8915 91.456604 225.0715 91.3206 224.3495C 90.9486 222.3795 90.6676 220.4355 90.7096 218.5475C 90.7326 217.3465 90.859604 216.1885 91.1846 215.0295L91.1846 215.0295L91.163605 215.0215L91.163605 215.0215L91.1396 215.0125C 90.7516 216.2085 90.4926 217.4185 90.3406 218.6655C 90.2656 219.2825 90.2146 219.91049 90.179596 220.5475C 90.1456 221.1785 90.1276 221.8155 90.1086 222.4615C 90.0866 223.1435 90.0866 223.8795 90.0776 224.6415C 90.0676 225.4025 90.0476 226.1915 89.9586 226.9605C 89.8686 227.72949 89.7096 228.4815 89.3946 229.1655C 89.0796 229.8515 88.6076 230.4735 87.8906 230.9385C 87.1686 231.4145 86.1566 231.6245 85.0306 231.5495C 83.9076 231.4765 82.689606 231.0905 81.607605 230.4695C 81.1726 230.2285 80.7706 229.9355 80.3916 229.6305C 80.2056 229.4745 80.028595 229.3095 79.859604 229.1435C 79.689606 228.9775 79.5306 228.8045 79.385605 228.6245C 79.2386 228.4465 79.1026 228.2665 78.9776 228.0845C 78.8546 227.9005 78.7446 227.7115 78.6466 227.5245C 78.4466 227.1525 78.3076 226.77051 78.219604 226.4005C 78.109604 225.9475 78.0896 225.5135 78.122604 225.1155C 78.1556 224.7195 78.2546 224.3495 78.400604 224.0055C 78.6886 223.3205 79.1526 222.7485 79.6956 222.2455C 80.2396 221.7425 80.860596 221.3065 81.4776 220.9045C 82.094604 220.5035 82.706604 220.1385 83.250595 219.8015C 84.8276 218.8315 86.3966 217.8605 87.804596 216.7505C 88.6866 216.0605 89.5096 215.3365 90.260605 214.5045L90.260605 214.5045L90.2206 214.4745C 89.5116 215.1965 88.7276 215.7995 87.885605 216.3455C 86.5176 217.2375 84.9776 217.9525 83.3666 218.5675C 82.5676 218.8745 81.6476 219.1745 80.6926 219.4955C 79.745605 219.8155 78.763596 220.1555 77.8816 220.6175C 77.5856 220.8295 77.278595 221.0235 76.9616 221.1905C 76.5036 221.5285 76.1006 221.9285 75.7906 222.4215C 75.6366 222.6675 75.5026 222.9395 75.4026 223.2345C 75.3056 223.5275 75.235596 223.8475 75.2026 224.1965C 75.097595 225.3315 75.4926 226.6495 76.275604 227.8965zM74.7956 202.5385C 74.5046 202.5285 74.2056 202.5495 73.898605 202.6095C 73.5916 202.6695 73.2826 202.7715 72.9636 202.9175C 71.9236 203.3935 70.9766 204.4025 70.2896 205.7145C 69.5966 207.0215 69.1686 208.6185 69.0246 210.1655C 68.9746 210.6405 68.9606 211.1265 68.9476 211.6195C 68.9376 213.1325 69.161606 214.7305 69.6606 216.1505C 70.1546 217.5705 70.9186 218.8025 71.844604 219.6195C 72.0766 219.8225 72.303604 219.9965 72.5346 220.1405C 72.7686 220.2835 72.9996 220.3995 73.2266 220.4905C 73.678604 220.6745 74.1286 220.7535 74.5596 220.7595C 75.4206 220.7715 76.2126 220.4865 76.956604 220.0695C 77.6986 219.6535 78.3956 219.10449 79.0506 218.5535C 79.706604 218.0005 80.3186 217.4465 80.885605 216.9645C 82.3976 215.6615 83.9536 214.4445 85.610596 213.5385C 86.1266 213.2535 86.6676 212.9865 87.206604 212.7615C 87.7496 212.5345 88.316605 212.3435 88.8896 212.1945C 88.8876 212.1875 88.8876 212.1795 88.8866 212.1715L88.8866 212.1715L88.8846 212.1455C 88.2656 212.2785 87.6716 212.4375 87.0756 212.6265C 86.7786 212.7215 86.4836 212.8235 86.1906 212.9325C 85.900604 213.0405 85.610596 213.1555 85.3226 213.2775C 84.7466 213.5225 84.1736 213.7925 83.6116 214.0775C 83.0486 214.3625 82.4796 214.6665 81.9126 214.9715C 81.3186 215.2905 80.6776 215.6595 80.010605 216.0325C 79.3406 216.4045 78.650604 216.7795 77.941605 217.0865C 76.523605 217.6945 74.9986 218.0505 73.4616 217.2785C 73.081604 217.0815 72.704605 216.7965 72.3806 216.4265C 72.2166 216.2425 72.0576 216.0395 71.9086 215.8195C 71.7666 215.5975 71.6316 215.3595 71.5066 215.1075C 71.015594 214.0995 70.734604 212.8575 70.7286 211.6195C 70.734604 210.6355 70.885605 209.6485 71.2136 208.7815C 71.5276 207.9145 72.000595 207.1735 72.554596 206.6495C 73.2436 206.0045 73.982605 205.6935 74.7216 205.5995C 75.4586 205.5045 76.1846 205.6215 76.8946 205.8415C 77.6046 206.0625 78.2876 206.3805 78.9436 206.7145C 79.6006 207.0485 80.2236 207.3975 80.7876 207.7005C 81.194595 207.9185 81.6016 208.1375 82.0066 208.3555C 82.416595 208.5715 82.8246 208.7845 83.234604 208.9895C 83.6446 209.1945 84.0496 209.3915 84.4636 209.5795C 84.8786 209.7695 85.2946 209.9465 85.7106 210.1125C 86.2236 210.3185 86.7486 210.5115 87.276596 210.6785C 87.8026 210.8465 88.332596 210.9875 88.8836 211.1065L88.8836 211.1065L88.8876 211.0565C 88.401596 210.9315 87.928604 210.7785 87.4606 210.5955C 86.997604 210.4145 86.5496 210.2075 86.0976 209.9815C 84.638596 209.2475 83.2546 208.2755 81.913605 207.1835C 81.2546 206.6475 80.5246 205.9935 79.776596 205.3295C 79.026596 204.6675 78.2406 203.9855 77.400604 203.4515C 77.069595 203.2995 76.7496 203.1305 76.4466 202.9395C 75.9246 202.7105 75.3776 202.5615 74.7956 202.5385zM91.9896 193.3825C 91.9266 192.8165 91.7826 192.2655 91.5126 191.7465C 91.2416 191.2355 90.844604 190.7585 90.2746 190.3485C 89.3456 189.6915 88.0036 189.3735 86.5226 189.4295C 85.0426 189.47949 83.4436 189.9065 82.0226 190.5595C 81.8056 190.6595 81.5856 190.7655 81.3666 190.8745C 81.148605 190.9855 80.9336 191.1085 80.7166 191.2305C 79.3876 191.9855 78.120605 192.9815 77.148605 194.1185C 76.1726 195.2535 75.4946 196.5215 75.250595 197.7275C 75.1926 198.0275 75.1576 198.3135 75.1476 198.5835C 75.138596 198.85449 75.1556 199.1125 75.1906 199.3555C 75.2256 199.5975 75.2796 199.8245 75.3516 200.0375C 75.4256 200.2525 75.5176 200.4545 75.6216 200.6425C 76.0426 201.3955 76.6856 201.9415 77.416595 202.3775C 78.1496 202.8135 78.9706 203.1435 79.7746 203.4365C 80.176605 203.5825 80.5746 203.7195 80.9586 203.8505C 81.3436 203.9845 81.7156 204.1125 82.0676 204.2355C 83.0066 204.5665 83.9426 204.9185 84.8306 205.3035C 85.2816 205.5005 85.7216 205.7055 86.1466 205.9215C 86.5726 206.1375 86.9956 206.3715 87.3976 206.6125C 87.9066 206.9185 88.4056 207.2485 88.872604 207.6015C 89.3486 207.9635 89.7866 208.3435 90.2116 208.7735L90.2116 208.7735L90.2306 208.7595L90.2306 208.7595L90.2516 208.7425C 89.8286 208.2785 89.3846 207.8335 88.9256 207.4195C 88.4666 207.0045 87.9776 206.6025 87.4816 206.2315C 86.9836 205.8585 86.4586 205.4945 85.9306 205.1525C 85.401596 204.8075 84.8566 204.4705 84.3066 204.1295C 83.7306 203.7725 83.0936 203.4035 82.4376 203.0125C 81.7816 202.6195 81.109604 202.2065 80.4886 201.7445C 79.8686 201.2815 79.2966 200.7655 78.862595 200.1515C 78.6466 199.8445 78.4636 199.5115 78.3276 199.1485C 78.260605 198.9665 78.2026 198.7765 78.1606 198.5775C 78.1196 198.3825 78.0936 198.1785 78.081604 197.9655C 78.069595 197.7505 78.079605 197.5275 78.109604 197.2995C 78.1426 197.0715 78.1986 196.8425 78.2746 196.6075C 78.4206 196.1335 78.6646 195.6625 78.9716 195.1925C 79.5956 194.2645 80.528595 193.3985 81.607605 192.77051L81.607605 192.77051L83.1526 195.4425L83.1526 195.4425L83.0836 195.3785C 83.3126 196.3115 83.4216 197.3025 83.4626 198.2835C 83.6486 198.3375 83.8566 198.3385 84.0616 198.2935C 84.163605 198.2715 84.2666 198.2365 84.3666 198.1945C 84.4686 198.1555 84.5676 198.1085 84.6626 198.0525L84.6626 198.0525L85.0206 198.6695C 84.7836 198.8025 84.5366 198.9155 84.276596 198.9865C 84.0156 199.0545 83.7536 199.0965 83.4876 199.0825C 83.4906 199.4845 83.4916 199.8935 83.4836 200.2945C 84.1836 200.2795 84.9266 200.0275 85.582596 199.6415C 85.9026 199.4465 86.2116 199.2345 86.4786 198.9815C 86.7496 198.7395 86.9806 198.4565 87.1566 198.1635C 86.8016 197.9665 86.4496 197.7725 86.1016 197.5665C 86.0426 197.6805 85.9736 197.7885 85.8956 197.8915C 85.8186 197.9965 85.734604 198.0965 85.6426 198.1895C 85.5496 198.2815 85.4496 198.3665 85.3456 198.4445C 85.2426 198.5275 85.1336 198.6025 85.0206 198.6695L85.0206 198.6695L84.6626 198.0515C 85.025604 197.8295 85.3346 197.5165 85.4196 197.1495C 85.0176 196.8965 84.6206 196.6275 84.2376 196.3415C 83.859604 196.0605 83.4946 195.7625 83.1526 195.4425L83.1526 195.4425L81.607605 192.77051C 82.4626 192.2645 83.4106 191.9205 84.3206 191.7605C 84.7786 191.6865 85.2226 191.6465 85.650604 191.6685C 85.8616 191.6775 86.0676 191.6955 86.2676 191.7265C 86.4666 191.7585 86.6586 191.8045 86.8426 191.8605C 88.651596 192.4165 89.3826 193.7845 89.706604 195.2195C 89.8696 195.9425 89.9366 196.6975 89.9736 197.4315C 90.010605 198.1645 90.0206 198.8765 90.0376 199.5155C 90.0656 200.4445 90.0896 201.3705 90.1416 202.2785C 90.1936 203.1945 90.276596 204.1015 90.4036 204.9865C 90.484604 205.5405 90.5776 206.0865 90.6946 206.6235C 90.8136 207.1645 90.957596 207.7035 91.1296 208.2325L91.1296 208.2325L91.1746 208.2145C 91.1066 207.9715 91.0456 207.7255 90.9926 207.4805C 90.941605 207.2375 90.8976 206.9935 90.859604 206.7475C 90.8226 206.5025 90.791595 206.2515 90.7676 206.0045C 90.7436 205.7585 90.7266 205.5105 90.7116 205.2605C 90.6186 203.6275 90.7716 201.9375 91.0486 200.2385C 91.1836 199.3875 91.385605 198.4445 91.5866 197.4595C 91.7846 196.4685 91.9826 195.4625 92.0236 194.4655C 91.9886 194.1025 91.9756 193.7405 91.9896 193.3825zM82.564606 197.8895C 82.390594 196.4415 82.0406 195.0365 81.2526 193.8455C 81.0996 193.9565 80.9496 194.0725 80.8056 194.1925C 80.6626 194.3135 80.528595 194.4425 80.400604 194.5715C 80.2716 194.7025 80.148605 194.8345 80.0326 194.9705C 79.9216 195.1105 79.816605 195.2505 79.719604 195.3935C 79.6216 195.53549 79.5326 195.6785 79.4526 195.8235C 79.375595 195.9715 79.3076 196.1185 79.247604 196.2665C 79.1296 196.5625 79.0466 196.8535 79.0146 197.1485C 78.969604 197.5295 78.9906 197.8835 79.0636 198.2125C 79.138596 198.5445 79.2626 198.8515 79.416595 199.1355C 79.7276 199.7035 80.161606 200.1845 80.6016 200.6065C 81.2406 201.2185 81.9536 201.7515 82.6776 202.2625C 82.7246 200.8265 82.732605 199.3385 82.564606 197.8895zM92.1446 198.2825C 92.0696 198.5975 91.9946 198.91049 91.9196 199.2255L91.9196 199.2255L92.4806 199.2105L92.4806 199.2105L93.0406 199.2245C 92.859604 198.4885 92.6646 197.7025 92.4666 196.9015C 92.359604 197.3785 92.2496 197.8425 92.1446 198.2825zM108.7236 195.3445C 107.9456 194.0955 106.7856 192.9315 105.5146 192.0265C 105.122604 191.7525 104.7166 191.4765 104.2836 191.2305C 102.9666 190.4545 101.4646 189.8505 99.984604 189.5725C 98.5046 189.2915 97.0596 189.3375 95.8906 189.72949C 95.3086 189.9345 94.8336 190.1855 94.4496 190.4945C 94.066605 190.8025 93.7746 191.14551 93.554596 191.5125C 93.1166 192.2575 92.9666 193.0895 92.9556 193.9415C 92.9446 194.7925 93.0706 195.6665 93.2206 196.5065C 93.3706 197.3495 93.5436 198.1685 93.678604 198.8915C 94.0506 200.8615 94.331604 202.8045 94.2896 204.6935C 94.2686 205.8945 94.1406 207.0525 93.8156 208.2105L93.8156 208.2105L93.8366 208.2195L93.8366 208.2195L93.860596 208.2285C 94.247604 207.0305 94.5076 205.8205 94.6596 204.5745C 94.734604 203.9575 94.7846 203.3295 94.8196 202.6935C 94.8546 202.0625 94.872604 201.4255 94.8916 200.7785C 94.9126 200.0975 94.9126 199.3615 94.9226 198.5995C 94.9336 197.8365 94.9526 197.0495 95.041595 196.2795C 95.1306 195.5105 95.2906 194.7595 95.6056 194.0735C 95.9206 193.3895 96.3936 192.7675 97.109604 192.3015C 97.8306 191.8255 98.8436 191.6155 99.9686 191.6915C 101.0926 191.7635 102.3106 192.1505 103.3926 192.77051L103.3926 192.77051L101.8466 195.4425L101.8466 195.4425L101.8666 195.3505C 101.5186 195.6855 101.1456 195.9945 100.7536 196.2885C 100.3606 196.5865 99.9516 196.8645 99.5366 197.1265C 99.6256 197.5095 99.956604 197.8305 100.3366 198.0525L100.3366 198.0525L100.3366 198.0515C 100.429596 198.10449 100.525604 198.1485 100.6256 198.1845C 100.7236 198.2215 100.8206 198.2525 100.9206 198.2725C 101.1186 198.3125 101.3176 198.3115 101.4966 198.2555C 101.5146 197.7815 101.5496 197.3055 101.6076 196.8325C 101.6646 196.3585 101.7386 195.8995 101.8466 195.4425L101.8466 195.4425L103.3926 192.77051C 103.8266 193.0115 104.2296 193.3055 104.6086 193.6105C 104.7946 193.7665 104.9716 193.9315 105.1406 194.0975C 105.3116 194.2635 105.4696 194.4365 105.6146 194.6155C 105.7606 194.7935 105.8976 194.9745 106.0226 195.1555C 106.1456 195.3405 106.2546 195.5285 106.3536 195.7155C 106.553604 196.0865 106.6926 196.4695 106.7796 196.8405C 106.8916 197.2925 106.9106 197.7275 106.8766 198.1245C 106.8446 198.5215 106.7446 198.8915 106.6006 199.2345C 106.3126 199.9195 105.8466 200.4905 105.303604 200.9945C 104.7596 201.4975 104.1386 201.9345 103.5226 202.3355C 102.9056 202.7365 102.2936 203.1025 101.7486 203.4395C 100.1716 204.4085 98.6036 205.3795 97.1946 206.4895C 96.3136 207.1805 95.4906 207.9035 94.7396 208.7365L94.7396 208.7365L94.7786 208.7665C 95.4886 208.0435 96.2726 207.4405 97.1136 206.8955C 98.4826 206.0025 100.0226 205.2875 101.6336 204.6735C 102.4326 204.3655 103.3536 204.0665 104.3076 203.7445C 105.2546 203.4255 106.2366 203.0845 107.1176 202.6225C 107.4146 202.4105 107.7206 202.2175 108.0376 202.0505C 108.4966 201.7125 108.8996 201.3125 109.2086 200.8185C 109.3626 200.5715 109.4966 200.3005 109.5966 200.0065C 109.6946 199.7125 109.7636 199.3935 109.7976 199.0435C 109.9016 197.9085 109.5066 196.5915 108.7236 195.3445zM102.2936 202.2335C 102.7336 201.9195 103.1686 201.5995 103.5866 201.2565C 104.0846 200.8495 104.5896 200.4055 105.0106 199.8935C 105.429596 199.3795 105.7696 198.7905 105.9066 198.0875C 105.9686 197.7585 105.9636 197.4035 105.8966 197.0335C 105.8266 196.6655 105.6876 196.2905 105.4956 195.9085C 105.0996 195.1635 104.4706 194.4155 103.6826 193.8295C 103.2936 194.4245 103.0126 195.0765 102.8086 195.7575C 102.706604 196.0975 102.6246 196.4435 102.5566 196.7965C 102.4866 197.1525 102.4336 197.5105 102.3936 197.8715C 102.2316 199.3175 102.2426 200.8005 102.2936 202.2335zM115.3386 207.0905C 114.8446 205.6695 114.081604 204.4385 113.1546 203.6205C 112.9236 203.4175 112.6956 203.2435 112.4646 203.0995C 112.2316 202.9565 112.0006 202.8405 111.7736 202.7495C 111.3216 202.5665 110.8706 202.4865 110.4416 202.4805C 109.5786 202.4695 108.7866 202.7535 108.0426 203.1705C 107.3016 203.5875 106.6056 204.1355 105.9486 204.6875C 105.2936 205.2395 104.6816 205.7935 104.1136 206.2765C 102.6036 207.5785 101.0466 208.7965 99.3896 209.7015C 98.872604 209.9865 98.332596 210.2545 97.7936 210.47949C 97.2506 210.7055 96.6836 210.8975 96.109604 211.0455C 96.1126 211.0535 96.1126 211.0615 96.1126 211.0685L96.1126 211.0685L96.1156 211.0955C 96.734604 210.9615 97.3286 210.8035 97.9246 210.6135C 98.2206 210.5195 98.5176 210.4165 98.8106 210.3085C 99.1006 210.1995 99.3896 210.0845 99.6766 209.9625C 100.2536 209.7185 100.8266 209.4475 101.3876 209.1625C 101.9506 208.8775 102.5206 208.5725 103.0866 208.2685C 103.6816 207.9485 104.3226 207.5805 104.9896 207.2075C 105.6596 206.8345 106.3496 206.4595 107.0586 206.1535C 108.4766 205.5455 110.0006 205.1905 111.5386 205.9615C 111.9176 206.1585 112.2946 206.4445 112.6186 206.8145C 112.7826 206.9975 112.9426 207.2005 113.0906 207.4215C 113.234604 207.6425 113.3676 207.8805 113.4926 208.1335C 113.984604 209.1415 114.2656 210.3835 114.2726 211.6195C 114.2656 212.6055 114.1136 213.5925 113.7856 214.4585C 113.4716 215.3255 112.9996 216.0675 112.4456 216.5915C 111.7566 217.2365 111.0176 217.5475 110.2776 217.6415C 109.5416 217.7365 108.8166 217.6185 108.1056 217.3995C 107.3966 217.1785 106.7126 216.8605 106.0556 216.5265C 105.400604 216.1925 104.776596 215.8435 104.2116 215.5395C 103.8056 215.3215 103.3996 215.1035 102.9926 214.8855C 102.5836 214.6685 102.1746 214.4555 101.7666 214.2505C 101.3566 214.0455 100.9506 213.8485 100.5356 213.6595C 100.1206 213.4715 99.7056 213.2935 99.2896 213.1275C 98.776596 212.9225 98.2516 212.72949 97.7246 212.5625C 97.1976 212.3945 96.666595 212.2525 96.1166 212.1345L96.1166 212.1345L96.1116 212.1835C 96.5996 212.3095 97.0716 212.4625 97.5396 212.6445C 98.0016 212.8245 98.4496 213.0315 98.9026 213.2595C 100.3606 213.9925 101.7446 214.9655 103.0866 216.0575C 103.7456 216.5925 104.4756 217.2455 105.2236 217.91049C 105.9736 218.5725 106.7586 219.2555 107.5996 219.7885C 107.9306 219.9405 108.2506 220.1105 108.553604 220.3015C 109.0746 220.5295 109.6226 220.6795 110.2036 220.7015C 110.4946 220.7125 110.7946 220.6915 111.1026 220.6315C 111.4076 220.5705 111.7176 220.4695 112.0366 220.3225C 113.0766 219.8465 114.0236 218.8385 114.7096 217.5265C 115.4036 216.2185 115.8316 214.6215 115.9766 213.0735C 116.0256 212.6005 116.0396 212.1135 116.0526 211.6195C 116.0626 210.1085 115.8376 208.5095 115.3386 207.0905z" stroke="#E7BC9E" stroke-width="0.34" fill="none" />
    <path id=""  transform="matrix(1 0 0 -1 0 316)"  d="M93.1466 212.4429C 93.1066 212.48091 93.0596 212.5079 93.0146 212.53291C 92.9466 212.5699 92.8816 212.6029 92.8136 212.6239C 92.7436 212.6419 92.6736 212.6559 92.5886 212.6629C 92.5016 212.6689 92.402596 212.66591 92.3286 212.6559C 92.2526 212.64491 92.1866 212.62291 92.1186 212.59691C 92.0946 212.59491 92.0756 212.5739 92.0506 212.5709C 92.0306 212.5529 92.0046 212.5509 91.985596 212.53291C 91.8476 212.4619 91.721596 212.33191 91.6276 212.20291C 91.5386 212.06491 91.4886 211.9389 91.4636 211.7899C 91.457596 211.7389 91.457596 211.6819 91.4506 211.6199C 91.4566 211.4299 91.4896 211.3099 91.5496 211.1709C 91.6206 211.0419 91.7186 210.8939 91.8546 210.7969C 91.8946 210.7599 91.9416 210.73291 91.985596 210.7079C 92.0526 210.6699 92.1176 210.6369 92.1866 210.6159C 92.2566 210.59691 92.3266 210.5849 92.4106 210.57791C 92.4976 210.5709 92.5976 210.5749 92.6706 210.58391C 92.7476 210.59491 92.8136 210.6179 92.8816 210.6429C 92.9056 210.6459 92.9246 210.6669 92.9496 210.6699C 92.9686 210.6869 92.9946 210.68991 93.0146 210.7079C 93.152596 210.7789 93.277596 210.9089 93.3726 211.0379C 93.4606 211.1759 93.5116 211.30191 93.5356 211.45091C 93.5426 211.5019 93.541595 211.5579 93.5496 211.6199C 93.5426 211.8099 93.5096 211.92891 93.4506 212.0699C 93.3796 212.1979 93.2816 212.3459 93.1466 212.4429zM92.7986 211.4909C 92.7876 211.4559 92.749596 211.4089 92.7056 211.37291C 92.6886 211.3569 92.6686 211.3439 92.652596 211.33391C 92.6116 211.3139 92.5976 211.3009 92.5436 211.2989C 92.5176 211.2969 92.4666 211.29791 92.4456 211.30191C 92.4226 211.30391 92.4076 211.3079 92.3926 211.31291C 92.3786 211.3179 92.3636 211.3239 92.3476 211.33391C 92.3286 211.34491 92.3056 211.3589 92.2836 211.3779C 92.263596 211.3979 92.2456 211.4209 92.2316 211.4409C 92.1986 211.48491 92.1876 211.51091 92.1836 211.5469C 92.1806 211.56291 92.1766 211.5849 92.1746 211.6199C 92.1786 211.70091 92.1886 211.7119 92.2016 211.7489C 92.2116 211.78491 92.2506 211.83191 92.2936 211.8679C 92.3126 211.88391 92.3306 211.89691 92.3476 211.9059C 92.3896 211.92691 92.402596 211.93991 92.4556 211.94191C 92.4826 211.94391 92.5326 211.9429 92.5536 211.9389C 92.5776 211.93591 92.5916 211.9319 92.6086 211.9279C 92.6206 211.92291 92.6356 211.91591 92.652596 211.9059C 92.6716 211.89491 92.6946 211.88191 92.7166 211.8629C 92.7366 211.84291 92.7546 211.8199 92.7696 211.7989C 92.8006 211.7559 92.8136 211.7299 92.8166 211.6929C 92.8196 211.6779 92.8226 211.6559 92.8256 211.6199C 92.8216 211.53891 92.8126 211.52791 92.7986 211.4909z" stroke="#E7BC9E" stroke-width="0.34" fill="none" />
		</g>
	</g>
</g>
</svg>