<?xml version="1.0" standalone="no"?>
<!DOCTYPE svg PUBLIC "-//W3C//DTD SVG 1.0//EN" "http://www.w3.org/TR/2001/REC-SVG-20010904/DTD/svg10.dtd">
<svg xmlns="http://www.w3.org/2000/svg" xmlns:xlink="http://www.w3.org/1999/xlink" id="body_14" width="247" height="421">

<defs>
    <clipPath  id="1">

    <path id=""  clip-rule="evenodd" transform="matrix(1 0 0 1 0 0)"  d="M0 316L0 0L0 0L185 0L185 0L185 316L185 316L0 316z" />    </clipPath>
    <clipPath  id="2">

    <path id=""  clip-rule="evenodd" transform="matrix(1 0 0 1 0 0)"  d="M0 0L185 0L185 0L185 316L185 316L0 316z" />    </clipPath>
</defs>

<g transform="matrix(1.3333 0 0 1.3333 0 0)">
	<g clip-path="url(#1)" >
    <path id=""  transform="matrix(1 0 0 -1 0 316)"  d="M79.1404 198.2604L79.1404 198.2604z" stroke="#E7BC9E" stroke-width="0.425" fill="none" />
		<g clip-path="url(#2)" >
    <path id=""  transform="matrix(1 0 0 -1 0 316)"  d="M116.745705 211.93849C 116.688705 212.43549 116.5847 212.9065 116.4077 213.32649C 116.2377 213.74649 116.024704 214.11249 115.7617 214.4045C 115.5027 214.69649 115.2127 214.91449 114.9007 215.0425C 114.5857 215.17049 114.2487 215.2085 113.9037 215.15149C 113.409706 215.06749 112.9857 214.78949 112.6287 214.4045C 112.2757 214.0205 112.009705 213.5315 111.828705 212.9935C 110.9487 213.97249 109.9867 214.8165 108.981705 215.5125C 107.9787 216.2085 106.9467 216.76349 105.8917 217.16649C 106.798706 219.2195 107.2767 221.68149 107.1407 224.31349C 108.0987 223.8315 109.1977 223.6975 110.0147 224.18849C 110.632706 224.56349 110.9507 225.22449 110.9187 226.0125C 110.9067 226.4075 110.814705 226.8385 110.634705 227.26549C 110.5447 227.47949 110.439705 227.69849 110.312706 227.9115C 110.1837 228.12149 110.035706 228.3315 109.8727 228.53448C 109.8207 228.6175 109.7547 228.70149 109.6657 228.78549C 109.5827 228.87349 109.5007 228.93849 109.4187 228.98949C 109.0277 229.3055 108.6157 229.5625 108.1947 229.7345C 107.9867 229.8225 107.7807 229.8965 107.576706 229.9475C 107.370705 229.99649 107.1697 230.02649 106.9757 230.03949C 106.2007 230.09349 105.537704 229.8205 105.135704 229.25049C 104.8447 228.84149 104.7407 228.34549 104.7627 227.8245C 104.7817 227.2985 104.9427 226.7715 105.1937 226.2605C 102.56171 226.39749 100.0997 225.91849 98.0457 225.01149C 97.64371 226.06749 97.0887 227.0985 96.3927 228.1025C 95.6967 229.10649 94.8537 230.06749 93.8747 230.9475C 94.1317 231.0275 94.3767 231.14249 94.6037 231.2665C 94.8317 231.38849 95.0417 231.5335 95.2287 231.69849C 95.6037 232.0325 95.884705 232.4325 95.995705 232.8945C 96.0807 233.2475 96.063705 233.59349 95.952705 233.92249C 95.8407 234.2475 95.632706 234.5495 95.343704 234.82149C 95.0557 235.0985 94.6857 235.32849 94.25571 235.5055C 93.826706 235.69249 93.33971 235.8075 92.8227 235.86449C 92.7287 235.88649 92.621704 235.89949 92.4997 235.8965C 92.38071 235.89949 92.2757 235.8875 92.1827 235.8655C 91.6857 235.8095 91.2137 235.7045 90.7937 235.5275C 90.3737 235.35849 90.0067 235.1455 89.7157 234.8815C 89.423706 234.6225 89.2057 234.33249 89.077705 234.0215C 88.94971 233.70549 88.910706 233.3685 88.9697 233.02449C 89.052704 232.5295 89.3307 232.10649 89.71471 231.74849C 90.1007 231.3965 90.5877 231.12949 91.1257 230.94849C 90.147705 230.0685 89.3047 229.1075 88.607704 228.10349C 87.911705 227.0985 87.356705 226.06749 86.953705 225.01149C 84.9007 225.91849 82.438705 226.39749 79.8077 226.2605C 80.287704 227.21849 80.42171 228.31749 79.9327 229.13449C 79.5567 229.75249 78.895706 230.0705 78.107704 230.0385C 77.7117 230.02649 77.28171 229.93549 76.854706 229.75449C 76.6407 229.66449 76.4207 229.5615 76.2087 229.43349C 75.9977 229.3035 75.788704 229.15549 75.5847 228.9925C 75.5027 228.9415 75.4187 228.8745 75.3347 228.78549C 75.246704 228.7025 75.1817 228.6205 75.1297 228.53949C 74.8147 228.14949 74.5587 227.73549 74.385704 227.31549C 74.2977 227.1075 74.2247 226.90149 74.1727 226.6975C 74.1237 226.4905 74.093704 226.28949 74.0807 226.09549C 74.0257 225.3205 74.2997 224.6585 74.8687 224.2555C 75.2787 223.9645 75.774704 223.86049 76.2957 223.88249C 76.8217 223.90149 77.3497 224.06349 77.8597 224.31549C 77.7237 221.6825 78.201706 219.22049 79.107704 217.16649C 78.0537 216.76349 77.0217 216.2085 76.01871 215.5125C 75.0137 214.81749 74.052704 213.9735 73.1727 212.99449C 73.091705 213.2515 72.97771 213.49649 72.8537 213.72449C 72.731705 213.95149 72.5867 214.1615 72.4207 214.34949C 72.0867 214.72449 71.68671 215.00449 71.2267 215.1155C 70.8727 215.2005 70.5257 215.1845 70.1967 215.0725C 69.8727 214.9605 69.5697 214.75249 69.298706 214.4635C 69.020706 214.17549 68.7917 213.8055 68.6137 213.37549C 68.427704 212.94649 68.3127 212.45949 68.2547 211.94249C 68.232704 211.8485 68.2207 211.74149 68.2247 211.61949C 68.2207 211.50049 68.232704 211.3965 68.2547 211.30249C 68.3107 210.8055 68.4147 210.3335 68.5927 209.9135C 68.7627 209.4935 68.9747 209.1265 69.2387 208.8355C 69.4977 208.54349 69.787704 208.3255 70.0987 208.1975C 70.4147 208.06949 70.7507 208.0315 71.0967 208.0895C 71.5907 208.1725 72.0147 208.4505 72.371704 208.8355C 72.7237 209.22049 72.99071 209.70749 73.17171 210.24649C 74.051704 209.2685 75.0137 208.4245 76.0177 207.7285C 77.020706 207.0315 78.0537 206.4775 79.107704 206.07349C 78.201706 204.0215 77.7237 201.5595 77.8597 198.92749C 76.9017 199.4085 75.802704 199.54149 74.9857 199.05249C 74.36771 198.6765 74.0497 198.0165 74.0807 197.22849C 74.0927 196.8315 74.1857 196.40149 74.36571 195.9755C 74.454704 195.7605 74.55971 195.5405 74.68671 195.32849C 74.8167 195.1175 74.96471 194.9085 75.1267 194.70549C 75.1797 194.6225 75.2457 194.5385 75.3347 194.4545C 75.4167 194.36649 75.4997 194.3015 75.5807 194.25049C 75.9717 193.93549 76.384705 193.6785 76.8047 193.5055C 77.0137 193.4175 77.2197 193.3445 77.4227 193.2925C 77.62871 193.2435 77.8307 193.2135 78.024704 193.2005C 78.7997 193.1465 79.4617 193.4195 79.8647 193.9885C 80.1557 194.39949 80.259705 194.8955 80.2367 195.4155C 80.218704 195.94249 80.0577 196.4695 79.8057 196.9805C 82.4377 196.84349 84.899704 197.32149 86.953705 198.22849C 87.356705 197.1735 87.911705 196.14249 88.606705 195.13849C 89.3037 194.1335 90.1467 193.17249 91.1247 192.2925C 90.8687 192.21149 90.6237 192.0985 90.395706 191.97449C 90.1687 191.8525 89.9577 191.7065 89.770706 191.54149C 89.395706 191.2065 89.11571 190.8075 89.0047 190.3465C 88.9187 189.9925 88.93671 189.64749 89.0477 189.3185C 89.1597 188.9925 89.36771 188.69049 89.6567 188.41849C 89.9447 188.1415 90.314705 187.9115 90.7437 187.7345C 91.173706 187.54749 91.6597 187.43349 92.177704 187.37549C 92.2717 187.35349 92.3777 187.34149 92.4997 187.3445C 92.619705 187.34149 92.7247 187.35349 92.8177 187.3745C 93.314705 187.4305 93.786705 187.53549 94.2067 187.7125C 94.6267 187.88249 94.99271 188.0945 95.2847 188.3595C 95.576706 188.6175 95.7947 188.9075 95.9227 189.2195C 96.050705 189.53448 96.0887 189.8705 96.0307 190.21649C 95.9467 190.7105 95.6687 191.13449 95.2847 191.49149C 94.899704 191.84349 94.411705 192.11049 93.8737 192.29149C 94.85271 193.1715 95.6957 194.1335 96.3927 195.1375C 97.0887 196.1415 97.64371 197.1735 98.0457 198.22849C 100.0997 197.32149 102.56171 196.84349 105.1927 196.9805C 104.7117 196.02249 104.577705 194.92249 105.0677 194.10649C 105.4427 193.48749 106.1037 193.1695 106.8927 193.20149C 107.287704 193.2135 107.718704 193.3055 108.145706 193.48549C 108.3587 193.5745 108.578705 193.67949 108.7917 193.8075C 109.0017 193.9375 109.2107 194.08449 109.4147 194.24649C 109.4977 194.2995 109.5817 194.3655 109.6657 194.4545C 109.7527 194.5365 109.8177 194.61949 109.869705 194.7005C 110.1857 195.09149 110.4417 195.50449 110.6147 195.9245C 110.702705 196.1335 110.774704 196.3395 110.827705 196.5425C 110.8757 196.7495 110.9067 196.9505 110.9187 197.1455C 110.9737 197.9195 110.7007 198.5815 110.1307 198.9845C 109.7217 199.27649 109.2247 199.37949 108.703705 199.3575C 108.1787 199.3385 107.649704 199.17749 107.1397 198.92549C 107.2767 201.55849 106.798706 204.0205 105.8917 206.07349C 106.9457 206.4775 107.9787 207.0315 108.981705 207.7285C 109.9857 208.4235 110.9477 209.26749 111.827705 210.24449C 111.9077 209.9885 112.021706 209.7435 112.145706 209.5165C 112.2687 209.2885 112.413704 209.0775 112.578705 208.8915C 112.912704 208.5165 113.3117 208.23549 113.773705 208.1245C 114.1277 208.03949 114.4737 208.05649 114.802704 208.1675C 115.1277 208.2795 115.4297 208.48749 115.701706 208.77649C 115.97871 209.06549 116.2077 209.43549 116.385704 209.86449C 116.5727 210.29349 116.6867 210.78049 116.744705 211.2975C 116.7667 211.39249 116.7787 211.4975 116.774704 211.61949C 116.7787 211.73949 116.7667 211.8445 116.745705 211.93849zM106.3867 228.2195C 106.6157 228.48949 106.9707 228.6575 107.4077 228.64749C 107.8487 228.64249 108.3537 228.43549 108.8667 227.9865C 109.31171 227.4765 109.5197 226.9735 109.522705 226.5325C 109.53371 226.0965 109.3657 225.7405 109.0967 225.5105C 108.826706 225.2795 108.4567 225.1735 108.06171 225.2305C 107.6687 225.2925 107.231705 225.4995 106.813705 225.9345C 106.3797 226.3525 106.1727 226.7885 106.1087 227.1825C 106.051704 227.57849 106.1567 227.94849 106.3867 228.2195zM91.121704 232.2475C 90.800705 232.48549 90.6137 232.8225 90.5857 233.1765C 90.5567 233.52849 90.6877 233.9005 91.0047 234.2025C 91.3197 234.5125 91.8217 234.7175 92.4997 234.7665C 93.173706 234.7175 93.6747 234.51349 93.9887 234.2025C 94.3057 233.90149 94.4377 233.5295 94.4097 233.1765C 94.382706 232.8225 94.1967 232.4865 93.8767 232.2475C 93.5557 232.01749 93.1017 231.8485 92.4997 231.86249C 91.898705 231.8485 91.4437 232.01749 91.121704 232.2475zM76.9377 225.22949C 76.5417 225.1715 76.17171 225.2775 75.9007 225.5065C 75.63071 225.73549 75.4617 226.0905 75.4727 226.5275C 75.47771 226.96849 75.6857 227.47449 76.1337 227.9865C 76.64371 228.4325 77.1467 228.6395 77.58771 228.6445C 78.023705 228.65349 78.3797 228.48549 78.6097 228.21649C 78.83971 227.94649 78.9467 227.5775 78.8897 227.18149C 78.826706 226.7885 78.6207 226.3525 78.18671 225.9345C 77.76871 225.4995 77.3307 225.2925 76.9377 225.22949zM71.8727 210.24149C 71.6337 209.92049 71.2977 209.7345 70.9437 209.70549C 70.591705 209.6765 70.2207 209.80849 69.9177 210.1245C 69.607704 210.44049 69.4027 210.94249 69.3537 211.61949C 69.4027 212.2945 69.606705 212.7945 69.9167 213.1095C 70.2197 213.42549 70.5907 213.55849 70.9427 213.5295C 71.29671 213.50249 71.6337 213.31749 71.871704 212.9975C 72.1037 212.67549 72.2717 212.22249 72.257706 211.61949C 72.2717 211.0195 72.1037 210.5645 71.8727 210.24149zM93.8777 190.9925C 94.1987 190.7535 94.385704 190.4175 94.4147 190.0645C 94.4427 189.71149 94.31171 189.34048 93.994705 189.03749C 93.6807 188.72849 93.177704 188.5235 92.4997 188.47449C 91.8257 188.5235 91.3257 188.7275 91.010704 189.0365C 90.6947 189.3395 90.56171 189.7105 90.58971 190.0645C 90.61771 190.4175 90.802704 190.7535 91.1227 190.9925C 91.4437 191.2235 91.897705 191.39249 92.4997 191.37749C 93.1017 191.39249 93.5557 191.2235 93.8777 190.9925zM108.06171 198.0105C 108.4587 198.0685 108.828705 197.9625 109.0997 197.73349C 109.368706 197.50449 109.537704 197.14949 109.5267 196.7125C 109.521706 196.27249 109.314705 195.7665 108.8667 195.2535C 108.355705 194.8075 107.8527 194.60149 107.412704 194.5965C 106.9767 194.58649 106.619705 194.75449 106.3907 195.02449C 106.1597 195.29349 106.0537 195.66249 106.1097 196.0595C 106.1727 196.4505 106.3797 196.88849 106.813705 197.30649C 107.230705 197.7405 107.6687 197.94649 108.06171 198.0105zM104.9207 206.84149C 104.7787 206.78949 104.6977 206.7065 104.65871 206.60849L104.65871 206.60849L104.649704 206.5875L104.649704 206.5875L104.6447 206.5685C 104.607704 206.4695 104.5987 206.35649 104.662704 206.2195C 105.7057 203.9775 106.1787 201.2145 105.8587 198.2605C 102.9047 197.9415 100.1437 198.41449 97.9007 199.45749C 97.7647 199.5215 97.6507 199.5125 97.551704 199.47649L97.551704 199.47649L97.5297 199.46849L97.5297 199.46849L97.5127 199.46149C 97.4147 199.42249 97.3307 199.34149 97.2787 199.19849C 96.4357 196.87749 94.8127 194.59349 92.4997 192.7275C 90.18671 194.59349 88.564705 196.87749 87.7207 199.19849C 87.6697 199.3405 87.5857 199.42249 87.4877 199.4605L87.4877 199.4605L87.467705 199.4695L87.467705 199.4695L87.4487 199.47649C 87.3497 199.5125 87.2357 199.5215 87.0997 199.45749C 84.856705 198.41449 82.0947 197.9415 79.1407 198.2605L79.1407 198.2605L78.18671 197.30649C 78.619705 196.88849 78.826706 196.4505 78.8907 196.05849C 78.9487 195.6615 78.8427 195.29149 78.6127 195.0215C 78.384705 194.75049 78.0287 194.5815 77.5927 194.5925C 77.1517 194.59749 76.645706 194.8055 76.1337 195.2535C 75.68671 195.76349 75.4807 196.26749 75.4767 196.70749C 75.4657 197.1445 75.634705 197.4995 75.9037 197.7305C 76.173706 197.95949 76.5427 198.06749 76.938705 198.0105C 77.3307 197.94649 77.76871 197.7405 78.18671 197.30649L78.18671 197.30649L79.1407 198.2605C 78.8207 201.2145 79.29471 203.9775 80.33771 206.2195C 80.4007 206.3555 80.3927 206.4695 80.3557 206.56749L80.3557 206.56749L80.3487 206.5895L80.3487 206.5895L80.341705 206.6075C 80.302704 206.70549 80.2217 206.78949 80.078705 206.84149C 77.757706 207.68549 75.4737 209.3075 73.606705 211.61949C 75.4737 213.93349 77.757706 215.5555 80.078705 216.39949C 80.2207 216.4505 80.301704 216.5335 80.3407 216.63249L80.3407 216.63249L80.3497 216.6525L80.3497 216.6525L80.3557 216.6715C 80.3927 216.7715 80.4007 216.88449 80.33771 217.0215C 79.29471 219.26349 78.8207 222.02649 79.1407 224.9805C 82.0947 225.2995 84.856705 224.8255 87.0997 223.7825C 87.2347 223.7195 87.3497 223.72849 87.4477 223.7645L87.4477 223.7645L87.4697 223.7715L87.4697 223.7715L87.4867 223.77849C 87.5857 223.8185 87.6697 223.89949 87.7207 224.0405C 88.564705 226.36249 90.18671 228.64749 92.4997 230.51349C 94.8127 228.64749 96.4357 226.36249 97.2787 224.0405C 97.329704 223.9005 97.413704 223.8185 97.5127 223.77849L97.5127 223.77849L97.5327 223.7705L97.5327 223.7705L97.550705 223.7645C 97.649704 223.72849 97.7647 223.71849 97.9007 223.7825C 100.1437 224.8255 102.9047 225.2995 105.8587 224.9805C 106.1787 222.02649 105.7057 219.26349 104.662704 217.0215C 104.5987 216.8855 104.607704 216.7715 104.6437 216.6715L104.6437 216.6715L104.6507 216.65149L104.6507 216.65149L104.65871 216.63249C 104.6977 216.5345 104.7787 216.4505 104.9207 216.39949C 107.24271 215.5555 109.5267 213.93349 111.3937 211.61949C 109.5267 209.3075 107.24271 207.68549 104.9207 206.84149zM115.0827 210.1305C 114.7807 209.81549 114.409706 209.6825 114.0567 209.70949C 113.702705 209.73749 113.3667 209.9225 113.1277 210.2425C 112.896706 210.5645 112.7287 211.0185 112.74271 211.61949C 112.7287 212.2215 112.896706 212.67549 113.1277 212.99849C 113.3657 213.31949 113.702705 213.5065 114.0557 213.5345C 114.4087 213.5645 114.7797 213.4325 115.0817 213.1155C 115.3927 212.80049 115.5977 212.2985 115.645706 211.61949C 115.5977 210.9455 115.3937 210.4455 115.0827 210.1305z" stroke="#E7BC9E" stroke-width="0.425" fill="none" />
    <path id=""  transform="matrix(1 0 0 -1 0 316)"  d="M101.419 215.3116C 102.791 217.1506 103.667 219.5996 103.779 222.3416C 103.785995 222.49161 103.723 222.6356 103.621994 222.74161C 103.515 222.8436 103.371994 222.9056 103.221 222.8996C 100.478 222.7866 98.03 221.9106 96.190994 220.5386C 95.867 222.8166 94.757996 225.1576 92.894 227.1766C 92.793 227.2866 92.645996 227.3456 92.5 227.3496C 92.353 227.3456 92.208 227.2866 92.104996 227.1766C 90.243 225.1576 89.133995 222.8166 88.808 220.5386C 86.97 221.9106 84.520996 222.7866 81.779 222.8996C 81.629 222.9056 81.48399 222.8436 81.379 222.74161C 81.277 222.6366 81.215 222.49161 81.22 222.3416C 81.334 219.5996 82.21 217.1506 83.582 215.3116C 81.304 214.9866 78.963 213.8776 76.944 212.0156C 76.833 211.9126 76.774994 211.7676 76.770996 211.6196C 76.774994 211.4736 76.833 211.3276 76.944 211.2256C 78.963 209.3626 81.304 208.2536 83.582 207.9296C 82.21 206.0906 81.334 203.6416 81.22 200.8996C 81.215 200.7486 81.277 200.6046 81.379 200.4986C 81.48399 200.3976 81.629 200.3346 81.779 200.3416C 84.520996 200.4536 86.97 201.3296 88.808 202.7016C 89.133995 200.4246 90.243 198.0826 92.104996 196.0646C 92.207 195.9536 92.353 195.8956 92.5 195.8916C 92.645996 195.8956 92.793 195.9526 92.894 196.0646C 94.757996 198.0826 95.867 200.4246 96.190994 202.7016C 98.03 201.3296 100.478 200.4536 103.221 200.3416C 103.371994 200.3346 103.515 200.3976 103.621994 200.4986C 103.722 200.6046 103.785995 200.7486 103.779 200.8996C 103.667 203.6416 102.791 206.0906 101.419 207.9296C 103.696 208.2536 106.036995 209.3626 108.056 211.2256C 108.167 211.3276 108.224 211.4736 108.228 211.6196C 108.225 211.7666 108.167 211.9126 108.056 212.0156C 106.036995 213.8776 103.696 214.9866 101.419 215.3116zM100.365 208.5876C 100.207 208.5706 100.136 208.5116 100.129 208.4316C 100.118996 208.3526 100.164 208.25461 100.251 208.1586C 100.257996 208.1496 100.261 208.1416 100.269 208.1316C 101.627 206.3996 102.506996 204.0766 102.654 201.4666C 100.005 201.6156 97.651 202.5196 95.911995 203.9126C 95.669 204.1026 95.54 203.9516 95.528 203.6896C 95.526 203.6776 95.522995 203.6686 95.520996 203.6556C 95.261 201.4746 94.246994 199.2146 92.5 197.2616C 90.727 199.2426 89.71 201.5416 89.467995 203.7556C 89.45 203.9136 89.391 203.9836 89.311 203.9906C 89.231995 204.0006 89.134995 203.9566 89.039 203.8686C 89.029 203.8626 89.020996 203.8586 89.011 203.8516C 87.28 202.4936 84.957 201.6136 82.346 201.4666C 82.496 204.1146 83.399 206.4686 84.792 208.2086C 84.981995 208.4516 84.83099 208.5806 84.568 208.5926C 84.557 208.5946 84.548996 208.5976 84.535995 208.5996C 82.354 208.8596 80.093994 209.8736 78.14 211.6196C 80.123 213.3936 82.422 214.4106 84.636 214.6526C 84.794 214.6696 84.863 214.7296 84.870995 214.8096C 84.881 214.8886 84.837 214.9856 84.749 215.0816C 84.743 215.0906 84.739 215.0996 84.730995 215.1086C 83.373 216.8406 82.493996 219.1636 82.346 221.7746C 84.994995 221.6246 87.348 220.7216 89.089 219.3276C 89.332 219.1386 89.461 219.2886 89.472 219.5516C 89.474 219.5636 89.477 219.5716 89.478 219.5846C 89.739 221.7666 90.754 224.0256 92.5 225.9796C 94.272995 223.9976 95.291 221.6976 95.533 219.4846C 95.549995 219.3266 95.608 219.2566 95.688995 219.2486C 95.768 219.2386 95.866 219.2836 95.962 219.3706C 95.97 219.3776 95.979 219.3816 95.989 219.3896C 97.72 220.7466 100.044 221.6266 102.654 221.7746C 102.505 219.1246 101.601 216.7716 100.208 215.0316C 100.018 214.7886 100.169 214.6596 100.431 214.6486C 100.443 214.6466 100.451996 214.6436 100.465 214.6416C 102.645996 214.3806 104.906 213.36661 106.859 211.6196C 104.878 209.8476 102.577995 208.8296 100.365 208.5876z" stroke="#E7BC9E" stroke-width="0.425" fill="none" />
    <path id=""  transform="matrix(1 0 0 -1 0 316)"  d="M98.238 211.798C 99.387 212.531 100.39 213.71 101.03 215.212C 101.065 215.294 101.06 215.386 101.027 215.46701C 100.989 215.546 100.922 215.61101 100.837 215.639C 99.288 216.153 97.741 216.181 96.429 215.804C 96.728 217.14001 96.603 218.675 95.992 220.19101C 95.959 220.274 95.889 220.337 95.809 220.37001C 95.727 220.39801 95.633 220.397 95.553 220.35701C 94.092 219.626 92.982 218.556 92.323 217.358C 91.589 218.50801 90.410995 219.51001 88.909 220.15001C 88.826996 220.18501 88.733 220.18001 88.653 220.147C 88.575 220.10901 88.509 220.043 88.481 219.95801C 87.966 218.408 87.938995 216.86101 88.315 215.55C 86.979996 215.848 85.444 215.72401 83.929 215.113C 83.846 215.07901 83.784 215.01001 83.751 214.929C 83.721 214.847 83.723 214.75401 83.763 214.67401C 84.495 213.21301 85.563 212.10301 86.762 211.44301C 85.612 210.709 84.61 209.531 83.97 208.029C 83.935 207.947 83.938995 207.85301 83.973 207.77301C 84.011 207.695 84.078 207.63 84.163 207.60101C 85.713 207.08801 87.257996 207.059 88.57 207.43501C 88.270996 206.1 88.395996 204.56401 89.007996 203.05C 89.041 202.96701 89.11 202.904 89.191 202.871C 89.273 202.84201 89.367 202.843 89.447 202.88301C 90.908 203.615 92.017 204.68301 92.677 205.88301C 93.411 204.73201 94.59 203.73001 96.090996 203.091C 96.173996 203.05501 96.266 203.059 96.347 203.093C 96.425 203.132 96.491 203.19801 96.519 203.283C 97.033 204.83301 97.061 206.38 96.684 207.69C 98.02 207.39201 99.555 207.516 101.07 208.128C 101.154 208.16101 101.216 208.23001 101.25 208.311C 101.278 208.393 101.277 208.487 101.237 208.567C 100.506 210.028 99.436 211.13701 98.238 211.798zM96.237 208.279C 96.145 208.302 96.094 208.28401 96.073 208.24101C 96.05 208.199 96.055 208.13501 96.084 208.06401C 96.085 208.057 96.086 208.052 96.088 208.04501C 96.478 206.796 96.479 205.319 96.012 203.83601C 94.57 204.47601 93.451 205.47401 92.776 206.615C 92.68 206.77101 92.578 206.71501 92.515 206.57101C 92.512 206.565 92.507996 206.561 92.506 206.554C 91.901 205.395 90.862 204.35101 89.479 203.63301C 88.909996 205.108 88.826996 206.60101 89.159 207.88301C 89.182 207.97401 89.164 208.026 89.121 208.048C 89.079 208.069 89.015 208.065 88.944 208.037C 88.937 208.035 88.931 208.035 88.925 208.033C 87.675 207.641 86.198 207.641 84.716 208.108C 85.356 209.55 86.353 210.67001 87.495 211.34401C 87.651 211.43901 87.594 211.543 87.451 211.604C 87.445 211.608 87.441 211.612 87.434 211.615C 86.275 212.21901 85.231 213.25801 84.512 214.641C 85.988 215.21101 87.481 215.293 88.762 214.962C 88.854 214.938 88.906 214.95601 88.927 214.99901C 88.949 215.041 88.945 215.10501 88.917 215.17601C 88.915 215.18301 88.915 215.188 88.913 215.19601C 88.520996 216.444 88.520996 217.92201 88.988 219.40501C 90.43 218.764 91.55 217.766 92.224 216.626C 92.319 216.46901 92.423 216.526 92.484 216.67001C 92.488 216.675 92.491 216.679 92.495 216.686C 93.099 217.845 94.138 218.888 95.520996 219.608C 96.090996 218.13301 96.173 216.639 95.840996 215.35701C 95.818 215.26501 95.836 215.21501 95.879 215.19301C 95.921 215.171 95.984 215.175 96.056 215.20401C 96.062996 215.20601 96.068 215.20601 96.075 215.20801C 97.324 215.59901 98.801 215.59901 100.284 215.13301C 99.644 213.69 98.645996 212.57101 97.506 211.89601C 97.348 211.8 97.406 211.69801 97.548996 211.636C 97.555 211.63301 97.559 211.62901 97.566 211.626C 98.724 211.02101 99.768 209.98201 100.488 208.59901C 99.012 208.03001 97.519 207.94801 96.237 208.279z" stroke="#E7BC9E" stroke-width="0.425" fill="none" />
    <path id=""  transform="matrix(1 0 0 -1 0 316)"  d="M95.640205 210.43219C 96.4252 210.5712 97.2312 210.9832 97.9132 211.65219C 97.9502 211.6882 97.9682 211.74019 97.9682 211.7912C 97.9652 211.8412 97.9442 211.8922 97.904205 211.9262C 97.182205 212.5502 96.3532 212.9122 95.5602 213.00119C 96.0202 213.6572 96.2962 214.51419 96.3052 215.4692C 96.3052 215.5222 96.2822 215.57219 96.2462 215.6082C 96.2082 215.64119 96.1572 215.6622 96.1052 215.65819C 95.1522 215.5892 94.3132 215.2602 93.6882 214.7602C 93.5482 215.5452 93.1362 216.3512 92.4682 217.0332C 92.432205 217.0712 92.3802 217.0882 92.3302 217.0882C 92.279205 217.08519 92.2282 217.0642 92.1942 217.02519C 91.5692 216.3022 91.2082 215.47319 91.1182 214.68019C 90.4632 215.1402 89.6062 215.4162 88.6502 215.4252C 88.598206 215.4252 88.5482 215.4032 88.5122 215.36719C 88.4782 215.3292 88.459206 215.27719 88.462204 215.22519C 88.531204 214.2722 88.8602 213.4332 89.3602 212.8082C 88.5742 212.66919 87.7692 212.2572 87.086205 211.5882C 87.0492 211.5522 87.031204 211.5002 87.0322 211.4502C 87.0342 211.3992 87.0562 211.34819 87.0952 211.3142C 87.8182 210.6902 88.6472 210.3292 89.4402 210.23819C 88.9802 209.58319 88.7042 208.7262 88.695206 207.7702C 88.6942 207.7182 88.7172 207.6682 88.753204 207.6322C 88.792206 207.5992 88.8422 207.5792 88.8952 207.5822C 89.848206 207.6512 90.6872 207.9802 91.3112 208.4802C 91.4512 207.6942 91.863205 206.88919 92.5322 206.2072C 92.5682 206.16919 92.6202 206.1512 92.670204 206.15219C 92.7212 206.1552 92.7712 206.1762 92.8052 206.2152C 93.4302 206.9382 93.792206 207.7672 93.8812 208.5602C 94.5372 208.10019 95.3942 207.82419 96.349205 207.8152C 96.4022 207.8142 96.4522 207.83719 96.487206 207.87419C 96.5212 207.9122 96.542206 207.96219 96.5382 208.0152C 96.4692 208.9682 96.140205 209.80719 95.640205 210.43219zM93.7712 208.9782C 93.7272 209.0112 93.696205 209.0132 93.6742 208.9952C 93.653206 208.97719 93.641205 208.9422 93.640205 208.8962C 93.640205 208.8922 93.6392 208.88919 93.6382 208.8852C 93.570206 208.1232 93.240204 207.3252 92.656204 206.6272C 92.0192 207.29619 91.6382 208.08519 91.529205 208.8532C 91.5122 208.9592 91.4442 208.9522 91.378204 208.8882C 91.3752 208.8852 91.3732 208.8842 91.3692 208.8812C 90.7832 208.3902 89.988205 208.05919 89.0802 207.9802C 89.1022 208.9052 89.392204 209.7302 89.8582 210.34819C 89.891205 210.39319 89.8932 210.4242 89.8752 210.4462C 89.8572 210.4672 89.822205 210.4792 89.7762 210.4802C 89.7722 210.4802 89.7692 210.4812 89.765205 210.4822C 89.002205 210.5492 88.2052 210.88019 87.5072 211.4642C 88.1762 212.10019 88.9652 212.4822 89.7332 212.5912C 89.8392 212.6082 89.8322 212.6762 89.7682 212.74219C 89.765205 212.7452 89.764206 212.7482 89.7612 212.7502C 89.2702 213.3362 88.9392 214.1322 88.8602 215.04019C 89.7852 215.0172 90.6102 214.7282 91.2282 214.26219C 91.2722 214.2292 91.3042 214.22719 91.3262 214.2462C 91.3462 214.2632 91.3592 214.2982 91.3592 214.3432C 91.3602 214.3472 91.3612 214.3512 91.3612 214.3552C 91.4292 215.1182 91.7602 215.91519 92.3442 216.61319C 92.9802 215.9442 93.362206 215.15419 93.4712 214.3862C 93.487206 214.28119 93.556206 214.2892 93.6222 214.35219C 93.6252 214.3542 93.627205 214.3562 93.6302 214.35919C 94.2162 214.85019 95.0122 215.1812 95.919205 215.2602C 95.8972 214.33519 95.6082 213.5102 95.142204 212.8922C 95.1092 212.8472 95.1072 212.8162 95.1252 212.79419C 95.1432 212.7732 95.1782 212.7612 95.223206 212.7602C 95.2272 212.7602 95.2302 212.7592 95.2352 212.7582C 95.9972 212.6902 96.795204 212.3602 97.4922 211.7762C 96.8242 211.1402 96.0342 210.7582 95.266205 210.6492C 95.1612 210.6322 95.167206 210.5642 95.2322 210.49919C 95.2342 210.4962 95.2362 210.4932 95.239204 210.4892C 95.7292 209.90419 96.0612 209.1082 96.140205 208.2002C 95.2152 208.2222 94.390205 208.51219 93.7712 208.9782z" stroke="#E7BC9E" stroke-width="0.425" fill="none" />
    <path id=""  transform="matrix(1 0 0 -1 0 316)"  d="M93.8436 210.2854C 94.2796 210.1764 94.7896 210.2034 95.2946 210.3914C 95.3216 210.40141 95.3436 210.4234 95.3556 210.4494C 95.3646 210.47641 95.3656 210.5074 95.3536 210.5334C 95.1246 211.0224 94.7806 211.39941 94.3936 211.62741C 94.7806 211.8594 95.1206 212.23741 95.345604 212.7274C 95.3576 212.7534 95.3576 212.78441 95.3466 212.8114C 95.3346 212.8374 95.3136 212.86041 95.2856 212.8694C 94.7786 213.0534 94.2716 213.07741 93.8346 212.96341C 93.9436 213.4004 93.9166 213.90941 93.7296 214.41441C 93.7196 214.44241 93.6966 214.46341 93.6706 214.4754C 93.6436 214.4864 93.6126 214.4864 93.5866 214.4734C 93.0986 214.2454 92.7216 213.90141 92.4926 213.51341C 92.2616 213.90141 91.8836 214.2404 91.3936 214.46541C 91.3666 214.47841 91.3356 214.4774 91.3096 214.4664C 91.2826 214.4544 91.2606 214.43341 91.2506 214.40541C 91.0666 213.89941 91.0426 213.3914 91.1566 212.9544C 90.7196 213.0644 90.2106 213.0364 89.7056 212.84941C 89.6776 212.8394 89.6566 212.81741 89.6456 212.7904C 89.6346 212.7644 89.6346 212.73341 89.6476 212.7064C 89.8746 212.21841 90.2186 211.8414 90.6066 211.6134C 90.2186 211.38141 89.8786 211.0034 89.6546 210.51341C 89.6426 210.48741 89.6436 210.45541 89.6526 210.42941C 89.6646 210.40341 89.6876 210.3804 89.7146 210.3704C 90.2216 210.1864 90.7286 210.16241 91.1656 210.2774C 91.0566 209.84041 91.0836 209.33041 91.2706 208.82541C 91.2806 208.7984 91.303604 208.7774 91.3296 208.76541C 91.3566 208.75441 91.3876 208.75441 91.4136 208.76741C 91.9016 208.9944 92.2776 209.3394 92.5076 209.72641C 92.7386 209.33841 93.1166 208.9994 93.6066 208.7754C 93.6336 208.7624 93.6646 208.76341 93.6916 208.77441C 93.7176 208.7854 93.7386 208.8074 93.7496 208.83441C 93.9336 209.3414 93.956604 209.84941 93.8436 210.2854zM92.5466 209.9674C 92.5316 209.9944 92.5156 210.00241 92.5006 209.9974C 92.484604 209.99341 92.4716 209.97841 92.4606 209.95541C 92.4596 209.9534 92.4576 209.9514 92.456604 209.9494C 92.2466 209.5724 91.8926 209.2384 91.4316 209.01341C 91.2576 209.50441 91.2426 209.99841 91.3626 210.4194C 91.3796 210.4774 91.3426 210.4884 91.2936 210.4714C 91.2916 210.4714 91.2896 210.4714 91.2876 210.47041C 90.8726 210.3524 90.3876 210.36441 89.900604 210.53241C 90.1256 211.0034 90.4646 211.36241 90.8476 211.57341C 90.8746 211.58841 90.8826 211.6044 90.8776 211.6194C 90.873604 211.63441 90.8586 211.64941 90.8346 211.65941C 90.8336 211.6604 90.831604 211.6614 90.8296 211.6634C 90.4526 211.87341 90.1176 212.22841 89.8936 212.6894C 90.3846 212.8634 90.8786 212.87741 91.2986 212.75641C 91.3576 212.7404 91.3686 212.77841 91.3516 212.8264C 91.3516 212.8284 91.3506 212.83041 91.3506 212.83241C 91.2326 213.2474 91.2446 213.73341 91.4126 214.2194C 91.8836 213.9944 92.2416 213.65541 92.4526 213.2734C 92.4686 213.2454 92.484604 213.2384 92.4996 213.2424C 92.5146 213.24641 92.5286 213.2624 92.5396 213.28441L92.5396 213.28441L92.5426 213.2904C 92.7536 213.6674 93.1076 214.00241 93.5686 214.22641C 93.7416 213.7364 93.7566 213.24141 93.6366 212.82141C 93.6206 212.76341 93.6576 212.75041 93.7056 212.76941C 93.7086 212.76941 93.7106 212.76941 93.7126 212.7704C 94.1276 212.88841 94.6126 212.87541 95.0986 212.70741C 94.8746 212.23741 94.5346 211.8784 94.1526 211.66641C 94.1256 211.6524 94.1176 211.63641 94.1216 211.6204C 94.1266 211.60641 94.1416 211.5914 94.1646 211.58041C 94.1666 211.5794 94.1676 211.57741 94.1706 211.5764C 94.5476 211.36641 94.8826 211.0124 95.1066 210.5514C 94.6156 210.37741 94.1216 210.3634 93.7006 210.4844C 93.6426 210.4994 93.6306 210.4624 93.6486 210.4134C 93.6496 210.4114 93.6496 210.40941 93.6506 210.40741C 93.7686 209.9924 93.7556 209.5074 93.5876 209.02141C 93.1156 209.2454 92.7586 209.58441 92.5466 209.9674z" stroke="#E7BC9E" stroke-width="0.425" fill="none" />
    <path id=""  transform="matrix(1 0 0 -1 0 316)"  d="M97.7332 213.9805C 98.5142 215.0985 98.990204 216.5695 99.0052 218.2025C 99.0062 218.2915 98.9672 218.3765 98.905205 218.4385C 98.8402 218.4955 98.753204 218.5295 98.6642 218.5245C 97.0362 218.4055 95.5962 217.83951 94.5292 216.9895C 94.2932 218.3385 93.5902 219.7095 92.4462 220.8745C 92.3832 220.9395 92.295204 220.9705 92.2092 220.9705C 92.1222 220.9655 92.0362 220.9285 91.9772 220.8595C 90.9072 219.6255 90.2912 218.2135 90.1402 216.8535C 89.0222 217.6345 87.5502 218.1095 85.9182 218.1265C 85.8282 218.1275 85.7442 218.0875 85.682205 218.0255C 85.6252 217.9605 85.5892 217.8735 85.5962 217.78351C 85.7142 216.1555 86.2802 214.7165 87.1302 213.6495C 85.7822 213.4135 84.4112 212.7105 83.2462 211.5665C 83.1812 211.5035 83.1502 211.4155 83.1502 211.3285C 83.1552 211.2415 83.1922 211.1555 83.2602 211.0975C 84.4952 210.0265 85.9072 209.4105 87.267204 209.2605C 86.4852 208.1425 86.0102 206.6705 85.9942 205.0375C 85.9932 204.9485 86.0332 204.8635 86.0942 204.8025C 86.1602 204.7445 86.2472 204.7095 86.335205 204.7165C 87.9642 204.8345 89.4042 205.4015 90.4712 206.2505C 90.7062 204.9015 91.4092 203.5305 92.5532 202.3655C 92.6162 202.3015 92.7052 202.27051 92.7922 202.27051C 92.878204 202.2755 92.9642 202.3125 93.0232 202.3805C 94.0922 203.6145 94.7092 205.0265 94.8592 206.3875C 95.9782 205.6065 97.4502 205.1305 99.0832 205.1135C 99.1712 205.1125 99.2562 205.1525 99.3172 205.2155C 99.3762 205.2795 99.4102 205.3665 99.4042 205.4555C 99.2862 207.0845 98.7192 208.5245 97.8702 209.5915C 99.2172 209.8265 100.5882 210.5295 101.7542 211.6745C 101.8182 211.7365 101.850204 211.8245 101.850204 211.9115C 101.8442 211.9985 101.807205 212.0845 101.740204 212.1435C 100.5052 213.2125 99.0932 213.8285 97.7332 213.9805zM97.2312 209.9635C 97.1372 209.9495 97.0972 209.9135 97.0942 209.8655C 97.0892 209.8185 97.1182 209.7615 97.1712 209.7065C 97.1752 209.7005 97.1782 209.6955 97.183205 209.6905C 98.0222 208.68651 98.587204 207.3205 98.7242 205.7735C 97.1472 205.8125 95.7312 206.3055 94.670204 207.1015C 94.5232 207.2095 94.4492 207.11751 94.447205 206.9615C 94.4462 206.9545 94.4442 206.9495 94.4442 206.9425C 94.3292 205.6405 93.7682 204.2775 92.766205 203.0845C 91.6752 204.2305 91.0282 205.5775 90.8432 206.8885C 90.8302 206.9825 90.794205 207.0235 90.7462 207.0255C 90.6992 207.0305 90.641205 207.0025 90.585205 206.9485C 90.5812 206.9435 90.5762 206.9425 90.5702 206.9375C 89.5662 206.0985 88.2012 205.5315 86.6522 205.3965C 86.6922 206.9735 87.1852 208.3895 87.9812 209.4495C 88.0892 209.5975 87.9982 209.6715 87.8412 209.67351C 87.835205 209.6745 87.8292 209.6755 87.822205 209.6765C 86.5202 209.7905 85.1582 210.35251 83.9642 211.3545C 85.1092 212.4445 86.4582 213.0925 87.7682 213.2765C 87.8622 213.2895 87.9032 213.3265 87.906204 213.3745C 87.9102 213.4215 87.8822 213.4795 87.8282 213.53351C 87.8242 213.5395 87.822205 213.5445 87.8172 213.5505C 86.9782 214.5545 86.4122 215.9185 86.2762 217.4675C 87.8532 217.4285 89.2692 216.9345 90.3292 216.1395C 90.4772 216.0305 90.5502 216.1225 90.5532 216.2785C 90.5542 216.2855 90.5552 216.2905 90.5562 216.29851C 90.670204 217.6005 91.2322 218.9625 92.2342 220.1555C 93.3252 219.0105 93.9722 217.6625 94.1572 216.3515C 94.169205 216.2575 94.2072 216.2175 94.253204 216.21451C 94.3012 216.2095 94.3582 216.2375 94.4142 216.2915C 94.419205 216.2955 94.4242 216.29851 94.4302 216.3035C 95.434204 217.1425 96.7982 217.7085 98.3472 217.8445C 98.308205 216.2675 97.8142 214.8515 97.0182 213.7905C 96.9112 213.6435 97.002205 213.5685 97.1592 213.5675C 97.1662 213.5665 97.170204 213.5645 97.1782 213.5645C 98.4802 213.4485 99.8422 212.8885 101.0362 211.8865C 99.8902 210.7955 98.5432 210.1485 97.2312 209.9635z" stroke="#E7BC9E" stroke-width="0.425" fill="none" />
    <path id=""  transform="matrix(1 0 0 -1 0 316)"  d="M94.8069 209.18109C 95.5759 208.9641 96.4799 208.9841 97.385895 209.2891C 97.4339 209.3051 97.4729 209.3431 97.495895 209.3891C 97.5149 209.4361 97.5169 209.49109 97.496895 209.5391C 97.119896 210.41609 96.5299 211.1021 95.855896 211.53009C 96.5549 211.9171 97.178894 212.56909 97.6029 213.4251C 97.6269 213.47209 97.6269 213.5271 97.60989 213.57509C 97.5909 213.6221 97.553894 213.6631 97.5049 213.6821C 96.6179 214.0361 95.718895 214.1051 94.9379 213.9271C 95.1559 214.69609 95.136894 215.6001 94.831894 216.5051C 94.814896 216.5541 94.7769 216.5931 94.730896 216.61609C 94.6839 216.6351 94.6299 216.63809 94.580894 216.6171C 93.703896 216.2401 93.0169 215.6511 92.5909 214.97609C 92.2019 215.6761 91.550896 216.2981 90.6949 216.7231C 90.647896 216.7471 90.593895 216.7471 90.5449 216.7301C 90.497894 216.7101 90.4579 216.6731 90.4379 216.62509C 90.0839 215.7381 90.0139 214.8391 90.191895 214.0591C 89.4249 214.2761 88.5199 214.25609 87.6149 213.95209C 87.564896 213.93509 87.525894 213.8971 87.5049 213.85109C 87.48489 213.8041 87.481895 213.75009 87.5029 213.70209C 87.8809 212.82509 88.469894 212.1371 89.1439 211.7101C 88.4439 211.32309 87.8209 210.67009 87.3969 209.8151C 87.3739 209.7681 87.372894 209.71309 87.3899 209.66609C 87.4099 209.61809 87.4459 209.5781 87.494896 209.55809C 88.3829 209.2051 89.2809 209.1341 90.0609 209.31209C 89.844894 208.5441 89.8639 207.64009 90.1679 206.73509C 90.1839 206.68509 90.2229 206.64609 90.2689 206.62509C 90.315895 206.6051 90.370895 206.6021 90.4189 206.6241C 91.2959 207.0011 91.981895 207.5891 92.4089 208.2641C 92.7979 207.5641 93.4489 206.9421 94.3049 206.51709C 94.3519 206.4941 94.4069 206.49309 94.454895 206.5101C 94.5019 206.53009 94.5429 206.5671 94.5609 206.6151C 94.9159 207.50209 94.98489 208.4011 94.8069 209.18109zM92.4919 208.6881C 92.467896 208.73709 92.438896 208.75209 92.411896 208.7461C 92.385895 208.73909 92.358894 208.7121 92.3389 208.6711C 92.3369 208.66809 92.3349 208.6671 92.331894 208.6631C 91.9379 208.00609 91.2929 207.43109 90.4639 207.0591C 90.1819 207.9381 90.1829 208.8151 90.4199 209.5541C 90.4509 209.65709 90.386894 209.6791 90.2999 209.6511C 90.2959 209.6501 90.2929 209.6501 90.287895 209.6491C 89.5469 209.4621 88.6859 209.5101 87.8349 209.8351C 88.258896 210.6581 88.8789 211.2741 89.567894 211.62709C 89.6169 211.65309 89.6329 211.68109 89.6249 211.7081C 89.6189 211.73509 89.591896 211.7611 89.551895 211.7811C 89.5489 211.78409 89.5459 211.7861 89.5429 211.7881C 88.886894 212.1821 88.3109 212.8281 87.938896 213.65709C 88.817894 213.9381 89.6949 213.9361 90.4329 213.70009C 90.5359 213.66809 90.5589 213.7341 90.5299 213.82109C 90.5299 213.82509 90.5299 213.8281 90.5289 213.83209C 90.342896 214.57309 90.3899 215.43309 90.7159 216.2851C 91.537895 215.86209 92.1539 215.24109 92.5079 214.5521C 92.5329 214.50209 92.5609 214.4881 92.5879 214.4951C 92.6149 214.5011 92.6409 214.52809 92.6609 214.56909C 92.663895 214.5721 92.6659 214.5741 92.6679 214.5781C 93.0609 215.2341 93.706894 215.80809 94.536896 216.18109C 94.816895 215.3011 94.815895 214.4241 94.579895 213.6861C 94.5489 213.58409 94.6139 213.5611 94.7009 213.5891C 94.704895 213.59009 94.7079 213.59009 94.7119 213.5911C 95.452896 213.77809 96.3129 213.7291 97.164894 213.40509C 96.7419 212.5831 96.120895 211.9661 95.4319 211.6131C 95.3829 211.5871 95.3669 211.5591 95.3749 211.5331C 95.3819 211.5051 95.4079 211.4791 95.4479 211.45909C 95.4519 211.45709 95.453896 211.4551 95.4579 211.45209C 96.1139 211.05809 96.6879 210.4131 97.0599 209.58409C 96.1809 209.3021 95.3049 209.3031 94.565895 209.5401C 94.4639 209.57109 94.440895 209.50609 94.469894 209.4191C 94.470894 209.41609 94.470894 209.4131 94.470894 209.4081C 94.6579 208.6671 94.608894 207.8071 94.2849 206.9551C 93.4629 207.3781 92.845894 207.9991 92.4919 208.6881z" stroke="#E7BC9E" stroke-width="0.425" fill="none" />
    <path id=""  transform="matrix(1 0 0 -1 0 316)"  d="M104.5036 211.7453C 106.9406 213.23131 109.0866 215.6513 110.4876 218.7643C 110.5656 218.9353 110.5596 219.13031 110.4916 219.2993C 110.4166 219.4653 110.2786 219.60431 110.1036 219.6663C 106.885605 220.8083 103.6526 220.93231 100.8956 220.2023C 101.5766 222.98131 101.3816 226.1973 100.1676 229.3903C 100.1016 229.5663 99.9596 229.7003 99.7926 229.7733C 99.6216 229.8363 99.4256 229.83731 99.2566 229.7563C 96.1716 228.2893 93.8056 226.10231 92.3746 223.6243C 90.8896 226.0603 88.4686 228.2063 85.3566 229.6083C 85.1856 229.6853 84.9896 229.6793 84.8206 229.6123C 84.6546 229.5363 84.5156 229.3993 84.4526 229.2233C 83.3126 226.00531 83.1876 222.7733 83.9186 220.0153C 81.1396 220.6973 77.9236 220.50131 74.7296 219.28731C 74.5546 219.2213 74.4196 219.0793 74.3476 218.91231C 74.2836 218.74231 74.2826 218.5453 74.3636 218.37631C 75.829605 215.2913 78.0176 212.92531 80.495605 211.4953C 78.0606 210.00931 75.913605 207.5883 74.5126 204.4763C 74.4356 204.3053 74.4406 204.1103 74.5076 203.9413C 74.5836 203.7753 74.7206 203.6363 74.8976 203.57431C 78.1146 202.4323 81.3476 202.3083 84.1056 203.0383C 83.4236 200.25931 83.6186 197.0433 84.8326 193.85031C 84.8986 193.6743 85.0406 193.5393 85.2076 193.4673C 85.3786 193.4043 85.5736 193.4033 85.7426 193.4843C 88.8286 194.95131 91.1946 197.1373 92.6256 199.6163C 94.1106 197.1803 96.5306 195.0343 99.6446 193.63231C 99.8146 193.5553 100.0106 193.5603 100.1796 193.6273C 100.345604 193.70331 100.483604 193.8403 100.5466 194.0173C 101.6886 197.2353 101.8126 200.4673 101.081604 203.22531C 103.859604 202.5433 107.0766 202.7393 110.2706 203.95331C 110.4446 204.01831 110.579605 204.1613 110.6516 204.32831C 110.7156 204.4983 110.7176 204.6943 110.6366 204.8643C 109.1696 207.94931 106.9826 210.3153 104.5036 211.7453zM100.1706 204.4743C 99.9806 204.5283 99.8716 204.49231 99.8256 204.4033C 99.7776 204.3163 99.7836 204.1833 99.8406 204.0323C 99.8436 204.01831 99.844604 204.0063 99.8486 203.99231C 100.6126 201.3643 100.5506 198.2753 99.5106 195.1953C 96.5236 196.5943 94.2266 198.7283 92.8636 201.14331C 92.6706 201.4743 92.4526 201.3603 92.316605 201.0623C 92.3096 201.05031 92.3026 201.0413 92.2946 201.0283C 90.982605 198.63031 88.7646 196.4933 85.8426 195.04831C 84.7146 198.15831 84.607605 201.28331 85.3546 203.94931C 85.4066 204.1393 85.3716 204.2473 85.2826 204.29431C 85.1956 204.3423 85.0636 204.3363 84.9116 204.2803C 84.8986 204.2763 84.8866 204.2763 84.8716 204.27231C 82.2436 203.50731 79.1546 203.5703 76.0736 204.6093C 77.4746 207.5973 79.6086 209.8943 82.023605 211.2563C 82.3546 211.44931 82.2396 211.6673 81.941605 211.8033C 81.9306 211.8103 81.9216 211.8183 81.9076 211.82631C 79.510605 213.1383 77.372604 215.35631 75.928604 218.2783L75.928604 218.2783L75.9276 218.2783C 79.0376 219.4053 82.1626 219.5133 84.8286 218.7663C 85.0196 218.71231 85.1276 218.7483 85.1736 218.83731C 85.2216 218.9243 85.2166 219.05731 85.1596 219.2083C 85.1556 219.2223 85.1556 219.2343 85.150604 219.2483C 84.3876 221.87631 84.4486 224.9653 85.4886 228.0453C 88.4776 226.6463 90.7746 224.5113 92.1366 222.0973C 92.3286 221.7663 92.5476 221.8793 92.6826 222.1773C 92.6906 222.1903 92.6976 222.19931 92.7056 222.21231C 94.0186 224.6103 96.2356 226.7473 99.1566 228.1923C 100.2846 225.0823 100.3936 221.9573 99.6466 219.2913C 99.5926 219.10031 99.6286 218.9933 99.7176 218.9463C 99.8046 218.8983 99.9376 218.9043 100.0886 218.9603C 100.1026 218.9633 100.1136 218.96431 100.1286 218.9683C 102.7566 219.7333 105.845604 219.6703 108.9256 218.63031C 107.525604 215.64331 105.3916 213.3463 102.9776 211.9843C 102.6466 211.7903 102.7596 211.5733 103.0576 211.4373C 103.0696 211.4303 103.0786 211.4223 103.0926 211.4143C 105.4886 210.10231 107.6276 207.88431 109.0716 204.96231C 105.9626 203.8353 102.8376 203.72731 100.1706 204.4743z" stroke="#E7BC9E" stroke-width="0.425" fill="none" />
		</g>
	</g>
</g>
</svg>