<?xml version="1.0" standalone="no"?>
<!DOCTYPE svg PUBLIC "-//W3C//DTD SVG 1.0//EN" "http://www.w3.org/TR/2001/REC-SVG-20010904/DTD/svg10.dtd">
<svg xmlns="http://www.w3.org/2000/svg" xmlns:xlink="http://www.w3.org/1999/xlink" id="body_3" width="247" height="421">

<defs>
    <clipPath  id="1">

    <path id=""  clip-rule="evenodd" transform="matrix(1 0 0 1 0 0)"  d="M0 316L0 0L0 0L185 0L185 0L185 316L185 316L0 316z" />    </clipPath>
    <clipPath  id="2">

    <path id=""  clip-rule="evenodd" transform="matrix(1 0 0 1 0 0)"  d="M0 0L185 0L185 0L185 316L185 316L0 316z" />    </clipPath>
</defs>

<g transform="matrix(1.3333 0 0 1.3333 0 0)">
	<g clip-path="url(#1)" >
		<g clip-path="url(#2)" >
    <path id=""  transform="matrix(1 0 0 -1 0 316)"  d="M97.9374 208.8463C 97.807396 209.0043 97.5984 209.1593 97.3464 209.28531C 97.0944 209.41231 96.8614 209.4893 96.6714 209.5283C 96.4794 209.5693 96.3454 209.5663 96.2474 209.53531C 96.2144 209.53531 96.1924 209.5263 96.1874 209.5023C 96.168396 209.48631 96.1724 209.4613 96.1894 209.43231C 96.2174 209.2483 96.4864 208.9163 96.9504 208.6033C 97.1874 208.44731 97.4264 208.3433 97.628395 208.31131C 97.8294 208.2773 97.9974 208.31131 98.0554 208.42131C 98.085396 208.47531 98.0914 208.5403 98.072395 208.61331C 98.0484 208.6873 98.002396 208.7673 97.9374 208.8463M96.8864 209.0973C 96.9724 209.1803 97.4244 208.9433 97.3564 208.82631C 97.2894 208.7063 96.8594 208.98131 96.8864 209.0973" stroke="none" fill="#E7BC9E" fill-rule="nonzero" />
    <path id=""  transform="matrix(1 0 0 -1 0 316)"  d="M98.4688 210.3327C 98.3068 210.4507 98.0528 210.5497 97.7788 210.6037C 97.5018 210.66069 97.2618 210.67369 97.0708 210.6617C 96.8748 210.6507 96.730804 210.6167 96.65781 210.5597C 96.62981 210.55069 96.6078 210.5367 96.6078 210.5127C 96.5938 210.49269 96.60181 210.4717 96.6248 210.4477C 96.6648 210.3637 96.76781 210.2657 96.9168 210.1637C 97.0688 210.0607 97.2768 209.9527 97.535805 209.8627C 97.80881 209.7677 98.077805 209.7247 98.2928 209.7397C 98.5138 209.7527 98.6528 209.8347 98.6928 209.9557C 98.727806 210.0737 98.630806 210.21669 98.4688 210.3327M97.9128 210.1637C 97.8748 210.0347 97.3878 210.18669 97.3888 210.3047C 97.423805 210.3537 97.5568 210.3517 97.68581 210.3207C 97.811806 210.2907 97.93481 210.2267 97.9128 210.1637" stroke="none" fill="#E7BC9E" fill-rule="nonzero" />
    <path id=""  transform="matrix(1 0 0 -1 0 316)"  d="M96.5386 208.1429C 96.122604 208.4989 95.7586 208.6479 95.5716 208.6329C 95.5416 208.63991 95.5186 208.63591 95.5076 208.61191C 95.483604 208.60191 95.4806 208.5789 95.4866 208.54791C 95.4726 208.35391 95.6346 207.9749 96.0066 207.54991C 96.1936 207.33891 96.400604 207.1759 96.5906 207.08891C 96.775604 207.00491 96.9406 207.0029 97.0336 207.0869C 97.1196 207.1829 97.1156 207.35191 97.0246 207.54591C 96.9306 207.7409 96.7576 207.95291 96.5386 208.1429M96.4626 207.6569C 96.3606 207.56491 96.0156 207.93991 96.0786 208.04091C 96.1806 208.1049 96.5556 207.7599 96.4626 207.6569" stroke="none" fill="#E7BC9E" fill-rule="nonzero" />
    <path id=""  transform="matrix(1 0 0 -1 0 316)"  d="M95.4932 207.207C 95.1852 207.65399 94.865204 207.90399 94.6872 207.931C 94.6592 207.948 94.6342 207.95099 94.6182 207.933C 94.5932 207.928 94.585205 207.90599 94.585205 207.873C 94.5552 207.77899 94.5502 207.65 94.587204 207.465C 94.6232 207.28299 94.6942 207.058 94.8142 206.812C 94.9402 206.551 95.099205 206.332 95.2612 206.194C 95.3422 206.125 95.4242 206.075 95.5012 206.049C 95.5762 206.028 95.6432 206.034 95.6992 206.06499C 95.8132 206.124 95.8442 206.29999 95.8062 206.508C 95.7692 206.71599 95.6572 206.96399 95.4932 207.207M95.0222 207.234C 95.1402 207.26099 95.4142 206.82999 95.294205 206.76399C 95.1762 206.69499 94.9392 207.14699 95.0222 207.234" stroke="none" fill="#E7BC9E" fill-rule="nonzero" />
    <path id=""  transform="matrix(1 0 0 -1 0 316)"  d="M107.220795 196.521C 107.0738 196.428 106.9518 196.297 106.8138 196.19C 106.733795 196.13 106.652794 196.071 106.5648 196.021C 106.5178 196.22 106.441795 196.415 106.343796 196.593C 106.580795 196.762 106.815796 196.972 106.9788 197.202C 107.138794 197.436 107.2308 197.685 107.1978 197.918C 107.1428 198.286 106.7418 198.375 106.388794 198.113C 106.1198 197.908 105.9798 197.594 105.747795 197.353C 105.7398 197.344 105.732796 197.337 105.72479 197.328C 105.5778 197.449 105.41779 197.555 105.247795 197.649C 105.48679 198.037 105.579796 198.479 105.3658 198.771C 105.1418 199.074 104.6478 198.975 104.401794 198.612C 104.30779 198.476 104.25079 198.321 104.2288 198.169C 104.22279 198.127 104.220795 198.086 104.2158 198.044C 104.0598 198.081 103.902794 198.113 103.7418 198.133C 103.45979 198.168 103.1718 198.188 102.89079 198.197C 102.610794 198.204 102.3288 198.212 102.0498 198.23C 101.498795 198.257 100.9508 198.343 100.457794 198.568C 100.315796 198.633 100.162796 198.623 100.0448 198.554C 99.9258 198.485 99.8388 198.361 99.8258 198.203C 99.802795 197.929 99.73679 197.671 99.649796 197.411C 99.6058 197.282 99.55779 197.153 99.50279 197.026C 99.44679 196.902 99.387794 196.778 99.3248 196.654C 99.0788 196.15 98.78079 195.674 98.5628 195.136C 98.499794 194.986 98.4478 194.836 98.401794 194.682C 98.36279 194.699 98.3258 194.718 98.2868 194.734C 98.1438 194.791 97.9788 194.823 97.8148 194.805C 97.37779 194.77 97.041794 194.4 97.192795 194.051C 97.3378 193.722 97.7708 193.573 98.2258 193.591C 98.22379 193.397 98.234795 193.202 98.2668 193.01399C 98.2548 193.012 98.2448 193.01 98.232796 193.008C 97.90579 192.927 97.5618 192.971 97.25079 192.833C 96.844795 192.661 96.719795 192.271 97.012794 192.037C 97.19679 191.893 97.46179 191.84 97.7428 191.869C 98.024796 191.897 98.3268 191.991 98.5928 192.113C 98.6988 191.939 98.8278 191.781 98.9768 191.638C 98.88979 191.591 98.8008 191.541 98.706795 191.503C 98.5448 191.438 98.3678 191.399 98.2138 191.319C 97.7958 191.103 97.788795 190.73 98.00079 190.5C 98.23779 190.242 98.7258 190.204 99.1748 190.432C 99.3368 190.519 99.4888 190.631 99.6298 190.735C 99.7558 190.829 99.8698 190.955 100.01479 191.028C 100.2668 190.943 100.541794 190.886 100.8358 190.854C 100.7018 190.693 100.5888 190.526 100.526794 190.353C 100.41779 190.038 100.4618 189.683 100.871796 189.599C 101.12679 189.548 101.3948 189.618 101.6198 189.748C 101.844795 189.879 102.0198 190.08 102.107796 190.27C 102.20879 190.492 102.2698 190.714 102.3118 190.93C 102.66779 191 103.024796 191.117 103.386795 191.257C 103.4208 191.04 103.4808 190.835 103.6198 190.688C 103.7588 190.543 103.9768 190.453 104.32179 190.484C 104.414795 190.493 104.5348 190.539 104.6448 190.602C 104.7548 190.666 104.8548 190.747 104.9078 190.822C 105.3008 191.398 105.04279 191.746 104.7038 192.02C 105.0038 192.263 105.2868 192.509 105.5198 192.787C 105.7288 192.716 105.9518 192.657 106.193794 192.633C 106.6168 192.584 107.22379 192.874 107.388794 193.365C 107.5178 193.763 107.232796 193.979 106.9078 194.04C 106.7268 194.074 106.525795 194.06 106.318794 194.025C 106.4368 194.296 106.527794 194.556 106.5758 194.824C 106.7118 194.912 106.8778 194.94499 107.0218 195.007C 107.18179 195.077 107.3568 195.148 107.5088 195.249C 107.926796 195.524 108.1448 195.955 108.0338 196.296C 107.9348 196.59799 107.6188 196.77 107.220795 196.521zM97.7568 192.709C 97.7138 192.709 97.7258 192.713 97.7568 192.709zM105.55679 194.821C 105.442795 193.95 104.7988 192.968 103.6718 192.284C 103.09979 191.962 102.5088 191.793 101.97279 191.733C 101.427795 191.687 100.9388 191.741 100.527794 191.913C 99.7038 192.245 99.246796 192.94 99.248795 193.81999C 99.248795 194.478 99.5208 195.096 99.8128 195.728C 99.9638 196.037 100.1148 196.359 100.25079 196.675C 100.38979 196.986 100.5038 197.31 100.5788 197.63C 100.735794 197.583 100.898796 197.543 101.065796 197.51C 101.2308 197.481 101.398796 197.458 101.56979 197.438C 101.7438 197.42 101.91779 197.402 102.0908 197.384C 102.263794 197.371 102.4358 197.358 102.607796 197.345C 103.303795 197.28 103.969795 197.213 104.54279 196.879C 105.303795 196.442 105.68079 195.69499 105.55679 194.821zM106.2458 197.612C 106.2578 197.63899 106.2678 197.648 106.2458 197.612z" stroke="#E7BC9E" stroke-width="0.283" fill="none" />
    <path id=""  transform="matrix(1 0 0 -1 0 316)"  d="M103.229 196.48799C 102.658 196.64899 102.007996 196.73999 101.447 196.85199C 101.328 196.879 101.19 196.842 101.076 196.771C 100.957 196.708 100.856 196.607 100.819 196.491C 100.731 196.21399 100.621 195.933 100.519 195.63899C 100.419 195.344 100.318 195.051 100.246 194.762C 100.104996 194.18199 100.075 193.60399 100.405 193.112C 100.628 192.782 101.079 192.51599 101.634 192.422C 102.18 192.33899 102.834 192.42699 103.376 192.797C 103.521996 192.86899 103.659 192.954 103.783 193.049C 103.906 193.14899 104.017 193.25699 104.117 193.37299C 104.315 193.60399 104.47 193.85399 104.565 194.12C 104.76 194.646 104.756996 195.16699 104.58 195.52599C 104.317 196.058 103.804 196.318 103.229 196.48799zM103.571 194.068C 103.483 193.881 103.329 193.7 103.087 193.56099C 103.048996 193.54399 103.01 193.52199 102.971 193.49599C 102.928 193.474 102.89 193.452 102.856 193.428C 102.371 193.148 101.932 193.245 101.641 193.469C 101.346 193.698 101.181 194.06699 101.181 194.37299C 101.184 194.885 101.388 195.407 101.562996 195.928C 102.103 195.818 102.654 195.73999 103.102 195.482C 103.367 195.32999 103.604996 195.00299 103.656 194.63399C 103.681 194.45 103.659 194.25499 103.571 194.068z" stroke="#E7BC9E" stroke-width="0.283" fill="none" />
    <path id=""  transform="matrix(1 0 0 -1 0 316)"  d="M102.4538 195.1403C 102.317795 195.1493 102.1848 195.1163 102.07079 195.05031C 101.957794 194.9853 101.86179 194.8873 101.801796 194.7653C 101.718796 194.5933 101.7168 194.4153 101.789795 194.2733C 101.86179 194.1313 102.009796 194.0253 102.2128 194.02231C 102.2718 194.0173 102.330795 194.0233 102.387794 194.0343L102.387794 194.0343L102.41879 194.0383L102.41879 194.0383L102.427795 194.0413C 102.48779 194.0563 102.5498 194.07831 102.61279 194.11531C 102.676796 194.1513 102.7248 194.1933 102.7678 194.23831L102.7678 194.23831L102.774796 194.24431L102.774796 194.24431L102.7958 194.2693C 102.83379 194.3123 102.8678 194.3603 102.8928 194.4133C 103.08379 194.7803 102.8268 195.1233 102.4538 195.1403z" stroke="#E7BC9E" stroke-width="0.283" fill="none" />
    <path id=""  transform="matrix(1 0 0 -1 0 316)"  d="M92.774704 206.9613C 92.7137 207.14131 92.6387 207.27931 92.5617 207.33531C 92.5447 207.3623 92.523705 207.3753 92.4997 207.3663C 92.4757 207.3753 92.4557 207.3623 92.437706 207.33531C 92.3607 207.27931 92.285706 207.14131 92.2247 206.9613C 92.163704 206.7823 92.1127 206.54431 92.0967 206.2623C 92.079704 205.98131 92.1097 205.7193 92.1837 205.5233C 92.257706 205.33531 92.3727 205.2153 92.4997 205.2073C 92.6267 205.2153 92.7427 205.33531 92.815704 205.5233C 92.8897 205.7193 92.9207 205.98131 92.9037 206.2623C 92.8877 206.54431 92.8367 206.7823 92.774704 206.9613M92.4997 206.0153C 92.3597 206.0233 92.38171 206.53331 92.4997 206.5583C 92.618706 206.53331 92.6397 206.0233 92.4997 206.0153" stroke="none" fill="#E7BC9E" fill-rule="nonzero" />
    <path id=""  transform="matrix(1 0 0 -1 0 316)"  d="M93.965805 207.1877C 93.9128 207.2697 93.8618 207.3317 93.812805 207.3837C 93.7628 207.4367 93.715805 207.47571 93.672806 207.4947C 93.6488 207.5177 93.6278 207.5267 93.606804 207.5127C 93.5838 207.5127 93.5698 207.4907 93.5598 207.4627C 93.505806 207.3927 93.4708 207.2547 93.4588 207.0667C 93.4458 206.8837 93.4548 206.65271 93.505806 206.3847C 93.5598 206.1017 93.65781 205.8367 93.7778 205.6647C 93.895805 205.4947 94.0428 205.39171 94.1648 205.4277C 94.2818 205.4667 94.3628 205.59871 94.37981 205.8107C 94.397804 206.0177 94.3588 206.2757 94.269806 206.54271C 94.1808 206.8107 94.0698 207.0287 93.965805 207.1877M93.9558 206.2077C 93.89381 206.1857 93.828804 206.30771 93.798805 206.43471C 93.7678 206.5627 93.7658 206.69571 93.8158 206.7317C 93.9328 206.7327 94.0848 206.2457 93.9558 206.2077" stroke="none" fill="#E7BC9E" fill-rule="nonzero" />
    <path id=""  transform="matrix(1 0 0 -1 0 316)"  d="M91.439896 207.4622C 91.42989 207.49121 91.4169 207.5122 91.3919 207.5122C 91.372894 207.5272 91.3499 207.5172 91.327896 207.49521C 91.2839 207.4752 91.2369 207.43721 91.1869 207.38321C 91.13789 207.3312 91.0869 207.26921 91.0349 207.1882C 90.92989 207.0292 90.81889 206.81021 90.7299 206.5422C 90.6409 206.2762 90.6019 206.0172 90.620895 205.81021C 90.636894 205.5982 90.718895 205.4662 90.8359 205.4272C 90.9579 205.3912 91.1039 205.49521 91.2219 205.6642C 91.341896 205.8362 91.439896 206.10121 91.4939 206.3842C 91.5459 206.6532 91.55489 206.88321 91.5419 207.0672C 91.5289 207.25421 91.4939 207.3922 91.439896 207.4622M91.2009 206.4342C 91.1709 206.3072 91.106895 206.18521 91.0439 206.2072C 90.914894 206.2462 91.066895 206.7332 91.1839 206.73221C 91.233894 206.6962 91.231895 206.5632 91.2009 206.4342" stroke="none" fill="#E7BC9E" fill-rule="nonzero" />
    <path id=""  transform="matrix(1 0 0 -1 0 316)"  d="M90.381805 207.9333C 90.36581 207.9513 90.341805 207.9483 90.311806 207.9313C 90.1358 207.9043 89.814804 207.6543 89.506805 207.2063C 89.342804 206.9643 89.230804 206.7163 89.1938 206.5083C 89.1548 206.3003 89.186806 206.12329 89.3018 206.06529C 89.356804 206.0343 89.424805 206.0283 89.4988 206.0493C 89.575806 206.0753 89.6568 206.1243 89.7378 206.19429C 89.9008 206.3313 90.0598 206.5513 90.18581 206.8123C 90.3058 207.0583 90.3768 207.2833 90.4128 207.4653C 90.44981 207.6503 90.4438 207.7793 90.4158 207.8723C 90.4148 207.9063 90.4058 207.9283 90.381805 207.9333M89.7058 206.7643C 89.5868 206.8293 89.8598 207.26129 89.97681 207.2343C 90.0598 207.1473 89.8228 206.6953 89.7058 206.7643" stroke="none" fill="#E7BC9E" fill-rule="nonzero" />
    <path id=""  transform="matrix(1 0 0 -1 0 316)"  d="M87.7499 192.8326C 87.4379 192.9716 87.094894 192.9276 86.7669 193.0086C 86.7559 193.0106 86.744896 193.0126 86.732895 193.0146C 86.7649 193.2016 86.77689 193.3966 86.773895 193.5916C 87.2279 193.5726 87.661896 193.72261 87.8069 194.0516C 87.95789 194.3996 87.622894 194.7706 87.1849 194.8056C 87.0199 194.8226 86.8549 194.7906 86.7129 194.7336C 86.6739 194.7186 86.636894 194.69861 86.5979 194.6826C 86.551895 194.8356 86.4999 194.9856 86.4369 195.1366C 86.219894 195.6736 85.9219 196.1496 85.6749 196.65361C 85.6129 196.7776 85.552895 196.9016 85.496895 197.0256C 85.441895 197.1526 85.3929 197.2816 85.3489 197.4106C 85.26289 197.67061 85.1979 197.9296 85.1749 198.2026C 85.1609 198.3606 85.0749 198.4846 84.955894 198.5546C 84.8369 198.6226 84.6839 198.6336 84.5429 198.5676C 84.0499 198.3436 83.5019 198.2566 82.9499 198.2296C 82.6719 198.21161 82.3889 198.2036 82.108894 198.19661C 81.828896 198.1876 81.539894 198.1676 81.2579 198.1326C 81.09689 198.11261 80.939896 198.0806 80.7839 198.04361C 80.7789 198.0856 80.77689 198.1266 80.7709 198.16861C 80.74989 198.3206 80.692894 198.47661 80.5979 198.6116C 80.3509 198.9756 79.858894 199.07361 79.633896 198.7706C 79.4209 198.4796 79.51289 198.0366 79.7519 197.6486C 79.5829 197.5556 79.4219 197.44861 79.273895 197.3276C 79.2669 197.33661 79.260895 197.3446 79.2529 197.3536C 79.0189 197.5946 78.8809 197.90761 78.6109 198.11261C 78.2579 198.3746 77.856895 198.2856 77.802895 197.9176C 77.7689 197.68561 77.8609 197.4366 78.0199 197.2016C 78.1839 196.9726 78.4189 196.7626 78.6559 196.5936C 78.5579 196.4146 78.481895 196.2206 78.4339 196.0216C 78.34689 196.0706 78.2659 196.12961 78.1849 196.1896C 78.0479 196.2966 77.926895 196.4286 77.7799 196.5216C 77.3809 196.7706 77.064896 196.5986 76.966896 196.29561C 76.8549 195.9546 77.0729 195.5236 77.4909 195.2486C 77.6429 195.1476 77.81889 195.0766 77.9779 195.0066C 78.121895 194.94461 78.288895 194.9116 78.4239 194.82361C 78.47189 194.55661 78.5619 194.29561 78.6799 194.0246C 78.4739 194.06061 78.2719 194.07361 78.092896 194.0396C 77.7659 193.9796 77.481895 193.7636 77.6109 193.36461C 77.7769 192.8736 78.383896 192.5836 78.80589 192.6336C 79.0489 192.6566 79.2709 192.7156 79.4799 192.7866C 79.7129 192.5096 79.995895 192.2636 80.2969 192.0206C 79.956894 191.7456 79.6989 191.3976 80.091896 190.82161C 80.1449 190.7466 80.244896 190.6656 80.3549 190.6026C 80.4659 190.5386 80.5859 190.4926 80.677895 190.4836C 81.0219 190.4526 81.2419 190.5426 81.3809 190.6876C 81.5179 190.83461 81.578896 191.0396 81.6129 191.2566C 81.9739 191.11661 82.331894 190.9996 82.6869 190.9306C 82.7289 190.71361 82.79089 190.49161 82.8909 190.2706C 82.9789 190.0796 83.1559 189.8786 83.3809 189.7476C 83.6049 189.6176 83.872894 189.5476 84.1279 189.59961C 84.537895 189.68361 84.58289 190.0376 84.47189 190.3536C 84.411896 190.5256 84.2979 190.6926 84.163895 190.8546C 84.45789 190.8866 84.731895 190.9426 84.9859 191.0276C 85.1309 190.9546 85.2439 190.8286 85.369896 190.7346C 85.510895 190.6306 85.662895 190.5196 85.8249 190.4326C 86.272896 190.2036 86.76289 190.24161 86.99889 190.4996C 87.2119 190.7296 87.204895 191.1036 86.7859 191.3186C 86.6319 191.3986 86.455894 191.4376 86.2939 191.50261C 86.1999 191.5406 86.1109 191.5906 86.022896 191.6386C 86.1729 191.78061 86.301895 191.9386 86.4069 192.11261C 86.6729 191.9906 86.9749 191.8966 87.2569 191.8686C 87.538895 191.8396 87.802895 191.8936 87.9869 192.0366C 88.2799 192.2716 88.1549 192.6606 87.7499 192.8326zM78.7539 197.6116C 78.731895 197.6476 78.7419 197.6396 78.7539 197.6116zM84.47189 191.9126C 84.0599 191.7406 83.5729 191.6876 83.02789 191.7326C 82.4909 191.7926 81.899895 191.96161 81.327896 192.2836C 80.2009 192.9686 79.5569 193.9496 79.442894 194.8206C 79.31889 195.69461 79.6969 196.4416 80.456894 196.8786C 81.0299 197.2126 81.6969 197.2796 82.3919 197.3456C 82.5629 197.3576 82.7359 197.3706 82.9099 197.3846C 83.0829 197.4016 83.2569 197.4196 83.42989 197.4376C 83.5999 197.4576 83.7689 197.4806 83.9329 197.5106C 84.0999 197.5426 84.2639 197.5826 84.4209 197.62961C 84.495895 197.31061 84.60989 196.9856 84.74889 196.6746C 84.885895 196.3586 85.036896 196.0366 85.1859 195.7286C 85.4779 195.0966 85.7519 194.4786 85.7519 193.8196C 85.7529 192.9396 85.2959 192.2446 84.47189 191.9126zM87.2429 192.7086C 87.272896 192.7126 87.2859 192.7086 87.2429 192.7086z" stroke="#E7BC9E" stroke-width="0.283" fill="none" />
    <path id=""  transform="matrix(1 0 0 -1 0 316)"  d="M84.4801 195.6394C 84.3791 195.93341 84.2681 196.21341 84.1801 196.4904C 84.144104 196.6074 84.0441 196.70741 83.9241 196.77141L83.9241 196.77141L83.9231 196.77141C 83.8101 196.8424 83.6711 196.8784 83.5521 196.8524C 82.9921 196.7404 82.3411 196.6494 81.7701 196.4884C 81.1951 196.3184 80.6831 196.05841 80.4211 195.52641C 80.2431 195.16641 80.2401 194.64641 80.4351 194.1194C 80.5301 193.8544 80.6841 193.6044 80.8821 193.3724C 80.9821 193.2574 81.0941 193.1494 81.2161 193.04941C 81.3411 192.9534 81.4781 192.86841 81.6251 192.7964C 82.1671 192.4274 82.8201 192.3394 83.366104 192.42241C 83.9211 192.5164 84.3731 192.78241 84.5941 193.11241C 84.9241 193.6044 84.8951 194.1824 84.7541 194.7624C 84.6811 195.0514 84.5821 195.3444 84.4801 195.6394zM83.3591 193.4694C 83.0671 193.2444 82.630104 193.1484 82.1431 193.4284C 82.1101 193.4514 82.0721 193.47441 82.0291 193.4954C 81.9901 193.5224 81.9511 193.54341 81.9141 193.5614C 81.6711 193.6994 81.5171 193.8804 81.4291 194.0684C 81.3401 194.25441 81.3191 194.4494 81.3441 194.6344C 81.394104 195.00241 81.6321 195.3294 81.8981 195.4824C 82.3451 195.7404 82.8961 195.8184 83.4371 195.9284C 83.6111 195.4064 83.8161 194.8854 83.8181 194.3724C 83.8181 194.06741 83.6531 193.69841 83.3591 193.4694z" stroke="#E7BC9E" stroke-width="0.283" fill="none" />
    <path id=""  transform="matrix(1 0 0 -1 0 316)"  d="M82.9284 195.0504C 82.8154 195.1154 82.682396 195.1494 82.545395 195.1404C 82.1724 195.1234 81.9164 194.7794 82.1064 194.4134C 82.1324 194.3604 82.1664 194.3124 82.2044 194.2694L82.2044 194.2694L82.224396 194.2444L82.224396 194.2444L82.2314 194.2384C 82.2744 194.1934 82.3244 194.1514 82.3874 194.1144C 82.4504 194.0774 82.5114 194.0564 82.572395 194.0414L82.572395 194.0414L82.5814 194.0384L82.5814 194.0384L82.613396 194.0334C 82.669395 194.0234 82.7284 194.0174 82.7874 194.0224C 82.990395 194.0254 83.1384 194.1314 83.210396 194.2734C 83.282394 194.4154 83.282394 194.5934 83.198395 194.7654C 83.1384 194.8874 83.0424 194.9854 82.9284 195.0504z" stroke="#E7BC9E" stroke-width="0.283" fill="none" />
    <path id=""  transform="matrix(1 0 0 -1 0 316)"  d="M88.8113 209.43181C 88.8273 209.4618 88.8313 209.48581 88.8133 209.5028C 88.808304 209.5258 88.7853 209.53581 88.752304 209.53581C 88.655304 209.56581 88.5203 209.5688 88.3283 209.5278C 88.138306 209.4888 87.9063 209.41281 87.653305 209.28581C 87.402306 209.1598 87.193306 209.0048 87.0623 208.8468C 86.9973 208.7668 86.9513 208.6868 86.9273 208.61281C 86.9093 208.5408 86.915306 208.47481 86.945305 208.4218C 87.001305 208.3108 87.1703 208.27681 87.3723 208.3108C 87.5733 208.34381 87.8123 208.44681 88.0483 208.6028C 88.514305 208.91681 88.7833 209.24881 88.8113 209.43181M87.6443 208.8258C 87.5753 208.94281 88.027306 209.17981 88.1143 209.0968C 88.141304 208.9808 87.709305 208.7068 87.6443 208.8258" stroke="none" fill="#E7BC9E" fill-rule="nonzero" />
    <path id=""  transform="matrix(1 0 0 -1 0 316)"  d="M89.4918 208.61191C 89.4818 208.63591 89.45879 208.63991 89.427795 208.6329C 89.2408 208.6479 88.8778 208.4989 88.4618 208.1429C 88.2418 207.95291 88.068794 207.7409 87.9748 207.54591C 87.884796 207.35191 87.8808 207.1829 87.9658 207.0869C 88.0598 207.0029 88.22379 207.00491 88.4098 207.08891C 88.5998 207.1759 88.80679 207.33891 88.9928 207.54991C 89.3648 207.9749 89.527794 208.35391 89.512794 208.54791C 89.5198 208.5789 89.51579 208.60191 89.4918 208.61191M88.5368 207.6569C 88.443794 207.7599 88.81979 208.1049 88.9208 208.04091C 88.984795 207.93991 88.638794 207.56491 88.5368 207.6569" stroke="none" fill="#E7BC9E" fill-rule="nonzero" />
    <path id=""  transform="matrix(1 0 0 -1 0 316)"  d="M88.0836 210.1637C 88.232605 210.2657 88.3346 210.3637 88.3756 210.4477C 88.3976 210.4717 88.4056 210.49269 88.3916 210.5127C 88.3926 210.5367 88.3706 210.55069 88.3416 210.5597C 88.2686 210.6167 88.1246 210.6507 87.9296 210.6617C 87.7386 210.67369 87.498604 210.66069 87.2216 210.6037C 86.9476 210.5497 86.692604 210.4507 86.5306 210.3327C 86.3696 210.21669 86.2716 210.0737 86.3076 209.9557C 86.3476 209.8347 86.4856 209.7527 86.706604 209.7397C 86.9216 209.7247 87.1906 209.7677 87.4646 209.8627C 87.7236 209.9527 87.9316 210.0607 88.0836 210.1637M87.0866 210.1637C 87.0656 210.2267 87.1876 210.2907 87.3146 210.3207C 87.442604 210.3517 87.5756 210.3537 87.6116 210.3047C 87.6126 210.18669 87.1256 210.0347 87.0866 210.1637" stroke="none" fill="#E7BC9E" fill-rule="nonzero" />
    <path id=""  transform="matrix(1 0 0 -1 0 316)"  d="M87.1862 211.2188C 87.459206 211.2368 87.6872 211.2888 87.8582 211.3488C 88.030205 211.4108 88.1612 211.4838 88.2152 211.5578C 88.2422 211.57579 88.2552 211.5968 88.2462 211.6198C 88.2552 211.6438 88.2422 211.6648 88.2152 211.6818C 88.1612 211.7558 88.030205 211.8298 87.8582 211.8908C 87.6872 211.9518 87.459206 212.00279 87.1862 212.02179C 86.8962 212.0428 86.6242 212.0158 86.418205 211.9418C 86.2212 211.86879 86.0952 211.7518 86.087204 211.6198C 86.0952 211.4888 86.2212 211.3708 86.418205 211.2988C 86.6242 211.2248 86.8962 211.1978 87.1862 211.2188M87.4382 211.6198C 87.4132 211.5008 86.9032 211.4798 86.8952 211.6198C 86.9032 211.7608 87.4132 211.7388 87.4382 211.6198" stroke="none" fill="#E7BC9E" fill-rule="nonzero" />
    <path id=""  transform="matrix(1 0 0 -1 0 316)"  d="M75.3177 207.229C 75.3817 207.404 75.3767 207.62 75.2827 207.82C 75.2107 207.97 75.0987 208.096 74.981705 208.192C 74.9487 208.218 74.9147 208.242 74.8807 208.266C 74.9917 208.383 75.0997 208.504 75.1977 208.633C 75.2837 208.747 75.3657 208.863 75.4427 208.98C 75.5227 209.098 75.6027 209.218 75.6787 209.338C 75.8327 209.577 75.9697 209.817 76.1267 210.048C 76.2827 210.281 76.4437 210.504 76.6197 210.709C 76.7957 210.913 77.0007 211.098 77.2237 211.256C 77.3527 211.345 77.413704 211.483 77.4097 211.62C 77.413704 211.757 77.3527 211.894 77.2237 211.984C 77.0007 212.141 76.7957 212.328 76.6197 212.532C 76.4437 212.736 76.2827 212.96 76.1267 213.191C 75.9697 213.423 75.8327 213.663 75.6787 213.903C 75.6027 214.022 75.5227 214.142 75.4427 214.259C 75.3657 214.378 75.2837 214.494 75.1977 214.607C 75.0997 214.737 74.9917 214.857 74.8807 214.974C 74.9147 214.999 74.9487 215.021 74.981705 215.048C 75.0987 215.144 75.2107 215.27 75.2827 215.42C 75.3767 215.62 75.3817 215.837 75.3177 216.011C 75.2557 216.184 75.1277 216.316 74.9377 216.336C 74.5727 216.376 74.2357 216.073 74.024704 215.67C 73.857704 215.769 73.6867 215.856 73.5067 215.923C 73.510704 215.933 73.5147 215.943 73.5187 215.955C 73.5617 216.117 73.635704 216.267 73.7017 216.42C 73.7717 216.571 73.8377 216.723 73.8557 216.893C 73.9027 217.33301 73.6247 217.636 73.2787 217.498C 72.8447 217.323 72.6017 216.674 72.5627 216.09C 72.357704 216.085 72.1547 216.052 71.954704 215.994C 71.9587 216.094 71.9647 216.195 71.9777 216.295C 71.9987 216.468 72.051704 216.641 72.0577 216.815C 72.0827 217.284 71.7677 217.475 71.4587 217.407C 71.2867 217.368 71.1267 217.251 71.0127 217.077C 70.899704 216.903 70.8267 216.674 70.8147 216.423C 70.8067 216.241 70.8207 216.054 70.8457 215.88C 70.8657 215.723 70.9207 215.562 70.913704 215.4C 70.7127 215.223 70.5157 215.015 70.3487 214.77701C 70.2717 214.973 70.1857 215.155 70.0687 215.293C 69.8547 215.545 69.5257 215.683 69.2427 215.371C 68.8937 214.981 68.9637 214.308 69.204704 213.968C 69.3487 213.771 69.5127 213.608 69.6807 213.464C 69.565704 213.123 69.4737 212.756 69.426704 212.377C 69.0157 212.532 68.5917 212.58 68.287704 211.956C 68.2477 211.873 68.2257 211.747 68.2247 211.62C 68.2257 211.494 68.2477 211.368 68.287704 211.285C 68.5917 210.661 69.0157 210.709 69.426704 210.864C 69.4737 210.484 69.565704 210.118 69.6807 209.777C 69.5127 209.632 69.3487 209.469 69.204704 209.272C 68.9637 208.932 68.8937 208.259 69.2427 207.87C 69.5257 207.557 69.8547 207.695 70.0687 207.948C 70.1857 208.086 70.2717 208.267 70.3487 208.464C 70.5157 208.225 70.7127 208.017 70.913704 207.84C 70.9207 207.678 70.8657 207.516 70.8457 207.36101C 70.8207 207.186 70.8067 207 70.8147 206.817C 70.8267 206.566 70.899704 206.338 71.0127 206.164C 71.1267 205.99 71.2867 205.873 71.4587 205.834C 71.7677 205.765 72.0827 205.956 72.0577 206.425C 72.051704 206.599 71.9987 206.772 71.9777 206.946C 71.9647 207.046 71.9587 207.146 71.954704 207.247C 72.1547 207.188 72.357704 207.156 72.5627 207.151C 72.6017 206.565 72.8447 205.918 73.2787 205.742C 73.6247 205.604 73.9027 205.908 73.8557 206.347C 73.8377 206.517 73.7717 206.67 73.7017 206.821C 73.635704 206.973 73.5617 207.124 73.5187 207.286C 73.5147 207.298 73.510704 207.307 73.5067 207.318C 73.6867 207.384 73.857704 207.471 74.024704 207.571C 74.2357 207.168 74.5727 206.864 74.9377 206.905C 75.1277 206.924 75.2557 207.055 75.3177 207.229zM73.4877 216.518C 73.510704 216.555 73.5077 216.542 73.4877 216.518zM73.4877 206.722C 73.5077 206.698 73.510704 206.685 73.4877 206.722zM73.7107 208.569C 73.3317 208.351 72.9357 208.252 72.5437 208.277C 72.1507 208.302 71.7617 208.453 71.4207 208.725C 71.0777 208.997 70.7627 209.389 70.5467 209.882C 70.3167 210.376 70.1897 210.967 70.1667 211.62C 70.1897 212.272 70.3167 212.865 70.5467 213.358C 70.7627 213.851 71.0777 214.244 71.4207 214.515C 71.7617 214.788 72.1507 214.938 72.5437 214.964C 72.9357 214.989 73.3317 214.889 73.7107 214.672C 73.9907 214.508 74.2377 214.289 74.4617 214.041C 74.6877 213.792 74.8767 213.515 75.0817 213.231C 75.2857 212.946 75.4737 212.656 75.6817 212.381C 75.8927 212.105 76.1087 211.844 76.3427 211.62C 76.1087 211.395 75.8927 211.135 75.6817 210.86C 75.4737 210.585 75.2857 210.294 75.0817 210.009C 74.8767 209.725 74.6877 209.449 74.4617 209.2C 74.2377 208.952 73.9907 208.732 73.7107 208.569z" stroke="#E7BC9E" stroke-width="0.283" fill="none" />
    <path id=""  transform="matrix(1 0 0 -1 0 316)"  d="M75.350395 211.61931L75.350395 211.61931L75.350395 211.61931L75.350395 211.6203C 75.3584 211.7543 75.324394 211.8923 75.24339 211.98131C 75.0534 212.1963 74.8474 212.4313 74.6514 212.6643C 74.4534 212.8993 74.2474 213.1313 74.029396 213.3383C 73.5914 213.7493 73.1194 214.06331 72.5244 214.0233C 72.1244 213.9953 71.6604 213.7393 71.3134 213.3063C 71.140396 213.0903 70.9814 212.8313 70.8884 212.5453C 70.7924 212.25931 70.74339 211.9453 70.7584 211.61931C 70.74339 211.2953 70.7924 210.98131 70.8884 210.6953C 70.9814 210.4093 71.140396 210.1503 71.3134 209.93431C 71.6604 209.5013 72.1244 209.24431 72.5244 209.2173C 73.1194 209.1773 73.5914 209.49031 74.029396 209.9023C 74.2474 210.1083 74.4534 210.34131 74.6514 210.57631C 74.8474 210.80931 75.0534 211.04431 75.24339 211.25931C 75.324394 211.3483 75.3584 211.4863 75.350395 211.61931zM73.2224 210.5153C 72.960396 210.3643 72.558395 210.32231 72.210396 210.46231C 71.8614 210.6013 71.5844 210.9303 71.5684 211.48831C 71.571396 211.52931 71.5704 211.5733 71.5664 211.61931C 71.5704 211.6673 71.571396 211.71031 71.5684 211.7513C 71.5844 212.30931 71.8614 212.6393 72.210396 212.7783C 72.558395 212.9183 72.960396 212.87631 73.2224 212.7243C 73.6624 212.4673 74.029396 212.03131 74.377396 211.61931C 74.029396 211.2093 73.6624 210.7733 73.2224 210.5153z" stroke="#E7BC9E" stroke-width="0.283" fill="none" />
    <path id=""  transform="matrix(1 0 0 -1 0 316)"  d="M87.062 214.3942C 87.193 214.23619 87.402 214.0802 87.653 213.9552C 87.906 213.8282 88.138 213.75119 88.327995 213.7112C 88.52 213.6712 88.655 213.6742 88.753 213.7052C 88.784996 213.7052 88.808 213.7132 88.812996 213.73819C 88.831 213.7542 88.826996 213.77919 88.811 213.8082C 88.783 213.9922 88.514 214.3242 88.048996 214.63719C 87.812 214.7932 87.573 214.8972 87.372 214.9292C 87.171 214.9632 87.002 214.9292 86.945 214.8192C 86.915 214.7652 86.909 214.6992 86.927 214.6272C 86.951 214.55319 86.997 214.47319 87.062 214.3942M88.114 214.1422C 88.027 214.0602 87.575 214.2972 87.644 214.4142C 87.71 214.5342 88.141 214.2592 88.114 214.1422" stroke="none" fill="#E7BC9E" fill-rule="nonzero" />
    <path id=""  transform="matrix(1 0 0 -1 0 316)"  d="M86.5306 212.9068C 86.692604 212.78981 86.9476 212.69081 87.2216 212.6358C 87.498604 212.5798 87.7386 212.5668 87.9296 212.57881C 88.1246 212.58981 88.2686 212.62381 88.3416 212.67981C 88.3706 212.68881 88.3926 212.70381 88.3916 212.7268C 88.4056 212.7478 88.3976 212.7688 88.3756 212.7928C 88.3346 212.87581 88.232605 212.97481 88.0836 213.07681C 87.9316 213.17981 87.7236 213.28781 87.4646 213.3778C 87.1906 213.4718 86.9216 213.51581 86.706604 213.50081C 86.4856 213.4868 86.3476 213.4058 86.3076 213.2848C 86.2716 213.16681 86.3696 213.0238 86.5306 212.9068M87.0866 213.0758C 87.1256 213.20581 87.6126 213.0538 87.6116 212.9358C 87.5756 212.88681 87.442604 212.88881 87.3146 212.9198C 87.1876 212.9498 87.0656 213.01381 87.0866 213.0758" stroke="none" fill="#E7BC9E" fill-rule="nonzero" />
    <path id=""  transform="matrix(1 0 0 -1 0 316)"  d="M72.4079 212.0114C 72.3739 211.9614 72.3479 211.9084 72.328896 211.8554L72.328896 211.8554L72.316895 211.8244L72.316895 211.8244L72.313896 211.81639C 72.2959 211.7564 72.2829 211.6934 72.2819 211.6194C 72.2829 211.5474 72.2959 211.4844 72.313896 211.4244L72.313896 211.4244L72.316895 211.4154L72.316895 211.4154L72.328896 211.38539C 72.3479 211.3314 72.3739 211.2794 72.4079 211.2294C 72.6259 210.88339 73.052895 210.9324 73.2569 211.24539C 73.330894 211.3584 73.3659 211.4894 73.3629 211.6194C 73.3659 211.7504 73.330894 211.8824 73.2569 211.9944C 73.052895 212.3084 72.6259 212.35739 72.4079 212.0114z" stroke="#E7BC9E" stroke-width="0.283" fill="none" />
    <path id=""  transform="matrix(1 0 0 -1 0 316)"  d="M88.4618 215.0977C 88.8778 214.7417 89.2408 214.5927 89.427795 214.6077C 89.45879 214.60071 89.4818 214.6037 89.4918 214.62871C 89.51579 214.6387 89.5198 214.6617 89.512794 214.6927C 89.527794 214.8867 89.3648 215.2657 88.9928 215.6907C 88.80679 215.9017 88.5998 216.0647 88.4098 216.1517C 88.22379 216.2357 88.0598 216.2377 87.9658 216.1537C 87.8808 216.05771 87.884796 215.8887 87.9748 215.6947C 88.068794 215.4987 88.2418 215.2867 88.4618 215.0977M88.5368 215.5827C 88.638794 215.6757 88.984795 215.3007 88.9208 215.1987C 88.81979 215.1357 88.443794 215.4807 88.5368 215.5827" stroke="none" fill="#E7BC9E" fill-rule="nonzero" />
    <path id=""  transform="matrix(1 0 0 -1 0 316)"  d="M77.7796 226.7196C 77.9266 226.8116 78.0476 226.9436 78.1856 227.0506C 78.2666 227.1106 78.3476 227.1686 78.4346 227.2186C 78.4826 227.0196 78.5586 226.8256 78.6556 226.6466C 78.4186 226.4786 78.1846 226.2686 78.0206 226.0376C 77.8606 225.8036 77.7696 225.5556 77.802605 225.3226C 77.8576 224.9536 78.2576 224.8646 78.6106 225.1276C 78.8806 225.3326 79.0196 225.6456 79.2526 225.8876C 79.260605 225.8966 79.2676 225.9036 79.274605 225.9126C 79.4216 225.7906 79.5826 225.68561 79.7516 225.5916C 79.5126 225.2036 79.4206 224.7616 79.6336 224.4696C 79.858604 224.1666 80.3516 224.2656 80.5986 224.6276C 80.692604 224.7646 80.7496 224.9196 80.7716 225.0716C 80.7766 225.1126 80.7786 225.1546 80.7836 225.1966C 80.9406 225.1596 81.0976 225.1276 81.2576 225.1076C 81.539604 225.0726 81.8286 225.0526 82.108604 225.0436C 82.3886 225.0366 82.6716 225.0286 82.9496 225.0106C 83.5016 224.9836 84.0496 224.8976 84.5426 224.6726C 84.6846 224.6076 84.8366 224.6176 84.955605 224.6866C 85.0746 224.75461 85.1606 224.87961 85.1746 225.0376C 85.1976 225.3116 85.2626 225.5696 85.3496 225.8296C 85.3936 225.9586 85.441605 226.0876 85.4966 226.2146C 85.5526 226.33861 85.6126 226.4626 85.6746 226.5866C 85.9216 227.0906 86.219604 227.5666 86.4376 228.1046C 86.4996 228.25461 86.5516 228.4046 86.5986 228.5586C 86.636604 228.5406 86.6736 228.5226 86.7126 228.5066C 86.8556 228.4496 87.0206 228.4166 87.1856 228.4346C 87.622604 228.4706 87.9576 228.8406 87.8076 229.1896C 87.6616 229.5186 87.2286 229.6676 86.7746 229.6486C 86.7766 229.8436 86.7656 230.0386 86.732605 230.22661C 86.7446 230.2286 86.7556 230.2296 86.7676 230.2326C 87.094604 230.3136 87.4386 230.2696 87.7496 230.40761C 88.1546 230.5796 88.2796 230.9696 87.9866 231.2026C 87.8026 231.3476 87.538605 231.4006 87.2566 231.3716C 86.9756 231.3436 86.6726 231.2496 86.4066 231.1276C 86.3016 231.3016 86.1726 231.4596 86.0236 231.6026C 86.1106 231.6496 86.1996 231.6996 86.2936 231.7366C 86.455605 231.8026 86.6316 231.8416 86.7856 231.9216C 87.204605 232.1376 87.2116 232.5106 86.998604 232.7406C 86.7626 232.9986 86.2736 233.0366 85.8246 232.8086C 85.6626 232.7216 85.510605 232.6096 85.3696 232.5056C 85.2436 232.4116 85.1306 232.2856 84.9856 232.2126C 84.732605 232.2966 84.4576 232.3546 84.163605 232.3856C 84.2976 232.5476 84.4116 232.7146 84.4726 232.8876C 84.5826 233.2026 84.5376 233.5576 84.1276 233.6416C 83.872604 233.6926 83.6056 233.6226 83.3806 233.4926C 83.1556 233.3616 82.9796 233.1606 82.8916 232.9706C 82.7906 232.7486 82.7296 232.5256 82.6876 232.31061C 82.331604 232.2406 81.9746 232.1236 81.6126 231.9826C 81.5786 232.2006 81.5186 232.4046 81.3806 232.5516C 81.2416 232.6976 81.0226 232.7876 80.677605 232.7556C 80.5856 232.7476 80.4656 232.7016 80.3556 232.6386C 80.2446 232.5746 80.1456 232.4936 80.0916 232.4186C 79.6986 231.8426 79.956604 231.4946 80.2966 231.2206C 79.9956 230.9776 79.7126 230.7316 79.4806 230.4536C 79.2716 230.5246 79.0486 230.5836 78.8066 230.6076C 78.3836 230.6566 77.7766 230.36661 77.6106 229.8756C 77.4826 229.4776 77.7666 229.2616 78.0926 229.2006C 78.2726 229.1666 78.4746 229.1806 78.6806 229.2146C 78.5626 228.9446 78.4716 228.6846 78.4236 228.4166C 78.288605 228.3286 78.1216 228.2946 77.9786 228.2326C 77.8186 228.1636 77.6436 228.0926 77.4906 227.99161C 77.0726 227.7166 76.8556 227.2846 76.9666 226.9446C 77.0656 226.6416 77.3806 226.4706 77.7796 226.7196zM87.2426 230.5316C 87.2856 230.5316 87.273605 230.5276 87.2426 230.5316zM79.442604 228.4196C 79.5576 229.2906 80.2006 230.2726 81.3276 230.9566C 81.8996 231.2786 82.4906 231.4466 83.0276 231.5076C 83.5726 231.5536 84.0606 231.4996 84.4726 231.3276C 85.2956 230.9956 85.7526 230.3006 85.7516 229.42061C 85.7516 228.7616 85.4786 228.1446 85.1866 227.5126C 85.0366 227.2036 84.885605 226.8816 84.748604 226.5656C 84.609604 226.2536 84.4956 225.9306 84.4206 225.6106C 84.2636 225.65761 84.1006 225.6966 83.9336 225.7306C 83.7696 225.7596 83.6006 225.7816 83.4296 225.8026C 83.2566 225.8206 83.0826 225.83861 82.9096 225.8566C 82.7356 225.8696 82.5636 225.8826 82.3926 225.8956C 81.6966 225.9606 81.0296 226.0276 80.456604 226.3606C 79.6966 226.7986 79.3186 227.5446 79.442604 228.4196zM78.7536 225.6286C 78.7416 225.6006 78.7326 225.5926 78.7536 225.6286z" stroke="#E7BC9E" stroke-width="0.283" fill="none" />
    <path id=""  transform="matrix(1 0 0 -1 0 316)"  d="M81.7704 226.7515C 82.3414 226.5915 82.991394 226.5005 83.5524 226.3875C 83.671394 226.3615 83.810394 226.3985 83.9234 226.4695L83.9234 226.4695L83.9244 226.4695C 84.043396 226.5315 84.144394 226.6335 84.1804 226.7495C 84.268394 227.0265 84.378395 227.3075 84.4804 227.6015C 84.5814 227.8965 84.6814 228.1895 84.753395 228.4785C 84.8954 229.0585 84.9244 229.6365 84.5944 230.1275C 84.3724 230.4585 83.920395 230.7245 83.366394 230.8185C 82.8204 230.9015 82.1664 230.8135 81.6244 230.4435C 81.4784 230.3705 81.3414 230.2865 81.2164 230.1915C 81.0944 230.0915 80.9824 229.9835 80.8824 229.86751C 80.684395 229.6365 80.530396 229.3855 80.435394 229.1205C 80.240395 228.5945 80.2424 228.0735 80.420395 227.71451C 80.683395 227.1825 81.1954 226.9225 81.7704 226.7515zM81.4294 229.1725C 81.517395 229.3595 81.670395 229.5395 81.9134 229.6795C 81.9504 229.6965 81.990395 229.7185 82.029396 229.7445C 82.072395 229.7665 82.1104 229.7875 82.143394 229.8125C 82.629395 230.0925 83.0674 229.9955 83.3594 229.7715C 83.6534 229.5425 83.8184 229.17351 83.8184 228.86751C 83.8164 228.3555 83.6114 227.8325 83.4374 227.31151C 82.8964 227.4225 82.3454 227.4995 81.8984 227.7575C 81.6324 227.9105 81.394394 228.2375 81.3444 228.6065C 81.3194 228.7905 81.3404 228.9855 81.4294 229.1725z" stroke="#E7BC9E" stroke-width="0.283" fill="none" />
    <path id=""  transform="matrix(1 0 0 -1 0 316)"  d="M82.5456 228.0993C 82.6826 228.0903 82.8156 228.1233 82.928604 228.1903C 83.0426 228.25531 83.1386 228.3533 83.1976 228.47531C 83.2816 228.6463 83.2826 228.8253 83.2106 228.9673C 83.1386 229.1093 82.9896 229.2153 82.7876 229.2183C 82.7286 229.2233 82.6696 229.2173 82.6126 229.2063L82.6126 229.2063L82.581604 229.20131L82.581604 229.20131L82.5716 229.19931C 82.511604 229.18431 82.4506 229.1613 82.3876 229.1253C 82.3236 229.08931 82.2746 229.0473 82.2316 229.0023L82.2316 229.0023L82.2246 228.9953L82.2246 228.9953L82.2046 228.9713C 82.1666 228.9273 82.1326 228.88031 82.1066 228.8273C 81.9166 228.4603 82.1726 228.11731 82.5456 228.0993z" stroke="#E7BC9E" stroke-width="0.283" fill="none" />
    <path id=""  transform="matrix(1 0 0 -1 0 316)"  d="M91.222305 217.5755C 91.1043 217.7455 90.957306 217.8495 90.835304 217.81349C 90.7183 217.7745 90.63631 217.6425 90.6213 217.4305C 90.6023 217.2235 90.641304 216.9645 90.7303 216.6975C 90.819305 216.4295 90.929306 216.2115 91.0353 216.0525C 91.0863 215.9715 91.13731 215.9075 91.1873 215.8575C 91.237305 215.8035 91.2843 215.7655 91.3283 215.74449C 91.3503 215.7225 91.37231 215.7135 91.3923 215.7285C 91.416306 215.7285 91.430305 215.7495 91.4403 215.7785C 91.4943 215.8485 91.529305 215.9865 91.541306 216.1735C 91.554306 216.3565 91.5453 216.5865 91.4943 216.8565C 91.4403 217.1395 91.3413 217.4035 91.222305 217.5755M91.1843 216.5085C 91.06731 216.50749 90.91431 216.99449 91.043304 217.0325C 91.1073 217.0555 91.1703 216.9325 91.2013 216.8065C 91.2323 216.6775 91.23431 216.5435 91.1843 216.5085" stroke="none" fill="#E7BC9E" fill-rule="nonzero" />
    <path id=""  transform="matrix(1 0 0 -1 0 316)"  d="M90.18581 216.42819C 90.0598 216.6892 89.9008 216.9092 89.7378 217.0462C 89.6568 217.1162 89.575806 217.16519 89.4988 217.1912C 89.424805 217.21219 89.356804 217.20619 89.3018 217.1752C 89.186806 217.1162 89.1548 216.9402 89.1938 216.7322C 89.230804 216.5242 89.342804 216.27519 89.506805 216.0342C 89.814804 215.5862 90.1358 215.3362 90.311806 215.30919C 90.341805 215.29219 90.36581 215.2892 90.381805 215.30719C 90.4058 215.3122 90.4148 215.3342 90.4158 215.3682C 90.4438 215.4612 90.44981 215.5902 90.4128 215.77519C 90.3768 215.95619 90.3058 216.18219 90.18581 216.42819M89.7058 216.4762C 89.8228 216.5452 90.0598 216.0932 89.97681 216.0062C 89.8598 215.9792 89.5868 216.4102 89.7058 216.4762" stroke="none" fill="#E7BC9E" fill-rule="nonzero" />
    <path id=""  transform="matrix(1 0 0 -1 0 316)"  d="M92.4997 218.0323C 92.3727 218.0253 92.257706 217.9053 92.1837 217.7173C 92.1097 217.5213 92.079704 217.2583 92.0967 216.9783C 92.1127 216.6963 92.163704 216.4583 92.2247 216.27931C 92.285706 216.0993 92.3607 215.9613 92.437706 215.9053C 92.4557 215.8773 92.4757 215.8643 92.4997 215.8733C 92.523705 215.8643 92.5447 215.8773 92.5617 215.9053C 92.6387 215.9613 92.7137 216.0993 92.774704 216.27931C 92.8367 216.4583 92.8877 216.6963 92.9037 216.9783C 92.9207 217.2583 92.8897 217.5213 92.815704 217.7173C 92.7427 217.9053 92.6267 218.0253 92.4997 218.0323M92.4997 216.6813C 92.38171 216.7073 92.3597 217.2173 92.4997 217.2243C 92.6397 217.2173 92.618706 216.7073 92.4997 216.6813" stroke="none" fill="#E7BC9E" fill-rule="nonzero" />
    <path id=""  transform="matrix(1 0 0 -1 0 316)"  d="M94.1651 217.81349C 94.0431 217.8495 93.8961 217.7455 93.7781 217.5755C 93.658104 217.4035 93.560104 217.1395 93.505104 216.8565C 93.4551 216.5865 93.4461 216.3565 93.4591 216.1735C 93.4701 215.9865 93.505104 215.8485 93.560104 215.7785C 93.5701 215.7495 93.5841 215.7285 93.6071 215.7285C 93.6281 215.7135 93.6491 215.7225 93.672104 215.74449C 93.7151 215.7655 93.7621 215.8035 93.8131 215.8575C 93.8621 215.9075 93.9131 215.9715 93.9651 216.0525C 94.0701 216.2115 94.1801 216.4295 94.2701 216.6975C 94.3591 216.9645 94.3981 217.2235 94.379105 217.4305C 94.3631 217.6425 94.282104 217.7745 94.1651 217.81349M93.8161 216.5085C 93.7651 216.5435 93.7671 216.6775 93.7981 216.8065C 93.8291 216.9325 93.893105 217.0555 93.9561 217.0325C 94.0851 216.99449 93.9321 216.50749 93.8161 216.5085" stroke="none" fill="#E7BC9E" fill-rule="nonzero" />
    <path id=""  transform="matrix(1 0 0 -1 0 316)"  d="M94.6176 215.30719C 94.6346 215.2892 94.6586 215.29219 94.6876 215.30919C 94.8646 215.3362 95.1856 215.5862 95.4926 216.0342C 95.6566 216.27519 95.7696 216.5242 95.8066 216.7322C 95.844604 216.9402 95.8136 217.1162 95.6986 217.1752C 95.6436 217.20619 95.5756 217.21219 95.5006 217.1912C 95.4246 217.16519 95.3426 217.1162 95.261604 217.0462C 95.0996 216.9092 94.940605 216.6892 94.8146 216.42819C 94.6936 216.18219 94.622604 215.95619 94.5876 215.77519C 94.5506 215.5902 94.5556 215.4612 94.5846 215.3682C 94.5846 215.3342 94.593605 215.3122 94.6176 215.30719M95.2946 216.4762C 95.413605 216.4102 95.1406 215.9792 95.0226 216.0062C 94.9396 216.0932 95.176605 216.5452 95.2946 216.4762" stroke="none" fill="#E7BC9E" fill-rule="nonzero" />
    <path id=""  transform="matrix(1 0 0 -1 0 316)"  d="M97.2506 230.40791C 97.5626 230.2689 97.9056 230.31291 98.2336 230.2319C 98.2446 230.22891 98.2546 230.2279 98.2666 230.2259C 98.235596 230.03891 98.2236 229.8439 98.2266 229.6479C 97.7716 229.66791 97.3376 229.5179 97.193596 229.1889C 97.0416 228.84091 97.3776 228.46991 97.8156 228.4339C 97.9796 228.4169 98.1446 228.4499 98.2866 228.50691C 98.3256 228.52191 98.3626 228.54091 98.4026 228.5579C 98.4476 228.4049 98.499596 228.25491 98.5636 228.10391C 98.7806 227.56691 99.0786 227.09091 99.3246 226.5869C 99.387596 226.4629 99.4466 226.33891 99.5026 226.2149C 99.5576 226.0879 99.6066 225.95891 99.6506 225.82991C 99.7366 225.5699 99.8026 225.31091 99.8256 225.0379C 99.8386 224.87991 99.9256 224.75491 100.0446 224.68591C 100.1626 224.6179 100.3166 224.6069 100.457596 224.67291C 100.9506 224.89691 101.4986 224.9839 102.0496 225.01091C 102.3286 225.0289 102.610596 225.03691 102.8906 225.0439C 103.1716 225.0529 103.4596 225.0729 103.7416 225.10791C 103.9026 225.1279 104.0606 225.15991 104.2156 225.1969C 104.2206 225.1549 104.2226 225.1129 104.2296 225.0719C 104.2506 224.9199 104.3076 224.7639 104.4026 224.6279C 104.6486 224.26491 105.1416 224.1669 105.3656 224.46991C 105.5796 224.76091 105.4866 225.2039 105.2476 225.5919C 105.4176 225.6849 105.5776 225.79091 105.7256 225.9129C 105.7336 225.9039 105.7396 225.8959 105.7476 225.8869C 105.9806 225.64491 106.1196 225.3329 106.388596 225.1279C 106.7416 224.8649 107.1436 224.9539 107.1976 225.3229C 107.2316 225.5549 107.138596 225.8029 106.9796 226.0379C 106.8166 226.26791 106.5806 226.4779 106.3436 226.6459C 106.4426 226.82591 106.5186 227.0189 106.5656 227.2189C 106.6526 227.1689 106.7346 227.1109 106.8146 227.0509C 106.9516 226.94391 107.0736 226.81091 107.2206 226.7189C 107.6186 226.46991 107.9356 226.6409 108.0336 226.9449C 108.1456 227.28491 107.9266 227.7169 107.5086 227.99191C 107.3576 228.09291 107.1816 228.16391 107.0226 228.23291C 106.8776 228.2949 106.7116 228.3289 106.5756 228.4169C 106.5276 228.6839 106.4376 228.9449 106.319595 229.2149C 106.526596 229.1799 106.7276 229.1669 106.9076 229.20091C 107.2336 229.26091 107.5186 229.47691 107.388596 229.8759C 107.2236 230.36691 106.6166 230.6569 106.194595 230.6069C 105.9516 230.58391 105.7296 230.5249 105.5206 230.4539C 105.2866 230.73091 105.0036 230.97691 104.7036 231.21991C 105.0426 231.4949 105.3006 231.84291 104.9076 232.4189C 104.8556 232.49391 104.7546 232.5749 104.6456 232.63791C 104.5346 232.7019 104.4146 232.74791 104.3216 232.7559C 103.9776 232.7879 103.7586 232.6979 103.6196 232.55191C 103.4816 232.4049 103.4206 232.20091 103.3866 231.98291C 103.0256 232.1239 102.6676 232.2409 102.3126 232.3099C 102.2706 232.52591 102.2086 232.7489 102.1086 232.96991C 102.0206 233.1609 101.8446 233.36191 101.6196 233.4929C 101.3956 233.62291 101.1266 233.6929 100.8716 233.6409C 100.4616 233.5569 100.4176 233.20291 100.5276 232.8869C 100.5886 232.7149 100.7016 232.54791 100.8356 232.38591C 100.5416 232.35391 100.2676 232.2969 100.0146 232.2129C 99.8696 232.2859 99.7556 232.41191 99.6296 232.5059C 99.4886 232.60991 99.3366 232.7209 99.1746 232.8079C 98.7266 233.03691 98.2376 232.9989 98.0006 232.7409C 97.7886 232.51091 97.7956 232.1369 98.2136 231.9219C 98.3676 231.8419 98.5446 231.8029 98.7066 231.73691C 98.8006 231.6999 98.8896 231.6499 98.9776 231.60191C 98.8276 231.4599 98.6986 231.30191 98.5926 231.1279C 98.3266 231.24991 98.0256 231.3439 97.7426 231.3719C 97.4616 231.40091 97.1966 231.34691 97.012596 231.20291C 96.7196 230.9689 96.8446 230.57991 97.2506 230.40791zM106.2456 225.6289C 106.2686 225.59291 106.2576 225.5999 106.2456 225.6289zM100.5276 231.32791C 100.9396 231.49991 101.4276 231.5529 101.9726 231.5079C 102.5086 231.4469 103.1006 231.2789 103.6716 230.95691C 104.7986 230.27191 105.443596 229.29091 105.5566 228.4199C 105.6806 227.5449 105.3036 226.7989 104.5426 226.3609C 103.9696 226.02791 103.3036 225.9609 102.6086 225.89491C 102.4366 225.8829 102.263596 225.8699 102.0906 225.85591C 101.9176 225.83891 101.7436 225.8209 101.5696 225.8029C 101.3996 225.7819 101.2316 225.7599 101.0666 225.7299C 100.8996 225.6969 100.735596 225.65791 100.5786 225.6109C 100.5036 225.9299 100.3896 226.2539 100.2506 226.5659C 100.1146 226.88191 99.9636 227.2039 99.8136 227.5119C 99.5216 228.1439 99.2486 228.76091 99.2486 229.42091C 99.2466 230.3009 99.7036 230.99591 100.5276 231.32791zM97.7566 230.5319C 97.7266 230.52791 97.7136 230.5319 97.7566 230.5319z" stroke="#E7BC9E" stroke-width="0.283" fill="none" />
    <path id=""  transform="matrix(1 0 0 -1 0 316)"  d="M100.519295 227.6011C 100.62029 227.3071 100.73129 227.0271 100.8193 226.7501C 100.85629 226.6331 100.9563 226.5321 101.076294 226.4691C 101.1903 226.3981 101.32829 226.3621 101.447296 226.3871C 102.00729 226.5001 102.658295 226.59111 103.229294 226.7511C 103.8043 226.9221 104.3173 227.1821 104.5793 227.7141C 104.756294 228.0741 104.7603 228.5941 104.5653 229.12111C 104.4703 229.3851 104.3153 229.63611 104.117294 229.8681C 104.017296 229.98311 103.906296 230.09111 103.783295 230.1911C 103.659294 230.28711 103.52229 230.37111 103.3753 230.4441C 102.8333 230.81311 102.1803 230.90111 101.63329 230.8181C 101.0793 230.7241 100.6273 230.4581 100.4053 230.1271C 100.075294 229.63611 100.10529 229.0581 100.24529 228.4781C 100.3183 228.1891 100.4183 227.8961 100.519295 227.6011zM101.6413 229.7711C 101.9323 229.99611 102.37029 230.0921 102.85629 229.8121C 102.8903 229.7881 102.9283 229.7661 102.9713 229.7451C 103.0103 229.71811 103.048294 229.6971 103.086296 229.67911C 103.32829 229.5401 103.4833 229.3601 103.5713 229.1721C 103.659294 228.9851 103.6813 228.7911 103.656296 228.60611C 103.60529 228.2381 103.367294 227.9111 103.102295 227.75711C 102.6543 227.5001 102.103294 227.4221 101.56329 227.3111C 101.3883 227.8331 101.184296 228.3551 101.1813 228.8681C 101.1813 229.1731 101.3463 229.5421 101.6413 229.7711z" stroke="#E7BC9E" stroke-width="0.283" fill="none" />
    <path id=""  transform="matrix(1 0 0 -1 0 316)"  d="M102.071 228.1901C 102.185 228.1241 102.318 228.09009 102.454 228.09909C 102.826996 228.1171 103.084 228.46109 102.893 228.82709C 102.868 228.8801 102.834 228.9271 102.796 228.9711L102.796 228.9711L102.775 228.9961L102.775 228.9961L102.768 229.00209C 102.725 229.04709 102.676 229.0891 102.613 229.1261C 102.549995 229.1621 102.488 229.1841 102.427 229.1991L102.427 229.1991L102.419 229.2011L102.419 229.2011L102.387 229.20709C 102.331 229.21709 102.271996 229.2231 102.213 229.2181C 102.009 229.21509 101.862 229.1091 101.79 228.96709C 101.717 228.82509 101.718 228.64609 101.801 228.4751C 101.862 228.35309 101.958 228.2551 102.071 228.1901z" stroke="#E7BC9E" stroke-width="0.283" fill="none" />
    <path id=""  transform="matrix(1 0 0 -1 0 316)"  d="M96.1892 213.8087C 96.1722 213.7787 96.169205 213.7547 96.1872 213.7377C 96.1922 213.7137 96.2142 213.7047 96.2482 213.7047C 96.3452 213.6747 96.4792 213.6717 96.6712 213.7117C 96.8612 213.75171 97.0942 213.8277 97.3462 213.9547C 97.5982 214.0807 97.8072 214.2357 97.9372 214.3937C 98.002205 214.47371 98.0482 214.55371 98.072205 214.6277C 98.0912 214.6987 98.0852 214.7657 98.0552 214.81871C 97.9982 214.9297 97.8302 214.9637 97.628204 214.9297C 97.4262 214.8967 97.1872 214.7937 96.9512 214.63771C 96.4862 214.3237 96.2172 213.9917 96.1892 213.8087M97.3562 214.4147C 97.4242 214.2977 96.9722 214.0607 96.8862 214.1427C 96.8592 214.2597 97.2902 214.5337 97.3562 214.4147" stroke="none" fill="#E7BC9E" fill-rule="nonzero" />
    <path id=""  transform="matrix(1 0 0 -1 0 316)"  d="M95.5076 214.62871C 95.5186 214.6037 95.5416 214.60071 95.5716 214.6077C 95.7586 214.5927 96.122604 214.7417 96.5386 215.0977C 96.7576 215.2867 96.9306 215.4987 97.0246 215.6947C 97.1156 215.8887 97.1196 216.05771 97.0336 216.1537C 96.9406 216.2377 96.775604 216.2357 96.5906 216.1517C 96.400604 216.0647 96.1936 215.9017 96.0066 215.6907C 95.6346 215.2657 95.4726 214.8867 95.4866 214.6927C 95.4806 214.6617 95.483604 214.6387 95.5076 214.62871M96.4626 215.5827C 96.5556 215.4807 96.1806 215.1357 96.0786 215.1987C 96.0156 215.3007 96.3606 215.6757 96.4626 215.5827" stroke="none" fill="#E7BC9E" fill-rule="nonzero" />
    <path id=""  transform="matrix(1 0 0 -1 0 316)"  d="M96.9168 213.07681C 96.76781 212.97481 96.6648 212.87581 96.6248 212.7928C 96.60181 212.7688 96.5938 212.7478 96.6078 212.7268C 96.6078 212.70381 96.62981 212.68881 96.65781 212.67981C 96.730804 212.62381 96.8748 212.58981 97.0708 212.57881C 97.2618 212.5668 97.5018 212.5798 97.7788 212.6358C 98.0528 212.69081 98.3068 212.78981 98.4688 212.9068C 98.630806 213.0238 98.727806 213.16681 98.6928 213.2848C 98.6528 213.4058 98.5138 213.4868 98.2928 213.50081C 98.077805 213.51581 97.80881 213.4718 97.535805 213.3778C 97.2768 213.28781 97.0688 213.17981 96.9168 213.07681M97.9128 213.0758C 97.93481 213.01381 97.811806 212.9498 97.68581 212.9198C 97.5568 212.88881 97.423805 212.88681 97.3888 212.9358C 97.3878 213.0538 97.8748 213.20581 97.9128 213.0758" stroke="none" fill="#E7BC9E" fill-rule="nonzero" />
    <path id=""  transform="matrix(1 0 0 -1 0 316)"  d="M97.8142 212.02179C 97.5402 212.00279 97.3132 211.9518 97.141205 211.8908C 96.9692 211.8298 96.8392 211.7558 96.7852 211.6818C 96.7572 211.6648 96.7442 211.6438 96.753204 211.6198C 96.7442 211.5968 96.7572 211.57579 96.7852 211.5578C 96.8392 211.4838 96.9692 211.4108 97.141205 211.3488C 97.3132 211.2888 97.5402 211.2368 97.8142 211.2188C 98.1032 211.1978 98.375206 211.2248 98.58221 211.2988C 98.778206 211.3708 98.905205 211.4888 98.9122 211.6198C 98.905205 211.7518 98.778206 211.86879 98.58221 211.9418C 98.375206 212.0158 98.1032 212.0428 97.8142 212.02179M97.5612 211.6198C 97.587204 211.7388 98.097206 211.7608 98.1042 211.6198C 98.097206 211.4798 97.587204 211.5008 97.5612 211.6198" stroke="none" fill="#E7BC9E" fill-rule="nonzero" />
    <path id=""  transform="matrix(1 0 0 -1 0 316)"  d="M116.7128 211.9555C 116.4078 212.57951 115.984795 212.53151 115.5728 212.37651C 115.525795 212.7565 115.4338 213.12251 115.318794 213.4635C 115.48779 213.6085 115.650795 213.77151 115.7958 213.9685C 116.0368 214.3085 116.1068 214.9815 115.7578 215.37051C 115.4748 215.6835 115.1458 215.54451 114.93179 215.29251C 114.8148 215.15451 114.7278 214.97351 114.650795 214.77751C 114.484795 215.0155 114.287796 215.22351 114.0868 215.40051C 114.079796 215.5625 114.134796 215.72351 114.15379 215.8795C 114.179794 216.0545 114.193794 216.24051 114.1848 216.42351C 114.1728 216.6745 114.0998 216.9035 113.98679 217.0765C 113.873795 217.2505 113.7138 217.36751 113.541794 217.40651C 113.2318 217.47551 112.916794 217.28351 112.942795 216.8155C 112.9488 216.64151 113.00079 216.4685 113.0228 216.29451C 113.0358 216.1945 113.041794 216.09451 113.0448 215.9935C 112.845795 216.0525 112.6418 216.0845 112.4368 216.08951C 112.3978 216.6745 112.15479 217.32251 111.721794 217.49751C 111.37579 217.6365 111.09779 217.3325 111.1448 216.89351C 111.162796 216.72351 111.2288 216.57051 111.2978 216.41951C 111.3638 216.2675 111.4378 216.1165 111.4818 215.95451C 111.485794 215.94351 111.4888 215.9335 111.4928 215.9225C 111.3128 215.8565 111.14079 215.7695 110.97479 215.66951C 110.763794 216.07251 110.427795 216.3755 110.0618 216.33551C 109.872795 216.31651 109.7438 216.18451 109.6828 216.0115C 109.6178 215.8365 109.622795 215.6195 109.7178 215.41951C 109.788795 215.27051 109.901794 215.1445 110.0178 215.0475C 110.0508 215.02151 110.0858 214.9985 110.1188 214.9745C 110.0088 214.85751 109.900795 214.73651 109.802795 214.60751C 109.7158 214.4935 109.634796 214.3775 109.5578 214.2595C 109.4758 214.1425 109.3968 214.0225 109.32179 213.9035C 109.16779 213.6625 109.0308 213.42351 108.873795 213.19151C 108.7168 212.9595 108.55679 212.73651 108.3808 212.53151C 108.2038 212.32751 107.998795 212.14151 107.775795 211.98451C 107.6478 211.8945 107.5868 211.7575 107.5898 211.6195C 107.5868 211.4835 107.6478 211.3455 107.775795 211.25551C 107.998795 211.09851 108.2038 210.9125 108.3808 210.70851C 108.55679 210.50351 108.7168 210.2805 108.873795 210.04851C 109.0308 209.8175 109.16779 209.5765 109.32179 209.33751C 109.3968 209.2185 109.4758 209.09851 109.5578 208.98051C 109.634796 208.8625 109.7158 208.7465 109.802795 208.63351C 109.900795 208.50351 110.0088 208.38351 110.1188 208.26651C 110.0858 208.2415 110.0508 208.2185 110.0178 208.1925C 109.901794 208.09651 109.788795 207.9705 109.7178 207.8195C 109.622795 207.6195 109.6178 207.4035 109.6828 207.2295C 109.7438 207.05551 109.872795 206.92451 110.0618 206.90451C 110.427795 206.86351 110.763794 207.16751 110.97479 207.57051C 111.14079 207.47151 111.3128 207.3845 111.4928 207.31851C 111.4888 207.30751 111.485794 207.2975 111.4818 207.2855C 111.4378 207.1235 111.3638 206.97351 111.2978 206.82051C 111.2288 206.66951 111.162796 206.5175 111.1448 206.3475C 111.09779 205.9075 111.37579 205.6045 111.721794 205.7415C 112.15479 205.91751 112.3978 206.5655 112.4368 207.1515C 112.6418 207.1555 112.845795 207.1885 113.0448 207.2465C 113.041794 207.14651 113.0358 207.0455 113.0228 206.94551C 113.00079 206.7725 112.9488 206.5995 112.942795 206.4255C 112.916794 205.9555 113.2318 205.7655 113.541794 205.83351C 113.7138 205.87251 113.873795 205.9895 113.98679 206.16351C 114.0998 206.33751 114.1728 206.56651 114.1848 206.8175C 114.193794 206.99951 114.179794 207.18651 114.15379 207.36151C 114.134796 207.51651 114.079796 207.67851 114.0868 207.8405C 114.287796 208.0175 114.484795 208.22551 114.650795 208.4635C 114.7278 208.2675 114.8148 208.08551 114.93179 207.94751C 115.1458 207.6945 115.4748 207.55751 115.7578 207.8695C 116.1068 208.2595 116.0368 208.93251 115.7958 209.2725C 115.650795 209.46951 115.48779 209.6325 115.318794 209.77751C 115.4338 210.11751 115.525795 210.48451 115.5728 210.86351C 115.984795 210.70851 116.4078 210.6605 116.7128 211.2845C 116.7528 211.36751 116.773796 211.4935 116.775795 211.6195C 116.773796 211.7465 116.7528 211.87251 116.7128 211.9555zM111.511795 216.51851C 111.4928 216.5415 111.4898 216.55551 111.511795 216.51851zM111.511795 206.7225C 111.4898 206.6855 111.4928 206.69751 111.511795 206.7225zM114.4538 209.8825C 114.23779 209.38951 113.9228 208.9965 113.579796 208.72551C 113.23779 208.45251 112.84879 208.3025 112.456795 208.27751C 112.0638 208.25151 111.66779 208.3515 111.289795 208.5695C 111.009796 208.73251 110.762794 208.9515 110.538795 209.19951C 110.3118 209.4485 110.123795 209.72551 109.91779 210.0095C 109.7148 210.2935 109.526794 210.5845 109.317795 210.8605C 109.1068 211.13551 108.8918 211.39551 108.6578 211.6195C 108.8918 211.84451 109.1068 212.10551 109.317795 212.38051C 109.526794 212.6555 109.7148 212.94551 109.91779 213.2315C 110.123795 213.5155 110.3118 213.7915 110.538795 214.04051C 110.762794 214.28851 111.009796 214.50851 111.289795 214.67151C 111.66779 214.88951 112.0638 214.98851 112.456795 214.9635C 112.84879 214.9385 113.23779 214.7875 113.579796 214.5155C 113.9228 214.2435 114.23779 213.8515 114.4538 213.3585C 114.68279 212.8645 114.8098 212.2725 114.83379 211.6195C 114.8098 210.96751 114.68279 210.3755 114.4538 209.8825z" stroke="#E7BC9E" stroke-width="0.283" fill="none" />
    <path id=""  transform="matrix(1 0 0 -1 0 316)"  d="M113.687294 213.3059C 113.340294 213.7389 112.8743 213.9959 112.476295 214.0229C 111.880295 214.0629 111.409294 213.7499 110.9713 213.3389C 110.7513 213.1319 110.545296 212.8989 110.3483 212.6649C 110.1523 212.4309 109.947296 212.19589 109.756294 211.9809C 109.6763 211.8919 109.6413 211.7549 109.6493 211.6209L109.6493 211.6209L109.6493 211.6199C 109.6413 211.4859 109.6763 211.3479 109.756294 211.2589C 109.947296 211.0449 110.1523 210.8089 110.3483 210.5759C 110.545296 210.3419 110.7513 210.1079 110.9713 209.9019C 111.409294 209.4899 111.880295 209.1769 112.476295 209.2169C 112.8743 209.2449 113.340294 209.5019 113.687294 209.9339C 113.8593 210.1499 114.018295 210.4089 114.1123 210.6949C 114.2063 210.9809 114.256294 211.2959 114.241295 211.6199C 114.256294 211.9449 114.2063 212.2589 114.1123 212.5459C 114.018295 212.8319 113.8593 213.0909 113.687294 213.3059zM113.4323 211.4879C 113.4153 210.9299 113.1393 210.6009 112.7883 210.4629C 112.4413 210.3219 112.0383 210.3639 111.7773 210.5149C 111.337296 210.7729 110.9713 211.2099 110.6223 211.6199C 110.9713 212.0309 111.337296 212.4669 111.7773 212.72389C 112.0383 212.8769 112.4413 212.9189 112.7883 212.7779C 113.1393 212.6389 113.4153 212.3089 113.4323 211.7519C 113.4293 211.7109 113.4293 211.6679 113.4333 211.6199C 113.4293 211.5729 113.4293 211.5289 113.4323 211.4879z" stroke="#E7BC9E" stroke-width="0.283" fill="none" />
    <path id=""  transform="matrix(1 0 0 -1 0 316)"  d="M112.6833 211.8249L112.671295 211.8549C 112.6523 211.9089 112.6263 211.9619 112.59229 212.0119C 112.3733 212.3569 111.948296 212.3079 111.74329 211.9949C 111.6693 211.8829 111.63429 211.7509 111.6363 211.6199C 111.63429 211.4889 111.6693 211.35791 111.74329 211.24591C 111.948296 210.9319 112.3733 210.88391 112.59229 211.22891C 112.6263 211.2789 112.6523 211.33191 112.671295 211.38591L112.671295 211.38591L112.6833 211.41591L112.6833 211.41591L112.685295 211.42491C 112.7043 211.4839 112.71729 211.54791 112.7183 211.6199C 112.71729 211.6929 112.7043 211.75691 112.685295 211.8159L112.685295 211.8159L112.6833 211.8249z" stroke="#E7BC9E" stroke-width="0.283" fill="none" />
    <path id=""  transform="matrix(1 0 0 -1 0 316)"  d="M109.9713 201.9872C 109.961296 202.0572 109.937294 202.1252 109.893295 202.1812L109.893295 202.1812L109.864296 202.2232C 109.600296 202.6822 109.378296 203.1672 109.172295 203.6672C 108.9543 204.1722 108.7733 204.6822 108.5653 205.2002C 108.171295 206.2282 107.74429 207.2572 107.2203 208.1682C 106.965294 208.6232 106.6693 209.0522 106.367294 209.4372C 106.211296 209.6302 106.0443 209.8152 105.878296 209.9862C 105.711296 210.1582 105.5403 210.3182 105.354294 210.4662C 104.631294 211.0612 103.7933 211.4512 102.8703 211.62021C 103.7933 211.7902 104.631294 212.1792 105.354294 212.7742C 105.5403 212.9222 105.711296 213.0832 105.878296 213.2542C 106.0443 213.4252 106.211296 213.6102 106.367294 213.8032C 106.6693 214.1882 106.965294 214.6172 107.2203 215.0722C 107.74429 215.9832 108.171295 217.0122 108.5653 218.0402C 108.7733 218.5582 108.9543 219.0672 109.172295 219.5732C 109.378296 220.0722 109.600296 220.5582 109.864296 221.0172L109.864296 221.0172L109.893295 221.0582C 109.937294 221.1162 109.961296 221.1822 109.9713 221.2532L109.9713 221.2532L109.9723 221.2572C 109.990295 221.3892 109.95329 221.5352 109.879295 221.6612C 109.8073 221.7862 109.701294 221.8912 109.5783 221.9422L109.5783 221.9422L109.574295 221.9432C 109.50829 221.9702 109.436295 221.9802 109.364296 221.9712L109.364296 221.9712L109.31329 221.96521C 108.2603 221.9702 107.184296 222.1622 106.088295 222.3232C 104.9983 222.4912 103.9023 222.6402 102.8483 222.6402C 101.795296 222.6432 100.8043 222.5142 99.923294 222.1772C 99.489296 222.0172 99.075294 221.7962 98.70329 221.5372C 98.3303 221.2802 97.9873 220.9612 97.6803 220.6012C 98.003296 221.4962 98.0803 222.4052 97.9293 223.3312C 97.783295 224.2622 97.3993 225.1832 96.8703 226.0962C 96.3433 227.01021 95.6613 227.8762 94.9693 228.7432C 94.6233 229.1682 94.2763 229.6042 93.947296 230.0292C 93.783295 230.24521 93.6233 230.4632 93.4723 230.6862C 93.3213 230.9022 93.1773 231.1242 93.045296 231.3492L93.045296 231.3492L93.0253 231.3952C 92.9963 231.4622 92.9523 231.5172 92.89629 231.5622L92.89629 231.5622L92.893295 231.5652C 92.78729 231.64821 92.644295 231.69121 92.4993 231.6942C 92.35629 231.69121 92.211296 231.64821 92.1073 231.5652L92.1073 231.5652L92.104294 231.5622C 92.047295 231.5172 92.0023 231.4622 91.975296 231.3952L91.975296 231.3952L91.9543 231.3492C 91.822296 231.1242 91.6793 230.9022 91.5283 230.6862C 91.3763 230.4632 91.2173 230.24521 91.0523 230.0292C 90.7233 229.6042 90.3763 229.1682 90.0303 228.7432C 89.338295 227.8762 88.657295 227.01021 88.129295 226.0962C 87.601295 225.1832 87.21629 224.2622 87.0703 223.3312C 86.9183 222.4052 86.99629 221.4962 87.3193 220.6012C 87.0123 220.9612 86.6683 221.2802 86.297295 221.5372C 85.92529 221.7962 85.5113 222.0172 85.0773 222.1772C 84.1963 222.5142 83.20329 222.6432 82.1523 222.6402C 81.0973 222.6402 80.0003 222.4912 78.9113 222.3232C 77.8163 222.1622 76.740295 221.9702 75.6873 221.96521L75.6873 221.96521L75.63629 221.9712C 75.5643 221.9802 75.492294 221.9702 75.42529 221.9432L75.42529 221.9432L75.421295 221.9422C 75.2993 221.8912 75.19229 221.7862 75.11929 221.6612C 75.0473 221.5352 75.0103 221.3892 75.0283 221.2572L75.0283 221.2572L75.0283 221.2532C 75.0383 221.1822 75.06329 221.1162 75.10629 221.0582L75.10629 221.0582L75.13629 221.0172C 75.4003 220.5582 75.6203 220.0722 75.82829 219.5732C 76.045296 219.0672 76.227295 218.5582 76.435295 218.0402C 76.82829 217.0122 77.256294 215.9832 77.7803 215.0722C 78.034294 214.6172 78.3293 214.1882 78.63229 213.8032C 78.7883 213.6102 78.9543 213.4252 79.12129 213.2542C 79.28729 213.0832 79.4593 212.9222 79.6463 212.7742C 80.36929 212.1792 81.2063 211.7902 82.129295 211.62021C 81.2063 211.4512 80.36929 211.0612 79.6463 210.4662C 79.4593 210.3182 79.28729 210.1582 79.12129 209.9862C 78.9543 209.8152 78.7883 209.6302 78.63229 209.4372C 78.3293 209.0522 78.034294 208.6232 77.7803 208.1682C 77.256294 207.2572 76.82829 206.2282 76.435295 205.2002C 76.227295 204.6822 76.045296 204.1722 75.82829 203.6672C 75.6203 203.1672 75.4003 202.6822 75.13629 202.2232L75.13629 202.2232L75.10629 202.1812C 75.06329 202.1252 75.0383 202.0572 75.0283 201.9872L75.0283 201.9872L75.0283 201.9832C 75.0103 201.8512 75.0473 201.7062 75.11929 201.5802C 75.19229 201.4552 75.2993 201.3492 75.421295 201.2982L75.421295 201.2982L75.42529 201.2972C 75.492294 201.2702 75.5643 201.2592 75.63629 201.2692L75.63629 201.2692L75.6873 201.2752C 76.740295 201.2702 77.8163 201.07921 78.9113 200.9172C 80.0003 200.7502 81.0973 200.6002 82.1523 200.6002C 83.20329 200.5972 84.1963 200.7252 85.0773 201.0632C 85.5113 201.2232 85.92529 201.4442 86.297295 201.70421C 86.6683 201.9602 87.0123 202.2792 87.3193 202.6392C 86.99629 201.74521 86.9183 200.8352 87.0703 199.9102C 87.21629 198.9782 87.601295 198.0572 88.129295 197.1442C 88.657295 196.23021 89.338295 195.3642 90.0303 194.4982C 90.3763 194.0722 90.7233 193.63521 91.0523 193.2102C 91.2173 192.9962 91.3763 192.7772 91.5283 192.5542C 91.6793 192.3372 91.822296 192.1172 91.9543 191.8912L91.9543 191.8912L91.975296 191.8452C 92.0023 191.7782 92.047295 191.7222 92.104294 191.6782L92.104294 191.6782L92.1073 191.6752C 92.211296 191.59221 92.35629 191.5492 92.4993 191.5462C 92.644295 191.5492 92.78729 191.59221 92.893295 191.6752L92.893295 191.6752L92.89629 191.6782C 92.9523 191.7222 92.9963 191.7782 93.0253 191.8452L93.0253 191.8452L93.045296 191.8912C 93.1773 192.1172 93.3213 192.3372 93.4723 192.5542C 93.6233 192.7772 93.783295 192.9962 93.947296 193.2102C 94.2763 193.63521 94.6233 194.0722 94.9693 194.4982C 95.6613 195.3642 96.3433 196.23021 96.8703 197.1442C 97.3993 198.0572 97.783295 198.9782 97.9293 199.9102C 98.0803 200.8352 98.003296 201.74521 97.6803 202.6392C 97.9873 202.2792 98.3303 201.9602 98.70329 201.70421C 99.075294 201.4442 99.489296 201.2232 99.923294 201.0632C 100.8043 200.7252 101.795296 200.5972 102.8483 200.6002C 103.9023 200.6002 104.9983 200.7502 106.088295 200.9172C 107.184296 201.07921 108.2603 201.2702 109.31329 201.2752L109.31329 201.2752L109.364296 201.2692C 109.436295 201.2592 109.50829 201.2702 109.574295 201.2972L109.574295 201.2972L109.5783 201.2982C 109.701294 201.3492 109.8073 201.4552 109.879295 201.5802C 109.95329 201.7062 109.990295 201.8512 109.9723 201.9832L109.9723 201.9832L109.9713 201.9872zM101.892296 209.1942C 102.2353 209.0752 102.545296 208.9082 102.825294 208.69121C 102.8303 208.2232 102.756294 207.7692 102.64629 207.3252C 102.518295 206.8872 102.35629 206.4582 102.1203 206.0692C 101.670296 205.2792 101.0023 204.6152 100.1963 204.1442C 99.8703 204.2742 99.5683 204.4622 99.2903 204.70221C 99.699295 204.89821 100.1073 205.1402 100.4563 205.4502C 100.6403 205.5972 100.7933 205.7722 100.95329 205.9452C 101.0953 206.1272 101.242294 206.3102 101.351295 206.5142C 101.823296 207.3132 101.965294 208.2972 101.892296 209.1942zM104.1823 204.8762C 104.2513 205.0002 104.325294 205.1212 104.3863 205.2492C 104.447296 205.3762 104.506294 205.5052 104.56329 205.63521C 104.6913 205.2362 104.8183 204.8372 104.947296 204.4342C 104.533295 204.34421 104.1243 204.2552 103.715294 204.1672C 103.881294 204.3972 104.047295 204.6272 104.1823 204.8762zM103.4833 205.2812C 103.350296 205.0372 103.185295 204.8122 103.02229 204.5852C 102.93829 204.4752 102.8443 204.37021 102.753296 204.2632C 102.6623 204.1562 102.5693 204.05121 102.465294 203.95421C 102.211296 203.9252 101.9703 203.8972 101.71629 203.8912C 101.562294 203.8872 101.4113 203.8912 101.2613 203.9012C 101.893295 204.38521 102.421295 204.9882 102.8143 205.6672C 103.2073 206.3472 103.46629 207.10521 103.5693 207.8912C 103.6533 207.7682 103.7333 207.6382 103.8073 207.5022C 103.922295 207.2832 104.0253 207.0572 104.1263 206.8242C 103.9733 206.2802 103.767296 205.75821 103.4833 205.2812zM100.588295 206.9562C 100.492294 206.77121 100.3613 206.60721 100.2373 206.4402C 100.170296 206.3602 100.0973 206.2842 100.0273 206.2082L100.0273 206.2082L99.9183 206.09421L99.9183 206.09421L99.80029 205.9892C 99.49329 205.70421 99.11929 205.4812 98.728294 205.3032C 98.6093 205.4592 98.4953 205.6252 98.3833 205.8082C 98.8763 206.31621 99.3193 206.8752 99.6653 207.4902C 99.8483 207.7912 99.99329 208.1132 100.1363 208.4322C 100.1953 208.5982 100.27229 208.7562 100.3213 208.9252L100.3213 208.9252L100.406296 209.17421L100.406296 209.17421L100.476295 209.4272C 100.68829 209.4212 100.892296 209.4062 101.088295 209.3792C 101.1813 208.5292 101.0123 207.6722 100.588295 206.9562zM103.715294 219.0732C 104.1243 218.9852 104.533295 218.89621 104.947296 218.8062C 104.8183 218.4032 104.6913 218.0032 104.56329 217.60521C 104.506294 217.7352 104.447296 217.8642 104.3863 217.9922C 104.325294 218.12021 104.2513 218.2412 104.1823 218.3642C 104.047295 218.6132 103.881294 218.84221 103.715294 219.0732zM104.1263 216.4172C 104.0253 216.1832 103.922295 215.9582 103.8073 215.7382C 103.7333 215.6022 103.6533 215.4722 103.5693 215.3492C 103.46629 216.13521 103.2073 216.8922 102.8143 217.5732C 102.421295 218.2522 101.893295 218.8552 101.2613 219.3392C 101.4113 219.3492 101.562294 219.35321 101.71629 219.3492C 101.9703 219.3432 102.211296 219.3152 102.465294 219.2872C 102.5693 219.18921 102.6623 219.0842 102.753296 218.9772C 102.8443 218.8712 102.93829 218.7652 103.02229 218.6542C 103.185295 218.4282 103.350296 218.20421 103.4833 217.9592C 103.767296 217.48221 103.9733 216.9602 104.1263 216.4172zM102.1203 217.1712C 102.35629 216.7822 102.518295 216.3522 102.64629 215.9162C 102.756294 215.4712 102.8303 215.0172 102.825294 214.5492C 102.545296 214.3332 102.2353 214.1662 101.892296 214.0462C 101.965294 214.9432 101.823296 215.9272 101.351295 216.7262C 101.242294 216.9292 101.0953 217.1122 100.95329 217.2952C 100.7933 217.46721 100.6403 217.6432 100.4563 217.7902C 100.1073 218.1002 99.699295 218.34221 99.2903 218.5392C 99.5683 218.7782 99.8703 218.9662 100.1963 219.0962C 101.0023 218.6252 101.670296 217.9602 102.1203 217.1712zM99.80029 217.2512L99.9183 217.14621L99.9183 217.14621L100.0273 217.0332C 100.0973 216.9572 100.170296 216.8802 100.2373 216.7992C 100.3613 216.63321 100.492294 216.4682 100.588295 216.2852C 101.0123 215.5682 101.1813 214.7112 101.088295 213.8612C 100.892296 213.8342 100.68829 213.8192 100.476295 213.8132L100.476295 213.8132L100.406296 214.06621L100.406296 214.06621L100.3213 214.3152C 100.27229 214.4842 100.1953 214.6422 100.1363 214.8072C 99.99329 215.1272 99.8483 215.4492 99.6653 215.7502C 99.3193 216.3642 98.8763 216.9242 98.3833 217.4322C 98.4953 217.6152 98.6093 217.7812 98.728294 217.9372C 99.11929 217.75821 99.49329 217.53621 99.80029 217.2512zM99.5953 221.0492C 100.6093 221.5032 101.796295 221.4372 102.963295 221.49521C 103.409294 221.5252 103.85629 221.5062 104.32829 221.4772C 104.5653 221.4622 104.795296 221.4352 105.03529 221.40921C 105.2733 221.3812 105.518295 221.3542 105.754295 221.3172C 106.239296 221.24521 106.7233 221.1732 107.2033 221.1022C 107.4463 221.0682 107.6893 221.0372 107.9323 221.0112C 108.172295 220.9842 108.41029 220.9612 108.6503 220.9492C 108.434296 220.52121 108.2483 220.0752 108.062294 219.6192C 107.8843 219.1662 107.7043 218.7092 107.5253 218.2532L107.5253 218.2532L107.3913 217.9172L107.3913 217.9172L107.2473 217.5842C 107.1513 217.3642 107.0543 217.14821 106.9553 216.9382C 106.74329 216.5132 106.534294 216.1162 106.2873 215.7462C 106.1233 215.5002 105.976295 215.2502 105.824295 215.0022C 105.6663 214.7532 105.5123 214.5092 105.353294 214.2762C 105.186295 214.0412 105.0113 213.8172 104.82829 213.6122C 104.643295 213.4072 104.4313 213.21721 104.2103 213.0552C 103.7323 212.70221 103.156296 212.4892 102.5693 212.3762C 101.978294 212.2632 101.3583 212.2492 100.742294 212.2822C 100.7203 212.6422 100.659294 212.9962 100.59129 213.3462C 101.39729 213.3632 102.0853 213.4902 102.6783 213.7722C 103.2643 214.0502 103.769295 214.4852 104.170296 215.0292C 104.5823 215.5752 104.8913 216.2282 105.16029 216.9202C 105.2863 217.2632 105.407295 217.6172 105.5243 217.96721C 105.63229 218.31421 105.7523 218.6652 105.8703 218.9962C 105.906296 219.0932 105.88229 219.2132 105.825294 219.31421C 105.7663 219.4152 105.67429 219.49521 105.574295 219.5132C 105.2223 219.5732 104.864296 219.6472 104.50829 219.7252C 104.1403 219.7942 103.784294 219.8742 103.4163 219.9302C 103.048294 219.9852 102.6933 220.0362 102.3303 220.0492C 102.1513 220.0582 101.975296 220.0612 101.8033 220.0592C 101.6263 220.0532 101.45329 220.0402 101.28529 220.02121C 101.115295 220.0002 100.95229 219.9752 100.7893 219.93921C 100.6263 219.9012 100.4673 219.8542 100.31329 219.7992C 100.004295 219.68921 99.7203 219.5492 99.447296 219.3602C 98.9033 218.9872 98.448296 218.4552 98.033295 217.7682C 97.7613 218.0052 97.4823 218.2332 97.185295 218.4362C 97.7483 219.5402 98.4843 220.5532 99.5953 221.0492zM87.8833 222.4842C 87.9443 223.0272 88.1273 223.56421 88.3723 224.07721C 88.492294 224.34021 88.628296 224.5912 88.767296 224.8472C 88.836296 224.9772 88.906296 225.10721 88.9743 225.2372C 89.0433 225.3642 89.1133 225.4922 89.1793 225.62221C 89.2793 225.8182 89.3873 226.0152 89.503296 226.2132C 89.62129 226.4052 89.7473 226.5982 89.879295 226.7922C 90.142296 227.1902 90.434296 227.5572 90.7333 227.9492C 91.034294 228.3302 91.3443 228.7082 91.645294 229.0972C 91.947296 229.4762 92.239296 229.8662 92.4993 230.2722C 92.7613 229.8662 93.0533 229.4762 93.354294 229.0972C 93.656296 228.7082 93.96629 228.3302 94.2663 227.9492C 94.5663 227.5572 94.8583 227.1902 95.1203 226.7922C 95.2523 226.5982 95.3773 226.4052 95.4953 226.2132C 95.6123 226.0152 95.7213 225.8182 95.8213 225.62221C 95.8873 225.4922 95.9553 225.3642 96.0253 225.2372C 96.0943 225.10721 96.16229 224.9772 96.2323 224.8472C 96.3703 224.5912 96.50729 224.34021 96.6273 224.07721C 96.8723 223.56421 97.0553 223.0272 97.117294 222.4842C 97.1763 221.8782 97.0813 221.2912 96.8833 220.7242C 96.684296 220.1532 96.3893 219.6122 96.0523 219.0932C 95.8873 219.1622 95.729294 219.24721 95.560295 219.3052C 95.477295 219.3362 95.39629 219.3742 95.311295 219.4032L95.311295 219.4032L95.0583 219.4882C 95.4443 220.1922 95.6783 220.8522 95.729294 221.50821C 95.74329 221.67221 95.74429 221.8362 95.7373 222.0002C 95.728294 222.1612 95.7083 222.3202 95.6793 222.4802C 95.61929 222.7962 95.52229 223.1262 95.3853 223.4312C 95.2493 223.7392 95.0833 224.0572 94.8873 224.3502C 94.7893 224.4992 94.686295 224.64821 94.57829 224.79721C 94.4693 224.9452 94.35629 225.0832 94.239296 225.22821C 94.1223 225.37021 94.003296 225.5172 93.881294 225.6552C 93.7583 225.7932 93.6353 225.9312 93.5143 226.0672C 93.269295 226.3492 93.0253 226.6102 92.797295 226.88321C 92.73129 226.9632 92.616295 227.0052 92.4993 227.00821C 92.38429 227.0052 92.268295 226.9632 92.2023 226.88321C 91.975296 226.6102 91.7303 226.3492 91.4853 226.0672C 91.364296 225.9312 91.242294 225.7932 91.1183 225.6552C 90.99629 225.5172 90.8773 225.37021 90.7603 225.22821C 90.644295 225.0832 90.5303 224.9452 90.421295 224.79721C 90.3143 224.64821 90.2103 224.4992 90.1133 224.3502C 89.9163 224.0572 89.7493 223.7392 89.614296 223.4312C 89.477295 223.1262 89.380295 222.7962 89.3213 222.4802C 89.2913 222.3202 89.2713 222.1612 89.2623 222.0002C 89.254295 221.8362 89.25729 221.67221 89.270294 221.50821C 89.322296 220.8522 89.5553 220.1922 89.9423 219.4882L89.9423 219.4882L89.68829 219.4032C 89.604294 219.3742 89.5233 219.3362 89.4393 219.3052C 89.270294 219.24721 89.1123 219.1622 88.948296 219.0932C 88.6103 219.6122 88.31529 220.1532 88.116295 220.7242C 87.9183 221.2912 87.823296 221.8782 87.8833 222.4842zM92.4993 221.8392C 91.5663 221.8302 90.6373 221.4932 89.9013 220.9612C 89.8323 221.3182 89.8203 221.6792 89.86929 222.0282C 90.6783 222.4852 91.5853 222.7252 92.4993 222.7292C 93.4143 222.7252 94.322296 222.4852 95.130295 222.0282C 95.1793 221.6792 95.1663 221.3182 95.0993 220.9612C 94.3633 221.4932 93.4333 221.8302 92.4993 221.8392zM94.8593 220.1732C 94.78529 219.9922 94.697296 219.8082 94.5973 219.6252C 93.9173 219.7982 93.215294 219.88521 92.4993 219.8922C 91.78529 219.88521 91.0823 219.7982 90.4033 219.6252C 90.3033 219.8082 90.2153 219.9922 90.1403 220.1732L90.1403 220.1732L90.270294 220.2702L90.270294 220.2702L90.406296 220.3542C 90.4953 220.40921 90.587296 220.4642 90.6813 220.5152C 90.87129 220.6022 91.062294 220.7012 91.2633 220.7572C 91.6613 220.8992 92.0803 220.9472 92.4993 220.9592C 92.9193 220.9472 93.338295 220.8992 93.7363 220.7572C 93.937294 220.7012 94.128296 220.6022 94.3193 220.5152C 94.41229 220.4642 94.503296 220.40921 94.5943 220.3542L94.5943 220.3542L94.729294 220.2702L94.729294 220.2702L94.8593 220.1732zM92.4993 224.3032C 93.0563 224.2912 93.614296 224.2372 94.1613 224.0832C 94.2373 223.9832 94.311295 223.88321 94.38229 223.7832C 94.45329 223.6772 94.5233 223.5722 94.588295 223.46521C 94.6693 223.3352 94.74329 223.20421 94.8083 223.0722C 94.076294 223.3752 93.2893 223.5302 92.4993 223.5312C 91.7103 223.5302 90.9243 223.3752 90.1913 223.0722C 90.256294 223.20421 90.3293 223.3352 90.4113 223.46521C 90.477295 223.5722 90.545296 223.6772 90.617294 223.7832C 90.6893 223.88321 90.7633 223.9832 90.839294 224.0832C 91.3863 224.2372 91.9443 224.2912 92.4993 224.3032zM91.6523 225.0572C 91.9263 225.3692 92.212296 225.6642 92.4993 225.99521C 92.78729 225.6642 93.074295 225.3692 93.3483 225.0572C 93.0663 225.0972 92.783295 225.1002 92.4993 225.1112C 92.2173 225.1002 91.9333 225.0972 91.6523 225.0572zM80.7893 213.0552C 80.5693 213.21721 80.35629 213.4072 80.172295 213.6122C 79.9883 213.8172 79.8143 214.0412 79.6463 214.2762C 79.4883 214.5092 79.3333 214.7532 79.1763 215.0022C 79.0233 215.2502 78.8753 215.5002 78.711296 215.7462C 78.4653 216.1162 78.25729 216.5132 78.0443 216.9382C 77.9463 217.14821 77.8483 217.3642 77.7523 217.5842L77.7523 217.5842L77.6083 217.9172L77.6083 217.9172L77.4743 218.2532C 77.2943 218.7092 77.116295 219.1662 76.937294 219.6192C 76.7503 220.0752 76.56529 220.52121 76.350296 220.9492C 76.589294 220.9612 76.82829 220.9842 77.0683 221.0112C 77.311295 221.0372 77.5543 221.0682 77.795296 221.1022C 78.2763 221.1732 78.7603 221.24521 79.2453 221.3172C 79.4823 221.3542 79.727295 221.3812 79.964294 221.40921C 80.20329 221.4352 80.435295 221.4622 80.670296 221.4772C 81.144295 221.5062 81.59129 221.5252 82.0363 221.49521C 83.20329 221.4372 84.3913 221.5032 85.4053 221.0492C 86.5153 220.5532 87.2513 219.5402 87.8143 218.4362C 87.517296 218.2332 87.2383 218.0052 86.9673 217.7682C 86.5523 218.4552 86.0963 218.9872 85.5523 219.3602C 85.2793 219.5492 84.9953 219.68921 84.686295 219.7992C 84.533295 219.8542 84.3733 219.9012 84.2093 219.93921C 84.048294 219.9752 83.88429 220.0002 83.7153 220.02121C 83.546295 220.0402 83.3723 220.0532 83.197296 220.0592C 83.02429 220.0612 82.8483 220.0582 82.6693 220.0492C 82.3063 220.0362 81.9523 219.9852 81.5823 219.9302C 81.21629 219.8742 80.8593 219.7942 80.492294 219.7252C 80.1363 219.6472 79.7783 219.5732 79.4263 219.5132C 79.325294 219.49521 79.2333 219.4152 79.17529 219.31421C 79.1183 219.2132 79.0943 219.0932 79.128296 218.9962C 79.24629 218.6652 79.3683 218.31421 79.476295 217.96721C 79.5923 217.6172 79.713295 217.2632 79.8403 216.9202C 80.1093 216.2282 80.4163 215.5752 80.8293 215.0292C 81.23129 214.4852 81.7363 214.0502 82.322296 213.7722C 82.9143 213.4902 83.602295 213.3632 84.409294 213.3462C 84.3403 212.9962 84.2803 212.6422 84.25729 212.2822C 83.6413 212.2492 83.0213 212.2632 82.4303 212.3762C 81.84329 212.4892 81.267296 212.70221 80.7893 213.0552zM83.1083 214.0462C 82.7653 214.1662 82.45329 214.3332 82.17529 214.5492C 82.1683 215.0172 82.24429 215.4712 82.353294 215.9162C 82.48129 216.3522 82.644295 216.7822 82.879295 217.1712C 83.32829 217.9602 83.9973 218.6252 84.8043 219.0962C 85.128296 218.9662 85.4323 218.7782 85.7093 218.5392C 85.3013 218.34221 84.893295 218.1002 84.5433 217.7902C 84.3593 217.6432 84.2063 217.46721 84.047295 217.2952C 83.9053 217.1122 83.75729 216.9292 83.64929 216.7262C 83.1763 215.9272 83.034294 214.9432 83.1083 214.0462zM80.8173 218.3642C 80.7473 218.2412 80.67529 218.12021 80.614296 217.9922C 80.5523 217.8642 80.49429 217.7352 80.436295 217.60521C 80.309296 218.0032 80.1813 218.4032 80.0523 218.8062C 80.46629 218.89621 80.8753 218.9852 81.284294 219.0732C 81.11929 218.84221 80.95329 218.6132 80.8173 218.3642zM81.5163 217.9592C 81.64929 218.20421 81.81529 218.4282 81.978294 218.6542C 82.062294 218.7652 82.156296 218.8712 82.24629 218.9772C 82.337296 219.0842 82.4313 219.18921 82.53529 219.2872C 82.78729 219.3152 83.0293 219.3432 83.283295 219.3492C 83.437294 219.35321 83.589294 219.3492 83.7383 219.3392C 83.1073 218.8552 82.57829 218.2522 82.185295 217.5732C 81.7913 216.8922 81.534294 216.13521 81.4313 215.3492C 81.3473 215.4722 81.267296 215.6022 81.1933 215.7382C 81.07829 215.9582 80.9743 216.1832 80.8733 216.4172C 81.0263 216.9602 81.2323 217.48221 81.5163 217.9592zM84.4113 216.2852C 84.5083 216.4682 84.6383 216.63321 84.7623 216.7992C 84.82829 216.8802 84.9023 216.9572 84.9733 217.0332L84.9733 217.0332L85.0803 217.14621L85.0803 217.14621L85.200294 217.2512C 85.50729 217.53621 85.880295 217.75821 86.2713 217.9372C 86.3913 217.7812 86.503296 217.6152 86.616295 217.4322C 86.1233 216.9242 85.6813 216.3642 85.3343 215.7502C 85.1513 215.4492 85.006294 215.1272 84.864296 214.8072C 84.8043 214.6422 84.728294 214.4842 84.6793 214.3152L84.6793 214.3152L84.5943 214.06621L84.5943 214.06621L84.52429 213.8132C 84.312294 213.8192 84.1083 213.8342 83.9113 213.8612C 83.8193 214.7112 83.9883 215.5682 84.4113 216.2852zM81.284294 204.1672C 80.8753 204.2552 80.46629 204.34421 80.0523 204.4342C 80.1813 204.8372 80.309296 205.2362 80.436295 205.63521C 80.49429 205.5052 80.5523 205.3762 80.614296 205.2492C 80.67529 205.1212 80.7473 205.0002 80.8173 204.8762C 80.95329 204.6272 81.11929 204.3972 81.284294 204.1672zM80.8733 206.8242C 80.9743 207.0572 81.07829 207.2832 81.1933 207.5022C 81.267296 207.6382 81.3473 207.7682 81.4313 207.8912C 81.534294 207.10521 81.7913 206.3472 82.185295 205.6672C 82.57829 204.9882 83.1073 204.38521 83.7383 203.9012C 83.589294 203.8912 83.437294 203.8872 83.283295 203.8912C 83.0293 203.8972 82.78729 203.9252 82.53529 203.95421C 82.4313 204.05121 82.337296 204.1562 82.24629 204.2632C 82.156296 204.37021 82.062294 204.4752 81.978294 204.5852C 81.81529 204.8122 81.64929 205.0372 81.5163 205.2812C 81.2323 205.75821 81.0263 206.2802 80.8733 206.8242zM82.879295 206.0692C 82.644295 206.4582 82.48129 206.8872 82.353294 207.3252C 82.24429 207.7692 82.1683 208.2232 82.17529 208.69121C 82.45329 208.9082 82.7653 209.0752 83.1083 209.1942C 83.034294 208.2972 83.1763 207.3132 83.64929 206.5142C 83.75729 206.3102 83.9053 206.1272 84.047295 205.9452C 84.2063 205.7722 84.3593 205.5972 84.5433 205.4502C 84.893295 205.1402 85.3013 204.89821 85.7093 204.70221C 85.4323 204.4622 85.128296 204.2742 84.8043 204.1442C 83.9973 204.6152 83.32829 205.2792 82.879295 206.0692zM85.200294 205.9892L85.0803 206.09421L85.0803 206.09421L84.9733 206.2082C 84.9023 206.2842 84.82829 206.3602 84.7623 206.4402C 84.6383 206.60721 84.5083 206.77121 84.4113 206.9562C 83.9883 207.6722 83.8193 208.5292 83.9113 209.3792C 84.1083 209.4062 84.312294 209.4212 84.52429 209.4272L84.52429 209.4272L84.5943 209.17421L84.5943 209.17421L84.6793 208.9252C 84.728294 208.7562 84.8043 208.5982 84.864296 208.4322C 85.006294 208.1132 85.1513 207.7912 85.3343 207.4902C 85.6813 206.8752 86.1233 206.31621 86.616295 205.8082C 86.503296 205.6252 86.3913 205.4592 86.2713 205.3032C 85.880295 205.4812 85.50729 205.70421 85.200294 205.9892zM85.4053 202.19121C 84.3913 201.7372 83.20329 201.8032 82.0363 201.7462C 81.59129 201.7152 81.144295 201.7342 80.670296 201.7622C 80.435295 201.7782 80.20329 201.8052 79.964294 201.8322C 79.727295 201.8592 79.4823 201.8862 79.2453 201.9232C 78.7603 201.99521 78.2763 202.0672 77.795296 202.1382C 77.5543 202.1722 77.311295 202.20421 77.0683 202.2292C 76.82829 202.2562 76.589294 202.2792 76.350296 202.2912C 76.56529 202.71921 76.7503 203.1662 76.937294 203.62221C 77.116295 204.0752 77.2943 204.5302 77.4743 204.9872L77.4743 204.9872L77.6083 205.3222L77.6083 205.3222L77.7523 205.6562C 77.8483 205.8762 77.9463 206.09221 78.0443 206.3022C 78.25729 206.7272 78.4653 207.1252 78.711296 207.49521C 78.8753 207.7412 79.0233 207.9902 79.1763 208.2382C 79.3333 208.4862 79.4883 208.7312 79.6463 208.9642C 79.8143 209.2002 79.9883 209.4232 80.172295 209.6282C 80.35629 209.8332 80.5693 210.02321 80.7893 210.1852C 81.267296 210.5392 81.84329 210.7512 82.4303 210.8642C 83.0213 210.9772 83.6413 210.9922 84.25729 210.9582C 84.2803 210.5982 84.3403 210.24521 84.409294 209.8942C 83.602295 209.8772 82.9143 209.7502 82.322296 209.46721C 81.7363 209.1902 81.23129 208.7552 80.8293 208.2112C 80.4163 207.6652 80.1093 207.0122 79.8403 206.3202C 79.713295 205.9772 79.5923 205.6242 79.476295 205.27321C 79.3683 204.92621 79.24629 204.5752 79.128296 204.2442C 79.0943 204.1472 79.1183 204.0272 79.17529 203.92621C 79.2333 203.8262 79.325294 203.74521 79.4263 203.7262C 79.7783 203.6672 80.1363 203.5932 80.492294 203.5152C 80.8593 203.4462 81.21629 203.3672 81.5823 203.3102C 81.9523 203.2552 82.3063 203.2052 82.6693 203.19121C 82.8483 203.1822 83.02429 203.1782 83.197296 203.1812C 83.3723 203.1872 83.546295 203.2002 83.7153 203.21921C 83.88429 203.2402 84.048294 203.2652 84.2093 203.30121C 84.3733 203.3392 84.533295 203.38521 84.686295 203.4402C 84.9953 203.55121 85.2793 203.69121 85.5523 203.8802C 86.0963 204.2532 86.5523 204.78621 86.9673 205.4722C 87.2383 205.2352 87.517296 205.0062 87.8143 204.8042C 87.2513 203.7012 86.5153 202.6872 85.4053 202.19121zM97.117294 200.7562C 97.0553 200.2132 96.8723 199.67621 96.6273 199.1642C 96.50729 198.9002 96.3703 198.6492 96.2323 198.3932C 96.16229 198.2622 96.0943 198.1322 96.0253 198.0032C 95.9553 197.8752 95.8873 197.7492 95.8213 197.6182C 95.7213 197.4222 95.6123 197.2252 95.4953 197.0272C 95.3773 196.8352 95.2523 196.6422 95.1203 196.4472C 94.8583 196.0502 94.5663 195.6832 94.2663 195.2922C 93.96629 194.91121 93.656296 194.5332 93.354294 194.1432C 93.0533 193.7642 92.7613 193.3752 92.4993 192.9682C 92.239296 193.3752 91.947296 193.7642 91.645294 194.1432C 91.3443 194.5332 91.034294 194.91121 90.7333 195.2922C 90.434296 195.6832 90.142296 196.0502 89.879295 196.4472C 89.7473 196.6422 89.62129 196.8352 89.503296 197.0272C 89.3873 197.2252 89.2793 197.4222 89.1793 197.6182C 89.1133 197.7492 89.0433 197.8752 88.9743 198.0032C 88.906296 198.1322 88.836296 198.2622 88.767296 198.3932C 88.628296 198.6492 88.492294 198.9002 88.3723 199.1642C 88.1273 199.67621 87.9443 200.2132 87.8833 200.7562C 87.823296 201.3622 87.9183 201.9492 88.116295 202.5162C 88.31529 203.0872 88.6103 203.6272 88.948296 204.1472C 89.1123 204.0782 89.270294 203.9942 89.4393 203.9352C 89.5233 203.9042 89.604294 203.8672 89.68829 203.8372L89.68829 203.8372L89.9423 203.7522C 89.5553 203.0472 89.322296 202.3872 89.270294 201.7312C 89.25729 201.5682 89.254295 201.4042 89.2623 201.2402C 89.2713 201.0802 89.2913 200.9202 89.3213 200.76021C 89.380295 200.4442 89.477295 200.1132 89.614296 199.8092C 89.7493 199.5012 89.9163 199.1822 90.1133 198.8902C 90.2103 198.7422 90.3143 198.59221 90.421295 198.4432C 90.5303 198.2952 90.644295 198.1572 90.7603 198.0122C 90.8773 197.8712 90.99629 197.7232 91.1183 197.5852C 91.242294 197.4472 91.364296 197.3092 91.4853 197.1732C 91.7303 196.8912 91.975296 196.6302 92.2023 196.35721C 92.268295 196.2772 92.38429 196.2352 92.4993 196.23221C 92.616295 196.2352 92.73129 196.2772 92.797295 196.35721C 93.0253 196.6302 93.269295 196.8912 93.5143 197.1732C 93.6353 197.3092 93.7583 197.4472 93.881294 197.5852C 94.003296 197.7232 94.1223 197.8712 94.239296 198.0122C 94.35629 198.1572 94.4693 198.2952 94.57829 198.4432C 94.686295 198.59221 94.7893 198.7422 94.8873 198.8902C 95.0833 199.1822 95.2493 199.5012 95.3853 199.8092C 95.52229 200.1132 95.61929 200.4442 95.6793 200.76021C 95.7083 200.9202 95.728294 201.0802 95.7373 201.2402C 95.74429 201.4042 95.74329 201.5682 95.729294 201.7312C 95.6783 202.3872 95.4443 203.0472 95.0583 203.7522L95.0583 203.7522L95.311295 203.8372C 95.39629 203.8672 95.477295 203.9042 95.560295 203.9352C 95.729294 203.9942 95.8873 204.0782 96.0523 204.1472C 96.3893 203.6272 96.684296 203.0872 96.8833 202.5162C 97.0813 201.9492 97.1763 201.3622 97.117294 200.7562zM92.4993 201.4002C 93.4333 201.41121 94.3633 201.7482 95.0993 202.2792C 95.1663 201.9222 95.1793 201.5612 95.130295 201.2122C 94.322296 200.7542 93.4143 200.5152 92.4993 200.5112C 91.5853 200.5152 90.6783 200.7542 89.86929 201.2122C 89.8203 201.5612 89.8323 201.9222 89.9013 202.2792C 90.6373 201.7482 91.5663 201.41121 92.4993 201.4002zM90.1403 203.0672C 90.2153 203.2492 90.3033 203.4312 90.4033 203.6162C 91.0823 203.4422 91.78529 203.35521 92.4993 203.3482C 93.215294 203.35521 93.9173 203.4422 94.5973 203.6162C 94.697296 203.4312 94.78529 203.2492 94.8593 203.0672L94.8593 203.0672L94.729294 202.9702L94.729294 202.9702L94.5943 202.8862C 94.503296 202.8322 94.41229 202.7752 94.3193 202.7252C 94.128296 202.6382 93.937294 202.5402 93.7363 202.4832C 93.338295 202.3412 92.9193 202.2932 92.4993 202.2812C 92.0803 202.2932 91.6613 202.3412 91.2633 202.4832C 91.062294 202.5402 90.87129 202.6382 90.6813 202.7252C 90.587296 202.7752 90.4953 202.8322 90.406296 202.8862L90.406296 202.8862L90.270294 202.9702L90.270294 202.9702L90.1403 203.0672zM92.4993 198.9372C 91.9443 198.9502 91.3863 199.0032 90.839294 199.1572C 90.7633 199.2572 90.6893 199.3562 90.617294 199.4582C 90.545296 199.5622 90.477295 199.6682 90.4113 199.7742C 90.3293 199.9052 90.256294 200.0372 90.1913 200.1682C 90.9243 199.8652 91.7103 199.7102 92.4993 199.7092C 93.2893 199.7102 94.076294 199.8652 94.8083 200.1682C 94.74329 200.0372 94.6693 199.9052 94.588295 199.7742C 94.5233 199.6682 94.45329 199.5622 94.38229 199.4582C 94.311295 199.3562 94.2373 199.2572 94.1613 199.1572C 93.614296 199.0032 93.0563 198.9502 92.4993 198.9372zM93.3483 198.1832C 93.074295 197.87221 92.78729 197.57721 92.4993 197.2462C 92.212296 197.57721 91.9263 197.87221 91.6523 198.1832C 91.9333 198.1432 92.2173 198.1402 92.4993 198.1282C 92.783295 198.1402 93.0663 198.1432 93.3483 198.1832zM92.4993 204.5592C 91.2453 204.5692 90.0423 204.8782 88.976295 205.5032C 88.4393 205.8042 87.95329 206.1972 87.50729 206.6272C 87.0773 207.0732 86.684296 207.5592 86.3833 208.0962C 85.7583 209.16321 85.449295 210.3662 85.4393 211.62021C 85.449295 212.8752 85.7583 214.0782 86.3833 215.1442C 86.684296 215.6812 87.0773 216.1672 87.50729 216.6132C 87.95329 217.0432 88.4393 217.4362 88.976295 217.7372C 90.0423 218.3622 91.2453 218.6702 92.4993 218.6812C 93.754295 218.6702 94.9573 218.3622 96.0243 217.7372C 96.561295 217.4362 97.047295 217.0432 97.49329 216.6132C 97.923294 216.1672 98.3153 215.6812 98.617294 215.1442C 99.242294 214.0782 99.55029 212.8752 99.561295 211.62021C 99.55029 210.3662 99.242294 209.16321 98.617294 208.0962C 98.3153 207.5592 97.923294 207.0732 97.49329 206.6272C 97.047295 206.1972 96.561295 205.8042 96.0243 205.5032C 94.9573 204.8782 93.754295 204.5692 92.4993 204.5592zM107.9323 202.2292C 107.6893 202.20421 107.4463 202.1722 107.2033 202.1382C 106.7233 202.0672 106.239296 201.99521 105.754295 201.9232C 105.518295 201.8862 105.2733 201.8592 105.03529 201.8322C 104.795296 201.8052 104.5653 201.7782 104.32829 201.7622C 103.85629 201.7342 103.409294 201.7152 102.963295 201.7462C 101.796295 201.8032 100.6093 201.7372 99.5953 202.19121C 98.4843 202.6872 97.7483 203.7012 97.185295 204.8042C 97.4823 205.0062 97.7613 205.2352 98.033295 205.4722C 98.448296 204.78621 98.9033 204.2532 99.447296 203.8802C 99.7203 203.69121 100.004295 203.55121 100.31329 203.4402C 100.4673 203.38521 100.6263 203.3392 100.7893 203.30121C 100.95229 203.2652 101.115295 203.2402 101.28529 203.21921C 101.45329 203.2002 101.6263 203.1872 101.8033 203.1812C 101.975296 203.1782 102.1513 203.1822 102.3303 203.19121C 102.6933 203.2052 103.048294 203.2552 103.4163 203.3102C 103.784294 203.3672 104.1403 203.4462 104.50829 203.5152C 104.864296 203.5932 105.2223 203.6672 105.574295 203.7262C 105.67429 203.74521 105.7663 203.8262 105.825294 203.92621C 105.88229 204.0272 105.906296 204.1472 105.8703 204.2442C 105.7523 204.5752 105.63229 204.92621 105.5243 205.27321C 105.407295 205.6242 105.2863 205.9772 105.16029 206.3202C 104.8913 207.0122 104.5823 207.6652 104.170296 208.2112C 103.769295 208.7552 103.2643 209.1902 102.6783 209.46721C 102.0853 209.7502 101.39729 209.8772 100.59129 209.8942C 100.659294 210.24521 100.7203 210.5982 100.742294 210.9582C 101.3583 210.9922 101.978294 210.9772 102.5693 210.8642C 103.156296 210.7512 103.7323 210.5392 104.2103 210.1852C 104.4313 210.02321 104.643295 209.8332 104.82829 209.6282C 105.0113 209.4232 105.186295 209.2002 105.353294 208.9642C 105.5123 208.7312 105.6663 208.4862 105.824295 208.2382C 105.976295 207.9902 106.1233 207.7412 106.2873 207.49521C 106.534294 207.1252 106.74329 206.7272 106.9553 206.3022C 107.0543 206.09221 107.1513 205.8762 107.2473 205.6562L107.2473 205.6562L107.3913 205.3222L107.3913 205.3222L107.5253 204.9872C 107.7043 204.5302 107.8843 204.0752 108.062294 203.62221C 108.2483 203.1662 108.434296 202.71921 108.6503 202.2912C 108.41029 202.2792 108.172295 202.2562 107.9323 202.2292z" stroke="#E7BC9E" stroke-width="0.368" fill="none" />
		</g>
	</g>
</g>
</svg>