<?xml version="1.0" standalone="no"?>
<!DOCTYPE svg PUBLIC "-//W3C//DTD SVG 1.0//EN" "http://www.w3.org/TR/2001/REC-SVG-20010904/DTD/svg10.dtd">
<svg xmlns="http://www.w3.org/2000/svg" xmlns:xlink="http://www.w3.org/1999/xlink" id="body_4" width="247" height="421">

<defs>
    <clipPath  id="1">

    <path id=""  clip-rule="evenodd" transform="matrix(1 0 0 1 0 0)"  d="M0 316L0 0L0 0L185 0L185 0L185 316L185 316L0 316z" />    </clipPath>
    <clipPath  id="2">

    <path id=""  clip-rule="evenodd" transform="matrix(1 0 0 1 0 0)"  d="M0 0L185 0L185 0L185 316L185 316L0 316z" />    </clipPath>
</defs>

<g transform="matrix(1.3333 0 0 1.3333 0 0)">
	<g clip-path="url(#1)" >
		<g clip-path="url(#2)" >
    <path id=""  transform="matrix(1 0 0 -1 0 316)"  d="M114.8757 216.6458C 114.3187 217.2198 113.661705 217.62979 112.9847 217.8828C 112.2997 218.13379 111.5747 218.2218 110.8547 218.1668C 110.092705 218.1098 109.3727 217.9108 108.6967 217.6378C 108.0217 217.36479 107.3797 217.0148 106.7537 216.6358C 106.1287 216.2558 105.5277 215.8488 104.9327 215.44879C 104.3257 215.04579 103.7427 214.6528 103.149704 214.2888C 103.0137 214.8078 102.854706 215.32379 102.6457 215.8198C 102.4337 216.3138 102.1967 216.8008 101.9177 217.2638C 102.5847 217.4178 103.2967 217.5648 103.996704 217.70079C 104.6987 217.83879 105.4177 217.9798 106.1267 218.1538C 107.5327 218.5008 108.9297 218.9718 110.106705 219.9708C 111.2127 220.90779 111.8917 222.2778 111.8757 223.8868C 111.869705 225.4828 111.1417 227.3028 109.6657 228.7858C 108.1807 230.2638 106.3627 230.98979 104.7677 230.9948C 103.1597 231.0098 101.7897 230.3298 100.8507 229.22679C 99.8497 228.0528 99.3787 226.6548 99.0327 225.2488C 98.8587 224.5388 98.7177 223.8188 98.579704 223.11679C 98.4437 222.4158 98.2977 221.7048 98.1437 221.0378C 97.6797 221.3168 97.1937 221.5538 96.6997 221.7658C 96.2027 221.9748 95.688705 222.13379 95.1687 222.26979C 95.5327 222.8628 95.925705 223.4458 96.328705 224.0528C 96.7287 224.6478 97.1337 225.2488 97.5137 225.8738C 97.8927 226.4998 98.2417 227.1408 98.5157 227.8158C 98.787704 228.49179 98.9877 229.21179 99.0467 229.9738C 99.1037 230.6948 99.0157 231.4198 98.7647 232.1048C 98.5127 232.7818 98.1017 233.4388 97.5267 233.99579C 96.3927 235.12079 94.5847 235.8918 92.4997 235.8958C 90.412704 235.8918 88.607704 235.1198 87.4747 233.99579C 86.9007 233.4388 86.4907 232.7818 86.2377 232.1048C 85.9867 231.4198 85.898705 230.6948 85.9527 229.9738C 86.010704 229.2128 86.2097 228.4928 86.481705 227.8168C 86.7557 227.1408 87.1057 226.4998 87.4847 225.8738C 87.8647 225.2488 88.2717 224.6478 88.6717 224.0528C 89.0747 223.4458 89.4677 222.8628 89.8317 222.26979C 89.3127 222.13379 88.7967 221.9748 88.300705 221.7658C 87.8057 221.5538 87.3197 221.3168 86.856705 221.0378C 86.7027 221.7048 86.5557 222.4168 86.4197 223.11679C 86.2817 223.8188 86.1407 224.5378 85.966705 225.2468C 85.619705 226.6528 85.148705 228.0498 84.148705 229.22679C 83.2127 230.3328 81.8427 231.0118 80.2327 230.99579C 78.6367 230.9908 76.8177 230.2618 75.3337 228.7858C 73.856705 227.3008 73.13071 225.4828 73.1257 223.8878C 73.1107 222.2798 73.7897 220.9108 74.89371 219.9708C 76.066696 218.9698 77.46471 218.4988 78.871704 218.1528C 79.5817 217.97879 80.3017 217.8378 81.0037 217.6998C 81.703705 217.5638 82.4157 217.4178 83.0817 217.2638C 82.8037 216.8008 82.566696 216.3138 82.354706 215.8198C 82.145706 215.32379 81.9867 214.8078 81.8497 214.2888C 81.2567 214.6528 80.673706 215.04579 80.0677 215.44879C 79.4717 215.8488 78.871704 216.25479 78.2457 216.63379C 77.6207 217.0128 76.979706 217.3618 76.3047 217.6358C 75.6277 217.90779 74.90871 218.1078 74.1467 218.1668C 73.4247 218.2238 72.7007 218.1358 72.0147 217.8858C 71.3377 217.6328 70.6807 217.2218 70.1247 216.64679C 68.9997 215.5128 68.22771 213.7048 68.2247 211.6198C 68.2287 209.5338 68.9997 207.7278 70.1247 206.5948C 70.6807 206.0208 71.3377 205.6108 72.0147 205.3578C 72.7007 205.1068 73.4247 205.0188 74.1467 205.0728C 74.9077 205.1308 75.6277 205.3298 76.3037 205.60179C 76.979706 205.8758 77.619705 206.2248 78.2457 206.6048C 78.871704 206.9848 79.4727 207.3908 80.0677 207.7918C 80.6747 208.1948 81.257706 208.5878 81.8497 208.9518C 81.9867 208.4318 82.145706 207.9168 82.354706 207.42079C 82.566696 206.9258 82.8037 206.4398 83.0817 205.97679C 82.4157 205.8228 81.703705 205.6758 81.0037 205.5398C 80.3017 205.4018 79.5827 205.2608 78.8727 205.08679C 77.4677 204.73979 76.0707 204.2688 74.89371 203.26979C 73.787704 202.3328 73.1087 200.9628 73.1247 199.35379C 73.1297 197.75679 73.8577 195.93779 75.3347 194.4548C 76.8197 192.97679 78.6377 192.2508 80.2327 192.24579C 81.83971 192.2308 83.2097 192.90979 84.148705 194.0138C 85.1507 195.1868 85.6207 196.5848 85.9677 197.99179C 86.1417 198.7018 86.2827 199.4218 86.4197 200.1238C 86.5567 200.82379 86.7027 201.5358 86.856705 202.2018C 87.3197 201.9238 87.8057 201.6868 88.300705 201.4748C 88.7967 201.2658 89.3127 201.1068 89.8317 200.9698C 89.466705 200.37779 89.0747 199.7938 88.6717 199.18779C 88.2717 198.5918 87.8657 197.99179 87.4867 197.36679C 87.107704 196.7408 86.7587 196.0988 86.4847 195.4248C 86.2127 194.7488 86.0127 194.0288 85.9527 193.2658C 85.8967 192.54579 85.9847 191.8208 86.2347 191.1348C 86.4877 190.4588 86.898705 189.8008 87.4737 189.2448C 88.607704 188.1198 90.4157 187.3478 92.4997 187.3448C 94.5867 187.3488 96.3927 188.12079 97.5257 189.2448C 98.0997 189.80179 98.509705 190.4578 98.7627 191.1348C 99.0137 191.8208 99.1017 192.5448 99.0467 193.2658C 98.9897 194.0278 98.7897 194.7478 98.5177 195.4238C 98.244705 196.0988 97.8947 196.73979 97.5157 197.3658C 97.135704 197.99179 96.729706 198.5928 96.328705 199.18779C 95.9247 199.7948 95.5327 200.37779 95.1687 200.9698C 95.688705 201.1068 96.2027 201.2658 96.6997 201.4748C 97.1937 201.6868 97.6797 201.9238 98.1437 202.2018C 98.2977 201.5358 98.4437 200.82379 98.5807 200.1238C 98.718704 199.4218 98.8597 198.70279 99.0337 197.9928C 99.3807 196.5878 99.8517 195.1908 100.8507 194.0138C 101.787704 192.90779 103.1577 192.22879 104.7667 192.2448C 106.3627 192.2498 108.1827 192.97879 109.6657 194.4548C 111.1437 195.93979 111.869705 197.7578 111.8747 199.3528C 111.8887 200.9608 111.2097 202.3298 110.106705 203.26979C 108.9327 204.2708 107.5347 204.74179 106.1287 205.0878C 105.4187 205.2618 104.6987 205.4028 103.995705 205.5408C 103.2957 205.6768 102.5837 205.8228 101.9177 205.97679C 102.1967 206.4398 102.4337 206.9258 102.6457 207.42079C 102.854706 207.9168 103.0137 208.4318 103.149704 208.9518C 103.7427 208.5878 104.3257 208.1948 104.9327 207.7918C 105.5277 207.3918 106.1287 206.9858 106.7537 206.6068C 107.3797 206.2278 108.0207 205.8788 108.6957 205.6048C 109.371704 205.3328 110.091705 205.1328 110.8547 205.0728C 111.5747 205.0168 112.2997 205.1048 112.9847 205.3548C 113.661705 205.6078 114.3187 206.0188 114.8757 206.5938C 116.0007 207.7278 116.7717 209.5358 116.7757 211.6198C 116.7717 213.7068 115.9997 215.5128 114.8757 216.6458zM103.4727 211.79979C 103.5207 211.8038 103.5697 211.80879 103.6227 211.82379C 104.063705 211.9408 104.5057 212.07779 104.9487 212.22879C 105.3887 212.38179 105.8197 212.54779 106.259705 212.7228C 107.1417 213.07379 108.0037 213.4598 108.8877 213.8018C 109.7557 214.13379 110.8527 214.3658 111.7827 214.1208C 112.244705 213.9968 112.6807 213.75279 112.9847 213.3428C 113.1387 213.1388 113.273705 212.89279 113.3637 212.60579C 113.4477 212.3198 113.4987 211.9908 113.5067 211.6198C 113.4987 211.2518 113.4477 210.92279 113.3627 210.6368C 113.273705 210.3498 113.1387 210.1048 112.9847 209.9008C 112.6807 209.4908 112.244705 209.2448 111.7817 209.1208C 110.8507 208.8728 109.7537 209.1028 108.8877 209.4388C 108.0047 209.78479 107.1427 210.17079 106.260704 210.51979C 105.8207 210.6948 105.3887 210.8598 104.9487 211.0118C 104.5057 211.1628 104.063705 211.29979 103.6227 211.4168C 103.5697 211.4308 103.5207 211.4368 103.4727 211.4408L103.4727 211.4408L103.4787 211.6198L103.4787 211.6198L103.4727 211.79979zM99.2787 222.32379C 99.4297 222.9178 99.5707 223.5158 99.729706 224.1118C 100.051704 225.30879 100.4327 226.5118 101.1377 227.5718C 101.5197 228.14279 101.9837 228.63379 102.535706 229.00879C 102.8117 229.1938 103.1097 229.3568 103.4247 229.4758C 103.7377 229.5958 104.0707 229.6798 104.4217 229.7248C 104.773705 229.7758 105.1307 229.7688 105.5057 229.7278C 105.8817 229.68979 106.259705 229.5968 106.6427 229.4568C 107.412704 229.1828 108.176704 228.6918 108.8817 228.00279C 110.2347 226.6408 110.7627 225.00879 110.619705 223.6368C 110.5467 222.9408 110.3257 222.31279 109.968704 221.7578C 109.6167 221.2048 109.148705 220.7368 108.5987 220.3528C 107.5217 219.6078 106.2967 219.2098 105.0727 218.8758C 104.4637 218.7108 103.8537 218.5658 103.245705 218.4118C 102.6417 218.2608 102.0557 218.1088 101.4777 217.9328C 101.2967 218.1978 101.0947 218.4498 100.8897 218.6958C 101.967705 219.2358 103.2367 219.6618 104.5067 220.0788C 105.7817 220.5138 107.0487 220.93379 108.0567 221.7348C 108.438705 222.0408 108.7617 222.4088 108.9917 222.82379C 109.2207 223.2368 109.3617 223.70079 109.4007 224.20079C 109.4617 225.1828 109.079704 226.3158 108.1377 227.2578C 107.2227 228.1688 106.1317 228.55879 105.1717 228.5258C 104.1927 228.4808 103.3507 228.0278 102.7237 227.2998C 101.8657 226.3008 101.4307 225.0098 100.9837 223.7048C 100.5567 222.4068 100.1247 221.1058 99.5757 220.0098C 99.328705 220.21579 99.0777 220.4168 98.8127 220.5988C 98.9837 221.1608 99.132706 221.7338 99.2787 222.32379zM100.5087 219.3428C 100.4607 219.3148 100.4217 219.2838 100.384705 219.25279C 100.3057 219.3418 100.2217 219.4258 100.132706 219.50479C 100.163704 219.5418 100.1937 219.5818 100.2227 219.6288C 100.4507 220.0228 100.6677 220.4328 100.8737 220.85179C 101.0747 221.2668 101.2657 221.6938 101.4507 222.1288C 101.828705 223.0018 102.1587 223.8788 102.5457 224.7508C 102.925705 225.5998 103.536705 226.5408 104.3657 227.0238C 104.7777 227.2628 105.259705 227.3978 105.7667 227.3248C 106.0207 227.2898 106.2847 227.2088 106.5547 227.0728C 106.8177 226.9298 107.0867 226.7308 107.3537 226.4738C 107.6097 226.2078 107.8077 225.9388 107.9507 225.6768C 108.0857 225.4068 108.1667 225.1418 108.2027 224.8888C 108.274704 224.38179 108.1407 223.8988 107.9027 223.4858C 107.4207 222.6538 106.4807 222.0418 105.6307 221.6668C 104.7567 221.28279 103.8807 220.9518 103.007706 220.57379C 102.5727 220.3878 102.1467 220.1958 101.731705 219.9948C 101.3127 219.7888 100.9027 219.5718 100.5087 219.3428zM88.7787 225.5678C 88.1617 226.6358 87.579704 227.7578 87.328705 229.0058C 87.0567 230.3488 87.260704 231.7338 88.1267 232.8568C 88.5597 233.4028 89.149704 233.89279 89.8917 234.2338C 90.259705 234.4178 90.6667 234.53479 91.1037 234.6398C 91.5407 234.7378 92.0087 234.7748 92.4997 234.7878C 94.412704 234.78279 95.9437 234.00479 96.815704 232.9318C 97.2547 232.3858 97.5447 231.78479 97.6857 231.1438C 97.826706 230.5008 97.8257 229.8378 97.7067 229.1758C 97.4737 227.8898 96.8867 226.7378 96.260704 225.6438C 95.9467 225.1028 95.6137 224.5508 95.2957 224.02179C 94.9787 223.4958 94.6677 222.9588 94.3867 222.4328C 94.2307 222.4668 94.0697 222.4858 93.910706 222.5038C 93.7517 222.5248 93.593704 222.5488 93.4327 222.5548C 93.6257 223.13379 93.8657 223.7148 94.1377 224.3048C 94.4087 224.8978 94.7107 225.4988 95.009705 226.0928C 95.3077 226.68979 95.6037 227.2968 95.8467 227.90979C 96.0887 228.51779 96.2777 229.1378 96.3487 229.7758C 96.4587 230.75479 96.2097 231.7078 95.552704 232.4668C 94.9007 233.2098 93.8277 233.7298 92.4997 233.7348C 91.2137 233.7258 90.163704 233.2438 89.507706 232.53279C 89.177704 232.18379 88.9427 231.75879 88.7997 231.3228C 88.6567 230.88379 88.606705 230.4198 88.6417 229.9388C 88.688705 229.28479 88.8687 228.6488 89.107704 228.0258C 89.3487 227.3988 89.648705 226.7778 89.953705 226.1658C 90.1057 225.8618 90.257706 225.5578 90.4097 225.2538C 90.5607 224.9448 90.7077 224.6408 90.8477 224.3378C 91.1257 223.7348 91.371704 223.1418 91.5677 222.5548C 91.4067 222.5488 91.2477 222.5248 91.0887 222.5038C 90.9297 222.4858 90.770706 222.4668 90.6137 222.4328C 90.0647 223.4668 89.4027 224.4928 88.7787 225.5678zM93.1087 224.0688C 92.9567 223.6258 92.8207 223.1828 92.703705 222.7428C 92.688705 222.68979 92.6837 222.6408 92.6797 222.5928L92.6797 222.5928L92.4997 222.5988L92.4997 222.5988L92.3207 222.5928C 92.3167 222.6408 92.3107 222.68979 92.2967 222.7428C 92.1797 223.1828 92.0427 223.6258 91.8907 224.0688C 91.7387 224.50879 91.5727 224.93979 91.3967 225.37979C 91.0467 226.2618 90.660706 227.1238 90.3187 228.0078C 89.9867 228.8758 89.7547 229.9728 89.9997 230.9028C 90.1227 231.3658 90.36771 231.80179 90.7777 232.1048C 90.981705 232.2598 91.2267 232.3938 91.5137 232.4838C 91.800705 232.5678 92.1297 232.6188 92.4997 232.6268C 92.8687 232.6188 93.1967 232.5678 93.4837 232.4838C 93.770706 232.3938 94.0147 232.25879 94.2197 232.1048C 94.6297 231.8008 94.8757 231.36479 94.9997 230.9018C 95.2477 229.9708 95.0167 228.8738 94.6817 228.0078C 94.3357 227.1248 93.9497 226.2628 93.6007 225.3808C 93.425705 224.9408 93.259705 224.5098 93.1087 224.0688zM81.79671 218.3988C 81.2027 218.54979 80.604706 218.6908 80.0087 218.8488C 78.81171 219.1718 77.6087 219.5528 76.5477 220.25879C 75.97771 220.6398 75.4867 221.10379 75.1117 221.65579C 74.925705 221.9318 74.7637 222.2308 74.64371 222.5448C 74.524704 222.8578 74.440704 223.1908 74.3947 223.5418C 74.344696 223.8938 74.3517 224.2508 74.3917 224.6258C 74.4297 225.0018 74.5237 225.37979 74.6637 225.7628C 74.93671 226.53279 75.4287 227.2968 76.11771 228.00279C 77.479706 229.3548 79.1107 229.8828 80.4837 229.73979C 81.1787 229.6668 81.8077 229.4458 82.3627 229.08879C 82.9157 228.7368 83.3837 228.2688 83.7667 227.7188C 84.5127 226.6408 84.910706 225.4168 85.244705 224.1928C 85.4087 223.5838 85.5547 222.9738 85.7087 222.3658C 85.8597 221.7618 86.0117 221.1758 86.1877 220.5978C 85.9227 220.4168 85.6707 220.21579 85.423706 220.0098C 84.884705 221.08879 84.4587 222.3568 84.0407 223.6268C 83.606705 224.9018 83.18671 226.1698 82.3857 227.1768C 82.078705 227.5578 81.7117 227.88179 81.29671 228.1118C 80.8837 228.34079 80.4197 228.4828 79.9187 228.5208C 78.93671 228.5818 77.8047 228.1998 76.8617 227.2578C 75.951706 226.3428 75.56171 225.2518 75.594696 224.2918C 75.6397 223.31279 76.091705 222.4708 76.8207 221.8438C 77.8197 220.9858 79.1097 220.5508 80.4147 220.10379C 81.7137 219.6768 83.0147 219.2448 84.1107 218.6958C 83.9047 218.4498 83.703705 218.1978 83.5217 217.9328C 82.9597 218.10379 82.3867 218.25279 81.79671 218.3988zM84.86771 219.5058C 84.7787 219.4258 84.6947 219.3418 84.6147 219.25279C 84.578705 219.2838 84.538704 219.3148 84.4917 219.3428C 84.0977 219.5708 83.688705 219.7878 83.2677 219.99379C 82.8537 220.1948 82.4267 220.3858 81.9917 220.5718C 81.11771 220.94879 80.2417 221.2788 79.369705 221.6668C 78.520706 222.04579 77.5797 222.6568 77.0967 223.4858C 76.8577 223.8988 76.7227 224.37979 76.7947 224.8868C 76.8307 225.1408 76.9117 225.4048 77.0477 225.6748C 77.190704 225.93779 77.3897 226.2068 77.6467 226.4738C 77.912704 226.7298 78.1807 226.9278 78.4427 227.0708C 78.7137 227.2068 78.9787 227.2878 79.231705 227.3228C 79.7387 227.39479 80.2217 227.2608 80.634705 227.0228C 81.466705 226.5408 82.078705 225.6008 82.453705 224.7508C 82.8377 223.8768 83.1687 223.0008 83.54671 222.12779C 83.732704 221.6928 83.9247 221.2668 84.1257 220.85179C 84.3317 220.4328 84.548706 220.0228 84.7777 219.6288C 84.8057 219.5818 84.8357 219.5418 84.86771 219.5058zM81.5277 211.4408C 81.479706 211.4368 81.4307 211.4308 81.3777 211.4168C 80.93671 211.29979 80.494705 211.1628 80.0517 211.0108C 79.6117 210.8588 79.1797 210.6928 78.74071 210.5168C 77.8587 210.1668 76.996704 209.78079 76.1117 209.4388C 75.244705 209.1068 74.147705 208.8748 73.2177 209.1198C 72.7547 209.2428 72.3187 209.4878 72.0157 209.8978C 71.8607 210.10179 71.7267 210.3478 71.6367 210.6338C 71.5517 210.92079 71.5017 211.2498 71.4937 211.6198C 71.5017 211.9888 71.5517 212.3178 71.6367 212.60379C 71.7267 212.8908 71.8607 213.1358 72.0157 213.3398C 72.3197 213.7498 72.75571 213.9958 73.218704 214.1198C 74.149704 214.3678 75.246704 214.1368 76.1117 213.8018C 76.9957 213.4558 77.856705 213.0698 78.7397 212.7208C 79.1787 212.54579 79.6107 212.37979 80.050705 212.22879C 80.494705 212.07779 80.93671 211.9408 81.3777 211.82379C 81.4307 211.80879 81.479706 211.8038 81.5277 211.79979L81.5277 211.79979L81.5217 211.6198L81.5217 211.6198L81.5277 211.4408zM78.5517 207.8988C 77.4837 207.2818 76.3627 206.6998 75.1147 206.44879C 73.7717 206.1768 72.3867 206.3808 71.2637 207.2468C 70.716705 207.6798 70.2267 208.26979 69.8857 209.0118C 69.7027 209.3808 69.5857 209.7868 69.4807 210.2238C 69.382706 210.6608 69.3457 211.1288 69.3327 211.6198C 69.3377 213.53279 70.1147 215.0648 71.1877 215.93579C 71.7337 216.3748 72.3347 216.6648 72.9767 216.8058C 73.6187 216.9468 74.2827 216.9458 74.9437 216.8268C 76.2307 216.5938 77.3817 216.00679 78.4767 215.3808C 79.0177 215.0668 79.5687 214.7338 80.0987 214.4158C 80.6247 214.0988 81.1617 213.7878 81.6877 213.50679C 81.6537 213.3498 81.634705 213.1908 81.61571 213.03079C 81.5957 212.8728 81.5717 212.71379 81.5647 212.5528C 80.9867 212.7458 80.4057 212.9858 79.815704 213.2578C 79.2217 213.5288 78.6207 213.8318 78.0277 214.12979C 77.4297 214.4278 76.8237 214.7238 76.2107 214.9678C 75.60271 215.2088 74.9827 215.3978 74.344696 215.4688C 73.36571 215.5798 72.412704 215.3308 71.6537 214.67279C 70.9097 214.0208 70.3897 212.9478 70.3857 211.6198C 70.3947 210.3338 70.8767 209.2838 71.5877 208.62779C 71.93671 208.29779 72.3617 208.06279 72.79671 207.92079C 73.2357 207.7768 73.69971 207.72679 74.1807 207.7628C 74.8357 207.80879 75.4707 207.9888 76.094696 208.2278C 76.7217 208.4688 77.3427 208.7688 77.9547 209.07379C 78.2587 209.2248 78.563705 209.37779 78.8667 209.5298C 79.1747 209.6808 79.479706 209.82779 79.7827 209.9678C 80.3857 210.2458 80.97771 210.49179 81.5647 210.68779C 81.5717 210.5268 81.5957 210.3678 81.61571 210.2098C 81.634705 210.04979 81.6537 209.8908 81.6877 209.7338C 80.6537 209.1848 79.6277 208.5228 78.5517 207.8988zM85.7207 200.9168C 85.5707 200.3228 85.4287 199.7238 85.2717 199.1288C 84.9487 197.9318 84.5677 196.72879 83.8617 195.6688C 83.479706 195.0978 83.0167 194.6068 82.46471 194.2318C 82.188705 194.04579 81.8897 193.88379 81.57471 193.7638C 81.2627 193.64479 80.9287 193.56079 80.578705 193.5158C 80.2257 193.4648 79.869705 193.4718 79.494705 193.5118C 79.1187 193.5498 78.74071 193.6438 78.3577 193.7838C 77.5877 194.0578 76.8237 194.5488 76.11771 195.2378C 74.7657 196.5998 74.2377 198.2308 74.3797 199.60379C 74.453705 200.2988 74.673706 200.9278 75.0307 201.4828C 75.3837 202.0358 75.8517 202.5038 76.4017 202.8868C 77.479706 203.6328 78.703705 204.03079 79.9267 204.36479C 80.5367 204.5298 81.1467 204.67479 81.7547 204.8288C 82.3577 204.9798 82.9447 205.13179 83.5217 205.3078C 83.703705 205.0428 83.9047 204.7908 84.1107 204.5438C 83.0317 204.00479 81.7627 203.5788 80.4937 203.1608C 79.218704 202.72679 77.9507 202.3068 76.9437 201.5058C 76.5627 201.1998 76.2387 200.8318 76.007706 200.4168C 75.7787 200.0038 75.6377 199.5398 75.5997 199.0388C 75.5387 198.0568 75.9207 196.9248 76.8627 195.9828C 77.7767 195.0718 78.8687 194.6818 79.828705 194.7148C 80.8067 194.7598 81.649704 195.2128 82.2767 195.9408C 83.1337 196.93979 83.5697 198.2308 84.0157 199.5358C 84.4437 200.8338 84.8757 202.1348 85.423706 203.2308C 85.6707 203.0248 85.9227 202.82379 86.1877 202.6418C 86.0157 202.0798 85.86771 201.50679 85.7207 200.9168zM84.4917 203.8978C 84.538704 203.9258 84.578705 203.9558 84.6147 203.9878C 84.6947 203.8988 84.7787 203.8148 84.86771 203.7348C 84.8357 203.69879 84.8057 203.6588 84.7777 203.6118C 84.548706 203.2178 84.3317 202.8078 84.1267 202.3878C 83.925705 201.9738 83.7347 201.5468 83.548706 201.1118C 83.17171 200.2388 82.841705 199.3618 82.453705 198.48979C 82.07471 197.6408 81.4637 196.6998 80.6337 196.2168C 80.2217 195.9778 79.7397 195.8428 79.2337 195.9158C 78.979706 195.95079 78.7157 196.0318 78.4447 196.1678C 78.1827 196.31079 77.9137 196.5098 77.6467 196.7658C 77.3907 197.03279 77.1927 197.3018 77.0497 197.5638C 76.9137 197.8338 76.8327 198.0988 76.7977 198.35179C 76.7247 198.8588 76.8597 199.3418 77.0977 199.75479C 77.5797 200.58679 78.51871 201.19879 79.369705 201.57379C 80.2437 201.9578 81.119705 202.2888 81.99271 202.6668C 82.4267 202.8528 82.8537 203.0448 83.2677 203.2458C 83.688705 203.4518 84.0977 203.6688 84.4917 203.8978zM96.2217 197.67279C 96.8377 196.60379 97.4207 195.4828 97.6717 194.2348C 97.9437 192.8908 97.7397 191.50679 96.8727 190.38379C 96.4397 189.8378 95.8507 189.3478 95.1087 189.00679C 94.7397 188.8228 94.3327 188.7058 93.8967 188.6008C 93.4597 188.50279 92.9917 188.46579 92.4997 188.45279C 90.5877 188.4578 89.0557 189.2348 88.1847 190.3078C 87.744705 190.8548 87.4557 191.4558 87.313705 192.0968C 87.1727 192.73979 87.173706 193.4028 87.2927 194.06479C 87.5267 195.3508 88.1127 196.50279 88.7397 197.5968C 89.0537 198.1378 89.3867 198.68979 89.703705 199.2188C 90.0217 199.7448 90.3327 200.2818 90.6137 200.8068C 90.770706 200.7738 90.9297 200.75479 91.0887 200.7368C 91.2477 200.71579 91.4067 200.6918 91.5677 200.6848C 91.3747 200.1068 91.134705 199.5258 90.8627 198.93579C 90.591705 198.3418 90.288704 197.74179 89.9907 197.1478C 89.6927 196.5508 89.3967 195.9438 89.1527 195.3308C 88.9117 194.7228 88.7227 194.1028 88.6517 193.4648C 88.5407 192.4858 88.7897 191.53279 89.4477 190.7738C 90.0997 190.0298 91.1727 189.5108 92.4997 189.5058C 93.7867 189.5148 94.8367 189.9968 95.4917 190.7078C 95.8227 191.0568 96.0577 191.4818 96.1997 191.9178C 96.3427 192.3558 96.3937 192.8208 96.357704 193.3008C 96.3117 193.9558 96.1317 194.59079 95.8927 195.2148C 95.6517 195.8418 95.3517 196.4628 95.0467 197.0748C 94.895706 197.3788 94.74271 197.6828 94.5907 197.9868C 94.438705 198.2948 94.2927 198.5998 94.1527 198.9028C 93.8747 199.5058 93.6287 200.0978 93.4327 200.6848C 93.593704 200.6918 93.7517 200.71579 93.910706 200.7368C 94.0707 200.75479 94.2307 200.7738 94.3867 200.8068C 94.9357 199.7738 95.5977 198.7478 96.2217 197.67279zM91.8917 199.17079C 92.0427 199.61479 92.1797 200.0568 92.2967 200.4978C 92.3107 200.5508 92.3167 200.5998 92.3207 200.6478L92.3207 200.6478L92.4997 200.6418L92.4997 200.6418L92.6797 200.6478C 92.6837 200.5998 92.688705 200.5508 92.703705 200.4978C 92.8207 200.0568 92.9577 199.61479 93.1087 199.1718C 93.2617 198.7318 93.427704 198.2998 93.6027 197.8608C 93.9527 196.97879 94.33971 196.11679 94.6817 195.2318C 95.0137 194.36479 95.2457 193.26779 94.9997 192.3378C 94.8767 191.8748 94.632706 191.4388 94.2227 191.1358C 94.0187 190.9808 93.772705 190.8468 93.4857 190.75679C 93.1997 190.6718 92.869705 190.6218 92.4997 190.6138C 92.1307 190.6218 91.802704 190.6718 91.5167 190.75679C 91.229706 190.8468 90.9847 190.9808 90.7807 191.1358C 90.3707 191.43979 90.1247 191.8758 90.0007 192.33879C 89.7527 193.26979 89.982704 194.36679 90.3187 195.2318C 90.6647 196.1158 91.050705 196.9778 91.399704 197.8598C 91.5747 198.2988 91.7397 198.7308 91.8917 199.17079zM103.203705 204.84079C 103.7977 204.6908 104.3957 204.54979 104.9917 204.3908C 106.188705 204.0688 107.3917 203.68779 108.4517 202.9818C 109.022705 202.6008 109.5137 202.1368 109.8887 201.5848C 110.0737 201.30879 110.2367 201.0098 110.355705 200.6948C 110.4747 200.3828 110.5597 200.0498 110.605705 199.69879C 110.6557 199.3468 110.648705 198.98979 110.607704 198.61479C 110.5697 198.2388 110.4767 197.8608 110.3367 197.4778C 110.063705 196.7078 109.5717 195.9438 108.8817 195.2378C 107.5207 193.8858 105.8887 193.3578 104.5167 193.4998C 103.8207 193.57379 103.1927 193.7938 102.6377 194.1518C 102.0847 194.5038 101.6167 194.9718 101.232704 195.52179C 100.4877 196.5988 100.0897 197.82379 99.7547 199.04779C 99.5907 199.6568 99.4457 200.2668 99.2917 200.8748C 99.1407 201.4778 98.9887 202.06479 98.813705 202.6418C 99.0777 202.82379 99.328705 203.0248 99.5757 203.2308C 100.1157 202.1518 100.5417 200.88379 100.9587 199.6138C 101.3937 198.33879 101.813705 197.0708 102.6147 196.0638C 102.9207 195.6818 103.288704 195.3588 103.703705 195.12779C 104.1157 194.8988 104.5807 194.7578 105.0807 194.7198C 106.063705 194.6588 107.1957 195.0408 108.1377 195.9828C 109.0487 196.89679 109.438705 197.9888 109.4057 198.94879C 109.3607 199.9278 108.9077 200.76979 108.1787 201.39679C 107.1807 202.25479 105.8897 202.68979 104.5847 203.1358C 103.285706 203.5638 101.9857 203.9958 100.8897 204.5438C 101.0947 204.7908 101.2967 205.0428 101.4777 205.3078C 102.0407 205.1358 102.6137 204.9878 103.203705 204.84079zM100.132706 203.7348C 100.2217 203.8148 100.3057 203.8988 100.384705 203.9878C 100.4217 203.9558 100.4607 203.9258 100.5087 203.8978C 100.9017 203.6688 101.3127 203.4518 101.731705 203.2468C 102.1467 203.04579 102.5737 202.8548 103.0087 202.6688C 103.8817 202.2918 104.7587 201.96179 105.6307 201.57379C 106.479706 201.1948 107.4207 200.5838 107.9037 199.7538C 108.1417 199.3418 108.2767 198.8608 108.204704 198.35379C 108.1697 198.0998 108.0887 197.8358 107.9517 197.56479C 107.8097 197.3028 107.6107 197.0338 107.3537 196.7658C 107.0877 196.5108 106.8187 196.31279 106.5567 196.1698C 106.286705 196.0338 106.0217 195.95279 105.7687 195.9178C 105.2617 195.8448 104.7787 195.9798 104.3657 196.2178C 103.5337 196.6998 102.9217 197.6398 102.5457 198.48979C 102.162704 199.3638 101.8317 200.23979 101.453705 201.1128C 101.2677 201.54779 101.0757 201.9738 100.8747 202.3888C 100.6687 202.8078 100.4507 203.2178 100.2227 203.6118C 100.1937 203.6588 100.163704 203.69879 100.132706 203.7348zM102.1867 209.7258C 102.1817 209.71179 102.1787 209.6968 102.1787 209.6818C 101.9287 208.4238 101.4307 207.2198 100.7127 206.1458C 100.703705 206.1358 100.6957 206.1228 100.689705 206.1088C 99.9807 205.0578 99.063705 204.1398 98.0117 203.4318C 97.9977 203.4248 97.9847 203.4168 97.9737 203.4068C 96.898705 202.6888 95.6957 202.1908 94.438705 201.9418C 94.423706 201.9408 94.4087 201.9388 94.395706 201.93379C 93.7757 201.8138 93.1427 201.75279 92.4997 201.7508C 91.856705 201.75279 91.2247 201.8138 90.6057 201.93379C 90.591705 201.9388 90.576706 201.9408 90.5617 201.9418C 89.3037 202.1908 88.0997 202.68979 87.0257 203.40779C 87.0147 203.4168 87.0027 203.4248 86.9887 203.4308C 85.938705 204.1398 85.0197 205.0578 84.3117 206.1078C 84.3047 206.1228 84.2967 206.1358 84.2867 206.14679C 83.5687 207.2208 83.0707 208.42479 82.8207 209.6828C 82.8207 209.6968 82.8187 209.71179 82.813705 209.7248C 82.6937 210.3448 82.632706 210.97679 82.63071 211.6198C 82.632706 212.2628 82.6937 212.89479 82.813705 213.5148C 82.8187 213.5288 82.8207 213.5438 82.8217 213.55879C 83.0707 214.8168 83.5697 216.01979 84.2867 217.0948C 84.2967 217.1048 84.3047 217.1178 84.3107 217.13179C 85.0197 218.1818 85.9377 219.0998 86.9877 219.80879C 87.0027 219.8158 87.0157 219.82379 87.0267 219.8338C 88.1007 220.5508 89.3047 221.0498 90.5627 221.2988C 90.576706 221.2998 90.591705 221.3018 90.6057 221.3068C 91.2247 221.4268 91.856705 221.4878 92.4997 221.48979C 93.1427 221.4878 93.774704 221.4268 94.3947 221.3068C 94.4087 221.3018 94.423706 221.2998 94.438705 221.2988C 95.6967 221.0488 96.899704 220.5508 97.9737 219.8328C 97.9847 219.82379 97.9977 219.8158 98.0117 219.8098C 99.0627 219.1008 99.979706 218.1828 100.688705 217.1328C 100.6947 217.1178 100.703705 217.1048 100.7137 217.0938C 101.4307 216.0188 101.9297 214.8158 102.1787 213.5578C 102.1797 213.5438 102.1817 213.5288 102.1857 213.5158C 102.3067 212.8958 102.3677 212.2638 102.369705 211.6198C 102.3677 210.9778 102.3067 210.3458 102.1867 209.7258zM115.6677 211.6198C 115.662704 209.7078 114.884705 208.1758 113.8127 207.3048C 113.2657 206.86479 112.6647 206.57579 112.023705 206.43379C 111.3807 206.2938 110.717705 206.2938 110.0557 206.4128C 108.7687 206.64679 107.6177 207.2328 106.523705 207.8598C 105.982704 208.1738 105.4307 208.50679 104.9017 208.82379C 104.3757 209.1418 103.8387 209.45279 103.3127 209.7338C 103.3467 209.8908 103.3657 210.04979 103.3837 210.2098C 103.4047 210.3678 103.427704 210.5268 103.4347 210.68779C 104.0137 210.4948 104.5947 210.25479 105.1847 209.9828C 105.7777 209.71179 106.3787 209.4088 106.9727 209.1108C 107.5697 208.81279 108.175705 208.5168 108.7897 208.2728C 109.397705 208.0318 110.0177 207.8428 110.6557 207.77179C 111.633705 207.6608 112.5877 207.90979 113.3467 208.5678C 114.0897 209.2198 114.6097 210.2928 114.6147 211.6198C 114.605705 212.9068 114.1237 213.9568 113.412704 214.6118C 113.063705 214.9428 112.6387 215.1778 112.202705 215.3198C 111.7637 215.46379 111.2997 215.5138 110.8187 215.4778C 110.1647 215.4318 109.5287 215.2518 108.9057 215.0128C 108.2787 214.77179 107.6577 214.4718 107.0457 214.1668C 106.7417 214.0158 106.4377 213.8628 106.132706 213.7108C 105.8247 213.55879 105.5197 213.4128 105.217705 213.2728C 104.6147 212.9948 104.0217 212.7488 103.4347 212.5528C 103.427704 212.71379 103.4047 212.8728 103.3837 213.03079C 103.3657 213.1908 103.3467 213.3498 103.3127 213.50679C 104.3457 214.0558 105.3727 214.7178 106.4477 215.3418C 107.5157 215.9578 108.6377 216.5408 109.885704 216.7918C 111.2297 217.0638 112.6137 216.8598 113.7367 215.9928C 114.2827 215.56079 114.772705 214.9708 115.1137 214.22879C 115.2967 213.8598 115.413704 213.4538 115.5187 213.0158C 115.6177 212.5798 115.6547 212.1118 115.6677 211.6198z" stroke="#E7BC9E" stroke-width="0.425" fill="none" />
    <path id=""  transform="matrix(1 0 0 -1 0 316)"  d="M92.4997 218.4742C 88.7147 218.4742 85.645706 215.4052 85.645706 211.6202C 85.645706 207.8342 88.7147 204.76619 92.4997 204.76619C 96.284706 204.76619 99.3537 207.8342 99.3537 211.6202C 99.3537 215.4052 96.284706 218.4742 92.4997 218.4742zM92.4997 208.2262C 90.6257 208.2262 89.104706 209.7462 89.104706 211.6202C 89.104706 213.4952 90.6257 215.01419 92.4997 215.01419C 94.3747 215.01419 95.8947 213.4952 95.8947 211.6202C 95.8947 209.7462 94.3747 208.2262 92.4997 208.2262z" stroke="#E7BC9E" stroke-width="1" fill="none" />
    <path id=""  transform="matrix(1 0 0 -1 0 316)"  d="M92.9704 224.7126C 92.9704 222.5386 92.4954 220.7756 92.4954 220.7756C 92.4954 220.7756 92.0214 222.5386 92.0214 224.7126C 92.0214 226.8866 92.4954 228.6496 92.4954 228.6496C 92.4954 228.6496 92.9704 226.8866 92.9704 224.7126" stroke="none" fill="#E7BC9E" fill-rule="nonzero" />
    <path id=""  transform="matrix(1 0 0 -1 0 316)"  d="M83.5749 221.2106C 85.1119 219.6736 86.022896 218.0916 86.022896 218.0916C 86.022896 218.0916 84.440895 219.0016 82.9029 220.5386C 81.3659 222.0766 80.455894 223.6586 80.455894 223.6586C 80.455894 223.6586 82.037895 222.7476 83.5749 221.2106" stroke="none" fill="#E7BC9E" fill-rule="nonzero" />
    <path id=""  transform="matrix(1 0 0 -1 0 316)"  d="M79.4079 212.0905C 81.5819 212.0905 83.344894 211.6155 83.344894 211.6155C 83.344894 211.6155 81.5819 211.1415 79.4079 211.1415C 77.232895 211.1415 75.4709 211.6155 75.4709 211.6155C 75.4709 211.6155 77.232895 212.0905 79.4079 212.0905" stroke="none" fill="#E7BC9E" fill-rule="nonzero" />
    <path id=""  transform="matrix(1 0 0 -1 0 316)"  d="M82.9099 202.695C 84.4469 204.23201 86.0289 205.143 86.0289 205.143C 86.0289 205.143 85.1189 203.561 83.580894 202.024C 82.0439 200.48601 80.4619 199.576 80.4619 199.576C 80.4619 199.576 81.372894 201.158 82.9099 202.695" stroke="none" fill="#E7BC9E" fill-rule="nonzero" />
    <path id=""  transform="matrix(1 0 0 -1 0 316)"  d="M92.03 198.528C 92.03 200.702 92.505 202.465 92.505 202.465C 92.505 202.465 92.979 200.702 92.979 198.528C 92.979 196.354 92.505 194.591 92.505 194.591C 92.505 194.591 92.03 196.354 92.03 198.528" stroke="none" fill="#E7BC9E" fill-rule="nonzero" />
    <path id=""  transform="matrix(1 0 0 -1 0 316)"  d="M101.4255 202.0299C 99.8875 203.56691 98.9775 205.14891 98.9775 205.14891C 98.9775 205.14891 100.5595 204.2389 102.0965 202.70091C 103.6335 201.16391 104.5445 199.58191 104.5445 199.58191C 104.5445 199.58191 102.9625 200.4929 101.4255 202.0299" stroke="none" fill="#E7BC9E" fill-rule="nonzero" />
    <path id=""  transform="matrix(1 0 0 -1 0 316)"  d="M105.5925 211.1501C 103.418495 211.1501 101.6555 211.6251 101.6555 211.6251C 101.6555 211.6251 103.418495 212.0991 105.5925 212.0991C 107.7665 212.0991 109.529495 211.6251 109.529495 211.6251C 109.529495 211.6251 107.7665 211.1501 105.5925 211.1501" stroke="none" fill="#E7BC9E" fill-rule="nonzero" />
    <path id=""  transform="matrix(1 0 0 -1 0 316)"  d="M102.0905 220.5456C 100.5525 219.0076 98.9715 218.0976 98.9715 218.0976C 98.9715 218.0976 99.8815 219.6796 101.4185 221.2166C 102.9555 222.75359 104.5375 223.6646 104.5375 223.6646C 104.5375 223.6646 103.6275 222.0826 102.0905 220.5456" stroke="none" fill="#E7BC9E" fill-rule="nonzero" />
		</g>
	</g>
</g>
</svg>