<?xml version="1.0" standalone="no"?>
<!DOCTYPE svg PUBLIC "-//W3C//DTD SVG 1.0//EN" "http://www.w3.org/TR/2001/REC-SVG-20010904/DTD/svg10.dtd">
<svg xmlns="http://www.w3.org/2000/svg" xmlns:xlink="http://www.w3.org/1999/xlink" id="body_1" width="247" height="421">

<defs>
    <clipPath  id="1">

    <path id=""  clip-rule="evenodd" transform="matrix(1 0 0 1 0 0)"  d="M0 316L0 0L0 0L185 0L185 0L185 316L185 316L0 316z" />    </clipPath>
    <clipPath  id="2">

    <path id=""  clip-rule="evenodd" transform="matrix(1 0 0 1 0 0)"  d="M0 0L185 0L185 0L185 316L185 316L0 316z" />    </clipPath>
</defs>

<g transform="matrix(1.3333 0 0 1.3333 0 0)">
	<g clip-path="url(#1)" >
		<g clip-path="url(#2)" >
    <path id=""  transform="matrix(1 0 0 -1 0 316)"  d="M92.5 217.8942C 91.132996 219.4872 89.183 223.34619 92.5 223.2742L92.5 223.2742L92.5 217.8942C 93.867 219.4872 95.817 223.34619 92.501 223.2742L92.501 223.2742L92.5 223.2742L92.5 223.2742L92.5 217.8942zM92.5 205.34619C 91.132996 203.75319 89.183 199.8942 92.5 199.96619L92.5 199.96619L92.5 199.9672L92.5 199.9672L92.5 205.34619C 93.867 203.75319 95.817 199.8942 92.501 199.96619L92.501 199.96619L92.5 199.9672L92.5 199.9672L92.5 205.34619zM86.226 211.6202C 84.632996 210.25319 80.773 208.30319 80.846 211.6202L80.846 211.6202L86.226 211.6202C 84.632996 212.9872 80.773 214.9372 80.846 211.6212L80.846 211.6212L80.846 211.6202L80.846 211.6202L86.226 211.6202zM98.774 211.6202C 100.366 210.25319 104.226 208.30319 104.154 211.6202L104.154 211.6202L104.153 211.6202L104.153 211.6202L98.774 211.6202C 100.366 212.9872 104.226 214.9372 104.154 211.6212L104.154 211.6212L104.153 211.6202L104.153 211.6202L98.774 211.6202zM112.341995 211.6202L112.346 211.58919C 111.477 209.37819 108.136 210.78119 108.136 210.78119C 109.574 210.06819 109.797 207.2162 109.797 207.2162C 108.864 209.3532 106.774 210.9952 104.582 211.6162L104.582 211.6162L104.591 211.6202L104.591 211.6202L112.341995 211.6202L112.341995 211.6202L112.346 211.6512C 111.477 213.8622 108.136 212.46019 108.136 212.46019C 109.574 213.1722 109.797 216.0242 109.797 216.0242C 108.864 213.88719 106.774 212.2462 104.582 211.62419L104.582 211.62419L104.591 211.6202L104.591 211.6202L112.341995 211.6202zM72.658 211.6202L72.653 211.58919C 73.522 209.37819 76.864 210.78119 76.864 210.78119C 75.425995 210.06819 75.203995 207.2162 75.203995 207.2162C 76.136 209.3532 78.225 210.9952 80.419 211.6162L80.419 211.6162L80.408 211.6202L80.408 211.6202L72.658 211.6202L72.658 211.6202L72.653 211.6512C 73.522 213.8622 76.864 212.46019 76.864 212.46019C 75.425995 213.1722 75.203995 216.0242 75.203995 216.0242C 76.136 213.88719 78.225 212.2462 80.419 211.62419L80.419 211.62419L80.408 211.6202L80.408 211.6202L72.658 211.6202zM92.5 191.7782L92.469 191.7742C 90.257996 192.64319 91.659996 195.98419 91.659996 195.98419C 90.948 194.54619 88.096 194.32419 88.096 194.32419C 90.233 195.2562 91.875 197.3452 92.496 199.5392L92.496 199.5392L92.5 199.52919L92.5 199.52919L92.5 191.7782L92.5 191.7782L92.531 191.7742C 94.742 192.64319 93.34 195.98419 93.34 195.98419C 94.051 194.54619 96.904 194.32419 96.904 194.32419C 94.767 195.2562 93.125 197.3452 92.504 199.5392L92.504 199.5392L92.5 199.52919L92.5 199.52919L92.5 191.7782zM92.5 231.46219L92.469 231.4662C 90.257996 230.5972 91.659996 227.2562 91.659996 227.2562C 90.948 228.6942 88.096 228.9162 88.096 228.9162C 90.233 227.98419 91.875 225.8952 92.496 223.7022L92.496 223.7022L92.5 223.71219L92.5 223.71219L92.5 231.46219L92.5 231.46219L92.531 231.4662C 94.742 230.5972 93.34 227.2562 93.34 227.2562C 94.051 228.6942 96.904 228.9162 96.904 228.9162C 94.767 227.98419 93.125 225.8952 92.504 223.7022L92.504 223.7022L92.5 223.71219L92.5 223.71219L92.5 231.46219zM92.5 235.8962C 94.451996 235.4462 96.419 233.2172 96.065 230.7462C 100.361 231.9662 102.395996 226.24019 106.321 230.6232C 104.382996 222.33919 100.67 224.6202 100.185 224.4312C 100.621 222.33119 98.194 221.76819 98.194 221.76819C 99.112 219.1202 96.027 217.4702 93.469 216.73819C 93.448 216.4962 93.446 216.3552 93.426 216.0772C 95.196 215.7092 96.59 214.3162 96.956 212.5472C 97.235 212.5662 97.376 212.56819 97.618 212.58919C 98.349 215.1472 99.999 218.2322 102.648 217.3142C 102.648 217.3142 103.21 219.7412 105.311 219.3062C 105.5 219.7912 103.219 223.50319 111.503 225.4412C 107.12 221.51619 112.846 219.4812 111.626 215.1852C 114.096 215.5392 116.326004 213.5732 116.776 211.6202C 116.326004 209.66719 114.096 207.7022 111.626 208.05519C 112.846 203.7592 107.12 201.7242 111.503 197.7992C 103.219 199.7372 105.5 203.4502 105.311 203.9352C 103.21 203.49919 102.648 205.9262 102.648 205.9262C 99.999 205.0082 98.349 208.0932 97.618 210.6512C 97.376 210.6722 97.235 210.6742 96.956 210.69319C 96.59 208.9242 95.196 207.53119 93.426 207.16519C 93.446 206.8852 93.448 206.7452 93.469 206.5022C 96.027 205.7702 99.112 204.1212 98.194 201.47119C 98.194 201.47119 100.621 200.91019 100.185 198.80919C 100.67 198.6212 104.382996 200.9012 106.321 192.6182C 102.395996 197.0002 100.361 191.2742 96.065 192.4952C 96.419 190.0242 94.451996 187.79419 92.5 187.3442C 90.548 187.79419 88.582 190.0242 88.935 192.4952C 84.639 191.2742 82.604 197.0002 78.678 192.6182C 80.616 200.9012 84.33 198.6212 84.813995 198.80919C 84.38 200.91019 86.806 201.47119 86.806 201.47119C 85.887 204.1212 88.972 205.7702 91.53 206.5022C 91.552 206.7452 91.554 206.8852 91.573 207.16519C 89.804 207.53119 88.409996 208.9242 88.044 210.69319C 87.764 210.6742 87.625 210.6722 87.382996 210.6512C 86.65 208.0932 85.001 205.0082 82.351 205.9262C 82.351 205.9262 81.79 203.49919 79.688 203.9352C 79.5 203.4502 81.781 199.7372 73.498 197.7992C 77.88 201.7242 72.154 203.7592 73.374 208.05519C 70.903 207.7022 68.673996 209.66719 68.224 211.6202C 68.673996 213.5732 70.903 215.5392 73.374 215.1852C 72.154 219.4812 77.88 221.51619 73.498 225.4412C 81.781 223.50319 79.5 219.7912 79.688 219.3062C 81.79 219.7412 82.351 217.3142 82.351 217.3142C 85.001 218.2322 86.65 215.1472 87.382996 212.58919C 87.625 212.56819 87.764 212.5662 88.044 212.5472C 88.409996 214.3162 89.804 215.7092 91.573 216.0772C 91.554 216.3552 91.552 216.4962 91.53 216.73819C 88.972 217.4702 85.887 219.1202 86.806 221.76819C 86.806 221.76819 84.38 222.33119 84.813995 224.4312C 84.33 224.6202 80.616 222.33919 78.678 230.6232C 82.604 226.24019 84.639 231.9662 88.935 230.7462C 88.582 233.2172 90.548 235.4462 92.5 235.8962zM92.5 214.3292C 93.996 214.3292 95.209 213.1162 95.209 211.6202C 95.209 210.12419 93.996 208.9122 92.5 208.9122C 91.005 208.9122 89.791 210.12419 89.791 211.6202C 89.791 213.1162 91.005 214.3292 92.5 214.3292zM99.316 210.1332C 99.316 210.1332 100.425 206.4122 103.171 207.41519C 103.171 207.41519 104.28 203.8752 107.009 205.19519C 107.009 205.19519 105.353 201.4572 107.919 200.1902C 107.502 202.1142 108.18 203.3532 108.747 204.2452C 110.267 206.64319 107.405 209.3622 105.392 210.00319C 105.671 208.01219 101.561 207.80319 99.316 210.1332zM99.316 213.1072C 99.316 213.1072 100.425 216.8292 103.171 215.8262C 103.171 215.8262 104.28 219.36519 107.009 218.0452C 107.009 218.0452 105.353 221.7842 107.919 223.0502C 107.502 221.12619 108.18 219.88719 108.747 218.9962C 110.267 216.59819 107.405 213.87819 105.392 213.2372C 105.671 215.22719 101.561 215.4372 99.316 213.1072zM85.683 210.1332C 85.683 210.1332 84.574 206.4122 81.829 207.41519C 81.829 207.41519 80.719 203.8752 77.991 205.19519C 77.991 205.19519 79.647 201.4572 77.081 200.1902C 77.498 202.1142 76.82 203.3532 76.254 204.2452C 74.733 206.64319 77.594 209.3622 79.608 210.00319C 79.329 208.01219 83.438995 207.80319 85.683 210.1332zM85.683 213.1072C 85.683 213.1072 84.574 216.8292 81.829 215.8262C 81.829 215.8262 80.719 219.36519 77.991 218.0452C 77.991 218.0452 79.647 221.7842 77.081 223.0502C 77.498 221.12619 76.82 219.88719 76.254 218.9962C 74.733 216.59819 77.594 213.87819 79.608 213.2372C 79.329 215.22719 83.438995 215.4372 85.683 213.1072zM91.013 204.8042C 91.013 204.8042 87.292 203.69519 88.295 200.94919C 88.295 200.94919 84.756 199.8392 86.075 197.11119C 86.075 197.11119 82.337 198.7672 81.069 196.2012C 82.993 196.6192 84.233 195.9402 85.125 195.37419C 87.522 193.8532 90.242 196.7152 90.882996 198.7282C 88.892 198.4502 88.682 202.55919 91.013 204.8042zM93.987 204.8042C 93.987 204.8042 97.709 203.69519 96.705 200.94919C 96.705 200.94919 100.244 199.8392 98.925 197.11119C 98.925 197.11119 102.664 198.7672 103.93 196.2012C 102.007 196.6192 100.767 195.9402 99.875 195.37419C 97.477 193.8532 94.758 196.7152 94.117 198.7282C 96.107 198.4502 96.317 202.55919 93.987 204.8042zM91.013 218.4372C 91.013 218.4372 87.292 219.5452 88.295 222.2912C 88.295 222.2912 84.756 223.40019 86.075 226.1292C 86.075 226.1292 82.337 224.47319 81.069 227.0392C 82.993 226.6232 84.233 227.3002 85.125 227.86719C 87.522 229.38719 90.242 226.52519 90.882996 224.51219C 88.892 224.7912 88.682 220.6812 91.013 218.4372zM93.987 218.4372C 93.987 218.4372 97.709 219.5452 96.705 222.2912C 96.705 222.2912 100.244 223.40019 98.925 226.1292C 98.925 226.1292 102.664 224.47319 103.93 227.0392C 102.007 226.6232 100.767 227.3002 99.875 227.86719C 97.477 229.38719 94.758 226.52519 94.117 224.51219C 96.107 224.7912 96.317 220.6812 93.987 218.4372z" stroke="#E7BC9E" stroke-width="0.425" fill="none" />
		</g>
	</g>
</g>
</svg>