<?xml version="1.0" standalone="no"?>
<!DOCTYPE svg PUBLIC "-//W3C//DTD SVG 1.0//EN" "http://www.w3.org/TR/2001/REC-SVG-20010904/DTD/svg10.dtd">
<svg xmlns="http://www.w3.org/2000/svg" xmlns:xlink="http://www.w3.org/1999/xlink" id="body_15" width="247" height="421">

<defs>
    <clipPath  id="1">

    <path id=""  clip-rule="evenodd" transform="matrix(1 0 0 1 0 0)"  d="M0 316L0 0L0 0L185 0L185 0L185 316L185 316L0 316z" />    </clipPath>
    <clipPath  id="2">

    <path id=""  clip-rule="evenodd" transform="matrix(1 0 0 1 0 0)"  d="M0 0L185 0L185 0L185 316L185 316L0 316z" />    </clipPath>
</defs>

<g transform="matrix(1.3333 0 0 1.3333 0 0)">
	<g clip-path="url(#1)" >
		<g clip-path="url(#2)" >
    <path id=""  transform="matrix(1 0 0 -1 0 316)"  d="M112.8089 200.9212C 112.343895 201.8412 111.6699 202.2002 110.92989 202.2862C 110.5579 202.3292 110.1719 202.2992 109.773895 202.2322C 109.35989 202.1722 108.9359 202.0732 108.5149 201.9552C 108.092896 201.8392 107.6829 201.69719 107.2659 201.5672C 106.8479 201.4502 106.428894 201.33119 106.022896 201.2182C 105.6309 201.1082 105.261894 201.0092 104.8909 200.9612C 104.5299 200.90619 104.202896 200.8722 103.91589 200.8692C 103.716896 200.8662 103.55489 200.7962 103.4449 200.6742C 103.3239 200.5662 103.2539 200.4052 103.2519 200.2042C 103.247894 199.91719 103.2139 199.5902 103.1589 199.2292C 103.11089 198.8582 103.01289 198.4902 102.90189 198.0972C 102.788895 197.6922 102.6709 197.2732 102.553894 196.8532C 102.4239 196.4372 102.2809 196.0282 102.16589 195.6042C 102.0479 195.1832 101.9479 194.7602 101.88889 194.34619C 101.8209 193.9492 101.7919 193.5622 101.8349 193.1902C 101.9209 192.4502 102.27789 191.7762 103.1989 191.3102C 103.5019 191.15419 103.813896 191.0652 104.1329 191.03119C 104.4519 190.9942 104.7819 191.0042 105.11189 191.0562C 105.441895 191.10919 105.772896 191.2042 106.095894 191.3322C 106.4109 191.4722 106.706894 191.6622 106.9899 191.8712C 108.149895 192.68019 108.8629 194.05719 108.8909 195.2292C 110.0619 195.2562 111.439896 195.9702 112.24989 197.1302C 112.45789 197.4142 112.647896 197.7092 112.787895 198.0242C 112.91689 198.34619 113.010895 198.6772 113.0629 199.0082C 113.1159 199.3382 113.1269 199.66719 113.0899 199.98819C 113.05489 200.3062 112.966896 200.6182 112.8089 200.9212zM109.8269 198.3512C 109.6689 198.1552 109.497894 197.9982 109.31889 197.8752C 109.13889 197.7522 108.93089 197.67819 108.730896 197.6202C 108.3249 197.5062 107.9039 197.4902 107.4899 197.50119C 107.288895 197.5072 107.0729 197.3842 106.911896 197.20819C 106.73589 197.0462 106.6129 196.8302 106.6189 196.6302C 106.6309 196.2162 106.6139 195.7952 106.5009 195.38919C 106.441895 195.1892 106.3679 194.9822 106.244896 194.8012C 106.121895 194.6222 105.9659 194.4512 105.7679 194.2932C 104.966896 193.7842 104.650894 194.1222 104.5459 194.66719C 104.440895 195.2162 104.5189 195.9612 104.5879 196.33719C 104.704895 196.8112 104.7819 197.3152 104.8479 197.7892C 104.9109 198.2652 104.9489 198.7292 104.9359 199.18419C 105.3909 199.1712 105.8539 199.2092 106.330894 199.2732C 106.80589 199.3382 107.3089 199.4142 107.7829 199.5332C 108.1609 199.6012 108.9069 199.6812 109.454895 199.5782C 110.0009 199.4722 110.3389 199.1572 109.8269 198.3512z" stroke="#E7BC9E" stroke-width="0.425" fill="none" />
    <path id=""  transform="matrix(1 0 0 -1 0 316)"  d="M115.6805 211.6196L115.6805 211.6196C 116.0885 212.0466 116.3975 212.62259 116.5885 213.2726C 116.6785 213.59659 116.764496 213.93959 116.7735 214.28659C 116.7835 214.6346 116.7635 214.98859 116.710495 215.3366C 116.6575 215.6856 116.5735 216.0266 116.4575 216.3506C 116.3435 216.67459 116.154495 216.9726 115.961494 217.24359C 115.5625 217.7856 115.0485 218.2036 114.4345 218.4216C 113.4505 218.7416 112.7185 218.5176 112.1385 218.05559C 111.5765 217.5956 111.0765 216.86859 110.6595 216.1106C 110.5555 215.9206 110.4535 215.72859 110.3555 215.53459L110.3555 215.53459L110.208496 215.2446L110.208496 215.2446L110.043495 214.9516C 109.833496 214.5726 109.6235 214.19359 109.419495 213.82759C 109.319496 213.6496 109.224495 213.4796 109.1245 213.31459C 109.0125 213.1496 108.903496 212.9926 108.794495 212.8456C 108.5795 212.55159 108.3725 212.2956 108.1735 212.09059C 108.0335 211.9466 107.9695 211.7836 107.9795 211.6196C 107.9695 211.45659 108.0335 211.2936 108.1735 211.1496C 108.3725 210.9446 108.5795 210.68959 108.794495 210.3956C 108.903496 210.24759 109.0125 210.09059 109.1245 209.9256C 109.224495 209.7616 109.319496 209.59059 109.419495 209.4126C 109.6235 209.0466 109.833496 208.66759 110.043495 208.28859L110.043495 208.28859L110.208496 207.99559L110.208496 207.99559L110.3555 207.7056C 110.4535 207.51259 110.5555 207.3196 110.6605 207.1296C 111.0775 206.3716 111.5765 205.6456 112.1385 205.1856C 112.7195 204.72359 113.4515 204.4986 114.4345 204.81859C 115.0485 205.03659 115.5625 205.45459 115.960495 205.9966C 116.154495 206.2686 116.3435 206.5656 116.4565 206.88959C 116.5735 207.2136 116.656494 207.55559 116.709496 207.90259C 116.7625 208.25159 116.7835 208.6066 116.7735 208.9536C 116.764496 209.3006 116.6785 209.64459 116.5885 209.9686C 116.3975 210.6176 116.0885 211.19359 115.6805 211.6196zM114.1355 208.7526C 113.9225 207.8246 113.460495 207.8416 113.000496 208.1516C 112.5405 208.46559 112.072495 209.04759 111.8575 209.3606L111.8575 209.3606L111.6605 209.6736L111.6605 209.6736L111.4425 209.98059C 111.2975 210.1836 111.154495 210.3806 111.0085 210.57059C 110.7165 210.95259 110.417496 211.30759 110.0865 211.6196C 110.417496 211.9336 110.7165 212.2876 111.0085 212.6686C 111.154495 212.85959 111.2975 213.05759 111.4425 213.2596L111.4425 213.2596L111.6605 213.56659L111.6605 213.56659L111.8575 213.8796C 112.0735 214.1946 112.5415 214.77759 113.001495 215.09259C 113.460495 215.4036 113.9225 215.4186 114.1355 214.4876C 114.1635 214.23659 114.1595 214.00659 114.114494 213.7916C 114.0595 213.5766 113.9765 213.3786 113.8735 213.19559C 113.667496 212.8286 113.3815 212.5206 113.0805 212.2356C 112.9355 212.0976 112.8705 211.85759 112.8805 211.6196C 112.8705 211.38159 112.9365 211.1426 113.0805 211.0046C 113.3815 210.7206 113.667496 210.41159 113.8735 210.0446C 113.9765 209.86159 114.0595 209.66359 114.114494 209.4486C 114.1595 209.2336 114.1635 209.0036 114.1355 208.7526z" stroke="#E7BC9E" stroke-width="0.425" fill="none" />
    <path id=""  transform="matrix(1 0 0 -1 0 316)"  d="M101.8556 206.48691C 101.7226 206.38791 101.6156 206.2749 101.5366 206.14491C 101.4576 206.0159 101.4056 205.8699 101.3836 205.70691C 101.3566 205.5469 101.3326 205.38591 101.3546 205.1959C 101.3876 204.82591 101.5516 204.37091 101.8326 203.86691C 102.247604 203.1069 102.7776 202.5569 103.4366 202.2339C 104.1056 201.89691 104.8526 201.8239 105.6656 201.91791C 107.317604 202.0679 109.0106 203.1029 110.1806 203.6669C 110.3836 203.76291 110.5566 203.9149 110.622604 204.11191C 110.6946 204.30591 110.6996 204.52791 110.6216 204.74191C 110.3946 205.3549 110.2226 206.1349 109.8826 206.93991C 109.7266 207.33891 109.5576 207.7359 109.3716 208.1109C 109.1596 208.49191 108.9196 208.8519 108.6686 209.1709C 108.4156 209.4909 108.1446 209.76991 107.8526 209.99791C 107.5476 210.2269 107.2106 210.4059 106.8656 210.5229C 106.1726 210.7599 105.4086 210.74591 104.5766 210.5009C 104.0416 210.3399 103.5846 210.13791 103.3006 209.8999C 103.1546 209.7819 103.0426 209.6539 102.9646 209.5189C 102.8806 209.3849 102.7976 209.24991 102.7636 209.1019C 102.7246 208.95691 102.7176 208.8029 102.7386 208.63991C 102.748604 208.5589 102.7726 208.4739 102.7906 208.3909C 102.8046 208.3099 102.8246 208.2269 102.8536 208.1419C 102.9656 207.8029 103.1886 207.4329 103.5096 207.0619C 103.0376 207.0189 102.5976 206.92491 102.2766 206.7639C 102.1106 206.6869 101.984604 206.5869 101.8556 206.48691zM103.9626 204.9909C 104.0466 205.1179 104.164604 205.2109 104.2816 205.2939C 104.3966 205.3789 104.5296 205.44191 104.6796 205.49191C 104.9766 205.5919 105.3326 205.63791 105.7036 205.6829C 105.8796 205.7079 106.0406 205.82591 106.095604 205.9899C 106.1526 206.15291 106.1416 206.3439 106.0306 206.48491C 105.567604 207.07791 105.1976 207.6019 105.2906 208.20491C 105.5026 208.73491 105.9666 208.69391 106.4156 208.4319C 106.8666 208.1739 107.303604 207.6649 107.4946 207.3649C 107.6086 207.17291 107.7316 206.96991 107.8256 206.7729C 107.9166 206.5719 108.0076 206.37091 108.0986 206.1719C 108.2786 205.7639 108.4636 205.34491 108.6766 204.9199C 108.2426 204.7619 107.7966 204.6049 107.3806 204.4449C 107.1736 204.36891 106.9656 204.29291 106.7556 204.2169C 106.5506 204.1419 106.345604 204.0739 106.1176 204.02391C 105.7656 203.9489 105.0916 203.89891 104.5876 204.03491C 104.0826 204.1689 103.7276 204.46791 103.9626 204.9909z" stroke="#E7BC9E" stroke-width="0.425" fill="none" />
    <path id=""  transform="matrix(1 0 0 -1 0 316)"  d="M96.9909 193.45999C 96.800896 193.56499 96.607895 193.66699 96.414894 193.76399L96.414894 193.76399L96.1249 193.91199L96.1249 193.91199L95.831894 194.07599C 95.452896 194.28699 95.0739 194.497 94.70789 194.70099C 94.5299 194.79999 94.357895 194.896 94.1949 194.99599C 94.0299 195.107 93.872894 195.217 93.7249 195.325C 93.4309 195.541 93.175896 195.74799 92.970894 195.94699C 92.8269 196.086 92.663895 196.151 92.49989 196.14099C 92.3369 196.151 92.1739 196.08699 92.0299 195.94699C 91.8249 195.74799 91.56889 195.541 91.273895 195.325C 91.1279 195.217 90.970894 195.107 90.8059 194.99599C 90.6409 194.896 90.470894 194.79999 90.2929 194.70099C 89.926895 194.497 89.5479 194.28699 89.1679 194.07599L89.1679 194.07599L88.87489 193.911L88.87489 193.911L88.5859 193.76399C 88.3919 193.66699 88.1989 193.56499 88.009895 193.45999C 87.2519 193.043 86.524895 192.54399 86.064896 191.98099C 85.6029 191.401 85.3789 190.66899 85.6979 189.68599C 85.91589 189.071 86.3349 188.558 86.8769 188.159C 87.147896 187.965 87.4449 187.776 87.7689 187.663C 88.092896 187.547 88.4349 187.463 88.7829 187.40999C 89.1319 187.357 89.48489 187.33699 89.8329 187.346C 90.1809 187.35599 90.523895 187.441 90.8479 187.53099C 91.497894 187.722 92.0729 188.03099 92.49989 188.43999C 92.926895 188.032 93.5019 187.722 94.15189 187.53099C 94.4759 187.441 94.81889 187.35599 95.1669 187.346C 95.5139 187.33699 95.8689 187.357 96.216896 187.40999C 96.564896 187.463 96.9069 187.547 97.2299 187.663C 97.55489 187.776 97.8509 187.965 98.12389 188.159C 98.66589 188.55699 99.0839 189.071 99.301895 189.68599C 99.621895 190.66899 99.3959 191.401 98.9349 191.982C 98.4749 192.54399 97.74889 193.043 96.9909 193.45999zM95.3679 189.984C 95.1169 189.957 94.886894 189.95999 94.6719 190.00499C 94.456894 190.06 94.258896 190.144 94.0749 190.247C 93.7089 190.45299 93.399895 190.73799 93.1159 191.03899C 92.9769 191.185 92.7379 191.25 92.49989 191.239C 92.261894 191.25 92.0219 191.18399 91.884895 191.03899C 91.5999 190.73799 91.2919 190.45299 90.9249 190.247C 90.7409 190.144 90.5439 190.06 90.328896 190.00499C 90.1139 189.95999 89.8829 189.957 89.6329 189.984C 88.704895 190.19699 88.720894 190.65999 89.0319 191.11899C 89.345894 191.57999 89.927895 192.047 90.2409 192.262L90.2409 192.262L90.552895 192.45999L90.552895 192.45999L90.85989 192.67699C 91.0629 192.823 91.260895 192.96599 91.4509 193.112C 91.83289 193.403 92.1869 193.70299 92.49989 194.03299C 92.8129 193.70299 93.1679 193.403 93.5489 193.112C 93.7399 192.96599 93.9369 192.823 94.1389 192.67699L94.1389 192.67699L94.4469 192.45999L94.4469 192.45999L94.758896 192.262C 95.0749 192.04599 95.6579 191.579 95.97189 191.11899C 96.2829 190.65999 96.2989 190.198 95.3679 189.984z" stroke="#E7BC9E" stroke-width="0.425" fill="none" />
    <path id=""  transform="matrix(1 0 0 -1 0 316)"  d="M101.8854 200.6846C 101.5634 201.34259 101.0134 201.87259 100.253395 202.28659C 99.7484 202.56859 99.294395 202.73259 98.9244 202.7666C 98.7354 202.7876 98.574394 202.7636 98.4134 202.73659C 98.2504 202.7146 98.1044 202.6626 97.975395 202.58359C 97.8454 202.5046 97.7324 202.39859 97.6334 202.26459C 97.533394 202.13559 97.432396 202.0096 97.3554 201.84259C 97.1954 201.5226 97.101395 201.08159 97.058395 200.6106C 96.68639 200.9316 96.3174 201.15459 95.97839 201.2676C 95.893394 201.2946 95.810394 201.3156 95.72839 201.32959C 95.6454 201.34859 95.5614 201.3716 95.4804 201.38159C 95.3184 201.40259 95.1634 201.39659 95.018394 201.3566C 94.8704 201.3226 94.7364 201.2396 94.601395 201.1556C 94.4654 201.07759 94.338394 200.96559 94.2204 200.8196C 93.9824 200.5356 93.780396 200.07759 93.6194 199.54259C 93.3744 198.7116 93.3614 197.9466 93.5974 197.2536C 93.7144 196.9086 93.892395 196.5716 94.1214 196.2676C 94.349396 195.9756 94.629395 195.70459 94.949394 195.4516C 95.268394 195.1996 95.628395 194.9596 96.0094 194.7486C 96.3834 194.56259 96.781395 194.39459 97.1804 194.23659C 97.9864 193.89859 98.765396 193.7266 99.377396 193.4986C 99.5904 193.4216 99.8134 193.42459 100.0074 193.4966C 100.2034 193.5636 100.3564 193.7356 100.4524 193.93959C 101.016396 195.1086 102.0514 196.8026 102.2014 198.45459C 102.296394 199.2686 102.2224 200.0156 101.8854 200.6846zM100.0964 198.0026C 100.046394 197.7746 99.977394 197.5696 99.904396 197.36359C 99.8264 197.15459 99.7504 196.9466 99.6744 196.73859C 99.515396 196.3236 99.3584 195.87659 99.20039 195.44359C 98.7754 195.6566 98.3564 195.84059 97.949394 196.0226C 97.7484 196.1126 97.5484 196.2036 97.3474 196.2946C 97.1494 196.38959 96.948395 196.5116 96.755394 196.62459C 96.4534 196.8176 95.9444 197.2546 95.684395 197.70459C 95.42239 198.1536 95.3834 198.6166 95.9154 198.82959C 96.517395 198.92259 97.0424 198.55159 97.6344 198.0896C 97.7774 197.97859 97.9674 197.9666 98.130394 198.0246C 98.294395 198.07959 98.4124 198.2416 98.43639 198.4166C 98.4824 198.7876 98.5284 199.14459 98.628395 199.4406C 98.6784 199.5896 98.7424 199.7246 98.8264 199.8376C 98.9094 199.9556 99.001396 200.0726 99.129395 200.1576C 99.6504 200.3916 99.95039 200.0356 100.0834 199.52959C 100.2194 199.02559 100.171394 198.3526 100.0964 198.0026z" stroke="#E7BC9E" stroke-width="0.425" fill="none" />
    <path id=""  transform="matrix(1 0 0 -1 0 316)"  d="M82.8347 195.6037C 82.718704 196.02771 82.5757 196.4367 82.4467 196.8527C 82.328705 197.2717 82.2117 197.6917 82.0977 198.0977C 81.9877 198.4897 81.8897 198.8577 81.841705 199.2287C 81.785706 199.5907 81.7517 199.91771 81.7487 200.2037C 81.745705 200.4037 81.676704 200.5647 81.5547 200.6747C 81.4457 200.7967 81.2837 200.8657 81.0837 200.8687C 80.7977 200.87271 80.4707 200.9057 80.1087 200.9617C 79.7377 201.0097 79.369705 201.1077 78.9767 201.2177C 78.5707 201.3317 78.1517 201.4487 77.732704 201.5667C 77.3167 201.69571 76.9077 201.8387 76.4837 201.9547C 76.062706 202.07271 75.6407 202.1727 75.2267 202.2307C 74.828705 202.2997 74.4417 202.3277 74.0697 202.2857C 73.329704 202.1997 72.6557 201.8417 72.189705 200.9217C 72.03371 200.6177 71.9447 200.3067 71.910706 199.9877C 71.8737 199.6687 71.884705 199.3387 71.93671 199.0087C 71.9887 198.67871 72.0837 198.34671 72.2127 198.0237C 72.35271 197.7097 72.5417 197.4137 72.7497 197.1307C 73.5607 195.9707 74.93671 195.2567 76.1087 195.2287C 76.1367 194.05771 76.8497 192.68071 78.010704 191.8697C 78.2937 191.6617 78.5887 191.4727 78.9037 191.3327C 79.2267 191.2037 79.5577 191.1087 79.8877 191.0567C 80.218704 191.0047 80.5477 190.9937 80.86771 191.0307C 81.1867 191.0647 81.4977 191.1537 81.801704 191.3107C 82.7217 191.7757 83.079704 192.4497 83.1657 193.1897C 83.2077 193.5617 83.1797 193.9487 83.1107 194.34671C 83.052704 194.7607 82.952705 195.1837 82.8347 195.6037zM80.4577 194.6647C 80.3517 194.1187 80.036705 193.78171 79.230705 194.2937C 79.034706 194.4507 78.8787 194.6217 78.7547 194.8017C 78.632706 194.9817 78.5587 195.1887 78.4997 195.38971C 78.3867 195.7957 78.369705 196.2167 78.38171 196.6307C 78.3877 196.83171 78.2647 197.0477 78.0887 197.20871C 77.926704 197.3847 77.7107 197.5077 77.510704 197.50171C 77.0967 197.4897 76.675705 197.5067 76.2697 197.6197C 76.0687 197.67871 75.8607 197.7527 75.6817 197.8757C 75.5017 197.9987 75.3307 198.15471 75.173706 198.3517C 74.663704 199.1537 75.0017 199.4687 75.5477 199.5747C 76.0967 199.6797 76.841705 199.6017 77.217705 199.5327C 77.690704 199.4147 78.1937 199.3387 78.6687 199.2727C 79.145706 199.2097 79.6087 199.1717 80.063705 199.18471C 80.051704 198.7287 80.08971 198.2657 80.1527 197.7887C 80.218704 197.3137 80.2947 196.8107 80.412704 196.3377C 80.480705 195.9597 80.5617 195.2137 80.4577 194.6647z" stroke="#E7BC9E" stroke-width="0.425" fill="none" />
    <path id=""  transform="matrix(1 0 0 -1 0 316)"  d="M87.8204 194.23691C 88.2184 194.3939 88.616394 194.56291 88.991394 194.7489C 89.3704 194.9599 89.7314 195.1999 90.0504 195.4519C 90.3704 195.70491 90.6504 195.9759 90.877396 196.2669C 91.1074 196.5719 91.2854 196.9089 91.4034 197.2539C 91.6394 197.9469 91.6254 198.71191 91.380394 199.54291C 91.2194 200.07791 91.018394 200.53491 90.780396 200.81891C 90.6614 200.96591 90.533394 201.0769 90.3994 201.15591C 90.2644 201.23991 90.129395 201.3229 89.9824 201.3569C 89.835396 201.3959 89.682396 201.40291 89.519394 201.38191C 89.4394 201.3719 89.3544 201.3479 89.2714 201.32991C 89.1904 201.3159 89.1074 201.2949 89.0224 201.2669C 88.682396 201.1549 88.3134 200.93091 87.9424 200.6109C 87.8994 201.08191 87.8044 201.52191 87.644394 201.84291C 87.5674 202.0099 87.4664 202.1349 87.366394 202.2639C 87.268394 202.3979 87.155396 202.50491 87.0254 202.58391C 86.8954 202.6629 86.7494 202.7149 86.586395 202.73691C 86.4254 202.7639 86.2644 202.7879 86.07539 202.7659C 85.7054 202.73291 85.2504 202.56891 84.7464 202.28691C 83.9874 201.87291 83.4374 201.3419 83.114395 200.68391C 82.7774 200.01491 82.7034 199.26791 82.79739 198.45491C 82.948395 196.80191 83.9834 195.1089 84.546394 193.9389C 84.643394 193.73691 84.794395 193.5639 84.991394 193.4969C 85.185394 193.42491 85.408394 193.42091 85.6214 193.4989C 86.2354 193.7259 87.0134 193.8979 87.8204 194.23691zM85.0964 197.3639C 85.0224 197.5699 84.9524 197.7749 84.9034 198.00291C 84.8274 198.35391 84.779396 199.02791 84.9144 199.53291C 85.0484 200.0379 85.3474 200.3919 85.8704 200.15791C 85.9974 200.0729 86.0904 199.9559 86.1734 199.8379C 86.2584 199.7239 86.322395 199.5899 86.3714 199.4409C 86.4714 199.1439 86.518394 198.7879 86.5634 198.4169C 86.586395 198.2409 86.7054 198.0789 86.8694 198.0249C 87.033394 197.9669 87.2234 197.97891 87.365395 198.0899C 87.9574 198.5509 88.4824 198.92291 89.0844 198.82991C 89.615395 198.6179 89.574394 198.1539 89.3124 197.70491C 89.0534 197.2539 88.544395 196.81691 88.2444 196.62491C 88.0524 196.51091 87.850395 196.3889 87.6534 196.2949C 87.45039 196.2039 87.2504 196.1129 87.0514 196.02191C 86.644394 195.84091 86.225395 195.6569 85.7994 195.44391C 85.642395 195.8769 85.4854 196.32391 85.32539 196.7389C 85.2484 196.9469 85.17239 197.1549 85.0964 197.3639z" stroke="#E7BC9E" stroke-width="0.425" fill="none" />
    <path id=""  transform="matrix(1 0 0 -1 0 316)"  d="M74.33971 207.1291C 74.4447 207.3191 74.5467 207.5121 74.6447 207.7061L74.6447 207.7061L74.7907 207.9951L74.7907 207.9951L74.9557 208.2881C 75.1667 208.6681 75.3767 209.0461 75.579704 209.4131C 75.6807 209.5901 75.7757 209.76111 75.8747 209.9251C 75.9867 210.0901 76.0977 210.24811 76.204704 210.3941C 76.4207 210.6891 76.6277 210.9451 76.826706 211.1501C 76.965706 211.2931 77.0297 211.4571 77.020706 211.6201C 77.0297 211.7841 76.966705 211.9471 76.826706 212.0901C 76.6277 212.2951 76.4207 212.5511 76.204704 212.84511C 76.0977 212.9931 75.9867 213.1501 75.8747 213.3151C 75.7757 213.4781 75.6807 213.6501 75.579704 213.8281C 75.3767 214.1941 75.1667 214.5731 74.9557 214.9521L74.9557 214.9521L74.7907 215.2451L74.7907 215.2451L74.6447 215.5351C 74.5467 215.7281 74.4447 215.9201 74.33971 216.1111C 73.92271 216.8691 73.42271 217.59511 72.8607 218.0551C 72.2807 218.5171 71.548706 218.7421 70.565704 218.4211C 69.95071 218.2041 69.43671 217.7861 69.038704 217.2441C 68.8457 216.9721 68.6557 216.6741 68.5427 216.3511C 68.427704 216.0271 68.342705 215.6851 68.2897 215.3361C 68.2367 214.9891 68.216705 214.6341 68.2267 214.28711C 68.2357 213.9401 68.3207 213.5961 68.410706 213.2721C 68.60271 212.62311 68.910706 212.0461 69.3187 211.6201C 68.910706 211.1941 68.60271 210.6181 68.410706 209.96811C 68.3207 209.6441 68.2357 209.3001 68.2267 208.9541C 68.215706 208.6061 68.2367 208.2521 68.2897 207.9041C 68.342705 207.5551 68.427704 207.2131 68.5427 206.8891C 68.6557 206.5661 68.8457 206.2681 69.038704 205.9971C 69.43671 205.45511 69.95071 205.03711 70.565704 204.8191C 71.548706 204.4991 72.2807 204.7231 72.8607 205.1851C 73.423706 205.6451 73.92271 206.3721 74.33971 207.1291zM71.9987 208.1481C 71.5397 207.8361 71.077705 207.8211 70.8637 208.7521C 70.8367 209.0031 70.83971 209.2341 70.885704 209.4491C 70.939705 209.66411 71.022705 209.8611 71.1267 210.0441C 71.3327 210.41211 71.61771 210.72011 71.9187 211.0041C 72.064705 211.1431 72.1297 211.3811 72.118706 211.6201C 72.1297 211.8591 72.063705 212.0981 71.9187 212.2361C 71.61771 212.5201 71.3327 212.8291 71.1267 213.1961C 71.022705 213.3781 70.939705 213.5771 70.885704 213.7921C 70.83971 214.0061 70.8367 214.2371 70.8637 214.4881C 71.076706 215.4161 71.5397 215.39911 71.9987 215.0881C 72.4587 214.7751 72.926704 214.1931 73.1427 213.8791L73.1427 213.8791L73.33971 213.56711L73.33971 213.56711L73.5577 213.2591C 73.701706 213.0571 73.8467 212.8601 73.9917 212.6691C 74.2827 212.2881 74.5827 211.9331 74.912704 211.6201C 74.5827 211.3071 74.2827 210.9531 73.9917 210.5711C 73.8467 210.3801 73.701706 210.1831 73.5577 209.9801L73.5577 209.9801L73.33971 209.6731L73.33971 209.6731L73.1427 209.3611C 72.925705 209.0451 72.4577 208.4611 71.9987 208.1481z" stroke="#E7BC9E" stroke-width="0.425" fill="none" />
    <path id=""  transform="matrix(1 0 0 -1 0 316)"  d="M82.2099 208.39081C 82.2279 208.4738 82.2519 208.5588 82.260895 208.6398C 82.2829 208.80281 82.275894 208.9568 82.2369 209.1018C 82.202896 209.2498 82.119896 209.38481 82.0359 209.5188C 81.95789 209.65381 81.845894 209.7818 81.6989 209.89981C 81.41589 210.13881 80.95789 210.3398 80.4229 210.50081C 79.5909 210.7458 78.8269 210.75981 78.133896 210.5228C 77.788895 210.4058 77.4519 210.2268 77.1469 209.99881C 76.8549 209.7708 76.5839 209.4908 76.330894 209.1718C 76.079895 208.8518 75.8399 208.4918 75.6289 208.11081C 75.441895 207.73581 75.272896 207.3398 75.1169 206.9398C 74.77789 206.13481 74.605896 205.3548 74.3789 204.7418C 74.300896 204.52881 74.30489 204.3078 74.3769 204.11281C 74.442894 203.91681 74.6159 203.7648 74.81889 203.66681C 75.9889 203.1028 77.6819 202.06781 79.3349 201.91881C 80.147896 201.8238 80.8949 201.8968 81.563896 202.23381C 82.22189 202.5578 82.7529 203.10681 83.1669 203.8668C 83.4489 204.3708 83.6129 204.8258 83.6459 205.1958C 83.6669 205.38481 83.6429 205.5458 83.6159 205.7068C 83.593895 205.8698 83.5429 206.01581 83.4639 206.1448C 83.384895 206.27481 83.27689 206.38881 83.1439 206.48581C 83.0149 206.5868 82.8889 206.6868 82.7229 206.7648C 82.40189 206.9248 81.9619 207.0188 81.4909 207.0618C 81.8109 207.4328 82.0349 207.80281 82.1459 208.1418C 82.1749 208.2268 82.1959 208.3098 82.2099 208.39081zM80.4099 204.0368C 79.9059 203.89981 79.231895 203.9488 78.8829 204.0238C 78.6549 204.0738 78.4499 204.1418 78.2439 204.2168C 78.0349 204.2928 77.8269 204.3688 77.6189 204.44481C 77.203896 204.6048 76.7569 204.7628 76.3239 204.9198C 76.536896 205.34581 76.720894 205.7648 76.90189 206.1718C 76.9919 206.3708 77.08289 206.57181 77.1749 206.7728C 77.2689 206.97081 77.3909 207.1728 77.5049 207.3648C 77.6979 207.66681 78.133896 208.1768 78.5849 208.4348C 79.0339 208.69681 79.496895 208.7368 79.7099 208.2048C 79.802895 207.6018 79.4309 207.0778 78.968895 206.4848C 78.857895 206.3428 78.84689 206.15181 78.9049 205.9898C 78.9599 205.8258 79.121895 205.7068 79.2959 205.6828C 79.6669 205.63881 80.022896 205.5918 80.3209 205.4918C 80.469894 205.4418 80.6029 205.3788 80.717896 205.29381C 80.8349 205.2108 80.952896 205.1178 81.037895 204.9908C 81.2709 204.4698 80.91589 204.1708 80.4099 204.0368z" stroke="#E7BC9E" stroke-width="0.425" fill="none" />
    <path id=""  transform="matrix(1 0 0 -1 0 316)"  d="M72.1906 222.31929C 72.6556 221.39929 73.3296 221.0403 74.0696 220.9543C 74.4426 220.9113 74.8286 220.9413 75.2266 221.0083C 75.6406 221.0683 76.0636 221.1673 76.4846 221.2853C 76.9076 221.40129 77.3176 221.5433 77.7336 221.6733C 78.1526 221.7903 78.5706 221.9093 78.9766 222.0223C 79.3696 222.1323 79.7376 222.2313 80.1096 222.2793C 80.4706 222.3343 80.7976 222.3683 81.0836 222.37129C 81.2836 222.37329 81.444595 222.44429 81.554596 222.56529C 81.6766 222.6743 81.7456 222.8353 81.7486 223.0363C 81.7516 223.3233 81.7856 223.6503 81.8416 224.01129C 81.8896 224.3823 81.9876 224.75029 82.097595 225.1433C 82.2116 225.5483 82.3286 225.9673 82.4466 226.3873C 82.5756 226.8033 82.7186 227.2123 82.8346 227.63629C 82.9526 228.0563 83.0516 228.4803 83.110596 228.8943C 83.179596 229.29129 83.207596 229.6783 83.165596 230.0503C 83.0786 230.78929 82.721596 231.4643 81.8016 231.92929C 81.4976 232.0863 81.1866 232.1743 80.8676 232.2093C 80.5476 232.24629 80.2186 232.2363 79.888596 232.1833C 79.5576 232.1313 79.2266 232.0363 78.9036 231.9083C 78.5896 231.7683 78.2936 231.5783 78.0106 231.3693C 76.8506 230.5603 76.1366 229.1833 76.1096 228.01129C 74.9376 227.98329 73.5606 227.2703 72.749596 226.11029C 72.541595 225.8263 72.3526 225.5313 72.2126 225.2163C 72.0836 224.8943 71.9886 224.5633 71.9366 224.2323C 71.8836 223.9023 71.8726 223.5723 71.9106 223.2523C 71.944595 222.9343 72.0336 222.6223 72.1906 222.31929zM75.1736 224.8893C 75.3306 225.0853 75.5016 225.2423 75.6816 225.3653C 75.860596 225.4883 76.0696 225.5623 76.2696 225.6203C 76.6746 225.7343 77.096596 225.75029 77.5106 225.7393C 77.7116 225.73329 77.9266 225.8563 78.0886 226.0323C 78.2646 226.19429 78.387596 226.4103 78.3816 226.61029C 78.3696 227.02429 78.3866 227.4453 78.499596 227.8513C 78.5586 228.0513 78.6326 228.2583 78.7546 228.4393C 78.8786 228.6183 79.0346 228.7883 79.2316 228.9473C 80.0336 229.4563 80.3486 229.1183 80.4546 228.5723C 80.5596 228.02429 80.4816 227.2793 80.4126 226.90329C 80.2946 226.42929 80.2176 225.9253 80.1526 225.4513C 80.0896 224.9743 80.0516 224.51129 80.0646 224.0563C 79.6096 224.06929 79.1456 224.0313 78.6686 223.9673C 78.194595 223.9023 77.6916 223.8263 77.2176 223.70729C 76.8386 223.63829 76.0926 223.5593 75.5446 223.6623C 74.9986 223.7683 74.6616 224.0833 75.1736 224.8893z" stroke="#E7BC9E" stroke-width="0.425" fill="none" />
    <path id=""  transform="matrix(1 0 0 -1 0 316)"  d="M83.645805 218.0437C 83.6128 218.41469 83.44881 218.8687 83.1668 219.37369C 82.7528 220.1337 82.2218 220.6837 81.562805 221.0067C 80.894806 221.34369 80.146805 221.4167 79.3348 221.3227C 77.6828 221.1727 75.9888 220.1377 74.8188 219.5727C 74.616806 219.47769 74.4438 219.32469 74.3768 219.1287C 74.3048 218.9347 74.300804 218.71269 74.37881 218.4977C 74.605804 217.8857 74.7778 217.1057 75.116806 216.30069C 75.2738 215.9007 75.4418 215.5047 75.62881 215.1297C 75.839806 214.74869 76.0798 214.3887 76.3318 214.0687C 76.5848 213.7497 76.854805 213.4697 77.146805 213.2417C 77.451805 213.0137 77.7888 212.8347 78.133804 212.7177C 78.826805 212.4807 79.590805 212.49469 80.422806 212.7397C 80.9578 212.89969 81.4148 213.10269 81.69881 213.3407C 81.8458 213.4587 81.9568 213.5857 82.035805 213.7217C 82.119804 213.8557 82.202805 213.99069 82.2368 214.1387C 82.2748 214.28369 82.28281 214.4377 82.2608 214.6007C 82.2518 214.6817 82.227806 214.7667 82.2098 214.8497C 82.1958 214.9307 82.174805 215.0137 82.145805 215.0987C 82.033806 215.4377 81.81081 215.8067 81.49081 216.1787C 81.96181 216.2217 82.4018 216.3147 82.7228 216.4757C 82.8898 216.55269 83.0158 216.6527 83.14381 216.7537C 83.2778 216.85269 83.3848 216.9657 83.463806 217.09569C 83.5428 217.2247 83.5948 217.3707 83.616806 217.53369C 83.64281 217.6937 83.6678 217.85469 83.645805 218.0437zM81.0378 218.2497C 80.952805 218.1227 80.8348 218.0287 80.717804 217.9467C 80.602806 217.8617 80.4698 217.79869 80.3208 217.74869C 80.022804 217.64769 79.6668 217.60269 79.29581 217.5577C 79.120804 217.5327 78.9588 217.41469 78.9048 217.2497C 78.8468 217.08769 78.8588 216.89569 78.9688 216.75569C 79.4318 216.16269 79.8028 215.6377 79.7098 215.03569C 79.4978 214.50569 79.033806 214.5457 78.5848 214.8077C 78.133804 215.0667 77.6968 215.5757 77.50481 215.8757C 77.3918 216.06769 77.26781 216.27069 77.174805 216.4677C 77.0828 216.6687 76.991806 216.8687 76.9018 217.0687C 76.7208 217.4767 76.536804 217.89569 76.32381 218.3207C 76.756805 218.4787 77.203804 218.6357 77.618805 218.7957C 77.826805 218.87169 78.034805 218.9477 78.243805 219.0237C 78.44981 219.0987 78.6548 219.1667 78.882805 219.21669C 79.2338 219.2917 79.90781 219.34169 80.411804 219.2047C 80.9168 219.0717 81.271805 218.77269 81.0378 218.2497z" stroke="#E7BC9E" stroke-width="0.425" fill="none" />
    <path id=""  transform="matrix(1 0 0 -1 0 316)"  d="M88.0095 229.7805C 88.1985 229.6755 88.3925 229.5735 88.5845 229.4755L88.5845 229.4755L88.8745 229.3285L88.8745 229.3285L89.1675 229.1635C 89.5465 228.9535 89.9265 228.7435 90.2925 228.5395C 90.4705 228.4395 90.6415 228.3445 90.8055 228.2445C 90.9705 228.1325 91.1265 228.0235 91.2745 227.9155C 91.569496 227.6995 91.8245 227.4925 92.0295 227.2935C 92.1725 227.1535 92.3365 227.08951 92.4995 227.0995C 92.6625 227.08951 92.8265 227.1535 92.9705 227.2935C 93.1755 227.4925 93.4305 227.6995 93.7255 227.9155C 93.8725 228.0235 94.0295 228.1325 94.194496 228.2445C 94.3585 228.3445 94.5295 228.4395 94.7065 228.5395C 95.0735 228.7435 95.4525 228.9535 95.8315 229.1645L95.8315 229.1645L96.1245 229.3295L96.1245 229.3295L96.4145 229.4755C 96.6085 229.5735 96.8005 229.6755 96.9905 229.7805C 97.7475 230.1975 98.4755 230.6965 98.9355 231.2585C 99.3965 231.8395 99.6215 232.5715 99.3015 233.5545C 99.083496 234.1685 98.6655 234.6825 98.1235 235.0805C 97.8525 235.2745 97.5545 235.4635 97.2305 235.5765C 96.9065 235.6935 96.5655 235.7775 96.2165 235.8305C 95.8685 235.8835 95.514496 235.9035 95.1665 235.8935C 94.819496 235.8845 94.4765 235.79851 94.1525 235.7085C 93.5025 235.5185 92.9265 235.2085 92.4995 234.8005C 92.0725 235.2085 91.4975 235.5185 90.8485 235.7085C 90.5245 235.7995 90.1805 235.8845 89.8325 235.8935C 89.486496 235.9035 89.1315 235.8835 88.7825 235.8305C 88.4355 235.7775 88.0935 235.6935 87.7695 235.5775C 87.4455 235.4645 87.1485 235.2755 86.8765 235.0815C 86.3345 234.6825 85.9155 234.1695 85.6975 233.5545C 85.3785 232.5715 85.6035 231.8385 86.0655 231.2585C 86.5245 230.6965 87.2515 230.1965 88.0095 229.7805zM89.6325 233.2565C 89.8825 233.2835 90.1135 233.2795 90.3285 233.2355C 90.5435 233.1795 90.7405 233.0965 90.9245 232.9935C 91.2915 232.7875 91.6005 232.5025 91.8845 232.2015C 92.0225 232.0555 92.2615 231.9905 92.4995 232.0005C 92.7385 231.9905 92.9785 232.0565 93.1155 232.2015C 93.4005 232.5025 93.708496 232.7875 94.0745 232.9935C 94.2585 233.0965 94.4565 233.1795 94.6715 233.2355C 94.8865 233.2795 95.1165 233.2835 95.3675 233.2565C 96.2955 233.0435 96.2785 232.5805 95.9685 232.1205C 95.6545 231.6605 95.0725 231.1935 94.7585 230.9785L94.7585 230.9785L94.4465 230.7805L94.4465 230.7805L94.139496 230.5625C 93.9375 230.4175 93.7395 230.2745 93.5485 230.1285C 93.1675 229.8365 92.8135 229.5375 92.4995 229.2065C 92.1875 229.5375 91.8325 229.8365 91.4505 230.1285C 91.2605 230.2745 91.0635 230.4175 90.8605 230.5625L90.8605 230.5625L90.5525 230.7805L90.5525 230.7805L90.2405 230.9785C 89.9255 231.1945 89.3415 231.6615 89.0285 232.1215C 88.7165 232.5805 88.7005 233.0425 89.6325 233.2565z" stroke="#E7BC9E" stroke-width="0.425" fill="none" />
    <path id=""  transform="matrix(1 0 0 -1 0 316)"  d="M83.114 222.5559C 83.437 221.8979 83.987 221.3679 84.747 220.9539C 85.251 220.6719 85.705 220.5079 86.076 220.4739C 86.264 220.4529 86.425 220.4759 86.587 220.5039C 86.75 220.5259 86.895 220.5779 87.025 220.6569C 87.155 220.7359 87.268 220.8419 87.366 220.9759C 87.466 221.1049 87.567 221.2309 87.644 221.3979C 87.804 221.7179 87.899 222.1579 87.942 222.6299C 88.313 222.3089 88.682 222.0859 89.022 221.9729C 89.106 221.9449 89.19 221.9249 89.270996 221.9109C 89.354004 221.8919 89.439 221.8689 89.519 221.8589C 89.681 221.8379 89.836 221.8439 89.982 221.8839C 90.13 221.9179 90.264 222.0009 90.398 222.0849C 90.534 222.1629 90.661 222.2749 90.78 222.4209C 91.018 222.7049 91.219 223.1619 91.381 223.6969C 91.626 224.5289 91.639 225.2939 91.403 225.9869C 91.286 226.3319 91.107 226.6689 90.878 226.9729C 90.65 227.2639 90.371 227.5359 90.05 227.7889C 89.731 228.0409 89.372 228.2809 88.991 228.4919C 88.616 228.6769 88.218 228.8459 87.82 229.0029C 87.014 229.3419 86.235 229.5139 85.622 229.7419C 85.409 229.8189 85.187 229.8159 84.993 229.7439C 84.796 229.6769 84.644 229.5049 84.547 229.3009C 83.983 228.1309 82.948 226.4379 82.798 224.7859C 82.704 223.9719 82.777 223.2249 83.114 222.5559zM84.903 225.2379C 84.953 225.4659 85.022 225.6709 85.096 225.8769C 85.173 226.0859 85.249 226.2939 85.325 226.5009C 85.485 226.9169 85.642 227.3629 85.799 227.7969C 86.225 227.5839 86.644 227.3999 87.051 227.2179C 87.251 227.1279 87.452 227.0369 87.653 226.94589C 87.85 226.8509 88.052 226.7289 88.245 226.6149C 88.546 226.4229 89.055 225.9859 89.315 225.5359C 89.576996 225.0869 89.617 224.6229 89.085 224.4109C 88.482 224.3179 87.958 224.6879 87.365 225.1509C 87.222 225.2619 87.032 225.2729 86.87 225.2159C 86.705 225.1609 86.587 224.9989 86.563 224.8239C 86.518 224.4529 86.471 224.0959 86.372 223.7999C 86.322 223.6499 86.258 223.5159 86.174 223.4019C 86.09 223.2849 85.998 223.1669 85.871 223.0829C 85.349 222.8479 85.05 223.2049 84.917 223.7099C 84.78 224.2149 84.829 224.8869 84.903 225.2379z" stroke="#E7BC9E" stroke-width="0.425" fill="none" />
    <path id=""  transform="matrix(1 0 0 -1 0 316)"  d="M102.1647 227.63681C 102.2807 227.2128 102.4237 226.8038 102.5537 226.3878C 102.6707 225.9678 102.788704 225.54881 102.9017 225.1428C 103.0127 224.75081 103.1107 224.38281 103.1587 224.01181C 103.2137 223.64981 103.2477 223.3228 103.2517 223.0368C 103.2537 222.8368 103.3237 222.6748 103.4447 222.5648C 103.5547 222.4438 103.7157 222.37381 103.9157 222.37181C 104.202705 222.3678 104.5297 222.33481 104.8917 222.27881C 105.2617 222.2308 105.6307 222.13281 106.022705 222.0218C 106.4287 221.90881 106.8477 221.7908 107.2667 221.67381C 107.6837 221.5448 108.092705 221.40181 108.5167 221.28581C 108.9367 221.1678 109.3597 221.06781 109.773705 221.00981C 110.1717 220.94081 110.5587 220.91281 110.9297 220.9548C 111.6697 221.0408 112.343704 221.3988 112.8097 222.3188C 112.966705 222.6228 113.0547 222.9338 113.0897 223.2528C 113.1267 223.57181 113.1157 223.90181 113.063705 224.23181C 113.010704 224.5618 112.9167 224.8928 112.787704 225.21681C 112.647705 225.5308 112.4577 225.82681 112.2497 226.1098C 111.439705 227.2698 110.0627 227.9828 108.8917 228.01181C 108.8627 229.18181 108.149704 230.5598 106.9897 231.36981C 106.7067 231.57881 106.410706 231.7678 106.0967 231.9078C 105.772705 232.0368 105.4417 232.1318 105.1117 232.1828C 104.7817 232.23581 104.4517 232.24681 104.1327 232.20981C 103.813705 232.17581 103.5027 232.0868 103.1987 231.92981C 102.2777 231.46481 101.9207 230.78981 101.8347 230.05081C 101.7917 229.6788 101.8207 229.29181 101.8887 228.8938C 101.9477 228.47981 102.0477 228.0558 102.1647 227.63681zM104.5427 228.5758C 104.647705 229.12181 104.9637 229.4588 105.7687 228.94681C 105.9657 228.78981 106.121704 228.6188 106.244705 228.43881C 106.3667 228.2588 106.4417 228.0518 106.5007 227.8508C 106.6137 227.44481 106.6307 227.0238 106.6177 226.6098C 106.6127 226.4088 106.7357 226.19281 106.911705 226.0318C 107.0737 225.8558 107.2897 225.7328 107.4897 225.7388C 107.9037 225.75081 108.3247 225.73381 108.730705 225.6208C 108.9317 225.5618 109.1387 225.48781 109.3187 225.3648C 109.4977 225.2418 109.6687 225.0858 109.8267 224.88881C 110.3367 224.0868 109.9977 223.77081 109.4517 223.6658C 108.9037 223.5608 108.1587 223.63881 107.7827 223.70781C 107.3097 223.8258 106.8057 223.90181 106.3307 223.9678C 105.8547 224.0308 105.3917 224.0688 104.9367 224.0558C 104.9487 224.51181 104.9107 224.9738 104.8477 225.45181C 104.7817 225.92581 104.704704 226.42981 104.5877 226.9028C 104.5187 227.2808 104.438705 228.02681 104.5427 228.5758z" stroke="#E7BC9E" stroke-width="0.425" fill="none" />
    <path id=""  transform="matrix(1 0 0 -1 0 316)"  d="M97.18 229.0026C 96.781 228.84659 96.384 228.6776 96.009 228.4916C 95.629 228.2806 95.268 228.04059 94.949 227.78859C 94.63 227.5356 94.349 227.2646 94.122 226.9726C 93.892 226.6676 93.715 226.3306 93.597 225.9856C 93.361 225.2936 93.375 224.5286 93.62 223.6966C 93.78 223.16159 93.982 222.70459 94.219 222.4216C 94.339 222.2746 94.465996 222.1626 94.601 222.0846C 94.736 222.0006 94.871 221.9176 95.017 221.88359C 95.164 221.84459 95.318 221.8376 95.479996 221.8586C 95.561 221.86859 95.645 221.8926 95.728 221.9106C 95.81 221.92459 95.893 221.9456 95.978 221.9736C 96.317 222.0856 96.686 222.3096 97.057 222.6296C 97.101 222.1576 97.195 221.7186 97.354996 221.3976C 97.432 221.23059 97.533 221.1046 97.632996 220.9766C 97.732 220.84259 97.845 220.7356 97.974 220.6566C 98.104 220.57759 98.25 220.52559 98.414 220.5036C 98.574 220.4766 98.735 220.45259 98.923996 220.4746C 99.295 220.5076 99.749 220.6716 100.254 220.9536C 101.013 221.3676 101.562996 221.8976 101.886 222.5566C 102.223 223.2256 102.297 223.9726 102.201996 224.7856C 102.051 226.43759 101.016 228.1306 100.453 229.30159C 100.356 229.5036 100.205 229.67659 100.007996 229.74359C 99.814 229.8156 99.592 229.8196 99.378 229.7416C 98.765 229.51459 97.986 229.34259 97.18 229.0026zM99.904 225.8756C 99.977 225.6706 100.047 225.46559 100.096 225.2376C 100.172 224.88559 100.221 224.2116 100.085 223.7076C 99.951996 223.20259 99.652 222.8486 99.13 223.0826C 99.002 223.1666 98.909 223.28459 98.826996 223.4016C 98.742 223.5166 98.678 223.6496 98.629 223.79959C 98.528 224.09659 98.482 224.45259 98.436 224.8236C 98.413 224.99959 98.295 225.16159 98.13 225.21559C 97.967 225.2726 97.776 225.2616 97.634 225.15059C 97.043 224.6886 96.517 224.3176 95.916 224.4106C 95.385 224.62259 95.425 225.0866 95.687 225.5356C 95.947 225.98659 96.456 226.4236 96.756 226.6146C 96.948 226.7296 97.15 226.8516 97.347 226.9456C 97.548996 227.03659 97.749 227.1276 97.949 227.2186C 98.356 227.3996 98.775 227.58359 99.201 227.7966C 99.358 227.3626 99.515 226.9166 99.675 226.5006C 99.751 226.2936 99.826996 226.0856 99.904 225.8756z" stroke="#E7BC9E" stroke-width="0.425" fill="none" />
    <path id=""  transform="matrix(1 0 0 -1 0 316)"  d="M108.6689 214.06941C 108.9209 214.38841 109.1609 214.74841 109.371895 215.12941C 109.5569 215.50441 109.7259 215.90141 109.8829 216.3004C 110.22189 217.10641 110.3939 217.8854 110.621895 218.4974C 110.6989 218.7104 110.6959 218.93341 110.62389 219.12741C 110.5569 219.32341 110.384895 219.47641 110.1799 219.5724C 109.010895 220.1374 107.317894 221.1714 105.66589 221.32141C 104.8519 221.41641 104.1049 221.3424 103.4359 221.00641C 102.7779 220.68341 102.247894 220.1334 101.8329 219.37341C 101.551895 218.86841 101.38789 218.41441 101.3539 218.0444C 101.3329 217.85541 101.355896 217.69441 101.383896 217.5334C 101.4059 217.3704 101.4579 217.22441 101.536896 217.09541C 101.6159 216.96541 101.72189 216.8524 101.855896 216.7534C 101.98489 216.65341 102.1109 216.5534 102.2769 216.4754C 102.59689 216.3164 103.037895 216.2214 103.509895 216.1784C 103.1879 215.8074 102.9659 215.4384 102.8529 215.0984C 102.8249 215.01341 102.8049 214.9304 102.79089 214.84941C 102.7709 214.7664 102.74889 214.68141 102.7389 214.6004C 102.717896 214.4384 102.7239 214.2834 102.76289 214.13841C 102.7979 213.9904 102.8809 213.85641 102.9649 213.7214C 103.0429 213.5854 103.1539 213.4584 103.300896 213.34041C 103.5849 213.1024 104.0419 212.9004 104.5769 212.73941C 105.4089 212.4944 106.1739 212.48141 106.8659 212.7174C 107.2119 212.83441 107.5479 213.0124 107.8529 213.24141C 108.1439 213.4694 108.41589 213.7494 108.6689 214.06941zM107.8259 216.4674C 107.730896 216.2704 107.608894 216.0684 107.494896 215.87541C 107.302895 215.57341 106.8659 215.0644 106.41589 214.8054C 105.966896 214.54341 105.5029 214.5034 105.29089 215.0354C 105.1979 215.6374 105.567894 216.16241 106.0309 216.7554C 106.1409 216.8974 106.1529 217.08841 106.095894 217.25041C 106.04089 217.41441 105.8789 217.53241 105.703896 217.5574C 105.3329 217.6024 104.9759 217.6484 104.6799 217.74841C 104.5299 217.7984 104.3959 217.86241 104.2819 217.94641C 104.164894 218.0294 104.0469 218.1224 103.9629 218.2494C 103.7279 218.77141 104.0849 219.0704 104.5899 219.2034C 105.094894 219.34041 105.7669 219.29141 106.1179 219.2164C 106.345894 219.16641 106.550896 219.0984 106.7559 219.02441C 106.9659 218.9474 107.1739 218.8704 107.3809 218.79541C 107.7969 218.6354 108.2429 218.47841 108.676895 218.32141C 108.4639 217.8954 108.2789 217.47641 108.0979 217.06941C 108.0079 216.86841 107.9169 216.66841 107.8259 216.4674z" stroke="#E7BC9E" stroke-width="0.425" fill="none" />
    <path id=""  transform="matrix(1 0 0 -1 0 316)"  d="M92.4978 218.13469C 88.9008 218.13469 85.9848 215.21869 85.9848 211.62169C 85.9848 208.02469 88.9008 205.1097 92.4978 205.1097C 96.0948 205.1097 99.0098 208.02469 99.0098 211.62169C 99.0098 215.21869 96.0948 218.13469 92.4978 218.13469M92.4978 207.9567C 90.4738 207.9567 88.8318 209.5977 88.8318 211.62169C 88.8318 213.64569 90.4738 215.28769 92.4978 215.28769C 94.521805 215.28769 96.1628 213.64569 96.1628 211.62169C 96.1628 209.5977 94.521805 207.9567 92.4978 207.9567" stroke="none" fill="#E7BC9E" fill-rule="nonzero" />
		</g>
	</g>
</g>
</svg>