<?xml version="1.0" standalone="no"?>
<!DOCTYPE svg PUBLIC "-//W3C//DTD SVG 1.0//EN" "http://www.w3.org/TR/2001/REC-SVG-20010904/DTD/svg10.dtd">
<svg xmlns="http://www.w3.org/2000/svg" xmlns:xlink="http://www.w3.org/1999/xlink" id="body_16" width="247" height="421">

<defs>
    <clipPath  id="1">

    <path id=""  clip-rule="evenodd" transform="matrix(1 0 0 1 0 0)"  d="M0 316L0 0L0 0L185 0L185 0L185 316L185 316L0 316z" />    </clipPath>
    <clipPath  id="2">

    <path id=""  clip-rule="evenodd" transform="matrix(1 0 0 1 0 0)"  d="M0 0L185 0L185 0L185 316L185 316L0 316z" />    </clipPath>
</defs>

<g transform="matrix(1.3333 0 0 1.3333 0 0)">
	<g clip-path="url(#1)" >
		<g clip-path="url(#2)" >
    <path id=""  transform="matrix(1 0 0 -1 0 316)"  d="M114.926796 220.9123C 113.7088 223.8543 111.9078 226.54129 109.665794 228.78629C 107.4218 231.02829 104.733795 232.8293 101.791794 234.0463C 98.8528 235.2683 95.6618 235.8933 92.4998 235.8963C 89.3378 235.8933 86.1468 235.2683 83.207794 234.0463C 80.26579 232.8293 77.5778 231.02829 75.33479 228.78629C 73.0918 226.54129 71.2908 223.8543 70.0738 220.9123C 68.8518 217.9733 68.2258 214.78229 68.2238 211.6203C 68.2258 208.4583 68.8518 205.26729 70.0738 202.3283C 71.2908 199.38629 73.0918 196.69829 75.33479 194.4543C 77.5778 192.21129 80.26579 190.41129 83.207794 189.19429C 86.1468 187.97229 89.3378 187.3463 92.4998 187.3443C 95.6618 187.3463 98.8528 187.97229 101.791794 189.19429C 104.733795 190.41129 107.4218 192.21129 109.665794 194.4543C 111.9078 196.69829 113.7088 199.38629 114.926796 202.3283C 116.1478 205.26729 116.7728 208.4583 116.775795 211.6203C 116.7728 214.78229 116.1478 217.9733 114.926796 220.9123zM103.2588 231.5163C 105.1688 230.45029 106.928795 229.1373 108.4918 227.61229C 110.0168 226.04929 111.329796 224.28929 112.3948 222.37929C 113.414795 220.4433 114.1718 218.37529 114.6408 216.2363C 114.011795 216.8403 113.3118 217.2733 112.593796 217.5143C 111.886795 217.76129 111.093796 217.79729 110.360794 217.6733C 109.428795 220.4043 107.8688 222.9113 105.843796 224.96329C 103.790794 226.98929 101.2838 228.5483 98.553795 229.4813C 98.677795 230.21329 98.6408 231.0053 98.3938 231.71329C 98.1528 232.4323 97.719795 233.13129 97.1148 233.76129C 99.2538 233.29129 101.3218 232.5353 103.2588 231.5163zM105.692795 208.91429C 106.0168 208.3973 106.4458 207.8763 106.9728 207.3843C 107.510796 206.8913 108.0768 206.4493 108.7868 206.0943C 107.9358 203.6093 106.5148 201.3243 104.6698 199.4513C 102.7968 197.6053 100.510796 196.18329 98.025795 195.3333C 97.6718 196.04329 97.2288 196.6093 96.7348 197.1483C 96.2428 197.6733 95.72279 198.10329 95.205795 198.42729C 96.4788 198.72029 97.7158 199.1543 98.8768 199.7593C 100.0158 200.4043 101.0738 201.1883 102.0208 202.0983C 102.9308 203.04529 103.7158 204.1023 104.359795 205.24329C 104.9658 206.4043 105.398796 207.64029 105.692795 208.91429zM103.4058 207.1053C 102.817795 205.68329 101.942795 204.37129 100.8468 203.2733C 99.7498 202.17729 98.4368 201.3013 97.0148 200.71329C 95.5918 200.1243 94.0618 199.82129 92.4998 199.81529C 90.9378 199.82129 89.4078 200.1243 87.9848 200.71329C 86.5628 201.3013 85.25079 202.17729 84.1528 203.2733C 83.05679 204.37129 82.1808 205.68329 81.593796 207.1053C 81.0038 208.52829 80.7008 210.05829 80.69479 211.6203C 80.7008 213.1823 81.0038 214.71129 81.593796 216.1353C 82.1808 217.5573 83.05679 218.8703 84.1528 219.9673C 85.25079 221.0633 86.5628 221.9383 87.9848 222.52629C 89.4078 223.11629 90.9378 223.4193 92.4998 223.42429C 94.0618 223.4193 95.5918 223.11629 97.0148 222.52629C 98.4368 221.9383 99.7498 221.0633 100.8468 219.9673C 101.942795 218.8703 102.817795 217.5573 103.4058 216.1353C 103.9958 214.71129 104.2998 213.1823 104.3058 211.6203C 104.2998 210.05829 103.9958 208.52829 103.4058 207.1053zM79.30679 214.3263C 78.9828 214.8423 78.554794 215.36429 78.0278 215.8553C 77.4888 216.34929 76.9238 216.79129 76.2138 217.1463C 77.0638 219.6303 78.4848 221.9173 80.330795 223.7903C 82.2038 225.6353 84.4888 227.05629 86.9738 227.90729C 87.3288 227.1973 87.7708 226.63129 88.2648 226.0923C 88.7568 225.5663 89.2778 225.1373 89.7948 224.8133C 88.5208 224.51929 87.2848 224.0853 86.122795 223.4803C 84.982796 222.83629 83.926796 222.0513 82.9788 221.1413C 82.0688 220.1953 81.2838 219.1373 80.6398 217.99829C 80.0348 216.83629 79.59979 215.59929 79.30679 214.3263zM80.638794 205.24329C 81.2838 204.10329 82.067795 203.0463 82.9778 202.09929C 83.9258 201.1893 84.9818 200.4043 86.122795 199.7603C 87.2838 199.15529 88.5198 198.72029 89.7938 198.42729C 89.276794 198.10329 88.7568 197.6733 88.2648 197.1483C 87.7708 196.6093 87.3288 196.04329 86.9738 195.3333C 84.4888 196.1843 82.2038 197.6053 80.330795 199.4513C 78.4848 201.3243 77.0638 203.6093 76.2138 206.0943C 76.9238 206.4493 77.4888 206.8913 78.0278 207.3853C 78.5538 207.8763 78.9828 208.3983 79.30679 208.9153C 79.59979 207.6413 80.0338 206.40529 80.638794 205.24329zM104.359795 217.9973C 103.7168 219.13629 102.9308 220.19429 102.0208 221.1413C 101.0748 222.0513 100.0168 222.8353 98.8778 223.4803C 97.7168 224.0853 96.4788 224.51929 95.2068 224.8133C 95.72279 225.13629 96.2438 225.5663 96.7348 226.0923C 97.2288 226.6303 97.6718 227.1973 98.025795 227.90729C 100.511795 227.05629 102.7968 225.6353 104.6698 223.7903C 106.5148 221.91629 107.9358 219.6303 108.7868 217.1463C 108.0768 216.79129 107.511795 216.34929 106.9728 215.8553C 106.4458 215.3633 106.0168 214.8423 105.692795 214.3263C 105.398796 215.59929 104.9658 216.8353 104.359795 217.9973zM88.2368 230.80829C 88.3618 231.37529 88.6318 231.88129 89.0218 232.33829C 89.2178 232.56729 89.441795 232.78229 89.692795 232.9783C 89.94479 233.16829 90.219795 233.36829 90.5188 233.4863C 91.1168 233.7443 91.7978 233.9043 92.4998 233.9323C 93.1748 233.90529 93.8208 233.76129 94.3908 233.53029C 94.677795 233.4233 94.940796 233.2603 95.1828 233.0813C 95.4248 232.9023 95.6428 232.70729 95.8368 232.4993C 96.220795 232.0763 96.5048 231.62529 96.6618 231.1043C 96.81979 230.5853 96.8618 230.0503 96.7938 229.5203C 96.7118 228.8833 96.4888 228.3243 96.19479 227.8413C 96.0478 227.6003 95.8818 227.37929 95.704796 227.1783C 95.523796 226.9623 95.330795 226.76529 95.1308 226.5873C 94.7288 226.22629 94.302795 225.96829 93.8618 225.76929C 93.4178 225.5403 92.9638 225.4063 92.4998 225.3893C 92.0648 225.40529 91.6378 225.5233 91.2168 225.7273C 91.0038 225.8403 90.801796 225.9173 90.59779 226.04329C 90.3958 226.16429 90.1968 226.3033 90.0038 226.4623C 89.2298 227.1263 88.539795 227.95529 88.247795 229.1353C 88.1138 229.6863 88.107796 230.25229 88.2368 230.80829zM72.6038 222.3783C 73.6698 224.28929 74.9828 226.0483 76.5078 227.61229C 78.0708 229.1373 79.830795 230.45029 81.7408 231.51529C 83.677795 232.5353 85.7458 233.29129 87.884796 233.76129C 87.2798 233.13129 86.84779 232.4323 86.6048 231.71329C 86.358795 231.0053 86.3228 230.21329 86.4458 229.4813C 83.7168 228.5483 81.20979 226.98929 79.1568 224.96329C 77.1318 222.9113 75.57179 220.40329 74.638794 217.6733C 73.9068 217.79729 73.1138 217.76129 72.4068 217.5143C 71.6868 217.2733 70.98779 216.8393 70.358795 216.23529C 70.8278 218.3743 71.5858 220.44229 72.6038 222.3783zM70.5898 213.51129C 70.6958 213.79729 70.8598 214.0613 71.039795 214.3033C 71.2178 214.5443 71.412796 214.76329 71.621796 214.95729C 72.0448 215.3403 72.4938 215.62529 73.01579 215.7813C 73.5338 215.94029 74.06979 215.9823 74.5988 215.91429C 75.235794 215.83229 75.7968 215.6093 76.2778 215.31529C 76.5188 215.1673 76.7408 215.0013 76.9418 214.82529C 77.1568 214.64429 77.3548 214.4513 77.5328 214.25029C 77.8928 213.84929 78.1508 213.42229 78.3508 212.9823C 78.579796 212.5373 78.7138 212.0833 78.7308 211.6203C 78.7148 211.18529 78.5968 210.7573 78.3928 210.33629C 78.27879 210.1243 78.2018 209.9213 78.0768 209.71829C 77.9568 209.5163 77.815796 209.31729 77.6568 209.1243C 76.9938 208.3503 76.164795 207.6603 74.9848 207.36829C 74.43379 207.2343 73.8668 207.22829 73.3118 207.3573C 72.7448 207.4823 72.2388 207.7513 71.7818 208.14229C 71.5538 208.3373 71.3388 208.56229 71.1418 208.8133C 70.9518 209.0643 70.7518 209.3393 70.634796 209.6393C 70.3768 210.23729 70.2168 210.9173 70.1878 211.6203C 70.2158 212.2943 70.3578 212.9413 70.5898 213.51129zM81.7418 191.72429C 79.8318 192.7903 78.0708 194.10329 76.5088 195.62729C 74.9828 197.1913 73.6708 198.9513 72.6038 200.8613C 71.5858 202.79729 70.8288 204.86629 70.358795 207.00429C 70.98779 206.4003 71.6868 205.9673 72.4068 205.7253C 73.1138 205.4793 73.9068 205.44229 74.638794 205.5663C 75.57179 202.83629 77.1318 200.3293 79.1568 198.2773C 81.20979 196.2513 83.7168 194.69229 86.4458 193.7593C 86.3228 193.0273 86.358795 192.2343 86.6058 191.5273C 86.84779 190.8073 87.2798 190.10829 87.884796 189.4793C 85.7458 189.94829 83.677795 190.7063 81.7418 191.72429zM96.763794 192.4323C 96.638794 191.8653 96.3688 191.3593 95.9778 190.9023C 95.7828 190.6733 95.5578 190.4583 95.30679 190.2623C 95.0558 190.0723 94.7798 189.8723 94.4798 189.75429C 93.8838 189.4973 93.2018 189.33629 92.4998 189.30829C 91.8248 189.3353 91.178795 189.4783 90.608795 189.70929C 90.3228 189.8163 90.0578 189.98029 89.816795 190.1603C 89.5748 190.3373 89.3558 190.5333 89.163795 190.7423C 88.77879 191.1653 88.4958 191.61429 88.3388 192.13629C 88.1808 192.6543 88.1378 193.19029 88.205795 193.7193C 88.287796 194.3563 88.511795 194.91629 88.8058 195.3983C 88.9528 195.6393 89.1178 195.8613 89.2958 196.06229C 89.4758 196.2773 89.6688 196.4753 89.8688 196.65329C 90.2708 197.01329 90.6978 197.2713 91.138794 197.4713C 91.582794 197.70029 92.0358 197.8333 92.4998 197.85129C 92.9348 197.83429 93.36279 197.7173 93.7838 197.51329C 93.9958 197.39929 94.1988 197.3223 94.401794 197.19629C 94.6038 197.0773 94.803795 196.9363 94.996796 196.7773C 95.7698 196.11429 96.4608 195.2853 96.7528 194.1043C 96.886795 193.55429 96.8918 192.98729 96.763794 192.4323zM112.3958 200.86229C 111.329796 198.9523 110.0168 197.1913 108.4918 195.6283C 106.929794 194.10329 105.1688 192.7903 103.259796 191.72429C 101.3228 190.7063 99.2548 189.94829 97.1158 189.4793C 97.720795 190.10829 98.1528 190.8073 98.3938 191.5273C 98.6408 192.2343 98.677795 193.0273 98.553795 193.7593C 101.2838 194.69229 103.790794 196.2513 105.843796 198.2773C 107.8688 200.33029 109.428795 202.83629 110.360794 205.5663C 111.093796 205.4433 111.885796 205.4793 112.593796 205.72629C 113.3118 205.9673 114.011795 206.4003 114.6408 207.00429C 114.1718 204.86629 113.414795 202.79729 112.3958 200.86229zM114.4098 209.7293C 114.303795 209.4433 114.1398 209.1783 113.9608 208.93729C 113.7818 208.6953 113.5868 208.47629 113.3788 208.28429C 112.955795 207.89929 112.5058 207.61629 111.983795 207.4583C 111.4658 207.3003 110.9308 207.2573 110.399796 207.3263C 109.763794 207.4083 109.2038 207.63129 108.721794 207.9253C 108.4798 208.07329 108.259796 208.2383 108.0578 208.41629C 107.8428 208.5963 107.6448 208.78929 107.4678 208.98929C 107.1058 209.3913 106.8488 209.8183 106.648796 210.2583C 106.4198 210.7033 106.2858 211.1563 106.2688 211.6203C 106.2848 212.0553 106.4028 212.48329 106.6068 212.9043C 106.720795 213.11629 106.7978 213.31929 106.9238 213.5223C 107.0438 213.72429 107.1828 213.9233 107.3428 214.1173C 108.0068 214.89029 108.8348 215.5813 110.0148 215.87329C 110.565796 216.00629 111.1328 216.0123 111.6878 215.8833C 112.2558 215.7583 112.761795 215.48929 113.218796 215.0983C 113.4468 214.90329 113.6618 214.6783 113.857796 214.42729C 114.0488 214.1753 114.248795 213.9003 114.3658 213.6003C 114.623795 213.00229 114.7838 212.3223 114.8118 211.6203C 114.7848 210.9453 114.6408 210.2983 114.4098 209.7293z" stroke="#E7BC9E" stroke-width="0.567" fill="none" />
    <path id=""  transform="matrix(1 0 0 -1 0 316)"  d="M92.485 226.2402C 90.598 226.2402 89.063 227.7742 89.063 229.6612C 89.063 231.5462 90.598 233.0822 92.485 233.0822C 94.371 233.0822 95.906 231.5462 95.906 229.6612C 95.906 227.7742 94.371 226.2402 92.485 226.2402zM92.485 231.6902C 91.366 231.6902 90.455 230.7802 90.455 229.6612C 90.455 228.5422 91.366 227.6312 92.485 227.6312C 93.603 227.6312 94.514 228.5422 94.514 229.6612C 94.514 230.7802 93.603 231.6902 92.485 231.6902z" stroke="#E7BC9E" stroke-width="0.425" fill="none" />
    <path id=""  transform="matrix(1 0 0 -1 0 316)"  d="M77.880295 211.6043C 77.880295 209.71829 76.3453 208.18329 74.4593 208.18329C 72.573296 208.18329 71.0383 209.71829 71.0383 211.6043C 71.0383 213.49129 72.573296 215.02629 74.4593 215.02629C 76.3453 215.02629 77.880295 213.49129 77.880295 211.6043zM72.4303 211.6043C 72.4303 210.4863 73.3403 209.57529 74.4593 209.57529C 75.5783 209.57529 76.489296 210.4863 76.489296 211.6043C 76.489296 212.7233 75.5783 213.6343 74.4593 213.6343C 73.3403 213.6343 72.4303 212.7233 72.4303 211.6043z" stroke="#E7BC9E" stroke-width="0.425" fill="none" />
    <path id=""  transform="matrix(1 0 0 -1 0 316)"  d="M92.5153 197.0006C 94.4023 197.0006 95.936295 195.46559 95.936295 193.5796C 95.936295 191.6936 94.4023 190.1586 92.5153 190.1586C 90.629295 190.1586 89.0943 191.6936 89.0943 193.5796C 89.0943 195.46559 90.629295 197.0006 92.5153 197.0006zM92.5153 191.5506C 93.6343 191.5506 94.5443 192.4606 94.5443 193.5796C 94.5443 194.6986 93.6343 195.6096 92.5153 195.6096C 91.39629 195.6096 90.4863 194.6986 90.4863 193.5796C 90.4863 192.4606 91.39629 191.5506 92.5153 191.5506z" stroke="#E7BC9E" stroke-width="0.425" fill="none" />
    <path id=""  transform="matrix(1 0 0 -1 0 316)"  d="M107.12 211.6355C 107.12 213.52249 108.654 215.0565 110.541 215.0565C 112.426 215.0565 113.962 213.52249 113.962 211.6355C 113.962 209.7485 112.426 208.2145 110.541 208.2145C 108.654 208.2145 107.12 209.7485 107.12 211.6355zM112.57 211.6355C 112.57 212.7545 111.659996 213.6645 110.541 213.6645C 109.422 213.6645 108.511 212.7545 108.511 211.6355C 108.511 210.5165 109.422 209.60649 110.541 209.60649C 111.659996 209.60649 112.57 210.5165 112.57 211.6355z" stroke="#E7BC9E" stroke-width="0.425" fill="none" />
    <path id=""  transform="matrix(1 0 0 -1 0 316)"  d="M103.4721 205.5773C 103.4661 205.6223 103.4511 205.66429 103.4231 205.70029L103.4231 205.70029L103.4051 205.7253C 103.239105 206.0143 103.100105 206.3203 102.9701 206.6343C 102.8331 206.9523 102.7181 207.2723 102.587105 207.5983C 102.3401 208.2453 102.072105 208.8913 101.7421 209.4643C 101.5821 209.75029 101.3961 210.0203 101.2061 210.2623C 101.1081 210.3843 101.003105 210.50029 100.8981 210.60829C 100.7941 210.7153 100.685104 210.8163 100.5691 210.9103C 100.114105 211.28429 99.586105 211.5293 99.0061 211.6353C 99.586105 211.7423 100.114105 211.98729 100.5691 212.3613C 100.685104 212.45529 100.7941 212.5553 100.8981 212.6633C 101.003105 212.7713 101.1081 212.88629 101.2061 213.0083C 101.3961 213.25029 101.5821 213.5203 101.7421 213.80629C 102.072105 214.37929 102.3401 215.0273 102.587105 215.6733C 102.7181 215.9993 102.8331 216.31929 102.9701 216.6373C 103.100105 216.9513 103.239105 217.25629 103.4051 217.54529L103.4051 217.54529L103.4231 217.57129C 103.4511 217.6073 103.4661 217.64929 103.4721 217.69429L103.4721 217.69429L103.4731 217.69629C 103.4841 217.7793 103.461105 217.87129 103.4151 217.95029C 103.3701 218.0293 103.3021 218.0943 103.225105 218.1263L103.225105 218.1263L103.2221 218.12729C 103.1811 218.14429 103.1351 218.15129 103.0901 218.1453L103.0901 218.1453L103.0581 218.14229C 102.3961 218.14429 101.7191 218.26529 101.0301 218.3673C 100.3451 218.47229 99.656105 218.5663 98.9931 218.5663C 98.3311 218.5683 97.7071 218.48729 97.1531 218.2753C 96.879105 218.17429 96.6201 218.0353 96.3851 217.87329C 96.1521 217.7103 95.935104 217.5103 95.7431 217.2843C 95.9461 217.8463 95.9951 218.4173 95.8991 219.00029C 95.8071 219.58629 95.5661 220.16629 95.2331 220.7403C 94.9011 221.31529 94.4721 221.8593 94.0381 222.4043C 93.8201 222.6713 93.601105 222.94629 93.394104 223.21329C 93.2921 223.3483 93.1911 223.4863 93.0961 223.6263C 93.0011 223.7623 92.9111 223.90129 92.8281 224.04329L92.8281 224.04329L92.8141 224.0723C 92.797104 224.1153 92.769104 224.14929 92.7341 224.17729L92.7341 224.17729L92.7321 224.17929C 92.6661 224.2313 92.5751 224.2583 92.4851 224.2593C 92.394104 224.2583 92.3031 224.2313 92.2371 224.17929L92.2371 224.17929L92.2351 224.17729C 92.2001 224.14929 92.171104 224.1153 92.155106 224.0723L92.155106 224.0723L92.1411 224.04329C 92.058105 223.90129 91.9681 223.7623 91.8731 223.6263C 91.7781 223.4863 91.6771 223.3483 91.5751 223.21329C 91.3681 222.94629 91.1491 222.6713 90.9311 222.4043C 90.4971 221.8593 90.0671 221.31529 89.7361 220.7403C 89.4031 220.16629 89.1621 219.58629 89.0701 219.00029C 88.974106 218.4173 89.0231 217.8463 89.226105 217.2843C 89.0341 217.5103 88.8171 217.7103 88.5841 217.87329C 88.349106 218.0353 88.0891 218.17429 87.8161 218.2753C 87.2621 218.48729 86.6381 218.5683 85.976105 218.5663C 85.3131 218.5663 84.6241 218.47229 83.9391 218.3673C 83.2501 218.26529 82.573105 218.14429 81.9111 218.14229L81.9111 218.14229L81.8781 218.1453C 81.8341 218.15129 81.7881 218.14429 81.7471 218.12729L81.7471 218.12729L81.7441 218.1263C 81.6671 218.0943 81.599106 218.0293 81.5541 217.95029C 81.5081 217.87129 81.4851 217.7793 81.4961 217.69629L81.4961 217.69629L81.4971 217.69429C 81.5031 217.64929 81.5181 217.6073 81.545105 217.57129L81.545105 217.57129L81.5641 217.54529C 81.7301 217.25629 81.8691 216.9513 81.9991 216.6373C 82.1361 216.31929 82.2511 215.9993 82.3811 215.6733C 82.6281 215.0273 82.8971 214.37929 83.227104 213.80629C 83.3871 213.5203 83.573105 213.25029 83.7631 213.0083C 83.8611 212.88629 83.9661 212.7713 84.071106 212.6633C 84.1751 212.5553 84.2841 212.45529 84.4001 212.3613C 84.8551 211.98729 85.3821 211.7423 85.9621 211.6353C 85.3821 211.5293 84.8551 211.28429 84.4001 210.9103C 84.2841 210.8163 84.1751 210.7153 84.071106 210.60829C 83.9661 210.50029 83.8611 210.3843 83.7631 210.2623C 83.573105 210.0203 83.3871 209.75029 83.227104 209.4643C 82.8971 208.8913 82.6281 208.2453 82.3811 207.5983C 82.2511 207.2723 82.1361 206.9523 81.9991 206.6343C 81.8691 206.3203 81.7301 206.0143 81.5641 205.7253L81.5641 205.7253L81.545105 205.70029C 81.5181 205.66429 81.5031 205.6223 81.4971 205.5773L81.4971 205.5773L81.4961 205.57529C 81.4851 205.4923 81.5081 205.4003 81.5541 205.32129C 81.599106 205.2423 81.6671 205.1763 81.7441 205.14429L81.7441 205.14429L81.7471 205.1433C 81.7881 205.1263 81.8341 205.1203 81.8781 205.12529L81.8781 205.12529L81.9111 205.12929C 82.573105 205.1263 83.2501 205.0053 83.9391 204.90529C 84.6241 204.7983 85.3131 204.70529 85.976105 204.70529C 86.6381 204.7033 87.2621 204.78429 87.8161 204.99629C 88.0891 205.0963 88.349106 205.2363 88.5841 205.39929C 88.8171 205.56029 89.0341 205.7603 89.226105 205.98729C 89.0231 205.4253 88.974106 204.85329 89.0701 204.2703C 89.1621 203.6843 89.4031 203.1063 89.7361 202.5313C 90.0671 201.95729 90.4971 201.4123 90.9311 200.8673C 91.1491 200.59929 91.3681 200.32529 91.5751 200.05829C 91.6771 199.92229 91.7781 199.7853 91.8731 199.6453C 91.9681 199.5083 92.058105 199.3703 92.1411 199.22829L92.1411 199.22829L92.155106 199.1993C 92.171104 199.15729 92.2001 199.1223 92.2351 199.09329L92.2351 199.09329L92.2371 199.0913C 92.3031 199.0403 92.394104 199.0123 92.4851 199.01129C 92.5751 199.0123 92.6661 199.0403 92.7321 199.0913L92.7321 199.0913L92.7341 199.09329C 92.769104 199.1223 92.797104 199.15729 92.8141 199.1993L92.8141 199.1993L92.8281 199.22829C 92.9111 199.3703 93.0011 199.5083 93.0961 199.6453C 93.1911 199.7853 93.2921 199.92229 93.394104 200.05829C 93.601105 200.32529 93.8201 200.59929 94.0381 200.8673C 94.4721 201.4123 94.9011 201.95729 95.2331 202.5313C 95.5661 203.1063 95.8071 203.6843 95.8991 204.2703C 95.9951 204.85329 95.9461 205.4253 95.7431 205.98729C 95.935104 205.7603 96.1521 205.56029 96.3851 205.39929C 96.6201 205.2363 96.879105 205.0963 97.1531 204.99629C 97.7071 204.78429 98.3311 204.7033 98.9931 204.70529C 99.656105 204.70529 100.3451 204.7983 101.0301 204.90529C 101.7191 205.0053 102.3961 205.1263 103.0581 205.12929L103.0581 205.12929L103.0901 205.12529C 103.1351 205.1203 103.1811 205.1263 103.2221 205.1433L103.2221 205.1433L103.225105 205.14429C 103.3021 205.1763 103.3701 205.2423 103.4151 205.32129C 103.461105 205.4003 103.4841 205.4923 103.4731 205.57529zM98.3911 210.1093C 98.6071 210.0353 98.8021 209.92929 98.9781 209.79329C 98.9821 209.50029 98.934105 209.21329 98.866104 208.9343C 98.7851 208.65929 98.683105 208.3893 98.5351 208.14429C 98.2521 207.6483 97.8321 207.2303 97.3251 206.93329C 97.1201 207.01529 96.9291 207.1333 96.755104 207.2853C 97.0121 207.4083 97.269104 207.56029 97.4881 207.7553C 97.6041 207.84729 97.7011 207.9583 97.8001 208.0663C 97.8901 208.18129 97.9821 208.2963 98.0511 208.4243C 98.3481 208.92729 98.4371 209.54529 98.3911 210.1093M99.8321 207.39429C 99.8761 207.4713 99.921104 207.5483 99.9601 207.6283C 99.9981 207.7083 100.0361 207.7903 100.0711 207.8723C 100.1511 207.62129 100.2321 207.3703 100.3131 207.11629C 100.0521 207.0593 99.795105 207.0033 99.5391 206.94829C 99.642105 207.09329 99.7471 207.2383 99.8321 207.39429M99.392105 207.64929C 99.308105 207.4953 99.2051 207.3543 99.102104 207.21129C 99.0491 207.1413 98.990105 207.0763 98.933105 207.0083C 98.8761 206.9413 98.8171 206.87529 98.7521 206.8143C 98.5921 206.7963 98.4411 206.77829 98.281105 206.7753C 98.184105 206.7723 98.088104 206.77429 97.9951 206.7813C 98.392105 207.0853 98.7241 207.4643 98.9711 207.89229C 99.2191 208.3203 99.3811 208.7963 99.4461 209.29129C 99.4991 209.2123 99.5481 209.13129 99.5951 209.04529C 99.6681 208.9083 99.7331 208.76529 99.796104 208.6193C 99.7011 208.2773 99.5711 207.9493 99.392105 207.64929M97.5721 208.7023C 97.5101 208.58629 97.4281 208.48329 97.3501 208.37729C 97.309105 208.3283 97.2631 208.28029 97.2181 208.2313L97.2181 208.2313L97.1501 208.1603L97.1501 208.1603L97.0761 208.0943C 96.8821 207.9153 96.6471 207.7753 96.4021 207.6633C 96.3271 207.76129 96.255104 207.86629 96.185104 207.9803C 96.4951 208.2993 96.7731 208.6523 96.991104 209.0383C 97.1061 209.2273 97.1971 209.42929 97.2871 209.6303C 97.324104 209.73529 97.3731 209.83429 97.4031 209.9413L97.4031 209.9413L97.4571 210.09729L97.4571 210.09729L97.5011 210.25629C 97.6341 210.25229 97.7621 210.24329 97.8851 210.22629C 97.9441 209.6913 97.837105 209.15329 97.5721 208.7023M99.5391 216.32329C 99.795105 216.26729 100.0521 216.21129 100.3131 216.15529C 100.2321 215.90129 100.1511 215.6503 100.0711 215.4003C 100.0361 215.4813 99.9981 215.56229 99.9601 215.6433C 99.921104 215.7233 99.8761 215.79929 99.8321 215.8763C 99.7471 216.0333 99.642105 216.17729 99.5391 216.32329M99.796104 214.6523C 99.7331 214.5053 99.6681 214.3633 99.5951 214.2253C 99.5481 214.14029 99.4991 214.05829 99.4461 213.9803C 99.3811 214.4753 99.2191 214.9523 98.9711 215.3783C 98.7241 215.80629 98.392105 216.1863 97.9951 216.4903C 98.088104 216.4973 98.184105 216.4993 98.281105 216.49629C 98.4411 216.49329 98.5921 216.4753 98.7521 216.45729C 98.8171 216.3963 98.8761 216.33029 98.933105 216.2623C 98.990105 216.1953 99.0491 216.12929 99.102104 216.0593C 99.2051 215.9173 99.308105 215.77629 99.392105 215.62329C 99.5711 215.3223 99.7011 214.9943 99.796104 214.6523M98.5351 215.1263C 98.683105 214.88129 98.7851 214.61229 98.866104 214.3373C 98.934105 214.0573 98.9821 213.7723 98.9781 213.4773C 98.8021 213.3413 98.6071 213.23729 98.3911 213.1623C 98.4371 213.7253 98.3481 214.3443 98.0511 214.8463C 97.9821 214.97429 97.8901 215.0893 97.8001 215.20529C 97.7011 215.3133 97.6041 215.4233 97.4881 215.5163C 97.269104 215.7103 97.0121 215.8633 96.755104 215.98729C 96.9291 216.1373 97.1201 216.2553 97.3251 216.3373C 97.8321 216.04129 98.2521 215.6243 98.5351 215.1263M97.0761 215.17729L97.1501 215.1113L97.1501 215.1113L97.2181 215.0403C 97.2631 214.9923 97.309105 214.94429 97.3501 214.8933C 97.4281 214.78929 97.5101 214.68529 97.5721 214.56929C 97.837105 214.1193 97.9441 213.58029 97.8851 213.0443C 97.7621 213.02829 97.6341 213.0183 97.5011 213.0143L97.5011 213.0143L97.4571 213.1733L97.4571 213.1733L97.4031 213.3313C 97.3731 213.4363 97.324104 213.5363 97.2871 213.64029C 97.1971 213.8413 97.1061 214.04329 96.991104 214.23329C 96.7731 214.6193 96.4951 214.9713 96.185104 215.29129C 96.255104 215.4063 96.3271 215.5103 96.4021 215.60829C 96.6471 215.49629 96.8821 215.3563 97.0761 215.17729M96.9471 217.56529C 97.5851 217.85129 98.3311 217.8093 99.0651 217.84529C 99.3451 217.8653 99.6271 217.85329 99.9241 217.83429C 100.0721 217.8263 100.2171 217.80829 100.3681 217.7923C 100.517105 217.77429 100.671104 217.7573 100.8211 217.7343C 101.1261 217.6893 101.4291 217.6433 101.7321 217.59929C 101.8841 217.5773 102.0371 217.5573 102.1901 217.5423C 102.3411 217.5253 102.491104 217.5103 102.6411 217.50229C 102.505104 217.23329 102.3891 216.9533 102.2721 216.66629C 102.1601 216.3803 102.047104 216.0943 101.934105 215.8073L101.934105 215.8073L101.850105 215.5963L101.850105 215.5963L101.7591 215.38629C 101.699104 215.24829 101.6381 215.11229 101.5761 214.9803C 101.4421 214.7123 101.310104 214.4623 101.156105 214.2303C 101.0521 214.07529 100.961105 213.91829 100.864105 213.76329C 100.7651 213.6063 100.6681 213.4533 100.5681 213.3053C 100.462105 213.1583 100.3531 213.01729 100.2381 212.88829C 100.1221 212.7593 99.9881 212.64029 99.8491 212.5383C 99.5481 212.3163 99.186104 212.18129 98.8171 212.1113C 98.4461 212.0403 98.0551 212.0313 97.6681 212.0513C 97.6541 212.27829 97.616104 212.50029 97.573105 212.72029C 98.0801 212.7323 98.5121 212.8113 98.8851 212.98929C 99.254105 213.16429 99.5721 213.43729 99.824104 213.78029C 100.0841 214.12329 100.2771 214.5343 100.4461 214.96829C 100.5261 215.1843 100.602104 215.40729 100.6751 215.62729C 100.7441 215.84529 100.8191 216.0663 100.894104 216.27429C 100.9161 216.3353 100.9011 216.4113 100.865105 216.47429C 100.8281 216.5383 100.7701 216.58829 100.7071 216.6003C 100.4861 216.6373 100.2601 216.6843 100.0371 216.73329C 99.8051 216.7773 99.5811 216.8263 99.350105 216.86229C 99.1191 216.8963 98.8951 216.9283 98.6671 216.9363C 98.5541 216.94229 98.4441 216.94429 98.336105 216.9433C 98.2241 216.9393 98.115105 216.93129 98.0091 216.91829C 97.9031 216.9063 97.7991 216.89029 97.698105 216.8673C 97.5951 216.84329 97.4961 216.8143 97.3981 216.78029C 97.2041 216.7103 97.0261 216.62329 96.8541 216.5033C 96.5111 216.2683 96.2251 215.9343 95.9641 215.50229C 95.7941 215.65129 95.6181 215.7943 95.4311 215.9213C 95.7861 216.61629 96.2491 217.2533 96.9471 217.56529M89.5811 218.4673C 89.6201 218.8093 89.7351 219.1473 89.8881 219.4693C 89.963104 219.6353 90.0501 219.79329 90.1371 219.9543C 90.1801 220.0363 90.224106 220.11829 90.267105 220.1993C 90.311104 220.2793 90.3541 220.3593 90.3961 220.4413C 90.4591 220.5643 90.5271 220.6893 90.6001 220.8133C 90.6741 220.9343 90.7531 221.0553 90.836105 221.17729C 91.002106 221.42729 91.185104 221.6593 91.3741 221.90529C 91.5621 222.14429 91.7571 222.38129 91.9471 222.62729C 92.1361 222.8653 92.3201 223.11029 92.4851 223.36629C 92.6491 223.11029 92.8331 222.8653 93.0221 222.62729C 93.211105 222.38129 93.407104 222.14429 93.5951 221.90529C 93.7841 221.6593 93.9671 221.42729 94.1321 221.17729C 94.2151 221.0553 94.2941 220.9343 94.3691 220.8133C 94.4421 220.6893 94.5101 220.5643 94.573105 220.4413C 94.615105 220.3593 94.658104 220.2793 94.7021 220.1993C 94.7451 220.11829 94.7891 220.0363 94.8321 219.9543C 94.9191 219.79329 95.005104 219.6353 95.0811 219.4693C 95.2351 219.1473 95.3491 218.8093 95.3881 218.4673C 95.4251 218.08629 95.366104 217.7173 95.2421 217.3613C 95.116104 217.0013 94.9301 216.6623 94.7181 216.3353C 94.615105 216.3783 94.5151 216.43129 94.4101 216.46829C 94.3571 216.4883 94.3051 216.51129 94.253105 216.53029L94.253105 216.53029L94.0931 216.5833C 94.336105 217.0273 94.4831 217.44229 94.5151 217.8543C 94.5241 217.9583 94.5251 218.06029 94.5201 218.16429C 94.5151 218.2643 94.503105 218.3653 94.4841 218.4653C 94.4461 218.66429 94.3851 218.87329 94.2991 219.0643C 94.2141 219.25629 94.1091 219.4583 93.9861 219.6413C 93.9241 219.73529 93.8591 219.8293 93.7921 219.92229C 93.7231 220.01529 93.6521 220.10329 93.5791 220.19429C 93.505104 220.2833 93.4301 220.37529 93.3531 220.4623C 93.2761 220.54929 93.199104 220.6353 93.1231 220.7213C 92.9681 220.89929 92.8151 221.06229 92.671104 221.23529C 92.630104 221.2853 92.5571 221.3113 92.4851 221.3133C 92.4121 221.3113 92.338104 221.2853 92.297104 221.23529C 92.1541 221.06229 92.0011 220.89929 91.8461 220.7213C 91.7701 220.6353 91.6931 220.54929 91.616104 220.4623C 91.5391 220.37529 91.463104 220.2833 91.3901 220.19429C 91.3171 220.10329 91.2461 220.01529 91.1771 219.92229C 91.1101 219.8293 91.0441 219.73529 90.9831 219.6413C 90.8601 219.4583 90.754105 219.25629 90.6691 219.0643C 90.5841 218.87329 90.5231 218.66429 90.4851 218.4653C 90.4661 218.3653 90.4541 218.2643 90.449104 218.16429C 90.4441 218.06029 90.4451 217.9583 90.4541 217.8543C 90.4861 217.44229 90.6321 217.0273 90.8761 216.5833L90.8761 216.5833L90.7161 216.53029C 90.6641 216.51129 90.6121 216.4883 90.559105 216.46829C 90.4541 216.43129 90.3541 216.3783 90.2511 216.3353C 90.0391 216.6623 89.8531 217.0013 89.727104 217.3613C 89.6031 217.7173 89.5441 218.08629 89.5811 218.4673M92.4851 218.0633C 91.8971 218.05629 91.3131 217.8443 90.8501 217.5103C 90.8071 217.73529 90.7991 217.96129 90.8301 218.1803C 91.338104 218.46829 91.9101 218.6203 92.4851 218.6223C 93.059105 218.6203 93.630104 218.46829 94.1391 218.1803C 94.1691 217.96129 94.1621 217.73529 94.1191 217.5103C 93.6561 217.8443 93.0721 218.05629 92.4851 218.0633M93.9681 217.0143C 93.921104 216.9003 93.866104 216.7863 93.8031 216.6693C 93.3761 216.7793 92.934105 216.8333 92.4851 216.8373C 92.0351 216.8333 91.5931 216.7793 91.1661 216.6693C 91.1031 216.7863 91.047104 216.9003 91.0011 217.0143L91.0011 217.0143L91.0831 217.0763L91.0831 217.0763L91.1681 217.1283C 91.224106 217.1633 91.282104 217.19829 91.3401 217.2303C 91.461105 217.2843 91.5811 217.3463 91.7071 217.38129C 91.9571 217.47029 92.2201 217.50029 92.4851 217.5093C 92.7491 217.50029 93.0121 217.47029 93.2621 217.38129C 93.3881 217.3463 93.5081 217.2843 93.6281 217.2303C 93.6871 217.19829 93.7451 217.1633 93.8011 217.1283L93.8011 217.1283L93.8861 217.0763zM92.4851 219.61229C 92.8351 219.6043 93.185104 219.5703 93.5291 219.4733C 93.5771 219.4113 93.6241 219.3483 93.6691 219.2853C 93.713104 219.21829 93.7561 219.1523 93.7981 219.0853C 93.849106 219.0033 93.8951 218.92029 93.936104 218.8373C 93.4751 219.02829 92.9811 219.12529 92.4851 219.12529C 91.9881 219.12529 91.4941 219.02829 91.033104 218.8373C 91.074104 218.92029 91.1201 219.0033 91.170105 219.0853C 91.212105 219.1523 91.255104 219.21829 91.3001 219.2853C 91.3451 219.3483 91.392105 219.4113 91.4401 219.4733C 91.7841 219.5703 92.1341 219.6043 92.4851 219.61229M91.9511 220.08629C 92.1241 220.28229 92.3031 220.4673 92.4851 220.6753C 92.6661 220.4673 92.8451 220.28229 93.018105 220.08629C 92.8401 220.1113 92.6631 220.1133 92.4851 220.12129C 92.3061 220.1133 92.1281 220.1113 91.9511 220.08629M85.1201 212.5383C 84.9811 212.64029 84.8471 212.7593 84.7311 212.88829C 84.616104 213.01729 84.5061 213.1583 84.4011 213.3053C 84.3011 213.4533 84.2041 213.6063 84.1051 213.76329C 84.0081 213.91829 83.9171 214.07529 83.8131 214.2303C 83.6591 214.4623 83.5271 214.7123 83.3931 214.9803C 83.3321 215.11229 83.2701 215.24829 83.2101 215.38629L83.2101 215.38629L83.1191 215.5963L83.1191 215.5963L83.0351 215.8073C 82.921104 216.0943 82.8091 216.3803 82.6971 216.66629C 82.5801 216.9533 82.463104 217.23329 82.3281 217.50229C 82.4781 217.5103 82.6281 217.5253 82.7791 217.5423C 82.9321 217.5573 83.0851 217.5773 83.23711 217.59929C 83.5391 217.6433 83.8431 217.6893 84.1481 217.7343C 84.297104 217.7573 84.4521 217.77429 84.601105 217.7923C 84.752106 217.80829 84.8971 217.8263 85.0441 217.83429C 85.3421 217.85329 85.6241 217.8653 85.9041 217.84529C 86.6381 217.8093 87.3841 217.85129 88.0221 217.56529C 88.7201 217.2533 89.183105 216.61629 89.5381 215.9213C 89.351105 215.7943 89.1751 215.65129 89.004105 215.50229C 88.7441 215.9343 88.4581 216.2683 88.115105 216.5033C 87.9431 216.62329 87.7651 216.7103 87.5711 216.78029C 87.4731 216.8143 87.3741 216.84329 87.2711 216.8673C 87.1691 216.89029 87.0661 216.9063 86.9601 216.91829C 86.8541 216.93129 86.7451 216.9393 86.6331 216.9433C 86.5251 216.94429 86.4151 216.94229 86.3021 216.9363C 86.074104 216.9283 85.8501 216.8963 85.6191 216.86229C 85.3881 216.8263 85.1641 216.7773 84.9321 216.73329C 84.7091 216.6843 84.4831 216.6373 84.2621 216.6003C 84.199104 216.58829 84.1411 216.5383 84.1041 216.47429C 84.0681 216.4113 84.0531 216.3353 84.0751 216.27429C 84.1501 216.0663 84.2251 215.84529 84.2941 215.62729C 84.3671 215.40729 84.4431 215.1843 84.5231 214.96829C 84.6921 214.5343 84.8851 214.12329 85.1451 213.78029C 85.3971 213.43729 85.7141 213.16429 86.0841 212.98929C 86.4571 212.8113 86.8891 212.7323 87.3961 212.72029C 87.3531 212.50029 87.3151 212.27829 87.3011 212.0513C 86.9141 212.0313 86.5231 212.0403 86.1521 212.1113C 85.783104 212.18129 85.420105 212.3163 85.1201 212.5383M86.5781 213.1623C 86.3621 213.23729 86.1671 213.3413 85.991104 213.4773C 85.98711 213.7723 86.0351 214.0573 86.1031 214.3373C 86.1841 214.61229 86.2861 214.88129 86.434105 215.1263C 86.7161 215.6243 87.1371 216.04129 87.644104 216.3373C 87.8481 216.2553 88.0401 216.1373 88.213104 215.98729C 87.9571 215.8633 87.7001 215.7103 87.4811 215.5163C 87.365105 215.4233 87.268105 215.3133 87.1691 215.20529C 87.0791 215.0893 86.9861 214.97429 86.9181 214.8463C 86.6211 214.3443 86.532104 213.7253 86.5781 213.1623M85.1371 215.8763C 85.0931 215.79929 85.047104 215.7233 85.0091 215.6433C 84.9711 215.56229 84.933105 215.4813 84.8981 215.4003C 84.8181 215.6503 84.73711 215.90129 84.6561 216.15529C 84.9171 216.21129 85.1731 216.26729 85.4311 216.32329C 85.3271 216.17729 85.2221 216.0333 85.1371 215.8763M85.5771 215.62329C 85.6611 215.77629 85.7641 215.9173 85.8671 216.0593C 85.9191 216.12929 85.9791 216.1953 86.0361 216.2623C 86.0931 216.33029 86.1521 216.3963 86.2171 216.45729C 86.377106 216.4753 86.5281 216.49329 86.6881 216.49629C 86.7851 216.4993 86.880104 216.4973 86.974106 216.4903C 86.5781 216.1863 86.2451 215.80629 85.9981 215.3783C 85.7501 214.9523 85.5871 214.4753 85.5231 213.9803C 85.4701 214.05829 85.420105 214.14029 85.3741 214.2253C 85.3011 214.3633 85.2361 214.5053 85.172104 214.6523C 85.2681 214.9943 85.3981 215.3223 85.5771 215.62329M87.3971 214.56929C 87.4591 214.68529 87.5411 214.78929 87.6191 214.8933C 87.6601 214.94429 87.7061 214.9923 87.7511 215.0403L87.7511 215.0403L87.8191 215.1113L87.8191 215.1113L87.893105 215.17729C 88.086105 215.3563 88.3221 215.49629 88.5671 215.60829C 88.642105 215.5103 88.713104 215.4063 88.7841 215.29129C 88.474106 214.9713 88.1961 214.6193 87.9781 214.23329C 87.8631 214.04329 87.7721 213.8413 87.6821 213.64029C 87.6451 213.5363 87.5961 213.4363 87.5661 213.3313L87.5661 213.3313L87.5121 213.1733L87.5121 213.1733L87.4681 213.0143C 87.3351 213.0183 87.2071 213.02829 87.0841 213.0443C 87.0251 213.58029 87.1311 214.1193 87.3971 214.56929M85.4311 206.94829C 85.1731 207.0033 84.9171 207.0593 84.6561 207.11629C 84.73711 207.3703 84.8181 207.62129 84.8981 207.8723C 84.933105 207.7903 84.9711 207.7083 85.0091 207.6283C 85.047104 207.5483 85.0931 207.4713 85.1371 207.39429C 85.2221 207.2383 85.3271 207.09329 85.4311 206.94829M85.172104 208.6193C 85.2361 208.76529 85.3011 208.9083 85.3741 209.04529C 85.420105 209.13129 85.4701 209.2123 85.5231 209.29129C 85.5871 208.7963 85.7501 208.3203 85.9981 207.89229C 86.2451 207.4643 86.5781 207.0853 86.974106 206.7813C 86.880104 206.77429 86.7851 206.7723 86.6881 206.7753C 86.5281 206.77829 86.377106 206.7963 86.2171 206.8143C 86.1521 206.87529 86.0931 206.9413 86.0361 207.0083C 85.9791 207.0763 85.9191 207.1413 85.8671 207.21129C 85.7641 207.3543 85.6611 207.4953 85.5771 207.64929C 85.3981 207.9493 85.2681 208.2773 85.172104 208.6193M86.434105 208.14429C 86.2861 208.3893 86.1841 208.65929 86.1031 208.9343C 86.0351 209.21329 85.98711 209.50029 85.991104 209.79329C 86.1671 209.92929 86.3621 210.0353 86.5781 210.1093C 86.532104 209.54529 86.6211 208.92729 86.9181 208.4243C 86.9861 208.2963 87.0791 208.18129 87.1691 208.0663C 87.268105 207.9583 87.365105 207.84729 87.4811 207.7553C 87.7001 207.56029 87.9571 207.4083 88.213104 207.2853C 88.0401 207.1333 87.8481 207.01529 87.644104 206.93329C 87.1371 207.2303 86.7161 207.6483 86.434105 208.14429M87.893105 208.0943L87.8191 208.1603L87.8191 208.1603L87.7511 208.2313C 87.7061 208.28029 87.6601 208.3283 87.6191 208.37729C 87.5411 208.48329 87.4591 208.58629 87.3971 208.7023C 87.1311 209.15329 87.0251 209.6913 87.0841 210.22629C 87.2071 210.24329 87.3351 210.25229 87.4681 210.25629L87.4681 210.25629L87.5121 210.09729L87.5121 210.09729L87.5661 209.9413C 87.5961 209.83429 87.6451 209.73529 87.6821 209.6303C 87.7721 209.42929 87.8631 209.2273 87.9781 209.0383C 88.1961 208.6523 88.474106 208.2993 88.7841 207.9803C 88.713104 207.86629 88.642105 207.76129 88.5671 207.6633C 88.3221 207.7753 88.086105 207.9153 87.893105 208.0943M88.0221 205.7063C 87.3841 205.4193 86.6381 205.46129 85.9041 205.4253C 85.6241 205.4063 85.3421 205.4173 85.0441 205.4363C 84.8971 205.44629 84.752106 205.4623 84.601105 205.4793C 84.4521 205.4973 84.297104 205.51329 84.1481 205.5373C 83.8431 205.5833 83.5391 205.62729 83.23711 205.67229C 83.0851 205.69429 82.9321 205.71329 82.7791 205.7293C 82.6281 205.7473 82.4781 205.7603 82.3281 205.76929C 82.463104 206.0383 82.5801 206.3183 82.6971 206.6053C 82.8091 206.89029 82.921104 207.1763 83.0351 207.46329L83.0351 207.46329L83.1191 207.6743L83.1191 207.6743L83.2101 207.8843C 83.2701 208.0233 83.3321 208.15929 83.3931 208.29129C 83.5271 208.55829 83.6591 208.80829 83.8131 209.04129C 83.9171 209.19629 84.0081 209.3523 84.1051 209.5083C 84.2041 209.6653 84.3011 209.81929 84.4011 209.9653C 84.5061 210.1133 84.616104 210.25429 84.7311 210.3833C 84.8471 210.5123 84.9811 210.6303 85.1201 210.73329C 85.420105 210.95529 85.783104 211.0893 86.1521 211.1603C 86.5231 211.2313 86.9141 211.24129 87.3011 211.2193C 87.3151 210.99329 87.3531 210.7703 87.3961 210.5503C 86.8891 210.5403 86.4571 210.45929 86.0841 210.28229C 85.7141 210.1073 85.3971 209.8333 85.1451 209.4923C 84.8851 209.1483 84.6921 208.7383 84.5231 208.30229C 84.4431 208.08629 84.3671 207.86429 84.2941 207.64429C 84.2251 207.4253 84.1501 207.20529 84.0751 206.9973C 84.0531 206.93529 84.0681 206.86029 84.1041 206.7963C 84.1411 206.73329 84.199104 206.68329 84.2621 206.6713C 84.4831 206.6343 84.7091 206.5873 84.9321 206.5383C 85.1641 206.4953 85.3881 206.4453 85.6191 206.4103C 85.8501 206.37529 86.074104 206.34329 86.3021 206.33429C 86.4151 206.3293 86.5251 206.3273 86.6331 206.3283C 86.7451 206.33229 86.8541 206.34029 86.9601 206.3523C 87.0661 206.3653 87.1691 206.3803 87.2711 206.4043C 87.3741 206.42729 87.4731 206.45729 87.5711 206.49129C 87.7651 206.5613 87.9431 206.64929 88.115105 206.7683C 88.4581 207.00229 88.7441 207.3373 89.004105 207.76929C 89.1751 207.6203 89.351105 207.47629 89.5381 207.34929C 89.183105 206.65529 88.7201 206.01729 88.0221 205.7063M95.3881 204.8033C 95.3491 204.46129 95.2351 204.1243 95.0811 203.8013C 95.005104 203.6353 94.9191 203.47829 94.8321 203.31729C 94.7891 203.23529 94.7451 203.15329 94.7021 203.0723C 94.658104 202.9923 94.615105 202.9123 94.573105 202.83029C 94.5101 202.70729 94.4421 202.5833 94.3691 202.4583C 94.2941 202.3373 94.2151 202.2153 94.1321 202.09329C 93.9671 201.84329 93.7841 201.61229 93.5951 201.36629C 93.407104 201.1263 93.211105 200.8893 93.0221 200.64429C 92.8331 200.4063 92.6491 200.1613 92.4851 199.90529C 92.3201 200.1613 92.1361 200.4063 91.9471 200.64429C 91.7571 200.8893 91.5621 201.1263 91.3741 201.36629C 91.185104 201.61229 91.002106 201.84329 90.836105 202.09329C 90.7531 202.2153 90.6741 202.3373 90.6001 202.4583C 90.5271 202.5833 90.4591 202.70729 90.3961 202.83029C 90.3541 202.9123 90.311104 202.9923 90.267105 203.0723C 90.224106 203.15329 90.1801 203.23529 90.1371 203.31729C 90.0501 203.47829 89.963104 203.6353 89.8881 203.8013C 89.7351 204.1243 89.6201 204.46129 89.5811 204.8033C 89.5441 205.1843 89.6031 205.5533 89.727104 205.9103C 89.8531 206.26929 90.0391 206.6093 90.2511 206.93529C 90.3541 206.89229 90.4541 206.8393 90.559105 206.80229C 90.6121 206.7833 90.6641 206.7593 90.7161 206.74129L90.7161 206.74129L90.8761 206.68729C 90.6321 206.2453 90.4861 205.8293 90.4541 205.4173C 90.4451 205.3133 90.4441 205.2103 90.449104 205.1073C 90.4541 205.00629 90.4661 204.9063 90.4851 204.8053C 90.5231 204.6073 90.5841 204.39929 90.6691 204.2083C 90.754105 204.0143 90.8601 203.8133 90.9831 203.62929C 91.0441 203.5363 91.1101 203.44229 91.1771 203.3483C 91.2461 203.2553 91.3171 203.1673 91.3901 203.0783C 91.463104 202.9883 91.5391 202.8953 91.616104 202.8093C 91.6931 202.7213 91.7701 202.6353 91.8461 202.5493C 92.0011 202.37329 92.1541 202.2083 92.297104 202.0373C 92.338104 201.9863 92.4121 201.95929 92.4851 201.9583C 92.5571 201.95929 92.630104 201.9863 92.671104 202.0373C 92.8151 202.2083 92.9681 202.37329 93.1231 202.5493C 93.199104 202.6353 93.2761 202.7213 93.3531 202.8093C 93.4301 202.8953 93.505104 202.9883 93.5791 203.0783C 93.6521 203.1673 93.7231 203.2553 93.7921 203.3483C 93.8591 203.44229 93.9241 203.5363 93.9861 203.62929C 94.1091 203.8133 94.2141 204.0143 94.2991 204.2083C 94.3851 204.39929 94.4461 204.6073 94.4841 204.8053C 94.503105 204.9063 94.5151 205.00629 94.5201 205.1073C 94.5251 205.2103 94.5241 205.3133 94.5151 205.4173C 94.4831 205.8293 94.336105 206.2453 94.0931 206.68729L94.0931 206.68729L94.253105 206.74129C 94.3051 206.7593 94.3571 206.7833 94.4101 206.80229C 94.5151 206.8393 94.615105 206.89229 94.7181 206.93529C 94.9301 206.6093 95.116104 206.26929 95.2421 205.9103C 95.366104 205.5533 95.4251 205.1843 95.3881 204.8033M92.4851 205.2083C 93.0721 205.2143 93.6561 205.4263 94.1191 205.7603C 94.1621 205.5373 94.1691 205.3093 94.1391 205.09029C 93.630104 204.80229 93.059105 204.65129 92.4851 204.64929C 91.9101 204.65129 91.338104 204.80229 90.8301 205.09029C 90.7991 205.3093 90.8071 205.5373 90.8501 205.7603C 91.3131 205.4263 91.8971 205.2143 92.4851 205.2083M91.0011 206.25629C 91.047104 206.37129 91.1031 206.4863 91.1661 206.60129C 91.5931 206.4923 92.0351 206.43729 92.4851 206.43329C 92.934105 206.43729 93.3761 206.4923 93.8031 206.60129C 93.866104 206.4863 93.921104 206.37129 93.9681 206.25629L93.9681 206.25629L93.8861 206.19629L93.8861 206.19629L93.8011 206.14229C 93.7451 206.10829 93.6871 206.07329 93.6281 206.04129C 93.5081 205.98729 93.3881 205.9243 93.2621 205.8893C 93.0121 205.8003 92.7491 205.7703 92.4851 205.7623C 92.2201 205.7703 91.9571 205.8003 91.7071 205.8893C 91.5811 205.9243 91.461105 205.98729 91.3401 206.04129C 91.282104 206.07329 91.224106 206.10829 91.1681 206.14229L91.1681 206.14229L91.0831 206.19629zM92.4851 203.65929C 92.1341 203.66629 91.7841 203.7013 91.4401 203.79729C 91.392105 203.86029 91.3451 203.92229 91.3001 203.9863C 91.255104 204.05229 91.212105 204.1193 91.170105 204.18529C 91.1201 204.26729 91.074104 204.3503 91.033104 204.43329C 91.4941 204.2433 91.9881 204.1453 92.4851 204.1453C 92.9811 204.1453 93.4751 204.2433 93.936104 204.43329C 93.8951 204.3503 93.849106 204.26729 93.7981 204.18529C 93.7561 204.1193 93.713104 204.05229 93.6691 203.9863C 93.6241 203.92229 93.5771 203.86029 93.5291 203.79729C 93.185104 203.7013 92.8351 203.66629 92.4851 203.65929M93.018105 203.1843C 92.8451 202.98929 92.6661 202.8033 92.4851 202.59529C 92.3031 202.8033 92.1241 202.98929 91.9511 203.1843C 92.1281 203.1603 92.3061 203.1583 92.4851 203.15129C 92.6631 203.1583 92.8401 203.1603 93.018105 203.1843M92.4851 207.1953C 91.6961 207.2013 90.9391 207.3953 90.268105 207.78929C 89.9301 207.97829 89.6251 208.2253 89.3441 208.49629C 89.074104 208.7753 88.8271 209.08229 88.6371 209.4193C 88.2451 210.0893 88.0501 210.8463 88.0441 211.6353C 88.0501 212.4243 88.2451 213.18129 88.6371 213.85129C 88.8271 214.1893 89.074104 214.49629 89.3441 214.77629C 89.6251 215.0463 89.9301 215.2923 90.268105 215.4823C 90.9391 215.87529 91.6961 216.0703 92.4851 216.0763C 93.2731 216.0703 94.030106 215.87529 94.7011 215.4823C 95.0391 215.2923 95.3441 215.0463 95.6251 214.77629C 95.8951 214.49629 96.142105 214.1893 96.3321 213.85129C 96.7241 213.18129 96.9191 212.4243 96.9251 211.6353C 96.9191 210.8463 96.7241 210.0893 96.3321 209.4193C 96.142105 209.08229 95.8951 208.7753 95.6251 208.49629C 95.3441 208.2253 95.0391 207.97829 94.7011 207.78929C 94.030106 207.3953 93.2731 207.2013 92.4851 207.1953M102.1901 205.7293C 102.0371 205.71329 101.8841 205.69429 101.7321 205.67229C 101.4291 205.62729 101.1261 205.5833 100.8211 205.5373C 100.671104 205.51329 100.517105 205.4973 100.3681 205.4793C 100.2171 205.4623 100.0721 205.44629 99.9241 205.4363C 99.6271 205.4173 99.3451 205.4063 99.0651 205.4253C 98.3311 205.46129 97.5851 205.4193 96.9471 205.7063C 96.2491 206.01729 95.7861 206.65529 95.4311 207.34929C 95.6181 207.47629 95.7941 207.6203 95.9641 207.76929C 96.2251 207.3373 96.5111 207.00229 96.8541 206.7683C 97.0261 206.64929 97.2041 206.5613 97.3981 206.49129C 97.4961 206.45729 97.5951 206.42729 97.698105 206.4043C 97.7991 206.3803 97.9031 206.3653 98.0091 206.3523C 98.115105 206.34029 98.2241 206.33229 98.336105 206.3283C 98.4441 206.3273 98.5541 206.3293 98.6671 206.33429C 98.8951 206.34329 99.1191 206.37529 99.350105 206.4103C 99.5811 206.4453 99.8051 206.4953 100.0371 206.5383C 100.2601 206.5873 100.4861 206.6343 100.7071 206.6713C 100.7701 206.68329 100.8281 206.73329 100.865105 206.7963C 100.9011 206.86029 100.9161 206.93529 100.894104 206.9973C 100.8191 207.20529 100.7441 207.4253 100.6751 207.64429C 100.602104 207.86429 100.5261 208.08629 100.4461 208.30229C 100.2771 208.7383 100.0841 209.1483 99.824104 209.4923C 99.5721 209.8333 99.254105 210.1073 98.8851 210.28229C 98.5121 210.45929 98.0801 210.5403 97.573105 210.5503C 97.616104 210.7703 97.6541 210.99329 97.6681 211.2193C 98.0551 211.24129 98.4461 211.2313 98.8171 211.1603C 99.186104 211.0893 99.5481 210.95529 99.8491 210.73329C 99.9881 210.6303 100.1221 210.5123 100.2381 210.3833C 100.3531 210.25429 100.462105 210.1133 100.5681 209.9653C 100.6681 209.81929 100.7651 209.6653 100.864105 209.5083C 100.961105 209.3523 101.0521 209.19629 101.156105 209.04129C 101.310104 208.80829 101.4421 208.55829 101.5761 208.29129C 101.6381 208.15929 101.699104 208.0233 101.7591 207.8843L101.7591 207.8843L101.850105 207.6743L101.850105 207.6743L101.934105 207.46329C 102.047104 207.1763 102.1601 206.89029 102.2721 206.6053C 102.3891 206.3183 102.505104 206.0383 102.6411 205.76929C 102.491104 205.7603 102.3411 205.7473 102.1901 205.7293" stroke="none" fill="#E7BC9E" fill-rule="nonzero" />
    <path id=""  transform="matrix(1 0 0 -1 0 316)"  d="M95.625 212.9366L95.625 214.7756L95.625 214.7756L93.784996 214.7756L93.784996 214.7756L92.485 216.0756L92.485 216.0756L91.184 214.7756L91.184 214.7756L89.344 214.7756L89.344 214.7756L89.344 212.9366L89.344 212.9366L88.044 211.6356L88.044 211.6356L89.344 210.33461L89.344 210.33461L89.344 208.4956L89.344 208.4956L91.184 208.4956L91.184 208.4956L92.485 207.1956L92.485 207.1956L93.784996 208.4956L93.784996 208.4956L95.625 208.4956L95.625 208.4956L95.625 210.33461L95.625 210.33461L96.925 211.6356L96.925 211.6356L95.625 212.9366zM94.904 210.6336L94.904 209.2166L94.904 209.2166L93.487 209.2166L93.487 209.2166L92.485 208.2146L92.485 208.2146L91.482 209.2166L91.482 209.2166L90.065 209.2166L90.065 209.2166L90.065 210.6336L90.065 210.6336L89.062996 211.6356L89.062996 211.6356L90.065 212.6376L90.065 212.6376L90.065 214.05461L90.065 214.05461L91.482 214.05461L91.482 214.05461L92.485 215.05661L92.485 215.05661L93.487 214.05461L93.487 214.05461L94.904 214.05461L94.904 214.05461L94.904 212.6376L94.904 212.6376L95.906 211.6356L95.906 211.6356L94.904 210.6336z" stroke="#E7BC9E" stroke-width="0.425" fill="none" />
    <path id=""  transform="matrix(1 0 0 -1 0 316)"  d="M93.9196 211.0408L94.5146 211.6358L94.5146 211.6358L93.9196 212.2298L93.9196 212.2298L93.9196 213.0708L93.9196 213.0708L93.0786 213.0708L93.0786 213.0708L92.484604 213.6648L92.484604 213.6648L91.8906 213.0708L91.8906 213.0708L91.0496 213.0708L91.0496 213.0708L91.0496 212.2298L91.0496 212.2298L90.454605 211.6358L90.454605 211.6358L91.0496 211.0408L91.0496 211.0408L91.0496 210.2008L91.0496 210.2008L91.8906 210.2008L91.8906 210.2008L92.484604 209.6058L92.484604 209.6058L93.0786 210.2008L93.0786 210.2008L93.9196 210.2008L93.9196 210.2008L93.9196 211.0408z" stroke="#E7BC9E" stroke-width="0.425" fill="none" />
		</g>
	</g>
</g>
</svg>