<?xml version="1.0" standalone="no"?>
<!DOCTYPE svg PUBLIC "-//W3C//DTD SVG 1.0//EN" "http://www.w3.org/TR/2001/REC-SVG-20010904/DTD/svg10.dtd">
<svg xmlns="http://www.w3.org/2000/svg" xmlns:xlink="http://www.w3.org/1999/xlink" id="body_17" width="247" height="421">

<defs>
    <clipPath  id="1">

    <path id=""  clip-rule="evenodd" transform="matrix(1 0 0 1 0 0)"  d="M0 316L0 0L0 0L185 0L185 0L185 316L185 316L0 316z" />    </clipPath>
    <clipPath  id="2">

    <path id=""  clip-rule="evenodd" transform="matrix(1 0 0 1 0 0)"  d="M0 0L185 0L185 0L185 316L185 316L0 316z" />    </clipPath>
</defs>

<g transform="matrix(1.3333 0 0 1.3333 0 0)">
	<g clip-path="url(#1)" >
		<g clip-path="url(#2)" >
    <path id=""  transform="matrix(1 0 0 -1 0 316)"  d="M114.8756 216.6459C 114.3186 217.21991 113.661606 217.6299 112.984604 217.8829C 112.29961 218.13391 111.5746 218.22191 110.8546 218.1669C 110.092606 218.10991 109.372604 217.9099 108.6966 217.63791C 108.02161 217.3649 107.3796 217.01491 106.7536 216.63591C 106.1286 216.2559 105.5276 215.8489 104.9326 215.4489C 104.3256 215.0449 103.7426 214.65291 103.149605 214.28891C 103.0136 214.8079 102.8546 215.3229 102.6456 215.8199C 102.4336 216.3139 102.1966 216.7999 101.9176 217.2639C 102.5846 217.41791 103.2966 217.5639 103.996605 217.7009C 104.6986 217.8389 105.4176 217.9799 106.1266 218.1539C 107.5326 218.5009 108.9296 218.97191 110.106606 219.9709C 111.2126 220.9079 111.8916 222.27791 111.8756 223.8869C 111.869606 225.48291 111.1416 227.30191 109.6656 228.7859C 108.1806 230.2639 106.3626 230.9899 104.7676 230.9949C 103.1596 231.00891 101.789604 230.3299 100.8506 229.2269C 99.8496 228.0529 99.3786 226.6549 99.0326 225.2489C 98.858604 224.53891 98.717606 223.81891 98.579605 223.1159C 98.4436 222.41591 98.2976 221.7039 98.1436 221.0379C 97.6796 221.31691 97.1936 221.55391 96.6996 221.7659C 96.20261 221.9749 95.6886 222.13391 95.1686 222.2699C 95.5326 222.8629 95.9256 223.4459 96.3286 224.0529C 96.72861 224.6479 97.1346 225.2489 97.5136 225.8739C 97.8926 226.49991 98.2416 227.1409 98.5156 227.8159C 98.787605 228.4919 98.9876 229.2119 99.0466 229.9739C 99.10361 230.6949 99.0156 231.4199 98.7646 232.1049C 98.5126 232.7819 98.1016 233.4389 97.5266 233.99591C 96.3926 235.12091 94.5846 235.8919 92.4996 235.8959C 90.412605 235.8919 88.607605 235.1199 87.4746 233.99591C 86.900604 233.4389 86.4906 232.7819 86.2376 232.1049C 85.9866 231.4199 85.898605 230.6949 85.95261 229.9739C 86.010605 229.2129 86.2096 228.4929 86.4816 227.81691C 86.7556 227.1409 87.105606 226.49991 87.484604 225.8739C 87.8646 225.2489 88.27161 224.6479 88.6716 224.0529C 89.0746 223.4459 89.467606 222.8629 89.831604 222.2699C 89.31261 222.13391 88.7966 221.9749 88.3006 221.7659C 87.8056 221.55391 87.3196 221.31691 86.8566 221.0379C 86.70261 221.70491 86.5556 222.4169 86.4196 223.1169C 86.2816 223.81891 86.1406 224.5379 85.9666 225.2469C 85.6196 226.65291 85.148605 228.0499 84.149605 229.2269C 83.2126 230.3329 81.842606 231.0119 80.233604 230.99591C 78.636604 230.9899 76.817604 230.2619 75.3346 228.7859C 73.8566 227.3009 73.1306 225.48291 73.1256 223.88791C 73.1106 222.2799 73.789604 220.9099 74.8936 219.9709C 76.066605 218.96991 77.4646 218.4989 78.8716 218.15291C 79.581604 217.9789 80.301605 217.8379 81.0036 217.6999C 81.7036 217.5639 82.4156 217.41791 83.081604 217.2639C 82.803604 216.7999 82.566605 216.3139 82.3546 215.8199C 82.1456 215.3229 81.9866 214.8079 81.8496 214.28891C 81.2576 214.65291 80.6736 215.0459 80.067604 215.4489C 79.4716 215.8489 78.8716 216.2539 78.2466 216.63391C 77.620605 217.01291 76.9796 217.36191 76.3046 217.63591C 75.6286 217.9079 74.9086 218.10791 74.14661 218.1669C 73.4256 218.2239 72.70061 218.13591 72.0146 217.8849C 71.3376 217.6329 70.6806 217.22191 70.1246 216.6469C 68.9996 215.51291 68.2276 213.70491 68.2246 211.6199C 68.22861 209.5329 69.0006 207.7279 70.1246 206.59491C 70.6816 206.0209 71.3376 205.6109 72.0146 205.35791C 72.70061 205.1069 73.42461 205.0189 74.14661 205.0729C 74.90761 205.1309 75.6276 205.32991 76.303604 205.6019C 76.9796 205.8759 77.6196 206.2249 78.245605 206.6049C 78.8716 206.98491 79.4726 207.3909 80.067604 207.7919C 80.67461 208.1949 81.2576 208.5879 81.8496 208.9519C 81.9866 208.4319 82.1456 207.9169 82.3546 207.4209C 82.566605 206.9259 82.803604 206.43991 83.081604 205.9769C 82.4156 205.8229 81.7036 205.6759 81.0036 205.5399C 80.301605 205.4019 79.5826 205.26091 78.872604 205.0869C 77.467606 204.7399 76.0706 204.2689 74.8936 203.2689C 73.7876 202.3329 73.108604 200.9629 73.1246 199.3529C 73.12961 197.7569 73.857605 195.9379 75.3346 194.4539C 76.8196 192.9769 78.6376 192.2509 80.232605 192.24591C 81.84061 192.2309 83.2096 192.90991 84.149605 194.0139C 85.150604 195.1869 85.621605 196.5849 85.967606 197.9919C 86.1416 198.7019 86.2826 199.4219 86.4206 200.1239C 86.5566 200.8239 86.70261 201.5359 86.8566 202.2019C 87.3196 201.9239 87.8056 201.6869 88.3006 201.4739C 88.7966 201.2659 89.31261 201.1069 89.831604 200.96991C 89.467606 200.3769 89.0746 199.7939 88.6716 199.1879C 88.27161 198.5919 87.8656 197.9919 87.4866 197.3659C 87.107605 196.7409 86.758606 196.0989 86.484604 195.4249C 86.2126 194.74791 86.0126 194.0289 85.95261 193.2659C 85.89661 192.5449 85.984604 191.8209 86.234604 191.1349C 86.4876 190.4579 86.898605 189.8009 87.4736 189.2449C 88.607605 188.1199 90.4156 187.3479 92.4996 187.34491C 94.5866 187.3489 96.3926 188.1199 97.525604 189.2449C 98.0996 189.8009 98.5096 190.4579 98.7626 191.1349C 99.0136 191.8209 99.1016 192.5449 99.0466 193.2659C 98.9896 194.02791 98.7906 194.74791 98.5176 195.4239C 98.2446 196.0989 97.8946 196.7399 97.5156 197.3659C 97.135605 197.9919 96.7296 198.5929 96.3286 199.1879C 95.9256 199.7949 95.5326 200.3779 95.1686 200.96991C 95.6886 201.1069 96.2036 201.2659 96.6996 201.4739C 97.1936 201.6869 97.6796 201.9239 98.1436 202.2019C 98.2976 201.5359 98.4436 200.8239 98.580605 200.1239C 98.718605 199.4219 98.859604 198.70291 99.0336 197.9929C 99.3806 196.5879 99.8516 195.1909 100.8506 194.0139C 101.787605 192.9079 103.1576 192.2289 104.7666 192.2449C 106.3626 192.24991 108.1826 192.9779 109.6656 194.4539C 111.1436 195.93991 111.869606 197.7579 111.8746 199.3529C 111.8886 200.9599 111.2096 202.32991 110.106606 203.2689C 108.9326 204.2709 107.5346 204.7409 106.1286 205.0879C 105.4186 205.2619 104.6986 205.40291 103.996605 205.5399C 103.2956 205.67691 102.5836 205.8229 101.9176 205.9769C 102.1966 206.43991 102.4336 206.9259 102.6456 207.4209C 102.8546 207.9169 103.0136 208.4319 103.149605 208.9519C 103.7426 208.5869 104.3256 208.1949 104.9326 207.7919C 105.5276 207.3919 106.1286 206.9859 106.7536 206.6069C 107.3796 206.2279 108.0206 205.8789 108.6956 205.6049C 109.371605 205.3329 110.0916 205.1329 110.8546 205.0729C 111.5746 205.0169 112.29961 205.1049 112.984604 205.3549C 113.661606 205.60791 114.3186 206.0189 114.8756 206.5939C 116.0006 207.7279 116.7716 209.5359 116.775604 211.6199C 116.7716 213.70691 115.9996 215.51291 114.8756 216.6459zM103.4726 211.7999C 103.5206 211.80391 103.5696 211.8089 103.622604 211.8239C 104.0636 211.9409 104.5056 212.0779 104.9486 212.2289C 105.3886 212.3819 105.8196 212.5479 106.259605 212.7229C 107.1416 213.0729 108.0036 213.4599 108.8876 213.80191C 109.7556 214.13391 110.8526 214.3659 111.7826 214.1199C 112.245605 213.9969 112.6806 213.7529 112.984604 213.34291C 113.1386 213.1389 113.273605 212.8929 113.3636 212.6059C 113.4476 212.3199 113.498604 211.9899 113.5066 211.6199C 113.498604 211.2509 113.4476 210.9229 113.3636 210.6369C 113.273605 210.3499 113.1386 210.1049 112.984604 209.90091C 112.6806 209.4909 112.244606 209.2449 111.7816 209.12091C 110.8506 208.87291 109.7536 209.1029 108.8876 209.4389C 108.0046 209.7849 107.1426 210.1709 106.260605 210.5199C 105.8206 210.6949 105.3896 210.85991 104.9486 211.0119C 104.5056 211.1629 104.0636 211.2999 103.622604 211.4169C 103.5696 211.43091 103.5206 211.4369 103.4726 211.4409L103.4726 211.4409L103.4786 211.6199L103.4786 211.6199L103.4726 211.7999zM99.2786 222.3239C 99.4296 222.91791 99.5706 223.5159 99.7296 224.11191C 100.051605 225.3089 100.4326 226.5119 101.1386 227.5719C 101.5196 228.1429 101.983604 228.63391 102.5356 229.00891C 102.8116 229.19391 103.1106 229.3569 103.42461 229.4759C 103.7376 229.59491 104.0706 229.6799 104.4216 229.7249C 104.773605 229.77591 105.1306 229.7689 105.5056 229.7279C 105.8816 229.68991 106.259605 229.59691 106.6426 229.45691C 107.412605 229.1829 108.176605 228.69191 108.8816 228.0019C 110.234604 226.6409 110.7626 225.00891 110.619606 223.6369C 110.5466 222.9409 110.3256 222.3129 109.968605 221.7579C 109.6166 221.20491 109.148605 220.73691 108.5986 220.3529C 107.52161 219.60791 106.2966 219.2099 105.0726 218.87491C 104.4636 218.7109 103.8536 218.5659 103.245605 218.4119C 102.6416 218.26091 102.0556 218.1089 101.4776 217.9329C 101.2966 218.1979 101.094604 218.4489 100.8896 218.6959C 101.967606 219.2359 103.2366 219.6619 104.5066 220.0789C 105.7816 220.5139 107.0486 220.9339 108.0566 221.73491C 108.4386 222.04091 108.761604 222.4089 108.9916 222.8239C 109.220604 223.2359 109.3616 223.7009 109.400604 224.2009C 109.4616 225.1829 109.079605 226.3159 108.1376 227.2579C 107.2226 228.1689 106.1316 228.5589 105.1716 228.52591C 104.192604 228.4809 103.3506 228.02791 102.7236 227.2989C 101.8656 226.3009 101.4306 225.0099 100.983604 223.70491C 100.5566 222.4059 100.1246 221.1059 99.57561 220.0099C 99.3286 220.2149 99.07761 220.4169 98.8136 220.5979C 98.983604 221.1609 99.1326 221.7339 99.2786 222.3239zM100.508606 219.34291C 100.4606 219.3139 100.4216 219.2839 100.384605 219.2529C 100.3056 219.3419 100.2216 219.4259 100.1326 219.5049C 100.163605 219.5419 100.1946 219.5809 100.2226 219.6289C 100.4506 220.02191 100.6676 220.4329 100.873604 220.8519C 101.0746 221.2669 101.2656 221.69391 101.4506 222.1289C 101.828606 223.0019 102.1586 223.8789 102.5456 224.7509C 102.925606 225.5999 103.536606 226.54091 104.3656 227.02391C 104.7776 227.2619 105.259605 227.3979 105.7666 227.3249C 106.0206 227.2899 106.2846 227.20891 106.5546 227.0719C 106.817604 226.9299 107.0866 226.7309 107.3536 226.4739C 107.609604 226.2079 107.8076 225.9389 107.9506 225.67691C 108.0866 225.4069 108.1676 225.1419 108.20261 224.8889C 108.274605 224.3819 108.1406 223.89891 107.9026 223.4859C 107.4206 222.6539 106.480606 222.0419 105.6306 221.66591C 104.7566 221.2829 103.8806 220.9519 103.0076 220.5739C 102.5726 220.38791 102.14661 220.1959 101.731606 219.9949C 101.31261 219.78891 100.9026 219.5709 100.508606 219.34291zM88.7786 225.5679C 88.161606 226.63591 87.579605 227.7579 87.3286 229.0059C 87.0566 230.3489 87.260605 231.7339 88.1266 232.8569C 88.5596 233.40291 89.149605 233.8929 89.8916 234.2339C 90.2596 234.4169 90.6666 234.5339 91.1046 234.6389C 91.5406 234.7379 92.008606 234.7749 92.4996 234.7879C 94.412605 234.7829 95.9446 234.0049 96.815605 232.9319C 97.2546 232.38591 97.5446 231.78491 97.6856 231.1439C 97.8266 230.5009 97.82561 229.8379 97.706604 229.1759C 97.4736 227.8889 96.886604 226.7379 96.260605 225.6439C 95.9466 225.1029 95.6136 224.5509 95.2956 224.02191C 94.97861 223.49591 94.6676 222.95891 94.386604 222.4329C 94.230606 222.4669 94.0706 222.4859 93.9106 222.5039C 93.7516 222.5249 93.593605 222.5479 93.4326 222.5549C 93.6256 223.13391 93.8656 223.7149 94.1376 224.3049C 94.4086 224.8979 94.7106 225.4989 95.0096 226.0929C 95.3076 226.68991 95.60361 227.2959 95.8466 227.90991C 96.0886 228.5179 96.2776 229.13791 96.3486 229.77591C 96.4596 230.7539 96.2106 231.7079 95.552605 232.4669C 94.900604 233.2099 93.82761 233.7299 92.4996 233.73491C 91.2136 233.7259 90.163605 233.2439 89.5076 232.5329C 89.177605 232.1839 88.942604 231.75891 88.79961 231.3229C 88.6566 230.88391 88.6066 230.4199 88.6416 229.9389C 88.6886 229.28491 88.86861 228.6489 89.107605 228.02591C 89.3486 227.39891 89.648605 226.77791 89.9536 226.16591C 90.105606 225.86191 90.2576 225.5579 90.40961 225.2529C 90.5606 224.9449 90.7076 224.63991 90.8476 224.3379C 91.1256 223.73491 91.371605 223.1419 91.567604 222.5549C 91.4066 222.5479 91.247604 222.5249 91.0886 222.5039C 90.9296 222.4859 90.7706 222.4669 90.6136 222.4329C 90.064606 223.4659 89.4026 224.4929 88.7786 225.5679zM93.108604 224.06891C 92.956604 223.6259 92.8206 223.1829 92.7036 222.7429C 92.6886 222.68991 92.6836 222.6409 92.6796 222.5929L92.6796 222.5929L92.4996 222.5989L92.4996 222.5989L92.3206 222.5929C 92.316605 222.6409 92.3106 222.68991 92.2966 222.7429C 92.1796 223.1829 92.0426 223.6259 91.8906 224.06891C 91.7386 224.50891 91.5726 224.93991 91.39661 225.3799C 91.0466 226.2619 90.6606 227.1239 90.3186 228.0079C 89.9866 228.8759 89.7546 229.9729 89.9996 230.90291C 90.122604 231.3659 90.3676 231.8009 90.7776 232.1049C 90.9816 232.25891 91.2266 232.3939 91.5136 232.4839C 91.8006 232.5679 92.1296 232.6189 92.4996 232.6269C 92.86861 232.6189 93.1966 232.5679 93.483604 232.48291C 93.7706 232.3939 94.0146 232.25891 94.219604 232.1049C 94.6296 231.8009 94.8756 231.3649 94.9996 230.9019C 95.247604 229.9709 95.0166 228.8739 94.6816 228.0079C 94.3356 227.12491 93.9496 226.26291 93.6006 225.3809C 93.4256 224.9409 93.2596 224.50891 93.108604 224.06891zM81.7966 218.39891C 81.20261 218.5499 80.6046 218.6909 80.008606 218.8489C 78.8116 219.1719 77.608604 219.5529 76.54761 220.2579C 75.9776 220.63991 75.4866 221.1039 75.1116 221.6559C 74.9256 221.9319 74.7636 222.2299 74.6436 222.5449C 74.5246 222.85791 74.4406 223.1909 74.39461 223.5419C 74.344604 223.8939 74.3516 224.2509 74.3916 224.6259C 74.4296 225.0019 74.523605 225.3799 74.663605 225.76291C 74.9366 226.5329 75.428604 227.2969 76.1176 228.0019C 77.4796 229.3549 79.1106 229.8829 80.483604 229.7399C 81.178604 229.6669 81.8076 229.4459 82.3626 229.0889C 82.9156 228.73691 83.383606 228.2689 83.7666 227.7189C 84.5126 226.6409 84.9106 225.4169 85.2446 224.1929C 85.4086 223.58391 85.5546 222.9739 85.7086 222.3659C 85.859604 221.7619 86.011604 221.1759 86.18761 220.5979C 85.9226 220.4169 85.6706 220.2149 85.4236 220.0099C 84.8846 221.0879 84.4586 222.3569 84.0406 223.6269C 83.6066 224.9019 83.1866 226.1689 82.385605 227.17691C 82.079605 227.5579 81.7116 227.8819 81.2966 228.11191C 80.883606 228.34091 80.4196 228.4819 79.9186 228.5209C 78.9366 228.58191 77.8046 228.1999 76.8626 227.2579C 75.9516 226.3429 75.5616 225.2519 75.594604 224.2919C 75.6396 223.3129 76.092606 222.4709 76.8206 221.8439C 77.8196 220.9859 79.1106 220.5509 80.4156 220.1039C 81.71361 219.67691 83.0146 219.2449 84.1106 218.6959C 83.9046 218.4489 83.7036 218.1979 83.52161 217.9329C 82.9596 218.1039 82.386604 218.2529 81.7966 218.39891zM84.8676 219.5049C 84.7786 219.4259 84.6946 219.3419 84.6146 219.2529C 84.5786 219.2839 84.538605 219.3139 84.4916 219.34291C 84.0976 219.5709 83.6886 219.7879 83.2676 219.9939C 82.85361 220.1949 82.426605 220.38591 81.99161 220.5709C 81.1176 220.9489 80.24161 221.2789 79.3696 221.66591C 78.5206 222.0459 77.579605 222.6569 77.0966 223.4859C 76.857605 223.8979 76.7226 224.3799 76.7946 224.8869C 76.8306 225.1409 76.911606 225.4049 77.04761 225.6749C 77.1906 225.9379 77.3896 226.20691 77.64661 226.4739C 77.9126 226.7299 78.1806 226.9279 78.442604 227.0709C 78.71361 227.2059 78.97861 227.2869 79.2316 227.3229C 79.7386 227.3949 80.2216 227.26091 80.6346 227.0229C 81.4666 226.54091 82.0786 225.6009 82.4536 224.7509C 82.8376 223.8769 83.1686 223.0009 83.5466 222.1269C 83.732605 221.6929 83.92461 221.2669 84.1256 220.8519C 84.331604 220.4329 84.5486 220.0229 84.7776 219.6289C 84.8056 219.5809 84.8356 219.5419 84.8676 219.5049zM81.5276 211.4409C 81.4796 211.4369 81.4306 211.43091 81.3776 211.4169C 80.9366 211.2999 80.4946 211.1629 80.051605 211.01091C 79.6116 210.8589 79.1796 210.6929 78.7406 210.5169C 77.858604 210.1669 76.9966 209.7809 76.1116 209.4389C 75.2446 209.1069 74.1476 208.87491 73.217606 209.1199C 72.75461 209.2429 72.3186 209.4879 72.0156 209.8979C 71.8606 210.1019 71.7266 210.34691 71.636604 210.63391C 71.551605 210.9209 71.5016 211.24991 71.49361 211.6199C 71.5016 211.9889 71.551605 212.31691 71.636604 212.6039C 71.7266 212.8909 71.8606 213.1349 72.0156 213.3399C 72.3196 213.74991 72.7556 213.99591 73.2186 214.1199C 74.1496 214.3679 75.2466 214.1369 76.1116 213.80191C 76.995605 213.4559 77.8566 213.0699 78.7396 212.7209C 79.178604 212.5459 79.6106 212.3799 80.0506 212.2289C 80.4946 212.0769 80.9366 211.9409 81.3776 211.8239C 81.4306 211.8089 81.4796 211.80391 81.5276 211.7999L81.5276 211.7999L81.52161 211.6199L81.52161 211.6199L81.5276 211.4409zM78.5526 207.89891C 77.483604 207.2819 76.3626 206.6999 75.1146 206.4489C 73.77161 206.17691 72.386604 206.3809 71.2636 207.2469C 70.7166 207.6799 70.2276 208.2699 69.885605 209.0119C 69.70261 209.3799 69.5856 209.78691 69.480606 210.2239C 69.3826 210.6609 69.345604 211.1289 69.3326 211.6199C 69.3376 213.5329 70.1146 215.0639 71.18761 215.9359C 71.733604 216.37491 72.3346 216.6649 72.9766 216.80591C 73.61861 216.9469 74.28261 216.9459 74.9436 216.8269C 76.230606 216.5939 77.38161 216.0069 78.4766 215.3809C 79.0176 215.06691 79.5686 214.7339 80.0986 214.41591C 80.6246 214.0989 81.161606 213.7879 81.68761 213.5069C 81.6536 213.3499 81.6346 213.18991 81.61661 213.0309C 81.595604 212.8719 81.5716 212.7139 81.564606 212.5529C 80.9866 212.74591 80.4056 212.9859 79.8156 213.2579C 79.2216 213.5289 78.6216 213.8309 78.0276 214.1299C 77.4296 214.4279 76.8236 214.7239 76.2106 214.9669C 75.6026 215.20891 74.982605 215.3979 74.344604 215.4689C 73.3656 215.5789 72.4126 215.32991 71.6536 214.6729C 70.90961 214.0209 70.3896 212.9479 70.385605 211.6199C 70.39461 210.33391 70.8766 209.2839 71.5876 208.6279C 71.9366 208.2979 72.3616 208.0629 72.79761 207.9199C 73.2356 207.7769 73.6996 207.7269 74.1806 207.7619C 74.8356 207.8089 75.470604 207.9889 76.094604 208.2279C 76.7216 208.4689 77.342606 208.7689 77.954605 209.0739C 78.258606 209.2249 78.5636 209.3779 78.86661 209.5299C 79.17461 209.68091 79.4796 209.8279 79.78261 209.9669C 80.385605 210.24591 80.9776 210.4919 81.564606 210.6879C 81.5716 210.5269 81.595604 210.3679 81.61661 210.20891C 81.6346 210.0499 81.6536 209.8909 81.68761 209.7339C 80.6536 209.1849 79.6276 208.5229 78.5526 207.89891zM85.720604 200.9169C 85.5706 200.3229 85.4296 199.7239 85.27161 199.1289C 84.9486 197.9319 84.567604 196.7289 83.8616 195.66791C 83.480606 195.0979 83.0166 194.6069 82.4646 194.2319C 82.1886 194.0459 81.8896 193.88391 81.5746 193.7639C 81.2626 193.6449 80.9296 193.5609 80.5786 193.51491C 80.2256 193.4649 79.8696 193.47191 79.4946 193.5119C 79.11861 193.5499 78.7406 193.6439 78.357605 193.7839C 77.5876 194.0569 76.8236 194.5489 76.1176 195.2379C 74.7656 196.5989 74.2376 198.2309 74.37961 199.6039C 74.4536 200.2989 74.6736 200.9279 75.0306 201.48291C 75.383606 202.0359 75.8516 202.5039 76.4016 202.8869C 77.4796 203.6329 78.7036 204.0309 79.926605 204.3649C 80.536606 204.5289 81.14661 204.6749 81.75461 204.8289C 82.357605 204.9799 82.9446 205.1319 83.52161 205.3079C 83.7036 205.04291 83.9046 204.79091 84.1106 204.5439C 83.0316 204.0049 81.7626 203.5789 80.49361 203.1609C 79.2186 202.7269 77.95061 202.3069 76.9436 201.5059C 76.56261 201.1989 76.2386 200.83191 76.0076 200.4169C 75.7786 200.0039 75.6376 199.5399 75.5996 199.03891C 75.538605 198.0569 75.9206 196.9249 76.8626 195.9819C 77.7766 195.0719 78.86861 194.6819 79.8286 194.7149C 80.8066 194.7599 81.6496 195.2119 82.2766 195.9409C 83.1346 196.93991 83.5696 198.2299 84.0156 199.5349C 84.4436 200.83391 84.8756 202.1349 85.4236 203.2309C 85.6706 203.0249 85.9226 202.8239 86.18761 202.6419C 86.0156 202.07991 85.8676 201.5069 85.720604 200.9169zM84.4916 203.8979C 84.538605 203.9259 84.5786 203.9559 84.6146 203.9879C 84.6946 203.89891 84.7786 203.81491 84.8676 203.73491C 84.8356 203.6989 84.8056 203.6589 84.7776 203.61191C 84.5486 203.2179 84.331604 202.8079 84.1266 202.38791C 83.9256 201.9739 83.734604 201.5469 83.5486 201.11191C 83.1716 200.2379 82.8416 199.36191 82.4536 198.4899C 82.0746 197.6409 81.46361 196.6999 80.633606 196.2169C 80.2216 195.9779 79.7396 195.8429 79.233604 195.9149C 78.9796 195.9509 78.71561 196.0319 78.4446 196.16791C 78.1826 196.3109 77.913605 196.5099 77.64661 196.7659C 77.3906 197.0329 77.192604 197.3009 77.04961 197.5629C 76.913605 197.83391 76.8326 198.0989 76.79761 198.3519C 76.7246 198.8589 76.859604 199.3419 77.0976 199.7549C 77.579605 200.5869 78.51961 201.1989 79.3696 201.5739C 80.24361 201.9579 81.1196 202.28891 81.9926 202.6669C 82.426605 202.8529 82.85361 203.0449 83.2676 203.24591C 83.6886 203.4519 84.0976 203.6689 84.4916 203.8979zM96.2216 197.6719C 96.8376 196.6039 97.4206 195.48291 97.6716 194.23491C 97.9436 192.8909 97.7396 191.5069 96.872604 190.38391C 96.440605 189.8369 95.8506 189.34691 95.108604 189.0059C 94.7396 188.8229 94.3326 188.7059 93.89661 188.6009C 93.4596 188.5029 92.9916 188.46591 92.4996 188.45291C 90.5876 188.4579 89.0556 189.23491 88.1846 190.3079C 87.7446 190.8539 87.455605 191.4549 87.3136 192.09691C 87.1726 192.7389 87.1736 193.40291 87.2926 194.0639C 87.5266 195.3509 88.1126 196.5019 88.7396 197.59691C 89.053604 198.13791 89.386604 198.6889 89.7036 199.2189C 90.02161 199.7449 90.3326 200.2819 90.6136 200.8069C 90.7706 200.77391 90.9296 200.7549 91.0886 200.7359C 91.247604 200.7159 91.4066 200.69191 91.567604 200.6849C 91.3746 200.1069 91.1346 199.52591 90.8626 198.9359C 90.5916 198.3419 90.288605 197.7409 89.9906 197.1479C 89.692604 196.5499 89.39661 195.94391 89.1526 195.3309C 88.911606 194.7229 88.7226 194.1029 88.6516 193.4649C 88.5406 192.4859 88.789604 191.5329 89.4476 190.7739C 90.0996 190.0299 91.1726 189.5099 92.4996 189.5059C 93.786606 189.51491 94.8366 189.9969 95.4916 190.7079C 95.8226 191.0569 96.0576 191.4819 96.1996 191.9169C 96.343605 192.3559 96.3936 192.8199 96.357605 193.3009C 96.3116 193.9559 96.13161 194.59091 95.8926 195.2149C 95.6516 195.8419 95.3516 196.4629 95.0466 197.0749C 94.8956 197.3789 94.7426 197.6829 94.59061 197.98691C 94.4386 198.2949 94.2926 198.5999 94.1526 198.90291C 93.8746 199.5059 93.6286 200.0979 93.4326 200.6849C 93.593605 200.69191 93.7516 200.7159 93.9106 200.7359C 94.0706 200.7549 94.230606 200.77391 94.386604 200.8069C 94.9356 199.77391 95.5976 198.74791 96.2216 197.6719zM91.8916 199.1709C 92.0426 199.6149 92.1796 200.0569 92.2966 200.49791C 92.3106 200.5509 92.316605 200.5999 92.3206 200.6479L92.3206 200.6479L92.4996 200.6419L92.4996 200.6419L92.6796 200.6479C 92.6836 200.5999 92.6886 200.5509 92.7036 200.49791C 92.8206 200.0569 92.9576 199.6149 93.108604 199.1719C 93.261604 198.7319 93.427605 198.2999 93.6026 197.8609C 93.95261 196.9779 94.3396 196.1169 94.6816 195.2319C 95.0136 194.3649 95.245605 193.2679 95.0006 192.3379C 94.8766 191.87491 94.6326 191.4389 94.2226 191.13591C 94.0186 190.9809 93.7726 190.84691 93.4856 190.7569C 93.1996 190.6719 92.8696 190.6219 92.4996 190.6139C 92.13161 190.6219 91.802605 190.6719 91.5166 190.7569C 91.230606 190.84691 90.984604 190.9809 90.7806 191.13591C 90.370605 191.43991 90.1246 191.8759 90.0006 192.3389C 89.7526 193.2699 89.982605 194.3669 90.3186 195.2319C 90.664604 196.1159 91.0506 196.9769 91.399605 197.85991C 91.5746 198.2989 91.7396 198.7309 91.8916 199.1709zM103.203606 204.8409C 103.7976 204.6909 104.3956 204.5489 104.9916 204.3909C 106.1886 204.06891 107.3916 203.6879 108.4516 202.9819C 109.022606 202.5999 109.5136 202.1369 109.8886 201.5849C 110.0736 201.3089 110.2366 201.0099 110.355606 200.6949C 110.4746 200.3829 110.5596 200.0489 110.605606 199.6989C 110.6556 199.3459 110.648605 198.9899 110.607605 198.6149C 110.5696 198.2389 110.4766 197.8609 110.3366 197.4779C 110.0636 196.7079 109.5716 195.94391 108.8816 195.2379C 107.5206 193.88591 105.8886 193.35791 104.5166 193.49991C 103.8206 193.5739 103.192604 193.7939 102.6376 194.15091C 102.0846 194.5039 101.6166 194.97191 101.232605 195.52191C 100.4876 196.5989 100.0896 197.8239 99.7546 199.0469C 99.59061 199.6569 99.4456 200.2659 99.2916 200.87491C 99.1406 201.4779 98.9886 202.06491 98.8136 202.6419C 99.07761 202.8239 99.3286 203.0249 99.57561 203.2309C 100.1156 202.1519 100.5416 200.8829 100.9586 199.6139C 101.3936 198.3389 101.8136 197.0709 102.6146 196.0639C 102.9206 195.6819 103.288605 195.3589 103.703606 195.1279C 104.1166 194.8989 104.580605 194.7579 105.080605 194.71991C 106.0636 194.6589 107.1956 195.04091 108.1376 195.9819C 109.0486 196.89691 109.4386 197.9889 109.4056 198.9489C 109.3606 199.92691 108.9076 200.7699 108.178604 201.39691C 107.1806 202.2539 105.8896 202.68991 104.5846 203.13591C 103.286606 203.5639 101.9856 203.99591 100.8896 204.5439C 101.094604 204.79091 101.2966 205.04291 101.4776 205.3079C 102.0406 205.13591 102.6136 204.9879 103.203606 204.8409zM100.1326 203.73491C 100.2216 203.81491 100.3056 203.89891 100.384605 203.9879C 100.4216 203.9559 100.4606 203.9259 100.508606 203.8979C 100.9016 203.6689 101.31261 203.4519 101.731606 203.2469C 102.14661 203.0459 102.5736 202.8549 103.008606 202.6689C 103.8816 202.2919 104.758606 201.9619 105.6306 201.5739C 106.4796 201.1949 107.4206 200.58391 107.9036 199.7539C 108.1426 199.3419 108.2776 198.85991 108.204605 198.3539C 108.1696 198.0999 108.0886 197.8359 107.9516 197.56491C 107.8096 197.3029 107.6106 197.0339 107.3536 196.7659C 107.0876 196.51091 106.8186 196.3129 106.5566 196.1699C 106.286606 196.0339 106.02161 195.95291 105.7686 195.91791C 105.261604 195.84491 104.7786 195.9799 104.3656 196.2179C 103.5336 196.6999 102.9216 197.6389 102.5456 198.4899C 102.162605 199.3639 101.831604 200.2399 101.453606 201.1129C 101.2676 201.5469 101.0756 201.9739 100.8746 202.38791C 100.6686 202.8079 100.4506 203.2179 100.2226 203.61191C 100.1946 203.6589 100.163605 203.6989 100.1326 203.73491zM102.1866 209.7259C 102.1816 209.7119 102.1796 209.6969 102.178604 209.6819C 101.928604 208.4239 101.4306 207.21991 100.7126 206.1459C 100.703606 206.1349 100.6956 206.12291 100.689606 206.1089C 99.980606 205.0579 99.0636 204.13991 98.011604 203.4319C 97.997604 203.4249 97.984604 203.4169 97.9736 203.4069C 96.898605 202.6889 95.6956 202.1909 94.4386 201.9409C 94.4236 201.9409 94.4086 201.9389 94.3956 201.9339C 93.775604 201.8139 93.1426 201.7529 92.4996 201.7509C 91.857605 201.7529 91.2256 201.8139 90.605606 201.9339C 90.5916 201.9389 90.5766 201.9409 90.5616 201.94191C 89.303604 202.1909 88.0996 202.68991 87.025604 203.4069C 87.0156 203.4169 87.0026 203.4249 86.9886 203.43091C 85.9386 204.13991 85.0196 205.0579 84.3116 206.10791C 84.3046 206.12291 84.2966 206.13591 84.286606 206.1469C 83.5686 207.2209 83.0706 208.4249 82.8216 209.6829C 82.8206 209.6969 82.8186 209.7109 82.8136 209.7249C 82.6936 210.34491 82.6326 210.9769 82.6306 211.6199C 82.6326 212.26291 82.6936 212.8949 82.8136 213.51491C 82.8186 213.5289 82.8206 213.5439 82.8216 213.5589C 83.0706 214.81691 83.5696 216.0199 84.286606 217.0939C 84.2966 217.1049 84.3046 217.1179 84.3106 217.1319C 85.0196 218.1819 85.93761 219.0999 86.9876 219.8089C 87.0026 219.81491 87.0156 219.8239 87.0266 219.83391C 88.1006 220.5509 89.3046 221.0499 90.56261 221.2989C 90.5766 221.2999 90.5916 221.30191 90.605606 221.30591C 91.2246 221.42691 91.8566 221.4879 92.4996 221.4899C 93.1426 221.4879 93.774605 221.42691 94.3946 221.3069C 94.4086 221.30191 94.4236 221.2989 94.4386 221.2989C 95.6966 221.0489 96.899605 220.5509 97.9736 219.8329C 97.984604 219.8239 97.997604 219.8159 98.011604 219.8099C 99.06261 219.1009 99.9796 218.1829 100.6886 217.1319C 100.6956 217.1179 100.703606 217.1049 100.7136 217.0939C 101.4306 216.0189 101.9296 214.8159 102.178604 213.5579C 102.1796 213.5439 102.1816 213.5289 102.1856 213.5159C 102.3066 212.8959 102.3676 212.26291 102.3696 211.6199C 102.3676 210.9769 102.3066 210.3459 102.1866 209.7259zM115.6676 211.6199C 115.662605 209.7079 114.884605 208.1759 113.8126 207.3049C 113.2656 206.8649 112.664604 206.5759 112.023605 206.4339C 111.3806 206.29291 110.717606 206.2939 110.0556 206.4129C 108.7686 206.6469 107.6176 207.23291 106.523605 207.85991C 105.982605 208.1739 105.4306 208.5069 104.9016 208.8239C 104.3756 209.1409 103.8386 209.4529 103.3136 209.7339C 103.3466 209.8909 103.3656 210.0499 103.383606 210.20891C 103.4046 210.3679 103.428604 210.5269 103.4346 210.6879C 104.0136 210.4949 104.594604 210.2549 105.1846 209.98291C 105.7776 209.7119 106.3786 209.4089 106.9726 209.1109C 107.5696 208.8129 108.175606 208.5159 108.789604 208.2729C 109.397606 208.0319 110.0176 207.84291 110.6556 207.7719C 111.633606 207.6609 112.5876 207.9099 113.3466 208.5679C 114.0896 209.21991 114.609604 210.29291 114.6146 211.6199C 114.605606 212.9069 114.123604 213.95691 113.412605 214.61191C 113.0636 214.9429 112.6386 215.1779 112.20261 215.3199C 111.7636 215.4629 111.29961 215.5139 110.8186 215.4779C 110.164604 215.4319 109.5286 215.2519 108.9056 215.01291C 108.2786 214.7719 107.6576 214.47191 107.0456 214.1669C 106.7416 214.0159 106.43761 213.8629 106.1326 213.7109C 105.8246 213.5589 105.5196 213.4129 105.217606 213.2729C 104.6146 212.9949 104.02161 212.7489 103.4346 212.5529C 103.428604 212.7139 103.4046 212.8719 103.383606 213.0309C 103.3656 213.1909 103.3466 213.3499 103.31261 213.5069C 104.3466 214.05591 105.372604 214.71791 106.4476 215.3419C 107.5156 215.9579 108.6376 216.54091 109.885605 216.7919C 111.2296 217.0639 112.6136 216.85991 113.7366 215.9929C 114.2826 215.5599 114.772606 214.9709 115.1136 214.2289C 115.2966 213.85991 115.413605 213.4529 115.5186 213.0159C 115.6176 212.57991 115.6546 212.11191 115.6676 211.6199z" stroke="#E7BC9E" stroke-width="0.425" fill="none" />
    <path id=""  transform="matrix(1 0 0 -1 0 316)"  d="M92.4997 218.4734C 88.7147 218.4734 85.645706 215.4054 85.645706 211.6204C 85.645706 207.8344 88.7147 204.7664 92.4997 204.7664C 96.284706 204.7664 99.3537 207.8344 99.3537 211.6204C 99.3537 215.4054 96.284706 218.4734 92.4997 218.4734M92.4997 208.2254C 90.6257 208.2254 89.104706 209.7464 89.104706 211.6204C 89.104706 213.4954 90.6257 215.0144 92.4997 215.0144C 94.3747 215.0144 95.8947 213.4954 95.8947 211.6204C 95.8947 209.7464 94.3747 208.2254 92.4997 208.2254" stroke="none" fill="#E7BC9E" fill-rule="nonzero" />
    <path id=""  transform="matrix(1 0 0 -1 0 316)"  d="M92.9704 224.7127C 92.9704 222.53871 92.4954 220.77571 92.4954 220.77571C 92.4954 220.77571 92.0214 222.53871 92.0214 224.7127C 92.0214 226.8867 92.4954 228.6497 92.4954 228.6497C 92.4954 228.6497 92.9704 226.8867 92.9704 224.7127z" stroke="#E7BC9E" stroke-width="0.425" fill="none" />
    <path id=""  transform="matrix(1 0 0 -1 0 316)"  d="M83.5749 221.2107C 85.1119 219.6727 86.022896 218.09169 86.022896 218.09169C 86.022896 218.09169 84.440895 219.0017 82.9039 220.5387C 81.3659 222.0757 80.455894 223.6577 80.455894 223.6577C 80.455894 223.6577 82.037895 222.7477 83.5749 221.2107z" stroke="#E7BC9E" stroke-width="0.425" fill="none" />
    <path id=""  transform="matrix(1 0 0 -1 0 316)"  d="M79.4079 212.0906C 81.5819 212.0906 83.344894 211.6156 83.344894 211.6156C 83.344894 211.6156 81.5819 211.1416 79.4079 211.1416C 77.232895 211.1416 75.4709 211.6156 75.4709 211.6156C 75.4709 211.6156 77.232895 212.0906 79.4079 212.0906z" stroke="#E7BC9E" stroke-width="0.425" fill="none" />
    <path id=""  transform="matrix(1 0 0 -1 0 316)"  d="M82.9098 202.6951C 84.4468 204.2321 86.0288 205.1431 86.0288 205.1431C 86.0288 205.1431 85.1188 203.5611 83.580795 202.0231C 82.0438 200.4861 80.4618 199.5761 80.4618 199.5761C 80.4618 199.5761 81.372795 201.1581 82.9098 202.6951z" stroke="#E7BC9E" stroke-width="0.425" fill="none" />
    <path id=""  transform="matrix(1 0 0 -1 0 316)"  d="M92.03 198.5281C 92.03 200.7021 92.505 202.4651 92.505 202.4651C 92.505 202.4651 92.979 200.7021 92.979 198.5281C 92.979 196.3531 92.505 194.59111 92.505 194.59111C 92.505 194.59111 92.03 196.3531 92.03 198.5281z" stroke="#E7BC9E" stroke-width="0.425" fill="none" />
    <path id=""  transform="matrix(1 0 0 -1 0 316)"  d="M101.4255 202.0301C 99.8875 203.56711 98.9775 205.14911 98.9775 205.14911C 98.9775 205.14911 100.5595 204.2391 102.0965 202.70111C 103.6335 201.16411 104.5445 199.5821 104.5445 199.5821C 104.5445 199.5821 102.9625 200.4931 101.4255 202.0301z" stroke="#E7BC9E" stroke-width="0.425" fill="none" />
    <path id=""  transform="matrix(1 0 0 -1 0 316)"  d="M105.5925 211.1502C 103.418495 211.1502 101.6555 211.62521 101.6555 211.62521C 101.6555 211.62521 103.418495 212.09921 105.5925 212.09921C 107.7665 212.09921 109.529495 211.62521 109.529495 211.62521C 109.529495 211.62521 107.7665 211.1502 105.5925 211.1502z" stroke="#E7BC9E" stroke-width="0.425" fill="none" />
    <path id=""  transform="matrix(1 0 0 -1 0 316)"  d="M102.0905 220.5457C 100.5525 219.0077 98.9715 218.0977 98.9715 218.0977C 98.9715 218.0977 99.8815 219.6797 101.4185 221.2167C 102.9565 222.7537 104.5375 223.6647 104.5375 223.6647C 104.5375 223.6647 103.6275 222.0827 102.0905 220.5457z" stroke="#E7BC9E" stroke-width="0.425" fill="none" />
		</g>
	</g>
</g>
</svg>