<?xml version="1.0" standalone="no"?>
<!DOCTYPE svg PUBLIC "-//W3C//DTD SVG 1.0//EN" "http://www.w3.org/TR/2001/REC-SVG-20010904/DTD/svg10.dtd">
<svg xmlns="http://www.w3.org/2000/svg" xmlns:xlink="http://www.w3.org/1999/xlink" id="body_18" width="247" height="421">

<defs>
    <clipPath  id="1">

    <path id=""  clip-rule="evenodd" transform="matrix(1 0 0 1 0 0)"  d="M0 316L0 0L0 0L185 0L185 0L185 316L185 316L0 316z" />    </clipPath>
</defs>

<g transform="matrix(1.3333 0 0 1.3333 0 0)">
	<g clip-path="url(#1)" >
    <path id=""  transform="matrix(1 0 0 -1 0 316)"  d="M85.4844 223.76091L92.491394 235.8959L92.491394 235.8959L99.5114 223.7819L99.5114 223.7819L113.531395 223.7819L113.531395 223.7819L106.5334 211.62291L106.5334 211.62291L113.5274 199.4629L113.5274 199.4629L99.491394 199.4629L99.491394 199.4629L92.4934 187.34491L92.4934 187.34491L85.4954 199.4629L85.4954 199.4629L71.4684 199.48491L71.4684 199.48491L78.476395 211.62291L78.476395 211.62291L71.4694 223.7829L71.4694 223.7829L85.4844 223.76091zM109.378395 220.2319L109.390396 220.2279L109.390396 220.2279L104.960396 212.55591L104.960396 212.55591L102.7464 212.55591L102.7464 212.55591L107.1394 220.0379L107.1394 220.0379L100.587395 220.0359L100.587395 220.0359L96.2834 212.55591L96.2834 212.55591L94.1454 212.55591L94.1454 212.55591L95.865395 215.5339L95.865395 215.5339L91.5124 222.9099L91.5124 222.9099L92.5754 224.7509L92.5754 224.7509L96.920395 217.3629L96.920395 217.3629L99.501396 221.83391L99.501396 221.83391L99.501396 221.87291L99.501396 221.87291L99.5254 221.87291L99.5254 221.87291L99.5274 221.8769L99.5274 221.8769L99.5334 221.87291L99.5334 221.87291L110.3424 221.8769L110.3424 221.8769L109.378395 220.2319zM75.6654 203.05591L75.654396 203.0579L75.654396 203.0579L80.0844 210.7309L80.0844 210.7309L82.2984 210.7309L82.2984 210.7309L77.906395 203.2489L77.906395 203.2489L84.4564 203.2509L84.4564 203.2509L88.7624 210.7309L88.7624 210.7309L90.9004 210.7309L90.9004 210.7309L89.1794 207.7529L89.1794 207.7529L93.532394 200.3779L93.532394 200.3779L92.4684 198.5359L92.4684 198.5359L88.1234 205.9239L88.1234 205.9239L85.5424 201.4539L85.5424 201.4539L85.5424 201.41391L85.5424 201.41391L85.5204 201.41391L85.5204 201.41391L85.517395 201.40991L85.517395 201.40991L85.5104 201.41391L85.5104 201.41391L74.7024 201.40991L74.7024 201.40991L75.6654 203.05591zM76.656395 221.9469L76.6534 221.95891L76.6534 221.95891L85.5134 221.95891L85.5134 221.95891L86.6204 220.0419L86.6204 220.0419L77.9444 220.1039L77.9444 220.1039L81.2214 214.4319L81.2214 214.4319L89.852394 214.44391L89.852394 214.44391L90.921394 212.5929L90.921394 212.5929L87.4824 212.5929L87.4824 212.5929L83.2704 205.1369L83.2704 205.1369L81.143394 205.1369L81.143394 205.1369L85.3684 212.5929L85.3684 212.5929L80.2074 212.5929L80.2074 212.5929L80.1734 212.5729L80.1734 212.5729L80.1614 212.5929L80.1614 212.5929L80.1584 212.5929L80.1584 212.5929L80.1584 212.5999L80.1584 212.5999L74.7494 221.95891L74.7494 221.95891L76.656395 221.9469zM108.3884 201.3399L108.391396 201.32791L108.391396 201.32791L99.531395 201.32791L99.531395 201.32791L98.4234 203.2449L98.4234 203.2449L107.101395 203.1819L107.101395 203.1819L103.823395 208.8549L103.823395 208.8549L95.1924 208.8439L95.1924 208.8439L94.1224 210.69391L94.1224 210.69391L97.5624 210.69391L97.5624 210.69391L101.7744 218.15091L101.7744 218.15091L103.9014 218.15091L103.9014 218.15091L99.6754 210.69391L99.6754 210.69391L104.836395 210.69391L104.836395 210.69391L104.8704 210.7149L104.8704 210.7149L104.8824 210.69391L104.8824 210.69391L104.8874 210.69391L104.8874 210.69391L104.8874 210.6859L104.8874 210.6859L110.294395 201.32791L110.294395 201.32791L108.3884 201.3399zM91.532394 192.7509L91.5234 192.7429L91.5234 192.7429L87.0924 200.4169L87.0924 200.4169L88.2004 202.3329L88.2004 202.3329L92.4844 194.7879L92.4844 194.7879L95.7574 200.4629L95.7574 200.4629L91.4314 207.9319L91.4314 207.9319L92.5004 209.7829L92.5004 209.7829L94.2204 206.80391L94.2204 206.80391L102.7834 206.8849L102.7834 206.8849L103.8474 205.04291L103.8474 205.04291L95.2774 204.9739L95.2774 204.9739L97.8574 200.5039L97.8574 200.5039L97.891396 200.4839L97.891396 200.4839L97.8804 200.4649L97.8804 200.4649L97.8824 200.4609L97.8824 200.4609L97.8754 200.45691L97.8754 200.45691L92.475395 191.09491L92.475395 191.09491L91.532394 192.7509zM93.5124 230.5359L93.5214 230.5449L93.5214 230.5449L97.9514 222.87091L97.9514 222.87091L96.8444 220.9539L96.8444 220.9539L92.560394 228.49991L92.560394 228.49991L89.2864 222.8239L89.2864 222.8239L93.613396 215.3559L93.613396 215.3559L92.544395 213.5049L92.544395 213.5049L90.824394 216.48291L90.824394 216.48291L82.2604 216.4019L82.2604 216.4019L81.197395 218.2439L81.197395 218.2439L89.768394 218.3129L89.768394 218.3129L87.1874 222.7829L87.1874 222.7829L87.1534 222.8029L87.1534 222.8029L87.1644 222.8229L87.1644 222.8229L87.1614 222.8269L87.1614 222.8269L87.168396 222.8309L87.168396 222.8309L92.5704 232.19191L92.5704 232.19191L93.5124 230.5359z" stroke="#E7BC9E" stroke-width="0.567" fill="none" />
	</g>
</g>
</svg>