<?xml version="1.0" standalone="no"?>
<!DOCTYPE svg PUBLIC "-//W3C//DTD SVG 1.0//EN" "http://www.w3.org/TR/2001/REC-SVG-20010904/DTD/svg10.dtd">
<svg xmlns="http://www.w3.org/2000/svg" xmlns:xlink="http://www.w3.org/1999/xlink" id="body_2" width="247" height="421">

<defs>
    <clipPath  id="1">

    <path id=""  clip-rule="evenodd" transform="matrix(1 0 0 1 0 0)"  d="M0 316L0 0L0 0L185 0L185 0L185 316L185 316L0 316z" />    </clipPath>
    <clipPath  id="2">

    <path id=""  clip-rule="evenodd" transform="matrix(1 0 0 1 0 0)"  d="M0 0L185 0L185 0L185 316L185 316L0 316z" />    </clipPath>
</defs>

<g transform="matrix(1.3333 0 0 1.3333 0 0)">
	<g clip-path="url(#1)" >
		<g clip-path="url(#2)" >
    <path id=""  transform="matrix(1 0 0 -1 0 316)"  d="M105.667496 234.4168C 105.598495 234.7168 105.5375 235.0268 105.4575 235.3268C 104.4775 239.67679 103.308495 243.7468 102.0885 247.4368C 100.7985 251.3568 99.4285 254.8568 98.1385 257.8568C 95.0775 265.01678 92.4975 269.2468 92.4975 269.2468C 92.4975 269.2468 89.917496 265.01678 86.8575 257.8568C 85.5775 254.8568 84.2075 251.3468 82.917496 247.42679C 81.6875 243.73679 80.51849 239.67679 79.5585 235.33679C 79.47749 235.0268 79.417496 234.72679 79.348495 234.4168C 79.2775 234.1068 79.2075 233.7868 79.1475 233.4668C 79.51849 233.6868 79.8885 233.9068 80.2585 234.11679C 83.7185 235.9968 87.6575 237.11679 91.848495 237.2168C 92.0675 237.22679 92.2775 237.22679 92.4975 237.22679C 92.7185 237.22679 92.9375 237.22679 93.1575 237.2168C 97.348495 237.11679 101.2875 235.9968 104.7475 234.1068C 105.127495 233.89679 105.4975 233.67679 105.8675 233.45679C 105.7985 233.7768 105.737495 234.0968 105.667496 234.4168zM104.7475 189.1368C 101.2875 187.2468 97.348495 186.1268 93.1575 186.0268C 92.9375 186.0168 92.7185 186.0168 92.4975 186.0168C 92.2775 186.0168 92.0675 186.0168 91.848495 186.0268C 87.6575 186.1268 83.7185 187.2468 80.2475 189.1368C 79.877495 189.33679 79.51849 189.5468 79.1575 189.7768C 79.2185 189.4568 79.2775 189.14679 79.348495 188.83679L79.348495 188.83679L79.5585 187.9068C 80.5275 183.5568 81.6875 179.5168 82.917496 175.8168C 84.2075 171.8868 85.5675 168.3868 86.848495 165.39679C 89.917496 158.22679 92.4975 153.9968 92.4975 153.9968C 92.4975 153.9968 95.0775 158.22679 98.1475 165.39679C 99.4285 168.3868 100.7985 171.8868 102.0885 175.8068C 103.308495 179.50679 104.4775 183.56679 105.4575 187.9168C 105.5375 188.2168 105.598495 188.5268 105.667496 188.8268C 105.737495 189.14679 105.7985 189.4668 105.8675 189.78679C 105.4975 189.5568 105.127495 189.3468 104.7475 189.1368z" stroke="#E7BC9E" stroke-width="1" stroke-linecap="round" fill="none" />
    <path id=""  transform="matrix(1 0 0 -1 0 316)"  d="M92.4975 237.94681C 92.2875 238.1768 92.0885 238.3968 91.8675 238.6268C 88.8575 241.89679 85.8175 244.83679 82.917496 247.42679C 79.8175 250.17679 76.86749 252.5368 74.26849 254.4868C 68.0275 259.1568 63.687496 261.5268 63.687496 261.5268C 63.687496 261.5268 63.567497 256.57678 64.5085 248.83679C 64.8885 245.6068 65.4575 241.8768 66.29849 237.8268C 67.0775 234.0268 68.098495 229.9268 69.4285 225.6768C 69.51849 225.3768 69.6075 225.0768 69.7075 224.7768C 69.8085 224.4768 69.8975 224.1768 70.0085 223.86679C 70.2185 224.2368 70.4285 224.6068 70.6575 224.9768C 72.7775 228.4268 75.697495 231.3468 79.1475 233.4668C 79.51849 233.6868 79.8885 233.9068 80.2585 234.11679C 83.7185 235.9968 87.6575 237.11679 91.848495 237.2168C 92.0675 237.2268 92.2775 237.2268 92.4975 237.2268C 92.7185 237.2268 92.9375 237.2268 93.1575 237.2168C 92.9375 237.4668 92.7185 237.7068 92.4975 237.94681zM120.4975 174.4068C 120.1175 177.6368 119.5485 181.3568 118.7075 185.4168C 117.9285 189.2268 116.8975 193.3168 115.5775 197.5668C 115.487495 197.86679 115.3885 198.1568 115.2985 198.4568C 115.197495 198.7668 115.098495 199.0668 114.9975 199.3768C 114.7875 198.9968 114.5675 198.6268 114.3385 198.2568C 112.2185 194.8168 109.3175 191.9068 105.8675 189.7868C 105.4975 189.5568 105.127495 189.3468 104.7475 189.1368C 101.2875 187.2468 97.348495 186.1268 93.1575 186.0268C 92.9375 186.0168 92.7185 186.0168 92.4975 186.0168C 92.2775 186.0168 92.0675 186.0168 91.848495 186.0268C 92.0585 185.7768 92.2775 185.5368 92.4975 185.2968C 92.7075 185.0668 92.917496 184.83679 93.127495 184.6168C 96.1475 181.3268 99.1875 178.3968 102.0885 175.8068C 105.1875 173.0668 108.1385 170.7068 110.7475 168.7568C 116.9685 164.0968 121.308495 161.7168 121.308495 161.7168C 121.308495 161.7168 121.4285 166.6768 120.4975 174.4068z" stroke="#E7BC9E" stroke-width="1" stroke-linecap="round" fill="none" />
    <path id=""  transform="matrix(1 0 0 -1 0 316)"  d="M79.3477 234.4166C 79.048706 234.5166 78.74771 234.6066 78.44771 234.6966C 74.19771 236.0166 70.09771 237.0466 66.298706 237.8266C 62.247704 238.6666 58.508705 239.2366 55.27771 239.61661C 47.548706 240.55661 42.59771 240.4366 42.59771 240.4366C 42.59771 240.4366 44.968704 236.0966 49.62771 229.86661C 51.577705 227.2666 53.937706 224.3166 56.687706 221.2166C 59.27771 218.30661 62.218704 215.2766 65.4977 212.2466C 65.72771 212.0366 65.9577 211.8266 66.187706 211.61661C 66.41771 211.4066 66.65771 211.1866 66.897705 210.97661C 66.88871 211.1866 66.88871 211.4066 66.88871 211.61661C 66.88871 211.8266 66.88871 212.0466 66.897705 212.2566C 66.9977 216.4466 68.11771 220.3966 70.008705 223.86661C 70.218704 224.2366 70.4287 224.6066 70.65771 224.97661C 72.77771 228.4266 75.69771 231.3466 79.147705 233.4666C 79.51771 233.6866 79.8887 233.9066 80.258705 234.11661C 79.94771 234.2266 79.647705 234.3166 79.3477 234.4166zM135.3677 193.3766C 133.4077 195.9866 131.0487 198.9366 128.2987 202.0266C 125.718704 204.9366 122.77771 207.97661 119.508705 210.97661C 119.27771 211.1966 119.048706 211.4066 118.8177 211.61661C 118.577705 211.83661 118.33871 212.05661 118.0977 212.2666C 118.107704 212.0466 118.107704 211.83661 118.107704 211.61661C 118.107704 211.4066 118.107704 211.1866 118.0977 210.97661C 117.9977 206.7866 116.87771 202.8466 114.9977 199.3766C 114.787704 198.9966 114.5677 198.6266 114.33871 198.2566C 112.218704 194.8166 109.3177 191.9066 105.86771 189.7866C 105.4977 189.5566 105.12771 189.3466 104.7477 189.1366C 105.05771 189.0266 105.357704 188.9266 105.66771 188.8266C 105.968704 188.7366 106.258705 188.6366 106.55771 188.5566C 110.80771 187.22661 114.897705 186.19661 118.7077 185.4166C 122.758705 184.5766 126.47771 184.0066 129.7077 183.6266C 137.44771 182.6866 142.4077 182.80661 142.4077 182.80661C 142.4077 182.80661 140.02771 187.1466 135.3677 193.3766z" stroke="#E7BC9E" stroke-width="1" stroke-linecap="round" fill="none" />
    <path id=""  transform="matrix(1 0 0 -1 0 316)"  d="M66.8978 210.9769C 66.887794 211.18689 66.887794 211.40689 66.887794 211.6169C 66.887794 211.8269 66.887794 212.04689 66.8978 212.2569C 66.997795 216.4469 68.11779 220.3969 70.0088 223.8669C 70.2178 224.2369 70.427795 224.6069 70.65779 224.9769C 70.33879 224.9169 70.01779 224.8469 69.707794 224.7769C 69.3978 224.7069 69.09779 224.6469 68.787796 224.5669C 64.44779 223.6069 60.387794 222.43689 56.68779 221.2169C 52.76779 219.90689 49.247795 218.54689 46.258797 217.2569C 39.107796 214.1969 34.877792 211.62689 34.877792 211.62689C 34.877792 211.62689 39.107796 209.04689 46.258797 205.9869C 49.247795 204.7069 52.76779 203.3269 56.697792 202.0269C 60.397797 200.8069 64.457794 199.6369 68.79879 198.65689C 69.09779 198.5869 69.40779 198.5269 69.707794 198.4569C 70.01779 198.3869 70.32779 198.3269 70.6478 198.26689C 70.427795 198.62689 70.2178 198.9969 70.0088 199.3669C 68.11779 202.8369 66.997795 206.7869 66.8978 210.9769zM138.7378 217.2569C 135.74779 218.54689 132.2278 219.90689 128.3078 221.2169C 124.61779 222.43689 120.55779 223.6069 116.21779 224.5669C 115.90779 224.6469 115.607796 224.7069 115.2988 224.7769C 114.97779 224.8469 114.65779 224.9169 114.33879 224.9769C 114.567795 224.6069 114.787796 224.2369 114.997795 223.8569C 116.87779 220.3969 117.997795 216.4569 118.09779 212.26689C 118.107796 212.04689 118.107796 211.8369 118.107796 211.6169C 118.107796 211.40689 118.107796 211.18689 118.09779 210.9769C 117.997795 206.7869 116.87779 202.8469 114.997795 199.37689C 114.787796 198.9969 114.567795 198.62689 114.33879 198.2569C 114.65779 198.3269 114.97779 198.3869 115.2988 198.4569C 115.607796 198.5269 115.90779 198.5869 116.207794 198.65689C 120.5488 199.6369 124.607796 200.8069 128.2988 202.0269C 132.2278 203.3269 135.74779 204.7069 138.7378 205.9869C 145.88779 209.04689 150.1178 211.62689 150.1178 211.62689C 150.1178 211.62689 145.88779 214.1969 138.7378 217.2569z" stroke="#E7BC9E" stroke-width="1" stroke-linecap="round" fill="none" />
    <path id=""  transform="matrix(1 0 0 -1 0 316)"  d="M79.157196 189.77681C 75.697205 191.88681 72.7782 194.80681 70.6482 198.26682C 70.4282 198.6268 70.2182 198.99681 70.0082 199.3668C 68.1172 202.8368 66.9972 206.7868 66.8982 210.9768C 66.8882 211.1868 66.8882 211.4068 66.8882 211.6168C 66.8882 211.82681 66.8882 212.04681 66.8982 212.2568C 66.657196 212.04681 66.417206 211.8368 66.1882 211.6168C 65.9572 211.4068 65.728195 211.19681 65.4972 210.9868C 62.2182 207.96681 59.2782 204.9368 56.697197 202.02681C 53.947197 198.9368 51.588203 195.9868 49.627197 193.3768C 44.9682 187.1468 42.598198 182.80681 42.598198 182.80681C 42.598198 182.80681 47.548203 182.6868 55.2872 183.6268C 58.518204 184.0068 62.2472 184.57681 66.2982 185.41681C 70.098206 186.19681 74.1882 187.2168 78.4382 188.55681C 78.738205 188.6468 79.0482 188.7368 79.348206 188.8368C 79.6482 188.9368 79.947205 189.02681 80.2472 189.13681C 79.8772 189.3368 79.5182 189.54681 79.157196 189.77681zM129.7182 239.6168C 126.4882 239.2368 122.7682 238.66681 118.7072 237.82681C 114.8982 237.0368 110.8082 236.02681 106.5582 234.68681C 106.2582 234.60681 105.9682 234.5168 105.6672 234.41681C 105.3582 234.3168 105.0582 234.21681 104.7472 234.10681C 105.1272 233.8968 105.4972 233.6768 105.8672 233.4568C 109.3182 231.3368 112.2182 228.4268 114.3382 224.9768C 114.5682 224.60681 114.7872 224.2368 114.9972 223.85681C 116.8772 220.3968 117.9972 216.4568 118.0982 212.2668C 118.1082 212.04681 118.1082 211.8368 118.1082 211.6168C 118.1082 211.4068 118.1082 211.1868 118.0982 210.9768C 118.3382 211.1868 118.5772 211.3968 118.8182 211.6168C 119.0482 211.82681 119.2782 212.0368 119.5082 212.24681C 122.7872 215.27681 125.7282 218.30681 128.3082 221.21681C 131.0582 224.3168 133.4172 227.2668 135.3672 229.8668C 140.0372 236.0968 142.4072 240.43681 142.4072 240.43681C 142.4072 240.43681 137.4472 240.55681 129.7182 239.6168z" stroke="#E7BC9E" stroke-width="1" stroke-linecap="round" fill="none" />
    <path id=""  transform="matrix(1 0 0 -1 0 316)"  d="M92.4971 186.01688C 92.2781 186.01688 92.0681 186.01688 91.8481 186.02689C 87.6581 186.12689 83.718094 187.24689 80.2471 189.13689C 79.8771 189.33688 79.5181 189.54688 79.1581 189.77689C 75.6981 191.88689 72.7781 194.80688 70.6481 198.26689C 70.4281 198.62689 70.218094 198.99689 70.0081 199.36688C 69.8981 199.05688 69.8081 198.75688 69.70709 198.45688C 69.60809 198.15689 69.5181 197.86688 69.4281 197.5669C 68.0981 193.3169 67.078094 189.22688 66.298096 185.41689C 65.45709 181.35689 64.8881 177.63689 64.5081 174.40689C 63.568096 166.67688 63.6881 161.71689 63.6881 161.71689C 63.6881 161.71689 68.0281 164.0969 74.2581 168.7569C 76.8681 170.70688 79.8181 173.0669 82.9171 175.8169C 85.8181 178.39688 88.85809 181.33688 91.868095 184.61688C 92.0881 184.8469 92.287094 185.0669 92.4971 185.29688C 92.718094 185.5369 92.938095 185.77689 93.1581 186.02689C 92.938095 186.01688 92.718094 186.01688 92.4971 186.01688zM121.3081 261.5269C 121.3081 261.5269 116.968094 259.1569 110.7381 254.4869C 108.1271 252.53688 105.188095 250.18689 102.0881 247.43689C 99.188095 244.8469 96.1381 241.91689 93.1271 238.62689C 92.9081 238.40689 92.7071 238.17688 92.4971 237.94688C 92.2781 237.70688 92.0581 237.46689 91.8481 237.21689C 92.0681 237.22688 92.2781 237.22688 92.4971 237.22688C 92.718094 237.22688 92.938095 237.22688 93.1581 237.21689C 97.3481 237.11688 101.287094 235.99689 104.7471 234.10689C 105.1271 233.89688 105.4971 233.67688 105.868095 233.45688C 109.3181 231.33688 112.218094 228.42688 114.3381 224.97688C 114.5681 224.60689 114.787094 224.23688 114.9971 223.85689C 115.0981 224.16689 115.1981 224.46689 115.298096 224.77689C 115.3981 225.07689 115.4881 225.37689 115.578094 225.67688C 116.9081 229.92688 117.9281 234.02689 118.7071 237.82689C 119.537094 241.87689 120.1081 245.60689 120.4971 248.83688C 121.4281 256.57687 121.3081 261.5269 121.3081 261.5269z" stroke="#E7BC9E" stroke-width="1" stroke-linecap="round" fill="none" />
    <path id=""  transform="matrix(1 0 0 -1 0 316)"  d="M92.5005 153.28769C 60.334503 153.28769 34.165504 179.45569 34.165504 211.6207C 34.165504 243.78668 60.334503 269.95468 92.5005 269.95468C 124.665504 269.95468 150.8345 243.78668 150.8345 211.6207C 150.8345 179.45569 124.665504 153.28769 92.5005 153.28769M92.5005 268.5377C 61.1155 268.5377 35.583504 243.00468 35.583504 211.6207C 35.583504 180.23769 61.1155 154.70468 92.5005 154.70468C 123.88451 154.70468 149.4165 180.23769 149.4165 211.6207C 149.4165 243.00468 123.88451 268.5377 92.5005 268.5377" stroke="none" fill="#E7BC9E" fill-rule="nonzero" />
    <path id=""  transform="matrix(1 0 0 -1 0 316)"  d="M119.5085 212.2466C 119.417496 216.7066 118.237495 220.8966 116.2185 224.5666C 116.0185 224.9366 115.7985 225.30661 115.5775 225.6766C 113.3275 229.3466 110.237495 232.4466 106.558495 234.6866C 106.197495 234.9166 105.8385 235.1266 105.4575 235.3266C 101.7875 237.3466 97.5885 238.5366 93.127495 238.6266C 92.917496 238.6466 92.7075 238.6466 92.4975 238.6466C 92.2875 238.6466 92.0775 238.6466 91.8675 238.6266C 87.417496 238.5366 83.22749 237.3566 79.5585 235.33661C 79.1785 235.1366 78.8085 234.9266 78.447495 234.6966C 74.76849 232.4466 71.667496 229.3466 69.4285 225.6766C 69.197495 225.30661 68.9875 224.9366 68.7875 224.5666C 66.76849 220.8966 65.5885 216.7066 65.4975 212.2466C 65.47749 212.0366 65.47749 211.8266 65.47749 211.61661C 65.47749 211.4066 65.47749 211.1966 65.4975 210.9866C 65.5885 206.5266 66.7775 202.33661 68.79849 198.6566C 68.9975 198.2866 69.2075 197.9266 69.4285 197.5666C 71.667496 193.8966 74.76849 190.7966 78.4375 188.55661C 78.79849 188.3266 79.1785 188.1066 79.5585 187.9066C 83.22749 185.8866 87.417496 184.7066 91.8675 184.61661C 92.0775 184.5966 92.2875 184.5966 92.4975 184.5966C 92.7075 184.5966 92.917496 184.5966 93.127495 184.61661C 97.5885 184.7066 101.7875 185.8966 105.4575 187.9166C 105.8385 188.11661 106.197495 188.3266 106.558495 188.55661C 110.237495 190.7966 113.3275 193.8966 115.5775 197.5666C 115.7985 197.9266 116.0085 198.2866 116.2075 198.6566C 118.2275 202.33661 119.417496 206.5166 119.5085 210.97661C 119.5275 211.1866 119.5275 211.4066 119.5275 211.61661C 119.5275 211.8266 119.5275 212.0366 119.5085 212.2466M114.9975 199.3766C 114.7875 198.9966 114.5675 198.6266 114.3385 198.2566C 112.2185 194.8166 109.3175 191.9066 105.8675 189.7866C 105.4975 189.55661 105.127495 189.3466 104.7475 189.1366C 101.2875 187.2466 97.348495 186.1266 93.1575 186.0266C 92.9375 186.0166 92.7185 186.0166 92.4975 186.0166C 92.2775 186.0166 92.0675 186.0166 91.848495 186.0266C 87.6575 186.1266 83.7185 187.2466 80.2475 189.1366C 79.8775 189.33661 79.51849 189.5466 79.1575 189.7766C 75.697495 191.8866 72.7775 194.8066 70.6475 198.2666C 70.4285 198.6266 70.2185 198.9966 70.0085 199.36661C 68.11749 202.83661 66.9975 206.7866 66.8975 210.97661C 66.8885 211.1866 66.8885 211.4066 66.8885 211.61661C 66.8885 211.8266 66.8885 212.0466 66.8975 212.2566C 66.9975 216.4466 68.11749 220.3966 70.0085 223.86661C 70.2185 224.2366 70.4285 224.6066 70.6575 224.97661C 72.7775 228.4266 75.697495 231.3466 79.1475 233.4666C 79.51849 233.6866 79.8885 233.9066 80.2585 234.11661C 83.7185 235.9966 87.6575 237.11661 91.848495 237.2166C 92.0675 237.2266 92.2775 237.2266 92.4975 237.2266C 92.7185 237.2266 92.9375 237.2266 93.1575 237.2166C 97.348495 237.11661 101.2875 235.9966 104.7475 234.1066C 105.127495 233.8966 105.4975 233.6766 105.8675 233.4566C 109.3175 231.33661 112.2185 228.4266 114.3385 224.97661C 114.5675 224.6066 114.7875 224.2366 114.9975 223.8566C 116.877495 220.3966 117.9975 216.4566 118.098495 212.2666C 118.1075 212.0466 118.1075 211.83661 118.1075 211.61661C 118.1075 211.4066 118.1075 211.1866 118.098495 210.97661C 117.9975 206.7866 116.877495 202.8466 114.9975 199.3766" stroke="none" fill="#E7BC9E" fill-rule="nonzero" />
    <path id=""  transform="matrix(1 0 0 -1 0 316)"  d="M129.5669 211.6212C 129.5669 191.1492 112.970894 174.5542 92.50089 174.5542C 72.0289 174.5542 55.43289 191.1492 55.43289 211.6212C 55.43289 232.0922 72.0289 248.6872 92.50089 248.6872C 112.970894 248.6872 129.5669 232.0922 129.5669 211.6212z" stroke="#E7BC9E" stroke-width="1.417" stroke-linecap="round" fill="none" />
    <path id=""  transform="matrix(1 0 0 -1 0 316)"  d="M94.7026 254.2711C 94.7026 253.0471 93.7116 252.0561 92.4876 252.0561C 91.264595 252.0561 90.2726 253.0471 90.2726 254.2711C 90.2726 255.49411 91.264595 256.4861 92.4876 256.4861C 93.7116 256.4861 94.7026 255.49411 94.7026 254.2711" stroke="none" fill="#E7BC9E" fill-rule="nonzero" />
    <path id=""  transform="matrix(1 0 0 -1 0 316)"  d="M63.8999 243.337C 64.7649 242.472 64.7649 241.069 63.8999 240.20401C 63.034897 239.339 61.631897 239.339 60.7669 240.20401C 59.901897 241.069 59.901897 242.472 60.7669 243.337C 61.631897 244.20201 63.034897 244.20201 63.8999 243.337" stroke="none" fill="#E7BC9E" fill-rule="nonzero" />
    <path id=""  transform="matrix(1 0 0 -1 0 316)"  d="M49.8501 213.8238C 51.0741 213.8238 52.0651 212.8318 52.0651 211.60881C 52.0651 210.3858 51.0741 209.39381 49.8501 209.39381C 48.626102 209.39381 47.6351 210.3858 47.6351 211.60881C 47.6351 212.8318 48.626102 213.8238 49.8501 213.8238" stroke="none" fill="#E7BC9E" fill-rule="nonzero" />
    <path id=""  transform="matrix(1 0 0 -1 0 316)"  d="M60.7837 183.0206C 61.6487 183.8856 63.0517 183.8856 63.9167 183.0206C 64.7817 182.1556 64.7817 180.7526 63.9167 179.8886C 63.0517 179.0226 61.6487 179.0226 60.7837 179.8886C 59.9197 180.7526 59.9197 182.1556 60.7837 183.0206" stroke="none" fill="#E7BC9E" fill-rule="nonzero" />
    <path id=""  transform="matrix(1 0 0 -1 0 316)"  d="M90.2973 168.9708C 90.2973 170.1948 91.2883 171.18579 92.5123 171.18579C 93.735306 171.18579 94.7273 170.1948 94.7273 168.9708C 94.7273 167.74779 93.735306 166.7558 92.5123 166.7558C 91.2883 166.7558 90.2973 167.74779 90.2973 168.9708" stroke="none" fill="#E7BC9E" fill-rule="nonzero" />
    <path id=""  transform="matrix(1 0 0 -1 0 316)"  d="M121.1001 179.9049C 120.2351 180.76991 120.2351 182.17291 121.1001 183.0379C 121.965096 183.90291 123.368095 183.90291 124.2331 183.0379C 125.0981 182.17291 125.0981 180.76991 124.2331 179.9049C 123.368095 179.0399 121.965096 179.0399 121.1001 179.9049" stroke="none" fill="#E7BC9E" fill-rule="nonzero" />
    <path id=""  transform="matrix(1 0 0 -1 0 316)"  d="M135.1499 209.4181C 133.9259 209.4181 132.9349 210.41011 132.9349 211.6331C 132.9349 212.85611 133.9259 213.8481 135.1499 213.8481C 136.3739 213.8481 137.3649 212.85611 137.3649 211.6331C 137.3649 210.41011 136.3739 209.4181 135.1499 209.4181" stroke="none" fill="#E7BC9E" fill-rule="nonzero" />
    <path id=""  transform="matrix(1 0 0 -1 0 316)"  d="M124.2163 240.2213C 123.3513 239.3563 121.9483 239.3563 121.0833 240.2213C 120.2183 241.0863 120.2183 242.4893 121.0833 243.3543C 121.9483 244.2193 123.3513 244.2193 124.2163 243.3543C 125.0803 242.4893 125.0803 241.0863 124.2163 240.2213" stroke="none" fill="#E7BC9E" fill-rule="nonzero" />
    <path id=""  transform="matrix(1 0 0 -1 0 316)"  d="M92.4878 254.2711C 92.092804 256.13312 92.0048 257.9961 91.9878 259.8581C 92.0028 261.7211 92.0918 263.5841 92.4878 265.4461C 92.883804 263.5841 92.9728 261.7211 92.9878 259.8581C 92.9708 257.9961 92.8828 256.13312 92.4878 254.2711" stroke="none" fill="#E7BC9E" fill-rule="nonzero" />
    <path id=""  transform="matrix(1 0 0 -1 0 316)"  d="M62.3335 241.7706C 60.7375 242.8086 59.3575 244.0626 58.0285 245.3686C 56.7225 246.6956 55.4675 248.07559 54.4315 249.67259C 56.0285 248.6366 57.4085 247.38159 58.7355 246.07559C 60.0405 244.7466 61.2955 243.3666 62.3335 241.7706" stroke="none" fill="#E7BC9E" fill-rule="nonzero" />
    <path id=""  transform="matrix(1 0 0 -1 0 316)"  d="M49.8501 211.609C 47.988102 211.21399 46.1241 211.12599 44.2621 211.109C 42.4001 211.124 40.5371 211.21199 38.674103 211.609C 40.5371 212.00499 42.4001 212.094 44.2621 212.109C 46.1241 212.092 47.988102 212.004 49.8501 211.609" stroke="none" fill="#E7BC9E" fill-rule="nonzero" />
    <path id=""  transform="matrix(1 0 0 -1 0 316)"  d="M62.3501 181.4542C 61.312103 179.8582 60.0581 178.4782 58.7521 177.1492C 57.425102 175.8432 56.0451 174.5882 54.4481 173.5522C 55.4851 175.1492 56.7391 176.52919 58.0451 177.8572C 59.3741 179.16219 60.7541 180.4162 62.3501 181.4542" stroke="none" fill="#E7BC9E" fill-rule="nonzero" />
    <path id=""  transform="matrix(1 0 0 -1 0 316)"  d="M92.5122 168.9708C 92.907196 167.1088 92.9952 165.24579 93.0122 163.38379C 92.9972 161.5208 92.9082 159.65779 92.5122 157.79579C 92.116196 159.65779 92.0272 161.5208 92.0122 163.38379C 92.0292 165.24579 92.1172 167.1088 92.5122 168.9708" stroke="none" fill="#E7BC9E" fill-rule="nonzero" />
    <path id=""  transform="matrix(1 0 0 -1 0 316)"  d="M122.6665 181.4713C 124.2625 180.4333 125.642494 179.17929 126.9715 177.87329C 128.2775 176.5463 129.5325 175.1663 130.5685 173.5693C 128.9715 174.6053 127.5915 175.86029 126.264496 177.1663C 124.959496 178.4953 123.7045 179.8753 122.6665 181.4713" stroke="none" fill="#E7BC9E" fill-rule="nonzero" />
    <path id=""  transform="matrix(1 0 0 -1 0 316)"  d="M135.1499 211.6329C 137.0119 212.02791 138.8759 212.1159 140.7379 212.1329C 142.5999 212.1179 144.4629 212.0299 146.3259 211.6329C 144.4629 211.23691 142.5999 211.1479 140.7379 211.1329C 138.8759 211.1499 137.0119 211.2379 135.1499 211.6329" stroke="none" fill="#E7BC9E" fill-rule="nonzero" />
    <path id=""  transform="matrix(1 0 0 -1 0 316)"  d="M122.6499 241.7877C 123.687904 243.3837 124.9419 244.7637 126.2479 246.0927C 127.574905 247.39871 128.9549 248.6537 130.5519 249.6897C 129.51491 248.0927 128.2609 246.7127 126.9549 245.38571C 125.6259 244.07971 124.2459 242.8257 122.6499 241.7877" stroke="none" fill="#E7BC9E" fill-rule="nonzero" />
		</g>
	</g>
</g>
</svg>