<?xml version="1.0" standalone="no"?>
<!DOCTYPE svg PUBLIC "-//W3C//DTD SVG 1.0//EN" "http://www.w3.org/TR/2001/REC-SVG-20010904/DTD/svg10.dtd">
<svg xmlns="http://www.w3.org/2000/svg" xmlns:xlink="http://www.w3.org/1999/xlink" id="body_3" width="247" height="421">

<defs>
    <clipPath  id="1">

    <path id=""  clip-rule="evenodd" transform="matrix(1 0 0 1 0 0)"  d="M0 316L0 0L0 0L185 0L185 0L185 316L185 316L0 316z" />    </clipPath>
    <clipPath  id="2">

    <path id=""  clip-rule="evenodd" transform="matrix(1 0 0 1 0 0)"  d="M0 0L185 0L185 0L185 316L185 316L0 316z" />    </clipPath>
</defs>

<g transform="matrix(1.3333 0 0 1.3333 0 0)">
	<g clip-path="url(#1)" >
		<g clip-path="url(#2)" >
    <path id=""  transform="matrix(1 0 0 -1 0 316)"  d="M92.4922 261.7384L92.4922 261.7384C 91.600204 261.7384 90.8712 262.4364 90.822205 263.3154C 90.821205 263.3464 90.820206 263.37842 90.820206 263.4104L90.820206 263.4104L90.820206 266.9704C 90.820206 267.8944 91.5682 268.6424 92.4922 268.6424C 93.4152 268.6424 94.1642 267.8944 94.1642 266.9704L94.1642 266.9704L94.1642 263.4104C 94.1642 263.37842 94.1632 263.3464 94.1612 263.3154C 94.112206 262.4364 93.3842 261.7384 92.4922 261.7384z" stroke="#E7BC9E" stroke-width="1.3" fill="none" />
    <path id=""  transform="matrix(1 0 0 -1 0 316)"  d="M92.4922 154.2276L92.4922 154.2276C 91.600204 154.2276 90.8712 154.9256 90.822205 155.8046C 90.821205 155.8356 90.820206 155.8676 90.820206 155.8996L90.820206 155.8996L90.820206 159.4596C 90.820206 160.3836 91.5682 161.1316 92.4922 161.1316C 93.4152 161.1316 94.1642 160.3836 94.1642 159.4596L94.1642 159.4596L94.1642 155.8996C 94.1642 155.8676 94.1632 155.8356 94.1612 155.8046C 94.112206 154.9256 93.3842 154.2276 92.4922 154.2276z" stroke="#E7BC9E" stroke-width="1.3" fill="none" />
    <path id=""  transform="matrix(1 0 0 -1 0 316)"  d="M54.363304 251.92549C 63.9513 260.9615 76.738304 266.6365 90.8223 267.0545M36.873302 213.1055C 37.291306 227.18849 42.966305 239.9735 52.000305 249.56248M51.999302 173.30849C 42.965305 182.89749 37.290302 195.68349 36.873302 209.76749M90.8223 155.8165C 76.7393 156.23349 63.954304 161.9085 54.365303 170.94249M130.6203 170.94249C 121.0313 161.9085 108.24431 156.23248 94.1613 155.8165M148.1123 209.76149C 147.6943 195.68048 142.0193 182.89648 132.9873 173.30849M132.9823 249.5665C 142.0163 239.97849 147.6933 227.19348 148.1123 213.11049M94.1613 267.0545C 108.24431 266.63748 121.030304 260.9625 130.61931 251.9285M127.9803 249.2835C 119.070305 257.6435 107.2163 262.9015 94.1613 263.3155M144.3743 213.1055C 143.9593 226.16049 138.7003 238.01349 130.3403 246.9235M130.3423 175.9475C 138.7023 184.85849 143.9603 196.71149 144.3743 209.76749M94.1603 159.5535C 107.2163 159.9675 119.071304 165.2265 127.9823 173.5875M57.004303 173.5875C 65.91431 165.2275 77.7683 159.96849 90.8233 159.5535M40.612305 209.76749C 41.026302 196.71149 46.284306 184.85849 54.644302 175.9475M54.646305 246.9235C 46.285305 238.01349 41.027306 226.16049 40.612305 213.1055M90.8223 263.3155C 77.7683 262.9015 65.915306 257.6425 57.005302 249.2835" stroke="#E7BC9E" stroke-width="1.3" fill="none" />
    <path id=""  transform="matrix(1 0 0 -1 0 316)"  d="M142.7959 211.4366L142.7959 211.4366C 142.7959 212.3286 143.4939 213.0566 144.3739 213.1056C 144.40489 213.1076 144.4369 213.1086 144.4679 213.1086L144.4679 213.1086L148.0289 213.1086C 148.9519 213.1086 149.7009 212.3596 149.7009 211.4366C 149.7009 210.5126 148.9519 209.7646 148.0289 209.7646L148.0289 209.7646L144.4679 209.7646C 144.4369 209.7646 144.40489 209.7656 144.3739 209.7666C 143.4939 209.8156 142.7959 210.5436 142.7959 211.4366z" stroke="#E7BC9E" stroke-width="1.3" fill="none" />
    <path id=""  transform="matrix(1 0 0 -1 0 316)"  d="M35.2852 211.4366L35.2852 211.4366C 35.2852 212.3286 35.9832 213.0566 36.863197 213.1056C 36.8942 213.1076 36.926197 213.1086 36.9572 213.1086L36.9572 213.1086L40.518196 213.1086C 41.4412 213.1086 42.190197 212.3596 42.190197 211.4366C 42.190197 210.5126 41.4412 209.7646 40.518196 209.7646L40.518196 209.7646L36.9572 209.7646C 36.926197 209.7646 36.8942 209.7656 36.863197 209.7666C 35.9832 209.8156 35.2852 210.5436 35.2852 211.4366z" stroke="#E7BC9E" stroke-width="1.3" fill="none" />
    <path id=""  transform="matrix(1 0 0 -1 0 316)"  d="M128.0625 175.8663L128.0625 175.8663C 128.6935 176.4973 129.7025 176.5183 130.3585 175.9313C 130.3815 175.91031 130.4045 175.8883 130.4265 175.8663L130.4265 175.8663L132.9455 173.3483C 133.5975 172.6953 133.5975 171.6373 132.9455 170.9843C 132.2915 170.3313 131.2335 170.3313 130.5815 170.9843L130.5815 170.9843L128.0625 173.5023C 128.0405 173.5243 128.0185 173.5473 127.9985 173.5703C 127.4105 174.2263 127.4315 175.2363 128.0625 175.8663z" stroke="#E7BC9E" stroke-width="1.3" fill="none" />
    <path id=""  transform="matrix(1 0 0 -1 0 316)"  d="M52.041 251.8888L52.041 251.8888C 52.672 252.5188 53.681 252.5398 54.337 251.95279C 54.36 251.9318 54.383 251.90979 54.405 251.8888L54.405 251.8888L56.923 249.3698C 57.576 248.71779 57.576 247.65979 56.923 247.0058C 56.27 246.3528 55.212 246.3528 54.559002 247.0058L54.559002 247.0058L52.041 249.52379C 52.019 249.54579 51.997 249.5698 51.977 249.5918C 51.389 250.2488 51.411 251.2578 52.041 251.8888z" stroke="#E7BC9E" stroke-width="1.3" fill="none" />
    <path id=""  transform="matrix(1 0 0 -1 0 316)"  d="M56.9233 175.8663L56.9233 175.8663C 57.554302 175.2363 57.575302 174.2263 56.9883 173.5703C 56.9673 173.5473 56.9453 173.5243 56.9233 173.5023L56.9233 173.5023L54.4053 170.9843C 53.7523 170.3313 52.6943 170.3313 52.0413 170.9843C 51.3883 171.6373 51.3883 172.6953 52.0413 173.3483L52.0413 173.3483L54.559303 175.8663C 54.581303 175.8883 54.6043 175.91031 54.6273 175.9313C 55.283302 176.5183 56.2933 176.4973 56.9233 175.8663z" stroke="#E7BC9E" stroke-width="1.3" fill="none" />
    <path id=""  transform="matrix(1 0 0 -1 0 316)"  d="M132.9453 251.8888L132.9453 251.8888C 133.5753 251.2578 133.5963 250.2488 133.0093 249.5918C 132.9893 249.5698 132.9673 249.54579 132.9453 249.52379L132.9453 249.52379L130.4263 247.0058C 129.77429 246.3528 128.7163 246.3528 128.0623 247.0058C 127.41029 247.65979 127.41029 248.71779 128.0623 249.3698L128.0623 249.3698L130.5813 251.8888C 130.6023 251.90979 130.6263 251.9318 130.6483 251.95279C 131.3053 252.5398 132.3143 252.5188 132.9453 251.8888z" stroke="#E7BC9E" stroke-width="1.3" fill="none" />
    <path id=""  transform="matrix(1 0 0 -1 0 316)"  d="M92.4932 187.2042C 79.1322 187.2042 68.2622 198.07419 68.2622 211.4352C 68.2622 224.79619 79.1322 235.6662 92.4932 235.6662C 105.8542 235.6662 116.724205 224.79619 116.724205 211.4352C 116.724205 198.07419 105.8542 187.2042 92.4932 187.2042z" stroke="#E7BC9E" stroke-width="1.3" stroke-linecap="round" fill="none" />
    <path id=""  transform="matrix(1 0 0 -1 0 316)"  d="M92.4932 187.2042L128.0622 175.8662L128.0622 175.8662L116.724205 211.43419L116.724205 211.43419L142.7962 211.43619L142.7962 211.43619L113.4772 199.3192L113.4772 199.3192L128.0622 175.8662L128.0622 175.8662L104.6082 190.4502L104.6082 190.4502L92.4922 161.13219L92.4922 161.13219L142.7962 211.43619L142.7962 211.43619L92.4922 261.7382L92.4922 261.7382L80.377205 232.4202L80.377205 232.4202L56.923203 247.0062L56.923203 247.0062L71.5082 223.5512L71.5082 223.5512L42.1902 211.43619L42.1902 211.43619L68.2622 211.43419L68.2622 211.43419L56.923203 247.0062L56.923203 247.0062L92.4932 235.6662L92.4932 235.6662L92.4922 261.7382L92.4922 261.7382L104.6082 232.4202L104.6082 232.4202L128.0622 247.0062L128.0622 247.0062L113.4772 223.5512L113.4772 223.5512L142.7962 211.43619L142.7962 211.43619L128.0622 247.0062" stroke="#E7BC9E" stroke-width="0.6" stroke-linecap="round" fill="none" />
    <path id=""  transform="matrix(1 0 0 -1 0 316)"  d="M92.4932 235.6661L128.0622 247.0061L128.0622 247.0061L116.724205 211.4351" stroke="#E7BC9E" stroke-width="0.6" stroke-linecap="round" fill="none" />
    <path id=""  transform="matrix(1 0 0 -1 0 316)"  d="M68.2617 211.4347L56.923702 175.8667L56.923702 175.8667L92.49271 187.2047L92.49271 187.2047L92.4917 161.13168L92.4917 161.13168L80.3777 190.4507L80.3777 190.4507L56.923702 175.8667L56.923702 175.8667L71.508705 199.31969L71.508705 199.31969L42.189705 211.43669L42.189705 211.43669L92.4917 261.7387L92.4917 261.7387L56.923702 247.00569" stroke="#E7BC9E" stroke-width="0.6" stroke-linecap="round" fill="none" />
    <path id=""  transform="matrix(1 0 0 -1 0 316)"  d="M42.1899 211.4366L56.922897 175.86661L56.922897 175.86661L92.4919 161.13159L92.4919 161.13159L42.1899 211.4366L42.1899 211.4366L56.922897 247.0056L56.922897 247.0056L128.0629 247.0056L128.0629 247.0056L92.4919 261.7386" stroke="#E7BC9E" stroke-width="0.6" stroke-linecap="round" fill="none" />
    <path id=""  transform="matrix(1 0 0 -1 0 316)"  d="M92.4922 161.1319L128.0622 175.86589L128.0622 175.86589L142.7962 211.43689" stroke="#E7BC9E" stroke-width="0.6" stroke-linecap="round" fill="none" />
    <path id=""  transform="matrix(1 0 0 -1 0 316)"  d="M56.9233 247.006L56.9233 175.866L56.9233 175.866L128.0623 175.866L128.0623 175.866L128.0623 247.006" stroke="#E7BC9E" stroke-width="0.6" stroke-linecap="round" fill="none" />
		</g>
	</g>
</g>
</svg>