<?xml version="1.0" standalone="no"?>
<!DOCTYPE svg PUBLIC "-//W3C//DTD SVG 1.0//EN" "http://www.w3.org/TR/2001/REC-SVG-20010904/DTD/svg10.dtd">
<svg xmlns="http://www.w3.org/2000/svg" xmlns:xlink="http://www.w3.org/1999/xlink" id="body_4" width="247" height="421">

<defs>
    <clipPath  id="1">

    <path id=""  clip-rule="evenodd" transform="matrix(1 0 0 1 0 0)"  d="M0 316L0 0L0 0L185 0L185 0L185 316L185 316L0 316z" />    </clipPath>
    <clipPath  id="2">

    <path id=""  clip-rule="evenodd" transform="matrix(1 0 0 1 0 0)"  d="M0 0L185 0L185 0L185 316L185 316L0 316z" />    </clipPath>
</defs>

<g transform="matrix(1.3333 0 0 1.3333 0 0)">
	<g clip-path="url(#1)" >
		<g clip-path="url(#2)" >
    <path id=""  transform="matrix(1 0 0 -1 0 316)"  d="M101.4746 162.1982C 101.4746 161.2312 100.691605 160.4482 99.7246 160.4482C 98.7576 160.4482 97.9746 161.2312 97.9746 162.1982C 97.9746 163.16519 98.7576 163.9482 99.7246 163.9482C 100.691605 163.9482 101.4746 163.16519 101.4746 162.1982z" stroke="#E7BC9E" stroke-width="1" fill="none" />
    <path id=""  transform="matrix(1 0 0 -1 0 316)"  d="M103.4639 260.5634C 103.4639 259.59637 102.6809 258.8134 101.7139 258.8134C 100.747894 258.8134 99.9639 259.59637 99.9639 260.5634C 99.9639 261.5294 100.747894 262.3134 101.7139 262.3134C 102.6809 262.3134 103.4639 261.5294 103.4639 260.5634z" stroke="#E7BC9E" stroke-width="1" fill="none" />
    <path id=""  transform="matrix(1 0 0 -1 0 316)"  d="M77.3745 168.832C 77.3745 167.865 76.5905 167.082 75.6245 167.082C 74.65849 167.082 73.8745 167.865 73.8745 168.832C 73.8745 169.798 74.65849 170.582 75.6245 170.582C 76.5905 170.582 77.3745 169.798 77.3745 168.832z" stroke="#E7BC9E" stroke-width="1" fill="none" />
    <path id=""  transform="matrix(1 0 0 -1 0 316)"  d="M57.8457 233.7968C 57.8457 232.8298 57.0617 232.0468 56.0957 232.0468C 55.1287 232.0468 54.3457 232.8298 54.3457 233.7968C 54.3457 234.7628 55.1287 235.5468 56.0957 235.5468C 57.0617 235.5468 57.8457 234.7628 57.8457 233.7968z" stroke="#E7BC9E" stroke-width="1" fill="none" />
    <path id=""  transform="matrix(1 0 0 -1 0 316)"  d="M79.1245 254.1797C 79.1245 253.2127 78.3405 252.4297 77.3745 252.4297C 76.40849 252.4297 75.6245 253.2127 75.6245 254.1797C 75.6245 255.1467 76.40849 255.9297 77.3745 255.9297C 78.3405 255.9297 79.1245 255.1467 79.1245 254.1797z" stroke="#E7BC9E" stroke-width="1" fill="none" />
    <path id=""  transform="matrix(1 0 0 -1 0 316)"  d="M57.8457 190C 57.8457 189.033 57.0617 188.25 56.0957 188.25C 55.1287 188.25 54.3457 189.033 54.3457 190C 54.3457 190.967 55.1287 191.75 56.0957 191.75C 57.0617 191.75 57.8457 190.967 57.8457 190z" stroke="#E7BC9E" stroke-width="1" fill="none" />
    <path id=""  transform="matrix(1 0 0 -1 0 316)"  d="M92.457 266.25452C 107.729996 266.25452 122.184 259.8185 132.403 248.9185C 125.526 253.1985 117.486 255.5855 109.142 255.5855C 101.47 255.5855 93.884 253.54651 87.203 249.69049C 76.418 243.4635 69.27 233.3245 66.512 222.0895C 65.711 218.8305 65.395 215.4705 65.384 212.1145L65.384 212.1145L65.383 211.9495C 65.36 204.7145 66.925 197.5145 70.304 191.1185C 70.564 190.6255 70.834 190.1355 71.115 189.6485C 78.944 176.0885 93.544 167.6655 109.219 167.6655C 116.891 167.6655 124.477 169.7045 131.156 173.5605C 131.577 173.8035 131.992 174.05249 132.40201 174.3065C 128.742 170.3995 124.504 167.0275 119.82 164.3235C 111.518005 159.5295 102.093 156.99649 92.563995 156.99649C 73.083 156.99649 54.936996 167.4635 45.208 184.3155C 43.078003 188.0055 41.404 191.8755 40.196 195.8535C 38.632004 201.0055 37.975 206.3895 37.990997 211.7735L37.990997 211.7735L37.991997 212.0775C 38.002 215.5045 38.266 218.9345 38.940002 222.2945C 39.172997 223.4545 39.443 224.6105 39.752 225.7615C 43.528 239.85449 52.566 251.6325 65.201 258.9275C 73.504 263.7215 82.929 266.2555 92.457 266.25452M92.457 269.25452C 82.503 269.2555 72.415 266.6735 63.206 261.2375C 36.603996 245.5315 27.119003 211.0665 41.96 183.9715C 52.482002 164.7625 72.24 153.99649 92.563995 153.99649C 102.341 153.99649 112.246 156.4855 121.32 161.7255C 139.486 172.2125 149.779 192.1505 150.131 211.6985C 149.787 197.9055 142.48 183.5625 129.656 176.1595C 123.208 172.4355 116.165 170.6655 109.219 170.6655C 94.311005 170.6655 79.834 178.8125 72.555 193.2955C 63.442 211.4275 69.198 233.8685 85.933 245.3455C 93.104004 250.2635 101.186005 252.5855 109.142 252.5855C 123.296 252.5855 137.061 245.2415 144.646 232.1025C 148.163 226.0115 149.943 218.2675 150.131 211.6985C 149.943 221.1005 147.445 231.7155 142.411 240.4355C 131.739 258.9195 112.369995 269.2535 92.457 269.25452zM150.125 210.6465L150.131 210.6465L150.131 210.6465L150.125 210.6465z" stroke="#E7BC9E" stroke-width="1" fill="none" />
    <path id=""  transform="matrix(1 0 0 -1 0 316)"  d="M57.6377 234.6172C 62.1647 236.8052 67.6337 238.2292 74.1997 238.2292" stroke="#E7BC9E" stroke-width="1" fill="none" />
    <path id=""  transform="matrix(1 0 0 -1 0 316)"  d="M37.9907 211.7734C 37.9907 211.7734 42.0107 225.21841 54.5727 232.9394" stroke="#E7BC9E" stroke-width="1" fill="none" />
    <path id=""  transform="matrix(1 0 0 -1 0 316)"  d="M57.521 188.9873C 62.07 186.7673 67.576996 185.3183 74.2 185.3183" stroke="#E7BC9E" stroke-width="1" fill="none" />
    <path id=""  transform="matrix(1 0 0 -1 0 316)"  d="M37.9907 211.7734C 37.9907 211.7734 41.9907 198.39641 54.4777 190.6674" stroke="#E7BC9E" stroke-width="1" fill="none" />
    <path id=""  transform="matrix(1 0 0 -1 0 316)"  d="M79.1094 253.959C 82.213394 253.316 85.252396 252.12 87.9774 250.125" stroke="#E7BC9E" stroke-width="1" fill="none" />
    <path id=""  transform="matrix(1 0 0 -1 0 316)"  d="M55.75 235.5117C 54.613 239.8757 53.985 244.9807 54.395 250.77771C 54.395 250.77771 64.872 255.37671 75.648 254.4567" stroke="#E7BC9E" stroke-width="1" fill="none" />
    <path id=""  transform="matrix(1 0 0 -1 0 316)"  d="M65.668 217.2734C 65.668 217.2734 60.112 222.4694 56.758 232.1764" stroke="#E7BC9E" stroke-width="1" fill="none" />
    <path id=""  transform="matrix(1 0 0 -1 0 316)"  d="M103.1865 259.6181C 105.1065 258.4981 107.1015 257.1671 109.1415 255.5861" stroke="#E7BC9E" stroke-width="1" fill="none" />
    <path id=""  transform="matrix(1 0 0 -1 0 316)"  d="M77.8901 255.8506C 79.0361 259.1686 80.8371 262.5696 83.6401 265.5306C 83.6401 265.5306 90.6131 265.9606 100.1141 261.2716" stroke="#E7BC9E" stroke-width="1" fill="none" />
    <path id=""  transform="matrix(1 0 0 -1 0 316)"  d="M76.1318 240.6035C 76.1318 240.6035 75.4338 246.0105 76.927795 252.4895" stroke="#E7BC9E" stroke-width="1" fill="none" />
    <path id=""  transform="matrix(1 0 0 -1 0 316)"  d="M103.2236 261.4453C 104.9866 262.45132 106.969604 263.25632 109.1416 263.6343C 109.1416 263.6343 115.3606 260.0143 121.411606 253.83131" stroke="#E7BC9E" stroke-width="1" fill="none" />
    <path id=""  transform="matrix(1 0 0 -1 0 316)"  d="M94.2217 252.9531C 94.2217 252.9531 96.4467 256.4361 100.300705 259.4671" stroke="#E7BC9E" stroke-width="1" fill="none" />
    <path id=""  transform="matrix(1 0 0 -1 0 316)"  d="M77.3589 169.0595C 81.0949 169.5145 84.7759 170.70349 87.9769 173.0475" stroke="#E7BC9E" stroke-width="1" fill="none" />
    <path id=""  transform="matrix(1 0 0 -1 0 316)"  d="M55.3921 188.3984C 53.995102 183.9194 53.1721 178.80641 53.626102 173.28941C 53.626102 173.28941 63.453102 168.7164 73.8741 168.83441" stroke="#E7BC9E" stroke-width="1" fill="none" />
    <path id=""  transform="matrix(1 0 0 -1 0 316)"  d="M65.6699 206.5195C 65.6699 206.5195 60.1879 200.7945 56.5829 191.7495" stroke="#E7BC9E" stroke-width="1" fill="none" />
    <path id=""  transform="matrix(1 0 0 -1 0 316)"  d="M101.2773 162.7988C 103.8983 164.0218 106.560295 165.5858 109.1413 167.58679" stroke="#E7BC9E" stroke-width="1" fill="none" />
    <path id=""  transform="matrix(1 0 0 -1 0 316)"  d="M75.7998 167.0908C 76.48679 164.4698 77.595795 161.62181 79.3148 158.63481C 79.3148 158.63481 88.0228 157.70381 98.110794 161.47281" stroke="#E7BC9E" stroke-width="1" fill="none" />
    <path id=""  transform="matrix(1 0 0 -1 0 316)"  d="M76.1318 182.5693C 76.1318 182.5693 74.0758 177.7483 75.110794 170.50131" stroke="#E7BC9E" stroke-width="1" fill="none" />
    <path id=""  transform="matrix(1 0 0 -1 0 316)"  d="M100.8838 160.8877C 101.803795 159.9717 102.8228 159.0647 103.9468 158.2087C 103.9468 158.2087 115.360794 163.1577 121.4118 169.34169" stroke="#E7BC9E" stroke-width="1" fill="none" />
    <path id=""  transform="matrix(1 0 0 -1 0 316)"  d="M94.2217 170.2187C 94.2217 170.2187 95.5947 167.0867 98.535706 163.4837" stroke="#E7BC9E" stroke-width="1" fill="none" />
		</g>
	</g>
</g>
</svg>