<?xml version="1.0" standalone="no"?>
<!DOCTYPE svg PUBLIC "-//W3C//DTD SVG 1.0//EN" "http://www.w3.org/TR/2001/REC-SVG-20010904/DTD/svg10.dtd">
<svg xmlns="http://www.w3.org/2000/svg" xmlns:xlink="http://www.w3.org/1999/xlink" id="body_6" width="247" height="421">

<defs>
    <clipPath  id="1">

    <path id=""  clip-rule="evenodd" transform="matrix(1 0 0 1 0 0)"  d="M0 316L0 0L0 0L185 0L185 0L185 316L185 316L0 316z" />    </clipPath>
    <clipPath  id="2">

    <path id=""  clip-rule="evenodd" transform="matrix(1 0 0 1 0 0)"  d="M0 316L185 316L185 316L185 0L185 0L0 0z" />    </clipPath>
    <clipPath  id="3">

    <path id=""  clip-rule="evenodd" transform="matrix(1 0 0 1 0 0)"  d="M75.5491 90.399994L109.451 90.399994L109.451 90.399994L109.451 122.007996L109.451 122.007996L75.5491 122.007996z" />    </clipPath>
    <clipPath  id="4">

    <path id=""  clip-rule="evenodd" transform="matrix(1 0 0 1 0 0)"  d="M75.549 122.007996L109.451004 122.007996L109.451004 122.007996L109.451004 90.399994L109.451004 90.399994L75.549 90.399994z" />    </clipPath>
</defs>

<g transform="matrix(1.3333 0 0 1.3333 0 0)">
	<g clip-path="url(#1)" >
		<g clip-path="url(#2)" >
    <path id=""  transform="matrix(1 0 0 -1 0 316)"  d="M93.8965 234.041C 93.8965 233.27 93.2715 232.645 92.500496 232.645C 91.7285 232.645 91.1035 233.27 91.1035 234.041C 91.1035 234.812 91.7285 235.437 92.500496 235.437C 93.2715 235.437 93.8965 234.812 93.8965 234.041z" stroke="#E7BC9E" stroke-width="0.5" fill="none" />
    <path id=""  transform="matrix(1 0 0 -1 0 316)"  d="M90.7627 234.0166C 90.869705 233.2526 90.3377 232.5466 89.5747 232.4396C 88.8107 232.3316 88.104706 232.86461 87.996704 233.6276C 87.8897 234.39261 88.4217 235.0986 89.1857 235.2056C 89.9497 235.3136 90.6557 234.7816 90.7627 234.0166z" stroke="#E7BC9E" stroke-width="0.5" fill="none" />
    <path id=""  transform="matrix(1 0 0 -1 0 316)"  d="M87.6631 233.5576C 87.8751 232.8156 87.4461 232.0426 86.7051 231.8296C 85.9641 231.6176 85.1901 232.04561 84.977104 232.7866C 84.7651 233.5296 85.1931 234.3026 85.935104 234.5146C 86.6771 234.7276 87.4501 234.2986 87.6631 233.5576z" stroke="#E7BC9E" stroke-width="0.5" fill="none" />
    <path id=""  transform="matrix(1 0 0 -1 0 316)"  d="M84.6572 232.6709C 84.97021 231.9659 84.653206 231.1409 83.9492 230.8269C 83.2442 230.5129 82.419205 230.8299 82.1052 231.5339C 81.79121 232.23889 82.1082 233.0649 82.8122 233.37889C 83.517204 233.6919 84.3432 233.3749 84.6572 232.6709z" stroke="#E7BC9E" stroke-width="0.5" fill="none" />
    <path id=""  transform="matrix(1 0 0 -1 0 316)"  d="M81.8037 231.374C 82.2117 230.71999 82.0137 229.85799 81.3597 229.45C 80.704704 229.041 79.843704 229.23999 79.4347 229.89499C 79.0267 230.54799 79.2247 231.40999 79.8787 231.818C 80.5327 232.228 81.39471 232.028 81.8037 231.374z" stroke="#E7BC9E" stroke-width="0.5" fill="none" />
    <path id=""  transform="matrix(1 0 0 -1 0 316)"  d="M79.1582 229.6934C 79.654205 229.1024 79.5772 228.2214 78.986206 227.7254C 78.3952 227.23041 77.514206 227.30641 77.0182 227.8974C 76.5232 228.48941 76.600204 229.3704 77.1912 229.8654C 77.7822 230.3614 78.6632 230.28441 79.1582 229.6934z" stroke="#E7BC9E" stroke-width="0.5" fill="none" />
    <path id=""  transform="matrix(1 0 0 -1 0 316)"  d="M76.7734 227.6611C 77.3464 227.1441 77.3924 226.2621 76.877396 225.6881C 76.3604 225.1151 75.4774 225.0691 74.904396 225.5851C 74.3314 226.1011 74.2854 226.9841 74.8004 227.5571C 75.3174 228.1311 76.2004 228.17711 76.7734 227.6611z" stroke="#E7BC9E" stroke-width="0.5" fill="none" />
    <path id=""  transform="matrix(1 0 0 -1 0 316)"  d="M74.6943 225.3154C 75.3343 224.8844 75.5023 224.0164 75.0713 223.3774C 74.6393 222.7374 73.7713 222.5694 73.1323 223.0004C 72.492294 223.4314 72.324295 224.2994 72.755295 224.93939C 73.186295 225.5784 74.0543 225.7474 74.6943 225.3154z" stroke="#E7BC9E" stroke-width="0.5" fill="none" />
    <path id=""  transform="matrix(1 0 0 -1 0 316)"  d="M72.9609 222.7041C 73.6539 222.3661 73.9419 221.5301 73.6049 220.8371C 73.2669 220.1431 72.4309 219.8551 71.7369 220.1941C 71.0439 220.5321 70.7559 221.3681 71.0939 222.0611C 71.4319 222.7551 72.2689 223.0431 72.9609 222.7041z" stroke="#E7BC9E" stroke-width="0.5" fill="none" />
    <path id=""  transform="matrix(1 0 0 -1 0 316)"  d="M71.6094 219.877C 72.3424 219.63899 72.7444 218.852 72.5054 218.117C 72.267395 217.384 71.4794 216.982 70.7464 217.221C 70.0124 217.459 69.6104 218.247 69.849396 218.981C 70.088394 219.714 70.8754 220.116 71.6094 219.877z" stroke="#E7BC9E" stroke-width="0.5" fill="none" />
    <path id=""  transform="matrix(1 0 0 -1 0 316)"  d="M70.6631 216.8896C 71.4231 216.7556 71.9301 216.0316 71.796104 215.2716C 71.6621 214.5116 70.9371 214.00461 70.1781 214.1386C 69.4191 214.2726 68.9111 214.9966 69.045105 215.7566C 69.1801 216.5166 69.9031 217.0236 70.6631 216.8896z" stroke="#E7BC9E" stroke-width="0.5" fill="none" />
    <path id=""  transform="matrix(1 0 0 -1 0 316)"  d="M70.1426 213.7988C 70.913605 213.7728 71.5166 213.1258 71.4896 212.3548C 71.4626 211.5838 70.8156 210.9808 70.0446 211.0078C 69.274605 211.03479 68.6706 211.6818 68.6986 212.4518C 68.7246 213.2228 69.3716 213.82579 70.1426 213.7988z" stroke="#E7BC9E" stroke-width="0.5" fill="none" />
    <path id=""  transform="matrix(1 0 0 -1 0 316)"  d="M70.0566 210.666C 70.8246 210.747 71.511604 210.19 71.591606 209.424C 71.6726 208.656 71.1166 207.969 70.3486 207.889C 69.581604 207.808 68.8946 208.364 68.814606 209.132C 68.733604 209.898 69.289604 210.586 70.0566 210.666z" stroke="#E7BC9E" stroke-width="0.5" fill="none" />
    <path id=""  transform="matrix(1 0 0 -1 0 316)"  d="M70.4082 207.5527C 71.156204 207.7397 71.91521 207.2827 72.101204 206.5347C 72.2882 205.7867 71.83221 205.0287 71.084206 204.8417C 70.336205 204.6557 69.5772 205.11171 69.390205 205.85971C 69.2042 206.6077 69.6602 207.3657 70.4082 207.5527z" stroke="#E7BC9E" stroke-width="0.5" fill="none" />
    <path id=""  transform="matrix(1 0 0 -1 0 316)"  d="M71.1895 204.5176C 71.904495 204.8066 72.7185 204.46059 73.0075 203.7466C 73.2965 203.0306 72.9515 202.2166 72.2355 201.9276C 71.5205 201.6386 70.7075 201.98459 70.418495 202.6996C 70.1285 203.41359 70.4745 204.22859 71.1895 204.5176z" stroke="#E7BC9E" stroke-width="0.5" fill="none" />
    <path id=""  transform="matrix(1 0 0 -1 0 316)"  d="M72.3857 201.6211C 73.053696 202.00609 73.9067 201.7771 74.292694 201.1091C 74.678696 200.4411 74.4497 199.5871 73.7817 199.2011C 73.11469 198.8161 72.2597 199.04509 71.873695 199.71309C 71.48869 200.38109 71.7177 201.23509 72.3857 201.6211z" stroke="#E7BC9E" stroke-width="0.5" fill="none" />
    <path id=""  transform="matrix(1 0 0 -1 0 316)"  d="M73.9727 198.9189C 74.5807 199.3939 75.4587 199.2859 75.9337 198.6779C 76.4087 198.0699 76.300705 197.1919 75.6927 196.7179C 75.0847 196.2419 74.2067 196.3509 73.732704 196.9579C 73.257706 197.5659 73.3657 198.4429 73.9727 198.9189z" stroke="#E7BC9E" stroke-width="0.5" fill="none" />
    <path id=""  transform="matrix(1 0 0 -1 0 316)"  d="M75.9209 196.4639C 76.4569 197.01889 77.3409 197.0339 77.8969 196.4979C 78.4509 195.96289 78.4659 195.0779 77.9309 194.5239C 77.3949 193.9689 76.510895 193.9529 75.9559 194.48889C 75.399895 195.0249 75.385895 195.9089 75.9209 196.4639z" stroke="#E7BC9E" stroke-width="0.5" fill="none" />
    <path id=""  transform="matrix(1 0 0 -1 0 316)"  d="M78.1924 194.3037C 78.6454 194.92769 79.518394 195.0667 80.142395 194.6137C 80.766396 194.15869 80.905396 193.28569 80.4524 192.6617C 79.9984 192.03769 79.1254 191.89969 78.501396 192.3537C 77.877396 192.8067 77.738396 193.6797 78.1924 194.3037z" stroke="#E7BC9E" stroke-width="0.5" fill="none" />
    <path id=""  transform="matrix(1 0 0 -1 0 316)"  d="M80.7412 192.4814C 81.1032 193.1624 81.9492 193.4204 82.6302 193.0584C 83.3112 192.6964 83.56921 191.8504 83.208206 191.1694C 82.8452 190.4894 82.000206 190.2304 81.31821 190.59239C 80.63721 190.9544 80.3792 191.7994 80.7412 192.4814z" stroke="#E7BC9E" stroke-width="0.5" fill="none" />
    <path id=""  transform="matrix(1 0 0 -1 0 316)"  d="M83.5195 191.0312C 83.7835 191.75621 84.5845 192.1302 85.3095 191.8652C 86.0345 191.60121 86.4085 190.80121 86.1445 190.07521C 85.8805 189.3502 85.0795 188.9772 84.3545 189.24121C 83.6295 189.5052 83.2555 190.3062 83.5195 191.0312z" stroke="#E7BC9E" stroke-width="0.5" fill="none" />
    <path id=""  transform="matrix(1 0 0 -1 0 316)"  d="M86.4727 189.9814C 86.632706 190.7364 87.3747 191.21739 88.1287 191.0574C 88.883705 190.8964 89.3657 190.1554 89.204704 189.4004C 89.0437 188.6464 88.302704 188.1654 87.5477 188.3254C 86.7937 188.4854 86.3127 189.2274 86.4727 189.9814z" stroke="#E7BC9E" stroke-width="0.5" fill="none" />
    <path id=""  transform="matrix(1 0 0 -1 0 316)"  d="M89.543 189.3535C 89.597 190.1235 90.264 190.7035 91.033 190.6495C 91.803 190.5955 92.382996 189.9275 92.329 189.1585C 92.275 188.3885 91.608 187.8085 90.839 187.8625C 90.069 187.9165 89.489 188.5835 89.543 189.3535z" stroke="#E7BC9E" stroke-width="0.5" fill="none" />
    <path id=""  transform="matrix(1 0 0 -1 0 316)"  d="M92.6709 189.1582C 92.6169 189.9282 93.1969 190.5952 93.966896 190.6492C 94.7359 190.7032 95.4029 190.1232 95.4569 189.35321C 95.510895 188.5842 94.9309 187.9162 94.1609 187.8622C 93.3919 187.8082 92.7249 188.3882 92.6709 189.1582z" stroke="#E7BC9E" stroke-width="0.5" fill="none" />
    <path id=""  transform="matrix(1 0 0 -1 0 316)"  d="M95.7949 189.4004C 95.634895 190.15541 96.1159 190.89641 96.870895 191.0574C 97.6249 191.2174 98.3669 190.7364 98.5269 189.9814C 98.688896 189.2274 98.2059 188.48541 97.4519 188.32541C 96.6969 188.1654 95.9559 188.64641 95.7949 189.4004z" stroke="#E7BC9E" stroke-width="0.5" fill="none" />
    <path id=""  transform="matrix(1 0 0 -1 0 316)"  d="M98.8555 190.0752C 98.5915 190.8012 98.9655 191.6012 99.6905 191.86519C 100.4165 192.13019 101.2165 191.7562 101.4805 191.03119C 101.7445 190.3062 101.3705 189.50519 100.6455 189.2412C 99.9205 188.97719 99.1195 189.35019 98.8555 190.0752z" stroke="#E7BC9E" stroke-width="0.5" fill="none" />
    <path id=""  transform="matrix(1 0 0 -1 0 316)"  d="M101.792 191.1699C 101.431 191.8509 101.688 192.6959 102.37 193.05891C 103.051 193.42091 103.895996 193.16191 104.259 192.4819C 104.621 191.79991 104.362 190.9539 103.681 190.59291C 103 190.23091 102.154 190.4889 101.792 191.1699z" stroke="#E7BC9E" stroke-width="0.5" fill="none" />
    <path id=""  transform="matrix(1 0 0 -1 0 316)"  d="M104.5479 192.6621C 104.094894 193.28609 104.23489 194.15909 104.858894 194.6131C 105.482895 195.0661 106.355896 194.9281 106.8079 194.3041C 107.261894 193.6801 107.122894 192.8071 106.49889 192.35309C 105.8749 191.8991 105.0019 192.0381 104.5479 192.6621z" stroke="#E7BC9E" stroke-width="0.5" fill="none" />
    <path id=""  transform="matrix(1 0 0 -1 0 316)"  d="M107.0693 194.5234C 106.533295 195.0784 106.548294 195.9624 107.103294 196.49841C 107.659294 197.03441 108.5443 197.0184 109.0793 196.46341C 109.614296 195.90941 109.5983 195.02441 109.045296 194.48941C 108.489296 193.9534 107.6053 193.96841 107.0693 194.5234z" stroke="#E7BC9E" stroke-width="0.5" fill="none" />
    <path id=""  transform="matrix(1 0 0 -1 0 316)"  d="M109.3076 196.7178C 108.7006 197.19281 108.5916 198.0708 109.066605 198.67781C 109.5406 199.2858 110.4186 199.3938 111.0276 198.91881C 111.634605 198.4438 111.7436 197.5668 111.2676 196.95781C 110.7926 196.3508 109.914604 196.2418 109.3076 196.7178z" stroke="#E7BC9E" stroke-width="0.5" fill="none" />
    <path id=""  transform="matrix(1 0 0 -1 0 316)"  d="M111.2178 199.2012C 110.5498 199.5872 110.32179 200.44121 110.706795 201.1092C 111.0918 201.7772 111.94679 202.0062 112.6138 201.6212C 113.2818 201.2352 113.511795 200.3812 113.12579 199.7132C 112.7398 199.0452 111.885796 198.81621 111.2178 199.2012z" stroke="#E7BC9E" stroke-width="0.5" fill="none" />
    <path id=""  transform="matrix(1 0 0 -1 0 316)"  d="M112.7637 201.9277C 112.048706 202.2167 111.702705 203.0307 111.9927 203.7457C 112.2827 204.46071 113.0957 204.8067 113.8107 204.5177C 114.5257 204.2287 114.870705 203.4137 114.5817 202.6987C 114.2927 201.98471 113.479706 201.6387 112.7637 201.9277z" stroke="#E7BC9E" stroke-width="0.5" fill="none" />
    <path id=""  transform="matrix(1 0 0 -1 0 316)"  d="M113.916 204.8418C 113.168 205.0288 112.712 205.7868 112.898 206.53479C 113.085 207.28279 113.844 207.7388 114.592 207.5528C 115.340004 207.3658 115.796 206.6078 115.609 205.8598C 115.422 205.1118 114.664 204.6548 113.916 204.8418z" stroke="#E7BC9E" stroke-width="0.5" fill="none" />
    <path id=""  transform="matrix(1 0 0 -1 0 316)"  d="M114.6514 207.8887C 113.8834 207.9687 113.3274 208.65671 113.4084 209.4237C 113.488396 210.1907 114.1754 210.7467 114.9434 210.6657C 115.711395 210.58571 116.266396 209.8987 116.185394 209.1317C 116.1054 208.3647 115.419395 207.80771 114.6514 207.8887z" stroke="#E7BC9E" stroke-width="0.5" fill="none" />
    <path id=""  transform="matrix(1 0 0 -1 0 316)"  d="M114.9551 211.0078C 114.1841 210.9808 113.5371 211.5838 113.5111 212.3548C 113.4831 213.1258 114.087105 213.7728 114.8571 213.7988C 115.6281 213.82579 116.2751 213.2228 116.3021 212.4518C 116.3291 211.6818 115.726105 211.03479 114.9551 211.0078z" stroke="#E7BC9E" stroke-width="0.5" fill="none" />
    <path id=""  transform="matrix(1 0 0 -1 0 316)"  d="M114.8213 214.1387C 114.062294 214.0047 113.339294 214.5117 113.2043 215.2717C 113.0703 216.03171 113.57729 216.7557 114.338295 216.88971C 115.0963 217.0237 115.8203 216.51671 115.9543 215.7567C 116.090294 214.9967 115.5813 214.2727 114.8213 214.1387z" stroke="#E7BC9E" stroke-width="0.5" fill="none" />
    <path id=""  transform="matrix(1 0 0 -1 0 316)"  d="M114.2539 217.2207C 113.5219 216.9827 112.732895 217.3837 112.4939 218.1167C 112.2559 218.8517 112.6569 219.6387 113.3909 219.87671C 114.1239 220.1167 114.911896 219.7137 115.1499 218.9807C 115.3889 218.2467 114.9869 217.45871 114.2539 217.2207z" stroke="#E7BC9E" stroke-width="0.5" fill="none" />
    <path id=""  transform="matrix(1 0 0 -1 0 316)"  d="M113.2627 220.1943C 112.5697 219.8553 111.7337 220.14331 111.395706 220.83731C 111.0577 221.5303 111.3457 222.3663 112.037704 222.7043C 112.731705 223.0433 113.5687 222.75531 113.9077 222.06131C 114.243706 221.3683 113.9557 220.5323 113.2627 220.1943z" stroke="#E7BC9E" stroke-width="0.5" fill="none" />
    <path id=""  transform="matrix(1 0 0 -1 0 316)"  d="M111.8682 223C 111.2282 222.569 110.3602 222.737 109.9302 223.377C 109.4982 224.017 109.6662 224.885 110.306206 225.315C 110.945206 225.747 111.8132 225.578 112.2452 224.939C 112.6772 224.3 112.5072 223.432 111.8682 223z" stroke="#E7BC9E" stroke-width="0.5" fill="none" />
    <path id=""  transform="matrix(1 0 0 -1 0 316)"  d="M110.0957 225.585C 109.522705 225.069 108.6397 225.115 108.1227 225.68901C 107.607704 226.26201 107.6537 227.145 108.2267 227.66101C 108.799706 228.177 109.6827 228.13101 110.1997 227.55801C 110.71471 226.98401 110.6687 226.102 110.0957 225.585z" stroke="#E7BC9E" stroke-width="0.5" fill="none" />
    <path id=""  transform="matrix(1 0 0 -1 0 316)"  d="M107.9814 227.8975C 107.4854 227.3065 106.6044 227.2305 106.0134 227.72551C 105.4224 228.22151 105.3454 229.10251 105.8404 229.69351C 106.3364 230.2845 107.2174 230.36151 107.8084 229.86551C 108.3994 229.37051 108.4764 228.4895 107.9814 227.8975z" stroke="#E7BC9E" stroke-width="0.5" fill="none" />
    <path id=""  transform="matrix(1 0 0 -1 0 316)"  d="M105.5654 229.8945C 105.1564 229.2405 104.294395 229.0405 103.640396 229.4505C 102.9864 229.8585 102.7874 230.7195 103.196396 231.3735C 103.6054 232.0285 104.4664 232.2275 105.1224 231.8185C 105.7744 231.4105 105.9734 230.5475 105.5654 229.8945z" stroke="#E7BC9E" stroke-width="0.5" fill="none" />
    <path id=""  transform="matrix(1 0 0 -1 0 316)"  d="M102.8945 231.5342C 102.582504 230.8302 101.7555 230.5132 101.0505 230.8272C 100.346504 231.1402 100.0295 231.9662 100.3425 232.67119C 100.6575 233.3752 101.4825 233.6922 102.1865 233.3792C 102.8915 233.0642 103.2085 232.2392 102.8945 231.5342z" stroke="#E7BC9E" stroke-width="0.5" fill="none" />
    <path id=""  transform="matrix(1 0 0 -1 0 316)"  d="M100.0225 232.7871C 99.8095 232.0461 99.0365 231.6171 98.2945 231.8301C 97.5535 232.04309 97.126495 232.8151 97.3365 233.55809C 97.5495 234.29909 98.3235 234.7271 99.0645 234.51509C 99.8055 234.3031 100.2345 233.5291 100.0225 232.7871z" stroke="#E7BC9E" stroke-width="0.5" fill="none" />
    <path id=""  transform="matrix(1 0 0 -1 0 316)"  d="M97.0029 233.6279C 96.8969 232.86389 96.1909 232.3319 95.425896 232.4399C 94.661896 232.5469 94.1299 233.2529 94.2369 234.0169C 94.3449 234.7809 95.050896 235.3139 95.8159 235.2059C 96.577896 235.09889 97.1099 234.3929 97.0029 233.6279z" stroke="#E7BC9E" stroke-width="0.5" fill="none" />
    <path id=""  transform="matrix(1 0 0 -1 0 316)"  d="M111.1533 211.6201C 111.1533 201.3181 102.8013 192.9671 92.5013 192.9671C 82.198296 192.9671 73.8463 201.3181 73.8463 211.6201C 73.8463 221.9221 82.198296 230.2731 92.5013 230.2731C 102.8013 230.2731 111.1533 221.9221 111.1533 211.6201z" stroke="#E7BC9E" stroke-width="1" stroke-linecap="round" stroke-dasharray="1.1,1" fill="none" />
			<g>
				<g clip-path="url(#3)" >
					<g clip-path="url(#4)" >
    <path id=""  transform="matrix(1 0 0 -1 0 316)"  d="M92.5 220.8389L92.5 215.1879L92.5 215.1879L86.526 225.3499L86.526 225.3499L89.687 215.6879L89.687 215.6879L75.798996 213.4379L75.798996 213.4379L89.687 211.4379L89.687 211.4379L83.188 200.8539L83.188 200.8539L90.958 209.0469L90.958 209.0469L92.5 194.2419" stroke="#E7BC9E" stroke-width="0.5" stroke-linecap="round" fill="none" stroke-opacity="0.39607844" />
    <path id=""  transform="matrix(1 0 0 -1 0 316)"  d="M80.3447 224.1396L89.687706 215.6876L89.687706 215.6876L76.6567 219.8436" stroke="#E7BC9E" stroke-width="0.5" stroke-linecap="round" fill="none" stroke-opacity="0.39607844" />
    <path id=""  transform="matrix(1 0 0 -1 0 316)"  d="M77.0322 209.0859L89.6872 211.43791L89.6872 211.43791L83.3122 207.5939" stroke="#E7BC9E" stroke-width="0.5" stroke-linecap="round" fill="none" stroke-opacity="0.39607844" />
    <path id=""  transform="matrix(1 0 0 -1 0 316)"  d="M86.8945 197.7187L90.957504 209.0467L90.957504 209.0467L92.499504 213.2297L92.499504 213.2297L89.6875 211.4377" stroke="#E7BC9E" stroke-width="0.5" stroke-linecap="round" fill="none" stroke-opacity="0.39607844" />
    <path id=""  transform="matrix(1 0 0 -1 0 316)"  d="M89.6875 215.6875L92.5005 213.2295L92.5005 213.2295L92.5005 215.1875" stroke="#E7BC9E" stroke-width="0.5" stroke-linecap="round" fill="none" stroke-opacity="0.39607844" />
    <path id=""  transform="matrix(1 0 0 -1 0 316)"  d="M92.5 220.8389L92.5 215.1879L92.5 215.1879L98.474 225.3499L98.474 225.3499L95.313 215.6879L95.313 215.6879L109.201004 213.4379L109.201004 213.4379L95.313 211.4379L95.313 211.4379L101.813 200.8539L101.813 200.8539L94.042 209.0469L94.042 209.0469L92.5 194.2419" stroke="#E7BC9E" stroke-width="0.5" stroke-linecap="round" fill="none" stroke-opacity="0.39607844" />
    <path id=""  transform="matrix(1 0 0 -1 0 316)"  d="M104.6553 224.1396L95.312294 215.6876L95.312294 215.6876L108.3433 219.8436" stroke="#E7BC9E" stroke-width="0.5" stroke-linecap="round" fill="none" stroke-opacity="0.39607844" />
    <path id=""  transform="matrix(1 0 0 -1 0 316)"  d="M107.9678 209.0859L95.3128 211.43791L95.3128 211.43791L101.6878 207.5939" stroke="#E7BC9E" stroke-width="0.5" stroke-linecap="round" fill="none" stroke-opacity="0.39607844" />
    <path id=""  transform="matrix(1 0 0 -1 0 316)"  d="M98.1055 197.7187L94.0435 209.0467L94.0435 209.0467L92.501495 213.2297L92.501495 213.2297L95.3125 211.4377" stroke="#E7BC9E" stroke-width="0.5" stroke-linecap="round" fill="none" stroke-opacity="0.39607844" />
    <path id=""  transform="matrix(1 0 0 -1 0 316)"  d="M95.3125 215.6875L92.4995 213.2295L92.4995 213.2295L92.4995 215.1875" stroke="#E7BC9E" stroke-width="0.5" stroke-linecap="round" fill="none" stroke-opacity="0.39607844" />
					</g>
				</g>
			</g>
    <path id=""  transform="matrix(1 0 0 -1 0 316)"  d="M91.8486 194.4023C 91.5996 194.5083 91.3746 194.6273 91.175606 194.7553C 87.970604 196.7773 85.2116 198.9023 82.8976 201.1313C 80.5826 203.36029 78.802605 205.6533 77.5566 208.0103C 76.3106 210.3673 75.68761 212.7493 75.68761 215.1563C 75.68761 217.16429 76.107605 218.9443 76.9486 220.4973C 77.787605 222.0483 78.9196 223.2633 80.344604 224.1393C 81.7686 225.0153 83.370605 225.4533 85.1516 225.4533C 86.831604 225.4533 88.2846 225.0293 89.508606 224.1813C 90.734604 223.3353 91.730606 222.2193 92.4996 220.8393C 93.2846 222.2343 94.286606 223.3523 95.511604 224.19229C 96.7386 225.0333 98.1826 225.4533 99.8486 225.4533C 101.6286 225.4533 103.234604 225.0153 104.6656 224.1393C 106.0976 223.2633 107.2296 222.0483 108.06261 220.4973C 108.8956 218.9443 109.31261 217.16429 109.31261 215.1563C 109.31261 212.7493 108.689606 210.3673 107.4436 208.0103C 106.1986 205.6533 104.4166 203.36029 102.1026 201.1313C 99.787605 198.9023 97.0306 196.7773 93.8256 194.7553C 93.6396 194.6273 93.4186 194.5083 93.161606 194.4023C 92.9076 194.2963 92.6856 194.2423 92.4996 194.2423C 92.314606 194.2423 92.0976 194.2963 91.8486 194.4023z" stroke="#E7BC9E" stroke-width="0.75" fill="none" />
    <path id=""  transform="matrix(1 0 0 -1 0 316)"  d="M98.1055 197.7187L95.3125 200.74971L95.3125 200.74971L92.501495 202.74971L92.501495 202.74971L96.2515 205.62471L96.2515 205.62471L101.501495 212.37471L101.501495 212.37471L103.1875 217.24971L103.1875 217.24971L103.1875 220.37471L103.1875 220.37471L92.501495 217.24971L92.501495 217.24971L92.501495 220.8387L92.501495 220.8387L103.1875 217.24971" stroke="#E7BC9E" stroke-width="0.5" fill="none" />
    <path id=""  transform="matrix(1 0 0 -1 0 316)"  d="M92.5 194.2422L95.313 200.7502L95.313 200.7502L96.25 205.6252L96.25 205.6252L101.688 207.59421L101.688 207.59421L107.968 209.0862L107.968 209.0862L105.063 214.6562L105.063 214.6562L108.344 219.84421L108.344 219.84421L103.188 220.3752L103.188 220.3752L104.666 224.1392" stroke="#E7BC9E" stroke-width="0.5" fill="none" />
    <path id=""  transform="matrix(1 0 0 -1 0 316)"  d="M103.1875 217.25L105.0625 214.656L105.0625 214.656L109.2015 213.437" stroke="#E7BC9E" stroke-width="0.5" fill="none" />
    <path id=""  transform="matrix(1 0 0 -1 0 316)"  d="M105.0625 214.6562L101.4995 212.3752L101.4995 212.3752L101.6875 207.59421L101.6875 207.59421L105.4375 204.81221" stroke="#E7BC9E" stroke-width="0.5" fill="none" />
    <path id=""  transform="matrix(1 0 0 -1 0 316)"  d="M95.3125 200.75L101.8115 200.854L101.8115 200.854L101.6875 207.594" stroke="#E7BC9E" stroke-width="0.5" fill="none" />
    <path id=""  transform="matrix(1 0 0 -1 0 316)"  d="M103.1875 220.375L98.4735 225.35L98.4735 225.35L92.4995 220.839" stroke="#E7BC9E" stroke-width="0.5" fill="none" />
    <path id=""  transform="matrix(1 0 0 -1 0 316)"  d="M92.5 220.8389L81.812 217.2499" stroke="#E7BC9E" stroke-width="0.5" fill="none" />
    <path id=""  transform="matrix(1 0 0 -1 0 316)"  d="M92.5 217.25L81.812 220.375L81.812 220.375L81.812 217.25L81.812 217.25L83.5 212.375L83.5 212.375L88.75 205.625L88.75 205.625L92.5 202.75L92.5 202.75L89.687 200.75L89.687 200.75L86.895 197.719" stroke="#E7BC9E" stroke-width="0.5" fill="none" />
    <path id=""  transform="matrix(1 0 0 -1 0 316)"  d="M92.5 194.2422L89.687 200.7502L89.687 200.7502L88.75 205.6252L88.75 205.6252L83.312 207.59421L83.312 207.59421L77.032 209.0862L77.032 209.0862L79.937 214.6562L79.937 214.6562L76.656 219.84421L76.656 219.84421L81.812 220.3752L81.812 220.3752L80.334 224.1392" stroke="#E7BC9E" stroke-width="0.5" fill="none" />
    <path id=""  transform="matrix(1 0 0 -1 0 316)"  d="M81.8125 217.25L79.9375 214.656L79.9375 214.656L75.7985 213.437" stroke="#E7BC9E" stroke-width="0.5" fill="none" />
    <path id=""  transform="matrix(1 0 0 -1 0 316)"  d="M79.9375 214.6562L83.5005 212.3752L83.5005 212.3752L83.3125 207.59421L83.3125 207.59421L79.5625 204.81221" stroke="#E7BC9E" stroke-width="0.5" fill="none" />
    <path id=""  transform="matrix(1 0 0 -1 0 316)"  d="M89.6875 200.75L83.1885 200.854L83.1885 200.854L83.3125 207.594" stroke="#E7BC9E" stroke-width="0.5" fill="none" />
    <path id=""  transform="matrix(1 0 0 -1 0 316)"  d="M81.8125 220.375L86.5265 225.35L86.5265 225.35L92.5005 220.839" stroke="#E7BC9E" stroke-width="0.5" fill="none" />
		</g>
	</g>
</g>
</svg>