<?xml version="1.0" standalone="no"?>
<!DOCTYPE svg PUBLIC "-//W3C//DTD SVG 1.0//EN" "http://www.w3.org/TR/2001/REC-SVG-20010904/DTD/svg10.dtd">
<svg xmlns="http://www.w3.org/2000/svg" xmlns:xlink="http://www.w3.org/1999/xlink" id="body_19" width="247" height="421">

<defs>
    <clipPath  id="1">

    <path id=""  clip-rule="evenodd" transform="matrix(1 0 0 1 0 0)"  d="M0 316L0 0L0 0L185 0L185 0L185 316L185 316L0 316z" />    </clipPath>
    <clipPath  id="2">

    <path id=""  clip-rule="evenodd" transform="matrix(1 0 0 1 0 0)"  d="M0 0L185 0L185 0L185 316L185 316L0 316z" />    </clipPath>
</defs>

<g transform="matrix(1.3333 0 0 1.3333 0 0)">
	<g clip-path="url(#1)" >
		<g clip-path="url(#2)" >
    <path id=""  transform="matrix(1 0 0 -1 0 316)"  d="M105.2417 223.15381L116.7757 211.6198L116.7757 211.6198L105.2417 200.0868L105.2417 200.0868L96.717705 208.61081C 97.203705 209.29181 97.5297 210.0938 97.6397 210.9638C 101.673706 210.1338 107.1397 208.3698 103.6387 205.2038C 109.1847 205.2298 107.3107 210.5388 105.121704 210.5628C 107.08971 210.5628 108.3627 208.91481 110.5187 209.4768C 111.8097 209.8138 112.6127 210.3798 113.46471 210.8418C 115.315704 211.8448 115.35271 211.3838 113.494705 212.3838C 112.6317 212.84781 111.8237 213.4218 110.5187 213.76381C 108.3627 214.3248 107.08971 212.6768 105.121704 212.6768C 107.3107 212.7018 109.1847 218.0108 103.6387 218.0358C 107.1397 214.8698 101.6727 213.1068 97.6397 212.27681C 97.5297 213.1468 97.203705 213.9488 96.717705 214.6298zM112.161705 211.6208C 112.161705 211.4128 111.04671 211.2448 109.67171 211.2448C 108.2957 211.2448 107.1807 211.4128 107.1807 211.6198C 107.1807 211.8268 108.2957 211.9948 109.67171 211.9948C 111.04671 211.9948 112.161705 211.8268 112.161705 211.6208M80.966705 224.3618L92.4997 235.8958L92.4997 235.8958L104.03371 224.3618L104.03371 224.3618L95.508705 215.8378C 94.828705 216.3238 94.0267 216.6488 93.1567 216.7598C 93.9867 220.79381 95.7507 226.2588 98.9157 222.7588C 98.8907 228.30481 93.5817 226.4308 93.5577 224.2418C 93.5577 226.20981 95.2057 227.4828 94.6437 229.63881C 94.3067 230.92981 93.7407 231.7328 93.2787 232.58481C 92.2757 234.4358 92.7367 234.4718 91.7367 232.6138C 91.271706 231.7518 90.6977 230.9438 90.356705 229.63881C 89.7947 227.4828 91.4427 226.20981 91.4427 224.2418C 91.4187 226.4308 86.1097 228.30481 86.0847 222.7588C 89.2497 226.2588 91.0137 220.79381 91.843704 216.7598C 90.9737 216.6488 90.1707 216.3238 89.4907 215.8378zM92.4997 231.2818C 92.7067 231.2818 92.8747 230.16681 92.8747 228.79181C 92.8747 227.4158 92.7067 226.3008 92.4997 226.3008C 92.2937 226.3008 92.1257 227.4158 92.1257 228.79181C 92.1257 230.16681 92.2937 231.2818 92.4997 231.2818M80.966705 198.8778L92.4997 187.3448L92.4997 187.3448L104.03371 198.8778L104.03371 198.8778L95.508705 207.4028C 94.828705 206.91681 94.0267 206.5908 93.1567 206.4808C 93.9867 202.44681 95.7507 196.9808 98.9157 200.4818C 98.8907 194.9348 93.5817 196.8098 93.5577 198.9978C 93.5577 197.0298 95.2057 195.7568 94.6437 193.6018C 94.3067 192.3108 93.7407 191.5078 93.2787 190.6548C 92.2757 188.80481 92.7367 188.7688 91.7367 190.62581C 91.271706 191.4888 90.6977 192.2958 90.356705 193.6018C 89.7947 195.7578 91.4427 197.0298 91.4427 198.9978C 91.4187 196.8098 86.1097 194.9348 86.0847 200.4818C 89.2497 196.9808 91.0137 202.44681 91.843704 206.4808C 90.9737 206.5908 90.1707 206.91681 89.4907 207.4028zM92.4997 191.9578C 92.7067 191.9578 92.8747 193.0728 92.8747 194.4488C 92.8747 195.8238 92.7067 196.9388 92.4997 196.9388C 92.2937 196.9388 92.1257 195.8238 92.1257 194.4488C 92.1257 193.0728 92.2937 191.9578 92.4997 191.9578M79.758705 223.15381L68.2247 211.6208L68.2247 211.6208L79.758705 200.0868L79.758705 200.0868L88.2827 208.61081C 87.7967 209.29181 87.4707 210.0938 87.3607 210.9638C 83.326706 210.1338 77.8617 208.3698 81.3617 205.2048C 75.815704 205.2298 77.689705 210.5378 79.8777 210.5628C 77.9097 210.5628 76.6377 208.91481 74.480705 209.4768C 73.189705 209.8138 72.3877 210.3798 71.5347 210.8418C 69.6837 211.8448 69.647705 211.3838 71.50571 212.3838C 72.3687 212.84781 73.175705 213.4218 74.480705 213.7628C 76.6367 214.3258 77.9097 212.6768 79.8777 212.6778C 77.689705 212.7018 75.814705 218.0108 81.3617 218.0358C 77.8617 214.8708 83.326706 213.1068 87.3607 212.27681C 87.4707 213.1468 87.7967 213.9488 88.2827 214.6298zM72.8377 211.6198C 72.8377 211.4128 73.9527 211.2448 75.328705 211.2448C 76.703705 211.2448 77.8197 211.4128 77.8197 211.6198C 77.8197 211.8268 76.703705 211.9948 75.328705 211.9948C 73.9527 211.9948 72.8377 211.8268 72.8377 211.6198M92.4997 208.8728C 94.0177 208.8728 95.2477 210.1028 95.2477 211.6198C 95.2477 213.1378 94.0177 214.3678 92.4997 214.3678C 90.982704 214.3678 89.7527 213.1378 89.7527 211.6198C 89.7527 210.1028 90.982704 208.8728 92.4997 208.8728" stroke="none" fill="#E7BC9E" fill-rule="evenodd" />
		</g>
	</g>
</g>
</svg>