<?xml version="1.0" standalone="no"?>
<!DOCTYPE svg PUBLIC "-//W3C//DTD SVG 1.0//EN" "http://www.w3.org/TR/2001/REC-SVG-20010904/DTD/svg10.dtd">
<svg xmlns="http://www.w3.org/2000/svg" xmlns:xlink="http://www.w3.org/1999/xlink" id="body_20" width="247" height="421">

<defs>
    <clipPath  id="1">

    <path id=""  clip-rule="evenodd" transform="matrix(1 0 0 1 0 0)"  d="M0 316L0 0L0 0L185 0L185 0L185 316L185 316L0 316z" />    </clipPath>
    <clipPath  id="2">

    <path id=""  clip-rule="evenodd" transform="matrix(1 0 0 1 0 0)"  d="M0 0L185 0L185 0L185 316L185 316L0 316z" />    </clipPath>
</defs>

<g transform="matrix(1.3333 0 0 1.3333 0 0)">
	<g clip-path="url(#1)" >
		<g clip-path="url(#2)" >
    <path id=""  transform="matrix(1 0 0 -1 0 316)"  d="M106.9564 198.36821C 106.9564 199.0292 106.4214 199.56421 105.7604 199.56421C 105.100395 199.56421 104.5644 199.0292 104.5644 198.36821C 104.5644 197.7082 105.100395 197.1712 105.7604 197.1712C 106.4214 197.1712 106.9564 197.7082 106.9564 198.36821zM103.4624 194.9342C 103.8824 194.92722 104.252396 195.14821 104.4554 195.48322C 104.5224 195.4532 104.5904 195.42421 104.6594 195.3992C 104.573395 195.0332 104.670395 194.63321 104.9514 194.3432C 105.390396 193.8912 106.114395 193.8802 106.5664 194.31921C 106.8654 194.6112 106.9724 195.0272 106.8804 195.4062C 106.9494 195.4322 107.0184 195.4622 107.0844 195.4922C 107.2834 195.17421 107.6344 194.96121 108.0354 194.9552C 108.6664 194.9452 109.185394 195.4492 109.1954 196.0802C 109.2014 196.49721 108.9814 196.8672 108.6494 197.0702C 108.6794 197.1372 108.7064 197.2062 108.7334 197.2752C 109.0984 197.19121 109.4964 197.28821 109.7854 197.5682C 110.238396 198.00621 110.2484 198.73021 109.809395 199.1822C 109.517395 199.48322 109.099396 199.58821 108.7194 199.49721C 108.6954 199.56021 108.669395 199.6232 108.641396 199.6842C 108.9584 199.8822 109.1724 200.2342 109.1784 200.6362C 109.1884 201.2662 108.685394 201.78621 108.0544 201.79521C 107.6384 201.80121 107.2704 201.58421 107.0664 201.25421C 107.0004 201.2832 106.935394 201.31021 106.8674 201.3352C 106.9534 201.70221 106.8574 202.10321 106.5754 202.3932C 106.1374 202.84521 105.4144 202.8562 104.961395 202.41821C 104.6614 202.12721 104.5564 201.71121 104.6464 201.3332C 104.5784 201.3072 104.5134 201.28021 104.448395 201.2512C 104.2504 201.5722 103.8984 201.78922 103.4924 201.79521C 102.863396 201.80421 102.3444 201.3002 102.3344 200.6712C 102.3274 200.2532 102.5464 199.8842 102.878395 199.6802C 102.849396 199.6152 102.822395 199.54921 102.7964 199.48322C 102.4294 199.5702 102.0274 199.47421 101.7364 199.1922C 101.2834 198.75421 101.2734 198.03021 101.711395 197.5782C 102.001396 197.2792 102.4154 197.17221 102.793396 197.2612C 102.821396 197.18921 102.850395 197.11821 102.8824 197.0482C 102.5614 196.8502 102.3444 196.4982 102.338394 196.09221C 102.3284 195.46321 102.8324 194.9432 103.4624 194.9342zM95.7154 188.6672C 93.210396 190.1782 97.141396 191.2122 98.308395 191.0782C 98.7874 187.2482 95.448395 186.3522 95.7154 188.6672zM115.4944 208.45221C 113.9834 210.95721 112.9494 207.0252 113.0824 205.8592C 116.9134 205.37921 117.809395 208.7182 115.4944 208.45221zM76.9304 194.93521C 77.3504 194.9292 77.7204 195.1502 77.9234 195.4842C 77.9904 195.4552 78.058395 195.42621 78.1264 195.40121C 78.0414 195.0352 78.1384 194.63521 78.4194 194.34521C 78.8584 193.8932 79.5804 193.88121 80.0334 194.32121C 80.3334 194.61221 80.4394 195.02821 80.348404 195.4082C 80.4174 195.4342 80.4864 195.46321 80.5524 195.4942C 80.7504 195.1752 81.1024 194.96321 81.5034 194.95721C 82.1344 194.9472 82.6534 195.4512 82.6624 196.0812C 82.668396 196.4992 82.448395 196.86821 82.116394 197.0722C 82.1474 197.13821 82.17439 197.2082 82.20039 197.27621C 82.5654 197.1922 82.963394 197.2902 83.252396 197.56921C 83.7054 198.00821 83.7164 198.73221 83.2774 199.1842C 82.9854 199.48521 82.5674 199.59021 82.18739 199.4982C 82.1624 199.56221 82.1364 199.62521 82.1084 199.6862C 82.4264 199.8842 82.640396 200.23521 82.64639 200.6372C 82.6564 201.2682 82.1524 201.7872 81.5224 201.7962C 81.1054 201.8032 80.7384 201.58621 80.5334 201.2552C 80.4684 201.2852 80.4024 201.3112 80.3344 201.3372C 80.420395 201.7032 80.3244 202.1042 80.043396 202.39421C 79.6044 202.84721 78.88139 202.85822 78.4284 202.4192C 78.129395 202.12921 78.0234 201.7122 78.1134 201.33421C 78.0464 201.30821 77.9814 201.28221 77.9154 201.25221C 77.7184 201.5742 77.3654 201.79121 76.9604 201.7962C 76.3304 201.80621 75.8114 201.30222 75.8014 200.67221C 75.795395 200.25421 76.0144 199.88521 76.3464 199.6822C 76.3174 199.6172 76.2894 199.55121 76.2644 199.48521C 75.8974 199.5722 75.4944 199.47621 75.2034 199.19421C 74.7514 198.75421 74.7404 198.03221 75.1794 197.5802C 75.4694 197.2812 75.8834 197.17421 76.2614 197.26321C 76.2884 197.19121 76.3184 197.12021 76.3504 197.04921C 76.0294 196.8522 75.81239 196.50021 75.8064 196.09421C 75.7964 195.4642 76.29939 194.9452 76.9304 194.93521zM80.6864 198.37021C 80.6864 199.1752 80.032394 199.8282 79.22839 199.8282C 78.4234 199.8282 77.7704 199.1752 77.7704 198.37021C 77.7704 197.56522 78.4234 196.9122 79.22839 196.9122C 80.032394 196.9122 80.6864 197.56522 80.6864 198.37021zM89.2684 188.6692C 91.7724 190.1802 87.8414 191.21321 86.6744 191.0802C 86.1954 187.2492 89.5344 186.35321 89.2684 188.6692zM69.489395 208.44821C 71.0004 210.95221 72.0334 207.02121 71.9004 205.8542C 68.0694 205.37521 67.17439 208.7142 69.489395 208.44821zM76.9404 221.4662C 77.3604 221.46121 77.7294 221.68121 77.9324 222.0162C 77.9994 221.9862 78.0684 221.9582 78.1364 221.9322C 78.0514 221.5672 78.1484 221.1672 78.4294 220.87721C 78.8674 220.42421 79.59039 220.41321 80.043396 220.8522C 80.3434 221.1432 80.448395 221.56021 80.3584 221.93921C 80.4274 221.96521 80.4944 221.9942 80.56239 222.0252C 80.7604 221.7082 81.1114 221.4942 81.5134 221.4882C 82.144394 221.47821 82.6624 221.98221 82.67239 222.61221C 82.6784 223.0312 82.4584 223.3992 82.1264 223.60321C 82.157394 223.6712 82.1844 223.73921 82.2104 223.80821C 82.5744 223.72421 82.974396 223.82121 83.2624 224.10121C 83.7154 224.5402 83.726395 225.2622 83.2864 225.71521C 82.9944 226.0162 82.5764 226.12221 82.1974 226.0292C 82.17239 226.0932 82.14639 226.1562 82.1174 226.21721C 82.4364 226.41621 82.6504 226.76721 82.6564 227.17021C 82.6654 227.79921 82.1614 228.31921 81.532394 228.3282C 81.1154 228.3352 80.7474 228.1172 80.5424 227.7872C 80.47839 227.81621 80.4114 227.8432 80.3454 227.8692C 80.4304 228.23521 80.3344 228.63521 80.0534 228.9252C 79.614395 229.37921 78.8914 229.3892 78.4384 228.95021C 78.1394 228.6602 78.032394 228.2442 78.1224 227.8652C 78.0564 227.84021 77.9904 227.8132 77.9264 227.7832C 77.72839 228.10521 77.3754 228.3222 76.9704 228.3282C 76.34039 228.33821 75.821396 227.83421 75.81239 227.20421C 75.8054 226.78621 76.0244 226.41821 76.3564 226.21321C 76.3264 226.1492 76.29939 226.0832 76.2744 226.0162C 75.907394 226.10321 75.504395 226.0072 75.213394 225.7252C 74.7614 225.28621 74.7494 224.5632 75.1894 224.1112C 75.4794 223.81221 75.8934 223.7062 76.27139 223.79521C 76.2984 223.72221 76.3274 223.65121 76.3604 223.5812C 76.0384 223.38321 75.8224 223.0312 75.8164 222.6262C 75.8064 221.9962 76.310394 221.47621 76.9404 221.4662zM80.696396 224.90121C 80.696396 225.70721 80.0424 226.3592 79.2384 226.3592C 78.433395 226.3592 77.780396 225.70721 77.780396 224.90121C 77.780396 224.0962 78.433395 223.44421 79.2384 223.44421C 80.0424 223.44421 80.696396 224.0962 80.696396 224.90121zM89.2834 234.5742C 91.7874 233.06221 87.8574 232.02821 86.6904 232.1622C 86.210396 235.99321 89.5504 236.88821 89.2834 234.5742zM69.4984 214.7942C 71.0104 212.2902 72.043396 216.22021 71.90939 217.3872C 68.0794 217.8672 67.1844 214.5272 69.4984 214.7942zM96.29739 209.5332C 99.9294 206.5572 101.991394 205.64821 102.4994 206.8262C 103.0084 208.00421 100.935394 208.8992 96.29739 209.5332zM96.29739 213.7142C 99.9294 216.6902 101.991394 217.6002 102.4994 216.4212C 103.0084 215.2442 100.935394 214.34921 96.29739 213.7142zM88.7294 209.5332C 85.0984 206.5572 83.0354 205.64821 82.5274 206.8262C 82.019394 208.00421 84.0914 208.8992 88.7294 209.5332zM88.7294 213.7142C 85.0984 216.6902 83.0354 217.6002 82.5274 216.4212C 82.019394 215.2442 84.0914 214.34921 88.7294 213.7142zM94.6054 215.4082C 97.5794 219.0402 98.4904 221.10121 97.3124 221.61021C 96.1334 222.1192 95.239395 220.0462 94.6054 215.4082zM90.42239 215.4082C 87.448395 219.0402 86.5374 221.10121 87.7154 221.61021C 88.894394 222.1192 89.7884 220.0462 90.42239 215.4082zM94.6054 207.8392C 97.5794 204.2082 98.4904 202.14621 97.3124 201.6372C 96.1334 201.12921 95.239395 203.20221 94.6054 207.8392zM90.42239 207.8392C 87.448395 204.2082 86.5374 202.14621 87.7154 201.6372C 88.894394 201.12921 89.7884 203.20221 90.42239 207.8392zM94.2014 211.6242C 94.2014 210.6922 93.446396 209.9362 92.5144 209.9362C 91.5814 209.9362 90.82539 210.6922 90.82539 211.6242C 90.82539 212.5552 91.5814 213.31221 92.5144 213.31221C 93.446396 213.31221 94.2014 212.5552 94.2014 211.6242zM91.3954 213.20021C 86.4794 218.4282 85.1124 221.50821 87.338394 222.46921C 89.5654 223.43121 90.9024 220.3312 91.3954 213.20021zM90.9384 212.7422C 85.7094 217.6582 82.629395 219.02621 81.6674 216.79921C 80.7064 214.57321 83.8064 213.2362 90.9384 212.7422zM90.9384 210.5052C 85.7094 205.5892 82.6284 204.22221 81.6674 206.4492C 80.7054 208.6752 83.8064 210.0122 90.9384 210.5052zM91.3954 210.0482C 86.4794 204.8202 85.1124 201.73921 87.338394 200.77821C 89.5654 199.8172 90.9024 202.9172 91.3954 210.0482zM93.6324 210.0482C 98.54739 204.8202 99.9154 201.73921 97.6894 200.7772C 95.4624 199.8172 94.1254 202.9172 93.6324 210.0482zM94.0894 210.5052C 99.3184 205.5892 102.3984 204.22221 103.3604 206.4492C 104.321396 208.67421 101.2214 210.0122 94.0894 210.5052zM94.0894 212.74321C 99.3184 217.6582 102.3984 219.02621 103.3604 216.79921C 104.321396 214.57321 101.2214 213.2362 94.0894 212.74321zM93.6324 213.20021C 98.54739 218.4282 99.9154 221.50821 97.6894 222.46921C 95.4624 223.43121 94.1254 220.3312 93.6324 213.20021zM82.2424 211.12321L90.7024 211.1412C 90.6614 211.2962 90.640396 211.45721 90.640396 211.6242C 90.640396 211.77321 90.657394 211.91821 90.6904 212.05621L90.6904 212.05621L82.2364 212.0812C 81.9404 213.6652 80.9274 214.2462 79.4164 214.64221C 77.963394 215.0242 76.724396 215.3432 75.35339 216.79521C 75.017395 216.2512 74.5774 214.30421 75.6954 213.32121C 74.2404 213.17921 73.5794 212.9472 73.13139 211.87921C 73.0104 211.5912 73.015396 211.62021 73.13139 211.33821C 73.5804 210.25821 74.2404 210.0242 75.7014 209.8822C 74.5844 208.8992 75.0244 206.95221 75.3604 206.40921C 76.7314 207.8592 77.9704 208.17921 79.4234 208.56021C 80.9344 208.9582 81.9474 209.53922 82.2424 211.12321zM93.015396 201.35321L92.9964 209.8132C 92.8424 209.7722 92.6804 209.7512 92.5144 209.7512C 92.3654 209.7512 92.2204 209.76721 92.0814 209.8002L92.0814 209.8002L92.057396 201.3462C 90.4734 201.0502 89.892395 200.03821 89.4944 198.5272C 89.114395 197.0742 88.793396 195.8352 87.3424 194.46321C 87.8864 194.1282 89.8334 193.6882 90.8164 194.8052C 90.9584 193.3502 91.1914 192.69022 92.2584 192.2422C 92.5464 192.12122 92.517395 192.1262 92.7984 192.2422C 93.879395 192.69121 94.113396 193.3502 94.2554 194.81221C 95.239395 193.6952 97.185394 194.1342 97.7294 194.46921C 96.279396 195.84021 95.9584 197.0812 95.5764 198.53421C 95.1794 200.04521 94.599396 201.0572 93.015396 201.35321zM102.7844 211.12321L94.3244 211.1412C 94.3654 211.2962 94.3874 211.45721 94.3874 211.6242C 94.3874 211.7722 94.3694 211.91821 94.3374 212.05621L94.3374 212.05621L102.7914 212.0812C 103.086395 213.6652 104.099396 214.2462 105.6114 214.64221C 107.0644 215.0242 108.3034 215.3432 109.6744 216.79521C 110.0104 216.2512 110.4494 214.30421 109.3314 213.32121C 110.7864 213.17921 111.447395 212.9472 111.8964 211.87921C 112.017395 211.5912 112.0124 211.62021 111.8954 211.33821C 111.447395 210.25821 110.7864 210.0242 109.3254 209.8822C 110.4424 208.8992 110.003395 206.95221 109.6674 206.4082C 108.2964 207.8592 107.057396 208.17921 105.6044 208.56021C 104.0934 208.9582 103.0794 209.53922 102.7844 211.12321zM93.015396 221.8952L92.9964 213.4342C 92.8424 213.4752 92.6804 213.49821 92.5144 213.49821C 92.3654 213.49821 92.2204 213.48021 92.0814 213.44821L92.0814 213.44821L92.057396 221.9022C 90.4734 222.1972 89.892395 223.2102 89.4944 224.72021C 89.114395 226.1732 88.793396 227.41321 87.3424 228.7852C 87.8864 229.12021 89.8334 229.5592 90.8164 228.4422C 90.9584 229.8972 91.1914 230.5572 92.2584 231.0052C 92.5464 231.12721 92.517395 231.1232 92.7984 231.0052C 93.8784 230.5572 94.113396 229.8972 94.2554 228.43521C 95.239395 229.55222 97.185394 229.11421 97.7294 228.77821C 96.2784 227.40721 95.9584 226.16821 95.5764 224.7142C 95.1804 223.2032 94.599396 222.1902 93.015396 221.8952zM106.9734 224.88821C 106.9734 225.5482 106.4384 226.0852 105.7774 226.0852C 105.116394 226.0852 104.5804 225.5482 104.5804 224.88821C 104.5804 224.2272 105.116394 223.6922 105.7774 223.6922C 106.4384 223.6922 106.9734 224.2272 106.9734 224.88821zM103.4794 221.45421C 103.8994 221.44821 104.2694 221.6692 104.4724 222.0032C 104.5384 221.97221 104.6074 221.9452 104.6764 221.9192C 104.5904 221.5532 104.6874 221.15321 104.9684 220.86421C 105.407394 220.41121 106.1304 220.4002 106.5824 220.8392C 106.8824 221.1302 106.989395 221.5462 106.8974 221.92621C 106.9664 221.9532 107.0344 221.9812 107.101395 222.0112C 107.2994 221.69421 107.6514 221.48021 108.0524 221.47421C 108.683395 221.46521 109.2014 221.9682 109.211395 222.5982C 109.2184 223.01721 108.9984 223.3862 108.6654 223.5892C 108.696396 223.65721 108.7234 223.7252 108.7494 223.79521C 109.114395 223.71121 109.5134 223.80821 109.8014 224.08821C 110.254395 224.5272 110.265396 225.25021 109.8264 225.70221C 109.5334 226.00421 109.1154 226.1092 108.7364 226.0162C 108.711395 226.0802 108.6864 226.14221 108.657394 226.20421C 108.975395 226.4022 109.1894 226.75421 109.1954 227.1562C 109.2044 227.78621 108.7004 228.3052 108.071396 228.31421C 107.654396 228.32121 107.2864 228.10321 107.0814 227.77321C 107.017395 227.8032 106.9504 227.8302 106.8834 227.85521C 106.9704 228.2212 106.8734 228.6232 106.5924 228.91321C 106.154396 229.3652 105.4304 229.3762 104.9784 228.93721C 104.6784 228.64621 104.572395 228.2312 104.6624 227.8522C 104.5954 227.82721 104.530396 227.79921 104.4654 227.7702C 104.267395 228.0912 103.9144 228.30821 103.5094 228.31421C 102.879395 228.3242 102.3614 227.82121 102.351395 227.1902C 102.3444 226.7722 102.5634 226.4042 102.8954 226.20021C 102.8654 226.13521 102.838394 226.0702 102.8134 226.0032C 102.446396 226.09021 102.043396 225.9942 101.752396 225.7122C 101.3004 225.27321 101.2894 224.5502 101.7284 224.0982C 102.0184 223.7982 102.432396 223.6922 102.810394 223.7812C 102.8374 223.70921 102.866394 223.6372 102.8994 223.5682C 102.5774 223.37021 102.3614 223.0182 102.3554 222.6132C 102.3454 221.98221 102.8484 221.46321 103.4794 221.45421zM95.726395 234.56021C 93.2214 233.0482 97.1534 232.01521 98.3194 232.14821C 98.7994 235.9792 95.4584 236.87521 95.726395 234.56021zM115.5114 214.7752C 113.9994 212.2702 112.9654 216.20221 113.099396 217.36821C 116.9304 217.84721 117.8254 214.5072 115.5114 214.7752z" stroke="#E7BC9E" stroke-width="0.425" fill="none" />
		</g>
	</g>
</g>
</svg>