<?xml version="1.0" standalone="no"?>
<!DOCTYPE svg PUBLIC "-//W3C//DTD SVG 1.0//EN" "http://www.w3.org/TR/2001/REC-SVG-20010904/DTD/svg10.dtd">
<svg xmlns="http://www.w3.org/2000/svg" xmlns:xlink="http://www.w3.org/1999/xlink" id="body_1" width="247" height="421">

<defs>
    <clipPath  id="1">

    <path id=""  clip-rule="evenodd" transform="matrix(1 0 0 1 0 0)"  d="M0 316L0 0L0 0L185 0L185 0L185 316L185 316L0 316z" />    </clipPath>
    <clipPath  id="2">

    <path id=""  clip-rule="evenodd" transform="matrix(1 0 0 1 0 0)"  d="M0 0L185 0L185 0L185 316L185 316L0 316z" />    </clipPath>
</defs>

<g transform="matrix(1.3333 0 0 1.3333 0 0)">
	<g clip-path="url(#1)" >
		<g clip-path="url(#2)" >
    <path id=""  transform="matrix(1 0 0 -1 0 316)"  d="M77.0697 230.7244C 77.1377 230.0004 77.5947 229.47841 77.981705 229.0354C 78.6367 228.2864 79.0317 227.83441 78.0297 226.67241L78.0297 226.67241L77.8077 226.4124L77.8077 226.4124L78.048706 226.1714L78.048706 226.1714L79.07571 225.14441L79.07571 225.14441L79.3307 224.8894L79.3307 224.8894L79.5297 225.0804C 79.4757 224.9394 79.4597 224.7854 79.4857 224.6364C 79.438705 224.64441 79.3917 224.6484 79.342705 224.6484C 79.2377 224.6484 79.1367 224.6284 79.0417 224.5924L79.0417 224.5924L79.230705 224.7904L79.230705 224.7904L78.9767 225.04541L78.9767 225.04541L77.9487 226.0724L77.9487 226.0724L77.7077 226.3144L77.7077 226.3144L77.4487 226.09041C 76.9767 225.6844 76.5827 225.4874 76.243706 225.4874C 75.8317 225.4874 75.4857 225.7884 75.0857 226.1384C 74.6297 226.5364 74.11771 226.98541 73.39371 227.0504C 73.7937 227.45241 74.2517 227.6504 74.7787 227.6504C 75.3097 227.6504 75.90871 227.45041 76.5607 227.0534L76.5607 227.0534L77.8487 226.2724L77.8487 226.2724L77.0667 227.5594C 76.550705 228.4114 76.36771 229.1644 76.524704 229.79941C 76.607704 230.1334 76.7907 230.4434 77.0697 230.7244M107.9297 230.7234C 108.2097 230.4434 108.3927 230.1334 108.4757 229.7984C 108.632706 229.1644 108.44971 228.4114 107.9327 227.5594L107.9327 227.5594L107.1517 226.2724L107.1517 226.2724L108.438705 227.0534C 109.091705 227.45041 109.6917 227.6504 110.2217 227.6504C 110.7477 227.6504 111.2067 227.45241 111.606705 227.0504C 110.8817 226.98541 110.369705 226.5364 109.913704 226.1384C 109.5147 225.7884 109.1687 225.4874 108.757706 225.4874C 108.4187 225.4874 108.023705 225.6844 107.552704 226.09041L107.552704 226.09041L107.2937 226.3144L107.2937 226.3144L107.051704 226.0724L107.051704 226.0724L106.023705 225.04541L106.023705 225.04541L105.7697 224.7904L105.7697 224.7904L105.9597 224.5914C 105.8647 224.6284 105.7637 224.6484 105.6577 224.6484C 105.6097 224.6484 105.56171 224.64441 105.5167 224.6364C 105.523705 224.6824 105.5277 224.73041 105.5277 224.77841C 105.5277 224.8824 105.508705 224.9854 105.4717 225.0794L105.4717 225.0794L105.6707 224.89041L105.6707 224.89041L105.925705 225.14441L105.925705 225.14441L106.9507 226.1714L106.9507 226.1714L107.1927 226.4124L107.1927 226.4124L106.9707 226.67241C 105.9697 227.83441 106.3867 228.31241 107.01871 229.03441C 107.4057 229.47841 107.8627 229.9994 107.9297 230.7234M101.855705 230.6194C 102.966705 230.6194 103.856705 230.3374 104.3637 229.8264C 104.688705 229.49841 104.8517 229.0764 104.8477 228.5704C 104.842705 227.9684 104.68671 227.2244 104.384705 226.3584L104.384705 226.3584L104.300705 226.1174L104.300705 226.1174L104.495705 225.9534C 104.646706 225.82741 104.79671 225.6994 104.9417 225.5694C 104.8647 225.5924 104.78371 225.6044 104.70071 225.6044C 104.479706 225.6044 104.272705 225.5184 104.11571 225.3624C 103.90871 225.1544 103.8357 224.8634 103.8947 224.5964L103.8947 224.5964L103.72771 224.7474L103.72771 224.7474L103.5127 224.3064C 103.0847 223.4254 102.6277 222.6004 102.2617 221.93741L102.2617 221.93741L102.22771 221.8784L102.22771 221.8784L101.8317 221.1324L101.8317 221.1324L102.052704 221.1894L102.052704 221.1894L101.9717 220.9144L101.9717 220.9144L102.757706 221.3494L102.757706 221.3494L102.83971 221.39441C 103.4977 221.7584 104.315704 222.2104 105.1857 222.6334L105.1857 222.6334L105.6287 222.8484L105.6287 222.8484L105.47771 223.0144C 105.535706 223.0014 105.5967 222.9944 105.6577 222.9944C 105.8787 222.9944 106.0857 223.0804 106.2417 223.2374C 106.397705 223.3934 106.4837 223.60141 106.4837 223.8224C 106.4837 223.9054 106.4727 223.9864 106.4487 224.0634C 106.577705 223.9174 106.7067 223.7684 106.8327 223.6174L106.8327 223.6174L106.996704 223.42041L106.996704 223.42041L107.2367 223.5054C 108.1037 223.8074 108.8487 223.96341 109.468704 223.9684C 110.0837 223.9684 110.5717 223.7204 110.9197 223.2314C 111.5837 222.29941 111.6837 220.60141 111.1977 218.9044C 110.326706 219.49141 110.4357 220.18541 110.5607 220.9754L110.5607 220.9754L110.5997 221.2324C 110.72771 222.1414 110.6167 222.7814 110.2637 223.18741C 110.0067 223.4824 109.6407 223.6324 109.1407 223.6324L109.1407 223.6324L109.1387 223.6324C 108.7107 223.6254 108.215706 223.54541 107.6657 223.39441L107.6657 223.39441L107.14371 223.2504L107.14371 223.2504L107.468704 222.8184C 107.5667 222.6864 107.663704 222.5544 107.758705 222.42041C 107.6367 222.48941 107.4987 222.5254 107.354706 222.5254C 107.134705 222.5254 106.926704 222.4394 106.7697 222.28441C 106.6137 222.1264 106.5277 221.9194 106.5277 221.69841L106.5277 221.69841L106.5277 221.6944C 106.3367 221.9584 106.1377 222.2184 105.9297 222.4754L105.9297 222.4754L105.7507 222.69641L105.7507 222.69641L105.49071 222.5784C 104.31171 222.0464 103.1657 221.4134 102.243706 220.9054L102.243706 220.9054L101.7537 220.6354L101.7537 220.6354L102.0397 219.9604C 102.8167 220.2034 103.5017 220.32741 104.0737 220.32741C 105.274704 220.32741 105.9587 219.7884 106.4577 218.9424C 105.8917 219.5514 105.037704 219.9024 104.3167 219.9024C 103.8227 219.9024 103.4207 219.7374 103.1837 219.43741C 103.1707 219.42041 103.1577 219.4044 103.145706 219.3864L103.145706 219.3864L103.2247 219.6244L103.2247 219.6244L102.7677 219.67041C 102.7227 219.67441 102.675705 219.6774 102.6277 219.6774C 102.1107 219.6774 101.453705 219.4044 100.618706 218.8434L100.618706 218.8434L100.246704 218.5934L100.246704 218.5934L100.562706 218.2774L100.562706 218.2774L103.6267 215.21341L103.6267 215.21341L103.08971 214.9904L103.08971 214.9904L100.052704 218.02841L100.052704 218.02841L99.8167 218.2624L99.8167 218.2624L99.5597 218.0534C 97.7357 216.57741 95.7097 214.42441 94.620705 213.26741C 94.3477 212.9774 94.133705 212.7494 93.995705 212.6114L93.995705 212.6114L93.2897 211.8984L93.2897 211.8984L92.9707 212.08841L92.9707 212.08841L92.7777 212.4104L92.7777 212.4104L93.4897 213.11641C 93.6297 213.25441 93.8587 213.4704 94.1507 213.7454C 95.3077 214.8334 97.4597 216.8594 98.9327 218.6804L98.9327 218.6804L99.1417 218.9384L99.1417 218.9384L98.9067 219.17241L98.9067 219.17241L95.869705 222.2084L95.869705 222.2084L96.093704 222.7454L96.093704 222.7454L99.1567 219.68341L99.1567 219.68341L99.4737 219.3674L99.4737 219.3674L99.7237 219.7384C 100.3337 220.6454 100.60271 221.3484 100.549706 221.8864L100.549706 221.8864L100.5037 222.3444L100.5037 222.3444L100.2627 222.2644C 100.5317 222.45241 100.7117 222.7664 100.7657 223.17241C 100.868706 223.96541 100.4997 224.95241 99.8197 225.5794C 101.065704 224.8504 101.6447 223.72641 100.83971 221.1604L100.83971 221.1604L101.5147 220.8724L101.5147 220.8724L101.7767 221.3504C 102.287704 222.2754 102.923706 223.4264 103.4587 224.6114L103.4587 224.6114L103.57471 224.8694L103.57471 224.8694L103.35371 225.0484C 103.0987 225.25641 102.8367 225.4564 102.5697 225.6484L102.5697 225.6484L102.577705 225.6484C 102.798706 225.6484 103.00671 225.7344 103.162704 225.89041C 103.3187 226.0464 103.4047 226.2534 103.4047 226.4754C 103.4047 226.6194 103.368706 226.75641 103.300705 226.87741C 103.4337 226.7834 103.565704 226.6864 103.6967 226.58841L103.6967 226.58841L104.13071 226.2634L104.13071 226.2634L104.273705 226.7864C 104.427704 227.34741 104.50571 227.8294 104.5117 228.2584C 104.5197 228.7014 104.3927 229.0574 104.1367 229.3184C 103.841705 229.61841 103.384705 229.7704 102.7807 229.7704C 102.577705 229.7704 102.35271 229.7534 102.1107 229.7194L102.1107 229.7194L101.854706 229.6804C 101.6007 229.64041 101.3357 229.5994 101.0827 229.5994C 100.6727 229.5994 100.2087 229.6934 99.78371 230.31741C 100.47771 230.51541 101.1857 230.6194 101.855705 230.6194M83.14471 230.6194C 83.814705 230.6194 84.522705 230.51541 85.216705 230.31741C 84.7927 229.6934 84.327705 229.5994 83.9177 229.5994C 83.6647 229.5994 83.399704 229.64041 83.14471 229.6804L83.14471 229.6804L82.8887 229.7194C 82.647705 229.7534 82.42271 229.7704 82.2197 229.7704C 81.6147 229.7704 81.15871 229.61841 80.8627 229.3184C 80.606705 229.0574 80.480705 228.70241 80.4887 228.2584C 80.495705 227.8294 80.57571 227.33441 80.72771 226.7854L80.72771 226.7854L80.870705 226.2644L80.870705 226.2644L81.3037 226.58841C 81.4357 226.6864 81.5667 226.7834 81.70071 226.87741C 81.632706 226.75641 81.5967 226.6194 81.5967 226.4754C 81.5967 226.2534 81.6827 226.0464 81.8377 225.8914C 81.993706 225.7344 82.20071 225.6484 82.42271 225.6484L82.42271 225.6484L82.4297 225.6484C 82.162704 225.4564 81.9017 225.25641 81.6447 225.0484L81.6447 225.0484L81.424706 224.8694L81.424706 224.8694L81.5417 224.6114C 82.0737 223.4344 82.7057 222.2884 83.2137 221.36841L83.2137 221.36841L83.4857 220.8724L83.4857 220.8724L84.160706 221.1604C 83.354706 223.72641 83.9347 224.8494 85.1807 225.5794C 84.5007 224.95241 84.132706 223.9644 84.2357 223.17241C 84.288704 222.76541 84.468704 222.4514 84.7377 222.2644L84.7377 222.2644L84.496704 222.3444L84.496704 222.3444L84.45071 221.8864C 84.395706 221.3494 84.6677 220.64641 85.2777 219.7384L85.2777 219.7384L85.5277 219.3674L85.5277 219.3674L85.8447 219.68341L85.8447 219.68341L88.9077 222.7474L88.9077 222.7474L89.13171 222.2104L89.13171 222.2104L86.093704 219.17241L86.093704 219.17241L85.8587 218.9384L85.8587 218.9384L86.0667 218.6804C 87.5407 216.8594 89.6917 214.8334 90.8487 213.7454C 91.1407 213.4714 91.369705 213.25441 91.509705 213.11641L91.509705 213.11641L92.2217 212.4104L92.2217 212.4104L92.0297 212.0894L92.0297 212.0894L91.7107 211.8984L91.7107 211.8984L91.0037 212.6114C 90.8657 212.7494 90.6517 212.97841 90.3787 213.2684C 89.2897 214.4254 87.2637 216.5784 85.439705 218.0534L85.439705 218.0534L85.1827 218.2624L85.1827 218.2624L84.9477 218.02841L84.9477 218.02841L81.909706 214.9904L81.909706 214.9904L81.3727 215.2124L81.3727 215.2124L84.43671 218.2774L84.43671 218.2774L84.7537 218.5934L84.7537 218.5934L84.38171 218.8434C 83.54771 219.4044 82.8907 219.6774 82.3727 219.6774C 82.32571 219.6774 82.2787 219.67441 82.2337 219.67041L82.2337 219.67041L81.7767 219.6244L81.7767 219.6244L81.854706 219.3864C 81.843704 219.4044 81.8307 219.42041 81.8177 219.43741C 81.5807 219.7374 81.177704 219.9024 80.6847 219.9024L80.6847 219.9024L80.6837 219.9024C 79.9637 219.9024 79.1097 219.5514 78.5447 218.9434C 79.0427 219.7884 79.72771 220.32741 80.927704 220.32741C 81.4997 220.32741 82.1837 220.2034 82.9607 219.9604L82.9607 219.9604L83.2477 220.6354L83.2477 220.6354L82.760704 220.90341C 81.8377 221.4114 80.688705 222.04541 79.509705 222.5784L79.509705 222.5784L79.2507 222.69641L79.2507 222.69641L79.0717 222.4754C 78.8627 222.2184 78.663704 221.9574 78.4727 221.6934L78.4727 221.6934L78.4727 221.6994C 78.4727 221.9194 78.3867 222.1264 78.22871 222.28441C 78.0727 222.4394 77.86571 222.5254 77.6447 222.5254C 77.5027 222.5254 77.3647 222.48941 77.24271 222.42041C 77.3377 222.5544 77.4347 222.6864 77.5327 222.8184L77.5327 222.8184L77.856705 223.2504L77.856705 223.2504L77.3357 223.39441C 76.785706 223.54541 76.2897 223.6254 75.826706 223.6324C 75.3607 223.6324 74.994705 223.4834 74.7367 223.18741C 74.383705 222.78241 74.272705 222.14241 74.399704 221.2324L74.399704 221.2324L74.438705 220.9754C 74.563705 220.18541 74.673706 219.49141 73.8037 218.9044C 73.3167 220.60141 73.4167 222.29941 74.0807 223.2314C 74.4287 223.7204 74.9167 223.9684 75.550705 223.9684C 76.1527 223.96341 76.896706 223.8074 77.7627 223.5054L77.7627 223.5054L78.0027 223.4214L78.0027 223.4214L78.1667 223.61641C 78.2947 223.7684 78.4227 223.9174 78.551704 224.06241C 78.5277 223.9854 78.5167 223.9054 78.5167 223.8224C 78.5167 223.60141 78.60271 223.39441 78.758705 223.2374C 78.9147 223.0804 79.121704 222.9944 79.342705 222.9944C 79.4047 222.9944 79.465706 223.0014 79.523705 223.01541L79.523705 223.01541L79.3727 222.8484L79.3727 222.8484L79.814705 222.6334C 80.6847 222.2104 81.5027 221.7584 82.159706 221.3954L82.159706 221.3954L82.2417 221.3494L82.2417 221.3494L82.97771 220.9584L82.97771 220.9584L82.9207 221.1884L82.9207 221.1884L83.1937 221.1134L83.1937 221.1134L82.770706 221.8784L82.770706 221.8784L82.7357 221.9414C 82.369705 222.6044 81.9147 223.4284 81.4867 224.3064L81.4867 224.3064L81.271706 224.7474L81.271706 224.7474L81.105705 224.59741C 81.118706 224.6564 81.1257 224.7164 81.1257 224.7774C 81.1267 224.9974 81.0397 225.2054 80.883705 225.3624C 80.72771 225.5184 80.5197 225.6044 80.299706 225.6044C 80.216705 225.6044 80.135704 225.5924 80.0587 225.5694C 80.202705 225.6974 80.3517 225.8264 80.5047 225.9534L80.5047 225.9534L80.69971 226.11841L80.69971 226.11841L80.61571 226.3584C 80.313705 227.22241 80.1577 227.9664 80.1527 228.5704C 80.148705 229.0764 80.31171 229.49841 80.6367 229.8264C 81.14371 230.3374 82.034706 230.6194 83.14471 230.6194M92.5007 230.3464C 93.259705 230.3464 94.0137 230.3004 94.758705 230.20941C 94.646706 230.1684 94.54671 230.1044 94.4597 230.0184C 94.1377 229.69641 94.1377 229.1714 94.4607 228.8484C 94.4757 228.8334 94.4897 228.8204 94.50571 228.8064C 93.841705 228.8864 93.1717 228.9274 92.5007 228.9274C 91.829704 228.9274 91.159706 228.8864 90.495705 228.8064C 90.5117 228.8204 90.5267 228.83441 90.5417 228.8494C 90.8627 229.17241 90.8617 229.6974 90.5407 230.0184C 90.454704 230.1044 90.35271 230.1684 90.24271 230.20941C 90.9867 230.3004 91.7407 230.3464 92.5007 230.3464M95.536705 230.09741C 96.218704 229.98541 96.8927 229.8334 97.5547 229.64641C 97.3877 229.61841 97.232704 229.5384 97.1107 229.4154C 96.954704 229.2594 96.868706 229.0524 96.868706 228.8304C 96.868706 228.6344 96.93671 228.4484 97.06171 228.29941C 96.508705 228.4534 95.9477 228.5804 95.38171 228.6784C 95.4727 228.7194 95.5567 228.7764 95.6287 228.8494C 95.95071 229.1714 95.95071 229.69641 95.6287 230.0174C 95.6007 230.0464 95.5687 230.0744 95.536705 230.09741M89.46371 230.09741C 89.4317 230.0744 89.399704 230.04741 89.371704 230.0184C 89.049706 229.69641 89.049706 229.1714 89.371704 228.8484C 89.4437 228.7764 89.5277 228.7194 89.618706 228.6784C 89.052704 228.5804 88.49171 228.4534 87.937706 228.29941C 88.062706 228.4484 88.13171 228.6344 88.13171 228.8304C 88.13171 229.0524 88.0457 229.2594 87.8907 229.4154C 87.7677 229.5374 87.6127 229.61841 87.4457 229.64641C 88.1087 229.8334 88.7817 229.98541 89.46371 230.09741M98.2667 229.4284C 98.927704 229.2114 99.577705 228.9564 100.21471 228.6644C 99.9977 228.6614 99.7947 228.5764 99.6417 228.42241C 99.4847 228.2664 99.398705 228.0594 99.398705 227.8374C 99.398705 227.68541 99.439705 227.5384 99.5177 227.4114C 98.994705 227.6454 98.4627 227.8544 97.92171 228.0364C 98.0557 228.0744 98.1787 228.1454 98.2797 228.2464C 98.60271 228.5704 98.6017 229.0934 98.2787 229.4154C 98.274704 229.4194 98.270706 229.42441 98.2667 229.4284M86.7337 229.4284C 86.72871 229.42441 86.7257 229.4194 86.7217 229.4154C 86.564705 229.2594 86.47771 229.0524 86.47771 228.8304C 86.47771 228.61041 86.564705 228.4024 86.7217 228.2464C 86.8227 228.1454 86.9447 228.0744 87.079704 228.0364C 86.537704 227.8544 86.00571 227.6454 85.481705 227.4114C 85.5607 227.5384 85.6017 227.68541 85.6017 227.8374C 85.6017 228.0594 85.5157 228.2664 85.3587 228.4214C 85.2067 228.5764 85.0037 228.6614 84.786705 228.6644C 85.42271 228.9564 86.0717 229.2104 86.7337 229.4284M100.88071 228.3424C 101.4987 228.0294 102.10271 227.67941 102.689705 227.2944C 102.6537 227.29941 102.61571 227.3014 102.577705 227.3014C 102.356705 227.3014 102.148705 227.21541 101.993706 227.0594C 101.8377 226.9044 101.7507 226.69641 101.7507 226.4754C 101.7507 226.36841 101.770706 226.2634 101.8107 226.16641C 101.3307 226.4754 100.8377 226.7594 100.3337 227.0184C 100.5137 227.04141 100.6797 227.1224 100.8107 227.2534C 101.105705 227.5504 101.1297 228.0184 100.88071 228.3424M84.119705 228.3424C 84.008705 228.1994 83.9477 228.0234 83.9477 227.8374C 83.9477 227.6174 84.034706 227.4104 84.190704 227.2534C 84.3207 227.1224 84.4867 227.04141 84.6667 227.0184C 84.161705 226.7594 83.6697 226.4754 83.189705 226.16641C 83.22771 226.2634 83.2487 226.36841 83.2487 226.4754C 83.2487 226.69641 83.162704 226.9044 83.00671 227.0594C 82.8507 227.21541 82.6437 227.3014 82.42271 227.3014C 82.384705 227.3014 82.3477 227.29941 82.3107 227.2944C 82.897705 227.67941 83.5017 228.0294 84.119705 228.3424M95.788704 227.1774C 96.395706 226.9044 97.023705 226.6884 97.6367 226.4774C 97.743706 226.4394 97.8517 226.40341 97.9567 226.36641L97.9567 226.36641L97.8467 226.3954L97.8467 226.3954L98.4457 225.56041C 99.009705 224.7774 98.8087 224.14241 98.63071 223.5814C 98.5127 223.2074 98.4007 222.85541 98.5817 222.5354C 98.6987 222.3294 98.9077 222.1934 99.2217 222.1194C 99.3077 222.0984 99.3917 222.08441 99.4727 222.07741C 99.427704 222.0744 99.382706 222.0724 99.3387 222.0724C 98.760704 222.0724 98.4077 222.3414 98.2137 222.5674C 97.9077 222.92241 97.770706 223.4304 97.8467 223.9254C 97.9877 224.85541 97.9177 225.3524 97.1257 225.8394L97.1257 225.8394L97.0137 225.9084C 96.5267 226.20241 95.9907 226.52841 95.788704 227.1774M89.2117 227.1774C 89.009705 226.5294 88.4737 226.20241 87.9887 225.90941L87.9887 225.90941L87.8757 225.8394C 87.0837 225.3524 87.0127 224.85541 87.1537 223.9254C 87.22871 223.4304 87.091705 222.92241 86.786705 222.5674C 86.592705 222.3414 86.2397 222.0724 85.661705 222.0724C 85.61771 222.0724 85.5727 222.0744 85.5277 222.07741C 85.6087 222.08441 85.6927 222.0984 85.7787 222.1194C 86.092705 222.1934 86.302704 222.3294 86.4187 222.5354C 86.6007 222.85541 86.4877 223.2074 86.369705 223.5814C 86.1927 224.14241 85.99171 224.77841 86.5537 225.56041L86.5537 225.56041L87.1527 226.3954L87.1527 226.3954L87.04771 226.3674C 87.1517 226.4044 87.257706 226.4404 87.3637 226.47641C 87.9767 226.68741 88.60371 226.9044 89.2117 227.1774M92.5007 226.3394L96.035706 222.8034L96.035706 222.8034L95.716705 222.3634L95.716705 222.3634L92.760704 225.3184L92.760704 225.3184L92.4997 225.5784L92.4997 225.5784L92.2397 225.3184L92.2397 225.3184L89.284706 222.36441L89.284706 222.36441L88.965706 222.8054L88.965706 222.8054L92.5007 226.3394M104.843704 223.9624C 104.8357 223.91641 104.8317 223.8694 104.8317 223.8224C 104.8317 223.7804 104.8347 223.7384 104.840706 223.69841C 104.799706 223.7404 104.758705 223.7814 104.716705 223.8224C 104.6707 223.8694 104.6247 223.9144 104.577705 223.95941C 104.61771 223.9534 104.65871 223.9514 104.70071 223.9514C 104.7497 223.9514 104.79671 223.9544 104.843704 223.9624M80.1577 223.9624C 80.203705 223.9544 80.2517 223.9514 80.299706 223.9514C 80.341705 223.9514 80.382706 223.9534 80.423706 223.9604C 80.3767 223.9144 80.3307 223.8694 80.284706 223.82341C 80.24271 223.78241 80.201706 223.7404 80.160706 223.69841C 80.1667 223.73941 80.1697 223.7804 80.1697 223.8224C 80.1697 223.8694 80.1657 223.91641 80.1577 223.9624M76.826706 221.81041C 76.8217 221.7734 76.8187 221.7364 76.8187 221.6994C 76.8187 221.47841 76.9047 221.2704 77.0607 221.11441C 77.217705 220.9574 77.425705 220.8714 77.645706 220.8714C 77.7517 220.8714 77.85371 220.8914 77.94971 220.9294C 77.6407 220.45241 77.357704 219.96341 77.1007 219.4664C 77.07471 219.6414 76.994705 219.8034 76.8667 219.9304C 76.7107 220.08641 76.5037 220.17241 76.2817 220.17241C 76.0987 220.17241 75.923706 220.1134 75.7807 220.0034C 76.093704 220.6194 76.440704 221.22241 76.826706 221.81041M108.174706 221.81041C 108.55971 221.22241 108.9077 220.6194 109.2207 220.0034C 109.0757 220.1134 108.9017 220.17241 108.718704 220.17241C 108.496704 220.17241 108.288704 220.08641 108.134705 219.9314C 108.0067 219.8034 107.925705 219.6414 107.899704 219.4664C 107.64371 219.96341 107.3597 220.45241 107.051704 220.9294C 107.146706 220.8914 107.2497 220.8714 107.354706 220.8714C 107.5757 220.8714 107.7827 220.9574 107.939705 221.11441C 108.0957 221.2704 108.1827 221.47841 108.1827 221.6994C 108.1827 221.7364 108.1797 221.7734 108.174706 221.81041M94.160706 220.2014C 93.8077 219.6504 93.2387 218.6064 93.5317 217.9664C 93.593704 217.8314 93.687706 217.7244 93.8097 217.6494L93.8097 217.6494L93.745705 217.6764C 93.162704 217.92241 93.0987 218.2354 93.1017 218.44841C 93.106705 218.97241 93.5837 219.6474 94.160706 220.2014M90.83971 220.2014C 91.4167 219.6474 91.8937 218.9734 91.898705 218.44841C 91.9017 218.2354 91.8377 217.92241 91.2547 217.6764L91.2547 217.6764L91.1927 217.6504C 91.312706 217.7244 91.4067 217.8314 91.468704 217.9664C 91.7617 218.60541 91.1927 219.6494 90.83971 220.2014M90.0827 219.7594C 90.1137 219.45241 90.065704 219.1354 90.021706 218.8434C 89.9557 218.4064 89.898705 218.02841 90.134705 217.75441C 90.148705 217.7374 90.1647 217.7214 90.1807 217.7064C 90.0177 217.7444 89.9027 217.8034 89.841705 217.8824C 89.663704 218.1124 89.8097 218.67441 89.9497 219.2184C 89.995705 219.39441 90.0427 219.5764 90.0827 219.7594M94.9177 219.7584C 94.9587 219.5764 95.00571 219.39441 95.050705 219.2194C 95.190704 218.67441 95.3367 218.1124 95.15871 217.8824C 95.0977 217.8044 94.9837 217.7444 94.8207 217.7074C 94.8367 217.72241 94.8517 217.7384 94.8657 217.7534C 95.1017 218.0274 95.0447 218.4054 94.97771 218.8434C 94.9347 219.1344 94.8867 219.45241 94.9177 219.7584M75.4567 219.3304C 75.4607 219.11641 75.5457 218.9134 75.6977 218.7624C 75.85271 218.6064 76.0607 218.51941 76.2817 218.51941C 76.4307 218.51941 76.5717 218.55841 76.6957 218.6304C 76.4637 218.1154 76.258705 217.5914 76.079704 217.0614C 76.0407 217.1884 75.9707 217.3044 75.8737 217.4004C 75.717705 217.5564 75.510704 217.64241 75.288704 217.64241C 75.0677 217.64241 74.8607 217.5564 74.703705 217.4004L74.703705 217.4004L74.6947 217.3914C 74.911705 218.04741 75.1647 218.6944 75.4567 219.3304M109.5447 219.3294C 109.8367 218.6944 110.08971 218.0464 110.3067 217.3894L110.3067 217.3894L110.2957 217.4004C 110.1397 217.5564 109.9317 217.64241 109.7107 217.64241C 109.4897 217.64241 109.2827 217.5564 109.1257 217.4004C 109.0277 217.3014 108.9597 217.1844 108.92171 217.06041C 108.74271 217.59041 108.536705 218.11441 108.3047 218.6304C 108.4287 218.55841 108.5697 218.51941 108.718704 218.51941C 108.938705 218.51941 109.145706 218.60541 109.302704 218.7614C 109.454704 218.9134 109.5407 219.1154 109.5447 219.3294M102.9567 218.5964C 102.96471 218.51741 102.97771 218.4324 102.9997 218.3414C 103.14371 217.7354 103.5127 217.6084 103.7977 217.6084C 104.007706 217.6084 104.22771 217.6774 104.4617 217.7514C 104.7357 217.8374 105.04671 217.9364 105.38071 217.9364C 105.7477 217.9364 106.0957 217.8164 106.440704 217.5674L106.440704 217.5674L107.274704 216.9684L107.274704 216.9684L107.245705 217.0804C 107.2827 216.9744 107.3197 216.86641 107.356705 216.75641C 107.5677 216.14441 107.7847 215.51741 108.0587 214.9104C 107.40871 215.1114 107.0827 215.6484 106.788704 216.1334L106.788704 216.1334L106.7197 216.2454C 106.4317 216.7144 106.10271 217.0264 105.437706 217.0264C 105.26871 217.0264 105.0737 217.0074 104.8057 216.9674C 104.715706 216.9534 104.6257 216.9474 104.535706 216.9474C 103.9987 216.9474 103.507706 217.18341 103.2227 217.57741C 103.0177 217.8614 102.9287 218.2064 102.9567 218.5964M82.0437 218.5944C 82.0707 218.2054 81.981705 217.8614 81.7777 217.57741C 81.4917 217.18341 81.0017 216.9474 80.46471 216.9474C 80.3747 216.9474 80.28371 216.9534 80.1937 216.9674C 79.927704 217.0074 79.731705 217.0264 79.56171 217.0264C 78.896706 217.0264 78.5687 216.7144 78.2807 216.2454L78.2807 216.2454L78.2127 216.1334C 77.92171 215.6544 77.6017 215.1244 76.9467 214.9174C 77.218704 215.5224 77.4337 216.1474 77.64371 216.75641C 77.6817 216.86641 77.718704 216.9734 77.75571 217.0784L77.75571 217.0784L77.7257 216.9674L77.7257 216.9674L78.5607 217.5674C 78.9057 217.8164 79.2527 217.9364 79.619705 217.9364C 79.953705 217.9364 80.2647 217.8374 80.538704 217.7514C 80.771706 217.6774 80.99271 217.6084 81.203705 217.6084C 81.4877 217.6084 81.856705 217.7354 82.0017 218.3414C 82.022705 218.4314 82.036705 218.51541 82.0437 218.5944M91.0817 216.68741C 91.2377 215.7634 91.718704 215.12941 92.230705 214.5824L92.230705 214.5824L92.4997 214.29541L92.4997 214.29541L92.76971 214.5814C 93.4347 215.29141 93.7927 215.93341 93.9187 216.6774C 93.9177 216.0744 93.8607 215.1894 93.509705 214.5614L93.509705 214.5614L92.9147 213.5674L92.9147 213.5674L92.4997 212.8744L92.4997 212.8744L92.0857 213.5674L92.0857 213.5674L91.495705 214.5524C 91.1387 215.1904 91.0827 216.0824 91.0817 216.68741M74.4757 216.6734C 74.5037 216.5114 74.579704 216.3564 74.704704 216.2314C 74.8607 216.07541 75.0677 215.98941 75.288704 215.98941C 75.47871 215.98941 75.65871 216.0524 75.8057 216.1694C 75.6537 215.6244 75.5307 215.07341 75.4347 214.51941C 75.39371 214.60341 75.33971 214.6814 75.270706 214.7494C 75.1147 214.9064 74.9077 214.9924 74.68671 214.9924C 74.465706 214.9924 74.257706 214.9064 74.1017 214.7484C 74.0717 214.7194 74.0447 214.6884 74.020706 214.6554C 74.134705 215.3334 74.285706 216.0074 74.4757 216.6734M110.524704 216.6734C 110.715706 216.00641 110.8667 215.3324 110.979706 214.6544C 110.9557 214.68741 110.9287 214.7194 110.897705 214.7484C 110.7417 214.9064 110.53371 214.9924 110.312706 214.9924C 110.092705 214.9924 109.885704 214.9064 109.72771 214.7484C 109.6597 214.6804 109.604706 214.60141 109.565704 214.5184C 109.4707 215.07341 109.3467 215.6234 109.1947 216.1694C 109.340706 216.0524 109.520706 215.98941 109.7107 215.98941C 109.9327 215.98941 110.1397 216.07541 110.2957 216.2314C 110.4177 216.35341 110.496704 216.50641 110.524704 216.6734M103.6847 215.1564L107.2067 211.6334L107.2067 211.6334L107.1977 211.6254L107.1977 211.6254L107.21271 211.6124L107.21271 211.6124L103.6847 208.08441L103.6847 208.08441L103.243706 208.4044L103.243706 208.4044L106.1987 211.3604L106.1987 211.3604L106.4597 211.6194L106.4597 211.6194L106.1987 211.8804L106.1987 211.8804L103.243706 214.8354L103.243706 214.8354L103.6847 215.1564M81.314705 215.1554L81.75571 214.8354L81.75571 214.8354L78.801704 211.8804L78.801704 211.8804L78.5417 211.6194L78.5417 211.6194L78.801704 211.3604L78.801704 211.3604L81.75571 208.40541L81.75571 208.40541L81.314705 208.0854L81.314705 208.0854L77.78371 211.6174L77.78371 211.6174L77.801704 211.6344L77.801704 211.6344L77.7977 211.6374L77.7977 211.6374L81.314705 215.1554M99.0877 214.3624C 99.3617 214.3624 99.7207 214.26941 100.0987 214.1714C 100.2767 214.1244 100.4567 214.0784 100.6387 214.0384C 100.5727 214.03241 100.5047 214.0294 100.4337 214.0294C 100.190704 214.0294 99.9427 214.0664 99.7237 214.0994C 99.5267 214.1284 99.340706 214.15741 99.174706 214.15741C 99.078705 214.15741 98.788704 214.1564 98.5867 213.9404C 98.6257 214.1094 98.6827 214.20241 98.7337 214.2534C 98.7797 214.3004 98.8667 214.3624 99.0877 214.3624M85.913704 214.3624C 86.134705 214.3624 86.2217 214.3004 86.2677 214.2534C 86.3187 214.20241 86.3757 214.1094 86.4147 213.9404C 86.2127 214.15741 85.92271 214.15741 85.826706 214.15741C 85.659706 214.15741 85.4747 214.1284 85.2767 214.0994C 85.0587 214.0664 84.8097 214.0294 84.5677 214.0294C 84.495705 214.0294 84.427704 214.03241 84.3627 214.0384C 84.5437 214.0784 84.7247 214.1244 84.9017 214.1714C 85.2807 214.26941 85.6387 214.3624 85.913704 214.3624M73.90871 213.8864C 73.9487 213.7744 74.0137 213.6694 74.10271 213.5794C 74.259705 213.42441 74.466705 213.33841 74.68671 213.33841C 74.9067 213.33841 75.1147 213.42441 75.270706 213.5804C 75.2817 213.5914 75.2927 213.6024 75.302704 213.61441C 75.145706 212.2894 75.145706 210.9514 75.302704 209.6264C 75.2927 209.6384 75.2817 209.6494 75.270706 209.6604C 75.1147 209.8164 74.9067 209.9024 74.68671 209.9024C 74.466705 209.9024 74.259705 209.8164 74.10271 209.6604C 74.0137 209.57141 73.9487 209.46541 73.90871 209.3544C 73.7227 210.8604 73.7227 212.3804 73.90871 213.8864M111.091705 213.8844C 111.2777 212.3804 111.2777 210.8604 111.091705 209.35541C 111.051704 209.4684 110.9857 209.57341 110.897705 209.6604C 110.7417 209.8164 110.53371 209.9024 110.312706 209.9024C 110.092705 209.9024 109.885704 209.8164 109.72771 209.6604C 109.717705 209.6494 109.7077 209.6384 109.6977 209.62741C 109.8537 210.9514 109.8537 212.2894 109.6977 213.6134C 109.7077 213.6024 109.718704 213.5914 109.7287 213.5804C 109.885704 213.42441 110.092705 213.33841 110.313705 213.33841C 110.5347 213.33841 110.7417 213.42441 110.897705 213.5794C 110.9857 213.6674 111.051704 213.77141 111.091705 213.8844M101.0827 213.28241C 100.5257 212.7014 99.8457 212.2214 99.3177 212.2214C 99.107704 212.2214 98.800705 212.2884 98.5567 212.8674L98.5567 212.8674L98.5297 212.9314C 98.67171 212.70241 98.926704 212.57141 99.25571 212.57141C 99.7917 212.57141 100.5027 212.9084 101.0827 213.28241M83.9187 213.2814C 84.4987 212.9084 85.2097 212.57141 85.745705 212.57141C 86.07471 212.57141 86.329704 212.70241 86.4717 212.9304L86.4717 212.9304L86.4437 212.8674C 86.19971 212.2884 85.8927 212.2214 85.6827 212.2214C 85.1557 212.2214 84.4767 212.70041 83.9187 213.2814M97.5577 213.0384C 96.813705 212.9134 96.17171 212.5544 95.4617 211.8894L95.4617 211.8894L95.174706 211.6194L95.174706 211.6194L95.4617 211.35141C 96.17171 210.68541 96.813705 210.32741 97.5577 210.2014C 96.633705 210.20241 95.9187 210.3424 95.4417 210.6094L95.4417 210.6094L94.4467 211.2044L94.4467 211.2044L93.7537 211.6194L93.7537 211.6194L94.4467 212.0354L94.4467 212.0354L95.4327 212.6254C 95.9187 212.8984 96.633705 213.0364 97.5577 213.0384M87.4437 213.0384C 88.36671 213.0364 89.0817 212.8984 89.5597 212.6304L89.5597 212.6304L90.552704 212.0354L90.552704 212.0354L91.245705 211.6194L91.245705 211.6194L90.552704 211.2044L90.552704 211.2044L89.5677 210.6154C 89.0817 210.3424 88.36671 210.20241 87.4437 210.2014C 88.18671 210.32741 88.828705 210.6864 89.538704 211.35141L89.538704 211.35141L89.8247 211.6194L89.8247 211.6194L89.538704 211.8894C 88.828705 212.5544 88.18671 212.9134 87.4437 213.0384M92.4997 212.1344L92.788704 211.8484L92.788704 211.8484L93.0147 211.6194L93.0147 211.6194L92.798706 211.4024L92.798706 211.4024L92.4997 211.1064L92.4997 211.1064L92.232704 211.3704L92.232704 211.3704L91.9857 211.6194L91.9857 211.6194L92.24271 211.87941L92.24271 211.87941L92.4997 212.1344M93.2897 211.3424L93.995705 210.62941C 94.133705 210.49141 94.3477 210.2624 94.620705 209.9734C 95.7097 208.8164 97.7357 206.6624 99.5597 205.18741L99.5597 205.18741L99.8167 204.97841L99.8167 204.97841L100.052704 205.2124L100.052704 205.2124L103.08971 208.2504L103.08971 208.2504L103.6267 208.0274L103.6267 208.0274L100.562706 204.96341L100.562706 204.96341L100.246704 204.6474L100.246704 204.6474L100.618706 204.3974C 101.452705 203.8354 102.1107 203.5634 102.6277 203.5634C 102.675705 203.5634 102.7217 203.5654 102.7677 203.5704L102.7677 203.5704L103.2247 203.61641L103.2247 203.61641L103.145706 203.8544C 103.1577 203.83641 103.1707 203.8194 103.1837 203.8034C 103.4207 203.5034 103.8227 203.33841 104.3167 203.33841C 105.037704 203.33841 105.8907 203.6894 106.4567 204.2964C 105.9577 203.4514 105.272705 202.9124 104.0737 202.9124C 103.5017 202.9124 102.8167 203.0364 102.0397 203.28041L102.0397 203.28041L101.7537 202.60541L101.7537 202.60541L102.245705 202.33441C 103.1667 201.8264 104.312706 201.1944 105.49071 200.6614L105.49071 200.6614L105.7507 200.5444L105.7507 200.5444L105.9297 200.76541C 106.1377 201.0224 106.3367 201.28241 106.5277 201.5464L106.5277 201.5464L106.5277 201.5414C 106.5277 201.32141 106.6137 201.1134 106.770706 200.9564C 106.926704 200.8014 107.134705 200.71541 107.354706 200.71541C 107.4987 200.71541 107.6367 200.7514 107.758705 200.8204C 107.663704 200.6864 107.5667 200.5544 107.468704 200.42241L107.468704 200.42241L107.14371 199.9904L107.14371 199.9904L107.6657 199.8464C 108.215706 199.6954 108.7107 199.6154 109.174706 199.6084C 109.6407 199.6084 110.0067 199.7574 110.2637 200.0524C 110.6167 200.45941 110.72771 201.09941 110.5997 202.0084L110.5997 202.0084L110.5607 202.26541C 110.4357 203.0554 110.326706 203.7494 111.1977 204.33641C 111.6837 202.6394 111.5837 200.9404 110.9197 200.0094C 110.5707 199.5204 110.0827 199.2724 109.44971 199.2724C 108.8487 199.2774 108.1037 199.43341 107.2367 199.7354L107.2367 199.7354L106.996704 199.8194L106.996704 199.8194L106.8327 199.6234C 106.7067 199.4724 106.577705 199.32341 106.4487 199.1774C 106.4727 199.25441 106.4837 199.3354 106.4837 199.41841C 106.4837 199.6394 106.397705 199.8474 106.2417 200.0034C 106.0857 200.1604 105.8787 200.2454 105.6567 200.2454C 105.5967 200.2454 105.535706 200.23941 105.47771 200.22641L105.47771 200.22641L105.6287 200.39241L105.6287 200.39241L105.1857 200.6074C 104.3087 201.03441 103.4837 201.48941 102.8227 201.85541L102.8227 201.85541L102.758705 201.8914L102.758705 201.8914L101.9767 202.30841L101.9767 202.30841L102.052704 202.0504L102.052704 202.0504L101.812706 202.1134L101.812706 202.1134L102.22771 201.3624L102.22771 201.3624L102.2617 201.3034C 102.6277 200.64041 103.0847 199.8144 103.5127 198.9344L103.5127 198.9344L103.72771 198.4924L103.72771 198.4924L103.8947 198.64441C 103.8357 198.37741 103.909706 198.0854 104.1167 197.87741C 104.272705 197.7224 104.479706 197.6364 104.70071 197.6364C 104.78371 197.6364 104.8647 197.6484 104.9417 197.6714C 104.7957 197.5414 104.645706 197.4124 104.495705 197.2864L104.495705 197.2864L104.300705 197.1224L104.300705 197.1224L104.384705 196.8824C 104.68671 196.0164 104.842705 195.27141 104.8477 194.67041C 104.8517 194.1644 104.688705 193.7424 104.3637 193.4144C 103.856705 192.9034 102.966705 192.6214 101.855705 192.6214C 101.1857 192.6214 100.47771 192.7254 99.78371 192.92241C 100.2087 193.5464 100.6727 193.6414 101.0827 193.6414C 101.3367 193.6414 101.6007 193.6004 101.854706 193.5594L101.854706 193.5594L102.1107 193.52141C 102.35271 193.48741 102.577705 193.4704 102.7807 193.4704C 103.385704 193.4704 103.841705 193.6224 104.1367 193.92241C 104.3927 194.1824 104.5197 194.5384 104.5117 194.9814C 104.50571 195.4114 104.427704 195.8934 104.273705 196.4544L104.273705 196.4544L104.13071 196.9774L104.13071 196.9774L103.6967 196.6524C 103.565704 196.5544 103.4337 196.4574 103.300705 196.3634C 103.368706 196.4854 103.4047 196.6224 103.4047 196.76541C 103.4047 196.9864 103.3187 197.1944 103.162704 197.3504C 103.00671 197.50641 102.798706 197.5924 102.577705 197.5924C 102.57571 197.5924 102.5727 197.5924 102.5697 197.5914C 102.8367 197.78441 103.0987 197.9844 103.35371 198.1924L103.35371 198.1924L103.57471 198.3704L103.57471 198.3704L103.4587 198.62941C 102.9227 199.8154 102.285706 200.9674 101.774704 201.89441L101.774704 201.89441L101.5147 202.36841L101.5147 202.36841L100.83971 202.0804C 101.645706 199.5134 101.065704 198.39041 99.8187 197.6604C 100.4997 198.2874 100.86771 199.2754 100.7657 200.0684C 100.7117 200.47441 100.5317 200.7884 100.2617 200.97641L100.2617 200.97641L100.5037 200.89641L100.5037 200.89641L100.549706 201.35341C 100.60271 201.89241 100.3337 202.5944 99.7237 203.5014L99.7237 203.5014L99.4737 203.8734L99.4737 203.8734L99.1567 203.5574L99.1567 203.5574L96.093704 200.4944L96.093704 200.4944L95.869705 201.0314L95.869705 201.0314L98.9067 204.0684L98.9067 204.0684L99.1417 204.3024L99.1417 204.3024L98.9327 204.56041C 97.4597 206.38141 95.3087 208.4064 94.1517 209.4944C 93.8597 209.76941 93.63071 209.9854 93.4897 210.1244L93.4897 210.1244L92.7777 210.8294L92.7777 210.8294L92.9707 211.1524L92.9707 211.1524L93.2897 211.3424M91.7107 211.3424L92.0297 211.1504L92.0297 211.1504L92.2227 210.8294L92.2227 210.8294L91.509705 210.1244C 91.369705 209.9854 91.1407 209.76941 90.8477 209.4944C 89.6917 208.4064 87.5407 206.3804 86.0667 204.56041L86.0667 204.56041L85.8587 204.3024L85.8587 204.3024L86.093704 204.0684L86.093704 204.0684L89.13171 201.03041L89.13171 201.03041L88.9077 200.49341L88.9077 200.49341L85.8447 203.5574L85.8447 203.5574L85.5277 203.8734L85.5277 203.8734L85.2777 203.5014C 84.6677 202.5934 84.395706 201.8914 84.45071 201.35341L84.45071 201.35341L84.496704 200.89641L84.496704 200.89641L84.7387 200.97641C 84.4697 200.7894 84.288704 200.4754 84.2357 200.0684C 84.132706 199.2754 84.5017 198.2874 85.1807 197.6604C 83.9347 198.39041 83.354706 199.5144 84.160706 202.0804L84.160706 202.0804L83.4857 202.36841L83.4857 202.36841L83.215706 201.8764C 82.7077 200.9544 82.07471 199.80841 81.5417 198.62941L81.5417 198.62941L81.424706 198.3704L81.424706 198.3704L81.6447 198.1924C 81.9017 197.9844 82.162704 197.78441 82.4297 197.5914C 82.427704 197.5924 82.424706 197.5924 82.42271 197.5924C 82.20071 197.5924 81.993706 197.5054 81.8387 197.3504C 81.6827 197.1944 81.5967 196.9864 81.5967 196.76541C 81.5967 196.6214 81.632706 196.4844 81.69971 196.3634C 81.5667 196.4574 81.4357 196.5544 81.3037 196.6524L81.3037 196.6524L80.870705 196.97641L80.870705 196.97641L80.72771 196.4554C 80.57571 195.9064 80.495705 195.4104 80.4887 194.9814C 80.480705 194.5384 80.606705 194.18341 80.8627 193.92241C 81.15871 193.6224 81.6147 193.4704 82.2197 193.4704C 82.42271 193.4704 82.647705 193.48741 82.8887 193.52141L82.8887 193.52141L83.14471 193.5594C 83.399704 193.6004 83.6647 193.6414 83.9177 193.6414C 84.327705 193.6414 84.7927 193.5464 85.216705 192.92241C 84.522705 192.7254 83.814705 192.6214 83.14471 192.6214C 82.03371 192.6214 81.14371 192.9034 80.6367 193.4134C 80.3107 193.7424 80.148705 194.1644 80.1527 194.6694C 80.1577 195.2744 80.313705 196.0184 80.61571 196.8824L80.61571 196.8824L80.69971 197.1224L80.69971 197.1224L80.5047 197.2864C 80.35271 197.4134 80.202705 197.5424 80.0587 197.6714C 80.135704 197.6484 80.216705 197.6364 80.299706 197.6364C 80.5197 197.6364 80.72771 197.7224 80.883705 197.8784C 81.0397 198.0354 81.1267 198.2424 81.1257 198.46341C 81.1257 198.5244 81.119705 198.58441 81.105705 198.64241L81.105705 198.64241L81.271706 198.4924L81.271706 198.4924L81.4867 198.9344C 81.9147 199.81241 82.369705 200.6364 82.7357 201.2984L82.7357 201.2984L82.770706 201.3624L82.770706 201.3624L83.176704 202.1214L83.176704 202.1214L82.9207 202.0514L82.9207 202.0514L82.981705 202.3004L82.981705 202.3004L82.2417 201.8914L82.2417 201.8914L82.177704 201.85541C 81.5157 201.48941 80.6917 201.03441 79.814705 200.6074L79.814705 200.6074L79.3727 200.39241L79.3727 200.39241L79.523705 200.2254C 79.465706 200.23941 79.4047 200.2454 79.343704 200.2454C 79.121704 200.2454 78.9147 200.1604 78.757706 200.00241C 78.60271 199.8464 78.5167 199.6384 78.5167 199.41841C 78.5167 199.3354 78.5277 199.2554 78.551704 199.1784C 78.4227 199.32341 78.2947 199.4724 78.1667 199.6244L78.1667 199.6244L78.0027 199.8194L78.0027 199.8194L77.7627 199.7354C 76.896706 199.43341 76.1527 199.2774 75.5317 199.2724C 74.9167 199.2724 74.4287 199.5204 74.079704 200.0094C 73.4167 200.9414 73.315704 202.6394 73.8037 204.33641C 74.673706 203.7494 74.563705 203.0554 74.438705 202.26541L74.438705 202.26541L74.399704 202.0084C 74.272705 201.0984 74.384705 200.4584 74.7377 200.0524C 74.993706 199.7574 75.3597 199.6084 75.8607 199.6084L75.8607 199.6084L75.8617 199.6084C 76.2897 199.6154 76.785706 199.6954 77.3357 199.8464L77.3357 199.8464L77.856705 199.9904L77.856705 199.9904L77.5327 200.42241C 77.4347 200.5544 77.3377 200.6864 77.24271 200.8204C 77.3647 200.7514 77.5027 200.71541 77.6447 200.71541C 77.86571 200.71541 78.0727 200.8004 78.229706 200.9564C 78.3867 201.1134 78.4727 201.32141 78.4727 201.5414L78.4727 201.5414L78.4727 201.54741C 78.663704 201.2834 78.8627 201.0224 79.0717 200.76541L79.0717 200.76541L79.2507 200.5444L79.2507 200.5444L79.509705 200.6614C 80.688705 201.1954 81.8367 201.82741 82.758705 202.3354L82.758705 202.3354L83.2477 202.60541L83.2477 202.60541L82.9607 203.28041C 82.1837 203.0364 81.4997 202.9124 80.927704 202.9124C 79.7267 202.9124 79.0427 203.45241 78.5437 204.29741C 79.1097 203.6894 79.9627 203.33841 80.6837 203.33841C 81.177704 203.33841 81.5807 203.5034 81.8177 203.8034C 81.8307 203.8194 81.843704 203.83641 81.854706 203.8544L81.854706 203.8544L81.7767 203.61641L81.7767 203.61641L82.2337 203.5704C 82.2787 203.5654 82.32571 203.5634 82.3727 203.5634C 82.8907 203.5634 83.54771 203.8354 84.38171 204.3974L84.38171 204.3974L84.7537 204.6474L84.7537 204.6474L84.43671 204.96341L84.43671 204.96341L81.3727 208.0274L81.3727 208.0274L81.909706 208.2504L81.909706 208.2504L84.9477 205.2124L84.9477 205.2124L85.1827 204.97841L85.1827 204.97841L85.439705 205.18741C 87.2637 206.6614 89.2897 208.8154 90.3787 209.97241C 90.6517 210.2624 90.8657 210.4904 91.0037 210.62941L91.0037 210.62941L91.7107 211.3424M99.3177 211.01941C 99.8457 211.01941 100.5257 210.5394 101.0827 209.9584C 100.5027 210.3314 99.7917 210.6694 99.25571 210.6694C 98.926704 210.6694 98.67171 210.5374 98.5297 210.3094L98.5297 210.3094L98.5567 210.3734C 98.800705 210.95241 99.107704 211.01941 99.3177 211.01941M85.6827 211.01941C 85.8927 211.01941 86.19971 210.95241 86.4437 210.3734L86.4437 210.3734L86.4717 210.3094C 86.329704 210.5374 86.07471 210.6694 85.745705 210.6694C 85.2097 210.6694 84.4987 210.3324 83.9187 209.95941C 84.4767 210.5404 85.1557 211.01941 85.6827 211.01941M92.4997 210.36641L92.9147 209.6734L92.9147 209.6734L93.5047 208.68741C 93.8597 208.0534 93.9177 207.1674 93.9187 206.5634C 93.7927 207.3074 93.4347 207.9494 92.76971 208.6584L92.76971 208.6584L92.4997 208.9454L92.4997 208.9454L92.230705 208.6584C 91.565704 207.94841 91.2077 207.3064 91.0817 206.5634C 91.0827 207.1674 91.1397 208.0514 91.4897 208.6784L91.4897 208.6784L92.0857 209.6734L92.0857 209.6734L92.4997 210.36641M86.4147 209.3004C 86.3747 209.13141 86.3177 209.0374 86.2677 208.9874C 86.2217 208.9404 86.134705 208.8784 85.912704 208.8784C 85.6387 208.8784 85.2807 208.9714 84.9017 209.0694C 84.7247 209.1154 84.5437 209.1614 84.3617 209.20241C 84.427704 209.2084 84.495705 209.21141 84.5677 209.21141C 84.8097 209.21141 85.0587 209.17441 85.2767 209.1414C 85.4747 209.1124 85.659706 209.0834 85.826706 209.0834C 85.92271 209.0834 86.2127 209.0834 86.4147 209.3004M98.5867 209.3004C 98.788704 209.0834 99.078705 209.0834 99.174706 209.0834C 99.340706 209.0834 99.5267 209.1124 99.7237 209.1414C 99.9427 209.17441 100.190704 209.21141 100.4337 209.21141C 100.5047 209.21141 100.5727 209.2084 100.6387 209.20241C 100.4567 209.1614 100.2767 209.1154 100.0997 209.0694C 99.7207 208.9714 99.3617 208.8784 99.0877 208.8784C 98.8667 208.8784 98.7797 208.9404 98.7337 208.9864C 98.6827 209.0374 98.6257 209.13141 98.5867 209.3004M109.565704 208.7234C 109.604706 208.6384 109.6597 208.56041 109.7287 208.49141C 109.885704 208.33441 110.092705 208.2484 110.312706 208.2484C 110.53371 208.2484 110.7417 208.33441 110.897705 208.49141C 110.9287 208.52141 110.9557 208.5524 110.979706 208.58641C 110.8667 207.9084 110.715706 207.2344 110.524704 206.5674C 110.496704 206.7344 110.4177 206.8874 110.2957 207.0094C 110.1397 207.1654 109.9317 207.2514 109.7107 207.2514C 109.520706 207.2514 109.340706 207.18741 109.1947 207.0704C 109.3467 207.6174 109.4707 208.1674 109.565704 208.7234M75.4347 208.7224C 75.5297 208.1674 75.6537 207.6174 75.8057 207.07141C 75.659706 207.18741 75.47871 207.2514 75.288704 207.2514C 75.0677 207.2514 74.8607 207.1654 74.703705 207.0084C 74.579704 206.8834 74.5037 206.72841 74.4757 206.5674C 74.285706 207.2334 74.134705 207.90741 74.020706 208.5854C 74.0447 208.5524 74.0717 208.52141 74.1017 208.49141C 74.258705 208.33441 74.465706 208.2484 74.68671 208.2484C 74.9077 208.2484 75.1147 208.33441 75.270706 208.49141C 75.340706 208.56041 75.3947 208.6384 75.4347 208.7224M76.9427 208.3304C 77.592705 208.1284 77.9177 207.5924 78.2127 207.1074L78.2127 207.1074L78.2807 206.9944C 78.5687 206.5264 78.896706 206.2144 79.56171 206.2144C 79.731705 206.2144 79.927704 206.2324 80.1937 206.2734C 80.284706 206.2864 80.3747 206.2934 80.46471 206.2934C 81.0017 206.2934 81.49271 206.0574 81.7777 205.6614C 81.981705 205.37941 82.0707 205.0354 82.0437 204.64641C 82.036705 204.7254 82.022705 204.8094 82.0017 204.8984C 81.856705 205.5054 81.4877 205.6324 81.203705 205.6324C 80.99271 205.6324 80.771706 205.5634 80.538704 205.48941C 80.2647 205.4024 79.953705 205.3044 79.619705 205.3044C 79.2527 205.3044 78.9057 205.42441 78.5607 205.6734L78.5607 205.6734L77.7257 206.2734L77.7257 206.2734L77.75571 206.1604C 77.718704 206.2664 77.6817 206.3744 77.64371 206.4834C 77.4327 207.0954 77.216705 207.7234 76.9427 208.3304M108.0547 208.32341C 107.7827 207.7184 107.5667 207.0934 107.356705 206.4844C 107.3197 206.3744 107.2827 206.26741 107.245705 206.1614L107.245705 206.1614L107.274704 206.2724L107.274704 206.2724L106.440704 205.6734C 106.0957 205.42441 105.7477 205.3044 105.38071 205.3044C 105.04671 205.3044 104.7357 205.4024 104.4627 205.48941C 104.22771 205.5634 104.007706 205.6324 103.7977 205.6324C 103.5127 205.6324 103.14371 205.5054 102.9997 204.8984C 102.97771 204.80841 102.96471 204.7234 102.9567 204.64441C 102.9297 205.0334 103.0177 205.3784 103.2227 205.6614C 103.507706 206.0574 103.9987 206.2934 104.534706 206.2934C 104.6247 206.2934 104.715706 206.2864 104.8067 206.2734C 105.0727 206.2324 105.26871 206.2144 105.437706 206.2144C 106.10271 206.2144 106.4317 206.5264 106.7207 206.9944L106.7207 206.9944L106.788704 207.1074C 107.078705 207.5854 107.399704 208.1154 108.0547 208.32341M108.92171 206.1804C 108.9597 206.0564 109.0277 205.9394 109.1267 205.84041C 109.2827 205.6844 109.4897 205.5984 109.7107 205.5984C 109.9317 205.5984 110.1397 205.6844 110.2947 205.8394L110.2947 205.8394L110.3067 205.85141C 110.08971 205.1944 109.8367 204.5464 109.5447 203.9104C 109.5407 204.1244 109.454704 204.32741 109.302704 204.4794C 109.145706 204.6344 108.937706 204.7204 108.718704 204.7204C 108.5697 204.7204 108.4287 204.6824 108.3047 204.6104C 108.536705 205.1254 108.74271 205.6504 108.92171 206.1804M76.079704 206.1794C 76.258705 205.6494 76.4637 205.1254 76.6957 204.6104C 76.5717 204.6824 76.4307 204.7204 76.2817 204.7204C 76.0607 204.7204 75.85271 204.6344 75.6987 204.4794C 75.5457 204.32741 75.4607 204.1244 75.4567 203.9104C 75.1647 204.54541 74.910706 205.1944 74.6947 205.84941C 74.6977 205.8464 74.70071 205.8434 74.704704 205.84041C 74.8607 205.6844 75.0677 205.5984 75.2897 205.5984C 75.510704 205.5984 75.717705 205.6844 75.8737 205.8394C 75.9707 205.9364 76.0397 206.0524 76.079704 206.1794M93.8107 205.5914C 93.687706 205.5164 93.593704 205.40941 93.5317 205.2744C 93.2387 204.6334 93.8077 203.5894 94.160706 203.0384C 93.5837 203.5924 93.106705 204.26741 93.1017 204.7924C 93.0987 205.0054 93.162704 205.3174 93.745705 205.5644L93.745705 205.5644L93.8107 205.5914M91.1927 205.59041L91.2547 205.5644C 91.8377 205.3174 91.9017 205.0054 91.898705 204.7914C 91.8937 204.26741 91.4167 203.5934 90.83971 203.0394C 91.1927 203.59041 91.7617 204.6344 91.468704 205.2744C 91.4067 205.40941 91.312706 205.51541 91.1927 205.59041M94.8197 205.53441C 94.982704 205.4954 95.0977 205.43741 95.15871 205.3574C 95.3367 205.1284 95.190704 204.5654 95.050705 204.02141C 95.00571 203.8454 94.9587 203.6644 94.9177 203.4824C 94.8867 203.7874 94.9347 204.1064 94.97771 204.3974C 95.0447 204.83441 95.1017 205.2124 94.8657 205.4864C 94.8517 205.5034 94.8357 205.51941 94.8197 205.53441M90.1797 205.5334C 90.163704 205.5184 90.148705 205.50241 90.134705 205.4864C 89.898705 205.2124 89.9557 204.83441 90.021706 204.3974C 90.065704 204.10541 90.1137 203.7864 90.0827 203.4814C 90.0427 203.6644 89.995705 203.8464 89.9497 204.0224C 89.8097 204.5664 89.663704 205.1284 89.841705 205.3584C 89.9017 205.4364 90.0167 205.4954 90.1797 205.5334M107.899704 203.7754C 107.925705 203.59941 108.0067 203.43741 108.133705 203.31041C 108.2897 203.1544 108.496704 203.0684 108.717705 203.0684C 108.9017 203.0684 109.0757 203.1264 109.2207 203.2374C 108.9077 202.6214 108.55971 202.0184 108.174706 201.4304C 108.1797 201.4664 108.1827 201.50441 108.1827 201.5414C 108.1827 201.7624 108.0957 201.9704 107.938705 202.1264C 107.7827 202.2834 107.5757 202.3694 107.354706 202.3694C 107.2497 202.3694 107.145706 202.34941 107.051704 202.3114C 107.3597 202.7884 107.64371 203.2774 107.899704 203.7754M77.1007 203.7744C 77.357704 203.2774 77.6407 202.7884 77.9487 202.3114C 77.85371 202.34941 77.7517 202.3694 77.645706 202.3694C 77.425705 202.3694 77.217705 202.2834 77.0607 202.1264C 76.9047 201.9704 76.8187 201.7624 76.8187 201.5414C 76.8187 201.50441 76.8217 201.4664 76.826706 201.4304C 76.440704 202.0184 76.093704 202.6214 75.7807 203.2374C 75.924706 203.1264 76.0987 203.0684 76.2827 203.0684C 76.5037 203.0684 76.7107 203.1544 76.8667 203.3094C 76.994705 203.43741 77.07471 203.5984 77.1007 203.7744M99.3387 201.1674C 99.382706 201.1674 99.4287 201.1664 99.4747 201.1624C 99.3927 201.1564 99.3077 201.1414 99.2217 201.1204C 98.9077 201.0464 98.6987 200.9104 98.5817 200.7054C 98.4007 200.3854 98.5127 200.0334 98.63071 199.65941C 98.8087 199.0984 99.009705 198.4624 98.4457 197.6794L98.4457 197.6794L97.8467 196.8454L97.8467 196.8454L97.9587 196.8744C 97.85271 196.8374 97.744705 196.8004 97.635704 196.7634C 97.022705 196.5524 96.395706 196.3354 95.788704 196.0634C 95.9907 196.71141 96.5267 197.0374 97.0137 197.3324L97.0137 197.3324L97.1257 197.4014C 97.9177 197.8884 97.9877 198.3854 97.8467 199.3154C 97.770706 199.81041 97.9077 200.3184 98.2137 200.6734C 98.4077 200.8994 98.760704 201.1674 99.3387 201.1674M85.661705 201.1674C 86.2397 201.1674 86.592705 200.8994 86.786705 200.6734C 87.091705 200.3184 87.22871 199.81041 87.1537 199.3144C 87.0127 198.3854 87.0837 197.8884 87.8757 197.4014L87.8757 197.4014L87.9887 197.3314C 88.4737 197.0364 89.009705 196.71141 89.2117 196.0634C 88.60371 196.33641 87.9767 196.5524 87.3647 196.7634C 87.25671 196.8004 87.149704 196.8374 87.0457 196.8734L87.0457 196.8734L87.1527 196.8454L87.1527 196.8454L86.5537 197.6794C 85.99171 198.4624 86.1927 199.0974 86.369705 199.6584C 86.4877 200.03241 86.6007 200.3854 86.4187 200.7054C 86.302704 200.9104 86.092705 201.0464 85.7787 201.1204C 85.6927 201.1414 85.607704 201.1564 85.5257 201.1624C 85.5717 201.1664 85.6167 201.1674 85.661705 201.1674M95.716705 200.87741L96.035706 200.4364L96.035706 200.4364L92.5007 196.9014L92.5007 196.9014L88.965706 200.43541L88.965706 200.43541L89.284706 200.8754L89.284706 200.8754L92.2397 197.9214L92.2397 197.9214L92.4997 197.6614L92.4997 197.6614L92.760704 197.9214L92.760704 197.9214L95.716705 200.87741M104.840706 199.5424C 104.8347 199.5014 104.8317 199.4604 104.8317 199.41841C 104.8317 199.3704 104.8357 199.3244 104.843704 199.2774C 104.79671 199.2854 104.7497 199.2894 104.70071 199.2894C 104.659706 199.2894 104.61771 199.2864 104.577705 199.28041C 104.6247 199.3264 104.67171 199.3714 104.717705 199.41841C 104.758705 199.45941 104.799706 199.5004 104.840706 199.5424M80.160706 199.5424C 80.20071 199.5004 80.2417 199.45941 80.2827 199.41841C 80.329704 199.3724 80.3767 199.3264 80.423706 199.28041C 80.382706 199.2864 80.341705 199.2894 80.299706 199.2894C 80.2517 199.2894 80.203705 199.2854 80.1577 199.2774C 80.1657 199.3244 80.1697 199.3704 80.1697 199.41841C 80.1697 199.4604 80.1667 199.5014 80.160706 199.5424M105.9597 198.6494L105.7697 198.4494L105.7697 198.4494L106.023705 198.1954L106.023705 198.1954L107.051704 197.16841L107.051704 197.16841L107.2937 196.9264L107.2937 196.9264L107.552704 197.1504C 108.023705 197.5564 108.4187 197.7534 108.7567 197.7534C 109.1687 197.7534 109.5147 197.45241 109.913704 197.10141C 110.369705 196.70241 110.8817 196.2554 111.606705 196.1904C 111.2067 195.7874 110.7477 195.5894 110.2217 195.5894C 109.6917 195.5894 109.091705 195.7904 108.438705 196.18741L108.438705 196.18741L107.1517 196.9674L107.1517 196.9674L107.9327 195.6814C 108.44971 194.8284 108.632706 194.07541 108.4757 193.4414C 108.3927 193.1064 108.2097 192.79741 107.9297 192.5164C 107.8627 193.2404 107.4057 193.7624 107.01871 194.2064C 106.3867 194.9284 105.9697 195.4064 106.9707 196.5684L106.9707 196.5684L107.1927 196.82741L107.1927 196.82741L106.9507 197.0694L106.9507 197.0694L105.925705 198.0964L105.925705 198.0964L105.6707 198.3504L105.6707 198.3504L105.4717 198.1604C 105.508705 198.2554 105.5277 198.3574 105.5277 198.4624C 105.5277 198.5104 105.523705 198.5574 105.5167 198.6044C 105.56171 198.5964 105.6097 198.5914 105.6577 198.5914C 105.7637 198.5914 105.8647 198.6114 105.9597 198.6494M79.0407 198.6484C 79.1367 198.6114 79.2377 198.5914 79.342705 198.5914C 79.3917 198.5914 79.438705 198.5964 79.4857 198.6044C 79.4597 198.4554 79.4757 198.3014 79.5307 198.1604L79.5307 198.1604L79.3307 198.3504L79.3307 198.3504L79.07571 198.0964L79.07571 198.0964L78.048706 197.0694L78.048706 197.0694L77.8077 196.82741L77.8077 196.82741L78.0297 196.5684C 79.0317 195.4064 78.6367 194.9534 77.981705 194.2054C 77.5947 193.7624 77.1377 193.2404 77.0697 192.5164C 76.7907 192.7964 76.607704 193.1064 76.524704 193.4414C 76.36771 194.07541 76.550705 194.8284 77.0667 195.6814L77.0667 195.6814L77.8487 196.9684L77.8487 196.9684L76.5607 196.18741C 75.90871 195.7904 75.3097 195.5894 74.7787 195.5894C 74.2517 195.5894 73.7937 195.7874 73.39371 196.1904C 74.11771 196.2554 74.63071 196.70241 75.0857 197.10141C 75.4857 197.45241 75.8317 197.7534 76.243706 197.7534C 76.5827 197.7534 76.9767 197.5564 77.4487 197.1504L77.4487 197.1504L77.7077 196.9264L77.7077 196.9264L77.9487 197.16841L77.9487 197.16841L78.9767 198.1954L78.9767 198.1954L79.230705 198.4494L79.230705 198.4494L79.0407 198.6484M83.189705 197.0744C 83.6697 196.76541 84.161705 196.4814 84.6667 196.2224C 84.4867 196.1994 84.3207 196.1174 84.190704 195.9874C 84.034706 195.8304 83.9477 195.6234 83.9477 195.4024C 83.9477 195.2174 84.008705 195.0414 84.119705 194.8984C 83.5017 195.21141 82.897705 195.5614 82.3107 195.94641C 82.3477 195.9414 82.384705 195.9394 82.42271 195.9394C 82.6437 195.9394 82.8507 196.0254 83.00671 196.1804C 83.162704 196.33641 83.2487 196.5444 83.2487 196.76541C 83.2487 196.8724 83.22771 196.9774 83.189705 197.0744M101.8107 197.0744C 101.770706 196.9774 101.7507 196.8724 101.7507 196.76541C 101.7507 196.5444 101.8377 196.33641 101.993706 196.1804C 102.149704 196.0254 102.356705 195.9394 102.577705 195.9394C 102.61571 195.9394 102.6527 195.9414 102.689705 195.94641C 102.10271 195.5614 101.4987 195.21141 100.88071 194.8984C 101.1297 195.2214 101.105705 195.6904 100.8107 195.9874C 100.6797 196.1174 100.5137 196.1994 100.3337 196.2224C 100.8377 196.4814 101.3307 196.76541 101.8107 197.0744M85.482704 195.8294C 86.00571 195.5944 86.537704 195.3864 87.079704 195.2044C 86.9447 195.1664 86.8227 195.0954 86.7217 194.9944C 86.564705 194.8374 86.47771 194.6304 86.47771 194.4104C 86.47771 194.1884 86.564705 193.9814 86.7217 193.8244L86.7217 193.8244L86.732704 193.81241C 86.0717 194.0294 85.42271 194.28441 84.786705 194.5764C 85.0037 194.5784 85.2067 194.6644 85.3587 194.8184C 85.5157 194.97441 85.6017 195.1814 85.6017 195.4024C 85.6017 195.5554 85.5607 195.70241 85.482704 195.8294M99.5177 195.8294C 99.439705 195.70241 99.398705 195.5554 99.398705 195.4024C 99.398705 195.1814 99.4847 194.97441 99.6417 194.8184C 99.7947 194.6644 99.9977 194.5784 100.2137 194.5764C 99.577705 194.28441 98.927704 194.0294 98.2667 193.81241C 98.2697 193.8164 98.274704 193.8204 98.2787 193.82541C 98.6017 194.14641 98.60271 194.67041 98.2797 194.9944C 98.1787 195.0954 98.0557 195.1664 97.92171 195.2044C 98.4627 195.3864 98.994705 195.5944 99.5177 195.8294M87.937706 194.9414C 88.49171 194.7864 89.052704 194.6604 89.618706 194.56241C 89.5277 194.52141 89.4437 194.4644 89.371704 194.3914C 89.215706 194.2354 89.1297 194.0284 89.1297 193.8074C 89.1297 193.5854 89.215706 193.3784 89.371704 193.2224C 89.399704 193.1934 89.4317 193.1664 89.46371 193.1434C 88.7817 193.2554 88.1087 193.4064 87.4457 193.5944C 87.6137 193.6224 87.7677 193.70241 87.8897 193.82541C 88.0457 193.9814 88.13171 194.1884 88.13171 194.4104C 88.13171 194.6064 88.062706 194.7924 87.937706 194.9414M97.06171 194.9414C 96.93671 194.7924 96.868706 194.6064 96.868706 194.4104C 96.868706 194.1884 96.954704 193.9814 97.1107 193.82541C 97.232704 193.70241 97.3877 193.6224 97.5547 193.5944C 96.8927 193.4064 96.218704 193.2554 95.536705 193.1434C 95.5687 193.1664 95.6007 193.1934 95.6287 193.2224C 95.95071 193.5444 95.95071 194.0694 95.6287 194.3914C 95.5567 194.46341 95.4727 194.52141 95.38171 194.56241C 95.9477 194.6604 96.508705 194.7864 97.06171 194.9414M94.50571 194.43341C 94.4897 194.42041 94.4747 194.4064 94.4597 194.3914C 94.1377 194.0694 94.1377 193.5444 94.4607 193.2224C 94.54671 193.1364 94.646706 193.0724 94.757706 193.0314C 94.0137 192.9404 93.259705 192.89441 92.5007 192.89441C 91.7407 192.89441 90.9867 192.9404 90.24271 193.0314C 90.35271 193.0724 90.454704 193.1364 90.5407 193.2224C 90.8617 193.54341 90.8627 194.0684 90.5407 194.39241C 90.5257 194.4064 90.5117 194.42041 90.495705 194.43341C 91.159706 194.3544 91.829704 194.3134 92.5007 194.3134C 93.1717 194.3134 93.841705 194.3544 94.50571 194.43341M107.454704 231.54741C 108.25371 229.20041 104.507706 228.9674 106.690704 226.4314L106.690704 226.4314L105.6647 225.4054C 105.3627 225.69241 105.052704 225.9694 104.731705 226.2364C 105.0197 227.0594 105.2107 227.8634 105.215706 228.56741C 105.22871 230.22841 103.7097 230.9874 101.855705 230.9874C 101.0147 230.9874 100.10271 230.8304 99.2357 230.5314C 99.7617 229.4694 100.426704 229.23041 101.0827 229.23041C 101.454704 229.23041 101.8227 229.3074 102.162704 229.35541C 102.3887 229.3864 102.5947 229.4024 102.7807 229.4024C 103.7207 229.4024 104.1547 229.0034 104.14371 228.26541C 104.1367 227.8454 104.0537 227.37741 103.9187 226.8834C 100.509705 229.43741 96.5047 230.7144 92.5007 230.7144C 88.495705 230.7144 84.4917 229.43741 81.0827 226.8834C 80.9467 227.37741 80.8637 227.8454 80.856705 228.26541C 80.8457 229.0034 81.2787 229.4024 82.2197 229.4024C 82.4057 229.4024 82.6107 229.3864 82.8377 229.35541C 83.177704 229.3074 83.54671 229.23041 83.9177 229.23041C 84.5737 229.23041 85.2387 229.4694 85.7637 230.5314C 84.895706 230.8304 83.9857 230.9874 83.14471 230.9874C 81.2907 230.9874 79.770706 230.22841 79.78371 228.56741C 79.7907 227.8634 79.979706 227.0594 80.2677 226.2364C 79.9487 225.9694 79.6377 225.69241 79.3367 225.4054L79.3367 225.4054L78.3097 226.4314C 80.493706 228.9674 76.7477 229.20041 77.5447 231.54741C 75.6167 230.3924 75.912704 228.75241 76.7527 227.3694C 76.1237 227.7494 75.4427 228.01941 74.7787 228.01941C 73.97871 228.01941 73.203705 227.6284 72.5717 226.5764C 72.8057 226.6554 73.0177 226.6894 73.21271 226.6894C 74.5327 226.6894 75.1017 225.1194 76.243706 225.1194C 76.6387 225.1194 77.10271 225.3064 77.688705 225.8114L77.688705 225.8114L78.716705 224.7854C 78.4287 224.4844 78.1517 224.17241 77.884705 223.85341C 77.0607 224.14041 76.257706 224.3304 75.5537 224.33641L75.5537 224.33641L75.5317 224.33641C 73.133705 224.33641 72.632706 221.1244 73.58971 218.3574C 75.2517 219.1794 74.896706 220.3444 74.7657 221.2834C 74.576706 222.6374 74.9617 223.2644 75.826706 223.2644L75.826706 223.2644L75.855705 223.2644C 76.274704 223.2574 76.743706 223.17441 77.2377 223.0384C 72.1297 216.2204 72.1297 207.0204 77.2377 200.20241C 76.743706 200.0664 76.274704 199.9834 75.855705 199.97641L75.855705 199.97641L75.826706 199.97641C 74.9617 199.97641 74.576706 200.60341 74.7657 201.9574C 74.896706 202.89641 75.2517 204.0614 73.58971 204.8834C 72.632706 202.11641 73.133705 198.9044 75.5317 198.9044L75.5317 198.9044L75.5537 198.9044C 76.257706 198.90941 77.0607 199.09941 77.884705 199.3874C 78.1517 199.0684 78.4287 198.75641 78.716705 198.4554L78.716705 198.4554L77.688705 197.4294C 77.10271 197.9344 76.6387 198.1214 76.243706 198.1214C 75.1017 198.1214 74.5327 196.5504 73.21271 196.5504C 73.0177 196.5504 72.8047 196.5854 72.5717 196.6634C 73.203705 195.6114 73.97871 195.2214 74.7787 195.2214C 75.4427 195.2214 76.1237 195.49141 76.7527 195.8714C 75.912704 194.48741 75.6167 192.8484 77.5447 191.6934C 76.7477 194.0404 80.493706 194.2734 78.3097 196.80841L78.3097 196.80841L79.3367 197.8354C 79.6377 197.5484 79.9487 197.27141 80.2677 197.0034C 79.979706 196.1814 79.7907 195.37741 79.78371 194.6734C 79.770706 193.0114 81.2907 192.2534 83.14471 192.2534C 83.9857 192.2534 84.896706 192.4104 85.7637 192.7094C 85.2387 193.77141 84.5737 194.0094 83.9177 194.0094C 83.54671 194.0094 83.177704 193.93341 82.8377 193.8854C 82.6107 193.8544 82.4057 193.83841 82.2197 193.83841C 81.2787 193.83841 80.8457 194.2364 80.856705 194.9754C 80.8637 195.3954 80.9467 195.8634 81.0827 196.3574C 84.4917 193.8024 88.495705 192.5264 92.5007 192.5264C 96.5047 192.5264 100.509705 193.8034 103.9187 196.3574C 104.0537 195.8634 104.1367 195.3954 104.14371 194.9754C 104.1547 194.2364 103.7217 193.83841 102.7807 193.83841C 102.5947 193.83841 102.3887 193.8544 102.162704 193.8854C 101.8227 193.93341 101.454704 194.0094 101.0827 194.0094C 100.426704 194.0094 99.7617 193.7704 99.2357 192.7094C 100.10271 192.4104 101.0147 192.2534 101.855705 192.2534C 103.7097 192.2534 105.22871 193.0114 105.215706 194.6734C 105.2107 195.37741 105.0197 196.1814 104.731705 197.0034C 105.052704 197.27141 105.3627 197.5484 105.6647 197.8354L105.6647 197.8354L106.690704 196.80841C 104.507706 194.2734 108.25371 194.0404 107.454704 191.6934C 109.383705 192.8484 109.08771 194.48741 108.2477 195.8714C 108.8767 195.49141 109.5577 195.2214 110.2217 195.2214C 111.020706 195.2214 111.79671 195.6114 112.427704 196.6634C 112.1947 196.5854 111.982704 196.5504 111.787704 196.5504C 110.467705 196.5504 109.898705 198.1214 108.7567 198.1214C 108.3617 198.1214 107.897705 197.9344 107.31171 197.4294L107.31171 197.4294L106.2847 198.4554C 106.5717 198.75641 106.8497 199.0684 107.11571 199.3874C 107.939705 199.09941 108.74271 198.90941 109.4467 198.9044L109.4467 198.9044L109.468704 198.9044C 111.8667 198.9044 112.3667 202.11641 111.411705 204.8834C 109.7487 204.0614 110.10271 202.89641 110.2347 201.9574C 110.424706 200.60341 110.038704 199.97641 109.174706 199.97641L109.174706 199.97641L109.1447 199.97641C 108.7267 199.9834 108.257706 200.0664 107.7637 200.20241C 112.871704 207.0204 112.871704 216.2204 107.7637 223.0384C 108.257706 223.17441 108.7267 223.2574 109.1447 223.2644L109.1447 223.2644L109.174706 223.2644C 110.038704 223.2644 110.424706 222.6374 110.2347 221.2834C 110.10271 220.3444 109.7487 219.1794 111.411705 218.3574C 112.3667 221.1244 111.8667 224.33641 109.468704 224.33641L109.468704 224.33641L109.4467 224.33641C 108.74271 224.3304 107.939705 224.14041 107.11571 223.85341C 106.8497 224.17241 106.5717 224.4844 106.2847 224.7854L106.2847 224.7854L107.31171 225.8114C 107.898705 225.3064 108.3617 225.1194 108.757706 225.1194C 109.898705 225.1194 110.467705 226.6904 111.787704 226.6894C 111.982704 226.6894 112.1947 226.6554 112.427704 226.5764C 111.79671 227.6294 111.020706 228.01941 110.2217 228.01941C 109.5577 228.01941 108.8767 227.7494 108.2477 227.3694C 109.08771 228.75241 109.383705 230.3924 107.454704 231.54741M95.0447 228.9754C 94.927704 228.9754 94.8107 229.0204 94.7207 229.1094C 94.5417 229.2884 94.5417 229.5784 94.7207 229.7574C 94.8107 229.84741 94.927704 229.8914 95.0447 229.8914C 95.161705 229.8914 95.2787 229.84741 95.36771 229.7574C 95.54771 229.5784 95.54771 229.2884 95.36771 229.1094C 95.2787 229.0204 95.161705 228.9754 95.0447 228.9754M89.9567 228.9754C 89.83871 228.9754 89.7217 229.0204 89.632706 229.1094C 89.452705 229.2884 89.452705 229.5784 89.632706 229.7574C 89.7217 229.84741 89.83871 229.8914 89.9567 229.8914C 90.0737 229.8914 90.190704 229.84741 90.2797 229.7574C 90.4597 229.5784 90.4587 229.2884 90.2797 229.1094C 90.190704 229.0204 90.0737 228.9754 89.9567 228.9754M97.6947 228.3724C 97.577705 228.3724 97.4607 228.4174 97.370705 228.5074C 97.1917 228.6864 97.1917 228.97641 97.370705 229.1554C 97.4607 229.2444 97.577705 229.2894 97.6947 229.2894C 97.81171 229.2894 97.9297 229.2444 98.01871 229.1554C 98.1977 228.97641 98.1977 228.6864 98.0197 228.5074C 97.9297 228.4174 97.81171 228.3724 97.6947 228.3724M87.3057 228.3724C 87.187706 228.3724 87.0707 228.4174 86.980705 228.5074C 86.802704 228.6864 86.802704 228.97641 86.980705 229.1554C 87.0707 229.2444 87.187706 229.2894 87.3057 229.2894C 87.42271 229.2894 87.5397 229.2444 87.6287 229.1554C 87.8087 228.97641 87.8087 228.6864 87.6287 228.5074C 87.5397 228.4174 87.42271 228.3724 87.3057 228.3724M83.8097 221.04941C 83.287704 222.0034 82.50671 223.3734 81.8777 224.7624C 84.9987 227.2924 88.7497 228.55841 92.5007 228.55841C 96.2507 228.55841 100.0017 227.2934 103.1227 224.7624C 102.494705 223.3734 101.7127 222.0034 101.190704 221.04941C 102.909706 226.5244 98.493706 226.09741 95.3377 227.81041C 95.312706 226.4304 96.2937 225.9174 96.9327 225.5264C 97.535706 225.1544 97.6147 224.8484 97.481705 223.9814C 97.31171 222.8694 98.0277 221.7034 99.3387 221.7034C 99.5977 221.7034 99.8797 221.7494 100.1837 221.8504C 100.230705 221.3694 99.925705 220.70041 99.4177 219.9444L99.4177 219.9444L92.50571 226.8564L92.50571 226.8564L92.50571 226.8654L92.50571 226.8654L92.4997 226.8614L92.4997 226.8614L92.495705 226.8654L92.495705 226.8654L92.495705 226.8564L92.495705 226.8564L85.5837 219.9444C 85.07471 220.70041 84.76971 221.3694 84.8167 221.8504C 85.120705 221.7494 85.4027 221.7034 85.661705 221.7034C 86.9727 221.7034 87.68671 222.8694 87.5187 223.9814C 87.3867 224.8484 87.465706 225.1544 88.0677 225.5264C 88.7057 225.9174 89.6857 226.4304 89.662704 227.81041C 86.507706 226.09741 82.090706 226.5244 83.8097 221.04941M100.2257 227.3794C 100.107704 227.3794 99.99071 227.42441 99.9017 227.5144C 99.7227 227.6934 99.7227 227.9834 99.9017 228.1614C 99.99071 228.2514 100.107704 228.2964 100.2257 228.2964C 100.343704 228.2964 100.4607 228.2514 100.549706 228.1614C 100.72771 227.9834 100.72771 227.6934 100.549706 227.5144C 100.4607 227.42441 100.343704 227.3794 100.2257 227.3794M84.774704 227.3794C 84.6577 227.3794 84.5407 227.42441 84.45071 227.5144C 84.271706 227.6934 84.271706 227.9834 84.45071 228.1614C 84.5407 228.2514 84.6577 228.2964 84.774704 228.2964C 84.8927 228.2964 85.009705 228.2514 85.0987 228.1614C 85.2767 227.9834 85.2767 227.6934 85.0987 227.5144C 85.009705 227.42441 84.8927 227.3794 84.774704 227.3794M102.577705 226.0174C 102.4607 226.0174 102.343704 226.0614 102.2537 226.1514C 102.07471 226.3294 102.07471 226.6194 102.2537 226.7984C 102.343704 226.8884 102.4607 226.93341 102.577705 226.93341C 102.6947 226.93341 102.81171 226.8884 102.9017 226.7984C 103.0817 226.6194 103.0817 226.3294 102.9017 226.1514C 102.81171 226.0614 102.6947 226.0174 102.577705 226.0174M82.42271 226.0174C 82.3057 226.0174 82.187706 226.0614 82.0997 226.1514C 81.9197 226.3294 81.9197 226.6194 82.0997 226.7984C 82.187706 226.8884 82.3057 226.93341 82.42271 226.93341C 82.5397 226.93341 82.6567 226.8884 82.745705 226.7984C 82.925705 226.6194 82.925705 226.3294 82.745705 226.1514C 82.6567 226.0614 82.5397 226.0174 82.42271 226.0174M99.6087 222.4394C 99.5167 222.4394 99.4157 222.45241 99.3067 222.4774C 98.0307 222.7804 99.9997 224.0304 98.745705 225.7764C 100.46471 225.3204 101.0267 222.4394 99.6087 222.4394M86.2547 225.7764C 85.0007 224.0304 86.9707 222.7804 85.6937 222.4774C 85.5847 222.45241 85.4837 222.4394 85.3917 222.4394C 83.9747 222.4394 84.536705 225.3204 86.2547 225.7764M104.70071 224.3194C 104.5837 224.3194 104.466705 224.36441 104.3767 224.4534C 104.1987 224.6324 104.1987 224.92241 104.3767 225.10141C 104.466705 225.1914 104.5837 225.2364 104.70071 225.2364C 104.8177 225.2364 104.9357 225.1914 105.024704 225.10141C 105.204704 224.92241 105.204704 224.6324 105.024704 224.4534C 104.9357 224.36441 104.8177 224.3194 104.70071 224.3194M80.298706 224.3194C 80.1817 224.3194 80.063705 224.36441 79.9757 224.4534C 79.79671 224.6324 79.79671 224.92241 79.9757 225.10141C 80.063705 225.1914 80.1817 225.2364 80.298706 225.2364C 80.4167 225.2364 80.53371 225.1914 80.6227 225.10141C 80.802704 224.92241 80.802704 224.6324 80.6227 224.4534C 80.53371 224.36441 80.4167 224.3194 80.298706 224.3194M91.7687 213.37741C 91.0737 214.0684 88.1837 216.6514 86.35371 218.9114L86.35371 218.9114L92.4997 225.0574L92.4997 225.0574L98.645706 218.9114C 96.8177 216.6514 93.926704 214.0684 93.229706 213.37741L93.229706 213.37741L93.82571 214.3724C 94.395706 215.3884 94.2767 216.90741 94.2767 217.2884L94.2767 217.2884L94.2957 217.2884C 97.0577 217.2884 94.4587 219.9744 95.38071 221.4904C 94.0817 220.9774 91.328705 218.2984 93.60271 217.33641C 93.60271 216.2904 93.2077 215.58841 92.4997 214.83441C 91.7937 215.58841 91.397705 216.2904 91.397705 217.33641C 93.6717 218.2984 90.9187 220.9774 89.619705 221.4904C 90.5427 219.9744 87.9427 217.2884 90.704704 217.2884L90.704704 217.2884L90.7237 217.2884C 90.7237 216.90741 90.604706 215.3884 91.173706 214.3724zM105.6577 223.36441C 105.5407 223.36441 105.423706 223.4084 105.3337 223.4974C 105.1547 223.6764 105.1547 223.9664 105.3337 224.14641C 105.423706 224.2354 105.5407 224.2804 105.6577 224.2804C 105.774704 224.2804 105.8927 224.2354 105.980705 224.14641C 106.160706 223.9664 106.160706 223.6774 105.980705 223.4974C 105.8927 223.4084 105.774704 223.36441 105.6577 223.36441M79.342705 223.36441C 79.2257 223.36441 79.107704 223.4084 79.01871 223.4974C 78.840706 223.6774 78.83971 223.9664 79.01871 224.14641C 79.1087 224.2354 79.2257 224.2804 79.342705 224.2804C 79.4597 224.2804 79.577705 224.2354 79.6667 224.14641C 79.8467 223.9664 79.8467 223.6764 79.6667 223.4974C 79.577705 223.4084 79.4607 223.36441 79.342705 223.36441M102.551704 221.70041C 102.924706 222.3744 103.398705 223.23041 103.8447 224.1454C 104.052704 223.9554 104.25671 223.7614 104.4567 223.5614L104.4567 223.5614L104.4567 223.56241C 104.6507 223.36841 104.840706 223.1684 105.024704 222.9644C 104.1087 222.5204 103.2547 222.0444 102.579704 221.6714L102.579704 221.6714L102.5857 221.6904L102.5857 221.6904L102.6097 221.71541L102.6097 221.71541L102.590706 221.7104L102.590706 221.7104L102.5957 221.7314L102.5957 221.7314L102.5697 221.7044zM80.5447 223.5614C 80.74271 223.7614 80.9467 223.9554 81.1557 224.1454C 81.6017 223.23041 82.07571 222.3744 82.4487 221.70041L82.4487 221.70041L82.4317 221.7044L82.4317 221.7044L82.4047 221.7314L82.4047 221.7314L82.410706 221.7104L82.410706 221.7104L82.3907 221.71541L82.3907 221.71541L82.4157 221.6904L82.4157 221.6904L82.4207 221.6714C 81.744705 222.0444 80.8917 222.5204 79.9767 222.9644C 80.159706 223.1684 80.3497 223.36841 80.5447 223.56241zM101.9297 220.31241C 102.884705 220.8334 104.2537 221.6154 105.64371 222.24341C 110.704704 215.9994 110.703705 207.24141 105.64371 200.9964C 104.2537 201.6254 102.884705 202.40741 101.9297 202.9284C 102.774704 202.6624 103.479706 202.5434 104.0737 202.5434C 107.3227 202.5434 107.24271 206.11441 108.690704 208.78241L108.690704 208.78241L108.6407 208.78241C 107.2977 208.78241 106.7927 207.8184 106.4057 207.18741C 106.1317 206.7424 105.89371 206.5824 105.437706 206.5824C 105.2767 206.5824 105.0877 206.60341 104.8607 206.6374C 104.7527 206.6544 104.6447 206.6614 104.534706 206.6614C 103.31171 206.6614 102.1707 205.6244 102.729706 203.9364C 102.6967 203.93341 102.662704 203.9314 102.6277 203.9314C 102.1567 203.9314 101.5277 204.2294 100.8237 204.70241L100.8237 204.70241L107.7367 211.61641L107.7367 211.61641L107.745705 211.61641L107.745705 211.61641L107.74071 211.6194L107.74071 211.6194L107.745705 211.6244L107.745705 211.6244L107.7367 211.6244L107.7367 211.6244L100.8237 218.5374C 101.5277 219.0104 102.1567 219.30841 102.6277 219.30841C 102.662704 219.30841 102.6967 219.3074 102.729706 219.3034C 102.1707 217.61641 103.31171 216.57741 104.535706 216.57741C 104.6447 216.57741 104.7527 216.58641 104.8607 216.60341C 105.0887 216.6374 105.2767 216.6584 105.437706 216.6584C 105.89371 216.6584 106.1317 216.4974 106.4057 216.0524C 106.7937 215.42241 107.2977 214.4574 108.6407 214.4574C 108.65671 214.4574 108.673706 214.4584 108.690704 214.4584C 107.24271 217.1264 107.3237 220.6974 104.0737 220.6974C 103.479706 220.6974 102.774704 220.57741 101.9297 220.31241M79.357704 200.9964C 74.2917 207.2454 74.299706 216.00441 79.357704 222.24341C 80.746704 221.6154 82.1167 220.8334 83.0707 220.31241C 82.2257 220.57741 81.520706 220.6974 80.927704 220.6974C 77.677704 220.6974 77.758705 217.1264 76.3107 214.4584C 76.326706 214.4584 76.343704 214.4574 76.3597 214.4574C 77.702705 214.4574 78.2077 215.42241 78.5957 216.0524C 78.868706 216.4974 79.106705 216.6584 79.56171 216.6584C 79.7237 216.6584 79.911705 216.6374 80.1387 216.60341C 80.2477 216.58641 80.355705 216.57741 80.46471 216.57741C 81.68671 216.57741 82.829704 217.61641 82.270706 219.3034C 82.3047 219.3074 82.3377 219.30841 82.3727 219.30841C 82.843704 219.30841 83.4727 219.0104 84.176704 218.5374L84.176704 218.5374L77.2637 211.6244L77.2637 211.6244L77.2547 211.6244L77.2547 211.6244L77.259705 211.6194L77.259705 211.6194L77.2547 211.61641L77.2547 211.61641L77.2637 211.61641L77.2637 211.61641L84.176704 204.70241C 83.4727 204.2294 82.843704 203.9314 82.3727 203.9314C 82.3377 203.9314 82.3047 203.93341 82.270706 203.9364C 82.829704 205.6244 81.687706 206.6614 80.46471 206.6614C 80.355705 206.6614 80.2477 206.6544 80.1387 206.6374C 79.911705 206.60341 79.7247 206.5824 79.56171 206.5824C 79.107704 206.5824 78.868706 206.7424 78.5957 207.18741C 78.2077 207.8184 77.703705 208.78241 76.3607 208.78241L76.3607 208.78241L76.3107 208.78241C 77.758705 206.11441 77.677704 202.5434 80.927704 202.5434C 81.520706 202.5434 82.2267 202.6624 83.0707 202.9284C 82.1167 202.40741 80.746704 201.6254 79.357704 200.9964M107.354706 221.2404C 107.2377 221.2404 107.120705 221.2854 107.0307 221.3744C 106.8517 221.5534 106.8517 221.8434 107.0307 222.0234C 107.120705 222.1124 107.2377 222.15741 107.354706 222.15741C 107.4727 222.15741 107.58971 222.1124 107.6797 222.0224C 107.857704 221.8434 107.857704 221.5534 107.6797 221.3744C 107.58971 221.2854 107.4727 221.2404 107.354706 221.2404M77.645706 221.2404C 77.5287 221.2404 77.411705 221.2854 77.3217 221.3744C 77.1427 221.5534 77.1427 221.8434 77.3217 222.0224C 77.411705 222.1124 77.5287 222.15741 77.645706 222.15741C 77.7627 222.15741 77.8797 222.1124 77.9697 222.0234C 78.147705 221.8434 78.147705 221.5534 77.9697 221.3744C 77.88071 221.2854 77.7637 221.2404 77.645706 221.2404M94.675705 220.3034C 94.216705 219.20241 95.135704 217.8934 94.301704 217.8934C 94.2767 217.8934 94.2497 217.89441 94.2227 217.89641C 93.4047 217.96541 93.9707 219.3314 94.675705 220.3034M90.6987 217.8934C 89.8647 217.8934 90.7827 219.20241 90.3247 220.3034C 91.0297 219.3314 91.5947 217.96541 90.7787 217.89641C 90.7507 217.89441 90.7247 217.8934 90.6987 217.8934M108.718704 218.8884C 108.6017 218.8884 108.4837 218.9324 108.39371 219.0224C 108.215706 219.2014 108.215706 219.4924 108.39371 219.6694C 108.4837 219.7594 108.6017 219.8044 108.718704 219.8044C 108.8357 219.8044 108.952705 219.7594 109.0417 219.67041C 109.2217 219.4924 109.2217 219.2014 109.0417 219.0224C 108.952705 218.9324 108.8357 218.8884 108.718704 218.8884M76.2827 218.8884C 76.1657 218.8884 76.048706 218.9324 75.9587 219.0224C 75.7797 219.2014 75.7797 219.4924 75.9587 219.67041C 76.048706 219.7594 76.1657 219.8044 76.2827 219.8044C 76.399704 219.8044 76.5177 219.7594 76.605705 219.6694C 76.785706 219.4924 76.785706 219.2014 76.605705 219.0224C 76.5177 218.9324 76.399704 218.8884 76.2827 218.8884M103.7977 217.97641C 103.5887 217.97641 103.438705 218.08441 103.357704 218.4274C 103.176704 219.1914 103.662704 219.53441 104.3167 219.53441C 105.1957 219.53441 106.3777 218.9154 106.6557 217.8674C 106.1927 218.1994 105.7657 218.3044 105.38071 218.3044C 104.703705 218.3044 104.159706 217.97641 103.7977 217.97641M78.3457 217.8674C 78.6237 218.9154 79.8057 219.53441 80.6837 219.53441C 81.3387 219.53441 81.8237 219.1914 81.64371 218.4274C 81.56171 218.08441 81.412704 217.97641 81.203705 217.97641C 80.840706 217.97641 80.29671 218.3044 79.619705 218.3044C 79.2347 218.3044 78.8087 218.1994 78.3457 217.8674M94.257706 212.35141C 94.9467 213.04741 97.5307 215.9384 99.7917 217.76741L99.7917 217.76741L105.937706 211.6194L105.937706 211.6194L99.7917 205.4734C 97.5307 207.3024 94.9467 210.1934 94.257706 210.8884L94.257706 210.8884L95.2527 210.2934C 95.968704 209.89241 96.9357 209.8324 97.576706 209.8324C 97.8457 209.8324 98.0567 209.8434 98.1687 209.8434C 98.163704 208.7984 98.538704 208.5104 99.0877 208.5104C 99.7657 208.5104 100.7087 208.94841 101.538704 208.94841C 101.8357 208.94841 102.118706 208.89241 102.368706 208.73941C 101.9977 209.6804 100.4867 211.3874 99.3177 211.3874C 98.8757 211.3874 98.480705 211.14241 98.217705 210.51741C 97.1707 210.51741 96.468704 210.9124 95.7137 211.6194C 96.468704 212.32741 97.1707 212.7234 98.217705 212.7234C 98.480705 212.0984 98.8747 211.85341 99.3177 211.85341C 100.4867 211.85341 101.9977 213.56041 102.368706 214.5014C 102.118706 214.3484 101.8357 214.2924 101.538704 214.2924C 100.7087 214.2924 99.7647 214.73041 99.0877 214.73041C 98.538704 214.73041 98.163704 214.4424 98.1687 213.3974C 98.0567 213.3974 97.8457 213.4084 97.576706 213.4084C 96.9357 213.4084 95.968704 213.3484 95.2527 212.9474zM85.2087 205.4734L79.06171 211.6194L79.06171 211.6194L85.2087 217.76741C 87.4697 215.9384 90.052704 213.04741 90.74171 212.35141L90.74171 212.35141L89.7487 212.9474C 89.0307 213.3484 88.063705 213.4084 87.423706 213.4084C 87.1557 213.4084 86.9437 213.3974 86.8317 213.3974C 86.8367 214.4424 86.4627 214.73041 85.913704 214.73041C 85.2357 214.73041 84.2927 214.2924 83.4627 214.2924C 83.1647 214.2924 82.88171 214.3484 82.63071 214.5014C 83.0027 213.5594 84.5137 211.85341 85.6827 211.85341C 86.1257 211.85341 86.5187 212.0984 86.78371 212.7234C 87.8307 212.7234 88.5327 212.32741 89.286705 211.6194C 88.5327 210.9124 87.8307 210.51741 86.78371 210.51741C 86.5187 211.14241 86.1257 211.3874 85.6827 211.3874C 84.5137 211.3874 83.0027 209.6804 82.63071 208.73941C 82.88171 208.89241 83.1647 208.94841 83.4617 208.94841C 84.2927 208.94841 85.2357 208.5104 85.913704 208.5104C 86.4627 208.5104 86.8367 208.7984 86.8317 209.8434C 86.9437 209.8434 87.1547 209.8324 87.423706 209.8324C 88.063705 209.8324 89.0317 209.89241 89.7487 210.2934L89.7487 210.2934L90.74171 210.8884C 90.052704 210.1934 87.4697 207.3024 85.2087 205.4734M109.7107 216.3574C 109.593704 216.3574 109.4767 216.4024 109.3877 216.4924C 109.2087 216.67041 109.2087 216.9604 109.3867 217.1394C 109.4767 217.2294 109.593704 217.2744 109.7107 217.2744C 109.827705 217.2744 109.9447 217.2294 110.0347 217.1394C 110.21471 216.9604 110.21471 216.67041 110.0347 216.4924C 109.9447 216.4024 109.827705 216.3574 109.7107 216.3574M75.288704 216.3574C 75.17171 216.3574 75.0547 216.4024 74.96471 216.4924C 74.786705 216.67041 74.786705 216.9604 74.96471 217.1394C 75.0547 217.2294 75.17171 217.2744 75.288704 217.2744C 75.4067 217.2744 75.523705 217.2294 75.6127 217.1394C 75.7927 216.9604 75.7927 216.67041 75.6127 216.4924C 75.523705 216.4024 75.4057 216.3574 75.288704 216.3574M110.313705 213.7064C 110.1957 213.7064 110.078705 213.7514 109.9887 213.8414C 109.8107 214.0204 109.8107 214.31041 109.9887 214.48941C 110.078705 214.5784 110.1957 214.6224 110.312706 214.6224C 110.4307 214.6224 110.548706 214.5784 110.6377 214.48941C 110.8167 214.31041 110.8167 214.0204 110.6377 213.84041C 110.548706 213.7514 110.4317 213.7064 110.313705 213.7064M74.68671 213.7064C 74.5697 213.7064 74.452705 213.7514 74.3627 213.84041C 74.1847 214.0204 74.1847 214.31041 74.3617 214.48941C 74.451706 214.5784 74.5687 214.6224 74.68671 214.6224C 74.8047 214.6224 74.92171 214.5784 75.010704 214.48941C 75.189705 214.31041 75.189705 214.0204 75.010704 213.8414C 74.92171 213.7514 74.8047 213.7064 74.68671 213.7064M101.1837 213.7964C 100.552704 213.33841 99.75571 212.9404 99.25571 212.9404C 98.9847 212.9404 98.801704 213.0564 98.7767 213.3424C 98.746704 213.6934 98.9057 213.7874 99.174706 213.7874C 99.4867 213.7874 99.9477 213.6604 100.4337 213.6604C 100.6827 213.6604 100.93671 213.6944 101.1837 213.7964M85.745705 212.9404C 85.245705 212.9404 84.4487 213.33841 83.8167 213.7964C 84.06171 213.6944 84.3177 213.6604 84.5677 213.6604C 85.0537 213.6604 85.5147 213.7874 85.826706 213.7874C 86.0957 213.7874 86.2537 213.6934 86.2247 213.3424C 86.19971 213.0564 86.0167 212.9404 85.745705 212.9404M99.174706 209.45241C 98.9057 209.45241 98.746704 209.5464 98.7767 209.8984C 98.801704 210.1844 98.9847 210.3004 99.25571 210.3004C 99.75571 210.3004 100.552704 209.9024 101.1837 209.4444C 100.93671 209.5464 100.6827 209.5804 100.4337 209.5804C 99.9477 209.5804 99.4867 209.45241 99.174706 209.45241M83.8167 209.4444C 84.4487 209.9024 85.245705 210.3004 85.745705 210.3004C 86.0167 210.3004 86.19971 210.1844 86.2247 209.8984C 86.2537 209.5464 86.0957 209.45241 85.826706 209.45241C 85.5147 209.45241 85.0537 209.5794 84.5677 209.5804C 84.3177 209.5804 84.06171 209.5464 83.8167 209.4444M94.2767 205.95241C 94.2767 206.3334 94.395706 207.8524 93.82571 208.86841L93.82571 208.86841L93.229706 209.8634C 93.926704 209.17241 96.8177 206.5894 98.645706 204.3284L98.645706 204.3284L92.4997 198.1824L92.4997 198.1824L86.35371 204.3284C 88.1837 206.5894 91.0737 209.17241 91.7687 209.8634L91.7687 209.8634L91.173706 208.86841C 90.604706 207.8524 90.7237 206.3334 90.7237 205.95241L90.7237 205.95241L90.704704 205.95241C 87.9427 205.95241 90.5427 203.2664 89.619705 201.7504C 90.9187 202.2634 93.6717 204.9424 91.397705 205.9044C 91.397705 206.95041 91.7937 207.6524 92.4997 208.4064C 93.2077 207.6524 93.60271 206.95041 93.60271 205.9044C 91.328705 204.9424 94.0817 202.2634 95.38071 201.7504C 94.4587 203.2664 97.0577 205.95241 94.2957 205.95241zM110.312706 208.6174C 110.1957 208.6174 110.078705 208.6614 109.9887 208.7514C 109.8107 208.9304 109.8107 209.2204 109.9887 209.4004C 110.078705 209.48941 110.1957 209.53441 110.312706 209.53441C 110.4317 209.53441 110.548706 209.48941 110.6377 209.4004C 110.8167 209.2204 110.8167 208.9304 110.6377 208.7514C 110.548706 208.6614 110.4307 208.6174 110.312706 208.6174M74.68671 208.6174C 74.5687 208.6174 74.451706 208.6614 74.3617 208.7514C 74.1847 208.9304 74.1847 209.2204 74.3627 209.4004C 74.452705 209.48941 74.5697 209.53441 74.68671 209.53441C 74.8047 209.53441 74.92171 209.48941 75.010704 209.4004C 75.189705 209.2204 75.189705 208.9304 75.010704 208.7514C 74.92171 208.6614 74.8047 208.6174 74.68671 208.6174M109.7107 205.9664C 109.593704 205.9664 109.4767 206.0114 109.3867 206.10141C 109.2087 206.2794 109.2087 206.5704 109.3877 206.7484C 109.4767 206.8374 109.593704 206.8824 109.7107 206.8824C 109.827705 206.8824 109.9447 206.83841 110.0347 206.7484C 110.21471 206.5704 110.21471 206.2794 110.0347 206.10141C 109.9447 206.0114 109.827705 205.9664 109.7107 205.9664M75.2897 205.9664C 75.17171 205.9664 75.0547 206.0114 74.96471 206.10141C 74.786705 206.2794 74.786705 206.5704 74.96471 206.7484C 75.0547 206.83841 75.17171 206.8824 75.288704 206.8824C 75.4057 206.8824 75.523705 206.8374 75.6127 206.7484C 75.7927 206.5704 75.7927 206.2794 75.6127 206.10141C 75.523705 206.0114 75.4067 205.9664 75.2897 205.9664M106.6557 205.3734C 106.3777 204.32541 105.1957 203.7064 104.3167 203.7064C 103.662704 203.7064 103.176704 204.04941 103.357704 204.8134C 103.438705 205.1564 103.5887 205.2644 103.7977 205.2644C 104.159706 205.2644 104.703705 204.93541 105.38071 204.93541C 105.7657 204.93541 106.1927 205.0414 106.6557 205.3734M80.6837 203.7064C 79.8057 203.7064 78.6237 204.32541 78.3457 205.3734C 78.8087 205.0414 79.2347 204.93541 79.619705 204.93541C 80.29671 204.93541 80.840706 205.2644 81.203705 205.2644C 81.412704 205.2644 81.56171 205.1564 81.64371 204.8134C 81.8237 204.04941 81.3387 203.7064 80.6837 203.7064M94.675705 202.93741C 93.9707 203.90941 93.4047 205.2754 94.2227 205.3434C 94.2497 205.3464 94.2767 205.3474 94.301704 205.3474C 95.135704 205.3474 94.216705 204.0374 94.675705 202.93741M90.3247 202.93741C 90.7827 204.0374 89.8647 205.3474 90.6987 205.3474C 90.7247 205.3474 90.7507 205.3464 90.7787 205.3434C 91.5947 205.2754 91.0297 203.90941 90.3247 202.93741M108.717705 203.4364C 108.6007 203.4364 108.4837 203.4814 108.39371 203.5704C 108.215706 203.7484 108.215706 204.0394 108.39371 204.2184C 108.4837 204.3074 108.6017 204.3524 108.718704 204.3524C 108.8357 204.3524 108.952705 204.3074 109.0417 204.2184C 109.2217 204.0384 109.2217 203.7484 109.0417 203.5704C 108.952705 203.4814 108.8347 203.4364 108.717705 203.4364M76.2827 203.4364C 76.1657 203.4364 76.048706 203.4814 75.9587 203.5704C 75.7797 203.7484 75.7797 204.0384 75.9587 204.2184C 76.048706 204.3074 76.1657 204.3524 76.2827 204.3524C 76.399704 204.3524 76.5177 204.3074 76.605705 204.2184C 76.785706 204.0394 76.785706 203.7484 76.605705 203.5704C 76.5177 203.4814 76.399704 203.4364 76.2827 203.4364M92.50571 196.3744L92.50571 196.3844L92.50571 196.3844L99.4177 203.2964C 99.925705 202.5404 100.230705 201.8704 100.1837 201.39041C 99.8797 201.49141 99.5977 201.5364 99.3387 201.5364C 98.0277 201.5364 97.31171 200.3714 97.481705 199.2594C 97.6147 198.39241 97.535706 198.0854 96.9327 197.7144C 96.2937 197.3224 95.312706 196.81041 95.3377 195.4294C 98.493706 197.14241 102.909706 196.7164 101.190704 202.1914C 101.7127 201.2374 102.494705 199.8674 103.1227 198.47841C 100.0017 195.9474 96.2507 194.6824 92.5007 194.6824C 88.7497 194.6824 84.9987 195.9474 81.8777 198.47841C 82.50671 199.8674 83.287704 201.2374 83.8097 202.1914C 82.090706 196.7164 86.507706 197.14241 89.662704 195.4294C 89.6857 196.81041 88.7057 197.3224 88.0677 197.7144C 87.465706 198.0854 87.3867 198.39241 87.5187 199.2594C 87.68671 200.3714 86.9727 201.5364 85.661705 201.5364C 85.4027 201.5364 85.120705 201.49141 84.8167 201.39041C 84.76971 201.8704 85.07471 202.5404 85.5837 203.2964L85.5837 203.2964L92.495705 196.3844L92.495705 196.3844L92.495705 196.3744L92.495705 196.3744L92.4997 196.37941zM107.354706 201.0834C 107.2377 201.0834 107.120705 201.1284 107.0307 201.2174C 106.8517 201.3974 106.8517 201.68741 107.0307 201.86641C 107.120705 201.9544 107.2377 201.9994 107.354706 201.9994C 107.4727 201.9994 107.58971 201.9554 107.6797 201.86641C 107.857704 201.68741 107.857704 201.3974 107.6797 201.2174C 107.58971 201.1284 107.4727 201.0834 107.354706 201.0834M77.645706 201.0834C 77.5287 201.0834 77.411705 201.1284 77.3217 201.2174C 77.1427 201.3974 77.1427 201.68741 77.3217 201.86641C 77.411705 201.9554 77.5287 201.9994 77.645706 201.9994C 77.7637 201.9994 77.88071 201.9544 77.9697 201.86641C 78.147705 201.68741 78.147705 201.3974 77.9697 201.2174C 77.8797 201.1284 77.7627 201.0834 77.645706 201.0834M102.6097 201.5254L102.5857 201.5504L102.5857 201.5504L102.579704 201.5684C 103.2547 201.1954 104.1087 200.7204 105.024704 200.2764C 104.840706 200.0724 104.6507 199.8724 104.4567 199.6784L104.4567 199.6784L104.4567 199.6794C 104.25671 199.4794 104.052704 199.2854 103.8447 199.0954C 103.398705 200.0104 102.924706 200.8654 102.551704 201.5404L102.551704 201.5404L102.5697 201.5364L102.5697 201.5364L102.5957 201.5094L102.5957 201.5094L102.590706 201.53041zM80.5447 199.6784C 80.3497 199.8724 80.159706 200.0724 79.9767 200.2764C 80.8917 200.7204 81.744705 201.1954 82.4207 201.5684L82.4207 201.5684L82.4157 201.5504L82.4157 201.5504L82.3907 201.5254L82.3907 201.5254L82.410706 201.53041L82.410706 201.53041L82.4047 201.5094L82.4047 201.5094L82.4317 201.5364L82.4317 201.5364L82.4487 201.5404C 82.07571 200.8654 81.6017 200.0104 81.1557 199.0954C 80.9467 199.2854 80.74271 199.4794 80.5447 199.6794zM98.745705 197.4644C 99.9997 199.2104 98.0307 200.4604 99.3067 200.7624C 99.4157 200.7884 99.5167 200.8004 99.6087 200.8004C 101.0267 200.8004 100.46471 197.92041 98.745705 197.4644M86.2547 197.4644C 84.536705 197.92041 83.9747 200.8004 85.3917 200.8004C 85.4837 200.8004 85.5847 200.7884 85.6937 200.7624C 86.9707 200.4604 85.0007 199.2104 86.2547 197.4644M105.6577 198.9604C 105.5407 198.9604 105.423706 199.0054 105.3337 199.0944C 105.1547 199.2744 105.1547 199.5634 105.3337 199.74341C 105.423706 199.8314 105.5407 199.8764 105.6567 199.8764C 105.774704 199.8764 105.8927 199.8314 105.980705 199.74341C 106.160706 199.5634 106.160706 199.2734 105.980705 199.0944C 105.8927 199.0054 105.774704 198.9604 105.6577 198.9604M79.342705 198.9604C 79.2257 198.9604 79.1087 199.0054 79.01871 199.0944C 78.83971 199.2734 78.840706 199.5634 79.01871 199.74341C 79.107704 199.8314 79.2257 199.8764 79.343704 199.8764C 79.4607 199.8764 79.577705 199.8314 79.6667 199.74341C 79.8467 199.5634 79.8467 199.2744 79.6667 199.0944C 79.577705 199.0054 79.4597 198.9604 79.342705 198.9604M104.70071 198.00441C 104.5837 198.00441 104.466705 198.04941 104.3767 198.1384C 104.1987 198.3184 104.1987 198.6084 104.3767 198.7864C 104.466705 198.8764 104.5837 198.92041 104.70071 198.92041C 104.8177 198.92041 104.9357 198.8764 105.024704 198.7864C 105.204704 198.6074 105.204704 198.3184 105.024704 198.1384C 104.9357 198.04941 104.8177 198.00441 104.70071 198.00441M80.298706 198.00441C 80.1817 198.00441 80.063705 198.04941 79.9757 198.1384C 79.79671 198.3184 79.79671 198.6074 79.9757 198.7864C 80.063705 198.8764 80.1817 198.92041 80.298706 198.92041C 80.4167 198.92041 80.53371 198.8764 80.6227 198.7864C 80.802704 198.6084 80.802704 198.3184 80.6227 198.1384C 80.53371 198.04941 80.4167 198.00441 80.298706 198.00441M102.577705 196.3074C 102.4607 196.3074 102.343704 196.3524 102.2537 196.4414C 102.07471 196.6204 102.07471 196.9114 102.2537 197.0894C 102.343704 197.1784 102.4607 197.2234 102.577705 197.2234C 102.6947 197.2234 102.81171 197.1784 102.9017 197.0894C 103.0817 196.9114 103.0817 196.6204 102.9017 196.4414C 102.81171 196.3524 102.6947 196.3074 102.577705 196.3074M82.42271 196.3074C 82.3057 196.3074 82.187706 196.3524 82.0997 196.4414C 81.9197 196.6204 81.9197 196.9114 82.0997 197.0894C 82.187706 197.1784 82.3057 197.2234 82.42271 197.2234C 82.5397 197.2234 82.6567 197.1784 82.745705 197.0894C 82.925705 196.9114 82.925705 196.6204 82.745705 196.4414C 82.6567 196.3524 82.5397 196.3074 82.42271 196.3074M100.2257 194.9444C 100.107704 194.9444 99.99071 194.98941 99.9017 195.0784C 99.7227 195.2574 99.7227 195.54741 99.9017 195.72641C 99.99071 195.8164 100.107704 195.8604 100.2257 195.8604C 100.343704 195.8604 100.4607 195.8164 100.549706 195.72641C 100.72771 195.54741 100.72771 195.2574 100.549706 195.0784C 100.4607 194.98941 100.343704 194.9444 100.2257 194.9444M84.774704 194.9444C 84.6577 194.9444 84.5407 194.98941 84.45071 195.0784C 84.271706 195.2574 84.271706 195.54741 84.45071 195.72641C 84.5407 195.8164 84.6577 195.8604 84.774704 195.8604C 84.8927 195.8604 85.009705 195.8164 85.0987 195.72641C 85.2767 195.54741 85.2767 195.2574 85.0987 195.0784C 85.009705 194.98941 84.8927 194.9444 84.774704 194.9444M97.6947 193.9514C 97.577705 193.9514 97.4607 193.9954 97.370705 194.0854C 97.1917 194.2644 97.1917 194.5544 97.370705 194.7334C 97.4607 194.82341 97.577705 194.8674 97.6947 194.8674C 97.81171 194.8674 97.9297 194.82341 98.0197 194.7334C 98.1977 194.5544 98.1977 194.2644 98.01871 194.0854C 97.9297 193.9954 97.81171 193.9514 97.6947 193.9514M87.3057 193.9514C 87.187706 193.9514 87.0707 193.9954 86.980705 194.0854C 86.802704 194.2644 86.802704 194.5544 86.980705 194.7334C 87.0707 194.82341 87.187706 194.8674 87.3057 194.8674C 87.42271 194.8674 87.5397 194.82341 87.6287 194.7334C 87.8087 194.5544 87.8087 194.2644 87.6287 194.0854C 87.5397 193.9954 87.42271 193.9514 87.3057 193.9514M95.0447 193.3484C 94.927704 193.3484 94.8107 193.3934 94.7207 193.4834C 94.5417 193.6614 94.5417 193.95241 94.7207 194.1304C 94.8107 194.2204 94.927704 194.26541 95.0447 194.26541C 95.161705 194.26541 95.2787 194.2204 95.36771 194.1304C 95.54771 193.95241 95.54771 193.6614 95.36771 193.4834C 95.2787 193.3934 95.161705 193.3484 95.0447 193.3484M89.9567 193.3484C 89.83871 193.3484 89.7217 193.3934 89.632706 193.4834C 89.452705 193.6614 89.452705 193.95241 89.632706 194.1304C 89.7217 194.2204 89.83871 194.26541 89.9567 194.26541C 90.0737 194.26541 90.190704 194.2204 90.2797 194.1304C 90.4587 193.95241 90.4597 193.6614 90.2797 193.4834C 90.190704 193.3934 90.0737 193.3484 89.9567 193.3484" stroke="none" fill="#E7BC9E" fill-rule="nonzero" />
		</g>
	</g>
</g>
</svg>