<?xml version="1.0" standalone="no"?>
<!DOCTYPE svg PUBLIC "-//W3C//DTD SVG 1.0//EN" "http://www.w3.org/TR/2001/REC-SVG-20010904/DTD/svg10.dtd">
<svg xmlns="http://www.w3.org/2000/svg" xmlns:xlink="http://www.w3.org/1999/xlink" id="body_2" width="247" height="421">

<defs>
    <clipPath  id="1">

    <path id=""  clip-rule="evenodd" transform="matrix(1 0 0 1 0 0)"  d="M0 316L0 0L0 0L185 0L185 0L185 316L185 316L0 316z" />    </clipPath>
    <clipPath  id="2">

    <path id=""  clip-rule="evenodd" transform="matrix(1 0 0 1 0 0)"  d="M0 0L185 0L185 0L185 316L185 316L0 316z" />    </clipPath>
</defs>

<g transform="matrix(1.3333 0 0 1.3333 0 0)">
	<g clip-path="url(#1)" >
		<g clip-path="url(#2)" >
    <path id=""  transform="matrix(1 0 0 -1 0 316)"  d="M104.6305 203.90489C 104.4645 204.6689 104.264496 205.4119 104.0475 206.1039C 103.9265 206.4559 103.8225 206.7869 103.6875 207.1149C 103.6215 207.2749 103.5575 207.4339 103.4925 207.5929C 103.4215 207.7469 103.3505 207.8999 103.2785 208.0519C 102.8705 208.8999 102.3605 209.6849 101.6865 210.3049C 101.0205 210.9279 100.1675 211.3839 99.1605 211.6199C 100.1675 211.8569 101.0205 212.3129 101.6865 212.9339C 102.3605 213.5549 102.8705 214.3399 103.2785 215.1879C 103.3505 215.3409 103.4215 215.4939 103.4925 215.6479C 103.5575 215.8059 103.6215 215.9659 103.6875 216.1249C 103.8225 216.4539 103.9265 216.7839 104.0475 217.1359C 104.264496 217.8289 104.4645 218.5719 104.6305 219.3349C 104.9785 220.8679 105.2335 222.5169 105.6295 224.1739C 105.666504 224.3269 105.6015 224.4909 105.4875 224.6079C 105.3705 224.7219 105.2065 224.7879 105.0535 224.7499C 103.3975 224.3529 101.7475 224.0979 100.2145 223.75189C 99.4505 223.5849 98.708496 223.3849 98.0165 223.1689C 97.6635 223.0479 97.333496 222.9429 97.0045 222.8069C 96.8455 222.7429 96.6865 222.6769 96.5275 222.6129C 96.3735 222.5419 96.2205 222.4699 96.0685 222.3989C 95.2195 221.9909 94.4355 221.4799 93.8145 220.8059C 93.1935 220.1409 92.736496 219.2879 92.4995 218.28189C 92.2635 219.2879 91.8075 220.1409 91.1855 220.8059C 90.5655 221.4799 89.7795 221.9909 88.9325 222.3989L88.9325 222.3989L88.4725 222.6129C 88.3135 222.6769 88.1545 222.7429 87.9945 222.8069C 87.666504 222.9429 87.3355 223.0479 86.9845 223.1689C 86.291504 223.3849 85.5485 223.5849 84.7845 223.75189C 83.251495 224.0979 81.6035 224.3529 79.9465 224.7499C 79.7935 224.7879 79.6285 224.7219 79.5115 224.6079C 79.3985 224.4909 79.332504 224.3269 79.3695 224.1739C 79.7675 222.5169 80.0215 220.8679 80.3685 219.3349C 80.5345 218.5719 80.736496 217.8289 80.9515 217.1359C 81.0725 216.7849 81.1765 216.4539 81.3135 216.1249C 81.3775 215.9659 81.4425 215.8059 81.5075 215.6479C 81.5785 215.4939 81.6505 215.3409 81.7215 215.1879C 82.1295 214.3399 82.639496 213.5549 83.3145 212.9339C 83.9795 212.3129 84.8315 211.8569 85.8385 211.6199C 84.8315 211.3839 83.9795 210.9279 83.3145 210.3049C 82.639496 209.6849 82.1295 208.8999 81.7215 208.0519C 81.6505 207.8999 81.5785 207.7469 81.5075 207.5929C 81.4425 207.4339 81.3775 207.2749 81.3135 207.1149C 81.1765 206.7869 81.0725 206.4559 80.9515 206.1039C 80.736496 205.4119 80.5345 204.6689 80.3685 203.90489C 80.0215 202.3719 79.7675 200.7229 79.3695 199.0669C 79.332504 198.9139 79.3985 198.7499 79.5115 198.6319C 79.6285 198.5179 79.7935 198.4529 79.9465 198.4909C 81.6035 198.8869 83.251495 199.14189 84.7845 199.48889C 85.5485 199.6559 86.291504 199.8559 86.9845 200.0719C 87.3355 200.1929 87.666504 200.2969 87.9945 200.43289C 88.1545 200.4979 88.3135 200.5629 88.4725 200.6279L88.4725 200.6279L88.9325 200.8419C 89.7795 201.2499 90.5655 201.7609 91.1855 202.4339C 91.8075 203.09889 92.2635 203.9529 92.4995 204.9589C 92.736496 203.9529 93.1935 203.09889 93.8145 202.4339C 94.4355 201.7609 95.2195 201.2499 96.0685 200.8419C 96.2205 200.7699 96.3735 200.6989 96.5275 200.6279C 96.6865 200.5629 96.8455 200.4979 97.0045 200.43289C 97.333496 200.2969 97.6635 200.1929 98.0165 200.0719C 98.708496 199.8559 99.4505 199.6559 100.2145 199.48889C 101.7475 199.1409 103.3975 198.8869 105.0535 198.4909C 105.2065 198.4529 105.3705 198.5179 105.4875 198.6319C 105.6015 198.7499 105.666504 198.9139 105.6295 199.0669C 105.2335 200.7229 104.9785 202.3719 104.6305 203.90489zM102.6015 207.0639C 102.6395 206.9409 102.6785 206.8139 102.7135 206.6869L102.7135 206.6869L102.8095 206.3049C 102.8775 206.0439 102.9285 205.78189 102.9815 205.5119C 102.4165 205.80789 101.8285 206.0009 101.2555 206.1339C 100.9655 207.0909 100.4565 207.9579 99.7635 208.6909L99.7635 208.6909L99.7475 208.7059C 99.8895 209.0729 99.9165 209.4869 99.8575 209.8909C 99.833496 210.0929 99.7695 210.2959 99.7045 210.4869C 99.6215 210.6819 99.5445 210.8669 99.4265 211.04489C 101.1255 210.2649 102.0785 208.7879 102.6015 207.0639zM99.4965 208.22389C 99.9565 207.6349 100.3145 206.9709 100.5325 206.2629C 100.2515 206.2999 99.9785 206.3219 99.7345 206.3179C 99.4875 206.3149 99.2505 206.3019 99.0505 206.2529C 98.7705 206.6769 98.4845 207.0759 98.1705 207.4619C 98.7495 207.5279 99.2055 207.8179 99.4965 208.22389zM97.8575 203.5879C 97.1485 203.8059 96.486496 204.1639 95.8965 204.6229C 96.3025 204.9139 96.5925 205.3709 96.6585 205.9499C 97.0445 205.6359 97.4435 205.3499 97.8675 205.0699C 97.819496 204.8699 97.8055 204.6329 97.8015 204.3859C 97.7985 204.14189 97.8205 203.8689 97.8575 203.5879zM96.6615 206.4559C 96.6435 206.6869 96.5805 206.9439 96.4955 207.1969C 96.4025 207.4599 96.2745 207.7319 96.111496 208.0089C 96.3885 207.8459 96.6605 207.7189 96.9225 207.6249C 97.1765 207.5389 97.4335 207.4769 97.6635 207.4579C 97.9955 207.0209 98.2945 206.5729 98.583496 206.0919C 98.4605 206.0329 98.3535 205.9559 98.2635 205.8569C 98.1645 205.7659 98.0875 205.6599 98.0285 205.5369C 97.5475 205.8259 97.0995 206.1239 96.6615 206.4559zM98.1705 215.7789C 98.4835 216.1649 98.7705 216.5629 99.0505 216.9879C 99.2505 216.9389 99.4875 216.9259 99.7345 216.9229C 99.9785 216.9189 100.2515 216.9409 100.5325 216.9769C 100.3145 216.2679 99.9565 215.6059 99.4965 215.0159C 99.2055 215.4229 98.7495 215.71289 98.1705 215.7789zM97.8675 218.1709C 97.4435 217.8899 97.0445 217.6039 96.6585 217.2909C 96.5925 217.8699 96.3025 218.3259 95.8965 218.6179C 96.486496 219.0769 97.1485 219.4339 97.8575 219.6529C 97.8205 219.3719 97.7985 219.0979 97.8025 218.8539C 97.8055 218.6079 97.819496 218.3709 97.8675 218.1709zM96.4955 216.0429C 96.5805 216.2969 96.6435 216.5529 96.6615 216.7839C 97.0995 217.1169 97.5475 217.4149 98.0285 217.7039C 98.0875 217.5809 98.1645 217.47389 98.2635 217.3839C 98.3535 217.2849 98.4605 217.2079 98.583496 217.1489C 98.2945 216.6679 97.9955 216.2189 97.6635 215.7829C 97.4335 215.7629 97.1765 215.7019 96.9225 215.6159C 96.6605 215.5219 96.3885 215.3939 96.111496 215.2319C 96.2745 215.5089 96.4025 215.7809 96.4955 216.0429zM102.8095 216.9349L102.7135 216.5529C 102.6785 216.4269 102.6395 216.2999 102.6015 216.1769C 102.0785 214.4529 101.1255 212.9749 99.4265 212.1949C 99.5445 212.3739 99.6215 212.5569 99.7045 212.7539C 99.7695 212.9449 99.833496 213.1479 99.8565 213.34889C 99.9165 213.7529 99.8895 214.1679 99.7475 214.5349L99.7475 214.5349L99.7635 214.5499C 100.4565 215.2829 100.9655 216.1499 101.2555 217.1069C 101.8285 217.2399 102.4165 217.4319 102.9815 217.7279C 102.9285 217.4579 102.8775 217.1969 102.8095 216.9349zM99.4665 222.2509C 100.7765 222.4579 102.1795 222.5769 103.6865 222.8059C 103.4565 221.2989 103.3375 219.8949 103.1295 218.5859C 102.7555 218.29489 102.3385 218.0759 101.9215 217.9149C 101.5045 217.7539 101.0775 217.6429 100.6905 217.5909C 99.9005 217.4819 99.2525 217.5629 98.8405 217.9609C 98.4305 218.3609 98.3535 219.0099 98.4665 219.8029C 98.5215 220.1929 98.6345 220.6229 98.7965 221.0419C 98.958496 221.4609 99.1785 221.8779 99.4665 222.2509zM97.0565 221.7209C 97.1795 221.7599 97.3065 221.7989 97.4335 221.8339L97.4335 221.8339L97.8155 221.9289C 98.0765 221.9979 98.3375 222.0489 98.6085 222.10089C 98.3125 221.5369 98.1195 220.9489 97.9865 220.3759C 97.0285 220.0859 96.1625 219.5779 95.4285 218.8839L95.4285 218.8839L95.4145 218.8679C 95.0465 219.0099 94.6325 219.0379 94.2285 218.9769C 94.0285 218.9539 93.8245 218.8889 93.6335 218.82489C 93.4375 218.7419 93.2535 218.6649 93.0745 218.5469C 93.8545 220.2459 95.3325 221.1989 97.0565 221.7209zM87.1845 221.9289L87.5675 221.8339C 87.6945 221.7989 87.8195 221.7599 87.9445 221.7209C 89.667496 221.1989 91.1455 220.2459 91.9245 218.5469C 91.7465 218.6649 91.5625 218.7419 91.3665 218.82489C 91.1745 218.8889 90.9725 218.9539 90.7715 218.9769C 90.3665 219.0379 89.9525 219.0099 89.5845 218.8679L89.5845 218.8679L89.570496 218.8839C 88.8375 219.5769 87.9705 220.0859 87.013504 220.3759C 86.8805 220.9489 86.6875 221.5369 86.3925 222.10089C 86.6615 222.0499 86.9235 221.9979 87.1845 221.9289zM88.3415 217.2909C 87.9545 217.6039 87.5575 217.8899 87.1325 218.1709C 87.1805 218.3709 87.1945 218.6079 87.1975 218.8539C 87.2015 219.0979 87.1795 219.3719 87.1435 219.6529C 87.8515 219.4339 88.514496 219.0769 89.1045 218.6169C 88.6975 218.3259 88.4075 217.8699 88.3415 217.2909zM88.888504 215.2319C 88.611496 215.3939 88.3395 215.5219 88.0765 215.6159C 87.8235 215.7019 87.5675 215.7629 87.3355 215.7829C 87.0035 216.2189 86.7055 216.6679 86.416504 217.1489C 86.5395 217.2079 86.6465 217.2849 86.736496 217.3839C 86.8355 217.47389 86.9115 217.5809 86.9715 217.7039C 87.4525 217.4149 87.9015 217.1169 88.3375 216.7839C 88.3575 216.5529 88.4185 216.2969 88.5045 216.0429C 88.5975 215.7809 88.7265 215.5089 88.888504 215.2319zM81.3135 222.8059C 82.820496 222.5769 84.2255 222.4579 85.5345 222.2509C 85.8245 221.8759 86.0445 221.4589 86.2055 221.0429C 86.3665 220.6259 86.4775 220.1979 86.5295 219.8099C 86.638504 219.0199 86.5575 218.3729 86.1585 217.9609C 85.7595 217.5509 85.111496 217.4729 84.3175 217.5869C 83.9275 217.6409 83.4965 217.7549 83.0775 217.9169C 82.6595 218.0799 82.2425 218.2989 81.8695 218.5869C 81.6625 219.8959 81.5435 221.2999 81.3135 222.8059zM82.3985 216.1769C 82.361496 216.2999 82.3215 216.4269 82.2865 216.5529L82.2865 216.5529L82.1905 216.9349C 82.1225 217.1969 82.070496 217.4579 82.0185 217.7279C 82.582504 217.4319 83.1715 217.2399 83.7435 217.1069C 84.0345 216.1499 84.542496 215.2829 85.236496 214.5499L85.236496 214.5499L85.2525 214.5349C 85.111496 214.1679 85.0825 213.7529 85.1435 213.34889C 85.166504 213.1479 85.2315 212.9449 85.2955 212.7539C 85.3785 212.5569 85.4555 212.3739 85.5735 212.1949C 83.8745 212.9749 82.9215 214.4529 82.3985 216.1769zM85.5025 215.0159C 85.0435 215.6059 84.6865 216.2689 84.4675 216.9769C 84.7485 216.9409 85.0225 216.9189 85.2665 216.9229C 85.5115 216.9259 85.7495 216.9389 85.9495 216.9879C 86.2305 216.5629 86.5165 216.1649 86.8295 215.7789C 86.2495 215.71289 85.7935 215.4229 85.5025 215.0159zM86.8295 207.4619C 86.5165 207.0759 86.2305 206.6769 85.9495 206.2529C 85.7495 206.3019 85.5125 206.3149 85.2665 206.3179C 85.0225 206.3219 84.7485 206.2999 84.4675 206.2629C 84.6865 206.9709 85.0435 207.6349 85.5025 208.22389C 85.7935 207.8179 86.2495 207.5279 86.8295 207.4619zM87.1325 205.0699C 87.5575 205.3499 87.9545 205.6359 88.3415 205.9499C 88.4065 205.3699 88.6975 204.9139 89.1045 204.6229C 88.514496 204.1639 87.8515 203.8059 87.1435 203.5879C 87.1795 203.8689 87.2015 204.14189 87.1975 204.3859C 87.1945 204.6329 87.1805 204.8699 87.1325 205.0699zM88.5045 207.1969C 88.4185 206.9439 88.3575 206.6869 88.3375 206.4559C 87.9015 206.1239 87.4525 205.8259 86.9715 205.5369C 86.9115 205.6599 86.8355 205.7659 86.736496 205.8569C 86.6465 205.9559 86.5395 206.0329 86.416504 206.0919C 86.7055 206.5729 87.0035 207.0209 87.3355 207.4579C 87.5675 207.4769 87.8235 207.5389 88.0765 207.6249C 88.3395 207.7189 88.611496 207.8459 88.888504 208.0089C 88.7265 207.7319 88.5975 207.4599 88.5045 207.1969zM82.1905 206.3049L82.2865 206.6869C 82.3215 206.8139 82.361496 206.9409 82.3985 207.0639C 82.9215 208.7879 83.8745 210.2649 85.5735 211.04489C 85.4555 210.8669 85.3785 210.6819 85.2955 210.4869C 85.2315 210.2959 85.166504 210.0929 85.1435 209.8909C 85.0825 209.4869 85.111496 209.0729 85.2525 208.7059L85.2525 208.7059L85.236496 208.6909C 84.542496 207.9579 84.0345 207.0909 83.7445 206.1339C 83.1715 206.0009 82.582504 205.80789 82.0185 205.5119C 82.070496 205.78189 82.1225 206.0439 82.1905 206.3049zM85.5335 200.9899C 84.2245 200.7829 82.820496 200.6639 81.3135 200.43289C 81.5435 201.9409 81.6625 203.3449 81.8695 204.65489C 82.2445 204.94589 82.6615 205.1649 83.0775 205.3259C 83.4945 205.4869 83.9225 205.5969 84.3105 205.6499C 85.0995 205.7589 85.7475 205.6769 86.1585 205.2789C 86.5695 204.8799 86.6465 204.2309 86.5335 203.4369C 86.4785 203.0479 86.3655 202.6179 86.2025 202.1989C 86.0405 201.77989 85.8215 201.3629 85.5335 200.9899zM87.9445 201.5189C 87.8195 201.4809 87.6945 201.4419 87.5675 201.4069L87.5675 201.4069L87.1845 201.3099C 86.9235 201.2429 86.6615 201.1909 86.3925 201.1379C 86.6875 201.7039 86.8805 202.2919 87.013504 202.8649C 87.9705 203.15489 88.8375 203.6629 89.570496 204.3569L89.570496 204.3569L89.5845 204.3729C 89.9525 204.2309 90.3665 204.2029 90.7715 204.2629C 90.9725 204.2869 91.1745 204.35089 91.3665 204.4159C 91.5625 204.4989 91.7465 204.5759 91.9245 204.6939C 91.1455 202.9949 89.667496 202.0419 87.9445 201.5189zM92.4995 206.28189L92.4995 206.28189C 92.486496 206.28189 92.4705 206.2759 92.4535 206.2609C 92.1155 205.9239 91.6885 205.6389 91.2255 205.5029C 90.7655 205.36389 90.2715 205.37689 89.8725 205.5819C 89.4755 205.7829 89.1775 206.1769 89.1265 206.7299C 89.1165 206.8729 89.1135 207.0129 89.1355 207.1739C 89.1565 207.3339 89.1935 207.4989 89.2465 207.6709C 89.3625 208.0259 89.542496 208.3999 89.8195 208.8149C 89.8935 208.9259 89.916504 208.9929 89.8925 209.0119C 89.8725 209.0369 89.8055 209.0129 89.6945 208.9399C 89.2795 208.6629 88.9055 208.4829 88.5505 208.3669C 88.3785 208.3129 88.2135 208.2769 88.0535 208.2559C 87.8935 208.2339 87.7525 208.2369 87.610504 208.2469C 87.0555 208.2979 86.6625 208.5949 86.4605 208.9929C 86.2565 209.3909 86.2435 209.8859 86.3825 210.3449C 86.5185 210.8089 86.8035 211.2369 87.1405 211.5749C 87.1555 211.5909 87.1615 211.6059 87.1615 211.6199C 87.1615 211.6349 87.1555 211.6499 87.1405 211.6659C 86.8035 212.0039 86.5185 212.4309 86.3825 212.8949C 86.2435 213.3549 86.2565 213.8479 86.4605 214.2479C 86.6625 214.6449 87.0555 214.9419 87.610504 214.9939C 87.7525 215.0039 87.8935 215.0069 88.0535 214.9849C 88.2135 214.9639 88.3785 214.9279 88.5505 214.8739C 88.9055 214.7579 89.2795 214.5769 89.6945 214.3009C 89.8055 214.2269 89.8725 214.2039 89.8925 214.2269C 89.916504 214.2479 89.8935 214.3149 89.8195 214.4259C 89.542496 214.8409 89.3625 215.2149 89.2465 215.5699C 89.1935 215.7419 89.1565 215.90689 89.1355 216.0669C 89.1135 216.2269 89.1165 216.3679 89.1265 216.5109C 89.1775 217.0639 89.4755 217.4579 89.8725 217.6589C 90.2715 217.86389 90.7655 217.8759 91.2255 217.7379C 91.6885 217.60089 92.1155 217.3169 92.4535 216.9799C 92.4705 216.9649 92.486496 216.9579 92.4995 216.9589C 92.514496 216.9579 92.5285 216.9649 92.5455 216.9799C 92.8835 217.3169 93.3115 217.60089 93.7745 217.7379C 94.2355 217.8759 94.7285 217.86389 95.1265 217.6589C 95.5255 217.4569 95.8215 217.0639 95.8735 216.5109C 95.8835 216.3679 95.8865 216.2269 95.8645 216.0669C 95.8425 215.90689 95.8075 215.7419 95.7535 215.5699C 95.6375 215.2149 95.4565 214.8409 95.1805 214.4259C 95.1065 214.3149 95.083496 214.2479 95.1075 214.2269C 95.1275 214.2039 95.1945 214.2269 95.3055 214.3009C 95.7205 214.5769 96.0945 214.7579 96.4495 214.8739C 96.6215 214.9279 96.7865 214.9639 96.9465 214.9849C 97.1075 215.0069 97.2475 215.0039 97.3905 214.9939C 97.944496 214.9419 98.3365 214.6449 98.5385 214.2479C 98.7425 213.84889 98.7555 213.3549 98.6175 212.8949C 98.4815 212.4309 98.1965 212.0039 97.8605 211.6659C 97.8445 211.6499 97.8375 211.6349 97.8375 211.6199C 97.8375 211.6059 97.8445 211.5909 97.8605 211.5749C 98.1965 211.2369 98.4815 210.8089 98.6175 210.3449C 98.7555 209.8859 98.7425 209.3909 98.5385 208.9929C 98.3365 208.5949 97.944496 208.2979 97.3905 208.2469C 97.2475 208.2369 97.1075 208.2339 96.9465 208.2559C 96.7865 208.2769 96.6215 208.3129 96.4495 208.3669C 96.0945 208.4829 95.7205 208.6639 95.3055 208.9399C 95.1945 209.0129 95.1275 209.0369 95.1075 209.0119C 95.083496 208.9929 95.1065 208.9259 95.1805 208.8149C 95.4565 208.3999 95.6375 208.0259 95.7535 207.6709C 95.8075 207.4989 95.8425 207.3339 95.8645 207.1739C 95.8865 207.0129 95.8835 206.8729 95.8735 206.7299C 95.8215 206.1769 95.5255 205.7829 95.1265 205.5819C 94.7285 205.37689 94.2355 205.36389 93.7745 205.5029C 93.3115 205.6389 92.8835 205.9239 92.5455 206.2609C 92.5285 206.2759 92.514496 206.28189 92.4995 206.28189zM97.8155 201.3099L97.4335 201.4069C 97.3065 201.4419 97.1795 201.4809 97.0565 201.5189C 95.3325 202.0419 93.8545 202.9949 93.0745 204.6939C 93.2535 204.5759 93.4375 204.4989 93.6335 204.4159C 93.8245 204.35089 94.0285 204.2869 94.2285 204.2629C 94.6325 204.2029 95.0465 204.2309 95.4145 204.3729L95.4145 204.3729L95.4285 204.3569C 96.1625 203.6629 97.0285 203.15489 97.9865 202.8649C 98.1195 202.2919 98.3125 201.7039 98.6085 201.1379C 98.3375 201.1909 98.0765 201.2429 97.8155 201.3099zM99.4655 200.9899C 99.1745 201.3649 98.9555 201.7819 98.7945 202.19789C 98.6335 202.6149 98.5235 203.0429 98.4695 203.4299C 98.3615 204.2199 98.4435 204.8679 98.8405 205.2789C 99.2405 205.6889 99.8895 205.76689 100.6835 205.6539C 101.0725 205.59889 101.5025 205.4859 101.9215 205.3239C 102.3395 205.1609 102.7575 204.9419 103.1305 204.6539C 103.3375 203.3439 103.4565 201.9409 103.6865 200.43289C 102.1785 200.6639 100.7755 200.7829 99.4655 200.9899z" stroke="#E7BC9E" stroke-width="0.425" fill="none" />
    <path id=""  transform="matrix(1 0 0 -1 0 316)"  d="M116.570305 212.1582C 114.59531 214.2182 113.5213 216.7402 112.3973 219.43921C 111.8393 220.7872 111.27431 222.1792 110.6473 223.5452C 110.0233 224.91121 109.3373 226.2482 108.6153 227.4612C 108.5863 227.5162 108.5463 227.5692 108.49631 227.6192C 108.4473 227.6672 108.3963 227.7072 108.34331 227.7342C 107.1293 228.4572 105.792305 229.1432 104.42731 229.7662C 103.0603 230.3932 101.667305 230.9582 100.320305 231.5172C 97.62131 232.6412 95.099304 233.71521 93.0383 235.6902C 92.89931 235.8242 92.7003 235.8932 92.499306 235.89621C 92.30031 235.8932 92.1013 235.8242 91.9623 235.6902C 89.901306 233.71521 87.3803 232.6412 84.681305 231.5172C 83.333305 230.9592 81.9413 230.3942 80.5753 229.7672C 79.209305 229.1442 77.87131 228.4572 76.6593 227.7352C 76.60431 227.7072 76.5513 227.6672 76.500305 227.6172C 76.4523 227.5672 76.4133 227.5162 76.3853 227.4632C 75.6633 226.2492 74.9773 224.91321 74.3533 223.54721C 73.7273 222.1802 73.1613 220.78821 72.6033 219.4402C 71.47931 216.7412 70.405304 214.21921 68.430305 212.1582C 68.2963 212.0192 68.2263 211.8202 68.224304 211.62021C 68.2263 211.4202 68.2963 211.2212 68.430305 211.0822C 70.405304 209.02121 71.47931 206.5002 72.6033 203.80121C 73.1613 202.45421 73.7263 201.0612 74.3533 199.6952C 74.9763 198.3302 75.66231 196.9922 76.38431 195.7792C 76.41231 195.7242 76.45331 195.6712 76.5033 195.6212C 76.55231 195.5732 76.60431 195.53421 76.6573 195.5062C 77.8703 194.78421 79.207306 194.0972 80.5733 193.4732C 81.9393 192.8472 83.33131 192.2812 84.680305 191.7232C 87.3793 190.5992 89.901306 189.5252 91.9623 187.5502C 92.1013 187.4162 92.30031 187.3472 92.499306 187.34421C 92.7003 187.3472 92.89931 187.4162 93.0383 187.5502C 95.098305 189.5252 97.6203 190.5992 100.319305 191.7232C 101.666306 192.2812 103.0593 192.8462 104.4253 193.4732C 105.790306 194.0962 107.127304 194.7832 108.3413 195.5042C 108.3953 195.53421 108.4493 195.5732 108.49831 195.6242C 108.5473 195.67221 108.5863 195.7242 108.6143 195.7772C 109.3363 196.9902 110.0233 198.3282 110.6463 199.6932C 111.2733 201.0592 111.8383 202.45221 112.3973 203.8002C 113.5213 206.4992 114.59531 209.02121 116.570305 211.0822C 116.7043 211.2212 116.7733 211.4202 116.776306 211.62021C 116.7733 211.8202 116.7043 212.0192 116.570305 212.1582zM113.193306 214.7772C 112.7683 214.3372 112.3413 213.9212 111.90031 213.5312C 111.7303 213.8942 111.513306 214.2182 111.276306 214.4992C 111.026306 214.7772 110.749306 215.01021 110.45631 215.1962C 110.8383 216.17421 111.2303 217.1862 111.5793 218.2182C 112.08031 217.0302 112.59331 215.8772 113.193306 214.7772zM111.49631 211.62021C 111.4933 211.31621 111.457306 211.0242 111.3963 210.7492C 111.33031 210.4752 111.2263 210.2182 111.10831 209.9852C 110.9913 209.7492 110.8373 209.5392 110.669304 209.3522C 110.501305 209.1662 110.321304 209.0032 110.12231 208.8692C 109.31531 208.32921 108.3363 208.2342 107.4353 208.5132C 106.806305 209.8482 105.8683 210.9272 104.6433 211.62021C 105.8693 212.3132 106.807304 213.3932 107.4353 214.72821C 108.3423 215.0112 109.3133 214.9152 110.1153 214.37221C 110.3123 214.2372 110.4923 214.0742 110.6593 213.8872C 110.8253 213.7002 110.9783 213.4892 111.09531 213.2532C 111.2143 213.0202 111.320305 212.7632 111.38631 212.4892C 111.4513 212.21521 111.4893 211.9232 111.49631 211.62021zM108.0893 216.5992C 108.1623 216.9202 108.2413 217.2562 108.290306 217.5912C 108.485306 218.7682 108.53831 220.03421 108.5363 221.3202C 108.5343 222.60521 108.4773 223.9122 108.515305 225.2132C 108.973305 224.28821 109.4233 223.3432 109.835304 222.3822C 110.250305 221.42421 110.64931 220.46721 111.040306 219.5222C 111.0373 219.5132 111.0333 219.5062 111.030304 219.4982C 110.60831 218.1322 110.1703 216.81421 109.683304 215.5542C 109.0743 215.7532 108.4373 215.7792 107.8103 215.6532C 107.9103 215.9572 108.01131 216.2762 108.0893 216.5992zM100.377304 230.1502C 100.38631 230.1532 100.3933 230.1582 100.402306 230.16121C 101.346306 229.7692 102.304306 229.3712 103.26231 228.9562C 104.223305 228.5432 105.167305 228.0932 106.09331 227.63521C 104.791306 227.5972 103.485306 227.6542 102.1993 227.6562C 100.9133 227.65921 99.6483 227.6052 98.471306 227.41121C 98.13631 227.3622 97.80031 227.2822 97.4793 227.2092C 97.1563 227.1312 96.8373 227.0302 96.5333 226.9302C 96.6593 227.5572 96.6333 228.1942 96.4343 228.8032C 97.694305 229.2912 99.01231 229.72821 100.377304 230.1502zM95.6573 232.3132C 96.7573 231.7132 97.9103 231.2012 99.097305 230.6992C 98.0663 230.3502 97.054306 229.9592 96.0763 229.57721C 95.890305 229.87021 95.6573 230.14621 95.3783 230.39621C 95.098305 230.6342 94.77431 230.8502 94.4113 231.0202C 94.8013 231.4612 95.2163 231.8882 95.6573 232.3132zM95.60631 226.5552C 94.27231 225.92621 93.193306 224.9882 92.499306 223.7632C 91.806305 224.9892 90.7273 225.9272 89.3923 226.5552C 89.10831 227.4622 89.20531 228.4332 89.74831 229.2352C 89.8833 229.4322 90.0453 229.6122 90.23331 229.7792C 90.419304 229.9462 90.6313 230.0982 90.8663 230.21521C 91.1003 230.3342 91.3573 230.4402 91.6303 230.5062C 91.905304 230.5712 92.196304 230.6092 92.499306 230.6172C 92.804306 230.6132 93.096306 230.5782 93.37131 230.5162C 93.6443 230.4512 93.901306 230.3472 94.1353 230.22821C 94.3703 230.1112 94.58131 229.9572 94.7683 229.7912C 94.9543 229.6232 95.1173 229.44121 95.250305 229.2432C 95.791306 228.43521 95.88631 227.4572 95.60631 226.5552zM91.4003 233.5952C 91.776306 233.8622 92.1433 234.1552 92.499306 234.4752C 92.8573 234.1552 93.224304 233.8622 93.6003 233.5952C 93.9763 233.31621 94.361305 233.0652 94.7543 232.8302C 94.2843 232.3432 93.8423 231.8462 93.433304 231.34021C 93.1353 231.39621 92.8223 231.4282 92.499306 231.4342C 92.17731 231.4282 91.8653 231.39621 91.56731 231.34021C 91.1573 231.8462 90.7163 232.3432 90.24631 232.8302C 90.638306 233.0652 91.02431 233.31621 91.4003 233.5952zM89.3423 232.3132C 89.7833 231.8882 90.1983 231.4612 90.5883 231.0202C 90.2263 230.8502 89.901306 230.6342 89.62131 230.39621C 89.34331 230.14621 89.10931 229.87021 88.9243 229.57721C 87.946304 229.9592 86.9343 230.3512 85.902306 230.6992C 87.0903 231.2012 88.2433 231.7132 89.3423 232.3132zM81.737305 228.9562C 82.695305 229.3712 83.653305 229.7692 84.598305 230.16121C 84.6073 230.1582 84.6143 230.1532 84.6223 230.1502C 85.987305 229.72821 87.305305 229.2912 88.5663 228.8032C 88.3673 228.1942 88.3413 227.5572 88.4673 226.9302C 88.1633 227.0302 87.84331 227.1312 87.5213 227.2092C 87.2003 227.2822 86.8643 227.3622 86.528305 227.41121C 85.3513 227.6052 84.0863 227.6582 82.80031 227.6562C 81.514305 227.6542 80.208305 227.5972 78.9063 227.63521C 79.832306 228.0932 80.7773 228.5432 81.737305 228.9562zM75.16431 222.3822C 75.57631 223.3432 76.0273 224.28821 76.4843 225.2132C 76.52231 223.9122 76.4653 222.60521 76.4643 221.3202C 76.4613 220.03421 76.515305 218.7682 76.708305 217.5912C 76.7583 217.2562 76.8373 216.9202 76.9113 216.5992C 76.9893 216.2762 77.0893 215.9572 77.1893 215.6532C 76.56331 215.7792 75.9263 215.7532 75.31731 215.5542C 74.8293 216.81421 74.391304 218.1322 73.9693 219.4982C 73.96631 219.5062 73.9623 219.5132 73.959305 219.5222C 74.3503 220.46721 74.7493 221.42421 75.16431 222.3822zM77.56531 214.7272C 78.1933 213.3922 79.1313 212.3132 80.35631 211.62021C 79.1313 210.92621 78.1933 209.8472 77.56531 208.5122C 76.6573 208.2292 75.6873 208.3262 74.8853 208.8692C 74.68831 209.0032 74.5083 209.1662 74.34131 209.3532C 74.1743 209.5402 74.0213 209.7512 73.904305 209.9862C 73.78531 210.2202 73.680305 210.4772 73.613304 210.7502C 73.5493 211.0252 73.51131 211.3172 73.5033 211.62021C 73.50731 211.92421 73.542305 212.2162 73.60431 212.4912C 73.668304 212.7652 73.7733 213.02121 73.8923 213.2552C 74.00931 213.4912 74.16231 213.70221 74.3293 213.8882C 74.4973 214.0752 74.679306 214.2372 74.877304 214.3712C 75.6853 214.9122 76.66231 215.0062 77.56531 214.7272zM73.4203 218.2182C 73.7693 217.1862 74.1613 216.17421 74.543304 215.1962C 74.250305 215.01021 73.973305 214.7772 73.724304 214.4992C 73.486305 214.2182 73.2703 213.8942 73.1003 213.5312C 72.6593 213.9212 72.2323 214.3372 71.807304 214.7772C 72.4063 215.8772 72.919304 217.0302 73.4203 218.2182zM70.5253 210.5202C 70.2583 210.89621 69.9653 211.2632 69.6443 211.62021C 69.9653 211.9772 70.2583 212.34421 70.5253 212.7202C 70.8033 213.0962 71.055305 213.48221 71.2903 213.8742C 71.776306 213.4042 72.2733 212.9622 72.780304 212.5532C 72.724304 212.2552 72.69231 211.9432 72.6863 211.62021C 72.69231 211.2972 72.724304 210.9852 72.780304 210.68721C 72.2733 210.2772 71.776306 209.8362 71.2903 209.3662C 71.055305 209.75821 70.8033 210.1442 70.5253 210.5202zM71.807304 208.4622C 72.2323 208.9032 72.6593 209.3192 73.1003 209.7082C 73.2703 209.3462 73.486305 209.02121 73.724304 208.7422C 73.973305 208.4632 74.250305 208.23021 74.542305 208.0442C 74.1613 207.06621 73.7693 206.0542 73.4203 205.0222C 72.919304 206.2102 72.4063 207.3632 71.807304 208.4622zM76.9113 206.6412C 76.8373 206.3202 76.7583 205.9842 76.708305 205.6492C 76.515305 204.4712 76.4613 203.2072 76.4643 201.9202C 76.4653 200.6342 76.52231 199.32921 76.4843 198.0272C 76.0273 198.9532 75.57631 199.8972 75.16431 200.85721C 74.7493 201.81621 74.3503 202.77321 73.959305 203.7182C 73.9623 203.7272 73.96631 203.7342 73.9693 203.74321C 74.391304 205.10721 74.8293 206.42621 75.31731 207.6862C 75.9263 207.4872 76.56331 207.4612 77.1893 207.5872C 77.0893 207.2832 76.9893 206.9642 76.9113 206.6412zM84.6223 193.0892C 84.6143 193.0872 84.6073 193.0832 84.598305 193.0802C 83.653305 193.4712 82.695305 193.87021 81.737305 194.2852C 80.7773 194.6972 79.832306 195.1472 78.9073 195.6042C 80.208305 195.6432 81.514305 195.5852 82.80031 195.5842C 84.0863 195.5822 85.3513 195.63521 86.528305 195.82921C 86.8643 195.8782 87.2003 195.9572 87.5213 196.0312C 87.84331 196.1092 88.1633 196.2102 88.4673 196.3092C 88.3413 195.6832 88.3673 195.0462 88.5663 194.4372C 87.306305 193.9502 85.987305 193.5112 84.6223 193.0892zM89.3423 190.9272C 88.2433 191.5272 87.0903 192.0402 85.902306 192.5412C 86.9343 192.8892 87.946304 193.2812 88.9243 193.6642C 89.10931 193.3712 89.34331 193.09421 89.62131 192.84421C 89.901306 192.6062 90.2263 192.3902 90.5883 192.2202C 90.1983 191.7792 89.7833 191.3522 89.3423 190.9272zM89.3933 196.6852C 90.7283 197.31421 91.806305 198.2512 92.499306 199.4772C 93.193306 198.2512 94.2733 197.3132 95.60831 196.6852C 95.891304 195.7782 95.794304 194.8072 95.251305 194.0052C 95.1163 193.8082 94.9543 193.6282 94.7673 193.4612C 94.5793 193.2942 94.3693 193.1422 94.1333 193.0252C 93.89931 192.9052 93.6433 192.8002 93.3693 192.7332C 93.09531 192.6692 92.8033 192.6312 92.499306 192.6242C 92.196304 192.6272 91.904305 192.66321 91.6293 192.7242C 91.3553 192.7902 91.098305 192.8932 90.8643 193.0122C 90.6293 193.1292 90.418304 193.2832 90.2323 193.4502C 90.0453 193.6182 89.8833 193.7992 89.74831 193.9982C 89.207306 194.8052 89.1143 195.7832 89.3933 196.6852zM93.6003 189.6452C 93.224304 189.3782 92.8573 189.0852 92.499306 188.7642C 92.1433 189.0852 91.776306 189.3782 91.4003 189.6452C 91.02431 189.9242 90.638306 190.1752 90.24631 190.41121C 90.7163 190.8972 91.1573 191.3942 91.56731 191.9002C 91.8653 191.84421 92.17731 191.8122 92.499306 191.8062C 92.8223 191.8122 93.1353 191.84421 93.433304 191.9002C 93.8423 191.3942 94.2843 190.89621 94.7543 190.41121C 94.362305 190.1752 93.9763 189.9242 93.6003 189.6452zM95.6573 190.9272C 95.2163 191.3522 94.8013 191.7792 94.4113 192.2202C 94.77431 192.3902 95.098305 192.6062 95.3783 192.84421C 95.6573 193.09421 95.890305 193.3712 96.0763 193.6642C 97.054306 193.2812 98.0663 192.8892 99.098305 192.5412C 97.9103 192.0402 96.7573 191.5262 95.6573 190.9272zM103.26231 194.2852C 102.304306 193.87021 101.347305 193.4712 100.402306 193.0802C 100.3933 193.0832 100.38631 193.0872 100.377304 193.0892C 99.01231 193.5112 97.694305 193.9502 96.4343 194.4372C 96.6333 195.0462 96.6593 195.6832 96.5333 196.3092C 96.8373 196.2102 97.1563 196.1092 97.4793 196.0312C 97.80031 195.9572 98.13631 195.8782 98.471306 195.82921C 99.6483 195.63521 100.9133 195.5822 102.1993 195.5842C 103.485306 195.5852 104.791306 195.6432 106.09331 195.6042C 105.167305 195.1472 104.223305 194.6972 103.26231 194.2852zM103.71831 196.6812C 102.4263 196.6542 101.1423 196.6402 99.960304 196.7822C 98.2963 196.9662 96.7113 197.5002 95.4513 198.3602C 94.1843 199.21921 93.24831 200.4072 92.721306 201.8322C 92.6723 201.9642 92.585304 202.0282 92.499306 202.0252C 92.4133 202.0282 92.32831 201.9642 92.278305 201.8322C 91.750305 200.4072 90.81531 199.21921 89.5483 198.3602C 88.2883 197.5002 86.7043 196.9662 85.0383 196.7822C 83.85831 196.6402 82.5743 196.6542 81.2823 196.6812C 79.9893 196.7052 78.695305 196.7522 77.4373 196.5572C 77.63231 197.8152 77.584305 199.1092 77.5603 200.4022C 77.5343 201.6942 77.5203 202.97821 77.66231 204.15921C 77.8463 205.8242 78.3793 207.40921 79.2403 208.6682C 80.099304 209.9362 81.28731 210.8712 82.7123 211.3992C 82.8443 211.4482 82.9083 211.5352 82.905304 211.62021C 82.9083 211.7062 82.8443 211.7922 82.7123 211.8412C 81.28731 212.37021 80.099304 213.3042 79.2403 214.5712C 78.3793 215.8322 77.8463 217.4162 77.66231 219.0822C 77.5203 220.2622 77.5343 221.5462 77.5603 222.8382C 77.584305 224.1302 77.63231 225.4252 77.4373 226.6832C 78.695305 226.4882 79.9893 226.53621 81.2823 226.5592C 82.5743 226.5862 83.8573 226.5992 85.0383 226.4582C 86.70331 226.27321 88.2883 225.7402 89.5483 224.8792C 90.81531 224.02121 91.750305 222.8332 92.278305 221.4082C 92.32831 221.2762 92.4133 221.2122 92.499306 221.21521C 92.585304 221.2122 92.6723 221.2762 92.721306 221.4082C 93.24831 222.8332 94.1843 224.02121 95.4513 224.8792C 96.710304 225.7402 98.2963 226.27321 99.960304 226.4582C 101.1423 226.5992 102.4263 226.5862 103.71831 226.5592C 105.0103 226.53621 106.305305 226.4882 107.5633 226.6832C 107.3683 225.4252 107.415306 224.1302 107.4393 222.8382C 107.4663 221.5462 107.4793 220.2622 107.3383 219.0822C 107.153305 217.4162 106.6203 215.8322 105.75931 214.5712C 104.901306 213.3042 103.7123 212.3692 102.28731 211.8412C 102.1563 211.7922 102.0923 211.7062 102.09531 211.62021C 102.0923 211.5352 102.1563 211.4482 102.28731 211.3992C 103.7123 210.8712 104.901306 209.9352 105.75931 208.6682C 106.6203 207.40921 107.153305 205.8242 107.3383 204.15921C 107.4793 202.97821 107.4663 201.6942 107.4393 200.4022C 107.415306 199.1092 107.3683 197.8152 107.5633 196.5572C 106.305305 196.7522 105.0103 196.7052 103.71831 196.6812zM109.835304 200.85721C 109.4233 199.8972 108.973305 198.9532 108.515305 198.0272C 108.4773 199.32921 108.5343 200.6342 108.5363 201.9202C 108.53831 203.2072 108.485306 204.4712 108.290306 205.6492C 108.2413 205.9842 108.1623 206.3202 108.0893 206.6412C 108.01131 206.9642 107.9103 207.2832 107.8103 207.5872C 108.4373 207.4612 109.0743 207.4872 109.683304 207.6862C 110.1703 206.42621 110.60831 205.10721 111.030304 203.74321C 111.0333 203.7342 111.0373 203.7272 111.040306 203.7182C 110.64931 202.77321 110.250305 201.81621 109.835304 200.85721zM111.5793 205.0222C 111.2303 206.0542 110.8383 207.06621 110.45631 208.0442C 110.749306 208.23021 111.026306 208.4632 111.276306 208.7422C 111.513306 209.02121 111.7303 209.3462 111.90031 209.7082C 112.3413 209.3192 112.7683 208.9032 113.193306 208.4632C 112.59331 207.3632 112.08031 206.2102 111.5793 205.0222zM114.4753 210.5202C 114.196304 210.1442 113.945305 209.75821 113.708305 209.3662C 113.223305 209.8362 112.7263 210.2772 112.22031 210.68721C 112.276306 210.9852 112.308304 211.2972 112.3133 211.62021C 112.308304 211.9432 112.276306 212.2552 112.22031 212.5532C 112.7263 212.9632 113.223305 213.4042 113.708305 213.8742C 113.945305 213.48221 114.196304 213.0962 114.4753 212.7202C 114.7423 212.34421 115.0343 211.9772 115.3553 211.62021C 115.0343 211.2632 114.7423 210.89621 114.4753 210.5202z" stroke="#E7BC9E" stroke-width="0.425" fill="none" />
		</g>
	</g>
</g>
</svg>