<?xml version="1.0" standalone="no"?>
<!DOCTYPE svg PUBLIC "-//W3C//DTD SVG 1.0//EN" "http://www.w3.org/TR/2001/REC-SVG-20010904/DTD/svg10.dtd">
<svg xmlns="http://www.w3.org/2000/svg" xmlns:xlink="http://www.w3.org/1999/xlink" id="body_10" width="247" height="421">

<defs>
    <clipPath  id="1">

    <path id=""  clip-rule="evenodd" transform="matrix(1 0 0 1 0 0)"  d="M0 316L0 0L0 0L185 0L185 0L185 316L185 316L0 316z" />    </clipPath>
    <clipPath  id="2">

    <path id=""  clip-rule="evenodd" transform="matrix(1 0 0 1 0 0)"  d="M0 0L185 0L185 0L185 316L185 316L0 316z" />    </clipPath>
</defs>

<g transform="matrix(1.3333 0 0 1.3333 0 0)">
	<g clip-path="url(#1)" >
		<g clip-path="url(#2)" >
    <path id=""  transform="matrix(1 0 0 -1 0 316)"  d="M101.0601 211.6119C 102.9341 212.87689 104.631096 214.1099 106.104095 215.2629C 104.231094 215.5349 102.133095 215.7589 99.8911 215.9039C 100.90009 217.9209 101.74809 219.8259 102.453094 221.58789C 100.69209 220.88289 98.786095 220.01889 96.7691 219.0259C 96.6251 221.2679 96.4011 223.34889 96.145096 225.2219C 94.9761 223.73389 93.742096 222.03589 92.493095 220.16289C 91.244095 222.03589 90.0121 223.73389 88.843094 225.2219C 88.5871 223.34889 88.3621 221.2679 88.21909 219.0259C 86.201096 220.01889 84.2951 220.88289 82.534096 221.58789C 83.2381 219.8259 84.0871 217.9209 85.0961 215.9039C 82.855095 215.7589 80.773094 215.5349 78.9001 215.2629C 80.3721 214.09389 82.0691 212.8619 83.92709 211.6119C 82.0691 210.3799 80.3891 209.1619 78.9151 207.97789C 80.773094 207.7049 82.855095 207.49689 85.0961 207.35289C 84.104095 205.33589 83.2381 203.42989 82.550095 201.6689C 84.2951 202.3729 86.217094 203.2219 88.21909 204.21489C 88.3621 201.9729 88.5871 199.8909 88.843094 198.0179C 90.0121 199.5069 91.244095 201.20389 92.493095 203.0779C 93.742096 201.20389 94.9761 199.5069 96.145096 198.0179C 96.4011 199.8909 96.6251 201.9729 96.7691 204.21489C 98.786095 203.2219 100.69209 202.3729 102.437096 201.6689C 101.74809 203.42989 100.884094 205.33589 99.8911 207.35289C 102.133095 207.49689 104.215096 207.7049 106.0881 207.97789C 104.6141 209.1469 102.9171 210.3629 101.0601 211.6119M96.8381 209.1119C 96.27409 209.0739 95.69109 209.0459 95.0981 209.0179C 95.0691 208.4159 95.0411 207.8319 95.0031 207.26689C 94.495094 207.51189 93.968094 207.7849 93.44109 208.05789C 93.12109 207.5589 92.8111 207.06989 92.4901 206.59889C 92.1701 207.06989 91.8591 207.5589 91.5401 208.05789C 91.0131 207.7849 90.4851 207.51189 89.978096 207.26689C 89.940094 207.8319 89.911095 208.4159 89.883095 209.0179C 89.2901 209.0459 88.7071 209.0739 88.1421 209.1119C 88.3871 209.61089 88.6501 210.12889 88.9331 210.65489C 88.425095 210.9849 87.9351 211.30489 87.45509 211.6149C 87.9351 211.9359 88.425095 212.25589 88.9331 212.5849C 88.6501 213.1119 88.3871 213.6299 88.1421 214.1379C 88.7071 214.1749 89.2901 214.20389 89.883095 214.23189C 89.911095 214.82489 89.940094 215.4079 89.978096 215.9729C 90.4851 215.7289 91.0031 215.45589 91.5401 215.18289C 91.8591 215.69089 92.1701 216.1709 92.4901 216.6409C 92.8111 216.1709 93.12109 215.69089 93.44109 215.18289C 93.978096 215.45589 94.495094 215.7289 95.0031 215.9729C 95.0411 215.4079 95.0691 214.82489 95.0981 214.23189C 95.69109 214.20389 96.27409 214.1749 96.8381 214.1379C 96.59409 213.6299 96.3201 213.10289 96.048096 212.57489C 96.5561 212.25589 97.0451 211.9359 97.5161 211.6149C 97.0451 211.30489 96.5561 210.9849 96.048096 210.66489C 96.33009 210.1379 96.59409 209.61989 96.8381 209.1119" stroke="none" fill="#E7BC9E" fill-rule="nonzero" />
    <path id=""  transform="matrix(1 0 0 -1 0 316)"  d="M86.8375 232.69229C 88.4525 230.5493 90.067505 228.2683 91.6555 225.8873L91.6555 225.8873L92.4875 224.6383L92.4875 224.6383L93.3205 225.8873C 94.9075 228.2673 96.5215 230.5483 98.138504 232.69229C 98.4735 229.9163 98.7315 227.1383 98.9075 224.4053L98.9075 224.4053L99.0035 222.9103L99.0035 222.9103L100.3475 223.5723C 103.0515 224.9023 105.5905 226.0743 107.9265 227.0703C 106.8695 224.5753 105.6975 222.0373 104.427505 219.4993L104.427505 219.4993L103.7545 218.1503L103.7545 218.1503L105.2595 218.0533C 108.109505 217.8703 110.900505 217.60829 113.5875 217.2713C 111.483505 215.6873 109.206505 214.0663 106.791504 212.4353L106.791504 212.4353L105.5605 211.6043L105.5605 211.6043L106.7935 210.7763C 109.3475 209.0573 111.5845 207.4733 113.568504 205.9743C 111.0035 205.6593 108.218506 205.4053 105.2595 205.2153L105.2595 205.2153L103.763504 205.1183L103.763504 205.1183L104.4265 203.77429C 105.7985 200.9843 106.9495 198.4833 107.912506 196.1943C 105.4475 197.2423 102.912506 198.4073 100.3475 199.6683L100.3475 199.6683L99.0035 200.33029L99.0035 200.33029L98.9075 198.8353C 98.7315 196.1013 98.4735 193.3243 98.138504 190.5483C 96.5215 192.69229 94.9075 194.97229 93.3205 197.3533L93.3205 197.3533L92.4875 198.6023L92.4875 198.6023L91.6555 197.3533C 90.067505 194.9713 88.4525 192.6913 86.8375 190.5483C 86.5025 193.3253 86.2445 196.1023 86.068504 198.8353L86.068504 198.8353L85.971504 200.3353L85.971504 200.3353L84.6255 199.6673C 82.1465 198.4373 79.6115 197.2733 77.0615 196.19229C 78.0255 198.4823 79.1765 200.9833 80.55051 203.77429L80.55051 203.77429L81.2115 205.1183L81.2115 205.1183L79.7175 205.2153C 76.74451 205.4063 73.9615 205.6603 71.4135 205.9753C 73.4585 207.5363 75.7245 209.1443 78.177505 210.7723L78.177505 210.7723L79.42551 211.6003L79.42551 211.6003L78.1825 212.4363C 75.7425 214.0773 73.468506 215.6973 71.3985 217.2693C 74.0945 217.60829 76.8835 217.87129 79.7175 218.0533L79.7175 218.0533L81.221504 218.1503L81.221504 218.1503L80.5475 219.4993C 79.277504 222.0383 78.1055 224.5753 77.0495 227.0703C 79.3855 226.0743 81.92551 224.9023 84.6285 223.5723L84.6285 223.5723L85.971504 222.9103L85.971504 222.9103L86.068504 224.4053C 86.2445 227.1383 86.5025 229.9153 86.8375 232.69229M98.8225 235.2213C 96.7945 232.6383 94.6545 229.69229 92.4875 226.44229C 90.3205 229.69229 88.1815 232.6383 86.1535 235.2213C 85.7095 231.9713 85.3195 228.3593 85.0695 224.47029C 81.5695 226.19229 78.262505 227.69229 75.207504 228.9153C 76.429504 225.85829 77.902504 222.5533 79.652504 219.05229C 75.762505 218.80229 72.1505 218.4133 68.9005 217.94029C 71.456505 215.9123 74.401505 213.7733 77.624504 211.6063C 74.401505 209.4673 71.484505 207.3553 68.927505 205.3003C 72.1505 204.8273 75.762505 204.4663 79.652504 204.2163C 77.929504 200.7153 76.429504 197.4093 75.234505 194.3533C 78.262505 195.5753 81.596504 197.0483 85.0695 198.7703C 85.3195 194.8813 85.7095 191.2693 86.1535 188.0193C 88.1815 190.6023 90.3205 193.5473 92.4875 196.7983C 94.6545 193.5473 96.7945 190.6023 98.8225 188.0193C 99.2665 191.2693 99.6555 194.8813 99.9055 198.7703C 103.4065 197.0483 106.7125 195.5753 109.7405 194.3533C 108.5465 197.4093 107.0465 200.7153 105.3235 204.2163C 109.2135 204.4663 112.8245 204.8273 116.0755 205.3003C 113.5185 207.3273 110.5745 209.4393 107.3515 211.6063C 110.6015 213.8013 113.5475 215.94029 116.1025 217.94029C 112.8515 218.4133 109.2135 218.80229 105.3235 219.05229C 107.0735 222.5533 108.5465 225.85829 109.7685 228.9153C 106.7125 227.69229 103.4065 226.19229 99.9055 224.47029C 99.6555 228.3593 99.2665 231.9713 98.8225 235.2213" stroke="none" fill="#E7BC9E" fill-rule="nonzero" />
    <path id=""  transform="matrix(1 0 0 -1 0 316)"  d="M92.4875 226.442L92.4875 218.799" stroke="#E7BC9E" stroke-width="1" fill="none" />
    <path id=""  transform="matrix(1 0 0 -1 0 316)"  d="M85.0569 224.4513L88.8779 217.83229" stroke="#E7BC9E" stroke-width="1" fill="none" />
    <path id=""  transform="matrix(1 0 0 -1 0 316)"  d="M79.6174 219.0113L86.236404 215.1903" stroke="#E7BC9E" stroke-width="1" fill="none" />
    <path id=""  transform="matrix(1 0 0 -1 0 316)"  d="M77.6262 211.5807L85.269196 211.5807" stroke="#E7BC9E" stroke-width="1" fill="none" />
    <path id=""  transform="matrix(1 0 0 -1 0 316)"  d="M79.6174 204.15L86.236404 207.971" stroke="#E7BC9E" stroke-width="1" fill="none" />
    <path id=""  transform="matrix(1 0 0 -1 0 316)"  d="M85.0569 198.7105L88.8779 205.3295" stroke="#E7BC9E" stroke-width="1" fill="none" />
    <path id=""  transform="matrix(1 0 0 -1 0 316)"  d="M92.4875 196.7193L92.4875 204.3623" stroke="#E7BC9E" stroke-width="1" fill="none" />
    <path id=""  transform="matrix(1 0 0 -1 0 316)"  d="M99.9182 198.7105L96.0972 205.3295" stroke="#E7BC9E" stroke-width="1" fill="none" />
    <path id=""  transform="matrix(1 0 0 -1 0 316)"  d="M105.3586 204.15L98.73959 207.971" stroke="#E7BC9E" stroke-width="1" fill="none" />
    <path id=""  transform="matrix(1 0 0 -1 0 316)"  d="M107.3489 211.5807L99.7059 211.5807" stroke="#E7BC9E" stroke-width="1" fill="none" />
    <path id=""  transform="matrix(1 0 0 -1 0 316)"  d="M105.3586 219.0113L98.73959 215.1903" stroke="#E7BC9E" stroke-width="1" fill="none" />
    <path id=""  transform="matrix(1 0 0 -1 0 316)"  d="M99.9182 224.4513L96.0972 217.83229" stroke="#E7BC9E" stroke-width="1" fill="none" />
		</g>
	</g>
</g>
</svg>