<?xml version="1.0" standalone="no"?>
<!DOCTYPE svg PUBLIC "-//W3C//DTD SVG 1.0//EN" "http://www.w3.org/TR/2001/REC-SVG-20010904/DTD/svg10.dtd">
<svg xmlns="http://www.w3.org/2000/svg" xmlns:xlink="http://www.w3.org/1999/xlink" id="body_1" width="247" height="421">

<defs>
    <clipPath  id="1">

    <path id=""  clip-rule="evenodd" transform="matrix(1 0 0 1 0 0)"  d="M0 316L0 0L0 0L185 0L185 0L185 316L185 316L0 316z" />    </clipPath>
    <clipPath  id="2">

    <path id=""  clip-rule="evenodd" transform="matrix(1 0 0 1 0 0)"  d="M0 0L185 0L185 0L185 316L185 316L0 316z" />    </clipPath>
</defs>

<g transform="matrix(1.3333 0 0 1.3333 0 0)">
	<g clip-path="url(#1)" >
		<g clip-path="url(#2)" >
    <path id=""  transform="matrix(1 0 0 -1 0 316)"  d="M92.4931 232.548C 80.851105 232.548 71.380104 223.07701 71.380104 211.436C 71.380104 199.793 80.851105 190.321 92.4931 190.321C 104.1351 190.321 113.6061 199.793 113.6061 211.436C 113.6061 223.07701 104.1351 232.548 92.4931 232.548z" stroke="#E7BC9E" stroke-width="1.3" stroke-linecap="round" fill="none" />
    <path id=""  transform="matrix(1 0 0 -1 0 316)"  d="M94.0517 234.1075C 94.0517 233.2465 93.3547 232.5475 92.4927 232.5475C 91.6317 232.5475 90.9337 233.2465 90.9337 234.1075C 90.9337 234.9675 91.6317 235.6665 92.4927 235.6665C 93.3547 235.6665 94.0517 234.9675 94.0517 234.1075z" stroke="#E7BC9E" stroke-width="1" stroke-linecap="round" fill="none" />
    <path id=""  transform="matrix(1 0 0 -1 0 316)"  d="M94.0517 224.3302C 94.0517 223.4702 93.3547 222.7712 92.4927 222.7712C 91.6317 222.7712 90.9337 223.4702 90.9337 224.3302C 90.9337 225.1912 91.6317 225.8902 92.4927 225.8902C 93.3547 225.8902 94.0517 225.1912 94.0517 224.3302z" stroke="#E7BC9E" stroke-width="1" stroke-linecap="round" fill="none" />
    <path id=""  transform="matrix(1 0 0 -1 0 316)"  d="M94.0517 216.6896C 94.0517 215.82861 93.3547 215.1306 92.4927 215.1306C 91.6317 215.1306 90.9337 215.82861 90.9337 216.6896C 90.9337 217.5506 91.6317 218.24861 92.4927 218.24861C 93.3547 218.24861 94.0517 217.5506 94.0517 216.6896z" stroke="#E7BC9E" stroke-width="1" stroke-linecap="round" fill="none" />
    <path id=""  transform="matrix(1 0 0 -1 0 316)"  d="M94.0517 198.5392C 94.0517 197.6792 93.3547 196.9802 92.4927 196.9802C 91.6317 196.9802 90.9337 197.6792 90.9337 198.5392C 90.9337 199.40019 91.6317 200.0992 92.4927 200.0992C 93.3547 200.0992 94.0517 199.40019 94.0517 198.5392z" stroke="#E7BC9E" stroke-width="1" stroke-linecap="round" fill="none" />
    <path id=""  transform="matrix(1 0 0 -1 0 316)"  d="M94.0517 206.1808C 94.0517 205.31981 93.3547 204.6208 92.4927 204.6208C 91.6317 204.6208 90.9337 205.31981 90.9337 206.1808C 90.9337 207.0408 91.6317 207.7398 92.4927 207.7398C 93.3547 207.7398 94.0517 207.0408 94.0517 206.1808z" stroke="#E7BC9E" stroke-width="1" stroke-linecap="round" fill="none" />
    <path id=""  transform="matrix(1 0 0 -1 0 316)"  d="M97.748 209.8761C 96.887 209.8761 96.188 210.5741 96.188 211.4351C 96.188 212.2961 96.887 212.9941 97.748 212.9941C 98.608 212.9941 99.307 212.2961 99.307 211.4351C 99.307 210.5741 98.608 209.8761 97.748 209.8761z" stroke="#E7BC9E" stroke-width="1" stroke-linecap="round" fill="none" />
    <path id=""  transform="matrix(1 0 0 -1 0 316)"  d="M105.3886 209.8761C 104.5276 209.8761 103.828606 210.5741 103.828606 211.4351C 103.828606 212.2961 104.5276 212.9941 105.3886 212.9941C 106.248604 212.9941 106.9476 212.2961 106.9476 211.4351C 106.9476 210.5741 106.248604 209.8761 105.3886 209.8761z" stroke="#E7BC9E" stroke-width="1" stroke-linecap="round" fill="none" />
    <path id=""  transform="matrix(1 0 0 -1 0 316)"  d="M87.2383 209.8761C 86.3773 209.8761 85.6793 210.5741 85.6793 211.4351C 85.6793 212.2961 86.3773 212.9941 87.2383 212.9941C 88.0993 212.9941 88.798294 212.2961 88.798294 211.4351C 88.798294 210.5741 88.0993 209.8761 87.2383 209.8761z" stroke="#E7BC9E" stroke-width="1" stroke-linecap="round" fill="none" />
    <path id=""  transform="matrix(1 0 0 -1 0 316)"  d="M79.5976 209.8761C 78.7366 209.8761 78.038605 210.5741 78.038605 211.4351C 78.038605 212.2961 78.7366 212.9941 79.5976 212.9941C 80.4586 212.9941 81.1566 212.2961 81.1566 211.4351C 81.1566 210.5741 80.4586 209.8761 79.5976 209.8761z" stroke="#E7BC9E" stroke-width="1" stroke-linecap="round" fill="none" />
    <path id=""  transform="matrix(1 0 0 -1 0 316)"  d="M100.5088 201.214C 99.900795 201.823 99.900795 202.81 100.5088 203.419C 101.1178 204.02701 102.1058 204.02701 102.7138 203.419C 103.3218 202.81 103.3218 201.823 102.7138 201.214C 102.1058 200.606 101.1178 200.606 100.5088 201.214z" stroke="#E7BC9E" stroke-width="1" stroke-linecap="round" fill="none" />
    <path id=""  transform="matrix(1 0 0 -1 0 316)"  d="M82.2724 219.4513C 81.6634 220.0593 81.6634 221.04729 82.2724 221.65529C 82.8804 222.2643 83.8684 222.2643 84.4774 221.65529C 85.0854 221.04729 85.0854 220.0593 84.4774 219.4513C 83.8684 218.8423 82.8804 218.8423 82.2724 219.4513z" stroke="#E7BC9E" stroke-width="1" stroke-linecap="round" fill="none" />
    <path id=""  transform="matrix(1 0 0 -1 0 316)"  d="M102.7138 219.4513C 102.1058 218.8423 101.1178 218.8423 100.5088 219.4513C 99.900795 220.0593 99.900795 221.04729 100.5088 221.65529C 101.1178 222.2643 102.1058 222.2643 102.7138 221.65529C 103.3218 221.04729 103.3218 220.0593 102.7138 219.4513z" stroke="#E7BC9E" stroke-width="1" stroke-linecap="round" fill="none" />
    <path id=""  transform="matrix(1 0 0 -1 0 316)"  d="M84.4775 201.214C 83.8685 200.606 82.8805 200.606 82.2725 201.214C 81.6635 201.823 81.6635 202.81 82.2725 203.419C 82.8805 204.02701 83.8685 204.02701 84.4775 203.419C 85.0855 202.81 85.0855 201.823 84.4775 201.214z" stroke="#E7BC9E" stroke-width="1" stroke-linecap="round" fill="none" />
    <path id=""  transform="matrix(1 0 0 -1 0 316)"  d="M94.0517 188.7628C 94.0517 187.90181 93.3547 187.2038 92.4927 187.2038C 91.6317 187.2038 90.9337 187.90181 90.9337 188.7628C 90.9337 189.6238 91.6317 190.32181 92.4927 190.32181C 93.3547 190.32181 94.0517 189.6238 94.0517 188.7628z" stroke="#E7BC9E" stroke-width="1" stroke-linecap="round" fill="none" />
    <path id=""  transform="matrix(1 0 0 -1 0 316)"  d="M82.5068 231.8487C 82.9378 231.1037 82.6818 230.1507 81.9368 229.7197C 81.190796 229.2887 80.2368 229.5447 79.8068 230.28969C 79.3758 231.0367 79.6318 231.9897 80.3778 232.4197C 81.122795 232.8507 82.0758 232.5947 82.5068 231.8487z" stroke="#E7BC9E" stroke-width="1" stroke-linecap="round" fill="none" />
    <path id=""  transform="matrix(1 0 0 -1 0 316)"  d="M105.1797 192.5802C 105.6097 191.8342 105.354706 190.8812 104.6087 190.4502C 103.8637 190.0192 102.90871 190.2752 102.479706 191.0202C 102.048706 191.7672 102.3037 192.7202 103.049706 193.1502C 103.7947 193.5812 104.7487 193.3252 105.1797 192.5802z" stroke="#E7BC9E" stroke-width="1" stroke-linecap="round" fill="none" />
    <path id=""  transform="matrix(1 0 0 -1 0 316)"  d="M73.6377 224.1212C 74.383705 223.6902 74.6387 222.7372 74.2077 221.9912C 73.7787 221.2462 72.8247 220.9902 72.078705 221.4212C 71.3327 221.8512 71.077705 222.8052 71.507706 223.5512C 71.938705 224.2962 72.8927 224.5522 73.6377 224.1212z" stroke="#E7BC9E" stroke-width="1" stroke-linecap="round" fill="none" />
    <path id=""  transform="matrix(1 0 0 -1 0 316)"  d="M112.9072 201.4493C 113.653206 201.0183 113.9082 200.06529 113.4772 199.31929C 113.0482 198.57329 112.0942 198.3183 111.348206 198.7493C 110.6022 199.1783 110.34621 200.1333 110.77721 200.8783C 111.208206 201.6243 112.1612 201.8803 112.9072 201.4493z" stroke="#E7BC9E" stroke-width="1" stroke-linecap="round" fill="none" />
    <path id=""  transform="matrix(1 0 0 -1 0 316)"  d="M69.8213 212.9942C 70.6813 212.9942 71.380295 212.2962 71.380295 211.4342C 71.380295 210.5742 70.6813 209.8762 69.8213 209.8762C 68.9603 209.8762 68.2613 210.5742 68.2613 211.4342C 68.2613 212.2962 68.9603 212.9942 69.8213 212.9942z" stroke="#E7BC9E" stroke-width="1" stroke-linecap="round" fill="none" />
    <path id=""  transform="matrix(1 0 0 -1 0 316)"  d="M115.165 212.9942C 116.026 212.9942 116.725 212.2962 116.725 211.4342C 116.725 210.5742 116.026 209.8762 115.165 209.8762C 114.305 209.8762 113.606 210.5742 113.606 211.4342C 113.606 212.2962 114.305 212.9942 115.165 212.9942z" stroke="#E7BC9E" stroke-width="1" stroke-linecap="round" fill="none" />
    <path id=""  transform="matrix(1 0 0 -1 0 316)"  d="M72.0791 201.4493C 72.824104 201.8803 73.7781 201.6243 74.2081 200.8783C 74.6391 200.1333 74.3841 199.1783 73.6381 198.7493C 72.892105 198.3183 71.9381 198.57329 71.5081 199.31929C 71.0781 200.06529 71.3331 201.0183 72.0791 201.4493z" stroke="#E7BC9E" stroke-width="1" stroke-linecap="round" fill="none" />
    <path id=""  transform="matrix(1 0 0 -1 0 316)"  d="M111.3486 224.1212C 112.093605 224.5522 113.0476 224.2962 113.4776 223.5512C 113.9086 222.8052 113.6536 221.8512 112.9076 221.4212C 112.1606 220.9902 111.2076 221.2462 110.7776 221.9912C 110.3466 222.7372 110.6026 223.6902 111.3486 224.1212z" stroke="#E7BC9E" stroke-width="1" stroke-linecap="round" fill="none" />
    <path id=""  transform="matrix(1 0 0 -1 0 316)"  d="M79.8066 192.5802C 80.2376 193.3252 81.190605 193.5812 81.9366 193.1502C 82.6816 192.7202 82.9376 191.7672 82.5066 191.0202C 82.0766 190.2752 81.122604 190.0192 80.3776 190.4502C 79.6316 190.8812 79.3756 191.8342 79.8066 192.5802z" stroke="#E7BC9E" stroke-width="1" stroke-linecap="round" fill="none" />
    <path id=""  transform="matrix(1 0 0 -1 0 316)"  d="M102.4795 231.8487C 102.9095 232.5947 103.8635 232.8507 104.6085 232.4197C 105.3545 231.9897 105.6095 231.0367 105.1795 230.28969C 104.7495 229.5447 103.7945 229.2887 103.0495 229.7197C 102.3035 230.1507 102.0485 231.1037 102.4795 231.8487z" stroke="#E7BC9E" stroke-width="1" stroke-linecap="round" fill="none" />
    <path id=""  transform="matrix(1 0 0 -1 0 316)"  d="M90.9375 224.2374C 88.5435 223.9484 86.3495 223.0004 84.5425 221.58139" stroke="#E7BC9E" stroke-width="0.6" stroke-linecap="round" fill="none" />
    <path id=""  transform="matrix(1 0 0 -1 0 316)"  d="M100.4414 221.5831C 98.6344 223.0011 96.4414 223.9481 94.0484 224.2371" stroke="#E7BC9E" stroke-width="0.6" stroke-linecap="round" fill="none" />
    <path id=""  transform="matrix(1 0 0 -1 0 316)"  d="M105.2949 212.9913C 105.0069 215.3813 104.0619 217.5723 102.6459 219.3773" stroke="#E7BC9E" stroke-width="0.6" stroke-linecap="round" fill="none" />
    <path id=""  transform="matrix(1 0 0 -1 0 316)"  d="M102.6406 203.4864C 104.0586 205.29341 105.0056 207.4864 105.2946 209.87941" stroke="#E7BC9E" stroke-width="0.6" stroke-linecap="round" fill="none" />
    <path id=""  transform="matrix(1 0 0 -1 0 316)"  d="M94.0488 198.6329C 96.441795 198.9219 98.6338 199.8679 100.440796 201.2859" stroke="#E7BC9E" stroke-width="0.6" stroke-linecap="round" fill="none" />
    <path id=""  transform="matrix(1 0 0 -1 0 316)"  d="M84.5439 201.2872C 86.3509 199.8692 88.5439 198.9222 90.9379 198.6332" stroke="#E7BC9E" stroke-width="0.6" stroke-linecap="round" fill="none" />
    <path id=""  transform="matrix(1 0 0 -1 0 316)"  d="M79.6914 209.879C 79.9804 207.486 80.9264 205.29399 82.3444 203.487" stroke="#E7BC9E" stroke-width="0.6" stroke-linecap="round" fill="none" />
    <path id=""  transform="matrix(1 0 0 -1 0 316)"  d="M82.3457 219.3839C 80.926704 217.57689 79.980705 215.3839 79.6917 212.99089" stroke="#E7BC9E" stroke-width="0.6" stroke-linecap="round" fill="none" />
    <path id=""  transform="matrix(1 0 0 -1 0 316)"  d="M97.5175 212.9757C 97.0065 214.6357 95.6945 215.94969 94.0345 216.4587" stroke="#E7BC9E" stroke-width="0.6" stroke-linecap="round" fill="none" />
    <path id=""  transform="matrix(1 0 0 -1 0 316)"  d="M94.0341 206.4112C 95.69411 206.92119 97.0071 208.2332 97.517105 209.89319" stroke="#E7BC9E" stroke-width="0.6" stroke-linecap="round" fill="none" />
    <path id=""  transform="matrix(1 0 0 -1 0 316)"  d="M87.4687 209.8937C 87.9797 208.2337 89.291695 206.9207 90.9517 206.41171" stroke="#E7BC9E" stroke-width="0.6" stroke-linecap="round" fill="none" />
    <path id=""  transform="matrix(1 0 0 -1 0 316)"  d="M90.9521 216.4591C 89.2991 215.95111 87.989105 214.64711 87.474106 212.99611" stroke="#E7BC9E" stroke-width="0.6" stroke-linecap="round" fill="none" />
    <path id=""  transform="matrix(1 0 0 -1 0 316)"  d="M92.4931 215.131L88.7981 211.435L88.7981 211.435L92.4931 207.739L92.4931 207.739L96.1881 211.435L96.1881 211.435L92.4931 215.131z" stroke="#E7BC9E" stroke-width="0.6" stroke-linecap="round" fill="none" />
    <path id=""  transform="matrix(1 0 0 -1 0 316)"  d="M92.4931 200.0987L92.4931 204.6207L92.4931 204.6207L84.477104 203.4187L84.477104 203.4187L85.6801 211.4347" stroke="#E7BC9E" stroke-width="0.6" stroke-linecap="round" fill="none" />
    <path id=""  transform="matrix(1 0 0 -1 0 316)"  d="M81.1562 211.4347L85.6792 211.4347L85.6792 211.4347L84.477196 219.45169L84.477196 219.45169L92.493195 218.2477L92.493195 218.2477L92.493195 222.7717" stroke="#E7BC9E" stroke-width="0.6" stroke-linecap="round" fill="none" />
    <path id=""  transform="matrix(1 0 0 -1 0 316)"  d="M103.8291 211.4347L99.3071 211.4347L99.3071 211.4347L100.5091 203.41869L100.5091 203.41869L92.4931 204.62169" stroke="#E7BC9E" stroke-width="0.6" stroke-linecap="round" fill="none" />
    <path id=""  transform="matrix(1 0 0 -1 0 316)"  d="M92.4931 218.2482L100.5091 219.4512L100.5091 219.4512L99.30611 211.4352" stroke="#E7BC9E" stroke-width="0.6" stroke-linecap="round" fill="none" />
    <path id=""  transform="matrix(1 0 0 -1 0 316)"  d="M92.4931 232.548L92.4931 225.89L92.4931 225.89L103.0501 229.72L103.0501 229.72L102.7141 221.655L102.7141 221.655L110.7771 221.991L110.7771 221.991L106.947105 211.435" stroke="#E7BC9E" stroke-width="0.6" stroke-linecap="round" fill="none" />
    <path id=""  transform="matrix(1 0 0 -1 0 316)"  d="M71.3799 211.4347L78.038895 211.4347L78.038895 211.4347L74.2079 221.9917L74.2079 221.9917L82.272896 221.65569L82.272896 221.65569L81.9369 229.7197L81.9369 229.7197L92.4929 225.8897" stroke="#E7BC9E" stroke-width="0.6" stroke-linecap="round" fill="none" />
    <path id=""  transform="matrix(1 0 0 -1 0 316)"  d="M92.4931 190.3214L92.4931 196.9804L92.4931 196.9804L103.0501 193.15039L103.0501 193.15039L102.7141 201.2144L102.7141 201.2144L110.7771 200.8784L110.7771 200.8784L106.947105 211.4344L106.947105 211.4344L113.6061 211.4344" stroke="#E7BC9E" stroke-width="0.6" stroke-linecap="round" fill="none" />
    <path id=""  transform="matrix(1 0 0 -1 0 316)"  d="M92.4931 196.9806L81.936104 193.1506L81.936104 193.1506L82.2721 201.21361L82.2721 201.21361L74.2081 200.87761L74.2081 200.87761L78.0391 211.4346" stroke="#E7BC9E" stroke-width="0.6" stroke-linecap="round" fill="none" />
		</g>
	</g>
</g>
</svg>