<?xml version="1.0" standalone="no"?>
<!DOCTYPE svg PUBLIC "-//W3C//DTD SVG 1.0//EN" "http://www.w3.org/TR/2001/REC-SVG-20010904/DTD/svg10.dtd">
<svg xmlns="http://www.w3.org/2000/svg" xmlns:xlink="http://www.w3.org/1999/xlink" id="body_2" width="247" height="421">

<defs>
    <clipPath  id="1">

    <path id=""  clip-rule="evenodd" transform="matrix(1 0 0 1 0 0)"  d="M0 316L0 0L0 0L185 0L185 0L185 316L185 316L0 316z" />    </clipPath>
    <clipPath  id="2">

    <path id=""  clip-rule="evenodd" transform="matrix(1 0 0 1 0 0)"  d="M0 0L185 0L185 0L185 316L185 316L0 316z" />    </clipPath>
</defs>

<g transform="matrix(1.3333 0 0 1.3333 0 0)">
	<g clip-path="url(#1)" >
		<g clip-path="url(#2)" >
    <path id=""  transform="matrix(1 0 0 -1 0 316)"  d="M83.5957 215.6494C 83.5957 215.1944 83.2267 214.8254 82.771706 214.8254C 82.3177 214.8254 81.9487 215.1944 81.9487 215.6494C 81.9487 216.1034 82.3177 216.4724 82.771706 216.4724C 83.2267 216.4724 83.5957 216.1034 83.5957 215.6494z" stroke="#E7BC9E" stroke-width="0.5" stroke-linecap="round" fill="none" />
    <path id=""  transform="matrix(1 0 0 -1 0 316)"  d="M103.0625 215.6494C 103.0625 215.1944 102.6945 214.8254 102.2395 214.8254C 101.7845 214.8254 101.4165 215.1944 101.4165 215.6494C 101.4165 216.1034 101.7845 216.4724 102.2395 216.4724C 102.6945 216.4724 103.0625 216.1034 103.0625 215.6494z" stroke="#E7BC9E" stroke-width="0.5" stroke-linecap="round" fill="none" />
    <path id=""  transform="matrix(1 0 0 -1 0 316)"  d="M89.3466 221.4414C 89.3466 220.98741 88.9776 220.61841 88.523605 220.61841C 88.4346 220.61841 88.3496 220.63141 88.27061 220.65741C 87.939606 220.7644 87.6996 221.07541 87.6996 221.4414C 87.6996 221.89641 88.0686 222.2644 88.523605 222.2644C 88.9776 222.2644 89.3466 221.89641 89.3466 221.4414z" stroke="#E7BC9E" stroke-width="0.5" stroke-linecap="round" fill="none" />
    <path id=""  transform="matrix(1 0 0 -1 0 316)"  d="M97.3984 221.4414C 97.3984 220.98741 97.0304 220.61841 96.5754 220.61841C 96.1204 220.61841 95.752396 220.98741 95.752396 221.4414C 95.752396 221.89641 96.1204 222.2644 96.5754 222.2644C 97.0304 222.2644 97.3984 221.89641 97.3984 221.4414z" stroke="#E7BC9E" stroke-width="0.5" stroke-linecap="round" fill="none" />
    <path id=""  transform="matrix(1 0 0 -1 0 316)"  d="M101.416 207.6904C 101.416 208.1454 101.784 208.5134 102.239 208.5134C 102.694 208.5134 103.062004 208.1454 103.062004 207.6904C 103.062004 207.2354 102.694 206.8674 102.239 206.8674C 101.784 206.8674 101.416 207.2354 101.416 207.6904z" stroke="#E7BC9E" stroke-width="0.5" stroke-linecap="round" fill="none" />
    <path id=""  transform="matrix(1 0 0 -1 0 316)"  d="M81.9482 207.6904C 81.9482 208.1454 82.3172 208.5134 82.771194 208.5134C 83.2262 208.5134 83.5952 208.1454 83.5952 207.6904C 83.5952 207.2354 83.2262 206.8674 82.771194 206.8674C 82.3172 206.8674 81.9482 207.2354 81.9482 207.6904z" stroke="#E7BC9E" stroke-width="0.5" stroke-linecap="round" fill="none" />
    <path id=""  transform="matrix(1 0 0 -1 0 316)"  d="M95.664 201.8974C 95.664 202.3524 96.033005 202.7214 96.488 202.7214C 96.942 202.7214 97.311005 202.3524 97.311005 201.8974C 97.311005 201.4434 96.942 201.0744 96.488 201.0744C 96.033005 201.0744 95.664 201.4434 95.664 201.8974z" stroke="#E7BC9E" stroke-width="0.5" stroke-linecap="round" fill="none" />
    <path id=""  transform="matrix(1 0 0 -1 0 316)"  d="M87.6123 201.8974C 87.6123 202.3524 87.98029 202.7214 88.435295 202.7214C 88.8903 202.7214 89.2583 202.3524 89.2583 201.8974C 89.2583 201.4434 88.8903 201.0744 88.435295 201.0744C 87.98029 201.0744 87.6123 201.4434 87.6123 201.8974z" stroke="#E7BC9E" stroke-width="0.5" stroke-linecap="round" fill="none" />
    <path id=""  transform="matrix(1 0 0 -1 0 316)"  d="M114.6611 211.6201C 114.6611 199.37311 104.7321 189.4441 92.4841 189.4441C 80.23711 189.4441 70.308105 199.37311 70.308105 211.6201C 70.308105 223.8681 80.23711 233.7971 92.4841 233.7971C 104.7321 233.7971 114.6611 223.8681 114.6611 211.6201z" stroke="#E7BC9E" stroke-width="1" stroke-linecap="round" fill="none" />
    <path id=""  transform="matrix(1 0 0 -1 0 316)"  d="M111.874 211.6201C 111.874 200.91211 103.193 192.23111 92.484 192.23111C 81.776 192.23111 73.096 200.91211 73.096 211.6201C 73.096 222.3281 81.776 231.0091 92.484 231.0091C 103.193 231.0091 111.874 222.3281 111.874 211.6201z" stroke="#E7BC9E" stroke-width="1" stroke-linecap="round" fill="none" />
    <path id=""  transform="matrix(1 0 0 -1 0 316)"  d="M88.2939 202.708C 87.6019 205.385 87.1049 208.43 87.1049 211.659C 87.1049 214.90399 87.605896 217.96199 88.3039 220.64699" stroke="#E7BC9E" stroke-width="0.5" stroke-linecap="round" fill="none" />
    <path id=""  transform="matrix(1 0 0 -1 0 316)"  d="M96.331 201.0898C 94.731 195.8028 92.54 192.3098 92.54 192.3098C 92.54 192.3098 90.337 195.8208 88.736 201.1308" stroke="#E7BC9E" stroke-width="0.5" stroke-linecap="round" fill="none" />
    <path id=""  transform="matrix(1 0 0 -1 0 316)"  d="M96.7763 220.6445C 97.4733 217.9585 97.9743 214.9025 97.9743 211.6595C 97.9743 208.4145 97.4733 205.3555 96.7753 202.6685" stroke="#E7BC9E" stroke-width="0.5" stroke-linecap="round" fill="none" />
    <path id=""  transform="matrix(1 0 0 -1 0 316)"  d="M88.75 222.2334C 90.35 227.5174 92.54 231.00839 92.54 231.00839C 92.54 231.00839 94.732 227.5144 96.332 222.2264" stroke="#E7BC9E" stroke-width="0.5" stroke-linecap="round" fill="none" />
    <path id=""  transform="matrix(1 0 0 -1 0 316)"  d="M82.4189 216.3896C 79.7859 221.2866 78.8569 225.3416 78.8569 225.3416C 78.8569 225.3416 82.8959 224.4166 87.7799 221.7966" stroke="#E7BC9E" stroke-width="0.5" stroke-linecap="round" fill="none" />
    <path id=""  transform="matrix(1 0 0 -1 0 316)"  d="M95.8086 202.3623C 93.4436 203.75931 90.9616 205.5513 88.6966 207.8163C 86.4206 210.09131 84.623604 212.5863 83.2236 214.9613" stroke="#E7BC9E" stroke-width="0.5" stroke-linecap="round" fill="none" />
    <path id=""  transform="matrix(1 0 0 -1 0 316)"  d="M102.6386 206.9707C 105.287605 202.0547 106.2216 197.9777 106.2216 197.9777C 106.2216 197.9777 102.149605 198.9097 97.2366 201.5567" stroke="#E7BC9E" stroke-width="0.5" stroke-linecap="round" fill="none" />
    <path id=""  transform="matrix(1 0 0 -1 0 316)"  d="M89.2119 220.9912C 91.5949 219.5882 94.0989 217.7862 96.3829 215.50319C 98.6439 213.2412 100.4329 210.76419 101.828896 208.4032" stroke="#E7BC9E" stroke-width="0.5" stroke-linecap="round" fill="none" />
    <path id=""  transform="matrix(1 0 0 -1 0 316)"  d="M83.5566 215.8965C 86.2416 216.5935 89.2966 217.0945 92.539604 217.0945C 95.7566 217.0945 98.7906 216.6015 101.4596 215.9135" stroke="#E7BC9E" stroke-width="0.5" stroke-linecap="round" fill="none" />
    <path id=""  transform="matrix(1 0 0 -1 0 316)"  d="M81.9687 207.8691C 76.68269 209.4691 73.1907 211.65909 73.1907 211.65909C 73.1907 211.65909 76.6847 213.85109 81.972694 215.45209" stroke="#E7BC9E" stroke-width="0.5" stroke-linecap="round" fill="none" />
    <path id=""  transform="matrix(1 0 0 -1 0 316)"  d="M101.4658 207.4072C 98.7958 206.7182 95.759796 206.2242 92.539795 206.2242C 89.2948 206.2242 86.2368 206.72519 83.5498 207.4242" stroke="#E7BC9E" stroke-width="0.5" stroke-linecap="round" fill="none" />
    <path id=""  transform="matrix(1 0 0 -1 0 316)"  d="M103.0429 215.4707C 108.3659 213.8687 111.8899 211.6587 111.8899 211.6587C 111.8899 211.6587 108.3679 209.4497 103.0469 207.8497" stroke="#E7BC9E" stroke-width="0.5" stroke-linecap="round" fill="none" />
    <path id=""  transform="matrix(1 0 0 -1 0 316)"  d="M83.2324 208.373C 84.6314 210.743 86.4254 213.231 88.696396 215.503C 90.9854 217.791 93.4944 219.59601 95.8814 221" stroke="#E7BC9E" stroke-width="0.5" stroke-linecap="round" fill="none" />
    <path id=""  transform="matrix(1 0 0 -1 0 316)"  d="M87.7216 201.4912C 82.8636 198.8942 78.857605 197.9772 78.857605 197.9772C 78.857605 197.9772 79.787605 202.0392 82.425606 206.94319" stroke="#E7BC9E" stroke-width="0.5" stroke-linecap="round" fill="none" />
    <path id=""  transform="matrix(1 0 0 -1 0 316)"  d="M101.8379 214.9306C 100.440895 212.5646 98.648895 210.0816 96.3829 207.8166C 94.0809 205.5146 91.5559 203.7016 89.1559 202.2946" stroke="#E7BC9E" stroke-width="0.5" stroke-linecap="round" fill="none" />
    <path id=""  transform="matrix(1 0 0 -1 0 316)"  d="M97.3134 221.8037C 102.1914 224.4187 106.2214 225.34169 106.2214 225.34169C 106.2214 225.34169 105.2904 221.27269 102.6464 216.3637" stroke="#E7BC9E" stroke-width="0.5" stroke-linecap="round" fill="none" />
    <path id=""  transform="matrix(1 0 0 -1 0 316)"  d="M94.4384 211.6201C 94.4384 210.5721 93.5874 209.7221 92.5404 209.7221C 91.4914 209.7221 90.6404 210.5721 90.6404 211.6201C 90.6404 212.6691 91.4914 213.5191 92.5404 213.5191C 93.5874 213.5191 94.4384 212.6691 94.4384 211.6201z" stroke="#E7BC9E" stroke-width="1" stroke-linecap="round" fill="none" />
    <path id=""  transform="matrix(1 0 0 -1 0 316)"  d="M96.0771 211.6201C 96.0771 209.6671 94.4931 208.0831 92.5401 208.0831C 90.586105 208.0831 89.003105 209.6671 89.003105 211.6201C 89.003105 213.5741 90.586105 215.1571 92.5401 215.1571C 94.4931 215.1571 96.0771 213.5741 96.0771 211.6201z" stroke="#E7BC9E" stroke-width="0.5" stroke-linecap="round" stroke-dasharray="0.698,2.472" fill="none" />
    <path id=""  transform="matrix(1 0 0 -1 0 316)"  d="M109.3203 211.6201C 109.3203 202.3521 101.8073 194.8401 92.5403 194.8401C 83.27229 194.8401 75.7583 202.3521 75.7583 211.6201C 75.7583 220.8881 83.27229 228.40111 92.5403 228.40111C 101.8073 228.40111 109.3203 220.8881 109.3203 211.6201z" stroke="#E7BC9E" stroke-width="0.5" stroke-linecap="round" stroke-dasharray="0.7,1.496" fill="none" />
		</g>
	</g>
</g>
</svg>