<?xml version="1.0" standalone="no"?>
<!DOCTYPE svg PUBLIC "-//W3C//DTD SVG 1.0//EN" "http://www.w3.org/TR/2001/REC-SVG-20010904/DTD/svg10.dtd">
<svg xmlns="http://www.w3.org/2000/svg" xmlns:xlink="http://www.w3.org/1999/xlink" id="body_2" width="247" height="421">

<defs>
    <clipPath  id="1">

    <path id=""  clip-rule="evenodd" transform="matrix(1 0 0 1 0 0)"  d="M0 316L0 0L0 0L185 0L185 0L185 316L185 316L0 316z" />    </clipPath>
    <clipPath  id="2">

    <path id=""  clip-rule="evenodd" transform="matrix(1 0 0 1 0 0)"  d="M0 0L185 0L185 0L185 316L185 316L0 316z" />    </clipPath>
</defs>

<g transform="matrix(1.3333 0 0 1.3333 0 0)">
	<g clip-path="url(#1)" >
    <path id=""  transform="matrix(1 0 0 -1 0 316)"  d="M95.5509 274.3283L92.4949 271.2713L92.4949 271.2713L89.4399 274.3283L89.4399 274.3283L92.4949 277.3843L92.4949 277.3843L95.5509 274.3283z" stroke="#E7BC9E" stroke-width="1" stroke-linecap="round" fill="none" />
    <path id=""  transform="matrix(1 0 0 -1 0 316)"  d="M92.4953 277.3839L92.4953 271.2719" stroke="#E7BC9E" stroke-width="1" stroke-linecap="round" fill="none" />
    <path id=""  transform="matrix(1 0 0 -1 0 316)"  d="M89.4396 274.3283L95.5506 274.3283" stroke="#E7BC9E" stroke-width="1" stroke-linecap="round" fill="none" />
    <path id=""  transform="matrix(1 0 0 -1 0 316)"  d="M39.799 245.5236L40.917 241.34961L40.917 241.34961L36.743 240.2306L36.743 240.2306L35.624 244.40561L35.624 244.40561L39.799 245.5236z" stroke="#E7BC9E" stroke-width="1" stroke-linecap="round" fill="none" />
    <path id=""  transform="matrix(1 0 0 -1 0 316)"  d="M35.6242 244.4054L40.9172 241.3494" stroke="#E7BC9E" stroke-width="1" stroke-linecap="round" fill="none" />
    <path id=""  transform="matrix(1 0 0 -1 0 316)"  d="M36.7433 240.2306L39.7993 245.5236" stroke="#E7BC9E" stroke-width="1" stroke-linecap="round" fill="none" />
    <path id=""  transform="matrix(1 0 0 -1 0 316)"  d="M36.8683 182.839L41.0423 181.72101L41.0423 181.72101L39.9243 177.546L39.9243 177.546L35.749302 178.664L35.749302 178.664L36.8683 182.839z" stroke="#E7BC9E" stroke-width="1" stroke-linecap="round" fill="none" />
    <path id=""  transform="matrix(1 0 0 -1 0 316)"  d="M35.7492 178.6642L41.0422 181.7212" stroke="#E7BC9E" stroke-width="1" stroke-linecap="round" fill="none" />
    <path id=""  transform="matrix(1 0 0 -1 0 316)"  d="M39.924 177.546L36.868 182.839" stroke="#E7BC9E" stroke-width="1" stroke-linecap="round" fill="none" />
    <path id=""  transform="matrix(1 0 0 -1 0 316)"  d="M89.6886 148.923L92.7456 151.98001L92.7456 151.98001L95.8016 148.923L95.8016 148.923L92.7456 145.866L92.7456 145.866L89.6886 148.923z" stroke="#E7BC9E" stroke-width="1" stroke-linecap="round" fill="none" />
    <path id=""  transform="matrix(1 0 0 -1 0 316)"  d="M92.7453 145.8663L92.7453 151.97931" stroke="#E7BC9E" stroke-width="1" stroke-linecap="round" fill="none" />
    <path id=""  transform="matrix(1 0 0 -1 0 316)"  d="M95.8019 148.923L89.6889 148.923" stroke="#E7BC9E" stroke-width="1" stroke-linecap="round" fill="none" />
    <path id=""  transform="matrix(1 0 0 -1 0 316)"  d="M145.4415 177.7628L144.3225 181.9368L144.3225 181.9368L148.4975 183.0558L148.4975 183.0558L149.6155 178.8808L149.6155 178.8808L145.4415 177.7628z" stroke="#E7BC9E" stroke-width="1" stroke-linecap="round" fill="none" />
    <path id=""  transform="matrix(1 0 0 -1 0 316)"  d="M149.6154 178.881L144.3224 181.937" stroke="#E7BC9E" stroke-width="1" stroke-linecap="round" fill="none" />
    <path id=""  transform="matrix(1 0 0 -1 0 316)"  d="M148.4972 183.0558L145.4412 177.7628" stroke="#E7BC9E" stroke-width="1" stroke-linecap="round" fill="none" />
    <path id=""  transform="matrix(1 0 0 -1 0 316)"  d="M148.3722 240.4474L144.19719 241.5654L144.19719 241.5654L145.3162 245.7404L145.3162 245.7404L149.49019 244.6214L149.49019 244.6214L148.3722 240.4474z" stroke="#E7BC9E" stroke-width="1" stroke-linecap="round" fill="none" />
    <path id=""  transform="matrix(1 0 0 -1 0 316)"  d="M149.4904 244.6212L144.1974 241.5652" stroke="#E7BC9E" stroke-width="1" stroke-linecap="round" fill="none" />
    <path id=""  transform="matrix(1 0 0 -1 0 316)"  d="M145.3165 245.7404L148.3725 240.4474" stroke="#E7BC9E" stroke-width="1" stroke-linecap="round" fill="none" />
		<g clip-path="url(#2)" >
    <path id=""  transform="matrix(1 0 0 -1 0 316)"  d="M71.7365 270.7502C 71.871506 270.3782 71.679504 269.96722 71.3075 269.8312C 70.9365 269.69623 70.525505 269.8882 70.3895 270.26022C 70.2545 270.6322 70.4465 271.0432 70.817505 271.17822C 71.18951 271.3132 71.6005 271.12122 71.7365 270.7502" stroke="none" fill="#E2B99C" fill-rule="nonzero" />
    <path id=""  transform="matrix(1 0 0 -1 0 316)"  d="M71.7365 270.7502C 71.871506 270.3782 71.679504 269.96722 71.3075 269.8312C 70.9365 269.69623 70.525505 269.8882 70.3895 270.26022C 70.2545 270.6322 70.4465 271.0432 70.817505 271.17822C 71.18951 271.3132 71.6005 271.12122 71.7365 270.7502z" stroke="#E7BC9E" stroke-width="1" stroke-linecap="round" fill="none" />
    <path id=""  transform="matrix(1 0 0 -1 0 316)"  d="M52.7804 260.0431C 53.0344 259.7391 52.9954 259.28708 52.6914 259.03308C 52.3884 258.77808 51.936398 258.81808 51.6824 259.1211C 51.4274 259.42508 51.4684 259.8761 51.7704 260.1311C 52.0734 260.3851 52.5254 260.3461 52.7804 260.0431" stroke="none" fill="#E2B99C" fill-rule="nonzero" />
    <path id=""  transform="matrix(1 0 0 -1 0 316)"  d="M52.7804 260.0431C 53.0344 259.7391 52.9954 259.28708 52.6914 259.03308C 52.3884 258.77808 51.936398 258.81808 51.6824 259.1211C 51.4274 259.42508 51.4684 259.8761 51.7704 260.1311C 52.0734 260.3851 52.5254 260.3461 52.7804 260.0431z" stroke="#E7BC9E" stroke-width="1" stroke-linecap="round" fill="none" />
    <path id=""  transform="matrix(1 0 0 -1 0 316)"  d="M30.9904 223.1105C 31.3804 223.04251 31.6394 222.6705 31.5714 222.2805C 31.5034 221.8905 31.131401 221.6315 30.7414 221.69951C 30.3514 221.76851 30.0924 222.13951 30.1604 222.52951C 30.228401 222.91951 30.6004 223.1795 30.9904 223.1105" stroke="none" fill="#E2B99C" fill-rule="nonzero" />
    <path id=""  transform="matrix(1 0 0 -1 0 316)"  d="M30.9904 223.1105C 31.3804 223.04251 31.6394 222.6705 31.5714 222.2805C 31.5034 221.8905 31.131401 221.6315 30.7414 221.69951C 30.3514 221.76851 30.0924 222.13951 30.1604 222.52951C 30.228401 222.91951 30.6004 223.1795 30.9904 223.1105z" stroke="#E7BC9E" stroke-width="1" stroke-linecap="round" fill="none" />
    <path id=""  transform="matrix(1 0 0 -1 0 316)"  d="M30.7843 201.341C 31.1753 201.409 31.546299 201.15001 31.6143 200.759C 31.6833 200.369 31.4233 199.998 31.0333 199.929C 30.6433 199.86101 30.2723 200.121 30.2033 200.511C 30.1353 200.901 30.3943 201.272 30.7843 201.341" stroke="none" fill="#E2B99C" fill-rule="nonzero" />
    <path id=""  transform="matrix(1 0 0 -1 0 316)"  d="M30.7843 201.341C 31.1753 201.409 31.546299 201.15001 31.6143 200.759C 31.6833 200.369 31.4233 199.998 31.0333 199.929C 30.6433 199.86101 30.2723 200.121 30.2033 200.511C 30.1353 200.901 30.3943 201.272 30.7843 201.341z" stroke="#E7BC9E" stroke-width="1" stroke-linecap="round" fill="none" />
    <path id=""  transform="matrix(1 0 0 -1 0 316)"  d="M51.8742 164.004C 52.1282 164.30699 52.5802 164.347 52.883198 164.092C 53.1862 163.838 53.2262 163.386 52.9722 163.083C 52.717197 162.77899 52.265198 162.73999 51.9622 162.994C 51.6592 163.249 51.619198 163.701 51.8742 164.004" stroke="none" fill="#E2B99C" fill-rule="nonzero" />
    <path id=""  transform="matrix(1 0 0 -1 0 316)"  d="M51.8742 164.004C 52.1282 164.30699 52.5802 164.347 52.883198 164.092C 53.1862 163.838 53.2262 163.386 52.9722 163.083C 52.717197 162.77899 52.265198 162.73999 51.9622 162.994C 51.6592 163.249 51.619198 163.701 51.8742 164.004z" stroke="#E7BC9E" stroke-width="1" stroke-linecap="round" fill="none" />
    <path id=""  transform="matrix(1 0 0 -1 0 316)"  d="M70.6242 152.9406C 70.7602 153.31259 71.171196 153.5046 71.5432 153.3696C 71.9152 153.2336 72.1062 152.8226 71.9712 152.4516C 71.8362 152.0796 71.4252 151.8866 71.0532 152.0226C 70.6812 152.1586 70.4892 152.5696 70.6242 152.9406" stroke="none" fill="#E2B99C" fill-rule="nonzero" />
    <path id=""  transform="matrix(1 0 0 -1 0 316)"  d="M70.6242 152.9406C 70.7602 153.31259 71.171196 153.5046 71.5432 153.3696C 71.9152 153.2336 72.1062 152.8226 71.9712 152.4516C 71.8362 152.0796 71.4252 151.8866 71.0532 152.0226C 70.6812 152.1586 70.4892 152.5696 70.6242 152.9406z" stroke="#E7BC9E" stroke-width="1" stroke-linecap="round" fill="none" />
    <path id=""  transform="matrix(1 0 0 -1 0 316)"  d="M113.5089 152.5021C 113.3739 152.87311 113.5659 153.28511 113.937904 153.4201C 114.309906 153.5561 114.7209 153.3631 114.8569 152.99211C 114.990906 152.6201 114.799904 152.2091 114.4279 152.0731C 114.0559 151.93811 113.644905 152.13011 113.5089 152.5021" stroke="none" fill="#E2B99C" fill-rule="nonzero" />
    <path id=""  transform="matrix(1 0 0 -1 0 316)"  d="M113.5089 152.5021C 113.3739 152.87311 113.5659 153.28511 113.937904 153.4201C 114.309906 153.5561 114.7209 153.3631 114.8569 152.99211C 114.990906 152.6201 114.799904 152.2091 114.4279 152.0731C 114.0559 151.93811 113.644905 152.13011 113.5089 152.5021z" stroke="#E7BC9E" stroke-width="1" stroke-linecap="round" fill="none" />
    <path id=""  transform="matrix(1 0 0 -1 0 316)"  d="M132.4708 163.2121C 132.21579 163.51509 132.2558 163.9671 132.55879 164.22209C 132.8628 164.4761 133.31479 164.4371 133.5688 164.1331C 133.82379 163.8301 133.78279 163.3781 133.48079 163.1231C 133.17679 162.8691 132.7258 162.9081 132.4708 163.2121" stroke="none" fill="#E2B99C" fill-rule="nonzero" />
    <path id=""  transform="matrix(1 0 0 -1 0 316)"  d="M132.4708 163.2121C 132.21579 163.51509 132.2558 163.9671 132.55879 164.22209C 132.8628 164.4761 133.31479 164.4371 133.5688 164.1331C 133.82379 163.8301 133.78279 163.3781 133.48079 163.1231C 133.17679 162.8691 132.7258 162.9081 132.4708 163.2121z" stroke="#E7BC9E" stroke-width="1" stroke-linecap="round" fill="none" />
    <path id=""  transform="matrix(1 0 0 -1 0 316)"  d="M154.2492 200.1759C 153.8592 200.2439 153.6002 200.6149 153.66821 201.0049C 153.73721 201.3959 154.1082 201.6549 154.4982 201.5869C 154.88821 201.5179 155.14821 201.1469 155.07921 200.7569C 155.0112 200.3669 154.64021 200.1069 154.2492 200.1759" stroke="none" fill="#E2B99C" fill-rule="nonzero" />
    <path id=""  transform="matrix(1 0 0 -1 0 316)"  d="M154.2492 200.1759C 153.8592 200.2439 153.6002 200.6149 153.66821 201.0049C 153.73721 201.3959 154.1082 201.6549 154.4982 201.5869C 154.88821 201.5179 155.14821 201.1469 155.07921 200.7569C 155.0112 200.3669 154.64021 200.1069 154.2492 200.1759z" stroke="#E7BC9E" stroke-width="1" stroke-linecap="round" fill="none" />
    <path id=""  transform="matrix(1 0 0 -1 0 316)"  d="M154.4552 221.9454C 154.0652 221.87741 153.6932 222.1364 153.6252 222.5264C 153.5572 222.9164 153.8162 223.2884 154.2062 223.3564C 154.5962 223.4254 154.9682 223.1654 155.0362 222.7754C 155.1042 222.3854 154.8452 222.0144 154.4552 221.9454" stroke="none" fill="#E2B99C" fill-rule="nonzero" />
    <path id=""  transform="matrix(1 0 0 -1 0 316)"  d="M154.4552 221.9454C 154.0652 221.87741 153.6932 222.1364 153.6252 222.5264C 153.5572 222.9164 153.8162 223.2884 154.2062 223.3564C 154.5962 223.4254 154.9682 223.1654 155.0362 222.7754C 155.1042 222.3854 154.8452 222.0144 154.4552 221.9454z" stroke="#E7BC9E" stroke-width="1" stroke-linecap="round" fill="none" />
    <path id=""  transform="matrix(1 0 0 -1 0 316)"  d="M133.3663 259.2824C 133.1113 258.97842 132.6593 258.93942 132.35631 259.19342C 132.0543 259.4484 132.0133 259.90042 132.2683 260.2034C 132.52231 260.5064 132.9743 260.54642 133.2773 260.2914C 133.5813 260.0374 133.6203 259.58542 133.3663 259.2824" stroke="none" fill="#E2B99C" fill-rule="nonzero" />
    <path id=""  transform="matrix(1 0 0 -1 0 316)"  d="M133.3663 259.2824C 133.1113 258.97842 132.6593 258.93942 132.35631 259.19342C 132.0543 259.4484 132.0133 259.90042 132.2683 260.2034C 132.52231 260.5064 132.9743 260.54642 133.2773 260.2914C 133.5813 260.0374 133.6203 259.58542 133.3663 259.2824z" stroke="#E7BC9E" stroke-width="1" stroke-linecap="round" fill="none" />
    <path id=""  transform="matrix(1 0 0 -1 0 316)"  d="M114.6154 270.3449C 114.4794 269.9739 114.068405 269.78192 113.6964 269.9169C 113.3254 270.0519 113.1334 270.46292 113.2684 270.8349C 113.4044 271.2069 113.8154 271.3989 114.1864 271.26392C 114.5584 271.1279 114.750404 270.71692 114.6154 270.3449" stroke="none" fill="#E2B99C" fill-rule="nonzero" />
    <path id=""  transform="matrix(1 0 0 -1 0 316)"  d="M114.6154 270.3449C 114.4794 269.9739 114.068405 269.78192 113.6964 269.9169C 113.3254 270.0519 113.1334 270.46292 113.2684 270.8349C 113.4044 271.2069 113.8154 271.3989 114.1864 271.26392C 114.5584 271.1279 114.750404 270.71692 114.6154 270.3449z" stroke="#E7BC9E" stroke-width="1" stroke-linecap="round" fill="none" />
    <path id=""  transform="matrix(1 0 0 -1 0 316)"  d="M92.4953 278.5734C 129.41031 278.5734 159.44229 248.5414 159.44229 211.6254C 159.44229 174.71039 129.41031 144.6774 92.4953 144.6774C 55.5793 144.6774 25.547302 174.71039 25.547302 211.6254C 25.547302 248.5414 55.5793 278.5734 92.4953 278.5734M92.4953 279.3234C 55.1063 279.3234 24.797302 249.0134 24.797302 211.6254C 24.797302 174.23639 55.1063 143.9274 92.4953 143.9274C 129.88431 143.9274 160.19229 174.23639 160.19229 211.6254C 160.19229 249.0134 129.88431 279.3234 92.4953 279.3234" stroke="none" fill="#E7BB9E" fill-rule="nonzero" />
		</g>
	</g>
</g>
</svg>