<?xml version="1.0" standalone="no"?>
<!DOCTYPE svg PUBLIC "-//W3C//DTD SVG 1.0//EN" "http://www.w3.org/TR/2001/REC-SVG-20010904/DTD/svg10.dtd">
<svg xmlns="http://www.w3.org/2000/svg" xmlns:xlink="http://www.w3.org/1999/xlink" id="body_4" width="247" height="421">

<defs>
    <clipPath  id="1">

    <path id=""  clip-rule="evenodd" transform="matrix(1 0 0 1 0 0)"  d="M0 316L0 0L0 0L185 0L185 0L185 316L185 316L0 316z" />    </clipPath>
    <clipPath  id="2">

    <path id=""  clip-rule="evenodd" transform="matrix(1 0 0 1 0 0)"  d="M0 0L185 0L185 0L185 316L185 316L0 316z" />    </clipPath>
</defs>

<g transform="matrix(1.3333 0 0 1.3333 0 0)">
	<g clip-path="url(#1)" >
		<g clip-path="url(#2)" >
    <path id=""  transform="matrix(1 0 0 -1 0 316)"  d="M153.1205 210.2285C 152.3515 176.7495 124.5885 150.2315 91.1085 150.9995C 57.6285 151.7685 31.110497 179.5325 31.879501 213.0115C 32.6475 246.4925 60.4125 273.0095 93.891495 272.24152C 127.3715 271.4725 153.8895 243.7085 153.1205 210.2285z" stroke="#E7BC9E" stroke-width="1" stroke-linecap="round" stroke-dasharray="1.1,3.979" fill="none" />
    <path id=""  transform="matrix(1 0 0 -1 0 316)"  d="M92.4164 274.6172C 92.3844 274.6312 92.3544 274.6452 92.3294 274.6622C 91.9154 274.9242 91.560394 275.19818 91.2614 275.4852C 90.962395 275.7732 90.7324 276.06918 90.571396 276.3732C 90.4104 276.6782 90.3304 276.9852 90.3304 277.29617C 90.3304 277.55518 90.3844 277.78418 90.49239 277.9842C 90.601395 278.18518 90.7474 278.3422 90.9314 278.4552C 91.114395 278.56818 91.321396 278.62518 91.5524 278.62518C 91.769394 278.62518 91.9564 278.5702 92.113396 278.46118C 92.2714 278.3512 92.4004 278.20718 92.5004 278.02917C 92.601395 278.2092 92.7304 278.35318 92.8894 278.4622C 93.04739 278.5702 93.2334 278.62518 93.448395 278.62518C 93.6784 278.62518 93.8854 278.56818 94.0704 278.4552C 94.255394 278.3422 94.4004 278.18518 94.5094 277.9842C 94.616394 277.78418 94.670395 277.55518 94.670395 277.29617C 94.670395 276.9852 94.58939 276.6782 94.4294 276.3732C 94.268394 276.06918 94.0384 275.7732 93.739395 275.4852C 93.4404 275.19818 93.0844 274.9242 92.671394 274.6622C 92.6464 274.6452 92.6184 274.6312 92.585396 274.6172C 92.5524 274.60318 92.5234 274.5962 92.5004 274.5962C 92.476395 274.5962 92.448395 274.60318 92.4164 274.6172z" stroke="#E7BC9E" stroke-width="0.75" fill="none" />
    <path id=""  transform="matrix(1 0 0 -1 0 316)"  d="M60.9427 266.1387C 60.9087 266.1347 60.875698 266.1327 60.8447 266.1347C 60.3567 266.1547 59.910698 266.2137 59.507698 266.3137C 59.105698 266.4127 58.758698 266.5547 58.466698 266.7377C 58.1757 266.92072 57.952698 267.1467 57.7967 267.4157C 57.667698 267.6397 57.5997 267.8667 57.5927 268.0937C 57.5877 268.32172 57.6347 268.5307 57.7387 268.7197C 57.8407 268.9097 57.9917 269.0627 58.1907 269.1767C 58.3787 269.2847 58.5677 269.3317 58.7597 269.3167C 58.9517 269.3007 59.1347 269.2407 59.3097 269.1357C 59.306698 269.3417 59.3467 269.5327 59.4297 269.7047C 59.5127 269.87772 59.646698 270.0187 59.8337 270.1257C 60.0327 270.2407 60.2407 270.2947 60.4567 270.2897C 60.6727 270.2847 60.8787 270.2217 61.0717 270.1017C 61.264698 269.9827 61.4257 269.8097 61.5557 269.5857C 61.7117 269.3167 61.7957 269.0097 61.8077 268.6657C 61.820698 268.3227 61.7697 267.9507 61.6547 267.5527C 61.5407 267.1547 61.3687 266.7387 61.1407 266.3057C 61.1287 266.2797 61.1117 266.2517 61.0897 266.2237C 61.0677 266.1957 61.0467 266.1747 61.0257 266.1627C 61.0047 266.1517 60.9777 266.1427 60.9427 266.1387z" stroke="#E7BC9E" stroke-width="0.75" fill="none" />
    <path id=""  transform="matrix(1 0 0 -1 0 316)"  d="M37.9252 243.0596C 37.8982 243.0386 37.8702 243.0216 37.8432 243.0076C 37.409203 242.7796 36.9942 242.6086 36.596203 242.4936C 36.1972 242.3786 35.826202 242.3286 35.4832 242.3406C 35.138203 242.3536 34.832203 242.4376 34.5632 242.5926C 34.338203 242.7226 34.166203 242.8836 34.047203 243.0786C 33.9282 243.2726 33.8652 243.4776 33.860203 243.6936C 33.854202 243.9096 33.9072 244.11661 34.0232 244.3156C 34.131203 244.5026 34.2732 244.6376 34.4462 244.7196C 34.6192 244.8026 34.8092 244.8416 35.013203 244.83861C 34.9072 245.0166 34.847202 245.2006 34.832203 245.3916C 34.818203 245.5826 34.8632 245.7716 34.971203 245.9576C 35.0862 246.15761 35.2382 246.3076 35.429203 246.4116C 35.6192 246.5146 35.8282 246.5636 36.055202 246.5556C 36.2822 246.5486 36.5082 246.4806 36.7332 246.35161C 37.0022 246.1966 37.228203 245.9726 37.410202 245.6806C 37.5942 245.3896 37.736202 245.0426 37.8352 244.6406C 37.9352 244.2376 37.9942 243.7916 38.014202 243.3036C 38.0162 243.2746 38.0152 243.2426 38.0102 243.2066C 38.006203 243.1706 37.9972 243.1426 37.986202 243.1216C 37.9742 243.10161 37.9532 243.0806 37.9252 243.0596z" stroke="#E7BC9E" stroke-width="0.75" fill="none" />
    <path id=""  transform="matrix(1 0 0 -1 0 316)"  d="M29.5316 211.5645C 29.517601 211.5325 29.502602 211.5025 29.485601 211.4775C 29.224602 211.06349 28.950602 210.7085 28.6636 210.4095C 28.3756 210.1105 28.079601 209.8805 27.774601 209.7195C 27.4706 209.5585 27.1636 209.4785 26.8526 209.4785C 26.593601 209.4785 26.363602 209.5325 26.1636 209.6405C 25.9636 209.7505 25.8066 209.8955 25.693602 210.0795C 25.5806 210.2635 25.523602 210.4695 25.523602 210.7005C 25.523602 210.9175 25.578602 211.10449 25.687601 211.2625C 25.797602 211.4205 25.940601 211.5485 26.1196 211.6485C 25.939602 211.7495 25.7956 211.8785 25.686602 212.0375C 25.578602 212.1955 25.523602 212.3815 25.523602 212.5965C 25.523602 212.82649 25.5806 213.0345 25.693602 213.2185C 25.8066 213.4035 25.9636 213.5495 26.1636 213.6575C 26.363602 213.7645 26.593601 213.8185 26.8526 213.8185C 27.1636 213.8185 27.4706 213.7385 27.774601 213.5775C 28.079601 213.4165 28.3756 213.1865 28.6636 212.8875C 28.950602 212.5885 29.224602 212.2325 29.485601 211.8195C 29.502602 211.7945 29.517601 211.7665 29.5316 211.7335C 29.5456 211.70149 29.5526 211.6715 29.5526 211.6485C 29.5526 211.6245 29.5456 211.5965 29.5316 211.5645z" stroke="#E7BC9E" stroke-width="0.75" fill="none" />
    <path id=""  transform="matrix(1 0 0 -1 0 316)"  d="M38.0101 180.0908C 38.014103 180.05681 38.015102 180.0238 38.014103 179.9928C 37.994102 179.5048 37.9351 179.0588 37.835102 178.6558C 37.736103 178.2538 37.5941 177.9068 37.410103 177.6148C 37.2281 177.3238 37.0021 177.1008 36.7331 176.94481C 36.508102 176.8168 36.2821 176.7478 36.0551 176.7418C 35.826103 176.73581 35.618103 176.7838 35.4281 176.88681C 35.2391 176.9888 35.0861 177.1398 34.9711 177.3388C 34.863102 177.52681 34.8171 177.71681 34.8321 177.9078C 34.848103 178.09981 34.9071 178.2828 35.0131 178.45781C 34.806103 178.4548 34.6161 178.49481 34.4441 178.5778C 34.271103 178.66081 34.1301 178.7948 34.0231 178.98181C 33.9071 179.1808 33.8531 179.38881 33.8591 179.60481C 33.8641 179.8208 33.9271 180.02681 34.0461 180.2198C 34.1661 180.41281 34.3381 180.5738 34.563103 180.70381C 34.8321 180.8598 35.1381 180.9438 35.4831 180.95581C 35.826103 180.96881 36.1981 180.9178 36.5961 180.80281C 36.994102 180.68881 37.4091 180.5168 37.8431 180.2888C 37.869102 180.2778 37.897102 180.25981 37.925102 180.23781C 37.953102 180.2158 37.974102 180.19481 37.986103 180.1748C 37.9971 180.1528 38.0051 180.12581 38.0101 180.0908z" stroke="#E7BC9E" stroke-width="0.75" fill="none" />
    <path id=""  transform="matrix(1 0 0 -1 0 316)"  d="M61.0882 157.0742C 61.1092 157.0462 61.1272 157.0182 61.1412 156.99121C 61.3682 156.5582 61.5402 156.1422 61.654198 155.7442C 61.7702 155.3452 61.820198 154.9742 61.8082 154.63121C 61.7952 154.2872 61.7112 153.98021 61.5562 153.7112C 61.4262 153.4862 61.2642 153.31421 61.0692 153.1952C 60.876198 153.0762 60.6712 153.0132 60.4552 153.00821C 60.2392 153.0022 60.0322 153.0552 59.8332 153.1712C 59.6462 153.2792 59.5102 153.4212 59.4282 153.5952C 59.3462 153.7682 59.3072 153.9572 59.3102 154.16121C 59.1322 154.0552 58.9472 153.99521 58.7562 153.98021C 58.5662 153.9662 58.3772 154.0112 58.1912 154.1192C 57.9912 154.2342 57.8402 154.3862 57.7362 154.57721C 57.6332 154.7672 57.5852 154.9762 57.5922 155.2032C 57.5992 155.4302 57.6672 155.6562 57.7972 155.88121C 57.952198 156.1502 58.1762 156.3762 58.4672 156.5592C 58.7592 156.7422 59.1062 156.8842 59.508198 156.9832C 59.9102 157.0832 60.3572 157.1422 60.8452 157.1622C 60.8742 157.1642 60.9062 157.16321 60.9422 157.1582C 60.9772 157.1542 61.0052 157.1452 61.0262 157.1342C 61.0472 157.12221 61.0672 157.1012 61.0882 157.0742z" stroke="#E7BC9E" stroke-width="0.75" fill="none" />
    <path id=""  transform="matrix(1 0 0 -1 0 316)"  d="M92.5843 148.6797C 92.616295 148.6657 92.645294 148.6507 92.671295 148.6337C 93.0843 148.3727 93.4403 148.09871 93.739296 147.8117C 94.0383 147.5237 94.268295 147.2277 94.4293 146.9237C 94.589294 146.6187 94.670296 146.3117 94.670296 146.0007C 94.670296 145.7417 94.615295 145.5117 94.50729 145.3117C 94.3983 145.11171 94.2523 144.9547 94.0683 144.8417C 93.8853 144.7287 93.6783 144.6717 93.448296 144.6717C 93.2313 144.6717 93.0443 144.7267 92.8863 144.83571C 92.728294 144.94571 92.5993 145.0897 92.5003 145.2677C 92.3983 145.0877 92.270294 144.9437 92.1113 144.8347C 91.9533 144.7267 91.767296 144.6717 91.5523 144.6717C 91.3213 144.6717 91.114296 144.7287 90.9303 144.8417C 90.7453 144.9547 90.5993 145.11171 90.491295 145.3117C 90.3843 145.5117 90.3303 145.7417 90.3303 146.0007C 90.3303 146.3117 90.41029 146.6187 90.5713 146.9237C 90.7323 147.2277 90.962296 147.5237 91.2613 147.8117C 91.560295 148.09871 91.9153 148.3727 92.3293 148.6337C 92.353294 148.6507 92.381294 148.6657 92.4143 148.6797C 92.447296 148.69371 92.476295 148.7007 92.5003 148.7007C 92.5233 148.7007 92.5523 148.69371 92.5843 148.6797z" stroke="#E7BC9E" stroke-width="0.75" fill="none" />
    <path id=""  transform="matrix(1 0 0 -1 0 316)"  d="M124.057 157.1582C 124.092 157.1622 124.124 157.16321 124.156 157.1622C 124.644 157.1422 125.089 157.0832 125.492 156.9832C 125.895 156.8842 126.242 156.7422 126.533 156.5592C 126.825 156.3762 127.047 156.1502 127.203 155.88121C 127.332 155.6562 127.401 155.4302 127.407 155.2032C 127.412 154.9752 127.365 154.7662 127.262 154.5762C 127.159996 154.3872 127.007996 154.2342 126.81 154.1192C 126.621 154.0112 126.432 153.96521 126.241 153.98021C 126.048996 153.9962 125.866 154.0562 125.691 154.16121C 125.693 153.95421 125.653 153.7642 125.571 153.59221C 125.488 153.4192 125.353 153.2782 125.166 153.1712C 124.968 153.0552 124.76 153.0022 124.543 153.0072C 124.328 153.0122 124.122 153.0752 123.929 153.1952C 123.736 153.31421 123.575 153.4862 123.445 153.7112C 123.289 153.98021 123.205 154.2872 123.193 154.63121C 123.179 154.9742 123.231 155.3462 123.345 155.7442C 123.46 156.1422 123.631 156.5582 123.859 156.9912C 123.871 157.0172 123.889 157.0452 123.910995 157.0732C 123.932 157.1012 123.953 157.12221 123.974 157.1342C 123.995 157.1452 124.023 157.1542 124.057 157.1582z" stroke="#E7BC9E" stroke-width="0.75" fill="none" />
    <path id=""  transform="matrix(1 0 0 -1 0 316)"  d="M147.0746 180.2373C 147.1026 180.2583 147.1306 180.2753 147.1576 180.2893C 147.5906 180.51631 148.0066 180.68831 148.4046 180.8023C 148.8036 180.9183 149.1746 180.9683 149.5176 180.9563C 149.8616 180.9433 150.1686 180.8593 150.4366 180.7043C 150.6616 180.57431 150.8336 180.41231 150.9526 180.2183C 151.0716 180.0243 151.1356 179.8193 151.1406 179.6033C 151.1466 179.3873 151.0926 179.1803 150.9776 178.98131C 150.8686 178.79431 150.7276 178.6593 150.5536 178.57631C 150.3806 178.49431 150.1916 178.4553 149.9876 178.4583C 150.0936 178.2803 150.1526 178.0953 150.1686 177.9053C 150.1826 177.71431 150.1366 177.5253 150.0286 177.33931C 149.9146 177.1393 149.7616 176.98831 149.5716 176.88431C 149.3816 176.78131 149.1726 176.7333 148.9446 176.74031C 148.7186 176.7483 148.49161 176.8163 148.2666 176.9453C 147.9986 177.10031 147.7716 177.32431 147.5896 177.61531C 147.4066 177.9073 147.2646 178.2543 147.1656 178.65631C 147.0646 179.0583 147.0056 179.50531 146.9866 179.9933C 146.9836 180.02231 146.9846 180.0543 146.9896 180.0903C 146.9946 180.12631 147.0026 180.1533 147.0146 180.17531C 147.0266 180.1953 147.0466 180.21631 147.0746 180.2373z" stroke="#E7BC9E" stroke-width="0.75" fill="none" />
    <path id=""  transform="matrix(1 0 0 -1 0 316)"  d="M155.4691 211.7324C 155.48311 211.7644 155.4971 211.7944 155.5141 211.81941C 155.7751 212.2324 156.0491 212.58841 156.3371 212.8874C 156.6251 213.1864 156.9211 213.41641 157.2251 213.57741C 157.5301 213.7384 157.8361 213.8184 158.1481 213.8184C 158.4071 213.8184 158.63611 213.76341 158.8361 213.65541C 159.0371 213.5464 159.1941 213.40141 159.3071 213.2164C 159.4191 213.0334 159.4761 212.8264 159.4761 212.5964C 159.4761 212.37941 159.4211 212.19241 159.3121 212.03441C 159.2021 211.8764 159.0591 211.74841 158.8811 211.6484C 159.0611 211.5464 159.20511 211.41841 159.3141 211.2594C 159.4221 211.10141 159.4761 210.9154 159.4761 210.70041C 159.4761 210.4694 159.4191 210.2624 159.3071 210.0784C 159.1941 209.8934 159.0371 209.7474 158.8361 209.6394C 158.63611 209.53241 158.4071 209.47841 158.1481 209.47841C 157.8361 209.47841 157.5301 209.55841 157.2251 209.7194C 156.9211 209.8804 156.6251 210.11041 156.3371 210.40941C 156.0491 210.7084 155.7751 211.0634 155.5141 211.4774C 155.4971 211.5014 155.48311 211.5294 155.4691 211.56241C 155.4551 211.59541 155.4481 211.6244 155.4481 211.6484C 155.4481 211.6714 155.4551 211.70041 155.4691 211.7324z" stroke="#E7BC9E" stroke-width="0.75" fill="none" />
    <path id=""  transform="matrix(1 0 0 -1 0 316)"  d="M146.9906 243.2051C 146.9866 243.2401 146.9846 243.2721 146.9866 243.3041C 147.0056 243.7921 147.0646 244.23709 147.1656 244.6411C 147.2646 245.04309 147.4066 245.39009 147.5896 245.68109C 147.7716 245.9731 147.9986 246.19609 148.2666 246.35109C 148.49161 246.48009 148.7186 246.54909 148.9456 246.5551C 149.1736 246.5611 149.3826 246.51309 149.5716 246.4101C 149.7616 246.30809 149.9146 246.15709 150.0286 245.9581C 150.1366 245.76909 150.1836 245.5801 150.1686 245.3891C 150.1526 245.1971 150.0926 245.0141 149.9876 244.8391C 150.1936 244.8411 150.3846 244.80109 150.5566 244.7191C 150.7296 244.6361 150.8696 244.5011 150.9776 244.3151C 151.0926 244.11609 151.1466 243.9081 151.1406 243.69109C 151.1366 243.47609 151.07361 243.2701 150.9536 243.07709C 150.8336 242.8841 150.6616 242.7231 150.4366 242.5931C 150.1686 242.43709 149.8616 242.35309 149.5176 242.3411C 149.1746 242.3281 148.8026 242.37909 148.4046 242.49309C 148.0066 242.6081 147.5906 242.7791 147.15761 243.00809C 147.1316 243.01909 147.1036 243.0371 147.0756 243.0591C 147.0476 243.0801 147.0266 243.10109 147.0146 243.1221C 147.0026 243.1431 146.9946 243.1711 146.9906 243.2051z" stroke="#E7BC9E" stroke-width="0.75" fill="none" />
    <path id=""  transform="matrix(1 0 0 -1 0 316)"  d="M123.9115 266.2227C 123.890495 266.2507 123.8735 266.2787 123.8585 266.3057C 123.6315 266.73868 123.4605 267.1547 123.3455 267.55267C 123.2305 267.9517 123.1795 268.3227 123.1925 268.66568C 123.2055 269.00967 123.2895 269.31668 123.444496 269.5857C 123.5745 269.8097 123.7355 269.9817 123.9305 270.10068C 124.1245 270.22067 124.3295 270.2837 124.5445 270.2887C 124.7605 270.29468 124.9685 270.2407 125.1665 270.1257C 125.3545 270.0177 125.4895 269.8757 125.5715 269.7017C 125.653496 269.5287 125.6935 269.3397 125.6905 269.13568C 125.8685 269.2417 126.0525 269.3017 126.2435 269.31668C 126.4345 269.3307 126.6235 269.28568 126.8095 269.1767C 127.0085 269.06268 127.1595 268.91068 127.2635 268.7197C 127.3665 268.5297 127.4155 268.32068 127.4075 268.09268C 127.4005 267.8667 127.3325 267.63968 127.2025 267.41568C 127.0475 267.1467 126.8245 266.9207 126.5325 266.7377C 126.2415 266.5547 125.8945 266.4127 125.4915 266.3137C 125.0895 266.21368 124.6435 266.1547 124.1555 266.13467C 124.126495 266.13168 124.0945 266.1337 124.0575 266.1377C 124.0225 266.1427 123.9945 266.15167 123.973495 266.1627C 123.9535 266.17468 123.9325 266.19467 123.9115 266.2227z" stroke="#E7BC9E" stroke-width="0.75" fill="none" />
		</g>
	</g>
</g>
</svg>