<?xml version="1.0" standalone="no"?>
<!DOCTYPE svg PUBLIC "-//W3C//DTD SVG 1.0//EN" "http://www.w3.org/TR/2001/REC-SVG-20010904/DTD/svg10.dtd">
<svg xmlns="http://www.w3.org/2000/svg" xmlns:xlink="http://www.w3.org/1999/xlink" id="body_7" width="247" height="421">

<defs>
    <clipPath  id="1">

    <path id=""  clip-rule="evenodd" transform="matrix(1 0 0 1 0 0)"  d="M0 316L0 0L0 0L185 0L185 0L185 316L185 316L0 316z" />    </clipPath>
    <clipPath  id="2">

    <path id=""  clip-rule="evenodd" transform="matrix(1 0 0 1 0 0)"  d="M0 0L185 0L185 0L185 316L185 316L0 316z" />    </clipPath>
</defs>

<g transform="matrix(1.3333 0 0 1.3333 0 0)">
	<g clip-path="url(#1)" >
		<g clip-path="url(#2)" >
    <path id=""  transform="matrix(1 0 0 -1 0 316)"  d="M95.3966 274.6856C 95.3966 273.0856 94.0996 271.7896 92.500595 271.7896C 90.9006 271.7896 89.6036 273.0856 89.6036 274.6856C 89.6036 276.2856 90.9006 277.5816 92.500595 277.5816C 94.0996 277.5816 95.3966 276.2856 95.3966 274.6856" stroke="none" fill="#E7BC9E" fill-rule="nonzero" />
    <path id=""  transform="matrix(1 0 0 -1 0 316)"  d="M63.4756 267.6847C 64.275604 266.29968 63.800602 264.52768 62.4146 263.7277C 61.0306 262.92868 59.258602 263.4037 58.458603 264.7887C 57.6596 266.1737 58.133602 267.9447 59.5186 268.7447C 60.904602 269.54468 62.675602 269.0697 63.4756 267.6847" stroke="none" fill="#E7BC9E" fill-rule="nonzero" />
    <path id=""  transform="matrix(1 0 0 -1 0 316)"  d="M39.3321 245.6612C 40.7171 244.86119 41.1911 243.0902 40.3921 241.7042C 39.5921 240.3192 37.8201 239.8452 36.4361 240.6442C 35.0501 241.4442 34.5751 243.21619 35.3751 244.6012C 36.1751 245.98619 37.9461 246.4612 39.3321 245.6612" stroke="none" fill="#E7BC9E" fill-rule="nonzero" />
    <path id=""  transform="matrix(1 0 0 -1 0 316)"  d="M29.4346 214.5167C 31.034601 214.5167 32.3306 213.2197 32.3306 211.6207C 32.3306 210.02069 31.034601 208.7237 29.4346 208.7237C 27.8346 208.7237 26.5386 210.02069 26.5386 211.6207C 26.5386 213.2197 27.8346 214.5167 29.4346 214.5167" stroke="none" fill="#E7BC9E" fill-rule="nonzero" />
    <path id=""  transform="matrix(1 0 0 -1 0 316)"  d="M36.4356 182.5958C 37.8206 183.3958 39.5916 182.92079 40.3916 181.5358C 41.1916 180.15079 40.7166 178.3788 39.3316 177.5788C 37.9466 176.7798 36.1746 177.2538 35.3746 178.6388C 34.5756 180.0248 35.0496 181.79579 36.4356 182.5958" stroke="none" fill="#E7BC9E" fill-rule="nonzero" />
    <path id=""  transform="matrix(1 0 0 -1 0 316)"  d="M58.459 158.4518C 59.259 159.83679 61.03 160.3118 62.415 159.5118C 63.801 158.7128 64.275 156.9408 63.475998 155.5558C 62.676 154.17079 60.904 153.6958 59.519 154.4958C 58.134 155.29579 57.659 157.0668 58.459 158.4518" stroke="none" fill="#E7BC9E" fill-rule="nonzero" />
    <path id=""  transform="matrix(1 0 0 -1 0 316)"  d="M89.6036 148.5548C 89.6036 150.1548 90.9006 151.45079 92.4996 151.45079C 94.0996 151.45079 95.3966 150.1548 95.3966 148.5548C 95.3966 146.95479 94.0996 145.6588 92.4996 145.6588C 90.9006 145.6588 89.6036 146.95479 89.6036 148.5548" stroke="none" fill="#E7BC9E" fill-rule="nonzero" />
    <path id=""  transform="matrix(1 0 0 -1 0 316)"  d="M121.5245 155.5558C 120.724495 156.9408 121.1995 158.7128 122.585495 159.5118C 123.9695 160.3118 125.7415 159.8368 126.5415 158.4518C 127.3405 157.0668 126.8665 155.2958 125.4805 154.4958C 124.0955 153.6958 122.3245 154.1708 121.5245 155.5558" stroke="none" fill="#E7BC9E" fill-rule="nonzero" />
    <path id=""  transform="matrix(1 0 0 -1 0 316)"  d="M145.668 177.5792C 144.283 178.3792 143.809 180.15019 144.608 181.5362C 145.408 182.92119 147.18 183.39519 148.564 182.59619C 149.95 181.79619 150.425 180.0242 149.625 178.63919C 148.825 177.2542 147.054 176.77919 145.668 177.5792" stroke="none" fill="#E7BC9E" fill-rule="nonzero" />
    <path id=""  transform="matrix(1 0 0 -1 0 316)"  d="M155.5655 208.7237C 153.9655 208.7237 152.66951 210.02069 152.66951 211.61969C 152.66951 213.2197 153.9655 214.5167 155.5655 214.5167C 157.16551 214.5167 158.4615 213.2197 158.4615 211.61969C 158.4615 210.02069 157.16551 208.7237 155.5655 208.7237" stroke="none" fill="#E7BC9E" fill-rule="nonzero" />
    <path id=""  transform="matrix(1 0 0 -1 0 316)"  d="M148.5645 240.6446C 147.1795 239.8446 145.4085 240.31961 144.6085 241.7046C 143.8085 243.08961 144.2835 244.8616 145.6685 245.6616C 147.0535 246.4606 148.8255 245.9866 149.6255 244.60161C 150.4245 243.2156 149.9505 241.44461 148.5645 240.6446" stroke="none" fill="#E7BC9E" fill-rule="nonzero" />
    <path id=""  transform="matrix(1 0 0 -1 0 316)"  d="M126.5411 264.7887C 125.7411 263.4037 123.9701 262.9287 122.5851 263.7277C 121.1991 264.5277 120.7251 266.29968 121.5241 267.6847C 122.3241 269.0697 124.0961 269.5447 125.4801 268.7447C 126.8661 267.9447 127.3411 266.1737 126.5411 264.7887" stroke="none" fill="#E7BC9E" fill-rule="nonzero" />
		</g>
	</g>
</g>
</svg>