<?xml version="1.0" standalone="no"?>
<!DOCTYPE svg PUBLIC "-//W3C//DTD SVG 1.0//EN" "http://www.w3.org/TR/2001/REC-SVG-20010904/DTD/svg10.dtd">
<svg xmlns="http://www.w3.org/2000/svg" xmlns:xlink="http://www.w3.org/1999/xlink" id="body_8" width="247" height="421">

<defs>
    <clipPath  id="1">

    <path id=""  clip-rule="evenodd" transform="matrix(1 0 0 1 0 0)"  d="M0 316L0 0L0 0L185 0L185 0L185 316L185 316L0 316z" />    </clipPath>
</defs>

<g transform="matrix(1.3333 0 0 1.3333 0 0)">
	<g clip-path="url(#1)" >
    <path id=""  transform="matrix(1 0 0 -1 0 316)"  d="M92.5079 278.7259L95.0749 275.3779L95.0749 275.3779L92.5079 272.0289L92.5079 272.0289L89.940895 275.3779zM92.5079 279.4249L89.4049 275.3779L89.4049 275.3779L92.5079 271.3299L92.5079 271.3299L95.61089 275.3779z" stroke="none" fill="#E7BC9E" fill-rule="nonzero" />
    <path id=""  transform="matrix(1 0 0 -1 0 316)"  d="M92.5079 278.0679L93.3959 275.3779L93.3959 275.3779L92.5079 272.6869L92.5079 272.6869L91.619896 275.3779zM92.5079 279.4249L91.1719 275.3779L91.1719 275.3779L92.5079 271.3299L92.5079 271.3299L93.843895 275.3779z" stroke="none" fill="#E7BC9E" fill-rule="nonzero" />
    <path id=""  transform="matrix(1 0 0 -1 0 316)"  d="M89.7716 275.3775L95.1676 275.3775" stroke="#E7BC9E" stroke-width="0.425" fill="none" />
    <path id=""  transform="matrix(1 0 0 -1 0 316)"  d="M58.954597 269.73978L62.8516 268.1228L62.8516 268.1228L62.302597 263.9398L62.302597 263.9398L58.405598 265.5558zM58.6046 270.3448L57.940598 265.28778L57.940598 265.28778L62.6516 263.33478L62.6516 263.33478L63.315598 268.39078z" stroke="none" fill="#E7BC9E" fill-rule="nonzero" />
    <path id=""  transform="matrix(1 0 0 -1 0 316)"  d="M59.2836 269.1698L61.3966 267.28278L61.3966 267.28278L61.9736 264.5098L61.9736 264.5098L59.8596 266.39578zM58.6046 270.3448L59.4716 266.17178L59.4716 266.17178L62.6516 263.33478L62.6516 263.33478L61.7856 267.50778z" stroke="none" fill="#E7BC9E" fill-rule="nonzero" />
    <path id=""  transform="matrix(1 0 0 -1 0 316)"  d="M58.2579 265.4713L62.9309 268.1693" stroke="#E7BC9E" stroke-width="0.425" fill="none" />
    <path id=""  transform="matrix(1 0 0 -1 0 316)"  d="M38.5719 245.72899L40.1889 241.831L40.1889 241.831L36.0049 241.282L36.0049 241.282L34.3889 245.18zM38.8399 246.193L33.7829 245.52899L33.7829 245.52899L35.7369 240.818L35.7369 240.818L40.7929 241.482z" stroke="none" fill="#E7BC9E" fill-rule="nonzero" />
    <path id=""  transform="matrix(1 0 0 -1 0 316)"  d="M34.958298 244.8504L37.7323 244.2744L37.7323 244.2744L39.618298 242.1604L39.618298 242.1604L36.8453 242.7374zM33.7833 245.5294L36.6213 242.34941L36.6213 242.34941L40.793297 241.4824L40.793297 241.4824L37.9563 244.6624z" stroke="none" fill="#E7BC9E" fill-rule="nonzero" />
    <path id=""  transform="matrix(1 0 0 -1 0 316)"  d="M35.92 241.1358L38.617996 245.8088" stroke="#E7BC9E" stroke-width="0.425" fill="none" />
    <path id=""  transform="matrix(1 0 0 -1 0 316)"  d="M28.7422 214.195L32.0912 211.628L32.0912 211.628L28.7422 209.061L28.7422 209.061L25.394201 211.628zM28.7422 214.731L24.695202 211.628L24.695202 211.628L28.7422 208.52501L28.7422 208.52501L32.7902 211.628z" stroke="none" fill="#E7BC9E" fill-rule="nonzero" />
    <path id=""  transform="matrix(1 0 0 -1 0 316)"  d="M28.7422 212.5155L31.432201 211.6285L31.432201 211.6285L28.7422 210.7405L28.7422 210.7405L26.053202 211.6285zM28.7422 212.9635L24.695202 211.6285L24.695202 211.6285L28.7422 210.2925L28.7422 210.2925L32.7902 211.6285z" stroke="none" fill="#E7BC9E" fill-rule="nonzero" />
    <path id=""  transform="matrix(1 0 0 -1 0 316)"  d="M28.7422 208.8917L28.7422 214.28769" stroke="#E7BC9E" stroke-width="0.425" fill="none" />
    <path id=""  transform="matrix(1 0 0 -1 0 316)"  d="M35.9976 181.97159L40.1806 181.42259L40.1806 181.42259L38.564598 177.5246L38.564598 177.5246L34.3806 178.07458zM35.7296 182.4356L33.7756 177.7246L33.7756 177.7246L38.8326 177.0606L38.8326 177.0606L40.7856 181.77159z" stroke="none" fill="#E7BC9E" fill-rule="nonzero" />
    <path id=""  transform="matrix(1 0 0 -1 0 316)"  d="M39.6102 181.0931L37.724197 178.98009L37.724197 178.98009L34.9502 178.40309L34.9502 178.40309L36.837196 180.51709zM40.7852 181.7721L36.613197 180.90509L36.613197 180.90509L33.7752 177.7251L33.7752 177.7251L37.948196 178.5921z" stroke="none" fill="#E7BC9E" fill-rule="nonzero" />
    <path id=""  transform="matrix(1 0 0 -1 0 316)"  d="M38.6485 177.3785L35.9515 182.0515" stroke="#E7BC9E" stroke-width="0.425" fill="none" />
    <path id=""  transform="matrix(1 0 0 -1 0 316)"  d="M62.2888 159.3087L62.8378 155.1247L62.8378 155.1247L58.9408 153.5087L58.9408 153.5087L58.3918 157.6927zM62.6378 159.9137L57.9268 157.9597L57.9268 157.9597L58.590797 152.9037L58.590797 152.9037L63.3018 154.85669z" stroke="none" fill="#E7BC9E" fill-rule="nonzero" />
    <path id=""  transform="matrix(1 0 0 -1 0 316)"  d="M61.959797 158.7387L61.382797 155.96469L61.382797 155.96469L59.2698 154.07869L59.2698 154.07869L59.8458 156.85269zM62.6378 159.9137L59.457798 157.07669L59.457798 157.07669L58.590797 152.9037L58.590797 152.9037L61.771797 155.74069z" stroke="none" fill="#E7BC9E" fill-rule="nonzero" />
    <path id=""  transform="matrix(1 0 0 -1 0 316)"  d="M62.9844 155.0406L58.3114 157.7386" stroke="#E7BC9E" stroke-width="0.425" fill="none" />
    <path id=""  transform="matrix(1 0 0 -1 0 316)"  d="M92.4923 151.2112L95.0593 147.8622L95.0593 147.8622L92.4923 144.5142L92.4923 144.5142L89.9253 147.8632zM92.4923 151.9102L89.388306 147.8622L89.388306 147.8622L92.4923 143.8152L92.4923 143.8152L95.5953 147.8622z" stroke="none" fill="#E7BC9E" fill-rule="nonzero" />
    <path id=""  transform="matrix(1 0 0 -1 0 316)"  d="M92.4923 150.5532L93.3803 147.8622L93.3803 147.8622L92.4923 145.1732L92.4923 145.1732L91.6043 147.8622zM92.4923 151.9102L91.1563 147.8622L91.1563 147.8622L92.4923 143.8152L92.4923 143.8152L93.8273 147.8622z" stroke="none" fill="#E7BC9E" fill-rule="nonzero" />
    <path id=""  transform="matrix(1 0 0 -1 0 316)"  d="M95.2286 147.8624L89.832596 147.8624" stroke="#E7BC9E" stroke-width="0.425" fill="none" />
    <path id=""  transform="matrix(1 0 0 -1 0 316)"  d="M122.6977 159.3009L126.5947 157.6839L126.5947 157.6839L126.0457 153.5009L126.0457 153.5009L122.148705 155.1169zM122.3477 159.9059L121.6847 154.84889L121.6847 154.84889L126.3957 152.8959L126.3957 152.8959L127.0587 157.9519z" stroke="none" fill="#E7BC9E" fill-rule="nonzero" />
    <path id=""  transform="matrix(1 0 0 -1 0 316)"  d="M123.0267 158.7309L125.1407 156.8449L125.1407 156.8449L125.716705 154.07089L125.716705 154.07089L123.6027 155.9569zM122.3477 159.9059L123.2147 155.7329L123.2147 155.7329L126.3957 152.8959L126.3957 152.8959L125.5287 157.0689z" stroke="none" fill="#E7BC9E" fill-rule="nonzero" />
    <path id=""  transform="matrix(1 0 0 -1 0 316)"  d="M126.7413 157.7691L122.069305 155.0711" stroke="#E7BC9E" stroke-width="0.425" fill="none" />
    <path id=""  transform="matrix(1 0 0 -1 0 316)"  d="M148.9948 181.958L150.6118 178.061L150.6118 178.061L146.4278 177.511L146.4278 177.511L144.8118 181.409zM149.2628 182.422L144.2058 181.758L144.2058 181.758L146.1598 177.047L146.1598 177.047L151.2168 177.711z" stroke="none" fill="#E7BC9E" fill-rule="nonzero" />
    <path id=""  transform="matrix(1 0 0 -1 0 316)"  d="M145.3821 181.08041L148.1551 180.5034L148.1551 180.5034L150.0411 178.3894L150.0411 178.3894L147.2681 178.9664zM144.2061 181.7584L147.0441 178.57841L147.0441 178.57841L151.2171 177.71141L151.2171 177.71141L148.3791 180.8914z" stroke="none" fill="#E7BC9E" fill-rule="nonzero" />
    <path id=""  transform="matrix(1 0 0 -1 0 316)"  d="M149.0801 182.1046L146.3821 177.4316" stroke="#E7BC9E" stroke-width="0.425" fill="none" />
    <path id=""  transform="matrix(1 0 0 -1 0 316)"  d="M156.2569 214.1794L159.6059 211.6124L159.6059 211.6124L156.2569 209.0454L156.2569 209.0454L152.90889 211.6124zM156.2569 214.7154L152.2099 211.6124L152.2099 211.6124L156.2569 208.5094L156.2569 208.5094L160.3049 211.6124z" stroke="none" fill="#E7BC9E" fill-rule="nonzero" />
    <path id=""  transform="matrix(1 0 0 -1 0 316)"  d="M156.2569 212.4998L158.9469 211.6128L158.9469 211.6128L156.2569 210.7248L156.2569 210.7248L153.5669 211.6128zM156.2569 212.9478L152.2099 211.6128L152.2099 211.6128L156.2569 210.2768L156.2569 210.2768L160.3049 211.6128z" stroke="none" fill="#E7BC9E" fill-rule="nonzero" />
    <path id=""  transform="matrix(1 0 0 -1 0 316)"  d="M156.2569 214.3487L156.2569 208.9527" stroke="#E7BC9E" stroke-width="0.425" fill="none" />
    <path id=""  transform="matrix(1 0 0 -1 0 316)"  d="M146.436 245.7153L150.619 245.1663L150.619 245.1663L149.003 241.26831L149.003 241.26831L144.819 241.8183zM146.168 246.1793L144.214 241.4683L144.214 241.4683L149.271 240.8043L149.271 240.8043L151.225 245.5153z" stroke="none" fill="#E7BC9E" fill-rule="nonzero" />
    <path id=""  transform="matrix(1 0 0 -1 0 316)"  d="M150.0487 244.8367L148.1627 242.7237L148.1627 242.7237L145.3897 242.1467L145.3897 242.1467L147.2757 244.2607zM151.2247 245.5157L147.0517 244.6487L147.0517 244.6487L144.2137 241.4687L144.2137 241.4687L148.3867 242.33571z" stroke="none" fill="#E7BC9E" fill-rule="nonzero" />
    <path id=""  transform="matrix(1 0 0 -1 0 316)"  d="M146.3516 245.8619L149.0486 241.18889" stroke="#E7BC9E" stroke-width="0.425" fill="none" />
    <path id=""  transform="matrix(1 0 0 -1 0 316)"  d="M126.0593 269.732L126.6083 265.548L126.6083 265.548L122.7113 263.932L122.7113 263.932L122.1623 268.11502zM126.4093 270.337L121.6983 268.383L121.6983 268.383L122.361305 263.327L122.361305 263.327L127.0723 265.28z" stroke="none" fill="#E7BC9E" fill-rule="nonzero" />
    <path id=""  transform="matrix(1 0 0 -1 0 316)"  d="M125.7303 269.16202L125.154305 266.388L125.154305 266.388L123.0403 264.502L123.0403 264.502L123.6163 267.275zM126.4093 270.337L123.2283 267.5L123.2283 267.5L122.361305 263.327L122.361305 263.327L125.542305 266.164z" stroke="none" fill="#E7BC9E" fill-rule="nonzero" />
    <path id=""  transform="matrix(1 0 0 -1 0 316)"  d="M122.0157 268.1998L126.6887 265.5018" stroke="#E7BC9E" stroke-width="0.425" fill="none" />
	</g>
</g>
</svg>