<?xml version="1.0" standalone="no"?>
<!DOCTYPE svg PUBLIC "-//W3C//DTD SVG 1.0//EN" "http://www.w3.org/TR/2001/REC-SVG-20010904/DTD/svg10.dtd">
<svg xmlns="http://www.w3.org/2000/svg" xmlns:xlink="http://www.w3.org/1999/xlink" id="body_9" width="247" height="421">

<defs>
    <clipPath  id="1">

    <path id=""  clip-rule="evenodd" transform="matrix(1 0 0 1 0 0)"  d="M0 316L0 0L0 0L185 0L185 0L185 316L185 316L0 316z" />    </clipPath>
    <clipPath  id="2">

    <path id=""  clip-rule="evenodd" transform="matrix(1 0 0 1 0 0)"  d="M0 0L185 0L185 0L185 316L185 316L0 316z" />    </clipPath>
</defs>

<g transform="matrix(1.3333 0 0 1.3333 0 0)">
	<g clip-path="url(#1)" >
		<g clip-path="url(#2)" >
    <path id=""  transform="matrix(1 0 0 -1 0 316)"  d="M94.0519 273.9356C 94.0519 273.07462 93.353905 272.3756 92.492905 272.3756C 91.631905 272.3756 90.9339 273.07462 90.9339 273.9356C 90.9339 274.7966 91.631905 275.4946 92.492905 275.4946C 93.353905 275.4946 94.0519 274.7966 94.0519 273.9356" stroke="none" fill="#E7BC9E" fill-rule="nonzero" />
    <path id=""  transform="matrix(1 0 0 -1 0 316)"  d="M94.0519 273.9356C 94.0519 273.07462 93.353905 272.3756 92.492905 272.3756C 91.631905 272.3756 90.9339 273.07462 90.9339 273.9356C 90.9339 274.7966 91.631905 275.4946 92.492905 275.4946C 93.353905 275.4946 94.0519 274.7966 94.0519 273.9356z" stroke="#E7BC9E" stroke-width="1" stroke-linecap="round" fill="none" />
    <path id=""  transform="matrix(1 0 0 -1 0 316)"  d="M94.0519 148.7735C 94.0519 147.9135 93.353905 147.2145 92.492905 147.2145C 91.631905 147.2145 90.9339 147.9135 90.9339 148.7735C 90.9339 149.63449 91.631905 150.3335 92.492905 150.3335C 93.353905 150.3335 94.0519 149.63449 94.0519 148.7735" stroke="none" fill="#E7BC9E" fill-rule="nonzero" />
    <path id=""  transform="matrix(1 0 0 -1 0 316)"  d="M94.0519 148.7735C 94.0519 147.9135 93.353905 147.2145 92.492905 147.2145C 91.631905 147.2145 90.9339 147.9135 90.9339 148.7735C 90.9339 149.63449 91.631905 150.3335 92.492905 150.3335C 93.353905 150.3335 94.0519 149.63449 94.0519 148.7735z" stroke="#E7BC9E" stroke-width="1" stroke-linecap="round" fill="none" />
    <path id=""  transform="matrix(1 0 0 -1 0 316)"  d="M77.8019 272.2071C 78.0249 271.3751 77.5309 270.52008 76.698906 270.2971C 75.866905 270.0741 75.0129 270.56808 74.7899 271.39908C 74.5679 272.23108 75.060905 273.0861 75.89291 273.30908C 76.7239 273.5321 77.5789 273.0381 77.8019 272.2071z" stroke="#E7BC9E" stroke-width="1" stroke-linecap="round" fill="none" />
    <path id=""  transform="matrix(1 0 0 -1 0 316)"  d="M110.1964 151.3097C 110.4194 150.47769 109.9254 149.6227 109.09341 149.4007C 108.261406 149.17769 107.4074 149.67068 107.1844 150.50269C 106.9614 151.3337 107.45541 152.1897 108.2864 152.41269C 109.1184 152.63469 109.972404 152.1417 110.1964 151.3097z" stroke="#E7BC9E" stroke-width="1" stroke-linecap="round" fill="none" />
    <path id=""  transform="matrix(1 0 0 -1 0 316)"  d="M62.5529 266.3311C 62.9839 265.58508 62.727898 264.63208 61.9829 264.20108C 61.2369 263.77008 60.282898 264.0261 59.852898 264.7711C 59.421898 265.5181 59.6779 266.4711 60.422897 266.9011C 61.1689 267.3321 62.1219 267.07608 62.5529 266.3311z" stroke="#E7BC9E" stroke-width="1" stroke-linecap="round" fill="none" />
    <path id=""  transform="matrix(1 0 0 -1 0 316)"  d="M125.1339 157.9376C 125.5639 157.1916 125.30891 156.2386 124.562904 155.8076C 123.8179 155.3766 122.8629 155.63261 122.43391 156.3786C 122.00291 157.1246 122.257904 158.07861 123.00391 158.50761C 123.7489 158.93861 124.7029 158.68361 125.1339 157.9376z" stroke="#E7BC9E" stroke-width="1" stroke-linecap="round" fill="none" />
    <path id=""  transform="matrix(1 0 0 -1 0 316)"  d="M49.3439 256.7081C 49.9529 256.1001 49.9529 255.1121 49.3439 254.5041C 48.735897 253.8951 47.7479 253.8951 47.1399 254.5041C 46.5309 255.1121 46.5309 256.1001 47.1399 256.7081C 47.7479 257.3171 48.735897 257.3171 49.3439 256.7081z" stroke="#E7BC9E" stroke-width="1" stroke-linecap="round" fill="none" />
    <path id=""  transform="matrix(1 0 0 -1 0 316)"  d="M137.8468 168.2062C 138.4548 167.59721 138.4548 166.6092 137.8468 166.0012C 137.23781 165.39221 136.25081 165.39221 135.6418 166.0012C 135.0338 166.6092 135.0338 167.59721 135.6418 168.2062C 136.25081 168.81421 137.23781 168.81421 137.8468 168.2062z" stroke="#E7BC9E" stroke-width="1" stroke-linecap="round" fill="none" />
    <path id=""  transform="matrix(1 0 0 -1 0 316)"  d="M39.0763 243.9952C 39.8213 243.5642 40.0773 242.61119 39.6463 241.86519C 39.2163 241.1202 38.2633 240.8642 37.5163 241.2952C 36.7713 241.72519 36.5153 242.6792 36.9463 243.42519C 37.3773 244.1702 38.330303 244.4262 39.0763 243.9952z" stroke="#E7BC9E" stroke-width="1" stroke-linecap="round" fill="none" />
    <path id=""  transform="matrix(1 0 0 -1 0 316)"  d="M147.4689 181.4142C 148.2149 180.9832 148.46991 180.0302 148.0399 179.2852C 147.60991 178.5392 146.6559 178.2832 145.9099 178.7142C 145.16391 179.1442 144.9089 180.0982 145.3389 180.8442C 145.7699 181.5892 146.7239 181.8452 147.4689 181.4142z" stroke="#E7BC9E" stroke-width="1" stroke-linecap="round" fill="none" />
    <path id=""  transform="matrix(1 0 0 -1 0 316)"  d="M32.4484 229.0577C 33.2794 228.83469 33.7734 227.97969 33.5514 227.1487C 33.3274 226.3167 32.472397 225.8237 31.640398 226.0457C 30.809399 226.26869 30.3154 227.12369 30.539398 227.9547C 30.761398 228.7867 31.616398 229.2807 32.4484 229.0577z" stroke="#E7BC9E" stroke-width="1" stroke-linecap="round" fill="none" />
    <path id=""  transform="matrix(1 0 0 -1 0 316)"  d="M153.3449 196.6632C 154.1769 196.44019 154.66989 195.5862 154.44789 194.7542C 154.2249 193.9222 153.3689 193.4292 152.53789 193.6512C 151.70589 193.87419 151.21289 194.72919 151.4359 195.5602C 151.6579 196.3922 152.5129 196.8862 153.3449 196.6632z" stroke="#E7BC9E" stroke-width="1" stroke-linecap="round" fill="none" />
    <path id=""  transform="matrix(1 0 0 -1 0 316)"  d="M29.9122 212.9142C 30.773201 212.9142 31.4712 212.2162 31.4712 211.3542C 31.4712 210.4932 30.773201 209.7962 29.9122 209.7962C 29.0512 209.7962 28.3532 210.4932 28.3532 211.3542C 28.3532 212.2162 29.0512 212.9142 29.9122 212.9142" stroke="none" fill="#E7BC9E" fill-rule="nonzero" />
    <path id=""  transform="matrix(1 0 0 -1 0 316)"  d="M29.9122 212.9142C 30.773201 212.9142 31.4712 212.2162 31.4712 211.3542C 31.4712 210.4932 30.773201 209.7962 29.9122 209.7962C 29.0512 209.7962 28.3532 210.4932 28.3532 211.3542C 28.3532 212.2162 29.0512 212.9142 29.9122 212.9142z" stroke="#E7BC9E" stroke-width="1" stroke-linecap="round" fill="none" />
    <path id=""  transform="matrix(1 0 0 -1 0 316)"  d="M155.0734 212.9142C 155.93439 212.9142 156.63339 212.2162 156.63339 211.3542C 156.63339 210.4932 155.93439 209.7962 155.0734 209.7962C 154.2134 209.7962 153.51439 210.4932 153.51439 211.3542C 153.51439 212.2162 154.2134 212.9142 155.0734 212.9142" stroke="none" fill="#E7BC9E" fill-rule="nonzero" />
    <path id=""  transform="matrix(1 0 0 -1 0 316)"  d="M155.0734 212.9142C 155.93439 212.9142 156.63339 212.2162 156.63339 211.3542C 156.63339 210.4932 155.93439 209.7962 155.0734 209.7962C 154.2134 209.7962 153.51439 210.4932 153.51439 211.3542C 153.51439 212.2162 154.2134 212.9142 155.0734 212.9142z" stroke="#E7BC9E" stroke-width="1" stroke-linecap="round" fill="none" />
    <path id=""  transform="matrix(1 0 0 -1 0 316)"  d="M31.6408 196.6632C 32.4728 196.8862 33.3278 196.3922 33.5508 195.5602C 33.7738 194.72919 33.2798 193.87419 32.4488 193.6512C 31.6168 193.4292 30.7618 193.9222 30.538801 194.7542C 30.3158 195.5862 30.809801 196.44019 31.6408 196.6632z" stroke="#E7BC9E" stroke-width="1" stroke-linecap="round" fill="none" />
    <path id=""  transform="matrix(1 0 0 -1 0 316)"  d="M28.9572 215.0021C 30.926199 215.5301 32.9502 214.3611 33.4782 212.3921C 34.0062 210.4221 32.8372 208.3981 30.867199 207.8701C 28.8982 207.34311 26.874199 208.5121 26.346199 210.48111C 25.8182 212.4501 26.9872 214.47511 28.9572 215.0021z" stroke="#E7BC9E" stroke-width="1" stroke-linecap="round" fill="none" />
    <path id=""  transform="matrix(1 0 0 -1 0 316)"  d="M154.1183 215.0021C 156.0883 215.5301 158.1123 214.3611 158.6393 212.3921C 159.1673 210.4221 157.9993 208.3981 156.0293 207.8701C 154.0593 207.34311 152.03531 208.5121 151.5083 210.48111C 150.9803 212.4501 152.1483 214.47511 154.1183 215.0021z" stroke="#E7BC9E" stroke-width="1" stroke-linecap="round" fill="none" />
    <path id=""  transform="matrix(1 0 0 -1 0 316)"  d="M152.5382 229.0577C 153.36919 229.2807 154.22519 228.7867 154.44719 227.9547C 154.6702 227.12369 154.1772 226.26869 153.3452 226.0457C 152.5132 225.8237 151.65819 226.3167 151.4352 227.1487C 151.2132 227.97969 151.70619 228.83469 152.5382 229.0577z" stroke="#E7BC9E" stroke-width="1" stroke-linecap="round" fill="none" />
    <path id=""  transform="matrix(1 0 0 -1 0 316)"  d="M37.5167 181.4142C 38.2627 181.8452 39.215702 181.5892 39.6467 180.8442C 40.0777 180.0982 39.8217 179.1442 39.076702 178.7142C 38.3297 178.2832 37.3767 178.5392 36.9467 179.2852C 36.5157 180.0302 36.7717 180.9832 37.5167 181.4142z" stroke="#E7BC9E" stroke-width="1" stroke-linecap="round" fill="none" />
    <path id=""  transform="matrix(1 0 0 -1 0 316)"  d="M145.9103 243.9952C 146.65529 244.4262 147.6093 244.1702 148.0403 243.42519C 148.47029 242.6792 148.21529 241.72519 147.4693 241.2952C 146.7233 240.8642 145.76929 241.1202 145.3393 241.86519C 144.90929 242.61119 145.16429 243.5642 145.9103 243.9952z" stroke="#E7BC9E" stroke-width="1" stroke-linecap="round" fill="none" />
    <path id=""  transform="matrix(1 0 0 -1 0 316)"  d="M47.1398 168.2062C 47.747803 168.81421 48.7358 168.81421 49.3438 168.2062C 49.9528 167.59721 49.9528 166.6092 49.3438 166.0012C 48.7358 165.39221 47.747803 165.39221 47.1398 166.0012C 46.5308 166.6092 46.5308 167.59721 47.1398 168.2062z" stroke="#E7BC9E" stroke-width="1" stroke-linecap="round" fill="none" />
    <path id=""  transform="matrix(1 0 0 -1 0 316)"  d="M135.6417 256.7081C 136.25069 257.3171 137.23769 257.3171 137.8467 256.7081C 138.4547 256.1001 138.4547 255.1121 137.8467 254.5041C 137.23769 253.8951 136.25069 253.8951 135.6417 254.5041C 135.03369 255.1121 135.03369 256.1001 135.6417 256.7081z" stroke="#E7BC9E" stroke-width="1" stroke-linecap="round" fill="none" />
    <path id=""  transform="matrix(1 0 0 -1 0 316)"  d="M59.8527 157.9376C 60.2837 158.68361 61.2367 158.93861 61.9827 158.50761C 62.7277 158.07861 62.9837 157.1246 62.5527 156.3786C 62.1227 155.63261 61.1687 155.3766 60.4227 155.8076C 59.6777 156.2386 59.4217 157.1916 59.8527 157.9376z" stroke="#E7BC9E" stroke-width="1" stroke-linecap="round" fill="none" />
    <path id=""  transform="matrix(1 0 0 -1 0 316)"  d="M122.4337 266.3311C 122.8637 267.07608 123.8177 267.3321 124.5627 266.9011C 125.3087 266.4711 125.5637 265.5181 125.1337 264.7711C 124.7037 264.0261 123.7487 263.77008 123.0037 264.20108C 122.2577 264.63208 122.0027 265.58508 122.4337 266.3311z" stroke="#E7BC9E" stroke-width="1" stroke-linecap="round" fill="none" />
    <path id=""  transform="matrix(1 0 0 -1 0 316)"  d="M74.7902 151.3097C 75.0132 152.1417 75.8672 152.63469 76.699196 152.41269C 77.5312 152.1897 78.0242 151.3337 77.8022 150.50269C 77.5792 149.67068 76.7242 149.17769 75.893196 149.4007C 75.0612 149.6227 74.5672 150.47769 74.7902 151.3097z" stroke="#E7BC9E" stroke-width="1" stroke-linecap="round" fill="none" />
    <path id=""  transform="matrix(1 0 0 -1 0 316)"  d="M107.1847 272.2071C 107.4077 273.0381 108.2617 273.5321 109.0937 273.30908C 109.9247 273.0861 110.4187 272.23108 110.1967 271.39908C 109.9727 270.56808 109.1187 270.0741 108.2867 270.2971C 107.4557 270.52008 106.9607 271.3751 107.1847 272.2071z" stroke="#E7BC9E" stroke-width="1" stroke-linecap="round" fill="none" />
		</g>
	</g>
</g>
</svg>