<?xml version="1.0" standalone="no"?>
<!DOCTYPE svg PUBLIC "-//W3C//DTD SVG 1.0//EN" "http://www.w3.org/TR/2001/REC-SVG-20010904/DTD/svg10.dtd">
<svg xmlns="http://www.w3.org/2000/svg" xmlns:xlink="http://www.w3.org/1999/xlink" id="body_1" width="247" height="421">

<defs>
    <clipPath  id="1">

    <path id=""  clip-rule="evenodd" transform="matrix(1 0 0 1 0 0)"  d="M0 316L0 0L0 0L185 0L185 0L185 316L185 316L0 316z" />    </clipPath>
    <clipPath  id="2">

    <path id=""  clip-rule="evenodd" transform="matrix(1 0 0 1 0 0)"  d="M0 0L185 0L185 0L185 316L185 316L0 316z" />    </clipPath>
</defs>

<g transform="matrix(1.3333 0 0 1.3333 0 0)">
	<g clip-path="url(#1)" >
    <path id=""  transform="matrix(1 0 0 -1 0 316)"  d="M89.8253 278.3858L89.8253 275.4498L89.8253 275.4498L92.3683 273.9818L92.3683 273.9818L94.9113 275.4498L94.9113 275.4498L94.9113 278.3858L94.9113 278.3858L92.3683 279.8538z" stroke="none" fill="#E7BC9E" fill-rule="nonzero" />
    <path id=""  transform="matrix(1 0 0 -1 0 316)"  d="M33.3419 242.6871L35.8849 241.2191L35.8849 241.2191L38.4279 242.6871L38.4279 242.6871L38.4279 245.62311L38.4279 245.62311L35.8849 247.09111L35.8849 247.09111L33.3419 245.62311z" stroke="none" fill="#E7BC9E" fill-rule="nonzero" />
    <path id=""  transform="matrix(1 0 0 -1 0 316)"  d="M36.0167 175.9215L38.5587 177.3895L38.5587 177.3895L38.5587 180.3255L38.5587 180.3255L36.0167 181.79349L36.0167 181.79349L33.4737 180.3255L33.4737 180.3255L33.4737 177.3895z" stroke="none" fill="#E7BC9E" fill-rule="nonzero" />
    <path id=""  transform="matrix(1 0 0 -1 0 316)"  d="M95.1739 144.8546L95.1739 147.7906L95.1739 147.7906L92.6319 149.2586L92.6319 149.2586L90.0889 147.7906L90.0889 147.7906L90.0889 144.8546L90.0889 144.8546L92.6319 143.3856z" stroke="none" fill="#E7BC9E" fill-rule="nonzero" />
    <path id=""  transform="matrix(1 0 0 -1 0 316)"  d="M151.6583 180.5533L149.1153 182.0213L149.1153 182.0213L146.5723 180.5533L146.5723 180.5533L146.5723 177.6173L146.5723 177.6173L149.1153 176.14929L149.1153 176.14929L151.6583 177.6173z" stroke="none" fill="#E7BC9E" fill-rule="nonzero" />
    <path id=""  transform="matrix(1 0 0 -1 0 316)"  d="M148.9835 247.3189L146.4405 245.85089L146.4405 245.85089L146.4405 242.91489L146.4405 242.91489L148.9835 241.4469L148.9835 241.4469L151.5265 242.91489L151.5265 242.91489L151.5265 245.85089z" stroke="none" fill="#E7BC9E" fill-rule="nonzero" />
		<g clip-path="url(#2)" >
    <path id=""  transform="matrix(1 0 0 -1 0 316)"  d="M157.7979 211.6202C 157.7979 175.55719 128.5629 146.3222 92.4999 146.3222C 56.436897 146.3222 27.201904 175.55719 27.201904 211.6202C 27.201904 247.6832 56.436897 276.91818 92.4999 276.91818C 128.5629 276.91818 157.7979 247.6832 157.7979 211.6202z" stroke="#E7BC9E" stroke-width="0.567" fill="none" />
    <path id=""  transform="matrix(1 0 0 -1 0 316)"  d="M152.6475 211.6202C 152.6475 178.40118 125.718506 151.47319 92.5005 151.47319C 59.28151 151.47319 32.35251 178.40118 32.35251 211.6202C 32.35251 244.8392 59.28151 271.76718 92.5005 271.76718C 125.718506 271.76718 152.6475 244.8392 152.6475 211.6202z" stroke="#E7BC9E" stroke-width="0.567" stroke-linecap="round" stroke-dasharray="1.984,2.2680001" fill="none" />
		</g>
	</g>
</g>
</svg>