<svg id="레이어_2" data-name="레이어 2" xmlns="http://www.w3.org/2000/svg" viewBox="0 0 185 316"><defs><style>.cls-1,.cls-2{fill:none;stroke:#e7bc9e;}.cls-1{stroke-linecap:round;stroke-linejoin:round;stroke-dasharray:0.1 4.98;}.cls-2{stroke-miterlimit:10;stroke-width:0.75px;}</style></defs><title>3_8</title><circle class="cls-1" cx="92.5" cy="104.38" r="60.64"/><path class="cls-2" d="M92.42,41.38l-.09,0a6.72,6.72,0,0,1-1.07-.83,3.42,3.42,0,0,1-.69-.88,2,2,0,0,1-.24-.93,1.39,1.39,0,0,1,.16-.68,1.18,1.18,0,0,1,.44-.47,1.11,1.11,0,0,1,.62-.17.93.93,0,0,1,.56.16,1.24,1.24,0,0,1,.39.43,1.24,1.24,0,0,1,.39-.43,1,1,0,0,1,.56-.16,1.09,1.09,0,0,1,.62.17,1.11,1.11,0,0,1,.44.47,1.39,1.39,0,0,1,.16.68,2,2,0,0,1-.24.93,3.42,3.42,0,0,1-.69.88,6.72,6.72,0,0,1-1.07.83l-.08,0a.18.18,0,0,1-.09,0A.13.13,0,0,1,92.42,41.38Z"/><path class="cls-2" d="M60.94,49.86h-.09a6.68,6.68,0,0,1-1.34-.18,3.39,3.39,0,0,1-1-.43,1.89,1.89,0,0,1-.67-.68,1.45,1.45,0,0,1-.21-.67,1.33,1.33,0,0,1,.15-.63,1.17,1.17,0,0,1,.45-.46,1,1,0,0,1,.57-.14,1.42,1.42,0,0,1,.55.18,1.31,1.31,0,0,1,.12-.56,1,1,0,0,1,.4-.43,1.18,1.18,0,0,1,.63-.16,1.25,1.25,0,0,1,.61.19,1.5,1.5,0,0,1,.49.51,2,2,0,0,1,.25.92,3.52,3.52,0,0,1-.16,1.12,6,6,0,0,1-.51,1.24.41.41,0,0,1,0,.09l-.06.06Z"/><path class="cls-2" d="M37.93,72.94l-.09,0a7,7,0,0,1-1.24.52,3.8,3.8,0,0,1-1.12.15,2,2,0,0,1-.92-.25,1.41,1.41,0,0,1-.51-.49,1.25,1.25,0,0,1-.19-.61,1.18,1.18,0,0,1,.16-.63,1,1,0,0,1,.43-.4,1.31,1.31,0,0,1,.56-.12,1.42,1.42,0,0,1-.18-.55A1,1,0,0,1,35,70a1.17,1.17,0,0,1,.46-.45,1.33,1.33,0,0,1,.63-.15,1.45,1.45,0,0,1,.67.21,1.89,1.89,0,0,1,.68.67,3.65,3.65,0,0,1,.43,1A7.53,7.53,0,0,1,38,72.7a.14.14,0,0,1,0,.09.2.2,0,0,1,0,.09Z"/><path class="cls-2" d="M29.53,104.44a.59.59,0,0,1,0,.08,6.84,6.84,0,0,1-.83,1.07,3.42,3.42,0,0,1-.88.69,2,2,0,0,1-.93.24,1.41,1.41,0,0,1-.69-.16,1.33,1.33,0,0,1-.47-.44,1.18,1.18,0,0,1-.17-.62,1,1,0,0,1,.17-.56,1.24,1.24,0,0,1,.43-.39,1.24,1.24,0,0,1-.43-.39,1,1,0,0,1-.17-.56,1.2,1.2,0,0,1,.17-.62,1.33,1.33,0,0,1,.47-.44,1.53,1.53,0,0,1,.69-.16,2,2,0,0,1,.93.24,3.42,3.42,0,0,1,.88.69,7.35,7.35,0,0,1,.83,1.07.39.39,0,0,1,0,.09.13.13,0,0,1,0,.08A.16.16,0,0,1,29.53,104.44Z"/><path class="cls-2" d="M38,135.91a.34.34,0,0,1,0,.1,7.41,7.41,0,0,1-.17,1.33,3.54,3.54,0,0,1-.43,1,1.82,1.82,0,0,1-.68.67,1.46,1.46,0,0,1-.68.21,1.21,1.21,0,0,1-.62-.15,1.17,1.17,0,0,1-.46-.45,1,1,0,0,1-.14-.57,1.42,1.42,0,0,1,.18-.55,1.39,1.39,0,0,1-.57-.12A1,1,0,0,1,34,137a1.17,1.17,0,0,1-.16-.62,1.16,1.16,0,0,1,.19-.62,1.48,1.48,0,0,1,.51-.48,2,2,0,0,1,.92-.26,3.52,3.52,0,0,1,1.12.16,6.26,6.26,0,0,1,1.24.51l.08,0,.07.07A.15.15,0,0,1,38,135.91Z"/><path class="cls-2" d="M61.09,158.93a.22.22,0,0,1,0,.08,6.1,6.1,0,0,1,.51,1.25,3.47,3.47,0,0,1,.16,1.11,2,2,0,0,1-.25.92,1.42,1.42,0,0,1-.49.51,1.15,1.15,0,0,1-.61.19,1.18,1.18,0,0,1-.63-.16,1,1,0,0,1-.4-.42,1.39,1.39,0,0,1-.12-.57,1.42,1.42,0,0,1-.55.18,1,1,0,0,1-.57-.14,1.11,1.11,0,0,1-.45-.46,1.21,1.21,0,0,1-.15-.62,1.46,1.46,0,0,1,.21-.68,1.89,1.89,0,0,1,.67-.68,3.65,3.65,0,0,1,1-.42,6.68,6.68,0,0,1,1.34-.18h.09s.07,0,.09,0Z"/><path class="cls-2" d="M92.58,167.32a.19.19,0,0,1,.09.05,6.68,6.68,0,0,1,1.07.82,3.46,3.46,0,0,1,.69.89,1.94,1.94,0,0,1,.24.92,1.41,1.41,0,0,1-.16.69,1.25,1.25,0,0,1-.44.47,1.18,1.18,0,0,1-.62.17.93.93,0,0,1-.56-.17,1.24,1.24,0,0,1-.39-.43,1.28,1.28,0,0,1-.39.44,1,1,0,0,1-.56.16,1.18,1.18,0,0,1-.62-.17,1.25,1.25,0,0,1-.44-.47,1.41,1.41,0,0,1-.16-.69,1.94,1.94,0,0,1,.24-.92,3.46,3.46,0,0,1,.69-.89,6.68,6.68,0,0,1,1.07-.82l.08-.05.09,0Z"/><path class="cls-2" d="M124.06,158.84h.1a6.68,6.68,0,0,1,1.33.18,3.65,3.65,0,0,1,1,.42,1.89,1.89,0,0,1,.67.68,1.46,1.46,0,0,1,.21.68,1.32,1.32,0,0,1-.15.62,1.11,1.11,0,0,1-.45.46.93.93,0,0,1-.57.14,1.42,1.42,0,0,1-.55-.18,1.32,1.32,0,0,1-.12.57,1,1,0,0,1-.4.42,1.18,1.18,0,0,1-.63.16,1.23,1.23,0,0,1-.61-.18,1.54,1.54,0,0,1-.49-.52,2.13,2.13,0,0,1-.25-.92,3.47,3.47,0,0,1,.16-1.11,6.1,6.1,0,0,1,.51-1.25.35.35,0,0,1,0-.08l.06-.06S124,158.85,124.06,158.84Z"/><path class="cls-2" d="M147.07,135.76l.09,0a6.26,6.26,0,0,1,1.24-.51,3.52,3.52,0,0,1,1.12-.16,2,2,0,0,1,.92.26,1.48,1.48,0,0,1,.51.48,1.28,1.28,0,0,1,.19.62,1.17,1.17,0,0,1-.16.62.92.92,0,0,1-.43.4,1.07,1.07,0,0,1-.56.12,1.42,1.42,0,0,1,.18.56,1,1,0,0,1-.14.56,1.17,1.17,0,0,1-.46.45,1.13,1.13,0,0,1-.63.15,1.45,1.45,0,0,1-.67-.21,1.82,1.82,0,0,1-.68-.67,3.28,3.28,0,0,1-.42-1A6.58,6.58,0,0,1,147,136a.33.33,0,0,1,0-.1.15.15,0,0,1,0-.08Z"/><path class="cls-2" d="M155.47,104.27l0-.09a7.35,7.35,0,0,1,.83-1.07,3.3,3.3,0,0,1,.89-.69,1.94,1.94,0,0,1,.92-.24,1.53,1.53,0,0,1,.69.16,1.33,1.33,0,0,1,.47.44,1.2,1.2,0,0,1,.17.62,1,1,0,0,1-.17.57,1.32,1.32,0,0,1-.43.38,1.16,1.16,0,0,1,.43.39,1,1,0,0,1,.17.56,1.18,1.18,0,0,1-.17.62,1.24,1.24,0,0,1-.47.44,1.41,1.41,0,0,1-.69.16,1.94,1.94,0,0,1-.92-.24,3.3,3.3,0,0,1-.89-.69,6.84,6.84,0,0,1-.83-1.07.59.59,0,0,1,0-.08.16.16,0,0,1,0-.09A.13.13,0,0,1,155.47,104.27Z"/><path class="cls-2" d="M147,72.79a.27.27,0,0,1,0-.09,6.68,6.68,0,0,1,.18-1.34,3.38,3.38,0,0,1,.42-1,1.89,1.89,0,0,1,.68-.67,1.34,1.34,0,0,1,.68-.2,1.2,1.2,0,0,1,.62.14A1.17,1.17,0,0,1,150,70a1,1,0,0,1,.14.57,1.37,1.37,0,0,1-.18.55,1.39,1.39,0,0,1,.57.12,1,1,0,0,1,.42.4,1.18,1.18,0,0,1,.16.63,1.15,1.15,0,0,1-.19.61,1.41,1.41,0,0,1-.51.49,2,2,0,0,1-.92.25,3.8,3.8,0,0,1-1.12-.15,7,7,0,0,1-1.24-.52l-.08,0-.07-.06A.2.2,0,0,1,147,72.79Z"/><path class="cls-2" d="M123.91,49.78a.41.41,0,0,1,0-.09,6,6,0,0,1-.51-1.24,3.52,3.52,0,0,1-.16-1.12,2.13,2.13,0,0,1,.25-.92,1.5,1.5,0,0,1,.49-.51,1.25,1.25,0,0,1,.61-.19,1.28,1.28,0,0,1,.63.16,1,1,0,0,1,.4.43,1.31,1.31,0,0,1,.12.56,1.42,1.42,0,0,1,.55-.18,1.09,1.09,0,0,1,.57.14,1.17,1.17,0,0,1,.45.46,1.22,1.22,0,0,1,.15.63,1.45,1.45,0,0,1-.21.67,1.89,1.89,0,0,1-.67.68,3.39,3.39,0,0,1-1,.43,6.68,6.68,0,0,1-1.33.18h-.1l-.09,0Z"/></svg>