<?xml version="1.0" standalone="no"?>
<!DOCTYPE svg PUBLIC "-//W3C//DTD SVG 1.0//EN" "http://www.w3.org/TR/2001/REC-SVG-20010904/DTD/svg10.dtd">
<svg xmlns="http://www.w3.org/2000/svg" xmlns:xlink="http://www.w3.org/1999/xlink" id="body_10" width="247" height="421">

<defs>
    <clipPath  id="1">

    <path id=""  clip-rule="evenodd" transform="matrix(1 0 0 1 0 0)"  d="M0 316L0 0L0 0L185 0L185 0L185 316L185 316L0 316z" />    </clipPath>
    <clipPath  id="2">

    <path id=""  clip-rule="evenodd" transform="matrix(1 0 0 1 0 0)"  d="M0 0L185 0L185 0L185 316L185 316L0 316z" />    </clipPath>
    <clipPath  id="3">

    <path id=""  clip-rule="evenodd" transform="matrix(1 0 0 1 0 0)"  d="M79.1313 206.993L106.112 206.993L106.112 206.993L106.112 233.9737L106.112 233.9737L79.1313 233.9737z" />    </clipPath>
</defs>

<g transform="matrix(1.3333 0 0 1.3333 0 0)">
	<g clip-path="url(#1)" >
    <path id=""  transform="matrix(1 0 0 -1 0 316)"  d="M92.5006 281.8273L92.5006 302.9923" stroke="#E7BC9E" stroke-width="0.75" fill="none" />
		<g clip-path="url(#2)" >
    <path id=""  transform="matrix(1 0 0 -1 0 316)"  d="M96.1579 294.9005C 95.8609 294.97153 95.3469 295.07053 94.7989 295.07053C 94.2789 295.07053 93.7269 294.9815 93.2959 294.6975C 92.9619 294.4765 92.6979 294.2275 92.5009 293.96652C 92.303894 294.2275 92.0399 294.4765 91.704895 294.6975C 91.273895 294.9815 90.7219 295.07053 90.202896 295.07053C 89.6539 295.07053 89.1399 294.97153 88.843895 294.9005C 88.6879 294.86353 88.5849 294.7145 88.6019 294.55252C 88.6659 293.9815 88.9049 292.6795 89.7829 292.10052C 90.0419 291.9305 90.3089 291.8005 90.5739 291.70752C 90.053894 291.27252 89.928894 290.39752 89.900894 290.0855C 89.8949 290.0155 89.9319 289.9525 89.994896 289.9245C 90.1689 289.8485 90.6109 289.75052 91.0769 289.75052C 91.428894 289.75052 91.7929 289.80652 92.064896 289.9725C 92.2429 290.0805 92.3869 290.2005 92.5009 290.3265C 92.6149 290.2005 92.758896 290.0805 92.9349 289.9725C 93.2079 289.80652 93.5729 289.75052 93.9249 289.75052C 94.3899 289.75052 94.8329 289.8485 95.0069 289.9245C 95.0689 289.9525 95.105896 290.0155 95.0999 290.0855C 95.0719 290.39752 94.9469 291.27252 94.427895 291.70752C 94.691895 291.8005 94.9599 291.9305 95.218895 292.10052C 96.0959 292.6795 96.3349 293.9815 96.397896 294.55252C 96.4169 294.7145 96.3129 294.86353 96.1579 294.9005" stroke="none" fill="#E7BC9E" fill-rule="nonzero" />
    <path id=""  transform="matrix(1 0 0 -1 0 316)"  d="M96.1579 294.9005C 95.8609 294.97153 95.3469 295.07053 94.7989 295.07053C 94.2789 295.07053 93.7269 294.9815 93.2959 294.6975C 92.9619 294.4765 92.6979 294.2275 92.5009 293.96652C 92.303894 294.2275 92.0399 294.4765 91.704895 294.6975C 91.273895 294.9815 90.7219 295.07053 90.202896 295.07053C 89.6539 295.07053 89.1399 294.97153 88.843895 294.9005C 88.6879 294.86353 88.5849 294.7145 88.6019 294.55252C 88.6659 293.9815 88.9049 292.6795 89.7829 292.10052C 90.0419 291.9305 90.3089 291.8005 90.5739 291.70752C 90.053894 291.27252 89.928894 290.39752 89.900894 290.0855C 89.8949 290.0155 89.9319 289.9525 89.994896 289.9245C 90.1689 289.8485 90.6109 289.75052 91.0769 289.75052C 91.428894 289.75052 91.7929 289.80652 92.064896 289.9725C 92.2429 290.0805 92.3869 290.2005 92.5009 290.3265C 92.6149 290.2005 92.758896 290.0805 92.9349 289.9725C 93.2079 289.80652 93.5729 289.75052 93.9249 289.75052C 94.3899 289.75052 94.8329 289.8485 95.0069 289.9245C 95.0689 289.9525 95.105896 290.0155 95.0999 290.0855C 95.0719 290.39752 94.9469 291.27252 94.427895 291.70752C 94.691895 291.8005 94.9599 291.9305 95.218895 292.10052C 96.0959 292.6795 96.3349 293.9815 96.397896 294.55252C 96.4169 294.7145 96.3129 294.86353 96.1579 294.9005z" stroke="#E7BC9E" stroke-width="0.25" fill="none" />
    <path id=""  transform="matrix(1 0 0 -1 0 316)"  d="M88.861 297.2121C 88.254 298.0171 87.439 298.7861 86.407 299.4671C 85.077 300.3441 83.376 300.6161 81.773 300.6161C 80.079 300.6161 78.496 300.3121 77.58 300.0931C 77.099 299.9791 76.781 299.5211 76.837 299.0221C 77.032 297.2591 77.769 293.2421 80.477 291.4561C 81.276 290.93008 82.101 290.52908 82.918 290.2421C 81.314 288.9011 80.928 286.2001 80.841 285.2371C 80.823 285.0241 80.938 284.8271 81.131 284.7431C 81.667 284.5091 83.031 284.2031 84.467 284.2031C 85.552 284.2031 86.678 284.3781 87.519 284.8901C 88.067 285.22308 88.509 285.5921 88.861 285.9821" stroke="#E7BC9E" stroke-width="0.75" stroke-linecap="round" fill="none" />
    <path id=""  transform="matrix(1 0 0 -1 0 316)"  d="M96.3161 285.9816C 96.6681 285.59158 97.1111 285.2226 97.658104 284.8896C 98.4991 284.3776 99.6251 284.20358 100.7101 284.20358C 102.1461 284.20358 103.5101 284.5086 104.046104 284.7436C 104.2401 284.8276 104.3551 285.0246 104.336105 285.2376C 104.2491 286.2006 103.8641 288.9016 102.2591 290.24258C 103.0771 290.5296 103.9021 290.9296 104.7001 291.4566C 107.408104 293.24258 108.1451 297.2586 108.3411 299.0216C 108.3971 299.5206 108.0781 299.9786 107.5981 300.0926C 106.6821 300.31158 105.0981 300.6166 103.4041 300.6166C 101.8021 300.6166 100.101105 300.3436 98.7701 299.46658C 97.7391 298.7866 96.9241 298.0166 96.3161 297.2116" stroke="#E7BC9E" stroke-width="0.75" stroke-linecap="round" fill="none" />
    <path id=""  transform="matrix(1 0 0 -1 0 316)"  d="M108.0075 290.3361L110.0825 292.4101L110.0825 292.4101L112.1565 290.3361L112.1565 290.3361L110.0825 288.2621L110.0825 288.2621L108.0075 290.3361z" stroke="#E7BC9E" stroke-width="0.75" stroke-linecap="round" fill="none" />
    <path id=""  transform="matrix(1 0 0 -1 0 316)"  d="M73.0211 290.3361L75.0951 292.4101L75.0951 292.4101L77.169106 290.3361L77.169106 290.3361L75.0951 288.2621L75.0951 288.2621L73.0211 290.3361z" stroke="#E7BC9E" stroke-width="0.75" stroke-linecap="round" fill="none" />
    <path id=""  transform="matrix(1 0 0 -1 0 316)"  d="M105.862 95.5168C 105.862 88.2048 99.934 82.2768 92.622 82.2768C 85.309 82.2768 79.382 88.2048 79.382 95.5168C 79.382 102.8288 85.309 108.7568 92.622 108.7568C 99.934 108.7568 105.862 102.8288 105.862 95.5168z" stroke="#E7BC9E" stroke-width="0.5" stroke-linecap="round" fill="none" />
    <path id=""  transform="matrix(1 0 0 -1 0 316)"  d="M107.4791 95.5168C 107.4791 87.3108 100.8281 80.6598 92.6221 80.6598C 84.41611 80.6598 77.7641 87.3108 77.7641 95.5168C 77.7641 103.7228 84.41611 110.3738 92.6221 110.3738C 100.8281 110.3738 107.4791 103.7228 107.4791 95.5168z" stroke="#E7BC9E" stroke-width="0.5" stroke-linecap="round" fill="none" />
			<g>
				<g clip-path="url(#3)" >
    <path id=""  transform="matrix(1 0 0 -1 0 316)"  d="M92.6217 108.757L92.6217 82.27701" stroke="#E7BC9E" stroke-width="0.5" stroke-linecap="round" fill="none" stroke-opacity="0.49803922" />
    <path id=""  transform="matrix(1 0 0 -1 0 316)"  d="M79.3815 95.5168L105.861496 95.5168" stroke="#E7BC9E" stroke-width="0.5" stroke-linecap="round" fill="none" stroke-opacity="0.49803922" />
    <path id=""  transform="matrix(1 0 0 -1 0 316)"  d="M83.2594 104.8791L101.9844 86.1541" stroke="#E7BC9E" stroke-width="0.5" stroke-linecap="round" fill="none" stroke-opacity="0.49803922" />
    <path id=""  transform="matrix(1 0 0 -1 0 316)"  d="M83.2594 86.1544L101.9844 104.8794" stroke="#E7BC9E" stroke-width="0.5" stroke-linecap="round" fill="none" stroke-opacity="0.49803922" />
				</g>
			</g>
    <path id=""  transform="matrix(1 0 0 -1 0 316)"  d="M85.7702 102.3683L87.5472 107.7493L87.5472 107.7493L92.6222 105.2063L92.6222 105.2063L97.6892 107.7493L97.6892 107.7493L99.473206 102.3683L99.473206 102.3683L104.8542 100.5913L104.8542 100.5913L102.3112 95.516304L102.3112 95.516304L104.8542 90.4503L104.8542 90.4503L99.473206 88.6653L99.473206 88.6653L97.6892 83.2813L97.6892 83.2813L92.6222 85.8273L92.6222 85.8273L87.55521 83.2843L87.55521 83.2843L85.7702 88.6653L85.7702 88.6653L80.3852 90.4503L80.3852 90.4503L82.932205 95.516304L82.932205 95.516304L80.3852 100.5813L80.3852 100.5813L85.7702 102.3683z" stroke="#E7BC9E" stroke-width="0.5" stroke-linecap="round" fill="none" />
    <path id=""  transform="matrix(1 0 0 -1 0 316)"  d="M99.1686 98.9748C 98.6376 99.1018 97.717606 99.2788 96.734604 99.2788C 95.8056 99.2788 94.817604 99.120804 94.0456 98.6118C 93.4466 98.2168 92.9746 97.7708 92.621605 97.3028C 92.2696 97.7708 91.7966 98.2168 91.1976 98.6118C 90.4256 99.120804 89.4386 99.2788 88.5096 99.2788C 87.525604 99.2788 86.6066 99.1018 86.0756 98.9748C 85.7966 98.9088 85.6116 98.6428 85.6446 98.3528C 85.7576 97.3298 86.1856 94.9988 87.7566 93.9628C 88.220604 93.6588 88.6986 93.4258 89.1726 93.2588C 88.2416 92.4808 88.0196 90.912796 87.968605 90.3548C 87.9576 90.2318 88.023605 90.1168 88.136604 90.0678C 88.4466 89.9318 89.2386 89.7548 90.0716 89.7548C 90.7016 89.7548 91.3556 89.8558 91.843605 90.1528C 92.1606 90.3458 92.4176 90.5608 92.621605 90.786804C 92.8256 90.5608 93.0826 90.3458 93.399605 90.1528C 93.8886 89.8558 94.5416 89.7548 95.1716 89.7548C 96.0046 89.7548 96.7966 89.9318 97.106606 90.0678C 97.219604 90.1168 97.286606 90.2318 97.274605 90.3548C 97.2256 90.912796 97.0016 92.4808 96.0706 93.2588C 96.5446 93.4258 97.0226 93.6588 97.4866 93.9628C 99.0586 94.9988 99.4856 97.3298 99.5996 98.3528C 99.6316 98.6428 99.4466 98.9088 99.1686 98.9748" stroke="none" fill="#E7BC9E" fill-rule="nonzero" />
    <path id=""  transform="matrix(1 0 0 -1 0 316)"  d="M99.1686 98.9748C 98.6376 99.1018 97.717606 99.2788 96.734604 99.2788C 95.8056 99.2788 94.817604 99.120804 94.0456 98.6118C 93.4466 98.2168 92.9746 97.7708 92.621605 97.3028C 92.2696 97.7708 91.7966 98.2168 91.1976 98.6118C 90.4256 99.120804 89.4386 99.2788 88.5096 99.2788C 87.525604 99.2788 86.6066 99.1018 86.0756 98.9748C 85.7966 98.9088 85.6116 98.6428 85.6446 98.3528C 85.7576 97.3298 86.1856 94.9988 87.7566 93.9628C 88.220604 93.6588 88.6986 93.4258 89.1726 93.2588C 88.2416 92.4808 88.0196 90.912796 87.968605 90.3548C 87.9576 90.2318 88.023605 90.1168 88.136604 90.0678C 88.4466 89.9318 89.2386 89.7548 90.0716 89.7548C 90.7016 89.7548 91.3556 89.8558 91.843605 90.1528C 92.1606 90.3458 92.4176 90.5608 92.621605 90.786804C 92.8256 90.5608 93.0826 90.3458 93.399605 90.1528C 93.8886 89.8558 94.5416 89.7548 95.1716 89.7548C 96.0046 89.7548 96.7966 89.9318 97.106606 90.0678C 97.219604 90.1168 97.286606 90.2318 97.274605 90.3548C 97.2256 90.912796 97.0016 92.4808 96.0706 93.2588C 96.5446 93.4258 97.0226 93.6588 97.4866 93.9628C 99.0586 94.9988 99.4856 97.3298 99.5996 98.3528C 99.6316 98.6428 99.4466 98.9088 99.1686 98.9748z" stroke="#E7BC9E" stroke-width="0.25" fill="none" />
    <path id=""  transform="matrix(1 0 0 -1 0 316)"  d="M96.3121 42.8331L92.6221 11.000099L92.6221 11.000099L88.93111 42.8331L88.93111 42.8331L92.6221 74.6671L92.6221 74.6671L96.3121 42.8331z" stroke="#E7BC9E" stroke-width="0.5" stroke-linecap="round" fill="none" />
    <path id=""  transform="matrix(1 0 0 -1 0 316)"  d="M92.6217 74.6671L92.6217 11.000099" stroke="#E7BC9E" stroke-width="0.5" stroke-linecap="round" fill="none" />
    <path id=""  transform="matrix(1 0 0 -1 0 316)"  d="M88.9313 42.8331L96.312294 42.8331" stroke="#E7BC9E" stroke-width="0.5" stroke-linecap="round" fill="none" />
    <path id=""  transform="matrix(1 0 0 -1 0 316)"  d="M108.1549 46.6925L105.0979 25.441502L105.0979 25.441502L102.0419 46.6925L102.0419 46.6925L105.0979 67.9435L105.0979 67.9435L108.1549 46.6925z" stroke="#E7BC9E" stroke-width="0.5" stroke-linecap="round" fill="none" />
    <path id=""  transform="matrix(1 0 0 -1 0 316)"  d="M105.0983 67.9435L105.0983 25.441498" stroke="#E7BC9E" stroke-width="0.5" stroke-linecap="round" fill="none" />
    <path id=""  transform="matrix(1 0 0 -1 0 316)"  d="M102.0416 46.6925L108.1546 46.6925" stroke="#E7BC9E" stroke-width="0.5" stroke-linecap="round" fill="none" />
    <path id=""  transform="matrix(1 0 0 -1 0 316)"  d="M83.2018 46.6925L80.1448 25.441502L80.1448 25.441502L77.0888 46.6925L77.0888 46.6925L80.1448 67.9435L80.1448 67.9435L83.2018 46.6925z" stroke="#E7BC9E" stroke-width="0.5" stroke-linecap="round" fill="none" />
    <path id=""  transform="matrix(1 0 0 -1 0 316)"  d="M80.1452 67.9435L80.1452 25.441498" stroke="#E7BC9E" stroke-width="0.5" stroke-linecap="round" fill="none" />
    <path id=""  transform="matrix(1 0 0 -1 0 316)"  d="M77.0885 46.6925L83.2015 46.6925" stroke="#E7BC9E" stroke-width="0.5" stroke-linecap="round" fill="none" />
    <path id=""  transform="matrix(1 0 0 -1 0 316)"  d="M93.5094 116.3039C 93.5094 115.812904 93.1114 115.4149 92.6194 115.4149C 92.1284 115.4149 91.7314 115.812904 91.7314 116.3039C 91.7314 116.7949 92.1284 117.1939 92.6194 117.1939C 93.1114 117.1939 93.5094 116.7949 93.5094 116.3039z" stroke="#E7BC9E" stroke-width="0.75" stroke-linecap="round" fill="none" />
    <path id=""  transform="matrix(1 0 0 -1 0 316)"  d="M93.5094 138.9288C 93.5094 138.4378 93.1114 138.0388 92.6194 138.0388C 92.1284 138.0388 91.7314 138.4378 91.7314 138.9288C 91.7314 139.41881 92.1284 139.81781 92.6194 139.81781C 93.1114 139.81781 93.5094 139.41881 93.5094 138.9288z" stroke="#E7BC9E" stroke-width="0.75" stroke-linecap="round" fill="none" />
    <path id=""  transform="matrix(1 0 0 -1 0 316)"  d="M93.0563 112.672C 93.0563 112.463 92.8873 112.294 92.6783 112.294C 92.4693 112.294 92.3003 112.463 92.3003 112.672C 92.3003 112.881 92.4693 113.049995 92.6783 113.049995C 92.8873 113.049995 93.0563 112.881 93.0563 112.672z" stroke="#E7BC9E" stroke-width="0.25" stroke-linecap="round" fill="none" />
    <path id=""  transform="matrix(1 0 0 -1 0 316)"  d="M84.4205 110.591C 84.5245 110.41 84.4625 110.179 84.2815 110.074005C 84.1015 109.97 83.8705 110.032005 83.7665 110.213005C 83.6615 110.394005 83.7235 110.625 83.9035 110.729004C 84.0855 110.833 84.316505 110.772 84.4205 110.591z" stroke="#E7BC9E" stroke-width="0.25" stroke-linecap="round" fill="none" />
    <path id=""  transform="matrix(1 0 0 -1 0 316)"  d="M77.9821 104.4709C 78.1631 104.366905 78.2251 104.1349 78.1211 103.9539C 78.0161 103.7739 77.7851 103.7119 77.6041 103.8169C 77.4231 103.9199 77.3621 104.1519 77.4661 104.3319C 77.5711 104.5129 77.8011 104.5749 77.9821 104.4709z" stroke="#E7BC9E" stroke-width="0.25" stroke-linecap="round" fill="none" />
    <path id=""  transform="matrix(1 0 0 -1 0 316)"  d="M75.4664 95.9513C 75.6754 95.9513 75.8444 95.7823 75.8444 95.5733C 75.8444 95.3643 75.6754 95.195305 75.4664 95.195305C 75.2584 95.195305 75.0884 95.3643 75.0884 95.5733C 75.0884 95.7823 75.2584 95.9513 75.4664 95.9513z" stroke="#E7BC9E" stroke-width="0.25" stroke-linecap="round" fill="none" />
    <path id=""  transform="matrix(1 0 0 -1 0 316)"  d="M77.5475 87.3156C 77.7285 87.41959 77.9595 87.3576 78.0645 87.1766C 78.1685 86.9966 78.1065 86.765594 77.9255 86.6616C 77.7445 86.556595 77.5145 86.6186 77.4095 86.7986C 77.305504 86.9806 77.3665 87.2116 77.5475 87.3156z" stroke="#E7BC9E" stroke-width="0.25" stroke-linecap="round" fill="none" />
    <path id=""  transform="matrix(1 0 0 -1 0 316)"  d="M83.6676 80.8771C 83.7716 81.0581 84.0036 81.120094 84.1846 81.0161C 84.3646 80.911095 84.426605 80.6801 84.3216 80.4991C 84.218605 80.3181 83.9866 80.257095 83.8066 80.3611C 83.6256 80.466095 83.56361 80.6961 83.6676 80.8771z" stroke="#E7BC9E" stroke-width="0.25" stroke-linecap="round" fill="none" />
    <path id=""  transform="matrix(1 0 0 -1 0 316)"  d="M92.1871 78.3615C 92.1871 78.5705 92.3561 78.7395 92.5651 78.7395C 92.7741 78.7395 92.9431 78.5705 92.9431 78.3615C 92.9431 78.1535 92.7741 77.983505 92.5651 77.983505C 92.3561 77.983505 92.1871 78.1535 92.1871 78.3615z" stroke="#E7BC9E" stroke-width="0.25" stroke-linecap="round" fill="none" />
    <path id=""  transform="matrix(1 0 0 -1 0 316)"  d="M100.8229 80.4425C 100.7189 80.6235 100.7809 80.8545 100.9619 80.959496C 101.1419 81.0635 101.3729 81.001495 101.4769 80.820496C 101.5819 80.639496 101.5199 80.4095 101.3399 80.3045C 101.1589 80.2005 100.926895 80.2615 100.8229 80.4425z" stroke="#E7BC9E" stroke-width="0.25" stroke-linecap="round" fill="none" />
    <path id=""  transform="matrix(1 0 0 -1 0 316)"  d="M107.2614 86.5627C 107.0804 86.666695 107.0184 86.8987 107.1224 87.0797C 107.2274 87.2597 107.4584 87.3217 107.6394 87.2167C 107.8204 87.1137 107.8814 86.8817 107.7774 86.7017C 107.6734 86.5207 107.4424 86.4587 107.2614 86.5627z" stroke="#E7BC9E" stroke-width="0.25" stroke-linecap="round" fill="none" />
    <path id=""  transform="matrix(1 0 0 -1 0 316)"  d="M109.777 95.0822C 109.568 95.0822 109.399 95.2512 109.399 95.4602C 109.399 95.6692 109.568 95.838196 109.777 95.838196C 109.986 95.838196 110.155 95.6692 110.155 95.4602C 110.155 95.2512 109.986 95.0822 109.777 95.0822z" stroke="#E7BC9E" stroke-width="0.25" stroke-linecap="round" fill="none" />
    <path id=""  transform="matrix(1 0 0 -1 0 316)"  d="M107.6959 103.7179C 107.5149 103.61391 107.2839 103.6759 107.1789 103.8569C 107.0749 104.0369 107.1369 104.26791 107.3179 104.3719C 107.4989 104.476906 107.7299 104.4149 107.8339 104.2349C 107.9379 104.0539 107.8769 103.8219 107.6959 103.7179z" stroke="#E7BC9E" stroke-width="0.25" stroke-linecap="round" fill="none" />
    <path id=""  transform="matrix(1 0 0 -1 0 316)"  d="M101.5758 110.1564C 101.4718 109.9754 101.2398 109.91341 101.0588 110.0174C 100.8788 110.122406 100.816795 110.3534 100.9218 110.5344C 101.024796 110.7154 101.2568 110.776405 101.4368 110.6724C 101.6178 110.568405 101.679794 110.3374 101.5758 110.1564z" stroke="#E7BC9E" stroke-width="0.25" stroke-linecap="round" fill="none" />
    <path id=""  transform="matrix(1 0 0 -1 0 316)"  d="M105.0592 107.34C 104.91219 107.19299 104.672195 107.19299 104.5252 107.34C 104.3772 107.487 104.3772 107.727 104.5252 107.87399C 104.672195 108.021996 104.91219 108.021996 105.0592 107.87399C 105.2062 107.727 105.2062 107.487 105.0592 107.34" stroke="none" fill="#E7BC9E" fill-rule="nonzero" />
    <path id=""  transform="matrix(1 0 0 -1 0 316)"  d="M105.0592 107.34C 104.91219 107.19299 104.672195 107.19299 104.5252 107.34C 104.3772 107.487 104.3772 107.727 104.5252 107.87399C 104.672195 108.021996 104.91219 108.021996 105.0592 107.87399C 105.2062 107.727 105.2062 107.487 105.0592 107.34z" stroke="#E7BC9E" stroke-width="0.25" stroke-linecap="round" fill="none" />
    <path id=""  transform="matrix(1 0 0 -1 0 316)"  d="M97.4811 111.9748C 97.4271 111.7738 97.2201 111.6538 97.019104 111.7068C 96.8171 111.7618 96.698105 111.9688 96.752106 112.1698C 96.8051 112.3718 97.0121 112.4918 97.2141 112.4378C 97.4161 112.3838 97.5361 112.1768 97.4811 111.9748" stroke="none" fill="#E7BC9E" fill-rule="nonzero" />
    <path id=""  transform="matrix(1 0 0 -1 0 316)"  d="M97.4811 111.9748C 97.4271 111.7738 97.2201 111.6538 97.019104 111.7068C 96.8171 111.7618 96.698105 111.9688 96.752106 112.1698C 96.8051 112.3718 97.0121 112.4918 97.2141 112.4378C 97.4161 112.3838 97.5361 112.1768 97.4811 111.9748z" stroke="#E7BC9E" stroke-width="0.25" stroke-linecap="round" fill="none" />
    <path id=""  transform="matrix(1 0 0 -1 0 316)"  d="M88.6012 112.1994C 88.6562 111.998405 88.536194 111.791405 88.3342 111.737404C 88.132195 111.6824 87.92519 111.8034 87.8722 112.0044C 87.8172 112.206406 87.937195 112.4134 88.1382 112.4674C 88.340195 112.5204 88.547195 112.401405 88.6012 112.1994" stroke="none" fill="#E7BC9E" fill-rule="nonzero" />
    <path id=""  transform="matrix(1 0 0 -1 0 316)"  d="M88.6012 112.1994C 88.6562 111.998405 88.536194 111.791405 88.3342 111.737404C 88.132195 111.6824 87.92519 111.8034 87.8722 112.0044C 87.8172 112.206406 87.937195 112.4134 88.1382 112.4674C 88.340195 112.5204 88.547195 112.401405 88.6012 112.1994z" stroke="#E7BC9E" stroke-width="0.25" stroke-linecap="round" fill="none" />
    <path id=""  transform="matrix(1 0 0 -1 0 316)"  d="M80.7985 107.9543C 80.9455 107.8073 80.9455 107.5673 80.7985 107.4203C 80.6515 107.2723 80.4115 107.2723 80.2645 107.4203C 80.1165 107.5673 80.1165 107.8073 80.2645 107.9543C 80.4115 108.1013 80.6515 108.1013 80.7985 107.9543" stroke="none" fill="#E7BC9E" fill-rule="nonzero" />
    <path id=""  transform="matrix(1 0 0 -1 0 316)"  d="M80.7985 107.9543C 80.9455 107.8073 80.9455 107.5673 80.7985 107.4203C 80.6515 107.2723 80.4115 107.2723 80.2645 107.4203C 80.1165 107.5673 80.1165 107.8073 80.2645 107.9543C 80.4115 108.1013 80.6515 108.1013 80.7985 107.9543z" stroke="#E7BC9E" stroke-width="0.25" stroke-linecap="round" fill="none" />
    <path id=""  transform="matrix(1 0 0 -1 0 316)"  d="M76.1637 100.3761C 76.36469 100.3221 76.484695 100.1151 76.431694 99.9141C 76.37669 99.7121 76.16969 99.5931 75.9687 99.6471C 75.76669 99.700096 75.6467 99.9071 75.7007 100.1091C 75.7547 100.3111 75.9627 100.4311 76.1637 100.3761" stroke="none" fill="#E7BC9E" fill-rule="nonzero" />
    <path id=""  transform="matrix(1 0 0 -1 0 316)"  d="M76.1637 100.3761C 76.36469 100.3221 76.484695 100.1151 76.431694 99.9141C 76.37669 99.7121 76.16969 99.5931 75.9687 99.6471C 75.76669 99.700096 75.6467 99.9071 75.7007 100.1091C 75.7547 100.3111 75.9627 100.4311 76.1637 100.3761z" stroke="#E7BC9E" stroke-width="0.25" stroke-linecap="round" fill="none" />
    <path id=""  transform="matrix(1 0 0 -1 0 316)"  d="M75.9391 91.4962C 76.1401 91.5512 76.3471 91.4312 76.4021 91.2292C 76.4561 91.0272 76.335106 90.8202 76.1341 90.767204C 75.933105 90.712204 75.725105 90.8322 75.671104 91.0332C 75.6181 91.2352 75.7371 91.4422 75.9391 91.4962" stroke="none" fill="#E7BC9E" fill-rule="nonzero" />
    <path id=""  transform="matrix(1 0 0 -1 0 316)"  d="M75.9391 91.4962C 76.1401 91.5512 76.3471 91.4312 76.4021 91.2292C 76.4561 91.0272 76.335106 90.8202 76.1341 90.767204C 75.933105 90.712204 75.725105 90.8322 75.671104 91.0332C 75.6181 91.2352 75.7371 91.4422 75.9391 91.4962z" stroke="#E7BC9E" stroke-width="0.25" stroke-linecap="round" fill="none" />
    <path id=""  transform="matrix(1 0 0 -1 0 316)"  d="M80.1842 83.6935C 80.3312 83.8405 80.5712 83.8405 80.71819 83.6935C 80.866196 83.54649 80.866196 83.306496 80.71819 83.1595C 80.5712 83.0115 80.3312 83.0115 80.1842 83.1595C 80.03719 83.306496 80.03719 83.54649 80.1842 83.6935" stroke="none" fill="#E7BC9E" fill-rule="nonzero" />
    <path id=""  transform="matrix(1 0 0 -1 0 316)"  d="M80.1842 83.6935C 80.3312 83.8405 80.5712 83.8405 80.71819 83.6935C 80.866196 83.54649 80.866196 83.306496 80.71819 83.1595C 80.5712 83.0115 80.3312 83.0115 80.1842 83.1595C 80.03719 83.306496 80.03719 83.54649 80.1842 83.6935z" stroke="#E7BC9E" stroke-width="0.25" stroke-linecap="round" fill="none" />
    <path id=""  transform="matrix(1 0 0 -1 0 316)"  d="M87.7623 79.0587C 87.8163 79.2597 88.0233 79.3797 88.225296 79.3267C 88.4263 79.2717 88.545296 79.0647 88.491295 78.8637C 88.4383 78.6617 88.2313 78.5417 88.0293 78.5957C 87.8273 78.649704 87.7073 78.857704 87.7623 79.0587" stroke="none" fill="#E7BC9E" fill-rule="nonzero" />
    <path id=""  transform="matrix(1 0 0 -1 0 316)"  d="M87.7623 79.0587C 87.8163 79.2597 88.0233 79.3797 88.225296 79.3267C 88.4263 79.2717 88.545296 79.0647 88.491295 78.8637C 88.4383 78.6617 88.2313 78.5417 88.0293 78.5957C 87.8273 78.649704 87.7073 78.857704 87.7623 79.0587z" stroke="#E7BC9E" stroke-width="0.25" stroke-linecap="round" fill="none" />
    <path id=""  transform="matrix(1 0 0 -1 0 316)"  d="M96.6422 78.8341C 96.588196 79.035095 96.7072 79.242096 96.909195 79.2971C 97.1112 79.3511 97.3182 79.2301 97.37119 79.0291C 97.42619 78.8281 97.3062 78.6201 97.105194 78.5661C 96.9032 78.5131 96.6962 78.632095 96.6422 78.8341" stroke="none" fill="#E7BC9E" fill-rule="nonzero" />
    <path id=""  transform="matrix(1 0 0 -1 0 316)"  d="M96.6422 78.8341C 96.588196 79.035095 96.7072 79.242096 96.909195 79.2971C 97.1112 79.3511 97.3182 79.2301 97.37119 79.0291C 97.42619 78.8281 97.3062 78.6201 97.105194 78.5661C 96.9032 78.5131 96.6962 78.632095 96.6422 78.8341z" stroke="#E7BC9E" stroke-width="0.25" stroke-linecap="round" fill="none" />
    <path id=""  transform="matrix(1 0 0 -1 0 316)"  d="M104.445 83.0793C 104.298 83.2263 104.298 83.4663 104.445 83.6133C 104.592 83.7613 104.832 83.7613 104.979 83.6133C 105.127 83.4663 105.127 83.2263 104.979 83.0793C 104.832 82.9323 104.592 82.9323 104.445 83.0793" stroke="none" fill="#E7BC9E" fill-rule="nonzero" />
    <path id=""  transform="matrix(1 0 0 -1 0 316)"  d="M104.445 83.0793C 104.298 83.2263 104.298 83.4663 104.445 83.6133C 104.592 83.7613 104.832 83.7613 104.979 83.6133C 105.127 83.4663 105.127 83.2263 104.979 83.0793C 104.832 82.9323 104.592 82.9323 104.445 83.0793z" stroke="#E7BC9E" stroke-width="0.25" stroke-linecap="round" fill="none" />
    <path id=""  transform="matrix(1 0 0 -1 0 316)"  d="M109.0797 90.6574C 108.8787 90.7114 108.7587 90.9184 108.8117 91.1204C 108.8667 91.3214 109.0737 91.4404 109.2747 91.3864C 109.4767 91.333405 109.596695 91.1264 109.542694 90.9244C 109.48869 90.722404 109.28069 90.6024 109.0797 90.6574" stroke="none" fill="#E7BC9E" fill-rule="nonzero" />
    <path id=""  transform="matrix(1 0 0 -1 0 316)"  d="M109.0797 90.6574C 108.8787 90.7114 108.7587 90.9184 108.8117 91.1204C 108.8667 91.3214 109.0737 91.4404 109.2747 91.3864C 109.4767 91.333405 109.596695 91.1264 109.542694 90.9244C 109.48869 90.722404 109.28069 90.6024 109.0797 90.6574z" stroke="#E7BC9E" stroke-width="0.25" stroke-linecap="round" fill="none" />
    <path id=""  transform="matrix(1 0 0 -1 0 316)"  d="M109.3043 99.5373C 109.1033 99.4833 108.8963 99.6023 108.8423 99.8043C 108.7873 100.0063 108.908295 100.2133 109.1093 100.2663C 109.3113 100.3213 109.518295 100.2013 109.572296 100.0003C 109.6253 99.7983 109.5063 99.5913 109.3043 99.5373" stroke="none" fill="#E7BC9E" fill-rule="nonzero" />
    <path id=""  transform="matrix(1 0 0 -1 0 316)"  d="M109.3043 99.5373C 109.1033 99.4833 108.8963 99.6023 108.8423 99.8043C 108.7873 100.0063 108.908295 100.2133 109.1093 100.2663C 109.3113 100.3213 109.518295 100.2013 109.572296 100.0003C 109.6253 99.7983 109.5063 99.5913 109.3043 99.5373z" stroke="#E7BC9E" stroke-width="0.25" stroke-linecap="round" fill="none" />
    <path id=""  transform="matrix(1 0 0 -1 0 316)"  d="M108.7555 77.1574C 108.4585 77.2274 107.9445 77.3274 107.3965 77.3274C 106.8765 77.3274 106.3245 77.2384 105.8945 76.9544C 105.5595 76.7334 105.2955 76.484406 105.0985 76.222404C 104.901505 76.484406 104.6375 76.7334 104.3025 76.9544C 103.8715 77.2384 103.3195 77.3274 102.8005 77.3274C 102.2515 77.3274 101.7375 77.2274 101.4415 77.1574C 101.2855 77.1204 101.1825 76.971405 101.2005 76.8094C 101.2645 76.2384 101.5025 74.9364 102.3805 74.3574C 102.6395 74.1864 102.9065 74.056404 103.1715 73.9644C 102.651505 73.5294 102.526505 72.653404 102.498505 72.3424C 102.4925 72.2724 102.5295 72.208405 102.5925 72.181404C 102.7665 72.1054 103.2085 72.0064 103.6745 72.0064C 104.026505 72.0064 104.3915 72.0624 104.6635 72.2284C 104.8405 72.3374 104.9845 72.456406 105.0985 72.583405C 105.2125 72.456406 105.3565 72.3374 105.5325 72.2284C 105.805504 72.0624 106.1705 72.0064 106.5225 72.0064C 106.9875 72.0064 107.430504 72.1054 107.6045 72.181404C 107.666504 72.208405 107.7035 72.2724 107.6975 72.3424C 107.6695 72.653404 107.5445 73.5294 107.0255 73.9644C 107.2895 74.056404 107.5575 74.1864 107.8165 74.3574C 108.693504 74.9364 108.9325 76.2384 108.9955 76.8094C 109.0145 76.971405 108.9105 77.1204 108.7555 77.1574z" stroke="#E7BC9E" stroke-width="0.5" stroke-linecap="round" fill="none" />
    <path id=""  transform="matrix(1 0 0 -1 0 316)"  d="M83.8024 77.1574C 83.5054 77.2274 82.9914 77.3274 82.4434 77.3274C 81.9234 77.3274 81.3714 77.2384 80.9414 76.9544C 80.6064 76.7334 80.3424 76.484406 80.1454 76.222404C 79.948395 76.484406 79.6844 76.7334 79.350395 76.9544C 78.918396 77.2384 78.3664 77.3274 77.8474 77.3274C 77.2984 77.3274 76.7844 77.2274 76.488396 77.1574C 76.3324 77.1204 76.2294 76.971405 76.2474 76.8094C 76.3114 76.2384 76.5494 74.9364 77.4274 74.3574C 77.6864 74.1864 77.9534 74.056404 78.2184 73.9644C 77.698395 73.5294 77.573395 72.653404 77.545395 72.3424C 77.5394 72.2724 77.5764 72.208405 77.6394 72.181404C 77.8134 72.1054 78.2554 72.0064 78.7214 72.0064C 79.073395 72.0064 79.4384 72.0624 79.710396 72.2284C 79.8874 72.3374 80.0314 72.456406 80.1454 72.583405C 80.2594 72.456406 80.4034 72.3374 80.5804 72.2284C 80.8534 72.0624 81.2174 72.0064 81.5694 72.0064C 82.0344 72.0064 82.4774 72.1054 82.6514 72.181404C 82.7134 72.208405 82.7504 72.2724 82.7444 72.3424C 82.7164 72.653404 82.5914 73.5294 82.072395 73.9644C 82.336395 74.056404 82.6044 74.1864 82.863396 74.3574C 83.7404 74.9364 83.9804 76.2384 84.043396 76.8094C 84.0614 76.971405 83.9574 77.1204 83.8024 77.1574z" stroke="#E7BC9E" stroke-width="0.5" stroke-linecap="round" fill="none" />
    <path id=""  transform="matrix(1 0 0 -1 0 316)"  d="M95.6764 127.6164L92.6194 120.2714L92.6194 120.2714L89.5634 127.6164L89.5634 127.6164L92.6194 134.9604L92.6194 134.9604L95.6764 127.6164z" stroke="#E7BC9E" stroke-width="0.75" stroke-linecap="round" fill="none" />
    <path id=""  transform="matrix(1 0 0 -1 0 316)"  d="M92.6198 134.9601L92.6198 120.272095" stroke="#E7BC9E" stroke-width="0.5" stroke-linecap="round" fill="none" />
    <path id=""  transform="matrix(1 0 0 -1 0 316)"  d="M89.5631 127.6164L95.6761 127.6164" stroke="#E7BC9E" stroke-width="0.5" stroke-linecap="round" fill="none" />
    <path id=""  transform="matrix(1 0 0 -1 0 316)"  d="M99.6256 129.6886C 99.6256 129.6886 100.940605 127.6356 99.6256 125.5436" stroke="#E7BC9E" stroke-width="0.5" stroke-linecap="round" fill="none" />
    <path id=""  transform="matrix(1 0 0 -1 0 316)"  d="M101.1012 129.6886C 101.1012 129.6886 102.4172 127.6356 101.1012 125.5436" stroke="#E7BC9E" stroke-width="0.5" stroke-linecap="round" fill="none" />
    <path id=""  transform="matrix(1 0 0 -1 0 316)"  d="M85.111 125.5441C 85.111 125.5441 83.795 127.5971 85.111 129.6891" stroke="#E7BC9E" stroke-width="0.5" stroke-linecap="round" fill="none" />
    <path id=""  transform="matrix(1 0 0 -1 0 316)"  d="M83.6344 125.5441C 83.6344 125.5441 82.3184 127.5971 83.6344 129.6891" stroke="#E7BC9E" stroke-width="0.5" stroke-linecap="round" fill="none" />
    <path id=""  transform="matrix(1 0 0 -1 0 316)"  d="M95.9957 132.8195C 106.248695 131.8975 113.3407 129.9135 113.3407 127.6165C 113.3407 125.317505 106.248695 123.3345 95.9957 122.413506" stroke="#E7BC9E" stroke-width="0.5" fill="none" />
    <path id=""  transform="matrix(1 0 0 -1 0 316)"  d="M89.2438 132.8195C 78.9918 131.8975 71.898796 129.9135 71.898796 127.6165C 71.898796 125.317505 78.9918 123.3345 89.2438 122.413506" stroke="#E7BC9E" stroke-width="0.5" fill="none" />
		</g>
	</g>
</g>
</svg>