<?xml version="1.0" standalone="no"?>
<!DOCTYPE svg PUBLIC "-//W3C//DTD SVG 1.0//EN" "http://www.w3.org/TR/2001/REC-SVG-20010904/DTD/svg10.dtd">
<svg xmlns="http://www.w3.org/2000/svg" xmlns:xlink="http://www.w3.org/1999/xlink" id="body_1" width="247" height="421">

<defs>
    <clipPath  id="1">

    <path id=""  clip-rule="evenodd" transform="matrix(1 0 0 1 0 0)"  d="M0 316L0 0L0 0L185 0L185 0L185 316L185 316L0 316z" />    </clipPath>
    <clipPath  id="2">

    <path id=""  clip-rule="evenodd" transform="matrix(1 0 0 1 0 0)"  d="M0 0L185 0L185 0L185 316L185 316L0 316z" />    </clipPath>
</defs>

<g transform="matrix(1.3333 0 0 1.3333 0 0)">
	<g clip-path="url(#1)" >
		<g clip-path="url(#2)" >
    <path id=""  transform="matrix(1 0 0 -1 0 316)"  d="M98.107 292.1895C 98.107 289.0935 95.596 286.58353 92.501 286.58353C 89.404 286.58353 86.893005 289.0935 86.893005 292.1895C 86.893005 295.2865 89.404 297.7965 92.501 297.7965C 95.596 297.7965 98.107 295.2865 98.107 292.1895z" stroke="#E7BC9E" stroke-width="1" fill="none" />
    <path id=""  transform="matrix(1 0 0 -1 0 316)"  d="M96.3277 292.1895C 96.3277 290.0765 94.6137 288.36252 92.500694 288.36252C 90.386696 288.36252 88.6727 290.0765 88.6727 292.1895C 88.6727 294.30353 90.386696 296.01752 92.500694 296.01752C 94.6137 296.01752 96.3277 294.30353 96.3277 292.1895z" stroke="#E7BC9E" stroke-width="1" fill="none" />
    <path id=""  transform="matrix(1 0 0 -1 0 316)"  d="M92.5006 297.7969L92.5006 296.0179" stroke="#E7BC9E" stroke-width="1" fill="none" />
    <path id=""  transform="matrix(1 0 0 -1 0 316)"  d="M92.5006 288.3623L92.5006 286.5833" stroke="#E7BC9E" stroke-width="1" fill="none" />
    <path id=""  transform="matrix(1 0 0 -1 0 316)"  d="M96.3277 292.1895L98.1067 292.1895" stroke="#E7BC9E" stroke-width="1" fill="none" />
    <path id=""  transform="matrix(1 0 0 -1 0 316)"  d="M88.6725 292.1895L86.8935 292.1895" stroke="#E7BC9E" stroke-width="1" fill="none" />
    <path id=""  transform="matrix(1 0 0 -1 0 316)"  d="M93.318 300.6436C 93.318 299.0716 92.949 297.7966 92.493004 297.7966C 92.038 297.7966 91.669 299.0716 91.669 300.6436C 91.669 302.21558 92.038 303.49057 92.493004 303.49057C 92.949 303.49057 93.318 302.21558 93.318 300.6436z" stroke="#E7BC9E" stroke-width="1" fill="none" />
    <path id=""  transform="matrix(1 0 0 -1 0 316)"  d="M93.318 283.7363C 93.318 282.1643 92.949 280.8883 92.493004 280.8883C 92.038 280.8883 91.669 282.1643 91.669 283.7363C 91.669 285.3083 92.038 286.58328 92.493004 286.58328C 92.949 286.58328 93.318 285.3083 93.318 283.7363z" stroke="#E7BC9E" stroke-width="1" fill="none" />
    <path id=""  transform="matrix(1 0 0 -1 0 316)"  d="M100.9469 291.3652C 99.3749 291.3652 98.0989 291.7342 98.0989 292.1892C 98.0989 292.6452 99.3749 293.0142 100.9469 293.0142C 102.5189 293.0142 103.7939 292.6452 103.7939 292.1892C 103.7939 291.7342 102.5189 291.3652 100.9469 291.3652z" stroke="#E7BC9E" stroke-width="1" fill="none" />
    <path id=""  transform="matrix(1 0 0 -1 0 316)"  d="M84.0396 291.3652C 82.4666 291.3652 81.1916 291.7342 81.1916 292.1892C 81.1916 292.6452 82.4666 293.0142 84.0396 293.0142C 85.611595 293.0142 86.8866 292.6452 86.8866 292.1892C 86.8866 291.7342 85.611595 291.3652 84.0396 291.3652z" stroke="#E7BC9E" stroke-width="1" fill="none" />
    <path id=""  transform="matrix(1 0 0 -1 0 316)"  d="M93.0055 78.6045C 93.0055 77.6265 92.776505 76.833496 92.4925 76.833496C 92.2095 76.833496 91.9805 77.6265 91.9805 78.6045C 91.9805 79.5825 92.2095 80.3755 92.4925 80.3755C 92.776505 80.3755 93.0055 79.5825 93.0055 78.6045z" stroke="#E7BC9E" stroke-width="0.5" fill="none" />
    <path id=""  transform="matrix(1 0 0 -1 0 316)"  d="M93.0055 71.3779C 93.0055 70.3989 92.776505 69.606895 92.4925 69.606895C 92.2095 69.606895 91.9805 70.3989 91.9805 71.3779C 91.9805 72.355896 92.2095 73.147896 92.4925 73.147896C 92.776505 73.147896 93.0055 72.355896 93.0055 71.3779z" stroke="#E7BC9E" stroke-width="0.5" fill="none" />
    <path id=""  transform="matrix(1 0 0 -1 0 316)"  d="M96.107 74.4785C 95.128006 74.4785 94.336 74.7075 94.336 74.9915C 94.336 75.2745 95.128006 75.5035 96.107 75.5035C 97.085 75.5035 97.877 75.2745 97.877 74.9915C 97.877 74.7075 97.085 74.4785 96.107 74.4785z" stroke="#E7BC9E" stroke-width="0.5" fill="none" />
    <path id=""  transform="matrix(1 0 0 -1 0 316)"  d="M88.8795 74.4785C 87.901505 74.4785 87.1085 74.7075 87.1085 74.9915C 87.1085 75.2745 87.901505 75.5035 88.8795 75.5035C 89.8575 75.5035 90.650505 75.2745 90.650505 74.9915C 90.650505 74.7075 89.8575 74.4785 88.8795 74.4785z" stroke="#E7BC9E" stroke-width="0.5" fill="none" />
    <path id=""  transform="matrix(1 0 0 -1 0 316)"  d="M95.4107 77.1836C 94.719696 76.4926 93.9967 76.094604 93.7967 76.2946C 93.596695 76.4956 93.9947 77.2176 94.6847 77.9096C 95.3767 78.6006 96.0997 78.997604 96.3007 78.7976C 96.500694 78.5976 96.1017 77.8746 95.4107 77.1836" stroke="none" fill="#E7BC9E" fill-rule="nonzero" />
    <path id=""  transform="matrix(1 0 0 -1 0 316)"  d="M95.4107 77.1836C 94.719696 76.4926 93.9967 76.094604 93.7967 76.2946C 93.596695 76.4956 93.9947 77.2176 94.6847 77.9096C 95.3767 78.6006 96.0997 78.997604 96.3007 78.7976C 96.500694 78.5976 96.1017 77.8746 95.4107 77.1836z" stroke="#E7BC9E" stroke-width="0.5" fill="none" />
    <path id=""  transform="matrix(1 0 0 -1 0 316)"  d="M90.3004 72.0732C 89.6094 71.382195 88.8864 70.9842 88.6864 71.1842C 88.4864 71.38519 88.8844 72.10719 89.5754 72.799194C 90.2664 73.4902 90.9894 73.8872 91.1904 73.687195C 91.390396 73.4872 90.9914 72.7642 90.3004 72.0732" stroke="none" fill="#E7BC9E" fill-rule="nonzero" />
    <path id=""  transform="matrix(1 0 0 -1 0 316)"  d="M90.3004 72.0732C 89.6094 71.382195 88.8864 70.9842 88.6864 71.1842C 88.4864 71.38519 88.8844 72.10719 89.5754 72.799194C 90.2664 73.4902 90.9894 73.8872 91.1904 73.687195C 91.390396 73.4872 90.9914 72.7642 90.3004 72.0732z" stroke="#E7BC9E" stroke-width="0.5" fill="none" />
    <path id=""  transform="matrix(1 0 0 -1 0 316)"  d="M94.6852 72.0732C 93.9952 72.7642 93.59621 73.4872 93.7962 73.687195C 93.9972 73.8872 94.7192 73.4902 95.4112 72.799194C 96.1022 72.10719 96.500206 71.38519 96.3002 71.1842C 96.100204 70.9842 95.376205 71.382195 94.6852 72.0732" stroke="none" fill="#E7BC9E" fill-rule="nonzero" />
    <path id=""  transform="matrix(1 0 0 -1 0 316)"  d="M94.6852 72.0732C 93.9952 72.7642 93.59621 73.4872 93.7962 73.687195C 93.9972 73.8872 94.7192 73.4902 95.4112 72.799194C 96.1022 72.10719 96.500206 71.38519 96.3002 71.1842C 96.100204 70.9842 95.376205 71.382195 94.6852 72.0732z" stroke="#E7BC9E" stroke-width="0.5" fill="none" />
    <path id=""  transform="matrix(1 0 0 -1 0 316)"  d="M89.5758 77.1836C 88.884796 77.8746 88.4858 78.5976 88.6858 78.7976C 88.886795 78.997604 89.608795 78.6006 90.3008 77.9096C 90.9918 77.2176 91.3898 76.4956 91.1898 76.2946C 90.9898 76.094604 90.2658 76.4926 89.5758 77.1836" stroke="none" fill="#E7BC9E" fill-rule="nonzero" />
    <path id=""  transform="matrix(1 0 0 -1 0 316)"  d="M89.5758 77.1836C 88.884796 77.8746 88.4858 78.5976 88.6858 78.7976C 88.886795 78.997604 89.608795 78.6006 90.3008 77.9096C 90.9918 77.2176 91.3898 76.4956 91.1898 76.2946C 90.9898 76.094604 90.2658 76.4926 89.5758 77.1836z" stroke="#E7BC9E" stroke-width="0.5" fill="none" />
    <path id=""  transform="matrix(1 0 0 -1 0 316)"  d="M85.7047 298.9854L86.622696 298.0674" stroke="#E7BC9E" stroke-width="1" stroke-linecap="round" fill="none" />
    <path id=""  transform="matrix(1 0 0 -1 0 316)"  d="M85.7047 285.3945L86.622696 286.3125" stroke="#E7BC9E" stroke-width="1" stroke-linecap="round" fill="none" />
    <path id=""  transform="matrix(1 0 0 -1 0 316)"  d="M99.2955 285.3945L98.3775 286.3125" stroke="#E7BC9E" stroke-width="1" stroke-linecap="round" fill="none" />
    <path id=""  transform="matrix(1 0 0 -1 0 316)"  d="M99.2955 298.9854L98.3775 298.0674" stroke="#E7BC9E" stroke-width="1" stroke-linecap="round" fill="none" />
    <path id=""  transform="matrix(1 0 0 -1 0 316)"  d="M90.0943 46.8799L92.4913 61.717903L92.4913 61.717903L94.892296 46.8799L94.892296 46.8799L92.4913 39.580902L92.4913 39.580902L90.0943 46.8799z" stroke="#E7BC9E" stroke-width="0.75" stroke-linecap="round" fill="none" />
    <path id=""  transform="matrix(1 0 0 -1 0 316)"  d="M93.0602 65.791C 93.0602 65.478 92.806206 65.224 92.4932 65.224C 92.18021 65.224 91.9262 65.478 91.9262 65.791C 91.9262 66.103 92.18021 66.357 92.4932 66.357C 92.806206 66.357 93.0602 66.103 93.0602 65.791z" stroke="#E7BC9E" stroke-width="0.75" stroke-linecap="round" fill="none" />
    <path id=""  transform="matrix(1 0 0 -1 0 316)"  d="M81.606 33.9268L84.003006 61.7178L84.003006 61.7178L86.404 33.9268L86.404 33.9268L84.003006 20.257801L84.003006 20.257801L81.606 33.9268z" stroke="#E7BC9E" stroke-width="0.75" stroke-linecap="round" fill="none" />
    <path id=""  transform="matrix(1 0 0 -1 0 316)"  d="M85.3795 65.791C 85.3795 65.031 84.7645 64.416 84.0045 64.416C 83.2455 64.416 82.6295 65.031 82.6295 65.791C 82.6295 66.55 83.2455 67.166 84.0045 67.166C 84.7645 67.166 85.3795 66.55 85.3795 65.791z" stroke="#E7BC9E" stroke-width="0.75" stroke-linecap="round" fill="none" />
    <path id=""  transform="matrix(1 0 0 -1 0 316)"  d="M98.5826 33.9268L100.97961 61.7178L100.97961 61.7178L103.3806 33.9268L103.3806 33.9268L100.97961 20.257801L100.97961 20.257801L98.5826 33.9268z" stroke="#E7BC9E" stroke-width="0.75" stroke-linecap="round" fill="none" />
    <path id=""  transform="matrix(1 0 0 -1 0 316)"  d="M102.356 65.791C 102.356 65.031 101.741005 64.416 100.981 64.416C 100.222 64.416 99.606 65.031 99.606 65.791C 99.606 66.55 100.222 67.166 100.981 67.166C 101.741005 67.166 102.356 66.55 102.356 65.791z" stroke="#E7BC9E" stroke-width="0.75" stroke-linecap="round" fill="none" />
    <path id=""  transform="matrix(1 0 0 -1 0 316)"  d="M85.3795 135.3486C 85.3795 134.5896 84.7645 133.9736 84.0045 133.9736C 83.2455 133.9736 82.6295 134.5896 82.6295 135.3486C 82.6295 136.1086 83.2455 136.7236 84.0045 136.7236C 84.7645 136.7236 85.3795 136.1086 85.3795 135.3486z" stroke="#E7BC9E" stroke-width="0.75" stroke-linecap="round" fill="none" />
    <path id=""  transform="matrix(1 0 0 -1 0 316)"  d="M102.356 135.3486C 102.356 134.5896 101.741005 133.9736 100.981 133.9736C 100.222 133.9736 99.606 134.5896 99.606 135.3486C 99.606 136.1086 100.222 136.7236 100.981 136.7236C 101.741005 136.7236 102.356 136.1086 102.356 135.3486z" stroke="#E7BC9E" stroke-width="0.75" stroke-linecap="round" fill="none" />
    <path id=""  transform="matrix(1 0 0 -1 0 316)"  d="M100.3141 103.0859C 100.3141 98.7669 96.8121 95.2659 92.4931 95.2659C 88.1731 95.2659 84.672104 98.7669 84.672104 103.0859C 84.672104 107.4049 88.1731 110.9069 92.4931 110.9069C 96.8121 110.9069 100.3141 107.4049 100.3141 103.0859z" stroke="#E7BC9E" stroke-width="0.75" fill="none" />
    <path id=""  transform="matrix(1 0 0 -1 0 316)"  d="M98.7857 103.0859C 98.7857 99.6109 95.9687 96.7939 92.4927 96.7939C 89.0177 96.7939 86.2007 99.6109 86.2007 103.0859C 86.2007 106.5619 89.0177 109.3789 92.4927 109.3789C 95.9687 109.3789 98.7857 106.5619 98.7857 103.0859z" stroke="#E7BC9E" stroke-width="0.75" fill="none" />
    <path id=""  transform="matrix(1 0 0 -1 0 316)"  d="M109.8414 103.0859C 109.8414 93.5049 102.0734 85.7379 92.4924 85.7379C 82.9114 85.7379 75.1444 93.5049 75.1444 103.0859C 75.1444 112.6679 82.9114 120.4349 92.4924 120.4349C 102.0734 120.4349 109.8414 112.6679 109.8414 103.0859z" stroke="#E7BC9E" stroke-width="0.75" fill="none" />
    <path id=""  transform="matrix(1 0 0 -1 0 316)"  d="M112.273 103.0859C 112.273 92.161896 103.417 83.3069 92.493004 83.3069C 81.569 83.3069 72.713 92.161896 72.713 103.0859C 72.713 114.0109 81.569 122.8659 92.493004 122.8659C 103.417 122.8659 112.273 114.0109 112.273 103.0859z" stroke="#E7BC9E" stroke-width="0.5" fill="none" />
    <path id=""  transform="matrix(1 0 0 -1 0 316)"  d="M92.4928 120.4346L92.4928 110.9076" stroke="#E7BC9E" stroke-width="0.75" fill="none" />
    <path id=""  transform="matrix(1 0 0 -1 0 316)"  d="M86.5592 119.3887L89.8182 110.4357" stroke="#E7BC9E" stroke-width="0.75" fill="none" />
    <path id=""  transform="matrix(1 0 0 -1 0 316)"  d="M81.3414 116.376L87.4664 109.076996" stroke="#E7BC9E" stroke-width="0.75" fill="none" />
    <path id=""  transform="matrix(1 0 0 -1 0 316)"  d="M78.109 111.3906L86.008 106.829605" stroke="#E7BC9E" stroke-width="0.75" fill="none" />
    <path id=""  transform="matrix(1 0 0 -1 0 316)"  d="M75.4078 106.0986L84.7918 104.4446" stroke="#E7BC9E" stroke-width="0.75" fill="none" />
    <path id=""  transform="matrix(1 0 0 -1 0 316)"  d="M75.4078 100.0742L84.7918 101.7282" stroke="#E7BC9E" stroke-width="0.75" fill="none" />
    <path id=""  transform="matrix(1 0 0 -1 0 316)"  d="M77.4693 94.4121L85.7203 99.1761" stroke="#E7BC9E" stroke-width="0.75" fill="none" />
    <path id=""  transform="matrix(1 0 0 -1 0 316)"  d="M81.3414 89.7969L87.4664 97.0959" stroke="#E7BC9E" stroke-width="0.75" fill="none" />
    <path id=""  transform="matrix(1 0 0 -1 0 316)"  d="M86.5592 86.7842L89.8182 95.737206" stroke="#E7BC9E" stroke-width="0.75" fill="none" />
    <path id=""  transform="matrix(1 0 0 -1 0 316)"  d="M92.4928 85.7383L92.4928 95.2653" stroke="#E7BC9E" stroke-width="0.75" fill="none" />
    <path id=""  transform="matrix(1 0 0 -1 0 316)"  d="M98.4264 86.7842L95.1674 95.737206" stroke="#E7BC9E" stroke-width="0.75" fill="none" />
    <path id=""  transform="matrix(1 0 0 -1 0 316)"  d="M103.6441 89.7969L97.520096 97.0959" stroke="#E7BC9E" stroke-width="0.75" fill="none" />
    <path id=""  transform="matrix(1 0 0 -1 0 316)"  d="M107.5172 94.4121L99.2662 99.1761" stroke="#E7BC9E" stroke-width="0.75" fill="none" />
    <path id=""  transform="matrix(1 0 0 -1 0 316)"  d="M109.5777 100.0742L100.194695 101.7282" stroke="#E7BC9E" stroke-width="0.75" fill="none" />
    <path id=""  transform="matrix(1 0 0 -1 0 316)"  d="M109.5777 106.0986L100.194695 104.4446" stroke="#E7BC9E" stroke-width="0.75" fill="none" />
    <path id=""  transform="matrix(1 0 0 -1 0 316)"  d="M107.5172 111.7607L99.2662 106.9967" stroke="#E7BC9E" stroke-width="0.75" fill="none" />
    <path id=""  transform="matrix(1 0 0 -1 0 316)"  d="M103.6441 116.376L97.520096 109.076996" stroke="#E7BC9E" stroke-width="0.75" fill="none" />
    <path id=""  transform="matrix(1 0 0 -1 0 316)"  d="M98.4264 119.3887L95.1674 110.4357" stroke="#E7BC9E" stroke-width="0.75" fill="none" />
    <path id=""  transform="matrix(1 0 0 -1 0 316)"  d="M86.5592 119.3887C 86.5592 119.3887 89.9482 116.662704 92.493195 120.4347" stroke="#E7BC9E" stroke-width="0.75" fill="none" />
    <path id=""  transform="matrix(1 0 0 -1 0 316)"  d="M98.4264 119.3887C 98.4264 119.3887 95.0384 116.662704 92.4924 120.4347" stroke="#E7BC9E" stroke-width="0.75" fill="none" />
    <path id=""  transform="matrix(1 0 0 -1 0 316)"  d="M77.4693 111.7607C 77.4693 111.7607 81.8163 111.85069 81.3413 116.375694" stroke="#E7BC9E" stroke-width="0.75" fill="none" />
    <path id=""  transform="matrix(1 0 0 -1 0 316)"  d="M86.5592 119.3887C 86.5592 119.3887 85.716194 115.1227 81.341194 116.3757" stroke="#E7BC9E" stroke-width="0.75" fill="none" />
    <path id=""  transform="matrix(1 0 0 -1 0 316)"  d="M75.4078 100.0742C 75.4078 100.0742 78.6798 102.9362 75.4078 106.098206" stroke="#E7BC9E" stroke-width="0.75" fill="none" />
    <path id=""  transform="matrix(1 0 0 -1 0 316)"  d="M77.4693 111.7607C 77.4693 111.7607 79.5643 107.9507 75.4073 106.098694" stroke="#E7BC9E" stroke-width="0.75" fill="none" />
    <path id=""  transform="matrix(1 0 0 -1 0 316)"  d="M81.3414 89.7969C 81.3414 89.7969 82.0084 94.093895 77.4694 94.411896" stroke="#E7BC9E" stroke-width="0.75" fill="none" />
    <path id=""  transform="matrix(1 0 0 -1 0 316)"  d="M75.4078 100.0742C 75.4078 100.0742 79.4628 98.502205 77.469795 94.4122" stroke="#E7BC9E" stroke-width="0.75" fill="none" />
    <path id=""  transform="matrix(1 0 0 -1 0 316)"  d="M92.4928 85.7383C 92.4928 85.7383 90.2418 89.4583 86.5588 86.784294" stroke="#E7BC9E" stroke-width="0.75" fill="none" />
    <path id=""  transform="matrix(1 0 0 -1 0 316)"  d="M81.3414 89.7969C 81.3414 89.7969 85.4574 91.1989 86.5594 86.7839" stroke="#E7BC9E" stroke-width="0.75" fill="none" />
    <path id=""  transform="matrix(1 0 0 -1 0 316)"  d="M103.6441 89.7969C 103.6441 89.7969 99.5291 91.1989 98.426094 86.7839" stroke="#E7BC9E" stroke-width="0.75" fill="none" />
    <path id=""  transform="matrix(1 0 0 -1 0 316)"  d="M92.4928 85.7383C 92.4928 85.7383 94.7448 89.4583 98.426796 86.784294" stroke="#E7BC9E" stroke-width="0.75" fill="none" />
    <path id=""  transform="matrix(1 0 0 -1 0 316)"  d="M109.5777 100.0742C 109.5777 100.0742 105.5237 98.502205 107.5167 94.4122" stroke="#E7BC9E" stroke-width="0.75" fill="none" />
    <path id=""  transform="matrix(1 0 0 -1 0 316)"  d="M103.6441 89.7969C 103.6441 89.7969 102.978096 94.093895 107.5171 94.411896" stroke="#E7BC9E" stroke-width="0.75" fill="none" />
    <path id=""  transform="matrix(1 0 0 -1 0 316)"  d="M107.5172 111.7607C 107.5172 111.7607 105.421196 107.9507 109.57819 106.098694" stroke="#E7BC9E" stroke-width="0.75" fill="none" />
    <path id=""  transform="matrix(1 0 0 -1 0 316)"  d="M109.5777 100.0742C 109.5777 100.0742 106.305695 102.9362 109.5777 106.098206" stroke="#E7BC9E" stroke-width="0.75" fill="none" />
    <path id=""  transform="matrix(1 0 0 -1 0 316)"  d="M98.4264 119.3887C 98.4264 119.3887 99.2704 115.1227 103.6444 116.3757" stroke="#E7BC9E" stroke-width="0.75" fill="none" />
    <path id=""  transform="matrix(1 0 0 -1 0 316)"  d="M107.5172 111.7607C 107.5172 111.7607 103.1702 111.85069 103.644196 116.375694" stroke="#E7BC9E" stroke-width="0.75" fill="none" />
    <path id=""  transform="matrix(1 0 0 -1 0 316)"  d="M95.7652 137.2461C 95.7652 137.71509 95.257195 137.98509 94.3712 137.98509C 94.325195 137.98509 94.2902 137.9751 94.2452 137.9751C 94.2792 138.0051 94.312195 138.0181 94.3442 138.0521C 94.9672 138.67409 95.1372 139.2231 94.8062 139.5591C 94.4722 139.8931 93.9262 139.7271 93.298195 139.0981C 93.2662 139.06409 93.2522 139.0311 93.2212 138.9991C 93.2232 139.04309 93.2322 139.0761 93.2322 139.1231C 93.2322 140.00809 92.9622 140.51709 92.493195 140.51709C 92.0242 140.51709 91.754196 140.00809 91.754196 139.1231C 91.754196 139.07909 91.7622 139.04909 91.7632 139.0071C 91.7352 139.0381 91.7182 139.0651 91.687195 139.0981C 91.061195 139.72209 90.5112 139.89209 90.1782 139.55809C 89.8472 139.2251 90.0162 138.67409 90.6422 138.0521C 90.6642 138.0291 90.6972 138.0011 90.7232 137.9751C 90.6842 137.97609 90.6552 137.98509 90.6142 137.98509C 89.729195 137.98509 89.2212 137.71509 89.2212 137.2461C 89.2212 136.7741 89.729195 136.5051 90.6142 136.5051C 90.658195 136.5051 90.688194 136.5141 90.730194 136.51509C 90.700195 136.4861 90.672195 136.4711 90.6422 136.4401C 90.4062 136.20409 90.0122 135.7491 90.0142 135.3431C 90.0142 135.18309 90.074196 135.0381 90.1772 134.9361C 90.1772 134.9361 90.8212 134.36609 91.687195 135.39409C 91.715195 135.4291 91.7352 135.45409 91.7642 135.48509C 91.7622 135.4421 91.754196 135.41109 91.754196 135.3671C 91.754196 134.4811 92.0242 133.97409 92.493195 133.97409C 92.9622 133.97409 93.2322 134.4811 93.2322 135.3671C 93.2322 135.4081 93.2242 135.43709 93.2232 135.47609C 93.2472 135.45009 93.2762 135.4171 93.298195 135.39409C 93.533195 135.1601 93.9842 134.76709 94.3922 134.76709L94.3922 134.76709L94.394196 134.76709L94.394196 134.76709L94.6672 134.7941L94.6672 134.7941L94.8062 134.93309C 95.1372 135.2641 94.9682 135.81209 94.3442 136.4401C 94.3142 136.4711 94.2862 136.4861 94.256195 136.51509C 94.297195 136.5141 94.3282 136.5051 94.3712 136.5051C 95.257195 136.5051 95.7652 136.7741 95.7652 137.2461" stroke="none" fill="#E7BC9E" fill-rule="nonzero" />
    <path id=""  transform="matrix(1 0 0 -1 0 316)"  d="M98.7867 103.0879C 98.7867 103.9909 97.8097 104.509895 96.1067 104.509895C 96.0157 104.509895 95.9517 104.4919 95.8647 104.4889C 95.928696 104.5489 95.9917 104.5749 96.054695 104.6379C 97.25169 105.8349 97.5787 106.8909 96.942696 107.537895C 96.2997 108.1809 95.250694 107.8609 94.042694 106.649895C 93.9797 106.5869 93.9537 106.523895 93.8947 106.4589C 93.8967 106.5449 93.914696 106.6089 93.914696 106.6989C 93.914696 108.4009 93.3957 109.3789 92.4927 109.3789C 91.5907 109.3789 91.0717 108.4009 91.0717 106.6989C 91.0717 106.6149 91.0877 106.5559 91.0907 106.4759C 91.0347 106.5339 91.0037 106.5889 90.943695 106.649895C 89.73869 107.8509 88.6817 108.1779 88.039696 107.5339C 87.403694 106.8949 87.7287 105.8349 88.93269 104.6379C 88.9747 104.594894 89.0387 104.5399 89.0897 104.4919C 89.013695 104.4939 88.957695 104.509895 88.8787 104.509895C 87.1767 104.509895 86.1987 103.9909 86.1987 103.0879C 86.1987 102.1819 87.1767 101.662895 88.8787 101.662895C 88.9627 101.662895 89.0217 101.6789 89.1017 101.6819C 89.0447 101.6269 88.9907 101.5969 88.93269 101.537895C 88.4787 101.0839 87.722694 100.2089 87.7247 99.427895C 87.7247 99.121895 87.8397 98.8409 88.0377 98.6459C 88.0377 98.6459 89.275696 97.5489 90.943695 99.5269C 90.998695 99.591896 91.0347 99.6419 91.0907 99.7009C 91.0877 99.6189 91.0717 99.5589 91.0717 99.4739C 91.0717 97.7719 91.5907 96.7939 92.4927 96.7939C 93.3957 96.7939 93.914696 97.7719 93.914696 99.4739C 93.914696 99.552895 93.8987 99.6089 93.8967 99.6839C 93.944695 99.633896 93.999695 99.5699 94.042694 99.5269C 94.4937 99.0749 95.360695 98.3179 96.1457 98.3179L96.1457 98.3179L96.1497 98.3179L96.1497 98.3179L96.6767 98.371895L96.6767 98.371895L96.942696 98.6389C 97.5787 99.274895 97.2557 100.329895 96.054695 101.537895C 95.9957 101.5969 95.941696 101.6269 95.8847 101.6819C 95.9647 101.6789 96.0237 101.662895 96.1067 101.662895C 97.8097 101.662895 98.7867 102.1819 98.7867 103.0879z" stroke="#E7BC9E" stroke-width="0.75" stroke-linecap="round" fill="none" />
    <path id=""  transform="matrix(1 0 0 -1 0 316)"  d="M88.1158 129.0488C 88.1158 127.0698 87.6508 125.4648 87.0778 125.4648C 86.5048 125.4648 86.0398 127.0698 86.0398 129.0488C 86.0398 131.0278 86.5048 132.6328 87.0778 132.6328C 87.6508 132.6328 88.1158 131.0278 88.1158 129.0488z" stroke="#E7BC9E" stroke-width="0.75" fill="none" />
    <path id=""  transform="matrix(1 0 0 -1 0 316)"  d="M93.5309 129.0488C 93.5309 127.0698 93.0659 125.4648 92.4929 125.4648C 91.9199 125.4648 91.4549 127.0698 91.4549 129.0488C 91.4549 131.0278 91.9199 132.6328 92.4929 132.6328C 93.0659 132.6328 93.5309 131.0278 93.5309 129.0488z" stroke="#E7BC9E" stroke-width="0.75" fill="none" />
    <path id=""  transform="matrix(1 0 0 -1 0 316)"  d="M98.9459 129.0488C 98.9459 127.0698 98.4809 125.4648 97.9079 125.4648C 97.3349 125.4648 96.8699 127.0698 96.8699 129.0488C 96.8699 131.0278 97.3349 132.6328 97.9079 132.6328C 98.4809 132.6328 98.9459 131.0278 98.9459 129.0488z" stroke="#E7BC9E" stroke-width="0.75" fill="none" />
		</g>
	</g>
</g>
</svg>