<?xml version="1.0" standalone="no"?>
<!DOCTYPE svg PUBLIC "-//W3C//DTD SVG 1.0//EN" "http://www.w3.org/TR/2001/REC-SVG-20010904/DTD/svg10.dtd">
<svg xmlns="http://www.w3.org/2000/svg" xmlns:xlink="http://www.w3.org/1999/xlink" id="body_2" width="247" height="421">

<defs>
    <clipPath  id="1">

    <path id=""  clip-rule="evenodd" transform="matrix(1 0 0 1 0 0)"  d="M0 316L0 0L0 0L185 0L185 0L185 316L185 316L0 316z" />    </clipPath>
    <clipPath  id="2">

    <path id=""  clip-rule="evenodd" transform="matrix(1 0 0 1 0 0)"  d="M0 0L185 0L185 0L185 316L185 316L0 316z" />    </clipPath>
    <clipPath  id="3">

    <path id=""  clip-rule="evenodd" transform="matrix(1 0 0 1 0 0)"  d="M77.81 211.817L107.19 211.817L107.19 211.817L107.19 239.19629L107.19 239.19629L77.81 239.19629z" />    </clipPath>
</defs>

<g transform="matrix(1.3333 0 0 1.3333 0 0)">
	<g clip-path="url(#1)" >
		<g clip-path="url(#2)" >
			<g>
				<g clip-path="url(#3)" >
    <path id=""  transform="matrix(1 0 0 -1 0 316)"  d="M92.5004 100.124L92.5004 95.195L92.5004 95.195L87.2904 104.059L87.2904 104.059L90.04739 95.632L90.04739 95.632L77.935394 93.669L77.935394 93.669L90.04739 91.925L90.04739 91.925L84.379395 82.695L84.379395 82.695L91.155396 89.84L91.155396 89.84L92.5004 76.929" stroke="#E7BC9E" stroke-width="0.25" stroke-linecap="round" fill="none" stroke-opacity="0.49803922" />
    <path id=""  transform="matrix(1 0 0 -1 0 316)"  d="M81.8988 103.0029L90.04681 95.6319L90.04681 95.6319L78.6828 99.2559" stroke="#E7BC9E" stroke-width="0.25" stroke-linecap="round" fill="none" stroke-opacity="0.49803922" />
    <path id=""  transform="matrix(1 0 0 -1 0 316)"  d="M79.0101 89.874L90.047104 91.925L90.047104 91.925L84.4881 88.573" stroke="#E7BC9E" stroke-width="0.25" stroke-linecap="round" fill="none" stroke-opacity="0.49803922" />
    <path id=""  transform="matrix(1 0 0 -1 0 316)"  d="M87.6117 79.9609L91.1557 89.8399L91.1557 89.8399L92.5007 93.4869L92.5007 93.4869L90.0477 91.9249" stroke="#E7BC9E" stroke-width="0.25" stroke-linecap="round" fill="none" stroke-opacity="0.49803922" />
    <path id=""  transform="matrix(1 0 0 -1 0 316)"  d="M90.0472 95.6318L92.500206 93.4868L92.500206 93.4868L92.500206 95.1948" stroke="#E7BC9E" stroke-width="0.25" stroke-linecap="round" fill="none" stroke-opacity="0.49803922" />
    <path id=""  transform="matrix(1 0 0 -1 0 316)"  d="M92.5004 100.124L92.5004 95.195L92.5004 95.195L97.7094 104.059L97.7094 104.059L94.9524 95.632L94.9524 95.632L107.0644 93.669L107.0644 93.669L94.9524 91.925L94.9524 91.925L100.6204 82.695L100.6204 82.695L93.8454 89.84L93.8454 89.84L92.5004 76.929" stroke="#E7BC9E" stroke-width="0.25" stroke-linecap="round" fill="none" stroke-opacity="0.49803922" />
    <path id=""  transform="matrix(1 0 0 -1 0 316)"  d="M103.1009 103.0029L94.952896 95.6319L94.952896 95.6319L106.3179 99.2559" stroke="#E7BC9E" stroke-width="0.25" stroke-linecap="round" fill="none" stroke-opacity="0.49803922" />
    <path id=""  transform="matrix(1 0 0 -1 0 316)"  d="M105.9896 89.874L94.9526 91.925L94.9526 91.925L100.5126 88.573" stroke="#E7BC9E" stroke-width="0.25" stroke-linecap="round" fill="none" stroke-opacity="0.49803922" />
    <path id=""  transform="matrix(1 0 0 -1 0 316)"  d="M97.389 79.9609L93.845 89.8399L93.845 89.8399L92.5 93.4869L92.5 93.4869L94.952 91.9249" stroke="#E7BC9E" stroke-width="0.25" stroke-linecap="round" fill="none" stroke-opacity="0.49803922" />
    <path id=""  transform="matrix(1 0 0 -1 0 316)"  d="M94.9525 95.6318L92.500496 93.4868L92.500496 93.4868L92.500496 95.1948" stroke="#E7BC9E" stroke-width="0.25" stroke-linecap="round" fill="none" stroke-opacity="0.49803922" />
				</g>
			</g>
    <path id=""  transform="matrix(1 0 0 -1 0 316)"  d="M92.5023 101.1904C 92.4333 101.1904 92.3723 101.2004 92.31329 101.2194C 92.2523 101.2504 92.1923 101.280396 92.143295 101.3304C 92.103294 101.3794 92.06329 101.4294 92.0423 101.4904C 92.0133 101.5494 92.0023 101.6204 92.0023 101.6904C 92.0023 101.8204 92.0533 101.9404 92.143295 102.0404C 92.3323 102.2194 92.6623 102.2304 92.853294 102.0404C 92.9423 101.9404 93.0023 101.8204 93.0023 101.6904C 93.0023 101.6204 92.992294 101.5494 92.963295 101.4904C 92.9423 101.4294 92.9023 101.3794 92.853294 101.3304C 92.7633 101.2404 92.63329 101.1904 92.5023 101.1904z" stroke="#E7BC9E" stroke-width="0.5" fill="none" />
    <path id=""  transform="matrix(1 0 0 -1 0 316)"  d="M92.54379 75.5784L92.5348 75.5784C 92.2578 75.5784 92.0348 75.8014 92.0348 76.0784C 92.0348 76.3544 92.2578 76.5784 92.5348 76.5784C 92.8108 76.5784 93.039795 76.3544 93.039795 76.0784C 93.039795 75.8014 92.82079 75.5784 92.54379 75.5784zM90.6868 76.2844C 90.5928 76.2844 90.498795 76.310394 90.414795 76.3674L90.414795 76.3674L90.40579 76.3734C 90.1758 76.5264 90.1138 76.8374 90.2668 77.0664C 90.4208 77.2964 90.732796 77.3564 90.9608 77.2054C 91.1898 77.0514 91.2558 76.7384 91.1038 76.5084C 91.0058 76.3634 90.84779 76.2844 90.6868 76.2844zM94.37579 76.3254C 94.2138 76.3254 94.05579 76.4034 93.95979 76.5474C 93.80579 76.7774 93.8688 77.0874 94.09779 77.241394C 94.3258 77.3944 94.64079 77.3354 94.7958 77.1054C 94.9488 76.876396 94.89079 76.5684 94.6618 76.4154L94.6618 76.4154L94.652794 76.4094C 94.567795 76.3524 94.470795 76.3254 94.37579 76.3254zM89.0508 77.3844C 88.940796 77.3844 88.8288 77.4164 88.735794 77.4784C 88.70879 77.4974 88.6748 77.5234 88.651794 77.5464C 88.456795 77.7424 88.456795 78.058395 88.651794 78.2534C 88.846794 78.4494 89.163795 78.4494 89.358795 78.2534C 89.5878 78.1004 89.6168 77.8184 89.4628 77.588394C 89.372795 77.4524 89.2128 77.3844 89.0508 77.3844zM96.0508 77.4404C 95.9228 77.4404 95.7948 77.489395 95.6978 77.5874C 95.5028 77.782394 95.5028 78.0984 95.6978 78.2944C 95.720795 78.3174 95.7538 78.3434 95.7818 78.3624C 96.011795 78.5164 96.32179 78.4534 96.47479 78.2234C 96.622795 78.002396 96.56979 77.7044 96.357796 77.545395C 96.2678 77.4754 96.1598 77.4404 96.0508 77.4404zM87.41879 78.560394C 87.3078 78.560394 87.19579 78.5914 87.1028 78.654396C 87.0758 78.6724 87.04279 78.6994 87.0188 78.7224C 86.8238 78.918396 86.8238 79.2344 87.0188 79.4294C 87.2138 79.6254 87.53079 79.6254 87.7258 79.4294C 87.955795 79.2764 87.983795 78.9944 87.830795 78.7644C 87.7398 78.6284 87.580795 78.560394 87.41879 78.560394zM97.68179 78.6174C 97.553795 78.6174 97.4258 78.6664 97.3288 78.7634C 97.1328 78.9594 97.1328 79.2754 97.3288 79.4704C 97.3518 79.4944 97.384796 79.5204 97.412796 79.5394C 97.6418 79.6934 97.9528 79.6284 98.1058 79.4004C 98.2528 79.1784 98.2008 78.8804 97.9898 78.7224C 97.898796 78.6524 97.790794 78.6174 97.68179 78.6174zM85.7958 79.8154C 85.7018 79.8154 85.6048 79.8424 85.5198 79.8994C 85.4648 79.935394 85.4098 79.9904 85.373795 80.045395C 85.219795 80.2744 85.2828 80.5854 85.511795 80.7384C 85.704796 80.8674 85.95979 80.8444 86.1268 80.6924C 86.3128 80.529396 86.3538 80.2504 86.2128 80.0384C 86.1168 79.8934 85.95879 79.8154 85.7958 79.8154zM99.260796 79.8634C 99.165794 79.8634 99.068794 79.890396 98.983795 79.9474C 98.7538 80.1004 98.691795 80.4114 98.844795 80.640396C 98.8808 80.6954 98.9368 80.7504 98.9918 80.7864C 99.220795 80.9404 99.5308 80.876396 99.6848 80.6474C 99.8258 80.435394 99.7848 80.1564 99.59779 79.9934C 99.5038 79.9084 99.3828 79.8634 99.260796 79.8634zM84.274796 81.1304C 84.179794 81.1304 84.08379 81.1584 83.998795 81.2144C 83.943794 81.251396 83.887794 81.3054 83.8518 81.3604C 83.6988 81.5894 83.760796 81.9004 83.9908 82.0534C 84.18379 82.1824 84.4378 82.1604 84.6048 82.0064C 84.791794 81.8444 84.832794 81.5644 84.691795 81.3534C 84.594795 81.2094 84.4368 81.1304 84.274796 81.1304zM100.7808 81.1814C 100.6848 81.1814 100.5878 81.2094 100.5028 81.265396C 100.273796 81.4194 100.2108 81.7294 100.3648 81.9594C 100.400795 82.0134 100.456795 82.0684 100.510796 82.1044C 100.7408 82.2594 101.0508 82.1944 101.204796 81.9654C 101.344795 81.754395 101.303795 81.474396 101.1178 81.3114C 101.023796 81.226395 100.902794 81.1814 100.7808 81.1814zM82.8228 82.530396C 82.69679 82.530396 82.5708 82.5784 82.4738 82.6744L82.4738 82.6744L82.4668 82.6814C 82.2718 82.877396 82.2718 83.1934 82.4668 83.3884C 82.662796 83.5844 82.9788 83.5844 83.1738 83.3884C 83.3698 83.1934 83.372795 82.8734 83.177795 82.6774C 83.079796 82.5804 82.9508 82.530396 82.8228 82.530396zM102.2258 82.5824C 102.09779 82.5824 101.969795 82.6304 101.872795 82.7284C 101.676796 82.9234 101.676796 83.2404 101.872795 83.435394C 102.068794 83.6304 102.386795 83.6334 102.58379 83.4394C 102.777794 83.2444 102.7818 82.9304 102.5858 82.7354L102.5858 82.7354L102.579796 82.7284C 102.4818 82.6304 102.3538 82.5824 102.2258 82.5824zM81.47279 84.015396C 81.332794 84.015396 81.193794 84.0754 81.095795 84.1864C 80.9458 84.3524 80.9198 84.6054 81.0498 84.8004C 81.204796 85.0314 81.5148 85.0914 81.7438 84.9394C 81.7978 84.9034 81.8528 84.8474 81.888794 84.793396C 82.0428 84.5634 81.9798 84.2534 81.75079 84.099396C 81.665794 84.043396 81.568794 84.015396 81.47279 84.015396zM103.5758 84.0744C 103.414795 84.0744 103.2558 84.1524 103.1598 84.2964C 103.02979 84.4924 103.054794 84.7454 103.205795 84.9114C 103.3698 85.0984 103.649796 85.1374 103.859795 84.9984C 104.0888 84.8444 104.151794 84.5344 103.998795 84.3044C 103.9618 84.2504 103.9078 84.1944 103.8528 84.1584C 103.7678 84.101395 103.6708 84.0744 103.5758 84.0744zM80.234795 85.6004C 80.082794 85.6004 79.93179 85.670395 79.83479 85.8004C 79.68079 85.9974 79.69479 86.2814 79.87579 86.4624C 80.0708 86.657394 80.386795 86.657394 80.582794 86.4624C 80.6058 86.4384 80.6318 86.405396 80.650795 86.3784C 80.803795 86.1484 80.7418 85.8374 80.511795 85.6844C 80.426796 85.6284 80.330795 85.6004 80.234795 85.6004zM104.8098 85.6634C 104.68179 85.6634 104.553795 85.7124 104.456795 85.8094C 104.260796 86.004395 104.260796 86.321396 104.456795 86.5164C 104.608795 86.7474 104.8918 86.7754 105.121796 86.6214C 105.3508 86.4674 105.384796 86.1234 105.2318 85.8934C 105.2128 85.866394 105.1868 85.8334 105.163795 85.8094C 105.065796 85.7124 104.9378 85.6634 104.8098 85.6634zM79.135796 87.2864C 78.97479 87.2864 78.816795 87.364395 78.719795 87.5084C 78.6958 87.545395 78.6708 87.5944 78.6568 87.6364C 78.56979 87.8984 78.7108 88.1814 78.97279 88.2694C 79.20879 88.349396 79.4608 88.2424 79.5728 88.029396C 79.6988 87.8034 79.6308 87.515396 79.413795 87.3704C 79.3278 87.3134 79.2318 87.2864 79.135796 87.2864zM105.90379 87.351395C 105.8508 87.351395 105.7978 87.3594 105.7458 87.377396C 105.483795 87.4644 105.3418 87.7484 105.428795 88.0094C 105.443794 88.0514 105.4678 88.1004 105.4928 88.1374C 105.6468 88.3684 105.955795 88.4274 106.1858 88.2764C 106.4048 88.1304 106.470795 87.8424 106.344795 87.6174C 106.2578 87.4524 106.0858 87.351395 105.90379 87.351395zM78.2138 89.0744C 78.0198 89.0744 77.8378 89.1884 77.7568 89.3724C 77.6548 89.5924 77.72479 89.8604 77.9328 89.9994C 78.1608 90.1514 78.471794 90.0914 78.6268 89.8604C 78.650795 89.823395 78.6738 89.7744 78.6888 89.7324C 78.775795 89.4704 78.6338 89.1874 78.372795 89.099396C 78.31979 89.0834 78.2668 89.0744 78.2138 89.0744zM106.816795 89.1434C 106.720795 89.1434 106.624794 89.170395 106.539795 89.2274C 106.331795 89.3664 106.260796 89.6334 106.36279 89.8534C 106.4658 90.0874 106.732796 90.2044 106.9788 90.127396C 107.2408 90.0394 107.3818 89.7554 107.2948 89.4944C 107.2808 89.4524 107.2568 89.4034 107.232796 89.3664C 107.135796 89.2214 106.9778 89.1434 106.816795 89.1434zM77.5198 90.9654C 77.3108 90.9654 77.1188 91.0954 77.0488 91.3034C 77.0448 91.3164 77.038795 91.3374 77.0358 91.3504C 76.968796 91.6184 77.1308 91.8894 77.399796 91.9574C 77.662796 92.0244 77.9398 91.8614 78.0058 91.5924C 78.0708 91.3324 77.9198 91.0614 77.662796 90.9864C 77.61479 90.9724 77.566795 90.9654 77.5198 90.9654zM107.9758 91.3854L107.985794 91.3854L107.985794 91.3854L107.9758 91.3854zM77.1048 92.9284C 76.844795 92.9284 76.6308 93.1284 76.6068 93.3814C 76.5788 93.627396 76.735794 93.8624 76.982796 93.9234C 77.246796 93.989395 77.5228 93.8284 77.5888 93.5594C 77.5988 93.5204 77.6048 93.4694 77.6048 93.4284C 77.6048 93.1524 77.3808 92.9284 77.1048 92.9284zM107.9048 93.0034C 107.8648 93.0034 107.8248 93.0074 107.7838 93.017395C 107.5368 93.0794 107.3788 93.3144 107.4078 93.5594C 107.43179 93.8134 107.6458 94.0124 107.9058 94.0124C 108.18179 94.0124 108.4058 93.7894 108.4058 93.5124C 108.4058 93.4714 108.399796 93.420395 108.38979 93.3814C 108.33379 93.154396 108.1288 93.0034 107.9048 93.0034zM107.4908 91.0344C 107.4508 91.0344 107.4108 91.0394 107.3698 91.0484C 107.122795 91.1104 106.9648 91.3454 106.9938 91.5904C 107.0178 91.8444 107.2318 92.0444 107.4918 92.0444C 107.7678 92.0444 107.9918 91.8204 107.9918 91.5444C 107.9918 91.5034 107.985794 91.4524 107.9758 91.4134C 107.91879 91.1854 107.7148 91.0344 107.4908 91.0344zM76.9908 94.9414C 76.7138 94.9414 76.4908 95.1604 76.4908 95.4364L76.4908 95.4364L76.4908 95.446396C 76.4908 95.7224 76.7138 95.946396 76.9908 95.946396C 77.2668 95.946396 77.4908 95.7224 77.4908 95.446396C 77.4908 95.170395 77.2668 94.9414 76.9908 94.9414zM108.0088 95.0104C 107.732796 95.0104 107.5088 95.2344 107.5088 95.5104C 107.5088 95.7874 107.732796 96.015396 108.0088 96.015396C 108.2858 96.015396 108.5088 95.7964 108.5088 95.5204L108.5088 95.5204L108.5088 95.5104C 108.5088 95.2344 108.2858 95.0104 108.0088 95.0104zM77.1988 96.9344C 77.1458 96.9344 77.0928 96.9424 77.040794 96.960396C 76.7978 97.0414 76.6588 97.2904 76.70879 97.5344C 76.7518 97.767395 76.955795 97.9444 77.2008 97.9444C 77.4768 97.9444 77.7008 97.7204 77.7008 97.4444C 77.7008 97.390396 77.6898 97.3274 77.6728 97.2764C 77.6028 97.0674 77.4078 96.9344 77.1988 96.9344zM107.788795 97.0074C 107.54379 97.0074 107.3388 97.1844 107.2958 97.418396C 107.246796 97.6624 107.385796 97.9114 107.6278 97.9924C 107.89079 98.0794 108.1728 97.9374 108.260796 97.6754C 108.277794 97.6254 108.288795 97.5614 108.288795 97.5074C 108.288795 97.2314 108.0648 97.0074 107.788795 97.0074zM77.774796 98.8604C 77.721794 98.8604 77.66879 98.8694 77.6168 98.8854C 77.3548 98.9734 77.2128 99.2564 77.2998 99.5184C 77.3148 99.5604 77.3378 99.6094 77.36279 99.6464C 77.5168 99.877396 77.8278 99.9374 78.05579 99.7854C 78.263794 99.6464 78.33479 99.3784 78.232796 99.1594C 78.151794 98.974396 77.968796 98.8604 77.774796 98.8604zM107.2038 98.9294C 107.04279 98.9294 106.8838 99.0074 106.787796 99.1524C 106.762794 99.1894 106.7398 99.238396 106.72479 99.280396C 106.637794 99.5424 106.7798 99.8254 107.041794 99.9134C 107.288795 99.9914 107.553795 99.8744 107.6568 99.640396C 107.7588 99.420395 107.6888 99.1524 107.4808 99.0134C 107.3958 98.9574 107.2988 98.9294 107.2038 98.9294zM78.7278 100.5784C 78.62779 100.5784 78.523796 100.6104 78.428795 100.6734C 78.1998 100.8274 78.165794 101.1714 78.318794 101.4014C 78.33679 101.4284 78.3638 101.461395 78.386795 101.4854C 78.582794 101.6804 78.898796 101.6804 79.093796 101.4854C 79.289795 101.2904 79.289795 100.9734 79.093796 100.7784C 79.0038 100.6434 78.8698 100.5784 78.7278 100.5784zM106.234795 100.6884C 106.1068 100.6884 105.9788 100.7374 105.8808 100.835396C 105.857796 100.8584 105.831795 100.891396 105.8128 100.919395C 105.6598 101.1484 105.721794 101.4594 105.9518 101.6124C 106.1718 101.7584 106.471794 101.7094 106.6288 101.4954C 106.7828 101.2984 106.7688 101.015396 106.5878 100.835396C 106.4908 100.7374 106.36279 100.6884 106.234795 100.6884zM80.04379 102.155396C 79.915794 102.155396 79.788795 102.2034 79.690796 102.2994C 79.496796 102.4954 79.4928 102.808395 79.6878 103.003395L79.6878 103.003395L79.69479 103.0104C 79.8898 103.2064 80.206795 103.2064 80.401794 103.0104C 80.596794 102.8154 80.596794 102.4994 80.401794 102.3034C 80.302795 102.2054 80.1728 102.155396 80.04379 102.155396zM104.91779 102.2034C 104.7948 102.2034 104.6728 102.2484 104.580795 102.3344C 104.3938 102.4964 104.3528 102.7764 104.4938 102.9874C 104.6458 103.2164 104.956795 103.280396 105.1868 103.126396C 105.2418 103.0894 105.2968 103.0354 105.33379 102.9804C 105.48679 102.751396 105.4238 102.4404 105.19479 102.2874C 105.109795 102.2304 105.012794 102.2034 104.91779 102.2034zM93.8668 102.6484C 93.704796 102.6484 93.5458 102.7264 93.4498 102.8714C 93.3088 103.0834 93.34979 103.3624 93.5368 103.5254C 93.704796 103.6754 93.957794 103.6994 94.150795 103.571396C 94.3798 103.418396 94.442795 103.1074 94.289795 102.878395C 94.2528 102.8234 94.1978 102.7684 94.1428 102.7324C 94.0578 102.6754 93.9608 102.6484 93.8668 102.6484zM91.0858 102.6934C 90.9628 102.6934 90.8418 102.738396 90.748795 102.8244C 90.5618 102.9864 90.5208 103.266396 90.6618 103.4774C 90.8138 103.7074 91.124794 103.7704 91.3548 103.6164C 91.4098 103.5804 91.4648 103.5254 91.5018 103.4704C 91.6548 103.2414 91.5918 102.9304 91.36279 102.7774C 91.277794 102.7204 91.18079 102.6934 91.0858 102.6934zM81.6548 103.3454C 81.4928 103.3454 81.33479 103.4234 81.23779 103.5684C 81.08479 103.7984 81.1468 104.1084 81.3768 104.2614C 81.413795 104.2864 81.46179 104.3104 81.5038 104.3254C 81.76579 104.4134 82.0488 104.2704 82.136795 104.0084C 82.2148 103.7734 82.108795 103.5214 81.8968 103.4094C 81.8208 103.3664 81.7368 103.3454 81.6548 103.3454zM103.291794 103.3824C 103.2388 103.3824 103.1858 103.390396 103.1328 103.4084C 103.0908 103.4224 103.04279 103.447395 103.0048 103.4714C 102.775795 103.6254 102.7128 103.9344 102.8668 104.1654C 103.011795 104.3814 103.2998 104.4514 103.525795 104.3244C 103.73779 104.211395 103.843796 103.960396 103.76579 103.724396C 103.69579 103.515396 103.50079 103.3824 103.291794 103.3824zM95.5318 103.765396C 95.3228 103.765396 95.1278 103.8984 95.05679 104.1074C 94.97479 104.3544 95.095795 104.6204 95.329796 104.7224C 95.5498 104.8284 95.817795 104.7554 95.956795 104.5464C 96.109795 104.3174 96.0468 104.0064 95.817795 103.8534C 95.7808 103.8294 95.7318 103.8054 95.6898 103.7914C 95.636795 103.7734 95.58479 103.765396 95.5318 103.765396zM89.4088 103.7964C 89.3368 103.7964 89.26479 103.8114 89.1988 103.8424C 88.9638 103.946396 88.8428 104.211395 88.9248 104.4594C 89.013794 104.7204 89.2978 104.8604 89.5578 104.7754C 89.59979 104.7604 89.648796 104.7374 89.6858 104.7124C 89.915794 104.5594 89.9778 104.2494 89.8248 104.0194C 89.7278 103.8754 89.56979 103.7964 89.4088 103.7964zM83.5068 104.140396C 83.288795 104.140396 83.0858 104.2824 83.0228 104.4994C 82.9478 104.7574 83.0858 105.0274 83.3398 105.1124C 83.3528 105.1164 83.374794 105.1234 83.386795 105.126396C 83.648796 105.1924 83.9258 105.030396 83.9938 104.7614C 84.0598 104.4944 83.8978 104.2224 83.6288 104.155396C 83.5878 104.1454 83.5468 104.140396 83.5068 104.140396zM97.442795 104.3754C 97.233795 104.3754 97.038795 104.5074 96.9678 104.7164C 96.8808 104.9784 97.0228 105.2614 97.2848 105.349396C 97.5928 105.4524 97.9518 105.2074 97.9528 104.877396C 97.9528 104.6314 97.775795 104.4274 97.54279 104.3844C 97.5088 104.378395 97.4758 104.3754 97.442795 104.3754zM87.4928 104.3864C 87.4388 104.3864 87.37579 104.3974 87.3248 104.4144C 87.0628 104.502396 86.9208 104.7854 87.0078 105.0464C 87.0888 105.2894 87.3388 105.4304 87.582794 105.378395C 87.815796 105.336395 87.9928 105.1314 87.9928 104.8864C 87.9928 104.6104 87.7688 104.3864 87.4928 104.3864zM85.4768 104.4814C 85.2008 104.4814 84.9768 104.7054 84.9768 104.9814C 84.9768 105.2424 85.1758 105.4564 85.429794 105.4794C 85.679794 105.5054 85.9108 105.349396 85.971794 105.1034C 86.038795 104.836395 85.8768 104.5644 85.607796 104.4974C 85.568794 104.4874 85.5178 104.4814 85.4768 104.4814zM99.45879 104.4834C 99.4398 104.4834 99.4208 104.4844 99.401794 104.4864C 99.1478 104.5104 98.9488 104.724396 98.9488 104.9844C 98.9488 105.3014 99.276794 105.544395 99.579796 105.4684C 99.84779 105.4014 100.009796 105.1294 99.943794 104.8624C 99.886795 104.6344 99.6828 104.4834 99.45879 104.4834zM101.4398 104.1494C 101.4208 104.1494 101.402794 104.1504 101.3828 104.1524C 101.1288 104.1764 100.929794 104.390396 100.929794 104.6504C 100.929794 104.9674 101.2578 105.210396 101.5608 105.1344C 101.829796 105.0674 101.9918 104.7954 101.9248 104.5284C 101.8688 104.3004 101.664795 104.1494 101.4398 104.1494z" stroke="#E7BC9E" stroke-width="0.5" fill="none" />
    <path id=""  transform="matrix(1 0 0 -1 0 316)"  d="M92.5004 75.2275C 92.10439 75.2275 91.70039 75.318504 91.265396 75.5035C 90.960396 75.6335 90.6774 75.7835 90.42239 75.9475C 87.559395 77.7535 85.0384 79.6965 82.9454 81.7105C 80.8064 83.7735 79.130394 85.9365 77.96439 88.1415C 76.752396 90.4335 76.1374 92.7975 76.1374 95.1675C 76.1374 97.1965 76.57539 99.0365 77.4404 100.6345C 78.3154 102.248505 79.516396 103.5335 81.0094 104.4515C 82.515396 105.3785 84.225395 105.8495 86.0914 105.8495C 87.9004 105.8495 89.505394 105.3745 90.8584 104.4395C 91.4574 104.0255 92.00639 103.5475 92.502396 103.011505C 93.005394 103.5555 93.56139 104.0375 94.1654 104.4515C 95.518394 105.3785 97.114395 105.8495 98.90939 105.8495C 100.7734 105.8495 102.4864 105.3785 103.9994 104.4525C 105.501396 103.5335 106.7034 102.2475 107.5704 100.6305C 108.4294 99.0325 108.863396 97.1945 108.863396 95.1675C 108.863396 92.7975 108.2484 90.4335 107.0354 88.1415C 105.8694 85.9355 104.1934 83.7725 102.0544 81.7115C 99.96539 79.6995 97.4444 77.7565 94.5634 75.9375C 94.363396 75.7965 94.06239 75.6355 93.72939 75.4975C 93.2924 75.3165 92.890396 75.2275 92.5004 75.2275z" stroke="#E7BC9E" stroke-width="0.5" fill="none" />
    <path id=""  transform="matrix(1 0 0 -1 0 316)"  d="M91.932 77.0684C 91.714 77.1624 91.519 77.2634 91.345 77.376396C 88.55 79.1394 86.144 80.9934 84.125 82.9374C 82.107 84.880394 80.555 86.88139 79.468 88.9364C 78.381 90.9924 77.837 93.0694 77.837 95.168396C 77.837 96.920395 78.204 98.4714 78.937 99.8264C 79.669 101.1794 80.658 102.238396 81.899 103.003395C 83.141 103.766396 84.538 104.1484 86.090996 104.1484C 87.557 104.1484 88.824 103.7784 89.892 103.0404C 90.96 102.3004 91.829 101.3294 92.5 100.1244C 93.183 101.34039 94.059 102.3164 95.127 103.0484C 96.196 103.782394 97.455 104.1484 98.909996 104.1484C 100.461 104.1484 101.862 103.766396 103.111 103.003395C 104.359 102.238396 105.346 101.1794 106.073 99.8264C 106.798996 98.4714 107.162 96.920395 107.162 95.168396C 107.162 93.0694 106.619995 90.9924 105.533 88.9364C 104.446 86.88139 102.893 84.880394 100.874 82.9374C 98.857 80.9934 96.45 79.1394 93.656 77.376396C 93.493996 77.2634 93.301 77.1624 93.078 77.0684C 92.854 76.975395 92.660995 76.9284 92.5 76.9284C 92.338 76.9284 92.149 76.975395 91.932 77.0684z" stroke="#E7BC9E" stroke-width="0.5" fill="none" />
    <path id=""  transform="matrix(1 0 0 -1 0 316)"  d="M97.389 79.9609L94.952 82.6049L94.952 82.6049L92.5 84.3489L92.5 84.3489L95.770996 86.855896L95.770996 86.855896L100.349 92.7419L100.349 92.7419L101.821 96.9939L101.821 96.9939L101.821 99.7199L101.821 99.7199L92.5 96.9939L92.5 96.9939L92.5 100.1239L92.5 100.1239L101.821 96.9939" stroke="#E7BC9E" stroke-width="0.25" fill="none" />
    <path id=""  transform="matrix(1 0 0 -1 0 316)"  d="M92.5004 76.9287L94.9524 82.604706L94.9524 82.604706L95.77139 86.855705L95.77139 86.855705L100.5134 88.5737L100.5134 88.5737L105.989395 89.8737L105.989395 89.8737L103.4564 94.732704L103.4564 94.732704L106.3174 99.25571L106.3174 99.25571L101.8204 99.7197L101.8204 99.7197L103.1104 103.0027" stroke="#E7BC9E" stroke-width="0.25" fill="none" />
    <path id=""  transform="matrix(1 0 0 -1 0 316)"  d="M101.8207 96.9941L103.4567 94.7321L103.4567 94.7321L107.064705 93.669106" stroke="#E7BC9E" stroke-width="0.25" fill="none" />
    <path id=""  transform="matrix(1 0 0 -1 0 316)"  d="M103.4564 94.7324L100.349396 92.7424L100.349396 92.7424L100.5134 88.5734L100.5134 88.5734L103.7834 86.1474" stroke="#E7BC9E" stroke-width="0.25" fill="none" />
    <path id=""  transform="matrix(1 0 0 -1 0 316)"  d="M94.9525 82.6045L100.6205 82.6955L100.6205 82.6955L100.5135 88.5735" stroke="#E7BC9E" stroke-width="0.25" fill="none" />
    <path id=""  transform="matrix(1 0 0 -1 0 316)"  d="M101.8207 99.7197L97.7097 104.0587L97.7097 104.0587L92.5007 100.1237" stroke="#E7BC9E" stroke-width="0.25" fill="none" />
    <path id=""  transform="matrix(1 0 0 -1 0 316)"  d="M92.5004 100.124L83.1794 96.994" stroke="#E7BC9E" stroke-width="0.25" fill="none" />
    <path id=""  transform="matrix(1 0 0 -1 0 316)"  d="M92.5004 96.9941L83.1794 99.7201L83.1794 99.7201L83.1794 96.9941L83.1794 96.9941L84.6504 92.7421L84.6504 92.7421L89.2294 86.8551L89.2294 86.8551L92.5004 84.3481L92.5004 84.3481L90.04739 82.6041L90.04739 82.6041L87.6114 79.961105" stroke="#E7BC9E" stroke-width="0.25" fill="none" />
    <path id=""  transform="matrix(1 0 0 -1 0 316)"  d="M92.5004 76.9287L90.04739 82.604706L90.04739 82.604706L89.2294 86.855705L89.2294 86.855705L84.4874 88.5737L84.4874 88.5737L79.0104 89.8737L79.0104 89.8737L81.544395 94.732704L81.544395 94.732704L78.683395 99.25571L78.683395 99.25571L83.1794 99.7197L83.1794 99.7197L81.890396 103.0027" stroke="#E7BC9E" stroke-width="0.25" fill="none" />
    <path id=""  transform="matrix(1 0 0 -1 0 316)"  d="M83.1791 96.9941L81.5441 94.7321L81.5441 94.7321L77.9351 93.669106" stroke="#E7BC9E" stroke-width="0.25" fill="none" />
    <path id=""  transform="matrix(1 0 0 -1 0 316)"  d="M81.5443 94.7324L84.6503 92.7424L84.6503 92.7424L84.4873 88.5734L84.4873 88.5734L81.21729 86.1474" stroke="#E7BC9E" stroke-width="0.25" fill="none" />
    <path id=""  transform="matrix(1 0 0 -1 0 316)"  d="M90.0472 82.6045L84.3792 82.6955L84.3792 82.6955L84.487206 88.5735" stroke="#E7BC9E" stroke-width="0.25" fill="none" />
    <path id=""  transform="matrix(1 0 0 -1 0 316)"  d="M83.1791 99.7197L87.2901 104.0587L87.2901 104.0587L92.5001 100.1237" stroke="#E7BC9E" stroke-width="0.25" fill="none" />
    <path id=""  transform="matrix(1 0 0 -1 0 316)"  d="M94.1683 286.3691C 94.1683 285.4431 93.4183 284.6931 92.492294 284.6931C 91.5673 284.6931 90.8173 285.4431 90.8173 286.3691C 90.8173 287.2951 91.5673 288.0451 92.492294 288.0451C 93.4183 288.0451 94.1683 287.2951 94.1683 286.3691z" stroke="#E7BC9E" stroke-width="0.5" stroke-linecap="round" fill="none" />
    <path id=""  transform="matrix(1 0 0 -1 0 316)"  d="M92.9408 288.4932C 92.9408 288.2452 92.74081 288.0452 92.492805 288.0452C 92.245804 288.0452 92.0448 288.2452 92.0448 288.4932C 92.0448 288.7402 92.245804 288.9412 92.492805 288.9412C 92.74081 288.9412 92.9408 288.7402 92.9408 288.4932z" stroke="#E7BC9E" stroke-width="0.3" stroke-linecap="round" fill="none" />
    <path id=""  transform="matrix(1 0 0 -1 0 316)"  d="M91.8197 288.4326C 91.9427 288.2176 91.869705 287.94458 91.6557 287.8206C 91.440704 287.6966 91.1667 287.7706 91.0437 287.9846C 90.9197 288.1996 90.9927 288.4726 91.2077 288.5966C 91.4217 288.72058 91.6957 288.64658 91.8197 288.4326z" stroke="#E7BC9E" stroke-width="0.3" stroke-linecap="round" fill="none" />
    <path id=""  transform="matrix(1 0 0 -1 0 316)"  d="M90.8783 287.8193C 91.0923 287.6953 91.165306 287.4223 91.041306 287.2073C 90.918304 286.99332 90.6443 286.9193 90.430305 287.0433C 90.2153 287.1673 90.1423 287.4403 90.266304 287.6553C 90.389305 287.8693 90.66331 287.9433 90.8783 287.8193z" stroke="#E7BC9E" stroke-width="0.3" stroke-linecap="round" fill="none" />
    <path id=""  transform="matrix(1 0 0 -1 0 316)"  d="M90.3695 286.8174C 90.6165 286.8174 90.8175 286.6174 90.8175 286.36942C 90.8175 286.1224 90.6165 285.92142 90.3695 285.92142C 90.1215 285.92142 89.9215 286.1224 89.9215 286.36942C 89.9215 286.6174 90.1215 286.8174 90.3695 286.8174z" stroke="#E7BC9E" stroke-width="0.3" stroke-linecap="round" fill="none" />
    <path id=""  transform="matrix(1 0 0 -1 0 316)"  d="M90.43 285.6953C 90.644 285.8193 90.918 285.7463 91.041 285.5313C 91.165 285.31732 91.092 285.0433 90.878 284.9193C 90.663 284.79633 90.389 284.86932 90.266 285.0833C 90.142 285.2983 90.215004 285.57132 90.43 285.6953z" stroke="#E7BC9E" stroke-width="0.3" stroke-linecap="round" fill="none" />
    <path id=""  transform="matrix(1 0 0 -1 0 316)"  d="M91.0433 284.7539C 91.1663 284.9689 91.4403 285.0419 91.6553 284.9179C 91.86929 284.7939 91.9423 284.5209 91.8193 284.3059C 91.6953 284.09192 91.421295 284.01892 91.2073 284.1419C 90.992294 284.2659 90.9193 284.53992 91.0433 284.7539z" stroke="#E7BC9E" stroke-width="0.3" stroke-linecap="round" fill="none" />
    <path id=""  transform="matrix(1 0 0 -1 0 316)"  d="M92.0453 284.2451C 92.0453 284.49307 92.2453 284.69308 92.4923 284.69308C 92.7403 284.69308 92.94131 284.49307 92.94131 284.2451C 92.94131 283.99808 92.7403 283.7971 92.4923 283.7971C 92.2453 283.7971 92.0453 283.99808 92.0453 284.2451z" stroke="#E7BC9E" stroke-width="0.3" stroke-linecap="round" fill="none" />
    <path id=""  transform="matrix(1 0 0 -1 0 316)"  d="M92.0453 282.7256C 92.0453 282.9726 92.2453 283.17258 92.4923 283.17258C 92.7403 283.17258 92.94131 282.9726 92.94131 282.7256C 92.94131 282.4776 92.7403 282.2776 92.4923 282.2776C 92.2453 282.2776 92.0453 282.4776 92.0453 282.7256z" stroke="#E7BC9E" stroke-width="0.3" stroke-linecap="round" fill="none" />
    <path id=""  transform="matrix(1 0 0 -1 0 316)"  d="M92.0453 281.2051C 92.0453 281.45212 92.2453 281.6531 92.4923 281.6531C 92.7403 281.6531 92.94131 281.45212 92.94131 281.2051C 92.94131 280.95712 92.7403 280.7571 92.4923 280.7571C 92.2453 280.7571 92.0453 280.95712 92.0453 281.2051z" stroke="#E7BC9E" stroke-width="0.3" stroke-linecap="round" fill="none" />
    <path id=""  transform="matrix(1 0 0 -1 0 316)"  d="M93.1664 284.3057C 93.043396 284.5207 93.116394 284.7937 93.3304 284.9177C 93.545395 285.0417 93.8194 284.9687 93.9424 284.7537C 94.0664 284.5397 93.9934 284.2657 93.7784 284.1417C 93.5644 284.0187 93.2904 284.0917 93.1664 284.3057z" stroke="#E7BC9E" stroke-width="0.3" stroke-linecap="round" fill="none" />
    <path id=""  transform="matrix(1 0 0 -1 0 316)"  d="M94.1078 284.9189C 93.89381 285.0429 93.8208 285.31693 93.9438 285.5309C 94.0678 285.7459 94.341805 285.8189 94.5558 285.69492C 94.770805 285.57092 94.8438 285.2979 94.7198 285.08292C 94.5968 284.86893 94.3228 284.79593 94.1078 284.9189z" stroke="#E7BC9E" stroke-width="0.3" stroke-linecap="round" fill="none" />
    <path id=""  transform="matrix(1 0 0 -1 0 316)"  d="M94.6166 285.9209C 94.3696 285.9209 94.1686 286.1219 94.1686 286.3689C 94.1686 286.6169 94.3696 286.8169 94.6166 286.8169C 94.8646 286.8169 95.0646 286.6169 95.0646 286.3689C 95.0646 286.1219 94.8646 285.9209 94.6166 285.9209z" stroke="#E7BC9E" stroke-width="0.3" stroke-linecap="round" fill="none" />
    <path id=""  transform="matrix(1 0 0 -1 0 316)"  d="M94.556 287.043C 94.342 286.919 94.068 286.993 93.944 287.207C 93.821 287.422 93.894 287.695 94.108 287.819C 94.323 287.943 94.597 287.869 94.72 287.655C 94.844 287.44 94.770996 287.167 94.556 287.043z" stroke="#E7BC9E" stroke-width="0.3" stroke-linecap="round" fill="none" />
    <path id=""  transform="matrix(1 0 0 -1 0 316)"  d="M93.9427 287.9844C 93.8197 287.77042 93.5457 287.6964 93.3307 287.8204C 93.11671 287.9444 93.0437 288.2174 93.1667 288.4324C 93.2907 288.6464 93.564705 288.7204 93.7787 288.5964C 93.993706 288.4724 94.0667 288.1994 93.9427 287.9844z" stroke="#E7BC9E" stroke-width="0.3" stroke-linecap="round" fill="none" />
    <path id=""  transform="matrix(1 0 0 -1 0 316)"  d="M80.4554 286.4766L88.7214 286.4766" stroke="#E7BC9E" stroke-width="0.5" fill="none" />
    <path id=""  transform="matrix(1 0 0 -1 0 316)"  d="M96.264 286.4766L104.531 286.4766" stroke="#E7BC9E" stroke-width="0.5" fill="none" />
    <path id=""  transform="matrix(1 0 0 -1 0 316)"  d="M95.7591 288.3633L102.0371 291.9873" stroke="#E7BC9E" stroke-width="0.5" fill="none" />
    <path id=""  transform="matrix(1 0 0 -1 0 316)"  d="M94.3783 289.7432L99.1713 298.0442" stroke="#E7BC9E" stroke-width="0.5" fill="none" />
    <path id=""  transform="matrix(1 0 0 -1 0 316)"  d="M90.6068 289.7432L85.8148 298.0442" stroke="#E7BC9E" stroke-width="0.5" fill="none" />
    <path id=""  transform="matrix(1 0 0 -1 0 316)"  d="M89.2269 288.3633L82.9479 291.9873" stroke="#E7BC9E" stroke-width="0.5" fill="none" />
    <path id=""  transform="matrix(1 0 0 -1 0 316)"  d="M96.264 286.4766L104.531 286.4766" stroke="#E7BC9E" stroke-width="0.5" fill="none" />
    <path id=""  transform="matrix(1 0 0 -1 0 316)"  d="M91.5648 290.1328L90.09879 295.9038" stroke="#E7BC9E" stroke-width="0.5" fill="none" />
    <path id=""  transform="matrix(1 0 0 -1 0 316)"  d="M89.8607 289.1787L85.7067 293.44373" stroke="#E7BC9E" stroke-width="0.5" fill="none" />
    <path id=""  transform="matrix(1 0 0 -1 0 316)"  d="M88.8617 287.501L83.132706 289.117" stroke="#E7BC9E" stroke-width="0.5" fill="none" />
    <path id=""  transform="matrix(1 0 0 -1 0 316)"  d="M93.4554 290.1328L94.920395 295.9038" stroke="#E7BC9E" stroke-width="0.5" fill="none" />
    <path id=""  transform="matrix(1 0 0 -1 0 316)"  d="M95.1586 289.1787L99.3126 293.44373" stroke="#E7BC9E" stroke-width="0.5" fill="none" />
    <path id=""  transform="matrix(1 0 0 -1 0 316)"  d="M96.1576 287.501L101.8866 289.117" stroke="#E7BC9E" stroke-width="0.5" fill="none" />
    <path id=""  transform="matrix(1 0 0 -1 0 316)"  d="M92.4925 305.4971L92.4925 299.5511" stroke="#E7BC9E" stroke-width="0.5" fill="none" />
    <path id=""  transform="matrix(1 0 0 -1 0 316)"  d="M92.432 297.1934C 92.409996 297.2034 92.389 297.2144 92.37 297.22638C 92.075 297.4134 91.82 297.6084 91.607 297.8144C 91.393 298.0204 91.229 298.23138 91.114 298.4494C 90.998 298.66638 90.942 298.88538 90.942 299.1084C 90.942 299.2944 90.979996 299.4584 91.058 299.6004C 91.135 299.7444 91.24 299.85638 91.371 299.9364C 91.502 300.0174 91.65 300.05838 91.815 300.05838C 91.969 300.05838 92.104 300.01938 92.215996 299.9404C 92.329 299.8624 92.421 299.7594 92.493 299.6324C 92.565 299.76038 92.658 299.86438 92.77 299.94138C 92.882996 300.01938 93.017 300.05838 93.17 300.05838C 93.334 300.05838 93.483 300.0174 93.615 299.9364C 93.746 299.85638 93.851 299.7444 93.928 299.6004C 94.005 299.4584 94.043 299.2944 94.043 299.1084C 94.043 298.88538 93.986 298.66638 93.87 298.4494C 93.756 298.23138 93.592 298.0204 93.378 297.8144C 93.164 297.6084 92.910995 297.4134 92.615 297.22638C 92.597 297.2144 92.578 297.2034 92.553 297.1934C 92.53 297.18338 92.509 297.17838 92.493 297.17838C 92.475 297.17838 92.455 297.18338 92.432 297.1934z" stroke="#E7BC9E" stroke-width="0.5" fill="none" />
    <path id=""  transform="matrix(1 0 0 -1 0 316)"  d="M92.5004 109.9893C 90.7914 109.9893 89.406395 111.374306 89.406395 113.083305C 89.406395 116.9613 92.5004 119.8783 92.5004 119.8783C 92.5004 119.8783 95.5944 116.9613 95.5944 113.083305C 95.5944 111.374306 94.2084 109.9893 92.5004 109.9893z" stroke="#E7BC9E" stroke-width="0.25" stroke-linecap="round" fill="none" />
    <path id=""  transform="matrix(1 0 0 -1 0 316)"  d="M92.5004 119.8779L93.1894 117.8989L93.1894 117.8989L94.002396 113.898895L94.002396 113.898895L93.4244 112.0389L93.4244 112.0389L93.4244 110.9769L93.4244 110.9769L93.6934 110.2289" stroke="#E7BC9E" stroke-width="0.25" stroke-linecap="round" fill="none" />
    <path id=""  transform="matrix(1 0 0 -1 0 316)"  d="M93.7259 118.4131L93.189896 117.8981L93.189896 117.8981L92.4999 117.3671L92.4999 117.3671L94.6119 115.0531L94.6119 115.0531L94.6609 116.8451L94.6609 116.8451L93.189896 117.8981" stroke="#E7BC9E" stroke-width="0.25" stroke-linecap="round" fill="none" />
    <path id=""  transform="matrix(1 0 0 -1 0 316)"  d="M95.4222 112.0664L94.611206 112.3674L94.611206 112.3674L94.002205 113.8984L94.002205 113.8984L94.611206 115.0524" stroke="#E7BC9E" stroke-width="0.25" stroke-linecap="round" fill="none" />
    <path id=""  transform="matrix(1 0 0 -1 0 316)"  d="M95.2796 115.252L94.6116 115.053L94.6116 115.053L95.5626 113.757996L95.5626 113.757996L94.6116 112.367L94.6116 112.367L94.7136 110.922L94.7136 110.922L93.4246 110.977L93.4246 110.977L92.5006 111.805L92.5006 111.805L93.4246 112.039L93.4246 112.039L94.6116 112.367" stroke="#E7BC9E" stroke-width="0.25" stroke-linecap="round" fill="none" />
    <path id=""  transform="matrix(1 0 0 -1 0 316)"  d="M92.5004 109.9893L93.4244 110.9763" stroke="#E7BC9E" stroke-width="0.25" stroke-linecap="round" fill="none" />
    <path id=""  transform="matrix(1 0 0 -1 0 316)"  d="M92.5004 119.8779L91.810394 117.8989L91.810394 117.8989L90.9974 113.898895L90.9974 113.898895L91.57539 112.0389L91.57539 112.0389L91.57539 110.9769L91.57539 110.9769L91.307396 110.2289" stroke="#E7BC9E" stroke-width="0.25" stroke-linecap="round" fill="none" />
    <path id=""  transform="matrix(1 0 0 -1 0 316)"  d="M91.2748 118.4131L91.80981 117.8981L91.80981 117.8981L92.5008 117.3671L92.5008 117.3671L90.3878 115.0531L90.3878 115.0531L90.338806 116.8451L90.338806 116.8451L91.80981 117.8981" stroke="#E7BC9E" stroke-width="0.25" stroke-linecap="round" fill="none" />
    <path id=""  transform="matrix(1 0 0 -1 0 316)"  d="M89.5785 112.0664L90.3885 112.3674L90.3885 112.3674L90.9975 113.8984L90.9975 113.8984L90.3885 115.0524" stroke="#E7BC9E" stroke-width="0.25" stroke-linecap="round" fill="none" />
    <path id=""  transform="matrix(1 0 0 -1 0 316)"  d="M89.7211 115.252L90.3881 115.053L90.3881 115.053L89.4381 113.757996L89.4381 113.757996L90.3881 112.367L90.3881 112.367L90.2871 110.922L90.2871 110.922L91.575096 110.977L91.575096 110.977L92.5001 111.805L92.5001 111.805L91.575096 112.039L91.575096 112.039L90.3881 112.367" stroke="#E7BC9E" stroke-width="0.25" stroke-linecap="round" fill="none" />
    <path id=""  transform="matrix(1 0 0 -1 0 316)"  d="M92.5004 109.9893L91.57539 110.9763" stroke="#E7BC9E" stroke-width="0.25" stroke-linecap="round" fill="none" />
    <path id=""  transform="matrix(1 0 0 -1 0 316)"  d="M92.5004 43.3838C 91.7374 43.3838 91.1194 44.0018 91.1194 44.7648C 91.1194 46.4948 92.5004 47.7968 92.5004 47.7968C 92.5004 47.7968 93.88139 46.4948 93.88139 44.7648C 93.88139 44.0018 93.2634 43.3838 92.5004 43.3838z" stroke="#E7BC9E" stroke-width="0.5" stroke-linecap="round" fill="none" />
    <path id=""  transform="matrix(1 0 0 -1 0 316)"  d="M92.5004 47.7969L92.808395 46.912903L92.808395 46.912903L93.170395 45.127903L93.170395 45.127903L92.9124 44.2989L92.9124 44.2989L92.9124 43.823902L92.9124 43.823902L93.032394 43.489902" stroke="#E7BC9E" stroke-width="0.1" stroke-linecap="round" fill="none" />
    <path id=""  transform="matrix(1 0 0 -1 0 316)"  d="M93.0472 47.1426L92.808205 46.9136L92.808205 46.9136L92.500206 46.6766L92.500206 46.6766L93.44321 45.6436L93.44321 45.6436L93.4642 46.4436L93.4642 46.4436L92.808205 46.9136" stroke="#E7BC9E" stroke-width="0.1" stroke-linecap="round" fill="none" />
    <path id=""  transform="matrix(1 0 0 -1 0 316)"  d="M93.8041 44.3105L93.4431 44.4455L93.4431 44.4455L93.1701 45.127502L93.1701 45.127502L93.4431 45.6435" stroke="#E7BC9E" stroke-width="0.1" stroke-linecap="round" fill="none" />
    <path id=""  transform="matrix(1 0 0 -1 0 316)"  d="M93.7406 45.7324L93.442604 45.6434L93.442604 45.6434L93.8666 45.0654L93.8666 45.0654L93.442604 44.4454L93.442604 44.4454L93.4876 43.7994L93.4876 43.7994L92.9126 43.824398L92.9126 43.824398L92.5006 44.193398L92.5006 44.193398L92.9126 44.2984L92.9126 44.2984L93.442604 44.4454" stroke="#E7BC9E" stroke-width="0.1" stroke-linecap="round" fill="none" />
    <path id=""  transform="matrix(1 0 0 -1 0 316)"  d="M92.5004 43.3838L92.9124 43.8238" stroke="#E7BC9E" stroke-width="0.1" stroke-linecap="round" fill="none" />
    <path id=""  transform="matrix(1 0 0 -1 0 316)"  d="M92.5004 47.7969L92.1914 46.912903L92.1914 46.912903L91.8294 45.127903L91.8294 45.127903L92.087395 44.2989L92.087395 44.2989L92.087395 43.823902L92.087395 43.823902L91.9674 43.489902" stroke="#E7BC9E" stroke-width="0.1" stroke-linecap="round" fill="none" />
    <path id=""  transform="matrix(1 0 0 -1 0 316)"  d="M91.9535 47.1426L92.1915 46.9136L92.1915 46.9136L92.500496 46.6766L92.500496 46.6766L91.557495 45.6436L91.557495 45.6436L91.5355 46.4436L91.5355 46.4436L92.1915 46.9136" stroke="#E7BC9E" stroke-width="0.1" stroke-linecap="round" fill="none" />
    <path id=""  transform="matrix(1 0 0 -1 0 316)"  d="M91.1966 44.3105L91.5576 44.4455L91.5576 44.4455L91.829605 45.127502L91.829605 45.127502L91.5576 45.6435" stroke="#E7BC9E" stroke-width="0.1" stroke-linecap="round" fill="none" />
    <path id=""  transform="matrix(1 0 0 -1 0 316)"  d="M91.2601 45.7324L91.5581 45.6434L91.5581 45.6434L91.1331 45.0654L91.1331 45.0654L91.5581 44.4454L91.5581 44.4454L91.5121 43.7994L91.5121 43.7994L92.087105 43.824398L92.087105 43.824398L92.5001 44.193398L92.5001 44.193398L92.087105 44.2984L92.087105 44.2984L91.5581 44.4454" stroke="#E7BC9E" stroke-width="0.1" stroke-linecap="round" fill="none" />
    <path id=""  transform="matrix(1 0 0 -1 0 316)"  d="M92.5004 43.3838L92.087395 43.8238" stroke="#E7BC9E" stroke-width="0.1" stroke-linecap="round" fill="none" />
    <path id=""  transform="matrix(1 0 0 -1 0 316)"  d="M100.5775 56.0527C 99.8145 56.0527 99.1965 56.6707 99.1965 57.4337C 99.1965 59.1637 100.5775 60.4657 100.5775 60.4657C 100.5775 60.4657 101.958496 59.1637 101.958496 57.4337C 101.958496 56.6707 101.3405 56.0527 100.5775 56.0527z" stroke="#E7BC9E" stroke-width="0.5" stroke-linecap="round" fill="none" />
    <path id=""  transform="matrix(1 0 0 -1 0 316)"  d="M100.5775 60.4658L100.8855 59.581802L100.8855 59.581802L101.2485 57.796803L101.2485 57.796803L100.9895 56.9678L100.9895 56.9678L100.9895 56.4928L100.9895 56.4928L101.1095 56.158802" stroke="#E7BC9E" stroke-width="0.1" stroke-linecap="round" fill="none" />
    <path id=""  transform="matrix(1 0 0 -1 0 316)"  d="M101.1244 59.8115L100.8854 59.5825L100.8854 59.5825L100.5774 59.3455L100.5774 59.3455L101.5204 58.3125L101.5204 58.3125L101.5414 59.1125L101.5414 59.1125L100.8854 59.5825" stroke="#E7BC9E" stroke-width="0.1" stroke-linecap="round" fill="none" />
    <path id=""  transform="matrix(1 0 0 -1 0 316)"  d="M101.8812 56.9795L101.5202 57.1145L101.5202 57.1145L101.2482 57.7965L101.2482 57.7965L101.5202 58.3125" stroke="#E7BC9E" stroke-width="0.1" stroke-linecap="round" fill="none" />
    <path id=""  transform="matrix(1 0 0 -1 0 316)"  d="M101.8177 58.4014L101.51971 58.3124L101.51971 58.3124L101.9437 57.7344L101.9437 57.7344L101.51971 57.114403L101.51971 57.114403L101.564705 56.468403L101.564705 56.468403L100.9897 56.4934L100.9897 56.4934L100.577705 56.863403L100.577705 56.863403L100.9897 56.9674L100.9897 56.9674L101.51971 57.114403" stroke="#E7BC9E" stroke-width="0.1" stroke-linecap="round" fill="none" />
    <path id=""  transform="matrix(1 0 0 -1 0 316)"  d="M100.5775 56.0527L100.9895 56.4927" stroke="#E7BC9E" stroke-width="0.1" stroke-linecap="round" fill="none" />
    <path id=""  transform="matrix(1 0 0 -1 0 316)"  d="M100.5775 60.4658L100.2695 59.581802L100.2695 59.581802L99.9065 57.796803L99.9065 57.796803L100.1645 56.9678L100.1645 56.9678L100.1645 56.4928L100.1645 56.4928L100.0445 56.158802" stroke="#E7BC9E" stroke-width="0.1" stroke-linecap="round" fill="none" />
    <path id=""  transform="matrix(1 0 0 -1 0 316)"  d="M100.0306 59.8115L100.2696 59.5825L100.2696 59.5825L100.5776 59.3455L100.5776 59.3455L99.6346 58.3125L99.6346 58.3125L99.6136 59.1125L99.6136 59.1125L100.2696 59.5825" stroke="#E7BC9E" stroke-width="0.1" stroke-linecap="round" fill="none" />
    <path id=""  transform="matrix(1 0 0 -1 0 316)"  d="M99.2738 56.9795L99.6348 57.1145L99.6348 57.1145L99.90681 57.7965L99.90681 57.7965L99.6348 58.3125" stroke="#E7BC9E" stroke-width="0.1" stroke-linecap="round" fill="none" />
    <path id=""  transform="matrix(1 0 0 -1 0 316)"  d="M99.3373 58.4014L99.6353 58.3124L99.6353 58.3124L99.210304 57.7344L99.210304 57.7344L99.6353 57.114403L99.6353 57.114403L99.5903 56.468403L99.5903 56.468403L100.16431 56.4934L100.16431 56.4934L100.5773 56.863403L100.5773 56.863403L100.16431 56.9674L100.16431 56.9674L99.6353 57.114403" stroke="#E7BC9E" stroke-width="0.1" stroke-linecap="round" fill="none" />
    <path id=""  transform="matrix(1 0 0 -1 0 316)"  d="M100.5775 56.0527L100.1645 56.4927" stroke="#E7BC9E" stroke-width="0.1" stroke-linecap="round" fill="none" />
    <path id=""  transform="matrix(1 0 0 -1 0 316)"  d="M84.4232 56.0527C 83.6602 56.0527 83.042206 56.6707 83.042206 57.4337C 83.042206 59.1637 84.4232 60.4657 84.4232 60.4657C 84.4232 60.4657 85.8042 59.1637 85.8042 57.4337C 85.8042 56.6707 85.1862 56.0527 84.4232 56.0527z" stroke="#E7BC9E" stroke-width="0.5" stroke-linecap="round" fill="none" />
    <path id=""  transform="matrix(1 0 0 -1 0 316)"  d="M84.4232 60.4658L84.7312 59.581802L84.7312 59.581802L85.0932 57.796803L85.0932 57.796803L84.835205 56.9678L84.835205 56.9678L84.835205 56.4928L84.835205 56.4928L84.9552 56.158802" stroke="#E7BC9E" stroke-width="0.1" stroke-linecap="round" fill="none" />
    <path id=""  transform="matrix(1 0 0 -1 0 316)"  d="M84.9701 59.8115L84.7311 59.5825L84.7311 59.5825L84.4231 59.3455L84.4231 59.3455L85.366104 58.3125L85.366104 58.3125L85.3871 59.1125L85.3871 59.1125L84.7311 59.5825" stroke="#E7BC9E" stroke-width="0.1" stroke-linecap="round" fill="none" />
    <path id=""  transform="matrix(1 0 0 -1 0 316)"  d="M85.7269 56.9795L85.3659 57.1145L85.3659 57.1145L85.092896 57.7965L85.092896 57.7965L85.3659 58.3125" stroke="#E7BC9E" stroke-width="0.1" stroke-linecap="round" fill="none" />
    <path id=""  transform="matrix(1 0 0 -1 0 316)"  d="M85.6634 58.4014L85.3654 58.3124L85.3654 58.3124L85.7894 57.7344L85.7894 57.7344L85.3654 57.114403L85.3654 57.114403L85.4104 56.468403L85.4104 56.468403L84.835396 56.4934L84.835396 56.4934L84.4234 56.863403L84.4234 56.863403L84.835396 56.9674L84.835396 56.9674L85.3654 57.114403" stroke="#E7BC9E" stroke-width="0.1" stroke-linecap="round" fill="none" />
    <path id=""  transform="matrix(1 0 0 -1 0 316)"  d="M84.4232 56.0527L84.835205 56.4927" stroke="#E7BC9E" stroke-width="0.1" stroke-linecap="round" fill="none" />
    <path id=""  transform="matrix(1 0 0 -1 0 316)"  d="M84.4232 60.4658L84.114204 59.581802L84.114204 59.581802L83.752205 57.796803L83.752205 57.796803L84.0102 56.9678L84.0102 56.9678L84.0102 56.4928L84.0102 56.4928L83.890205 56.158802" stroke="#E7BC9E" stroke-width="0.1" stroke-linecap="round" fill="none" />
    <path id=""  transform="matrix(1 0 0 -1 0 316)"  d="M83.8763 59.8115L84.114296 59.5825L84.114296 59.5825L84.423294 59.3455L84.423294 59.3455L83.48029 58.3125L83.48029 58.3125L83.4583 59.1125L83.4583 59.1125L84.114296 59.5825" stroke="#E7BC9E" stroke-width="0.1" stroke-linecap="round" fill="none" />
    <path id=""  transform="matrix(1 0 0 -1 0 316)"  d="M83.1185 56.9795L83.4805 57.1145L83.4805 57.1145L83.7525 57.7965L83.7525 57.7965L83.4805 58.3125" stroke="#E7BC9E" stroke-width="0.1" stroke-linecap="round" fill="none" />
    <path id=""  transform="matrix(1 0 0 -1 0 316)"  d="M83.183 58.4014L83.480995 58.3124L83.480995 58.3124L83.056 57.7344L83.056 57.7344L83.480995 57.114403L83.480995 57.114403L83.435 56.468403L83.435 56.468403L84.01 56.4934L84.01 56.4934L84.423 56.863403L84.423 56.863403L84.01 56.9674L84.01 56.9674L83.480995 57.114403" stroke="#E7BC9E" stroke-width="0.1" stroke-linecap="round" fill="none" />
    <path id=""  transform="matrix(1 0 0 -1 0 316)"  d="M84.4232 56.0527L84.0102 56.4927" stroke="#E7BC9E" stroke-width="0.1" stroke-linecap="round" fill="none" />
    <path id=""  transform="matrix(1 0 0 -1 0 316)"  d="M86.0199 117.2334C 86.0199 120.8124 88.9209 123.7134 92.4999 123.7134C 96.079895 123.7134 98.9799 120.8124 98.9799 117.2334" stroke="#E7BC9E" stroke-width="0.5" stroke-linecap="round" fill="none" />
    <path id=""  transform="matrix(1 0 0 -1 0 316)"  d="M114.6625 135.5215C 108.0555 132.0385 100.5255 130.0655 92.5365 130.0655C 84.516495 130.0655 76.962494 132.0525 70.3365 135.5615" stroke="#E7BC9E" stroke-width="0.5" stroke-linecap="round" fill="none" />
    <path id=""  transform="matrix(1 0 0 -1 0 316)"  d="M114.6625 136.5234C 108.0555 133.0404 100.5255 131.06741 92.5365 131.06741C 84.516495 131.06741 76.962494 133.05441 70.3365 136.5634" stroke="#E7BC9E" stroke-width="0.25" stroke-linecap="round" fill="none" />
    <path id=""  transform="matrix(1 0 0 -1 0 316)"  d="M92.5365 122.3125L92.5365 129.9995" stroke="#E7BC9E" stroke-width="0.5" stroke-linecap="round" fill="none" />
    <path id=""  transform="matrix(1 0 0 -1 0 316)"  d="M97.6449 61.6777L93.317894 62.0317L93.317894 62.0317L96.122894 65.4707L96.122894 65.4707L92.828896 62.5107L92.828896 62.5107L92.4999 72.4447L92.4999 72.4447L92.1709 62.5117L92.1709 62.5117L88.870895 65.4617L88.870895 65.4617L91.6829 62.0317L91.6829 62.0317L87.355896 61.6777L87.355896 61.6777L91.6839 61.3227L91.6839 61.3227L88.8519 57.9127L88.8519 57.9127L92.1709 60.8427L92.1709 60.8427L92.4999 50.9097L92.4999 50.9097L92.828896 60.8437L92.828896 60.8437L96.1309 57.8947L96.1309 57.8947L93.317894 61.3227L93.317894 61.3227L97.6449 61.6777z" stroke="#E7BC9E" stroke-width="0.3" stroke-linecap="round" fill="none" />
    <path id=""  transform="matrix(1 0 0 -1 0 316)"  d="M104.0355 70.0625L101.1275 70.3015L101.1275 70.3015L103.0125 72.6125L103.0125 72.6125L100.7985 70.6235L100.7985 70.6235L100.5775 77.2995L100.5775 77.2995L100.3565 70.6245L100.3565 70.6245L98.1385 72.6065L98.1385 72.6065L100.0285 70.3015L100.0285 70.3015L97.1195 70.0625L97.1195 70.0625L100.0285 69.8245L100.0285 69.8245L98.1255 67.5335L98.1255 67.5335L100.3565 69.5015L100.3565 69.5015L100.5775 62.8255L100.5775 62.8255L100.7985 69.5015L100.7985 69.5015L103.0175 67.5195L103.0175 67.5195L101.1265 69.8245L101.1265 69.8245L104.0355 70.0625z" stroke="#E7BC9E" stroke-width="0.3" stroke-linecap="round" fill="none" />
    <path id=""  transform="matrix(1 0 0 -1 0 316)"  d="M87.8812 70.0625L84.972206 70.3015L84.972206 70.3015L86.8582 72.6125L86.8582 72.6125L84.6442 70.6235L84.6442 70.6235L84.4232 77.2995L84.4232 77.2995L84.2022 70.6245L84.2022 70.6245L81.9842 72.6065L81.9842 72.6065L83.87421 70.3015L83.87421 70.3015L80.9652 70.0625L80.9652 70.0625L83.87421 69.8245L83.87421 69.8245L81.97121 67.5335L81.97121 67.5335L84.2022 69.5015L84.2022 69.5015L84.4232 62.8255L84.4232 62.8255L84.6442 69.5015L84.6442 69.5015L86.863205 67.5195L86.863205 67.5195L84.972206 69.8245L84.972206 69.8245L87.8812 70.0625z" stroke="#E7BC9E" stroke-width="0.3" stroke-linecap="round" fill="none" />
    <path id=""  transform="matrix(1 0 0 -1 0 316)"  d="M100.2562 114.8281C 99.5522 114.8281 98.9812 115.4581 98.9812 116.2331C 98.9812 115.4581 98.4092 114.8281 97.7052 114.8281C 98.4092 114.8281 98.9812 114.199104 98.9812 113.4241C 98.9812 114.199104 99.5522 114.8281 100.2562 114.8281" stroke="none" fill="#E7BC9E" fill-rule="nonzero" />
    <path id=""  transform="matrix(1 0 0 -1 0 316)"  d="M100.2562 114.8281C 99.5522 114.8281 98.9812 115.4581 98.9812 116.2331C 98.9812 115.4581 98.4092 114.8281 97.7052 114.8281C 98.4092 114.8281 98.9812 114.199104 98.9812 113.4241C 98.9812 114.199104 99.5522 114.8281 100.2562 114.8281z" stroke="#E7BC9E" stroke-width="0.25" stroke-linecap="round" fill="none" />
    <path id=""  transform="matrix(1 0 0 -1 0 316)"  d="M87.2953 114.8281C 86.5903 114.8281 86.0193 115.4581 86.0193 116.2331C 86.0193 115.4581 85.4483 114.8281 84.7433 114.8281C 85.4483 114.8281 86.0193 114.199104 86.0193 113.4241C 86.0193 114.199104 86.5903 114.8281 87.2953 114.8281" stroke="none" fill="#E7BC9E" fill-rule="nonzero" />
    <path id=""  transform="matrix(1 0 0 -1 0 316)"  d="M87.2953 114.8281C 86.5903 114.8281 86.0193 115.4581 86.0193 116.2331C 86.0193 115.4581 85.4483 114.8281 84.7433 114.8281C 85.4483 114.8281 86.0193 114.199104 86.0193 113.4241C 86.0193 114.199104 86.5903 114.8281 87.2953 114.8281z" stroke="#E7BC9E" stroke-width="0.25" stroke-linecap="round" fill="none" />
		</g>
	</g>
</g>
</svg>