<?xml version="1.0" standalone="no"?>
<!DOCTYPE svg PUBLIC "-//W3C//DTD SVG 1.0//EN" "http://www.w3.org/TR/2001/REC-SVG-20010904/DTD/svg10.dtd">
<svg xmlns="http://www.w3.org/2000/svg" xmlns:xlink="http://www.w3.org/1999/xlink" id="body_5" width="247" height="421">

<defs>
    <clipPath  id="1">

    <path id=""  clip-rule="evenodd" transform="matrix(1 0 0 1 0 0)"  d="M0 316L0 0L0 0L185 0L185 0L185 316L185 316L0 316z" />    </clipPath>
    <clipPath  id="2">

    <path id=""  clip-rule="evenodd" transform="matrix(1 0 0 1 0 0)"  d="M0 0L185 0L185 0L185 316L185 316L0 316z" />    </clipPath>
</defs>

<g transform="matrix(1.3333 0 0 1.3333 0 0)">
	<g clip-path="url(#1)" >
    <path id=""  transform="matrix(1 0 0 -1 0 316)"  d="M92.4997 108.6593L92.4997 114.5393" stroke="#E7BC9E" stroke-width="1" stroke-linecap="round" fill="none" />
    <path id=""  transform="matrix(1 0 0 -1 0 316)"  d="M92.4997 31.3185L92.4997 82.7445" stroke="#E7BC9E" stroke-width="1" stroke-linecap="round" fill="none" />
    <path id=""  transform="matrix(1 0 0 -1 0 316)"  d="M92.4997 90.3175L92.4997 95.8175" stroke="#E7BC9E" stroke-width="1" stroke-linecap="round" fill="none" />
		<g clip-path="url(#2)" >
    <path id=""  transform="matrix(1 0 0 -1 0 316)"  d="M88.2946 102.6417C 88.2946 104.9657 90.176605 106.8477 92.4996 106.8477C 94.8216 106.8477 96.705605 104.9657 96.705605 102.6417C 96.705605 100.3187 94.8216 98.4367 92.4996 98.4367C 90.176605 98.4367 88.2946 100.3187 88.2946 102.6417" stroke="none" fill="#E7BC9E" fill-rule="nonzero" />
    <path id=""  transform="matrix(1 0 0 -1 0 316)"  d="M90.6149 86.6876C 90.6149 87.7286 91.4589 88.5726 92.4999 88.5726C 93.5409 88.5726 94.384895 87.7286 94.384895 86.6876C 94.384895 85.6456 93.5409 84.8026 92.4999 84.8026C 91.4589 84.8026 90.6149 85.6456 90.6149 86.6876" stroke="none" fill="#E7BC9E" fill-rule="nonzero" />
    <path id=""  transform="matrix(1 0 0 -1 0 316)"  d="M88.2946 53.1007C 88.2946 55.4247 90.176605 57.3067 92.4996 57.3067C 94.8216 57.3067 96.705605 55.4247 96.705605 53.1007C 96.705605 50.7767 94.8216 48.8957 92.4996 48.8957C 90.176605 48.8957 88.2946 50.7767 88.2946 53.1007" stroke="none" fill="#E7BC9E" fill-rule="nonzero" />
    <path id=""  transform="matrix(1 0 0 -1 0 316)"  d="M87.4245 26.2491C 87.4245 29.049099 89.694496 31.3191 92.4995 31.3191C 95.3005 31.3191 97.5755 29.049099 97.5755 26.2491C 97.5755 23.4431 92.4995 11.2141 92.4995 11.2141C 92.4995 11.2141 87.4245 23.4431 87.4245 26.2491" stroke="none" fill="#E7BC9E" fill-rule="nonzero" />
    <path id=""  transform="matrix(1 0 0 -1 0 316)"  d="M75.82 76.2911C 75.82 77.6911 83.386 78.8271 92.723 78.8271C 102.057 78.8271 109.627 77.6911 109.627 76.2911C 109.627 74.8911 102.057 73.7551 92.723 73.7551C 83.386 73.7551 75.82 74.8911 75.82 76.2911z" stroke="#E7BC9E" stroke-width="1" stroke-linecap="round" fill="none" />
    <path id=""  transform="matrix(1 0 0 -1 0 316)"  d="M102.0993 113.7765C 109.5293 113.3675 114.659294 112.4975 114.659294 111.486496C 114.659294 110.476494 109.5293 109.5965 102.0993 109.18649" stroke="#E7BC9E" stroke-width="1" stroke-linecap="round" fill="none" />
    <path id=""  transform="matrix(1 0 0 -1 0 316)"  d="M82.8991 109.2169C 75.7181 109.6369 70.7891 110.4969 70.7891 111.4869C 70.7891 112.476906 75.7181 113.33691 82.8991 113.7469" stroke="#E7BC9E" stroke-width="1" stroke-linecap="round" fill="none" />
    <path id=""  transform="matrix(1 0 0 -1 0 316)"  d="M83.9665 69.1222C 83.9665 70.1642 87.8865 71.0092 92.723495 71.0092C 97.5585 71.0092 101.4805 70.1642 101.4805 69.1222C 101.4805 68.0802 97.5585 67.2352 92.723495 67.2352C 87.8865 67.2352 83.9665 68.0802 83.9665 69.1222z" stroke="#E7BC9E" stroke-width="1" stroke-linecap="round" fill="none" />
    <path id=""  transform="matrix(1 0 0 -1 0 316)"  d="M87.8718 37.921C 87.8718 38.498 90.0438 38.966 92.7238 38.966C 95.4028 38.966 97.575806 38.498 97.575806 37.921C 97.575806 37.344 95.4028 36.875 92.7238 36.875C 90.0438 36.875 87.8718 37.344 87.8718 37.921z" stroke="#E7BC9E" stroke-width="1" stroke-linecap="round" fill="none" />
    <path id=""  transform="matrix(1 0 0 -1 0 316)"  d="M92.7233 130.0255L92.7233 143.9175" stroke="#E7BC9E" stroke-width="1" stroke-linecap="round" fill="none" />
    <path id=""  transform="matrix(1 0 0 -1 0 316)"  d="M85.7712 123.0753C 85.7712 126.9133 88.8832 130.0263 92.723206 130.0263C 96.5622 130.0263 99.6752 126.9133 99.6752 123.0753C 99.6752 119.236305 96.5622 116.1233 92.723206 116.1233C 88.8832 116.1233 85.7712 119.236305 85.7712 123.0753z" stroke="#E7BC9E" stroke-width="1" stroke-linecap="round" fill="none" />
    <path id=""  transform="matrix(1 0 0 -1 0 316)"  d="M85.7712 133.3956C 85.7712 133.9716 88.8832 134.4386 92.723206 134.4386C 96.5622 134.4386 99.6752 133.9716 99.6752 133.3956C 99.6752 132.8196 96.5622 132.3526 92.723206 132.3526C 88.8832 132.3526 85.7712 132.8196 85.7712 133.3956z" stroke="#E7BC9E" stroke-width="1" stroke-linecap="round" fill="none" />
    <path id=""  transform="matrix(1 0 0 -1 0 316)"  d="M90.114 123.0753C 90.114 124.516304 91.281 125.6843 92.723 125.6843C 94.164 125.6843 95.333 124.516304 95.333 123.0753C 95.333 121.6333 94.164 120.4653 92.723 120.4653C 91.281 120.4653 90.114 121.6333 90.114 123.0753" stroke="none" fill="#E7BC9E" fill-rule="nonzero" />
    <path id=""  transform="matrix(1 0 0 -1 0 316)"  d="M102.3073 296.7491C 102.3073 298.2091 101.979294 299.5921 101.395294 300.8301C 101.42529 300.53812 101.4403 300.24112 101.4403 299.94012C 101.4403 295.12613 97.5373 291.22412 92.7233 291.22412C 87.91029 291.22412 84.006294 295.12613 84.006294 299.94012C 84.006294 300.24112 84.0213 300.53812 84.0513 300.8301C 83.4673 299.5921 83.1393 298.2091 83.1393 296.7491C 83.1393 291.45612 87.4303 287.1651 92.7233 287.1651C 98.0163 287.1651 102.3073 291.45612 102.3073 296.7491" stroke="none" fill="#E7BC9E" fill-rule="nonzero" />
    <path id=""  transform="matrix(1 0 0 -1 0 316)"  d="M90.4919 283.5597C 90.4919 284.7917 91.4909 285.79068 92.7229 285.79068C 93.955894 285.79068 94.954895 284.7917 94.954895 283.5597C 94.954895 282.3277 93.955894 281.3287 92.7229 281.3287C 91.4909 281.3287 90.4919 282.3277 90.4919 283.5597z" stroke="#E7BC9E" stroke-width="1" stroke-linecap="round" fill="none" />
    <path id=""  transform="matrix(1 0 0 -1 0 316)"  d="M90.3239 300.2862L92.7229 305.4972L92.7229 305.4972L95.122894 300.2862L95.122894 300.2862L92.7229 297.7232L92.7229 297.7232L90.3239 300.2862z" stroke="#E7BC9E" stroke-width="1" stroke-linecap="round" fill="none" />
		</g>
	</g>
</g>
</svg>