<?xml version="1.0" standalone="no"?>
<!DOCTYPE svg PUBLIC "-//W3C//DTD SVG 1.0//EN" "http://www.w3.org/TR/2001/REC-SVG-20010904/DTD/svg10.dtd">
<svg xmlns="http://www.w3.org/2000/svg" xmlns:xlink="http://www.w3.org/1999/xlink" id="body_6" width="247" height="421">

<defs>
    <clipPath  id="1">

    <path id=""  clip-rule="evenodd" transform="matrix(1 0 0 1 0 0)"  d="M0 316L0 0L0 0L185 0L185 0L185 316L185 316L0 316z" />    </clipPath>
    <clipPath  id="2">

    <path id=""  clip-rule="evenodd" transform="matrix(1 0 0 1 0 0)"  d="M0 0L185 0L185 0L185 316L185 316L0 316z" />    </clipPath>
</defs>

<g transform="matrix(1.3333 0 0 1.3333 0 0)">
	<g clip-path="url(#1)" >
    <path id=""  transform="matrix(1 0 0 -1 0 316)"  d="M92.7663 85.7687L98.1663 95.122696L98.1663 95.122696L87.365295 95.122696z" stroke="none" fill="#E7BC9E" fill-rule="nonzero" />
    <path id=""  transform="matrix(1 0 0 -1 0 316)"  d="M92.7663 66.4191L114.8313 104.6391L114.8313 104.6391L70.700294 104.6391L70.700294 104.6391L92.7663 66.4191z" stroke="#E7BC9E" stroke-width="1" fill="none" />
    <path id=""  transform="matrix(1 0 0 -1 0 316)"  d="M92.7663 102.421L101.9413 86.529L101.9413 86.529L83.590294 86.529zM92.7663 104.423L81.8583 85.529L81.8583 85.529L103.673294 85.529z" stroke="none" fill="#E7BC9E" fill-rule="nonzero" />
		<g clip-path="url(#2)" >
    <path id=""  transform="matrix(1 0 0 -1 0 316)"  d="M80.0446 91.9181C 80.0446 98.9431 85.7396 104.6391 92.7666 104.6391C 99.7916 104.6391 105.4866 98.9431 105.4866 91.9181C 105.4866 84.8931 99.7916 79.1971 92.7666 79.1971C 85.7396 79.1971 80.0446 84.8931 80.0446 91.9181z" stroke="#E7BC9E" stroke-width="1" fill="none" />
    <path id=""  transform="matrix(1 0 0 -1 0 316)"  d="M79.9392 82.1983L74.710205 73.140305L74.710205 73.140305L85.1682 73.140305L85.1682 73.140305L79.9392 82.1983z" stroke="#E7BC9E" stroke-width="1" fill="none" />
    <path id=""  transform="matrix(1 0 0 -1 0 316)"  d="M74.2927 82.1974L76.9067 86.7264L76.9067 86.7264L71.677704 86.7264z" stroke="none" fill="#E7BC9E" fill-rule="nonzero" />
    <path id=""  transform="matrix(1 0 0 -1 0 316)"  d="M110.7087 82.1974L113.3237 86.7264L113.3237 86.7264L108.0947 86.7264z" stroke="none" fill="#E7BC9E" fill-rule="nonzero" />
    <path id=""  transform="matrix(1 0 0 -1 0 316)"  d="M105.8044 82.1983L100.57539 73.140305L100.57539 73.140305L111.0334 73.140305L111.0334 73.140305L105.8044 82.1983z" stroke="#E7BC9E" stroke-width="1" fill="none" />
    <path id=""  transform="matrix(1 0 0 -1 0 316)"  d="M92.4997 141.3011L97.259705 129.8021L97.259705 129.8021L92.4997 118.3031L92.4997 118.3031L87.7397 129.8021zM92.4997 143.9171L86.6567 129.8021L86.6567 129.8021L92.4997 115.6871L92.4997 115.6871L98.342705 129.8021z" stroke="none" fill="#E7BC9E" fill-rule="nonzero" />
    <path id=""  transform="matrix(1 0 0 -1 0 316)"  d="M92.4997 10.8624L89.9307 21.8584L89.9307 21.8584L92.4997 32.8534L92.4997 32.8534L95.0697 21.8584z" stroke="none" fill="#E7BC9E" fill-rule="nonzero" />
    <path id=""  transform="matrix(1 0 0 -1 0 316)"  d="M92.5124 66.4191L92.5124 26.684097" stroke="#E7BC9E" stroke-width="1" stroke-linecap="round" fill="none" />
    <path id=""  transform="matrix(1 0 0 -1 0 316)"  d="M92.5124 117.1788L92.5124 104.422806" stroke="#E7BC9E" stroke-width="1" stroke-linecap="round" fill="none" />
    <path id=""  transform="matrix(1 0 0 -1 0 316)"  d="M107.948 53.1593C 107.948 51.2233 101.037994 49.6553 92.512 49.6553C 83.988 49.6553 77.076996 51.2233 77.076996 53.1593C 77.076996 55.094303 83.988 56.663303 92.512 56.663303C 101.037994 56.663303 107.948 55.094303 107.948 53.1593z" stroke="#E7BC9E" stroke-width="1" stroke-linecap="round" fill="none" />
    <path id=""  transform="matrix(1 0 0 -1 0 316)"  d="M76.1989 49.4288C 76.1989 48.750797 75.648895 48.200798 74.9709 48.200798C 74.2939 48.200798 73.7439 48.750797 73.7439 49.4288C 73.7439 50.1068 74.2939 50.6558 74.9709 50.6558C 75.648895 50.6558 76.1989 50.1068 76.1989 49.4288" stroke="none" fill="#E7BC9E" fill-rule="nonzero" />
    <path id=""  transform="matrix(1 0 0 -1 0 316)"  d="M82.0417 47.4288C 82.0417 46.750797 81.4917 46.200798 80.813705 46.200798C 80.1367 46.200798 79.5877 46.750797 79.5877 47.4288C 79.5877 48.1068 80.1367 48.6558 80.813705 48.6558C 81.4917 48.6558 82.0417 48.1068 82.0417 47.4288" stroke="none" fill="#E7BC9E" fill-rule="nonzero" />
    <path id=""  transform="matrix(1 0 0 -1 0 316)"  d="M87.8845 46.4288C 87.8845 45.750797 87.334496 45.200798 86.6565 45.200798C 85.9795 45.200798 85.4305 45.750797 85.4305 46.4288C 85.4305 47.1068 85.9795 47.6558 86.6565 47.6558C 87.334496 47.6558 87.8845 47.1068 87.8845 46.4288" stroke="none" fill="#E7BC9E" fill-rule="nonzero" />
    <path id=""  transform="matrix(1 0 0 -1 0 316)"  d="M99.57 46.4288C 99.57 45.750797 99.02 45.200798 98.342 45.200798C 97.665 45.200798 97.116 45.750797 97.116 46.4288C 97.116 47.1068 97.665 47.6558 98.342 47.6558C 99.02 47.6558 99.57 47.1068 99.57 46.4288" stroke="none" fill="#E7BC9E" fill-rule="nonzero" />
    <path id=""  transform="matrix(1 0 0 -1 0 316)"  d="M105.4128 47.4288C 105.4128 46.750797 104.8628 46.200798 104.18481 46.200798C 103.507805 46.200798 102.9588 46.750797 102.9588 47.4288C 102.9588 48.1068 103.507805 48.6558 104.18481 48.6558C 104.8628 48.6558 105.4128 48.1068 105.4128 47.4288" stroke="none" fill="#E7BC9E" fill-rule="nonzero" />
    <path id=""  transform="matrix(1 0 0 -1 0 316)"  d="M111.2556 49.4288C 111.2556 48.750797 110.7066 48.200798 110.0286 48.200798C 109.3516 48.200798 108.8016 48.750797 108.8016 49.4288C 108.8016 50.1068 109.3516 50.6558 110.0286 50.6558C 110.7066 50.6558 111.2556 50.1068 111.2556 49.4288" stroke="none" fill="#E7BC9E" fill-rule="nonzero" />
    <path id=""  transform="matrix(1 0 0 -1 0 316)"  d="M74.9714 49.4288L74.9714 35.5128" stroke="#E7BC9E" stroke-width="0.567" stroke-linecap="round" fill="none" />
    <path id=""  transform="matrix(1 0 0 -1 0 316)"  d="M80.8142 47.4288L80.8142 33.5128" stroke="#E7BC9E" stroke-width="0.567" stroke-linecap="round" fill="none" />
    <path id=""  transform="matrix(1 0 0 -1 0 316)"  d="M86.6569 46.2013L86.6569 32.2853" stroke="#E7BC9E" stroke-width="0.567" stroke-linecap="round" fill="none" />
    <path id=""  transform="matrix(1 0 0 -1 0 316)"  d="M98.3425 46.2013L98.3425 32.2853" stroke="#E7BC9E" stroke-width="0.567" stroke-linecap="round" fill="none" />
    <path id=""  transform="matrix(1 0 0 -1 0 316)"  d="M104.1853 47.4288L104.1853 33.5128" stroke="#E7BC9E" stroke-width="0.567" stroke-linecap="round" fill="none" />
    <path id=""  transform="matrix(1 0 0 -1 0 316)"  d="M110.029 49.0167L110.029 35.1017" stroke="#E7BC9E" stroke-width="0.567" stroke-linecap="round" fill="none" />
    <path id=""  transform="matrix(1 0 0 -1 0 316)"  d="M92.4997 138.2121L93.9987 129.8021L93.9987 129.8021L92.4997 121.3921L92.4997 121.3921L91.0017 129.8021zM92.4997 143.9171L89.9847 129.8021L89.9847 129.8021L92.4997 115.6871L92.4997 115.6871L95.0147 129.8021z" stroke="none" fill="#E7BC9E" fill-rule="nonzero" />
    <path id=""  transform="matrix(1 0 0 -1 0 316)"  d="M96.111 124.9659C 107.076996 124.4049 114.663 123.1989 114.663 121.800896C 114.663 120.40289 107.076996 119.1959 96.111 118.635895" stroke="#E7BC9E" stroke-width="1" stroke-linecap="round" fill="none" />
    <path id=""  transform="matrix(1 0 0 -1 0 316)"  d="M88.8894 124.9659C 77.9234 124.4049 70.337395 123.1989 70.337395 121.800896C 70.337395 120.40289 77.9234 119.1959 88.8894 118.635895" stroke="#E7BC9E" stroke-width="1" stroke-linecap="round" fill="none" />
    <path id=""  transform="matrix(1 0 0 -1 0 316)"  d="M94.7995 114.5372C 101.7845 114.1812 106.6155 113.4122 106.6155 112.5212C 106.6155 111.6312 101.7845 110.8622 94.7995 110.5062" stroke="#E7BC9E" stroke-width="1" stroke-linecap="round" fill="none" />
    <path id=""  transform="matrix(1 0 0 -1 0 316)"  d="M90.1999 114.5372C 83.2159 114.1812 78.383896 113.4122 78.383896 112.5212C 78.383896 111.6312 83.2159 110.8622 90.1999 110.5062" stroke="#E7BC9E" stroke-width="1" stroke-linecap="round" fill="none" />
    <path id=""  transform="matrix(1 0 0 -1 0 316)"  d="M97.8747 279.3976C 97.135704 279.29062 96.314705 279.20862 95.4307 279.1516C 95.8217 278.35562 96.162704 277.6046 96.4347 276.9096C 95.746704 277.18762 94.994705 277.5226 94.1987 277.9136C 94.1427 277.0296 94.0537 276.20862 93.952705 275.4696C 93.4917 276.0566 93.0057 276.72662 92.5137 277.4656C 92.020706 276.72662 91.5337 276.0566 91.0727 275.4696C 90.9727 276.20862 90.883705 277.0296 90.826706 277.9136C 90.036705 277.5226 89.2797 277.18762 88.591705 276.9096C 88.8627 277.6046 89.203705 278.35562 89.5957 279.1516C 88.7107 279.20862 87.8907 279.29062 87.1577 279.3976C 87.7387 279.86462 88.4017 280.3446 89.134705 280.8316C 88.4017 281.3236 87.731705 281.8106 87.1507 282.2716C 87.8907 282.3786 88.7107 282.4666 89.5957 282.52362C 89.1967 283.3196 88.8627 284.07062 88.5847 284.76562C 89.2797 284.4876 90.0307 284.1466 90.826706 283.7556C 90.883705 284.63962 90.9727 285.4606 91.0727 286.19962C 91.5337 285.6116 92.020706 284.94263 92.5137 284.2036C 93.0057 284.94263 93.4917 285.6116 93.952705 286.19962C 94.0537 285.4606 94.1427 284.63962 94.1987 283.7556C 94.994705 284.1466 95.746704 284.4876 96.440704 284.76562C 96.162704 284.07062 95.828705 283.3196 95.4307 282.52362C 96.314705 282.4666 97.1427 282.3786 97.8807 282.2716C 97.299706 281.81662 96.6307 281.33063 95.8917 280.8316C 96.6237 280.33862 97.2937 279.8586 97.8747 279.3976" stroke="none" fill="#E7BC9E" fill-rule="nonzero" />
    <path id=""  transform="matrix(1 0 0 -1 0 316)"  d="M92.5124 292.9962L90.5204 294.9882L90.5204 294.9882L92.5124 296.98117L92.5124 296.98117L94.504395 294.9882z" stroke="none" fill="#E7BC9E" fill-rule="nonzero" />
    <path id=""  transform="matrix(1 0 0 -1 0 316)"  d="M92.5124 305.4972L91.085396 301.9282L91.085396 301.9282L92.5124 298.3602L92.5124 298.3602L93.9394 301.9282z" stroke="none" fill="#E7BC9E" fill-rule="nonzero" />
    <path id=""  transform="matrix(1 0 0 -1 0 316)"  d="M90.8903 288.6393C 80.7923 288.77432 72.854294 290.1693 72.854294 291.86932C 72.854294 293.6593 81.6503 295.11032 92.4993 295.11032C 103.350296 295.11032 112.1463 293.6593 112.1463 291.86932C 112.1463 290.1693 104.212296 288.7753 94.1203 288.6393" stroke="#E7BC9E" stroke-width="0.567" stroke-linecap="round" fill="none" />
    <path id=""  transform="matrix(1 0 0 -1 0 316)"  d="M92.4997 291.8692L92.4997 286.3392" stroke="#E7BC9E" stroke-width="0.567" stroke-linecap="round" fill="none" />
		</g>
	</g>
</g>
</svg>