<?xml version="1.0" standalone="no"?>
<!DOCTYPE svg PUBLIC "-//W3C//DTD SVG 1.0//EN" "http://www.w3.org/TR/2001/REC-SVG-20010904/DTD/svg10.dtd">
<svg xmlns="http://www.w3.org/2000/svg" xmlns:xlink="http://www.w3.org/1999/xlink" id="body_7" width="247" height="421">

<defs>
    <clipPath  id="1">

    <path id=""  clip-rule="evenodd" transform="matrix(1 0 0 1 0 0)"  d="M0 316L0 0L0 0L185 0L185 0L185 316L185 316L0 316z" />    </clipPath>
    <clipPath  id="2">

    <path id=""  clip-rule="evenodd" transform="matrix(1 0 0 1 0 0)"  d="M0 0L185 0L185 0L185 316L185 316L0 316z" />    </clipPath>
</defs>

<g transform="matrix(1.3333 0 0 1.3333 0 0)">
	<g clip-path="url(#1)" >
		<g clip-path="url(#2)" >
    <path id=""  transform="matrix(1 0 0 -1 0 316)"  d="M94.0519 281.5001C 94.0519 280.6391 93.353905 279.9401 92.492905 279.9401C 91.631905 279.9401 90.9339 280.6391 90.9339 281.5001C 90.9339 282.36108 91.631905 283.05908 92.492905 283.05908C 93.353905 283.05908 94.0519 282.36108 94.0519 281.5001" stroke="none" fill="#E7BC9E" fill-rule="nonzero" />
    <path id=""  transform="matrix(1 0 0 -1 0 316)"  d="M94.0519 281.5001C 94.0519 280.6391 93.353905 279.9401 92.492905 279.9401C 91.631905 279.9401 90.9339 280.6391 90.9339 281.5001C 90.9339 282.36108 91.631905 283.05908 92.492905 283.05908C 93.353905 283.05908 94.0519 282.36108 94.0519 281.5001z" stroke="#E7BC9E" stroke-width="1" stroke-linecap="round" fill="none" />
    <path id=""  transform="matrix(1 0 0 -1 0 316)"  d="M92.4924 74.4909C 82.249405 74.4909 73.915405 82.8249 73.915405 93.0699C 73.915405 103.313896 82.249405 111.647896 92.4924 111.647896C 102.737404 111.647896 111.0714 103.313896 111.0714 93.0699C 111.0714 82.8249 102.737404 74.4909 92.4924 74.4909zM92.4924 109.2569C 83.5674 109.2569 76.305405 101.994896 76.305405 93.0699C 76.305405 84.1439 83.5674 76.8819 92.4924 76.8819C 101.4184 76.8819 108.680405 84.1439 108.680405 93.0699C 108.680405 101.994896 101.4184 109.2569 92.4924 109.2569z" stroke="#E7BC9E" stroke-width="1" stroke-linecap="round" fill="none" />
    <path id=""  transform="matrix(1 0 0 -1 0 316)"  d="M93.6887 102.9571C 93.6887 102.2971 93.153694 101.7621 92.4937 101.7621C 91.833694 101.7621 91.2977 102.2971 91.2977 102.9571C 91.2977 103.6171 91.833694 104.1521 92.4937 104.1521C 93.153694 104.1521 93.6887 103.6171 93.6887 102.9571z" stroke="#E7BC9E" stroke-width="1" stroke-linecap="round" fill="none" />
    <path id=""  transform="matrix(1 0 0 -1 0 316)"  d="M93.6887 97.0987C 93.6887 96.4387 93.153694 95.9037 92.4937 95.9037C 91.833694 95.9037 91.2977 96.4387 91.2977 97.0987C 91.2977 97.758705 91.833694 98.2937 92.4937 98.2937C 93.153694 98.2937 93.6887 97.758705 93.6887 97.0987z" stroke="#E7BC9E" stroke-width="1" stroke-linecap="round" fill="none" />
    <path id=""  transform="matrix(1 0 0 -1 0 316)"  d="M93.6887 83.1827C 93.6887 82.5227 93.153694 81.9877 92.4937 81.9877C 91.833694 81.9877 91.2977 82.5227 91.2977 83.1827C 91.2977 83.842705 91.833694 84.3777 92.4937 84.3777C 93.153694 84.3777 93.6887 83.842705 93.6887 83.1827z" stroke="#E7BC9E" stroke-width="1" stroke-linecap="round" fill="none" />
    <path id=""  transform="matrix(1 0 0 -1 0 316)"  d="M81.3478 54.7003C 81.3478 54.0683 80.8358 53.555298 80.202805 53.555298C 79.5718 53.555298 79.0588 54.0683 79.0588 54.7003C 79.0588 55.333298 79.5718 55.8453 80.202805 55.8453C 80.8358 55.8453 81.3478 55.333298 81.3478 54.7003z" stroke="#E7BC9E" stroke-width="1" stroke-linecap="round" fill="none" />
    <path id=""  transform="matrix(1 0 0 -1 0 316)"  d="M89.5773 54.7003C 89.5773 54.0683 89.0643 53.555298 88.432304 53.555298C 87.8003 53.555298 87.2883 54.0683 87.2883 54.7003C 87.2883 55.333298 87.8003 55.8453 88.432304 55.8453C 89.0643 55.8453 89.5773 55.333298 89.5773 54.7003z" stroke="#E7BC9E" stroke-width="1" stroke-linecap="round" fill="none" />
    <path id=""  transform="matrix(1 0 0 -1 0 316)"  d="M97.8058 54.7003C 97.8058 54.0683 97.2928 53.555298 96.660805 53.555298C 96.0288 53.555298 95.5168 54.0683 95.5168 54.7003C 95.5168 55.333298 96.0288 55.8453 96.660805 55.8453C 97.2928 55.8453 97.8058 55.333298 97.8058 54.7003z" stroke="#E7BC9E" stroke-width="1" stroke-linecap="round" fill="none" />
    <path id=""  transform="matrix(1 0 0 -1 0 316)"  d="M106.0344 54.7003C 106.0344 54.0683 105.5214 53.555298 104.889404 53.555298C 104.2584 53.555298 103.7454 54.0683 103.7454 54.7003C 103.7454 55.333298 104.2584 55.8453 104.889404 55.8453C 105.5214 55.8453 106.0344 55.333298 106.0344 54.7003z" stroke="#E7BC9E" stroke-width="1" stroke-linecap="round" fill="none" />
    <path id=""  transform="matrix(1 0 0 -1 0 316)"  d="M96.1369 115.2911C 96.1369 113.2791 94.5049 111.6471 92.492905 111.6471C 90.4809 111.6471 88.8499 113.2791 88.8499 115.2911C 88.8499 117.3041 90.4809 118.9351 92.492905 118.9351C 94.5049 118.9351 96.1369 117.3041 96.1369 115.2911z" stroke="#E7BC9E" stroke-width="1" stroke-linecap="round" fill="none" />
    <path id=""  transform="matrix(1 0 0 -1 0 316)"  d="M94.5344 120.9767C 94.5344 119.8487 93.6204 118.9347 92.4934 118.9347C 91.3654 118.9347 90.4514 119.8487 90.4514 120.9767C 90.4514 122.1037 91.3654 123.0177 92.4934 123.0177C 93.6204 123.0177 94.5344 122.1037 94.5344 120.9767z" stroke="#E7BC9E" stroke-width="1" stroke-linecap="round" fill="none" />
    <path id=""  transform="matrix(1 0 0 -1 0 316)"  d="M93.6887 89.0411C 93.6887 88.381096 93.153694 87.8461 92.4937 87.8461C 91.833694 87.8461 91.2977 88.381096 91.2977 89.0411C 91.2977 89.7011 91.833694 90.2361 92.4937 90.2361C 93.153694 90.2361 93.6887 89.7011 93.6887 89.0411z" stroke="#E7BC9E" stroke-width="1" stroke-linecap="round" fill="none" />
    <path id=""  transform="matrix(1 0 0 -1 0 316)"  d="M96.5217 91.8741C 95.861694 91.8741 95.3267 92.4091 95.3267 93.0691C 95.3267 93.7291 95.861694 94.2651 96.5217 94.2651C 97.1817 94.2651 97.7167 93.7291 97.7167 93.0691C 97.7167 92.4091 97.1817 91.8741 96.5217 91.8741z" stroke="#E7BC9E" stroke-width="1" stroke-linecap="round" fill="none" />
    <path id=""  transform="matrix(1 0 0 -1 0 316)"  d="M102.3801 91.8741C 101.72009 91.8741 101.1851 92.4091 101.1851 93.0691C 101.1851 93.7291 101.72009 94.2651 102.3801 94.2651C 103.0401 94.2651 103.575096 93.7291 103.575096 93.0691C 103.575096 92.4091 103.0401 91.8741 102.3801 91.8741z" stroke="#E7BC9E" stroke-width="1" stroke-linecap="round" fill="none" />
    <path id=""  transform="matrix(1 0 0 -1 0 316)"  d="M88.4641 91.8741C 87.8041 91.8741 87.269104 92.4091 87.269104 93.0691C 87.269104 93.7291 87.8041 94.2651 88.4641 94.2651C 89.12411 94.2651 89.6591 93.7291 89.6591 93.0691C 89.6591 92.4091 89.12411 91.8741 88.4641 91.8741z" stroke="#E7BC9E" stroke-width="1" stroke-linecap="round" fill="none" />
    <path id=""  transform="matrix(1 0 0 -1 0 316)"  d="M82.6057 91.8741C 81.945694 91.8741 81.4107 92.4091 81.4107 93.0691C 81.4107 93.7291 81.945694 94.2651 82.6057 94.2651C 83.2657 94.2651 83.8007 93.7291 83.8007 93.0691C 83.8007 92.4091 83.2657 91.8741 82.6057 91.8741z" stroke="#E7BC9E" stroke-width="1" stroke-linecap="round" fill="none" />
    <path id=""  transform="matrix(1 0 0 -1 0 316)"  d="M98.6389 85.2335C 98.1719 85.7005 98.1719 86.4575 98.6389 86.9235C 99.1059 87.390495 99.8629 87.390495 100.3289 86.9235C 100.7959 86.4575 100.7959 85.7005 100.3289 85.2335C 99.8629 84.766495 99.1059 84.766495 98.6389 85.2335z" stroke="#E7BC9E" stroke-width="1" stroke-linecap="round" fill="none" />
    <path id=""  transform="matrix(1 0 0 -1 0 316)"  d="M84.6564 99.2159C 84.1894 99.6829 84.1894 100.439896 84.6564 100.9059C 85.123405 101.372894 85.8804 101.372894 86.346405 100.9059C 86.8134 100.439896 86.8134 99.6829 86.346405 99.2159C 85.8804 98.74889 85.123405 98.74889 84.6564 99.2159z" stroke="#E7BC9E" stroke-width="1" stroke-linecap="round" fill="none" />
    <path id=""  transform="matrix(1 0 0 -1 0 316)"  d="M100.3293 99.2159C 99.8623 98.74889 99.1053 98.74889 98.6393 99.2159C 98.1723 99.6829 98.1723 100.439896 98.6393 100.9059C 99.1053 101.372894 99.8623 101.372894 100.3293 100.9059C 100.7963 100.439896 100.7963 99.6829 100.3293 99.2159z" stroke="#E7BC9E" stroke-width="1" stroke-linecap="round" fill="none" />
    <path id=""  transform="matrix(1 0 0 -1 0 316)"  d="M86.3469 85.2335C 85.8799 84.766495 85.1229 84.766495 84.6569 85.2335C 84.1899 85.7005 84.1899 86.4575 84.6569 86.9235C 85.1229 87.390495 85.8799 87.390495 86.3469 86.9235C 86.8139 86.4575 86.8139 85.7005 86.3469 85.2335z" stroke="#E7BC9E" stroke-width="1" stroke-linecap="round" fill="none" />
    <path id=""  transform="matrix(1 0 0 -1 0 316)"  d="M91.3 102.8849C 89.465004 102.6629 87.782005 101.936905 86.398 100.8489" stroke="#E7BC9E" stroke-width="0.6" stroke-linecap="round" fill="none" />
    <path id=""  transform="matrix(1 0 0 -1 0 316)"  d="M98.5871 100.8507C 97.202095 101.9377 95.521095 102.6627 93.6861 102.8847" stroke="#E7BC9E" stroke-width="0.6" stroke-linecap="round" fill="none" />
    <path id=""  transform="matrix(1 0 0 -1 0 316)"  d="M102.3088 94.2628C 102.0868 96.0948 101.3628 97.7748 100.2778 99.1588" stroke="#E7BC9E" stroke-width="0.6" stroke-linecap="round" fill="none" />
    <path id=""  transform="matrix(1 0 0 -1 0 316)"  d="M100.2736 86.9757C 101.360596 88.3607 102.0866 90.0417 102.3086 91.8767" stroke="#E7BC9E" stroke-width="0.6" stroke-linecap="round" fill="none" />
    <path id=""  transform="matrix(1 0 0 -1 0 316)"  d="M93.6857 83.254C 95.5197 83.476 97.2017 84.201 98.5857 85.287994" stroke="#E7BC9E" stroke-width="0.6" stroke-linecap="round" fill="none" />
    <path id=""  transform="matrix(1 0 0 -1 0 316)"  d="M86.3986 85.2901C 87.7836 84.2021 89.4646 83.4761 91.2996 83.2541" stroke="#E7BC9E" stroke-width="0.6" stroke-linecap="round" fill="none" />
    <path id=""  transform="matrix(1 0 0 -1 0 316)"  d="M82.6779 91.8771C 82.8999 90.0421 83.6249 88.3611 84.7119 86.9771" stroke="#E7BC9E" stroke-width="0.6" stroke-linecap="round" fill="none" />
    <path id=""  transform="matrix(1 0 0 -1 0 316)"  d="M84.7131 99.1642C 83.6251 97.7782 82.90009 96.0982 82.67809 94.2632" stroke="#E7BC9E" stroke-width="0.6" stroke-linecap="round" fill="none" />
    <path id=""  transform="matrix(1 0 0 -1 0 316)"  d="M96.3449 94.2511C 95.9539 95.5241 94.9479 96.5301 93.673904 96.9221" stroke="#E7BC9E" stroke-width="0.6" stroke-linecap="round" fill="none" />
    <path id=""  transform="matrix(1 0 0 -1 0 316)"  d="M93.674 89.2179C 94.94701 89.6089 95.954 90.61491 96.345 91.8889" stroke="#E7BC9E" stroke-width="0.6" stroke-linecap="round" fill="none" />
    <path id=""  transform="matrix(1 0 0 -1 0 316)"  d="M88.6408 91.8878C 89.0328 90.6158 90.0378 89.6088 91.3118 89.217804" stroke="#E7BC9E" stroke-width="0.6" stroke-linecap="round" fill="none" />
    <path id=""  transform="matrix(1 0 0 -1 0 316)"  d="M91.3117 96.922C 90.0437 96.532 89.040695 95.532 88.6457 94.267" stroke="#E7BC9E" stroke-width="0.6" stroke-linecap="round" fill="none" />
    <path id=""  transform="matrix(1 0 0 -1 0 316)"  d="M92.4933 283.0587L92.4933 301.7487" stroke="#E7BC9E" stroke-width="1" stroke-linecap="round" fill="none" />
    <path id=""  transform="matrix(1 0 0 -1 0 316)"  d="M92.4933 65.2941L92.4933 74.509094" stroke="#E7BC9E" stroke-width="0.709" stroke-linecap="round" fill="none" />
    <path id=""  transform="matrix(1 0 0 -1 0 316)"  d="M88.2834 61.1661L79.0584 61.1661" stroke="#E7BC9E" stroke-width="0.709" stroke-linecap="round" fill="none" />
    <path id=""  transform="matrix(1 0 0 -1 0 316)"  d="M96.7023 61.1661L105.9273 61.1661" stroke="#E7BC9E" stroke-width="0.709" stroke-linecap="round" fill="none" />
    <path id=""  transform="matrix(1 0 0 -1 0 316)"  d="M96.1389 63.2716L103.145905 67.3166" stroke="#E7BC9E" stroke-width="0.709" stroke-linecap="round" fill="none" />
    <path id=""  transform="matrix(1 0 0 -1 0 316)"  d="M94.5978 64.8116L98.2888 71.2056" stroke="#E7BC9E" stroke-width="0.709" stroke-linecap="round" fill="none" />
    <path id=""  transform="matrix(1 0 0 -1 0 316)"  d="M90.3889 64.8116L86.6979 71.2056" stroke="#E7BC9E" stroke-width="0.709" stroke-linecap="round" fill="none" />
    <path id=""  transform="matrix(1 0 0 -1 0 316)"  d="M88.8478 63.2716L81.840805 67.3166" stroke="#E7BC9E" stroke-width="0.709" stroke-linecap="round" fill="none" />
    <path id=""  transform="matrix(1 0 0 -1 0 316)"  d="M96.7023 61.1661L105.9273 61.1661" stroke="#E7BC9E" stroke-width="0.709" stroke-linecap="round" fill="none" />
    <path id=""  transform="matrix(1 0 0 -1 0 316)"  d="M91.4572 65.2472L89.8222 71.6872" stroke="#E7BC9E" stroke-width="0.709" stroke-linecap="round" fill="none" />
    <path id=""  transform="matrix(1 0 0 -1 0 316)"  d="M89.5558 64.1817L84.9198 68.9427" stroke="#E7BC9E" stroke-width="0.709" stroke-linecap="round" fill="none" />
    <path id=""  transform="matrix(1 0 0 -1 0 316)"  d="M88.4416 62.3107L82.0466 64.1147" stroke="#E7BC9E" stroke-width="0.709" stroke-linecap="round" fill="none" />
    <path id=""  transform="matrix(1 0 0 -1 0 316)"  d="M93.5676 65.2472L95.2026 71.6872" stroke="#E7BC9E" stroke-width="0.709" stroke-linecap="round" fill="none" />
    <path id=""  transform="matrix(1 0 0 -1 0 316)"  d="M95.468 64.1817L100.105 68.9427" stroke="#E7BC9E" stroke-width="0.709" stroke-linecap="round" fill="none" />
    <path id=""  transform="matrix(1 0 0 -1 0 316)"  d="M96.5822 62.3107L102.978195 64.1147" stroke="#E7BC9E" stroke-width="0.709" stroke-linecap="round" fill="none" />
    <path id=""  transform="matrix(1 0 0 -1 0 316)"  d="M96.1037 297.9308C 107.0697 297.36978 114.6557 296.16278 114.6557 294.76578C 114.6557 293.36877 107.0697 292.1608 96.1037 291.6008" stroke="#E7BC9E" stroke-width="1" stroke-linecap="round" fill="none" />
    <path id=""  transform="matrix(1 0 0 -1 0 316)"  d="M88.882 297.9308C 77.916 297.36978 70.33 296.16278 70.33 294.76578C 70.33 293.36877 77.916 292.1608 88.882 291.6008" stroke="#E7BC9E" stroke-width="1" stroke-linecap="round" fill="none" />
    <path id=""  transform="matrix(1 0 0 -1 0 316)"  d="M96.1037 293.2071C 107.0697 292.64508 114.6557 291.43808 114.6557 290.04208C 114.6557 288.6441 107.0697 287.4361 96.1037 286.8771" stroke="#E7BC9E" stroke-width="1" stroke-linecap="round" fill="none" />
    <path id=""  transform="matrix(1 0 0 -1 0 316)"  d="M88.882 293.2071C 77.916 292.64508 70.33 291.43808 70.33 290.04208C 70.33 288.6441 77.916 287.4361 88.882 286.8771" stroke="#E7BC9E" stroke-width="1" stroke-linecap="round" fill="none" />
    <path id=""  transform="matrix(1 0 0 -1 0 316)"  d="M94.7912 129.9698C 101.7762 129.6138 106.6062 128.8448 106.6062 127.953804C 106.6062 127.064804 101.7762 126.2948 94.7912 125.939804" stroke="#E7BC9E" stroke-width="0.8" stroke-linecap="round" fill="none" />
    <path id=""  transform="matrix(1 0 0 -1 0 316)"  d="M90.1926 129.9698C 83.207596 129.6138 78.376595 128.8448 78.376595 127.953804C 78.376595 127.064804 83.207596 126.2948 90.1926 125.939804" stroke="#E7BC9E" stroke-width="0.8" stroke-linecap="round" fill="none" />
    <path id=""  transform="matrix(1 0 0 -1 0 316)"  d="M108.4953 115.8263C 108.4953 114.4273 107.3603 113.2913 105.9573 113.2913C 104.5573 113.2913 103.4203 114.4273 103.4203 115.8263C 103.4203 116.8543 104.7823 120.4123 105.5103 122.2403C 105.6723 122.6463 106.2423 122.6463 106.4043 122.2403C 107.1333 120.4123 108.4953 116.8543 108.4953 115.8263" stroke="none" fill="#E7BC9E" fill-rule="nonzero" />
    <path id=""  transform="matrix(1 0 0 -1 0 316)"  d="M81.5656 115.8263C 81.5656 114.4273 80.430595 113.2913 79.028595 113.2913C 77.627594 113.2913 76.4916 114.4273 76.4916 115.8263C 76.4916 116.8543 77.8526 120.4123 78.5816 122.2403C 78.7426 122.6463 79.3136 122.6463 79.474594 122.2403C 80.2036 120.4123 81.5656 116.8543 81.5656 115.8263" stroke="none" fill="#E7BC9E" fill-rule="nonzero" />
    <path id=""  transform="matrix(1 0 0 -1 0 316)"  d="M101.3127 70.2931C 101.1057 70.5001 101.1057 70.8351 101.3127 71.0421C 101.5187 71.2481 101.8547 71.2481 102.0607 71.0421C 102.2677 70.8351 102.2677 70.5001 102.0607 70.2931C 101.8547 70.0861 101.5187 70.0861 101.3127 70.2931z" stroke="#E7BC9E" stroke-width="0.5" stroke-linecap="round" fill="none" />
    <path id=""  transform="matrix(1 0 0 -1 0 316)"  d="M82.6926 70.2931C 82.485596 70.5001 82.485596 70.8351 82.6926 71.0421C 82.8996 71.2481 83.2346 71.2481 83.4416 71.0421C 83.6476 70.8351 83.6476 70.5001 83.4416 70.2931C 83.2346 70.0861 82.8996 70.0861 82.6926 70.2931z" stroke="#E7BC9E" stroke-width="0.5" stroke-linecap="round" fill="none" />
    <path id=""  transform="matrix(1 0 0 -1 0 316)"  d="M80.2033 50.6251L80.2033 20.7501" stroke="#E7BC9E" stroke-width="1" stroke-linecap="round" fill="none" />
    <path id=""  transform="matrix(1 0 0 -1 0 316)"  d="M80.2033 14.1876L80.2033 10.9996" stroke="#E7BC9E" stroke-width="1" stroke-linecap="round" fill="none" />
    <path id=""  transform="matrix(1 0 0 -1 0 316)"  d="M88.4641 50.6251L88.4641 20.7501" stroke="#E7BC9E" stroke-width="1" stroke-linecap="round" fill="none" />
    <path id=""  transform="matrix(1 0 0 -1 0 316)"  d="M88.4641 14.1876L88.4641 10.9996" stroke="#E7BC9E" stroke-width="1" stroke-linecap="round" fill="none" />
    <path id=""  transform="matrix(1 0 0 -1 0 316)"  d="M96.7248 50.6251L96.7248 20.7501" stroke="#E7BC9E" stroke-width="1" stroke-linecap="round" fill="none" />
    <path id=""  transform="matrix(1 0 0 -1 0 316)"  d="M96.7248 14.1876L96.7248 10.9996" stroke="#E7BC9E" stroke-width="1" stroke-linecap="round" fill="none" />
    <path id=""  transform="matrix(1 0 0 -1 0 316)"  d="M104.9855 50.6251L104.9855 20.7501" stroke="#E7BC9E" stroke-width="1" stroke-linecap="round" fill="none" />
    <path id=""  transform="matrix(1 0 0 -1 0 316)"  d="M104.9855 14.1876L104.9855 10.9996" stroke="#E7BC9E" stroke-width="1" stroke-linecap="round" fill="none" />
    <path id=""  transform="matrix(1 0 0 -1 0 316)"  d="M80.2033 17.672L80.2033 17.266" stroke="#E7BC9E" stroke-width="1" stroke-linecap="round" fill="none" />
    <path id=""  transform="matrix(1 0 0 -1 0 316)"  d="M88.4641 17.672L88.4641 17.266" stroke="#E7BC9E" stroke-width="1" stroke-linecap="round" fill="none" />
    <path id=""  transform="matrix(1 0 0 -1 0 316)"  d="M96.7248 17.672L96.7248 17.266" stroke="#E7BC9E" stroke-width="1" stroke-linecap="round" fill="none" />
    <path id=""  transform="matrix(1 0 0 -1 0 316)"  d="M104.9855 17.672L104.9855 17.266" stroke="#E7BC9E" stroke-width="1" stroke-linecap="round" fill="none" />
		</g>
	</g>
</g>
</svg>