<?xml version="1.0" standalone="no"?>
<!DOCTYPE svg PUBLIC "-//W3C//DTD SVG 1.0//EN" "http://www.w3.org/TR/2001/REC-SVG-20010904/DTD/svg10.dtd">
<svg xmlns="http://www.w3.org/2000/svg" xmlns:xlink="http://www.w3.org/1999/xlink" id="body_8" width="247" height="421">

<defs>
    <clipPath  id="1">

    <path id=""  clip-rule="evenodd" transform="matrix(1 0 0 1 0 0)"  d="M0 316L0 0L0 0L185 0L185 0L185 316L185 316L0 316z" />    </clipPath>
    <clipPath  id="2">

    <path id=""  clip-rule="evenodd" transform="matrix(1 0 0 1 0 0)"  d="M0 0L185 0L185 0L185 316L185 316L0 316z" />    </clipPath>
</defs>

<g transform="matrix(1.3333 0 0 1.3333 0 0)">
	<g clip-path="url(#1)" >
		<g clip-path="url(#2)" >
    <path id=""  transform="matrix(1 0 0 -1 0 316)"  d="M28.9847 133.2599C 28.492699 133.3769 27.641699 133.54091 26.732698 133.54091C 25.8727 133.54091 24.9597 133.3949 24.2447 132.9229C 23.690699 132.5579 23.2537 132.1449 22.926699 131.7129C 22.599699 132.1449 22.162699 132.5579 21.6087 132.9229C 20.8947 133.3949 19.9807 133.54091 19.120699 133.54091C 18.2117 133.54091 17.360699 133.3769 16.868698 133.2599C 16.610699 133.1979 16.4397 132.9519 16.4697 132.6849C 16.5747 131.7389 16.9707 129.5809 18.424698 128.6219C 18.853699 128.3399 19.2967 128.1239 19.735699 127.9699C 18.874699 127.2499 18.667698 125.799904 18.620699 125.282906C 18.610699 125.1689 18.6717 125.062904 18.7757 125.01791C 19.0637 124.89191 19.7967 124.727905 20.5677 124.727905C 21.1497 124.727905 21.7547 124.8219 22.2067 125.0959C 22.500698 125.2759 22.7377 125.4739 22.926699 125.6829C 23.1157 125.4739 23.3527 125.2759 23.6467 125.0959C 24.0987 124.8219 24.7037 124.727905 25.2857 124.727905C 26.0567 124.727905 26.7897 124.89191 27.0777 125.01791C 27.180698 125.062904 27.2437 125.1689 27.232698 125.282906C 27.1857 125.799904 26.979698 127.2499 26.1187 127.9699C 26.5567 128.1239 26.999699 128.3399 27.4277 128.6219C 28.881699 129.5809 29.2787 131.7389 29.3827 132.6849C 29.4137 132.9519 29.242699 133.1979 28.9847 133.2599" stroke="none" fill="#E7BC9E" fill-rule="nonzero" />
    <path id=""  transform="matrix(1 0 0 -1 0 316)"  d="M28.9847 133.2599C 28.492699 133.3769 27.641699 133.54091 26.732698 133.54091C 25.8727 133.54091 24.9597 133.3949 24.2447 132.9229C 23.690699 132.5579 23.2537 132.1449 22.926699 131.7129C 22.599699 132.1449 22.162699 132.5579 21.6087 132.9229C 20.8947 133.3949 19.9807 133.54091 19.120699 133.54091C 18.2117 133.54091 17.360699 133.3769 16.868698 133.2599C 16.610699 133.1979 16.4397 132.9519 16.4697 132.6849C 16.5747 131.7389 16.9707 129.5809 18.424698 128.6219C 18.853699 128.3399 19.2967 128.1239 19.735699 127.9699C 18.874699 127.2499 18.667698 125.799904 18.620699 125.282906C 18.610699 125.1689 18.6717 125.062904 18.7757 125.01791C 19.0637 124.89191 19.7967 124.727905 20.5677 124.727905C 21.1497 124.727905 21.7547 124.8219 22.2067 125.0959C 22.500698 125.2759 22.7377 125.4739 22.926699 125.6829C 23.1157 125.4739 23.3527 125.2759 23.6467 125.0959C 24.0987 124.8219 24.7037 124.727905 25.2857 124.727905C 26.0567 124.727905 26.7897 124.89191 27.0777 125.01791C 27.180698 125.062904 27.2437 125.1689 27.232698 125.282906C 27.1857 125.799904 26.979698 127.2499 26.1187 127.9699C 26.5567 128.1239 26.999699 128.3399 27.4277 128.6219C 28.881699 129.5809 29.2787 131.7389 29.3827 132.6849C 29.4137 132.9519 29.242699 133.1979 28.9847 133.2599z" stroke="#E7BC9E" stroke-width="0.25" fill="none" />
    <path id=""  transform="matrix(1 0 0 -1 0 316)"  d="M168.1263 133.2599C 167.6353 133.3769 166.7843 133.54091 165.8743 133.54091C 165.01529 133.54091 164.1013 133.3949 163.3873 132.9229C 162.83229 132.5579 162.3963 132.1449 162.0683 131.7129C 161.7423 132.1449 161.3053 132.5579 160.7513 132.9229C 160.0363 133.3949 159.12329 133.54091 158.26329 133.54091C 157.3533 133.54091 156.5033 133.3769 156.01129 133.2599C 155.7533 133.1979 155.58229 132.9519 155.6113 132.6849C 155.7173 131.7389 156.1133 129.5809 157.5663 128.6219C 157.9953 128.3399 158.4383 128.1239 158.8773 127.9699C 158.0163 127.2499 157.8103 125.799904 157.76329 125.282906C 157.7523 125.1689 157.8143 125.062904 157.9183 125.01791C 158.20529 124.89191 158.9383 124.727905 159.70929 124.727905C 160.2923 124.727905 160.8973 124.8219 161.3483 125.0959C 161.6433 125.2759 161.8803 125.4739 162.0683 125.6829C 162.2583 125.4739 162.4953 125.2759 162.78929 125.0959C 163.2403 124.8219 163.8463 124.727905 164.4283 124.727905C 165.1993 124.727905 165.9323 124.89191 166.22029 125.01791C 166.3233 125.062904 166.3853 125.1689 166.37529 125.282906C 166.3283 125.799904 166.12129 127.2499 165.2603 127.9699C 165.6983 128.1239 166.1423 128.3399 166.5703 128.6219C 168.02429 129.5809 168.4203 131.7389 168.5253 132.6849C 168.55629 132.9519 168.3843 133.1979 168.1263 133.2599" stroke="none" fill="#E7BC9E" fill-rule="nonzero" />
    <path id=""  transform="matrix(1 0 0 -1 0 316)"  d="M168.1263 133.2599C 167.6353 133.3769 166.7843 133.54091 165.8743 133.54091C 165.01529 133.54091 164.1013 133.3949 163.3873 132.9229C 162.83229 132.5579 162.3963 132.1449 162.0683 131.7129C 161.7423 132.1449 161.3053 132.5579 160.7513 132.9229C 160.0363 133.3949 159.12329 133.54091 158.26329 133.54091C 157.3533 133.54091 156.5033 133.3769 156.01129 133.2599C 155.7533 133.1979 155.58229 132.9519 155.6113 132.6849C 155.7173 131.7389 156.1133 129.5809 157.5663 128.6219C 157.9953 128.3399 158.4383 128.1239 158.8773 127.9699C 158.0163 127.2499 157.8103 125.799904 157.76329 125.282906C 157.7523 125.1689 157.8143 125.062904 157.9183 125.01791C 158.20529 124.89191 158.9383 124.727905 159.70929 124.727905C 160.2923 124.727905 160.8973 124.8219 161.3483 125.0959C 161.6433 125.2759 161.8803 125.4739 162.0683 125.6829C 162.2583 125.4739 162.4953 125.2759 162.78929 125.0959C 163.2403 124.8219 163.8463 124.727905 164.4283 124.727905C 165.1993 124.727905 165.9323 124.89191 166.22029 125.01791C 166.3233 125.062904 166.3853 125.1689 166.37529 125.282906C 166.3283 125.799904 166.12129 127.2499 165.2603 127.9699C 165.6983 128.1239 166.1423 128.3399 166.5703 128.6219C 168.02429 129.5809 168.4203 131.7389 168.5253 132.6849C 168.55629 132.9519 168.3843 133.1979 168.1263 133.2599z" stroke="#E7BC9E" stroke-width="0.25" fill="none" />
    <path id=""  transform="matrix(1 0 0 -1 0 316)"  d="M163.6683 155.5148C 163.6683 154.6308 162.9523 153.9138 162.0683 153.9138C 161.1853 153.9138 160.4693 154.6308 160.4693 155.5148C 160.4693 156.3978 161.1853 157.1148 162.0683 157.1148C 162.9523 157.1148 163.6683 156.3978 163.6683 155.5148z" stroke="#E7BC9E" stroke-width="0.75" stroke-linecap="round" fill="none" />
    <path id=""  transform="matrix(1 0 0 -1 0 316)"  d="M24.0286 118.2336C 24.0286 117.625595 23.5356 117.1316 22.9256 117.1316C 22.3176 117.1316 21.8246 117.625595 21.8246 118.2336C 21.8246 118.8416 22.3176 119.33659 22.9256 119.33659C 23.5356 119.33659 24.0286 118.8416 24.0286 118.2336z" stroke="#E7BC9E" stroke-width="1" stroke-linecap="round" fill="none" />
    <path id=""  transform="matrix(1 0 0 -1 0 316)"  d="M24.0286 114.0294C 24.0286 113.4214 23.5356 112.92741 22.9256 112.92741C 22.3176 112.92741 21.8246 113.4214 21.8246 114.0294C 21.8246 114.637405 22.3176 115.1324 22.9256 115.1324C 23.5356 115.1324 24.0286 114.637405 24.0286 114.0294z" stroke="#E7BC9E" stroke-width="1" stroke-linecap="round" fill="none" />
    <path id=""  transform="matrix(1 0 0 -1 0 316)"  d="M24.0286 109.8253C 24.0286 109.2173 23.5356 108.723305 22.9256 108.723305C 22.3176 108.723305 21.8246 109.2173 21.8246 109.8253C 21.8246 110.433304 22.3176 110.9283 22.9256 110.9283C 23.5356 110.9283 24.0286 110.433304 24.0286 109.8253z" stroke="#E7BC9E" stroke-width="1" stroke-linecap="round" fill="none" />
    <path id=""  transform="matrix(1 0 0 -1 0 316)"  d="M22.9261 75.7023C 27.2291 75.7023 30.7221 72.2143 30.7221 67.9073C 30.7221 63.6043 27.2291 60.116302 22.9261 60.116302C 18.6241 60.116302 15.1311 63.6043 15.1311 67.9073C 15.1311 72.2143 18.6241 75.7023 22.9261 75.7023z" stroke="#E7BC9E" stroke-width="0.75" stroke-linecap="round" stroke-dasharray="1.25,2.25" fill="none" />
    <path id=""  transform="matrix(1 0 0 -1 0 316)"  d="M22.9261 67.9093C 27.2291 67.9093 30.7221 64.4213 30.7221 60.114304C 30.7221 55.811302 27.2291 52.323303 22.9261 52.323303C 18.6241 52.323303 15.1311 55.811302 15.1311 60.114304C 15.1311 64.4213 18.6241 67.9093 22.9261 67.9093z" stroke="#E7BC9E" stroke-width="0.75" stroke-linecap="round" fill="none" />
    <path id=""  transform="matrix(1 0 0 -1 0 316)"  d="M162.0686 75.7023C 166.3716 75.7023 169.8636 72.2143 169.8636 67.9073C 169.8636 63.6043 166.3716 60.116302 162.0686 60.116302C 157.76561 60.116302 154.2736 63.6043 154.2736 67.9073C 154.2736 72.2143 157.76561 75.7023 162.0686 75.7023z" stroke="#E7BC9E" stroke-width="0.75" stroke-linecap="round" stroke-dasharray="1.25,2.25" fill="none" />
    <path id=""  transform="matrix(1 0 0 -1 0 316)"  d="M22.9261 60.1163C 27.2291 60.1163 30.7221 56.6273 30.7221 52.321297C 30.7221 48.0183 27.2291 44.530296 22.9261 44.530296C 18.6241 44.530296 15.1311 48.0183 15.1311 52.321297C 15.1311 56.6273 18.6241 60.1163 22.9261 60.1163z" stroke="#E7BC9E" stroke-width="0.75" stroke-linecap="round" stroke-dasharray="1.25,2.25" fill="none" />
    <path id=""  transform="matrix(1 0 0 -1 0 316)"  d="M162.0686 60.1163C 166.3716 60.1163 169.8636 56.6273 169.8636 52.321297C 169.8636 48.0183 166.3716 44.530296 162.0686 44.530296C 157.76561 44.530296 154.2736 48.0183 154.2736 52.321297C 154.2736 56.6273 157.76561 60.1163 162.0686 60.1163z" stroke="#E7BC9E" stroke-width="0.75" stroke-linecap="round" stroke-dasharray="1.25,2.25" fill="none" />
    <path id=""  transform="matrix(1 0 0 -1 0 316)"  d="M162.0686 67.9093C 166.3716 67.9093 169.8636 64.4213 169.8636 60.114304C 169.8636 55.811302 166.3716 52.323303 162.0686 52.323303C 157.76561 52.323303 154.2736 55.811302 154.2736 60.114304C 154.2736 64.4213 157.76561 67.9093 162.0686 67.9093z" stroke="#E7BC9E" stroke-width="0.75" stroke-linecap="round" fill="none" />
    <path id=""  transform="matrix(1 0 0 -1 0 316)"  d="M22.927 44.5304C 25.112 44.5304 26.885 42.7584 26.885 40.5714C 26.885 38.3864 25.112 36.6154 22.927 36.6154C 20.741 36.6154 18.968 38.3864 18.968 40.5714C 18.968 42.7584 20.741 44.5304 22.927 44.5304z" stroke="#E7BC9E" stroke-width="0.75" stroke-linecap="round" fill="none" />
    <path id=""  transform="matrix(1 0 0 -1 0 316)"  d="M162.0686 44.5304C 164.2536 44.5304 166.0266 42.7584 166.0266 40.5714C 166.0266 38.3864 164.2536 36.6154 162.0686 36.6154C 159.8836 36.6154 158.11061 38.3864 158.11061 40.5714C 158.11061 42.7584 159.8836 44.5304 162.0686 44.5304z" stroke="#E7BC9E" stroke-width="0.75" stroke-linecap="round" fill="none" />
    <path id=""  transform="matrix(1 0 0 -1 0 316)"  d="M24.0286 105.6212C 24.0286 105.0132 23.5356 104.5182 22.9256 104.5182C 22.3176 104.5182 21.8246 105.0132 21.8246 105.6212C 21.8246 106.2292 22.3176 106.7242 22.9256 106.7242C 23.5356 106.7242 24.0286 106.2292 24.0286 105.6212z" stroke="#E7BC9E" stroke-width="1" stroke-linecap="round" fill="none" />
    <path id=""  transform="matrix(1 0 0 -1 0 316)"  d="M163.1712 118.2336C 163.1712 117.625595 162.6772 117.1316 162.0682 117.1316C 161.4602 117.1316 160.96721 117.625595 160.96721 118.2336C 160.96721 118.8416 161.4602 119.33659 162.0682 119.33659C 162.6772 119.33659 163.1712 118.8416 163.1712 118.2336z" stroke="#E7BC9E" stroke-width="1" stroke-linecap="round" fill="none" />
    <path id=""  transform="matrix(1 0 0 -1 0 316)"  d="M163.1712 114.0294C 163.1712 113.4214 162.6772 112.92741 162.0682 112.92741C 161.4602 112.92741 160.96721 113.4214 160.96721 114.0294C 160.96721 114.637405 161.4602 115.1324 162.0682 115.1324C 162.6772 115.1324 163.1712 114.637405 163.1712 114.0294z" stroke="#E7BC9E" stroke-width="1" stroke-linecap="round" fill="none" />
    <path id=""  transform="matrix(1 0 0 -1 0 316)"  d="M163.1712 109.8253C 163.1712 109.2173 162.6772 108.723305 162.0682 108.723305C 161.4602 108.723305 160.96721 109.2173 160.96721 109.8253C 160.96721 110.433304 161.4602 110.9283 162.0682 110.9283C 162.6772 110.9283 163.1712 110.433304 163.1712 109.8253z" stroke="#E7BC9E" stroke-width="1" stroke-linecap="round" fill="none" />
    <path id=""  transform="matrix(1 0 0 -1 0 316)"  d="M163.1712 105.6212C 163.1712 105.0132 162.6772 104.5182 162.0682 104.5182C 161.4602 104.5182 160.96721 105.0132 160.96721 105.6212C 160.96721 106.2292 161.4602 106.7242 162.0682 106.7242C 162.6772 106.7242 163.1712 106.2292 163.1712 105.6212z" stroke="#E7BC9E" stroke-width="1" stroke-linecap="round" fill="none" />
    <path id=""  transform="matrix(1 0 0 -1 0 316)"  d="M148.0022 141.8351L157.6622 141.8351" stroke="#E7BC9E" stroke-width="0.75" stroke-linecap="round" fill="none" />
    <path id=""  transform="matrix(1 0 0 -1 0 316)"  d="M166.4788 141.8351L176.1398 141.8351" stroke="#E7BC9E" stroke-width="0.75" stroke-linecap="round" fill="none" />
    <path id=""  transform="matrix(1 0 0 -1 0 316)"  d="M165.888 144.0392L173.226 148.2742" stroke="#E7BC9E" stroke-width="0.75" stroke-linecap="round" fill="none" />
    <path id=""  transform="matrix(1 0 0 -1 0 316)"  d="M164.2747 145.6525L169.8757 155.3535" stroke="#E7BC9E" stroke-width="0.75" stroke-linecap="round" fill="none" />
    <path id=""  transform="matrix(1 0 0 -1 0 316)"  d="M159.8665 145.6525L154.2655 155.3535" stroke="#E7BC9E" stroke-width="0.75" stroke-linecap="round" fill="none" />
    <path id=""  transform="matrix(1 0 0 -1 0 316)"  d="M158.2532 144.0392L150.9152 148.2742" stroke="#E7BC9E" stroke-width="0.75" stroke-linecap="round" fill="none" />
    <path id=""  transform="matrix(1 0 0 -1 0 316)"  d="M166.4788 141.8351L176.1398 141.8351" stroke="#E7BC9E" stroke-width="0.75" stroke-linecap="round" fill="none" />
    <path id=""  transform="matrix(1 0 0 -1 0 316)"  d="M160.9856 146.1076L159.27359 152.85161" stroke="#E7BC9E" stroke-width="0.75" stroke-linecap="round" fill="none" />
    <path id=""  transform="matrix(1 0 0 -1 0 316)"  d="M158.9944 144.9923L154.1404 149.97629" stroke="#E7BC9E" stroke-width="0.75" stroke-linecap="round" fill="none" />
    <path id=""  transform="matrix(1 0 0 -1 0 316)"  d="M157.8274 143.0314L151.1314 144.9214" stroke="#E7BC9E" stroke-width="0.75" stroke-linecap="round" fill="none" />
    <path id=""  transform="matrix(1 0 0 -1 0 316)"  d="M163.1956 146.1076L164.90761 152.85161" stroke="#E7BC9E" stroke-width="0.75" stroke-linecap="round" fill="none" />
    <path id=""  transform="matrix(1 0 0 -1 0 316)"  d="M165.1868 144.9923L170.0408 149.97629" stroke="#E7BC9E" stroke-width="0.75" stroke-linecap="round" fill="none" />
    <path id=""  transform="matrix(1 0 0 -1 0 316)"  d="M166.3538 143.0314L173.0498 144.9214" stroke="#E7BC9E" stroke-width="0.75" stroke-linecap="round" fill="none" />
    <path id=""  transform="matrix(1 0 0 -1 0 316)"  d="M165.2747 140.2706C 163.50371 140.2706 162.06871 142.2126 162.06871 144.6086C 162.06871 142.2126 160.6327 140.2706 158.86371 140.2706C 160.6327 140.2706 162.06871 138.3286 162.06871 135.9326C 162.06871 138.3286 163.50371 140.2706 165.2747 140.2706z" stroke="#E7BC9E" stroke-width="0.75" stroke-linecap="round" fill="none" />
    <path id=""  transform="matrix(1 0 0 -1 0 316)"  d="M162.0706 167.1769L162.0706 157.11389" stroke="#E7BC9E" stroke-width="0.75" stroke-linecap="round" fill="none" />
    <path id=""  transform="matrix(1 0 0 -1 0 316)"  d="M24.5257 155.5148C 24.5257 154.6308 23.8097 153.9138 22.9257 153.9138C 22.0437 153.9138 21.3277 154.6308 21.3277 155.5148C 21.3277 156.3978 22.0437 157.1148 22.9257 157.1148C 23.8097 157.1148 24.5257 156.3978 24.5257 155.5148z" stroke="#E7BC9E" stroke-width="0.75" stroke-linecap="round" fill="none" />
    <path id=""  transform="matrix(1 0 0 -1 0 316)"  d="M8.8597 141.8351L18.5207 141.8351" stroke="#E7BC9E" stroke-width="0.75" stroke-linecap="round" fill="none" />
    <path id=""  transform="matrix(1 0 0 -1 0 316)"  d="M27.3362 141.8351L36.9982 141.8351" stroke="#E7BC9E" stroke-width="0.75" stroke-linecap="round" fill="none" />
    <path id=""  transform="matrix(1 0 0 -1 0 316)"  d="M26.7464 144.0392L34.0844 148.2742" stroke="#E7BC9E" stroke-width="0.75" stroke-linecap="round" fill="none" />
    <path id=""  transform="matrix(1 0 0 -1 0 316)"  d="M25.1321 145.6525L30.7341 155.3535" stroke="#E7BC9E" stroke-width="0.75" stroke-linecap="round" fill="none" />
    <path id=""  transform="matrix(1 0 0 -1 0 316)"  d="M20.7249 145.6525L15.122899 155.3535" stroke="#E7BC9E" stroke-width="0.75" stroke-linecap="round" fill="none" />
    <path id=""  transform="matrix(1 0 0 -1 0 316)"  d="M19.1116 144.0392L11.773602 148.2742" stroke="#E7BC9E" stroke-width="0.75" stroke-linecap="round" fill="none" />
    <path id=""  transform="matrix(1 0 0 -1 0 316)"  d="M27.3362 141.8351L36.9982 141.8351" stroke="#E7BC9E" stroke-width="0.75" stroke-linecap="round" fill="none" />
    <path id=""  transform="matrix(1 0 0 -1 0 316)"  d="M21.844 146.1076L20.131 152.85161" stroke="#E7BC9E" stroke-width="0.75" stroke-linecap="round" fill="none" />
    <path id=""  transform="matrix(1 0 0 -1 0 316)"  d="M19.8528 144.9923L14.997801 149.97629" stroke="#E7BC9E" stroke-width="0.75" stroke-linecap="round" fill="none" />
    <path id=""  transform="matrix(1 0 0 -1 0 316)"  d="M18.6858 143.0314L11.9888 144.9214" stroke="#E7BC9E" stroke-width="0.75" stroke-linecap="round" fill="none" />
    <path id=""  transform="matrix(1 0 0 -1 0 316)"  d="M24.053 146.1076L25.765999 152.85161" stroke="#E7BC9E" stroke-width="0.75" stroke-linecap="round" fill="none" />
    <path id=""  transform="matrix(1 0 0 -1 0 316)"  d="M26.0442 144.9923L30.8992 149.97629" stroke="#E7BC9E" stroke-width="0.75" stroke-linecap="round" fill="none" />
    <path id=""  transform="matrix(1 0 0 -1 0 316)"  d="M27.2112 143.0314L33.9072 144.9214" stroke="#E7BC9E" stroke-width="0.75" stroke-linecap="round" fill="none" />
    <path id=""  transform="matrix(1 0 0 -1 0 316)"  d="M26.1321 140.2706C 24.362099 140.2706 22.9271 142.2126 22.9271 144.6086C 22.9271 142.2126 21.4911 140.2706 19.7211 140.2706C 21.4911 140.2706 22.9271 138.3286 22.9271 135.9326C 22.9271 138.3286 24.362099 140.2706 26.1321 140.2706z" stroke="#E7BC9E" stroke-width="0.75" stroke-linecap="round" fill="none" />
    <path id=""  transform="matrix(1 0 0 -1 0 316)"  d="M22.928 167.1769L22.928 157.11389" stroke="#E7BC9E" stroke-width="0.75" stroke-linecap="round" fill="none" />
    <path id=""  transform="matrix(1 0 0 -1 0 316)"  d="M162.0686 97.9064L162.0686 68.0314" stroke="#E7BC9E" stroke-width="0.75" stroke-linecap="round" fill="none" />
    <path id=""  transform="matrix(1 0 0 -1 0 316)"  d="M22.928 97.9064L22.928 68.0314" stroke="#E7BC9E" stroke-width="0.75" stroke-linecap="round" fill="none" />
    <path id=""  transform="matrix(1 0 0 -1 0 316)"  d="M36.9554 40.5724L28.5794 40.5724" stroke="#E7BC9E" stroke-width="0.75" stroke-linecap="round" fill="none" />
    <path id=""  transform="matrix(1 0 0 -1 0 316)"  d="M17.2747 40.5724L8.848701 40.5724" stroke="#E7BC9E" stroke-width="0.75" stroke-linecap="round" fill="none" />
    <path id=""  transform="matrix(1 0 0 -1 0 316)"  d="M18.0315 37.7462L8.622499 32.3142" stroke="#E7BC9E" stroke-width="0.75" stroke-linecap="round" fill="none" />
    <path id=""  transform="matrix(1 0 0 -1 0 316)"  d="M20.1009 35.6769L12.9189005 23.2379" stroke="#E7BC9E" stroke-width="0.75" stroke-linecap="round" fill="none" />
    <path id=""  transform="matrix(1 0 0 -1 0 316)"  d="M25.7532 35.6769L32.9352 23.2379" stroke="#E7BC9E" stroke-width="0.75" stroke-linecap="round" fill="none" />
    <path id=""  transform="matrix(1 0 0 -1 0 316)"  d="M27.8216 37.7462L37.231598 32.3142" stroke="#E7BC9E" stroke-width="0.75" stroke-linecap="round" fill="none" />
    <path id=""  transform="matrix(1 0 0 -1 0 316)"  d="M17.2747 40.5724L8.848701 40.5724" stroke="#E7BC9E" stroke-width="0.75" stroke-linecap="round" fill="none" />
    <path id=""  transform="matrix(1 0 0 -1 0 316)"  d="M24.3186 35.0929L26.5136 26.4469" stroke="#E7BC9E" stroke-width="0.75" stroke-linecap="round" stroke-dasharray="1.25,1.25" fill="none" />
    <path id=""  transform="matrix(1 0 0 -1 0 316)"  d="M26.8714 36.5236L33.0974 30.131601" stroke="#E7BC9E" stroke-width="0.75" stroke-linecap="round" stroke-dasharray="1.25,1.25" fill="none" />
    <path id=""  transform="matrix(1 0 0 -1 0 316)"  d="M28.3685 39.0382L36.955498 36.6152" stroke="#E7BC9E" stroke-width="0.75" stroke-linecap="round" stroke-dasharray="1.25,1.25" fill="none" />
    <path id=""  transform="matrix(1 0 0 -1 0 316)"  d="M21.4847 35.0929L19.2897 26.4469" stroke="#E7BC9E" stroke-width="0.75" stroke-linecap="round" stroke-dasharray="1.25,1.25" fill="none" />
    <path id=""  transform="matrix(1 0 0 -1 0 316)"  d="M18.9319 36.5236L12.7049 30.131601" stroke="#E7BC9E" stroke-width="0.75" stroke-linecap="round" stroke-dasharray="1.25,1.25" fill="none" />
    <path id=""  transform="matrix(1 0 0 -1 0 316)"  d="M17.4358 39.0382L8.848801 36.6152" stroke="#E7BC9E" stroke-width="0.75" stroke-linecap="round" stroke-dasharray="1.25,1.25" fill="none" />
    <path id=""  transform="matrix(1 0 0 -1 0 316)"  d="M22.928 21.9328L22.928 34.8368" stroke="#E7BC9E" stroke-width="0.75" stroke-linecap="round" fill="none" />
    <path id=""  transform="matrix(1 0 0 -1 0 316)"  d="M176.097 40.5724L167.721 40.5724" stroke="#E7BC9E" stroke-width="0.75" stroke-linecap="round" fill="none" />
    <path id=""  transform="matrix(1 0 0 -1 0 316)"  d="M156.4163 40.5724L147.99031 40.5724" stroke="#E7BC9E" stroke-width="0.75" stroke-linecap="round" fill="none" />
    <path id=""  transform="matrix(1 0 0 -1 0 316)"  d="M157.1731 37.7462L147.7641 32.3142" stroke="#E7BC9E" stroke-width="0.75" stroke-linecap="round" fill="none" />
    <path id=""  transform="matrix(1 0 0 -1 0 316)"  d="M159.2425 35.6769L152.06049 23.2379" stroke="#E7BC9E" stroke-width="0.75" stroke-linecap="round" fill="none" />
    <path id=""  transform="matrix(1 0 0 -1 0 316)"  d="M164.8948 35.6769L172.0778 23.2379" stroke="#E7BC9E" stroke-width="0.75" stroke-linecap="round" fill="none" />
    <path id=""  transform="matrix(1 0 0 -1 0 316)"  d="M166.9642 37.7462L176.3732 32.3142" stroke="#E7BC9E" stroke-width="0.75" stroke-linecap="round" fill="none" />
    <path id=""  transform="matrix(1 0 0 -1 0 316)"  d="M156.4163 40.5724L147.99031 40.5724" stroke="#E7BC9E" stroke-width="0.75" stroke-linecap="round" fill="none" />
    <path id=""  transform="matrix(1 0 0 -1 0 316)"  d="M163.4603 35.0929L165.6553 26.4469" stroke="#E7BC9E" stroke-width="0.75" stroke-linecap="round" stroke-dasharray="1.25,1.25" fill="none" />
    <path id=""  transform="matrix(1 0 0 -1 0 316)"  d="M166.013 36.5236L172.239 30.131601" stroke="#E7BC9E" stroke-width="0.75" stroke-linecap="round" stroke-dasharray="1.25,1.25" fill="none" />
    <path id=""  transform="matrix(1 0 0 -1 0 316)"  d="M167.5101 39.0382L176.0971 36.6152" stroke="#E7BC9E" stroke-width="0.75" stroke-linecap="round" stroke-dasharray="1.25,1.25" fill="none" />
    <path id=""  transform="matrix(1 0 0 -1 0 316)"  d="M160.6263 35.0929L158.43129 26.4469" stroke="#E7BC9E" stroke-width="0.75" stroke-linecap="round" stroke-dasharray="1.25,1.25" fill="none" />
    <path id=""  transform="matrix(1 0 0 -1 0 316)"  d="M158.0735 36.5236L151.8475 30.131601" stroke="#E7BC9E" stroke-width="0.75" stroke-linecap="round" stroke-dasharray="1.25,1.25" fill="none" />
    <path id=""  transform="matrix(1 0 0 -1 0 316)"  d="M156.5774 39.0382L147.99039 36.6152" stroke="#E7BC9E" stroke-width="0.75" stroke-linecap="round" stroke-dasharray="1.25,1.25" fill="none" />
    <path id=""  transform="matrix(1 0 0 -1 0 316)"  d="M162.0696 21.9328L162.0696 34.8368" stroke="#E7BC9E" stroke-width="0.75" stroke-linecap="round" fill="none" />
		</g>
	</g>
</g>
</svg>