<?xml version="1.0" standalone="no"?>
<!DOCTYPE svg PUBLIC "-//W3C//DTD SVG 1.0//EN" "http://www.w3.org/TR/2001/REC-SVG-20010904/DTD/svg10.dtd">
<svg xmlns="http://www.w3.org/2000/svg" xmlns:xlink="http://www.w3.org/1999/xlink" id="body_9" width="247" height="421">

<defs>
    <clipPath  id="1">

    <path id=""  clip-rule="evenodd" transform="matrix(1 0 0 1 0 0)"  d="M0 316L0 0L0 0L185 0L185 0L185 316L185 316L0 316z" />    </clipPath>
    <clipPath  id="2">

    <path id=""  clip-rule="evenodd" transform="matrix(1 0 0 1 0 0)"  d="M0 0L185 0L185 0L185 316L185 316L0 316z" />    </clipPath>
</defs>

<g transform="matrix(1.3333 0 0 1.3333 0 0)">
	<g clip-path="url(#1)" >
		<g clip-path="url(#2)" >
    <path id=""  transform="matrix(1 0 0 -1 0 316)"  d="M162.5836 117.9678C 162.5836 116.9898 162.3546 116.19679 162.0706 116.19679C 161.7876 116.19679 161.55861 116.9898 161.55861 117.9678C 161.55861 118.94579 161.7876 119.7388 162.0706 119.7388C 162.3546 119.7388 162.5836 118.94579 162.5836 117.9678z" stroke="#E7BC9E" stroke-width="0.5" fill="none" />
    <path id=""  transform="matrix(1 0 0 -1 0 316)"  d="M162.5836 110.7402C 162.5836 109.7622 162.3546 108.9702 162.0706 108.9702C 161.7876 108.9702 161.55861 109.7622 161.55861 110.7402C 161.55861 111.71919 161.7876 112.5112 162.0706 112.5112C 162.3546 112.5112 162.5836 111.71919 162.5836 110.7402z" stroke="#E7BC9E" stroke-width="0.5" fill="none" />
    <path id=""  transform="matrix(1 0 0 -1 0 316)"  d="M165.6842 113.8418C 164.7062 113.8418 163.91321 114.07079 163.91321 114.3548C 163.91321 114.637794 164.7062 114.8668 165.6842 114.8668C 166.6622 114.8668 167.4552 114.637794 167.4552 114.3548C 167.4552 114.07079 166.6622 113.8418 165.6842 113.8418z" stroke="#E7BC9E" stroke-width="0.5" fill="none" />
    <path id=""  transform="matrix(1 0 0 -1 0 316)"  d="M158.4576 113.8418C 157.47859 113.8418 156.6866 114.07079 156.6866 114.3548C 156.6866 114.637794 157.47859 114.8668 158.4576 114.8668C 159.4356 114.8668 160.2276 114.637794 160.2276 114.3548C 160.2276 114.07079 159.4356 113.8418 158.4576 113.8418z" stroke="#E7BC9E" stroke-width="0.5" fill="none" />
    <path id=""  transform="matrix(1 0 0 -1 0 316)"  d="M164.9889 116.5469C 164.29791 115.855896 163.5749 115.4569 163.3739 115.6569C 163.1739 115.857895 163.5719 116.579895 164.26291 117.2719C 164.95491 117.9629 165.67691 118.3609 165.87791 118.1609C 166.07791 117.9609 165.6799 117.2379 164.9889 116.5469" stroke="none" fill="#E7BC9E" fill-rule="nonzero" />
    <path id=""  transform="matrix(1 0 0 -1 0 316)"  d="M164.9889 116.5469C 164.29791 115.855896 163.5749 115.4569 163.3739 115.6569C 163.1739 115.857895 163.5719 116.579895 164.26291 117.2719C 164.95491 117.9629 165.67691 118.3609 165.87791 118.1609C 166.07791 117.9609 165.6799 117.2379 164.9889 116.5469z" stroke="#E7BC9E" stroke-width="0.5" fill="none" />
    <path id=""  transform="matrix(1 0 0 -1 0 316)"  d="M159.8785 111.4365C 159.1875 110.7455 158.4645 110.346504 158.2645 110.5465C 158.06349 110.7475 158.46149 111.4695 159.1525 112.1615C 159.8445 112.8525 160.5665 113.2505 160.7675 113.0505C 160.9675 112.8505 160.56949 112.1275 159.8785 111.4365" stroke="none" fill="#E7BC9E" fill-rule="nonzero" />
    <path id=""  transform="matrix(1 0 0 -1 0 316)"  d="M159.8785 111.4365C 159.1875 110.7455 158.4645 110.346504 158.2645 110.5465C 158.06349 110.7475 158.46149 111.4695 159.1525 112.1615C 159.8445 112.8525 160.5665 113.2505 160.7675 113.0505C 160.9675 112.8505 160.56949 112.1275 159.8785 111.4365z" stroke="#E7BC9E" stroke-width="0.5" fill="none" />
    <path id=""  transform="matrix(1 0 0 -1 0 316)"  d="M164.2633 111.4365C 163.57231 112.1275 163.17331 112.8505 163.3733 113.0505C 163.5753 113.2505 164.2973 112.8525 164.9893 112.1615C 165.68031 111.4695 166.0773 110.7475 165.8773 110.5465C 165.6773 110.346504 164.9543 110.7455 164.2633 111.4365" stroke="none" fill="#E7BC9E" fill-rule="nonzero" />
    <path id=""  transform="matrix(1 0 0 -1 0 316)"  d="M164.2633 111.4365C 163.57231 112.1275 163.17331 112.8505 163.3733 113.0505C 163.5753 113.2505 164.2973 112.8525 164.9893 112.1615C 165.68031 111.4695 166.0773 110.7475 165.8773 110.5465C 165.6773 110.346504 164.9543 110.7455 164.2633 111.4365z" stroke="#E7BC9E" stroke-width="0.5" fill="none" />
    <path id=""  transform="matrix(1 0 0 -1 0 316)"  d="M159.153 116.5469C 158.462 117.2379 158.063 117.9609 158.26399 118.1609C 158.465 118.3609 159.187 117.9629 159.879 117.2719C 160.57 116.579895 160.967 115.857895 160.767 115.6569C 160.567 115.4569 159.844 115.855896 159.153 116.5469" stroke="none" fill="#E7BC9E" fill-rule="nonzero" />
    <path id=""  transform="matrix(1 0 0 -1 0 316)"  d="M159.153 116.5469C 158.462 117.2379 158.063 117.9609 158.26399 118.1609C 158.465 118.3609 159.187 117.9629 159.879 117.2719C 160.57 116.579895 160.967 115.857895 160.767 115.6569C 160.567 115.4569 159.844 115.855896 159.153 116.5469z" stroke="#E7BC9E" stroke-width="0.5" fill="none" />
    <path id=""  transform="matrix(1 0 0 -1 0 316)"  d="M159.6715 49.0557L162.06949 76.846695L162.06949 76.846695L164.4695 49.0557L164.4695 49.0557L162.06949 35.3867L162.06949 35.3867L159.6715 49.0557z" stroke="#E7BC9E" stroke-width="0.75" stroke-linecap="round" fill="none" />
    <path id=""  transform="matrix(1 0 0 -1 0 316)"  d="M153.8082 34.4502L162.0672 76.8462L162.0672 76.8462L170.33319 34.4502L170.33319 34.4502L162.0672 13.5971985L162.0672 13.5971985L153.8082 34.4502z" stroke="#E7BC9E" stroke-width="0.75" stroke-linecap="round" fill="none" />
    <path id=""  transform="matrix(1 0 0 -1 0 316)"  d="M172.484 95.8135C 172.484 97.3065 170.86699 98.1655 168.04999 98.1655C 167.9 98.1655 167.793 98.1365 167.64899 98.1315C 167.75499 98.2295 167.859 98.2735 167.963 98.3765C 169.944 100.3585 170.485 102.1045 169.43199 103.1745C 168.368 104.2395 166.633 103.7095 164.63399 101.7055C 164.53099 101.6015 164.487 101.4965 164.38899 101.3905C 164.394 101.5325 164.422 101.6385 164.422 101.7875C 164.422 104.6035 163.564 106.2205 162.071 106.2205C 160.57799 106.2205 159.719 104.6035 159.719 101.7875C 159.719 101.6485 159.74599 101.5495 159.75 101.417496C 159.65799 101.5155 159.60599 101.6055 159.50699 101.7055C 157.51399 103.6925 155.765 104.2335 154.704 103.1685C 153.651 102.1105 154.189 100.3585 156.17899 98.3765C 156.25099 98.3055 156.35599 98.2155 156.439 98.1355C 156.314 98.139496 156.221 98.1655 156.09099 98.1655C 153.275 98.1655 151.65799 97.3065 151.65799 95.8135C 151.65799 94.3145 153.275 93.4565 156.09099 93.4565C 156.23 93.4565 156.32799 93.4825 156.461 93.486496C 156.36499 93.3965 156.276 93.3465 156.17899 93.250496C 155.42899 92.4975 154.177 91.0505 154.183 89.7575C 154.183 89.2515 154.372 88.7875 154.70099 88.4635L154.70099 88.4635L155.388 87.9285L155.388 87.9285L156.01399 87.9225L156.01399 87.9225L156.023 87.9225C 157.31999 87.9225 158.76 89.1745 159.50699 89.9215C 159.60599 90.0215 159.65799 90.111496 159.75099 90.2095C 159.74599 90.0755 159.719 89.9745 159.719 89.8345C 159.719 87.0175 160.57799 85.4005 162.071 85.4005C 163.564 85.4005 164.422 87.0175 164.422 89.8345C 164.422 89.9635 164.39699 90.0565 164.39299 90.1815C 164.47299 90.098495 164.56299 89.9945 164.63399 89.9215C 165.381 89.1745 166.816 87.9225 168.11499 87.9225L168.11499 87.9225L168.12099 87.9225L168.12099 87.9225L168.991 88.0105L168.991 88.0105L169.43199 88.4525C 170.485 89.5045 169.95 91.2515 167.963 93.250496C 167.86499 93.3465 167.777 93.3965 167.681 93.486496C 167.814 93.4825 167.91199 93.4565 168.04999 93.4565C 170.86699 93.4565 172.484 94.3145 172.484 95.8135z" stroke="#E7BC9E" stroke-width="0.75" stroke-linecap="round" fill="none" />
    <path id=""  transform="matrix(1 0 0 -1 0 316)"  d="M23.442 117.9678C 23.442 116.9898 23.213 116.19679 22.928999 116.19679C 22.646 116.19679 22.417 116.9898 22.417 117.9678C 22.417 118.94579 22.646 119.7388 22.928999 119.7388C 23.213 119.7388 23.442 118.94579 23.442 117.9678z" stroke="#E7BC9E" stroke-width="0.5" fill="none" />
    <path id=""  transform="matrix(1 0 0 -1 0 316)"  d="M23.442 110.7402C 23.442 109.7622 23.213 108.9702 22.928999 108.9702C 22.646 108.9702 22.417 109.7622 22.417 110.7402C 22.417 111.71919 22.646 112.5112 22.928999 112.5112C 23.213 112.5112 23.442 111.71919 23.442 110.7402z" stroke="#E7BC9E" stroke-width="0.5" fill="none" />
    <path id=""  transform="matrix(1 0 0 -1 0 316)"  d="M26.5426 113.8418C 25.5646 113.8418 24.7716 114.07079 24.7716 114.3548C 24.7716 114.637794 25.5646 114.8668 26.5426 114.8668C 27.520601 114.8668 28.3136 114.637794 28.3136 114.3548C 28.3136 114.07079 27.520601 113.8418 26.5426 113.8418z" stroke="#E7BC9E" stroke-width="0.5" fill="none" />
    <path id=""  transform="matrix(1 0 0 -1 0 316)"  d="M19.3151 113.8418C 18.3371 113.8418 17.5451 114.07079 17.5451 114.3548C 17.5451 114.637794 18.3371 114.8668 19.3151 114.8668C 20.2941 114.8668 21.0861 114.637794 21.0861 114.3548C 21.0861 114.07079 20.2941 113.8418 19.3151 113.8418z" stroke="#E7BC9E" stroke-width="0.5" fill="none" />
    <path id=""  transform="matrix(1 0 0 -1 0 316)"  d="M25.8463 116.5469C 25.1553 115.855896 24.4323 115.4569 24.2323 115.6569C 24.0323 115.857895 24.4303 116.579895 25.1213 117.2719C 25.8133 117.9629 26.5353 118.3609 26.7363 118.1609C 26.9363 117.9609 26.5373 117.2379 25.8463 116.5469" stroke="none" fill="#E7BC9E" fill-rule="nonzero" />
    <path id=""  transform="matrix(1 0 0 -1 0 316)"  d="M25.8463 116.5469C 25.1553 115.855896 24.4323 115.4569 24.2323 115.6569C 24.0323 115.857895 24.4303 116.579895 25.1213 117.2719C 25.8133 117.9629 26.5353 118.3609 26.7363 118.1609C 26.9363 117.9609 26.5373 117.2379 25.8463 116.5469z" stroke="#E7BC9E" stroke-width="0.5" fill="none" />
    <path id=""  transform="matrix(1 0 0 -1 0 316)"  d="M20.736 111.4365C 20.046 110.7455 19.322 110.346504 19.122 110.5465C 18.922 110.7475 19.32 111.4695 20.011 112.1615C 20.703 112.8525 21.425 113.2505 21.626 113.0505C 21.826 112.8505 21.427 112.1275 20.736 111.4365" stroke="none" fill="#E7BC9E" fill-rule="nonzero" />
    <path id=""  transform="matrix(1 0 0 -1 0 316)"  d="M20.736 111.4365C 20.046 110.7455 19.322 110.346504 19.122 110.5465C 18.922 110.7475 19.32 111.4695 20.011 112.1615C 20.703 112.8525 21.425 113.2505 21.626 113.0505C 21.826 112.8505 21.427 112.1275 20.736 111.4365z" stroke="#E7BC9E" stroke-width="0.5" fill="none" />
    <path id=""  transform="matrix(1 0 0 -1 0 316)"  d="M25.1217 111.4365C 24.4307 112.1275 24.0317 112.8505 24.2317 113.0505C 24.432701 113.2505 25.154701 112.8525 25.8467 112.1615C 26.5377 111.4695 26.9357 110.7475 26.7357 110.5465C 26.5357 110.346504 25.8127 110.7455 25.1217 111.4365" stroke="none" fill="#E7BC9E" fill-rule="nonzero" />
    <path id=""  transform="matrix(1 0 0 -1 0 316)"  d="M25.1217 111.4365C 24.4307 112.1275 24.0317 112.8505 24.2317 113.0505C 24.432701 113.2505 25.154701 112.8525 25.8467 112.1615C 26.5377 111.4695 26.9357 110.7475 26.7357 110.5465C 26.5357 110.346504 25.8127 110.7455 25.1217 111.4365z" stroke="#E7BC9E" stroke-width="0.5" fill="none" />
    <path id=""  transform="matrix(1 0 0 -1 0 316)"  d="M20.0114 116.5469C 19.3204 117.2379 18.9214 117.9609 19.1214 118.1609C 19.322401 118.3609 20.0454 117.9629 20.7364 117.2719C 21.4274 116.579895 21.8254 115.857895 21.6254 115.6569C 21.4254 115.4569 20.7024 115.855896 20.0114 116.5469" stroke="none" fill="#E7BC9E" fill-rule="nonzero" />
    <path id=""  transform="matrix(1 0 0 -1 0 316)"  d="M20.0114 116.5469C 19.3204 117.2379 18.9214 117.9609 19.1214 118.1609C 19.322401 118.3609 20.0454 117.9629 20.7364 117.2719C 21.4274 116.579895 21.8254 115.857895 21.6254 115.6569C 21.4254 115.4569 20.7024 115.855896 20.0114 116.5469z" stroke="#E7BC9E" stroke-width="0.5" fill="none" />
    <path id=""  transform="matrix(1 0 0 -1 0 316)"  d="M20.5299 49.0557L22.9279 76.846695L22.9279 76.846695L25.3279 49.0557L25.3279 49.0557L22.9279 35.3867L22.9279 35.3867L20.5299 49.0557z" stroke="#E7BC9E" stroke-width="0.75" stroke-linecap="round" fill="none" />
    <path id=""  transform="matrix(1 0 0 -1 0 316)"  d="M33.3414 95.8135C 33.3414 97.3065 31.7254 98.1655 28.9084 98.1655C 28.7584 98.1655 28.6514 98.1365 28.5074 98.1315C 28.6124 98.2295 28.7164 98.2735 28.8204 98.3765C 30.8014 100.3585 31.3424 102.1045 30.2904 103.1745C 29.2264 104.2395 27.4914 103.7095 25.492401 101.7055C 25.3894 101.6015 25.3454 101.4965 25.2474 101.3905C 25.2524 101.5325 25.2804 101.6385 25.2804 101.7875C 25.2804 104.6035 24.422401 106.2205 22.929401 106.2205C 21.4354 106.2205 20.5764 104.6035 20.5764 101.7875C 20.5764 101.6485 20.6044 101.5495 20.6084 101.417496C 20.5164 101.5155 20.464401 101.6055 20.3654 101.7055C 18.3724 103.6925 16.6224 104.2335 15.562401 103.1685C 14.509399 102.1105 15.0473995 100.3585 17.0374 98.3765C 17.1094 98.3055 17.2134 98.2155 17.2974 98.1355C 17.1724 98.139496 17.079401 98.1655 16.9494 98.1655C 14.1334 98.1655 12.516399 97.3065 12.516399 95.8135C 12.516399 94.3145 14.1334 93.4565 16.9494 93.4565C 17.0874 93.4565 17.1864 93.4825 17.3194 93.486496C 17.2234 93.3965 17.1344 93.3465 17.0374 93.250496C 16.2874 92.4975 15.0354 91.0505 15.041401 89.7575C 15.041401 89.2515 15.229401 88.7875 15.559401 88.4635L15.559401 88.4635L16.2464 87.9285L16.2464 87.9285L16.8724 87.9225L16.8724 87.9225L16.881401 87.9225C 18.1784 87.9225 19.6184 89.1745 20.3654 89.9215C 20.464401 90.0215 20.5164 90.111496 20.6094 90.2095C 20.6044 90.0755 20.5764 89.9745 20.5764 89.8345C 20.5764 87.0175 21.4354 85.4005 22.929401 85.4005C 24.422401 85.4005 25.2804 87.0175 25.2804 89.8345C 25.2804 89.9635 25.2554 90.0565 25.2514 90.1815C 25.3314 90.098495 25.4204 89.9945 25.492401 89.9215C 26.2384 89.1745 27.6734 87.9225 28.9734 87.9225L28.9734 87.9225L28.9794 87.9225L28.9794 87.9225L29.8494 88.0105L29.8494 88.0105L30.2904 88.4525C 31.3424 89.5045 30.8074 91.2515 28.8204 93.250496C 28.7234 93.3465 28.6354 93.3965 28.5394 93.486496C 28.6714 93.4825 28.770401 93.4565 28.9084 93.4565C 31.7254 93.4565 33.3414 94.3145 33.3414 95.8135z" stroke="#E7BC9E" stroke-width="0.75" stroke-linecap="round" fill="none" />
    <path id=""  transform="matrix(1 0 0 -1 0 316)"  d="M25.984 128.2363C 25.984 126.5493 24.616999 125.1803 22.928999 125.1803C 21.241999 125.1803 19.873999 126.5493 19.873999 128.2363C 19.873999 129.9233 21.241999 131.29129 22.928999 131.29129C 24.616999 131.29129 25.984 129.9233 25.984 128.2363z" stroke="#E7BC9E" stroke-width="0.75" stroke-linecap="round" fill="none" />
    <path id=""  transform="matrix(1 0 0 -1 0 316)"  d="M165.1256 128.2363C 165.1256 126.5493 163.75859 125.1803 162.0706 125.1803C 160.38359 125.1803 159.0156 126.5493 159.0156 128.2363C 159.0156 129.9233 160.38359 131.29129 162.0706 131.29129C 163.75859 131.29129 165.1256 129.9233 165.1256 128.2363z" stroke="#E7BC9E" stroke-width="0.75" stroke-linecap="round" fill="none" />
    <path id=""  transform="matrix(1 0 0 -1 0 316)"  d="M163.4117 132.6328C 163.4117 131.8918 162.8107 131.2908 162.0707 131.2908C 161.3297 131.2908 160.7287 131.8918 160.7287 132.6328C 160.7287 133.3728 161.3297 133.9738 162.0707 133.9738C 162.8107 133.9738 163.4117 133.3728 163.4117 132.6328z" stroke="#E7BC9E" stroke-width="0.75" stroke-linecap="round" fill="none" />
    <path id=""  transform="matrix(1 0 0 -1 0 316)"  d="M24.2701 132.6328C 24.2701 131.8918 23.6691 131.2908 22.9291 131.2908C 22.188099 131.2908 21.5871 131.8918 21.5871 132.6328C 21.5871 133.3728 22.188099 133.9738 22.9291 133.9738C 23.6691 133.9738 24.2701 133.3728 24.2701 132.6328z" stroke="#E7BC9E" stroke-width="0.75" stroke-linecap="round" fill="none" />
    <path id=""  transform="matrix(1 0 0 -1 0 316)"  d="M24.2701 157.8271C 24.2701 157.0861 23.6691 156.4851 22.9291 156.4851C 22.188099 156.4851 21.5871 157.0861 21.5871 157.8271C 21.5871 158.56711 22.188099 159.1681 22.9291 159.1681C 23.6691 159.1681 24.2701 158.56711 24.2701 157.8271z" stroke="#E7BC9E" stroke-width="0.75" stroke-linecap="round" fill="none" />
    <path id=""  transform="matrix(1 0 0 -1 0 316)"  d="M163.4117 157.8271C 163.4117 157.0861 162.8107 156.4851 162.0697 156.4851C 161.3297 156.4851 160.7287 157.0861 160.7287 157.8271C 160.7287 158.56711 161.3297 159.1681 162.0697 159.1681C 162.8107 159.1681 163.4117 158.56711 163.4117 157.8271z" stroke="#E7BC9E" stroke-width="0.75" stroke-linecap="round" fill="none" />
    <path id=""  transform="matrix(1 0 0 -1 0 316)"  d="M14.6666 34.4502L22.9256 76.8462L22.9256 76.8462L31.1916 34.4502L31.1916 34.4502L22.9256 13.5971985L22.9256 13.5971985L14.6666 34.4502z" stroke="#E7BC9E" stroke-width="0.75" stroke-linecap="round" fill="none" />
    <path id=""  transform="matrix(1 0 0 -1 0 316)"  d="M22.9293 133.9736L22.9293 153.8026" stroke="#E7BC9E" stroke-width="0.75" stroke-linecap="round" fill="none" />
    <path id=""  transform="matrix(1 0 0 -1 0 316)"  d="M162.0709 133.9736L162.0709 153.8026" stroke="#E7BC9E" stroke-width="0.75" stroke-linecap="round" fill="none" />
		</g>
	</g>
</g>
</svg>