<?xml version="1.0" standalone="no"?>
<!DOCTYPE svg PUBLIC "-//W3C//DTD SVG 1.0//EN" "http://www.w3.org/TR/2001/REC-SVG-20010904/DTD/svg10.dtd">
<svg xmlns="http://www.w3.org/2000/svg" xmlns:xlink="http://www.w3.org/1999/xlink" id="body_10" width="247" height="421">

<defs>
    <clipPath  id="1">

    <path id=""  clip-rule="evenodd" transform="matrix(1 0 0 1 0 0)"  d="M0 316L0 0L0 0L185 0L185 0L185 316L185 316L0 316z" />    </clipPath>
    <clipPath  id="2">

    <path id=""  clip-rule="evenodd" transform="matrix(1 0 0 1 0 0)"  d="M0 0L185 0L185 0L185 316L185 316L0 316z" />    </clipPath>
    <clipPath  id="3">

    <path id=""  clip-rule="evenodd" transform="matrix(1 0 0 1 0 0)"  d="M150.512 248.313L173.63 248.313L173.63 248.313L173.63 252.70529L173.63 252.70529L150.512 252.70529z" />    </clipPath>
    <clipPath  id="4">

    <path id=""  clip-rule="evenodd" transform="matrix(1 0 0 1 0 0)"  d="M150.512 241.4451L173.63 241.4451L173.63 241.4451L173.63 245.83731L173.63 245.83731L150.512 245.83731z" />    </clipPath>
    <clipPath  id="5">

    <path id=""  clip-rule="evenodd" transform="matrix(1 0 0 1 0 0)"  d="M150.512 234.5771L173.63 234.5771L173.63 234.5771L173.63 238.96939L173.63 238.96939L150.512 238.96939z" />    </clipPath>
    <clipPath  id="6">

    <path id=""  clip-rule="evenodd" transform="matrix(1 0 0 1 0 0)"  d="M150.512 227.7091L173.63 227.7091L173.63 227.7091L173.63 232.10141L173.63 232.10141L150.512 232.10141z" />    </clipPath>
    <clipPath  id="7">

    <path id=""  clip-rule="evenodd" transform="matrix(1 0 0 1 0 0)"  d="M11.3701 248.313L34.4879 248.313L34.4879 248.313L34.4879 252.70529L34.4879 252.70529L11.3701 252.70529z" />    </clipPath>
    <clipPath  id="8">

    <path id=""  clip-rule="evenodd" transform="matrix(1 0 0 1 0 0)"  d="M11.3701 241.4451L34.4879 241.4451L34.4879 241.4451L34.4879 245.83731L34.4879 245.83731L11.3701 245.83731z" />    </clipPath>
    <clipPath  id="9">

    <path id=""  clip-rule="evenodd" transform="matrix(1 0 0 1 0 0)"  d="M11.3701 234.5771L34.4879 234.5771L34.4879 234.5771L34.4879 238.96939L34.4879 238.96939L11.3701 238.96939z" />    </clipPath>
    <clipPath  id="10">

    <path id=""  clip-rule="evenodd" transform="matrix(1 0 0 1 0 0)"  d="M11.3701 227.7091L34.4879 227.7091L34.4879 227.7091L34.4879 232.10141L34.4879 232.10141L11.3701 232.10141z" />    </clipPath>
</defs>

<g transform="matrix(1.3333 0 0 1.3333 0 0)">
	<g clip-path="url(#1)" >
		<g clip-path="url(#2)" >
    <path id=""  transform="matrix(1 0 0 -1 0 316)"  d="M150.7428 144.75C 150.7428 151.006 155.8138 156.078 162.0708 156.078C 168.32779 156.078 173.3998 151.006 173.3998 144.75" stroke="#E7BC9E" stroke-width="0.5" stroke-linecap="round" fill="none" />
    <path id=""  transform="matrix(1 0 0 -1 0 316)"  d="M162.1354 153.6289L162.1354 167.06891" stroke="#E7BC9E" stroke-width="0.5" stroke-linecap="round" fill="none" />
    <path id=""  transform="matrix(1 0 0 -1 0 316)"  d="M11.6002 144.75C 11.6002 151.006 16.6722 156.078 22.9292 156.078C 29.1852 156.078 34.2572 151.006 34.2572 144.75" stroke="#E7BC9E" stroke-width="0.5" stroke-linecap="round" fill="none" />
    <path id=""  transform="matrix(1 0 0 -1 0 316)"  d="M22.9928 153.6289L22.9928 167.06891" stroke="#E7BC9E" stroke-width="0.5" stroke-linecap="round" fill="none" />
    <path id=""  transform="matrix(1 0 0 -1 0 316)"  d="M155.5904 67.4883C 155.5904 71.0663 158.4914 73.9673 162.0694 73.9673C 165.6494 73.9673 168.5504 71.0663 168.5504 67.4883" stroke="#E7BC9E" stroke-width="0.5" stroke-linecap="round" fill="none" />
    <path id=""  transform="matrix(1 0 0 -1 0 316)"  d="M162.0699 72.5674L162.0699 116.6784" stroke="#E7BC9E" stroke-width="0.5" stroke-linecap="round" fill="none" />
    <path id=""  transform="matrix(1 0 0 -1 0 316)"  d="M173.5045 58.623C 172.4665 58.623 171.6245 59.55 171.6245 60.694C 171.6245 59.55 170.7825 58.623 169.7445 58.623C 170.7825 58.623 171.6245 57.695 171.6245 56.552002C 171.6245 57.695 172.4665 58.623 173.5045 58.623z" stroke="#E7BC9E" stroke-width="0.25" stroke-linecap="round" fill="none" />
    <path id=""  transform="matrix(1 0 0 -1 0 316)"  d="M154.3971 58.623C 153.3591 58.623 152.51709 59.55 152.51709 60.694C 152.51709 59.55 151.6751 58.623 150.6371 58.623C 151.6751 58.623 152.51709 57.695 152.51709 56.552002C 152.51709 57.695 153.3591 58.623 154.3971 58.623z" stroke="#E7BC9E" stroke-width="0.25" stroke-linecap="round" fill="none" />
			<g>
				<g clip-path="url(#3)" >
    <path id=""  transform="matrix(1 0 0 -1 0 316)"  d="M173.5045 65.4912C 172.4665 65.4912 171.6245 66.418205 171.6245 67.5612C 171.6245 66.418205 170.7825 65.4912 169.7445 65.4912C 170.7825 65.4912 171.6245 64.5632 171.6245 63.420204C 171.6245 64.5632 172.4665 65.4912 173.5045 65.4912z" stroke="#E7BC9E" stroke-width="0.25" stroke-linecap="round" fill="none" stroke-opacity="0.8" />
    <path id=""  transform="matrix(1 0 0 -1 0 316)"  d="M154.3971 65.4912C 153.3591 65.4912 152.51709 66.418205 152.51709 67.5612C 152.51709 66.418205 151.6751 65.4912 150.6371 65.4912C 151.6751 65.4912 152.51709 64.5632 152.51709 63.420204C 152.51709 64.5632 153.3591 65.4912 154.3971 65.4912z" stroke="#E7BC9E" stroke-width="0.25" stroke-linecap="round" fill="none" stroke-opacity="0.8" />
				</g>
			</g>
			<g>
				<g clip-path="url(#4)" >
    <path id=""  transform="matrix(1 0 0 -1 0 316)"  d="M173.5045 72.3584C 172.4665 72.3584 171.6245 73.2864 171.6245 74.4294C 171.6245 73.2864 170.7825 72.3584 169.7445 72.3584C 170.7825 72.3584 171.6245 71.4314 171.6245 70.2884C 171.6245 71.4314 172.4665 72.3584 173.5045 72.3584z" stroke="#E7BC9E" stroke-width="0.25" stroke-linecap="round" fill="none" stroke-opacity="0.6" />
    <path id=""  transform="matrix(1 0 0 -1 0 316)"  d="M154.3971 72.3584C 153.3591 72.3584 152.51709 73.2864 152.51709 74.4294C 152.51709 73.2864 151.6751 72.3584 150.6371 72.3584C 151.6751 72.3584 152.51709 71.4314 152.51709 70.2884C 152.51709 71.4314 153.3591 72.3584 154.3971 72.3584z" stroke="#E7BC9E" stroke-width="0.25" stroke-linecap="round" fill="none" stroke-opacity="0.6" />
				</g>
			</g>
			<g>
				<g clip-path="url(#5)" >
    <path id=""  transform="matrix(1 0 0 -1 0 316)"  d="M173.5045 79.2266C 172.4665 79.2266 171.6245 80.1546 171.6245 81.2976C 171.6245 80.1546 170.7825 79.2266 169.7445 79.2266C 170.7825 79.2266 171.6245 78.2996 171.6245 77.1556C 171.6245 78.2996 172.4665 79.2266 173.5045 79.2266z" stroke="#E7BC9E" stroke-width="0.25" stroke-linecap="round" fill="none" stroke-opacity="0.39607844" />
    <path id=""  transform="matrix(1 0 0 -1 0 316)"  d="M154.3971 79.2266C 153.3591 79.2266 152.51709 80.1546 152.51709 81.2976C 152.51709 80.1546 151.6751 79.2266 150.6371 79.2266C 151.6751 79.2266 152.51709 78.2996 152.51709 77.1556C 152.51709 78.2996 153.3591 79.2266 154.3971 79.2266z" stroke="#E7BC9E" stroke-width="0.25" stroke-linecap="round" fill="none" stroke-opacity="0.39607844" />
				</g>
			</g>
			<g>
				<g clip-path="url(#6)" >
    <path id=""  transform="matrix(1 0 0 -1 0 316)"  d="M173.5045 86.0947C 172.4665 86.0947 171.6245 87.022705 171.6245 88.1657C 171.6245 87.022705 170.7825 86.0947 169.7445 86.0947C 170.7825 86.0947 171.6245 85.1667 171.6245 84.023705C 171.6245 85.1667 172.4665 86.0947 173.5045 86.0947z" stroke="#E7BC9E" stroke-width="0.25" stroke-linecap="round" fill="none" stroke-opacity="0.19607843" />
    <path id=""  transform="matrix(1 0 0 -1 0 316)"  d="M154.3971 86.0947C 153.3591 86.0947 152.51709 87.022705 152.51709 88.1657C 152.51709 87.022705 151.6751 86.0947 150.6371 86.0947C 151.6751 86.0947 152.51709 85.1667 152.51709 84.023705C 152.51709 85.1667 153.3591 86.0947 154.3971 86.0947z" stroke="#E7BC9E" stroke-width="0.25" stroke-linecap="round" fill="none" stroke-opacity="0.19607843" />
				</g>
			</g>
    <path id=""  transform="matrix(1 0 0 -1 0 316)"  d="M154.8346 33.1348L156.50859 29.8098L156.50859 29.8098L158.0396 33.4138" stroke="#E7BC9E" stroke-width="0.5" stroke-linecap="round" fill="none" />
    <path id=""  transform="matrix(1 0 0 -1 0 316)"  d="M155.4723 26.0615L156.5083 29.8095L156.5083 29.8095L158.0393 25.1845" stroke="#E7BC9E" stroke-width="0.5" stroke-linecap="round" fill="none" />
    <path id=""  transform="matrix(1 0 0 -1 0 316)"  d="M158.0397 25.1846L160.5917 21.2686L160.5917 21.2686L162.07071 24.7686L162.07071 24.7686L159.94571 29.2266L159.94571 29.2266L158.0397 25.1846L158.0397 25.1846L158.0397 19.8516L158.0397 19.8516L160.5917 21.2686" stroke="#E7BC9E" stroke-width="0.5" stroke-linecap="round" fill="none" />
    <path id=""  transform="matrix(1 0 0 -1 0 316)"  d="M162.0709 21.2686L160.5919 21.2686L160.5919 21.2686L162.0709 18.7266L162.0709 18.7266L158.0399 19.8516L158.0399 19.8516L154.0079 29.6016L154.0079 29.6016L160.9459 59.2896L160.9459 59.2896L162.0709 59.2896L162.0709 59.2896L162.0709 33.3516L162.0709 33.3516L159.9459 29.2266L159.9459 29.2266L158.0399 33.4146L158.0399 33.4146L161.47691 59.2896" stroke="#E7BC9E" stroke-width="0.5" stroke-linecap="round" fill="none" />
    <path id=""  transform="matrix(1 0 0 -1 0 316)"  d="M169.3082 33.1348L167.6332 29.8098L167.6332 29.8098L166.1022 33.4138" stroke="#E7BC9E" stroke-width="0.5" stroke-linecap="round" fill="none" />
    <path id=""  transform="matrix(1 0 0 -1 0 316)"  d="M168.6705 26.0615L167.6335 29.8095L167.6335 29.8095L166.10251 25.1845" stroke="#E7BC9E" stroke-width="0.5" stroke-linecap="round" fill="none" />
    <path id=""  transform="matrix(1 0 0 -1 0 316)"  d="M166.1022 25.1846L163.5502 21.2686L163.5502 21.2686L162.0712 24.7686L162.0712 24.7686L164.1962 29.2266L164.1962 29.2266L166.1022 25.1846L166.1022 25.1846L166.1022 19.8516L166.1022 19.8516L163.5502 21.2686" stroke="#E7BC9E" stroke-width="0.5" stroke-linecap="round" fill="none" />
    <path id=""  transform="matrix(1 0 0 -1 0 316)"  d="M162.0709 21.2686L163.54991 21.2686L163.54991 21.2686L162.0709 18.7266L162.0709 18.7266L166.10191 19.8516L166.10191 19.8516L170.13391 29.6016L170.13391 29.6016L163.1959 59.2896L163.1959 59.2896L162.0709 59.2896L162.0709 59.2896L162.0709 33.3516L162.0709 33.3516L164.1959 29.2266L164.1959 29.2266L166.10191 33.4146L166.10191 33.4146L162.6649 59.2896" stroke="#E7BC9E" stroke-width="0.5" stroke-linecap="round" fill="none" />
    <path id=""  transform="matrix(1 0 0 -1 0 316)"  d="M164.5318 66.1494C 164.5318 64.7904 163.4288 63.6874 162.0698 63.6874C 160.71179 63.6874 159.6088 64.7904 159.6088 66.1494C 159.6088 67.5084 160.71179 68.6104 162.0698 68.6104C 163.4288 68.6104 164.5318 67.5084 164.5318 66.1494z" stroke="#E7BC9E" stroke-width="0.5" stroke-linecap="round" fill="none" />
    <path id=""  transform="matrix(1 0 0 -1 0 316)"  d="M162.7281 69.2686C 162.7281 68.9056 162.4341 68.6106 162.0701 68.6106C 161.7071 68.6106 161.41211 68.9056 161.41211 69.2686C 161.41211 69.6316 161.7071 69.9266 162.0701 69.9266C 162.4341 69.9266 162.7281 69.6316 162.7281 69.2686z" stroke="#E7BC9E" stroke-width="0.5" stroke-linecap="round" fill="none" />
    <path id=""  transform="matrix(1 0 0 -1 0 316)"  d="M161.0807 69.1797C 161.26271 68.8657 161.15471 68.4617 160.8397 68.2807C 160.5247 68.0987 160.12271 68.2067 159.9407 68.521706C 159.7587 68.8357 159.8667 69.2397 160.1817 69.4207C 160.4967 69.6027 160.8987 69.493706 161.0807 69.1797z" stroke="#E7BC9E" stroke-width="0.5" stroke-linecap="round" fill="none" />
    <path id=""  transform="matrix(1 0 0 -1 0 316)"  d="M159.6979 68.2793C 160.0119 68.0963 160.12091 67.6943 159.9389 67.380295C 159.7579 67.0643 159.35391 66.9573 159.0399 67.1383C 158.7249 67.3203 158.61691 67.7223 158.7989 68.0383C 158.9799 68.352295 159.38391 68.461296 159.6979 68.2793z" stroke="#E7BC9E" stroke-width="0.5" stroke-linecap="round" fill="none" />
    <path id=""  transform="matrix(1 0 0 -1 0 316)"  d="M158.9508 66.8076C 159.31381 66.8076 159.60881 66.5126 159.60881 66.149605C 159.60881 65.7856 159.31381 65.4916 158.9508 65.4916C 158.5878 65.4916 158.2928 65.7856 158.2928 66.149605C 158.2928 66.5126 158.5878 66.8076 158.9508 66.8076z" stroke="#E7BC9E" stroke-width="0.5" stroke-linecap="round" fill="none" />
    <path id=""  transform="matrix(1 0 0 -1 0 316)"  d="M159.0397 65.1592C 159.3537 65.3412 159.7577 65.2332 159.9387 64.918205C 160.1207 64.6032 160.01271 64.2012 159.69771 64.0192C 159.3837 63.838203 158.9797 63.9452 158.7987 64.2602C 158.6167 64.5752 158.72571 64.9772 159.0397 65.1592z" stroke="#E7BC9E" stroke-width="0.5" stroke-linecap="round" fill="none" />
    <path id=""  transform="matrix(1 0 0 -1 0 316)"  d="M159.941 63.7764C 160.123 64.0914 160.525 64.1994 160.83899 64.0174C 161.155 63.836403 161.262 63.433403 161.081 63.1184C 160.89899 62.803402 160.497 62.6954 160.181 62.878403C 159.86699 63.059402 159.758 63.462402 159.941 63.7764z" stroke="#E7BC9E" stroke-width="0.5" stroke-linecap="round" fill="none" />
    <path id=""  transform="matrix(1 0 0 -1 0 316)"  d="M161.4117 63.0293C 161.4117 63.3933 161.7067 63.6873 162.0697 63.6873C 162.4337 63.6873 162.72769 63.3933 162.72769 63.0293C 162.72769 62.6663 162.4337 62.3713 162.0697 62.3713C 161.7067 62.3713 161.4117 62.6663 161.4117 63.0293z" stroke="#E7BC9E" stroke-width="0.5" stroke-linecap="round" fill="none" />
    <path id=""  transform="matrix(1 0 0 -1 0 316)"  d="M163.0602 63.1182C 162.87819 63.433197 162.98619 63.836197 163.3012 64.0172C 163.6162 64.199196 164.01819 64.0922 164.2002 63.7762C 164.3812 63.4622 164.2742 63.0592 163.9592 62.878197C 163.6442 62.695198 163.2422 62.8042 163.0602 63.1182z" stroke="#E7BC9E" stroke-width="0.5" stroke-linecap="round" fill="none" />
    <path id=""  transform="matrix(1 0 0 -1 0 316)"  d="M164.443 64.0195C 164.12799 64.2015 164.01999 64.6035 164.202 64.9175C 164.383 65.2335 164.786 65.3405 165.101 65.1595C 165.416 64.9775 165.52399 64.5755 165.342 64.2595C 165.15999 63.9455 164.75699 63.8375 164.443 64.0195z" stroke="#E7BC9E" stroke-width="0.5" stroke-linecap="round" fill="none" />
    <path id=""  transform="matrix(1 0 0 -1 0 316)"  d="M165.19 65.4912C 164.827 65.4912 164.532 65.7852 164.532 66.1492C 164.532 66.51221 164.827 66.807205 165.19 66.807205C 165.55301 66.807205 165.848 66.51221 165.848 66.1492C 165.848 65.7852 165.55301 65.4912 165.19 65.4912z" stroke="#E7BC9E" stroke-width="0.5" stroke-linecap="round" fill="none" />
    <path id=""  transform="matrix(1 0 0 -1 0 316)"  d="M165.1012 67.1387C 164.7862 66.9567 164.3832 67.064705 164.2022 67.3797C 164.0202 67.6947 164.1272 68.0967 164.44319 68.2797C 164.7572 68.4607 165.1602 68.3527 165.3422 68.037704C 165.5242 67.7227 165.41519 67.3207 165.1012 67.1387z" stroke="#E7BC9E" stroke-width="0.5" stroke-linecap="round" fill="none" />
    <path id=""  transform="matrix(1 0 0 -1 0 316)"  d="M164.1998 68.5215C 164.01779 68.2075 163.6158 68.0985 163.3018 68.2805C 162.9858 68.4615 162.8788 68.8655 163.0598 69.1795C 163.2418 69.4945 163.6438 69.6025 163.9598 69.4205C 164.2738 69.2395 164.3818 68.8355 164.1998 68.5215z" stroke="#E7BC9E" stroke-width="0.5" stroke-linecap="round" fill="none" />
    <path id=""  transform="matrix(1 0 0 -1 0 316)"  d="M161.8883 121.5996C 161.8193 121.6286 161.7563 121.6616 161.70131 121.6986C 160.8063 122.2626 160.0363 122.8556 159.3903 123.4776C 158.74431 124.0996 158.2473 124.7396 157.9003 125.3976C 157.5523 126.0556 157.37831 126.719604 157.37831 127.3916C 157.37831 127.9526 157.4953 128.4496 157.7303 128.8826C 157.96431 129.3156 158.2803 129.6546 158.6783 129.8996C 159.0753 130.1436 159.52231 130.2656 160.0193 130.2656C 160.48831 130.2656 160.8943 130.1476 161.23631 129.9116C 161.5773 129.6746 161.85631 129.3636 162.07031 128.9776C 162.2883 129.3676 162.5693 129.6796 162.91031 129.9136C 163.2523 130.1486 163.65631 130.2656 164.1213 130.2656C 164.61731 130.2656 165.0663 130.1436 165.4653 129.8996C 165.86531 129.6546 166.1813 129.3156 166.4133 128.8826C 166.6463 128.4496 166.7623 127.9526 166.7623 127.3916C 166.7623 126.719604 166.5883 126.0556 166.2413 125.3976C 165.89331 124.7396 165.3963 124.0996 164.7503 123.4776C 164.10431 122.8556 163.3343 122.2626 162.4403 121.6986C 162.3883 121.6616 162.32631 121.6286 162.25531 121.5996C 162.1833 121.5696 162.1213 121.5546 162.07031 121.5546C 162.0193 121.5546 161.9573 121.5696 161.8883 121.5996z" stroke="#E7BC9E" stroke-width="0.5" fill="none" />
    <path id=""  transform="matrix(1 0 0 -1 0 316)"  d="M163.2662 126.166C 162.6062 126.166 162.0702 126.756 162.0702 127.483C 162.0702 126.756 161.5352 126.166 160.8742 126.166C 161.5352 126.166 162.0702 125.576004 162.0702 124.849C 162.0702 125.576004 162.6062 126.166 163.2662 126.166" stroke="none" fill="#E7BC9E" fill-rule="nonzero" />
    <path id=""  transform="matrix(1 0 0 -1 0 316)"  d="M163.2662 126.166C 162.6062 126.166 162.0702 126.756 162.0702 127.483C 162.0702 126.756 161.5352 126.166 160.8742 126.166C 161.5352 126.166 162.0702 125.576004 162.0702 124.849C 162.0702 125.576004 162.6062 126.166 163.2662 126.166z" stroke="#E7BC9E" stroke-width="0.25" stroke-linecap="round" fill="none" />
    <path id=""  transform="matrix(1 0 0 -1 0 316)"  d="M168.9215 93.3369L163.1585 93.8109L163.1585 93.8109L166.8945 98.3899L166.8945 98.3899L162.5085 94.4469L162.5085 94.4469L162.06949 107.6779L162.06949 107.6779L161.63249 94.4479L161.63249 94.4479L157.23549 98.3769L157.23549 98.3769L160.9825 93.8109L160.9825 93.8109L155.2195 93.3369L155.2195 93.3369L160.98349 92.8639L160.98349 92.8639L157.21149 88.3239L157.21149 88.3239L161.63249 92.2259L161.63249 92.2259L162.06949 78.995895L162.06949 78.995895L162.5085 92.2269L162.5085 92.2269L166.9065 88.2989L166.9065 88.2989L163.1585 92.8639z" stroke="none" fill="#E7BC9E" fill-rule="nonzero" />
    <path id=""  transform="matrix(1 0 0 -1 0 316)"  d="M168.9215 93.3369L163.1585 93.8109L163.1585 93.8109L166.8945 98.3899L166.8945 98.3899L162.5085 94.4469L162.5085 94.4469L162.06949 107.6779L162.06949 107.6779L161.63249 94.4479L161.63249 94.4479L157.23549 98.3769L157.23549 98.3769L160.9825 93.8109L160.9825 93.8109L155.2195 93.3369L155.2195 93.3369L160.98349 92.8639L160.98349 92.8639L157.21149 88.3239L157.21149 88.3239L161.63249 92.2259L161.63249 92.2259L162.06949 78.995895L162.06949 78.995895L162.5085 92.2269L162.5085 92.2269L166.9065 88.2989L166.9065 88.2989L163.1585 92.8639L163.1585 92.8639L168.9215 93.3369z" stroke="#E7BC9E" stroke-width="0.3" stroke-linecap="round" fill="none" />
    <path id=""  transform="matrix(1 0 0 -1 0 316)"  d="M162.7584 119.1172C 162.7584 118.737206 162.45041 118.43021 162.07141 118.43021C 161.6914 118.43021 161.3834 118.737206 161.3834 119.1172C 161.3834 119.4972 161.6914 119.8042 162.07141 119.8042C 162.45041 119.8042 162.7584 119.4972 162.7584 119.1172z" stroke="#E7BC9E" stroke-width="0.5" fill="none" />
    <path id=""  transform="matrix(1 0 0 -1 0 316)"  d="M162.7584 132.4756C 162.7584 132.0956 162.45041 131.7886 162.07141 131.7886C 161.6914 131.7886 161.3834 132.0956 161.3834 132.4756C 161.3834 132.8546 161.6914 133.1626 162.07141 133.1626C 162.45041 133.1626 162.7584 132.8546 162.7584 132.4756z" stroke="#E7BC9E" stroke-width="0.5" fill="none" />
    <path id=""  transform="matrix(1 0 0 -1 0 316)"  d="M162.7584 135.3721C 162.7584 134.9921 162.45041 134.6851 162.07141 134.6851C 161.6914 134.6851 161.3834 134.9921 161.3834 135.3721C 161.3834 135.7521 161.6914 136.0591 162.07141 136.0591C 162.45041 136.0591 162.7584 135.7521 162.7584 135.3721z" stroke="#E7BC9E" stroke-width="0.5" fill="none" />
    <path id=""  transform="matrix(1 0 0 -1 0 316)"  d="M162.7584 138.2695C 162.7584 137.8895 162.45041 137.5825 162.07141 137.5825C 161.6914 137.5825 161.3834 137.8895 161.3834 138.2695C 161.3834 138.6485 161.6914 138.9565 162.07141 138.9565C 162.45041 138.9565 162.7584 138.6485 162.7584 138.2695z" stroke="#E7BC9E" stroke-width="0.5" fill="none" />
    <path id=""  transform="matrix(1 0 0 -1 0 316)"  d="M162.7584 141.166C 162.7584 140.786 162.45041 140.479 162.07141 140.479C 161.6914 140.479 161.3834 140.786 161.3834 141.166C 161.3834 141.546 161.6914 141.853 162.07141 141.853C 162.45041 141.853 162.7584 141.546 162.7584 141.166z" stroke="#E7BC9E" stroke-width="0.5" fill="none" />
    <path id=""  transform="matrix(1 0 0 -1 0 316)"  d="M162.7584 144.0625C 162.7584 143.6835 162.45041 143.3755 162.07141 143.3755C 161.6914 143.3755 161.3834 143.6835 161.3834 144.0625C 161.3834 144.4425 161.6914 144.7495 162.07141 144.7495C 162.45041 144.7495 162.7584 144.4425 162.7584 144.0625z" stroke="#E7BC9E" stroke-width="0.5" fill="none" />
    <path id=""  transform="matrix(1 0 0 -1 0 316)"  d="M16.4488 67.4883C 16.4488 71.0663 19.348799 73.9673 22.9278 73.9673C 26.5078 73.9673 29.408798 71.0663 29.408798 67.4883" stroke="#E7BC9E" stroke-width="0.5" stroke-linecap="round" fill="none" />
    <path id=""  transform="matrix(1 0 0 -1 0 316)"  d="M22.9283 72.5674L22.9283 116.6784" stroke="#E7BC9E" stroke-width="0.5" stroke-linecap="round" fill="none" />
    <path id=""  transform="matrix(1 0 0 -1 0 316)"  d="M34.3629 58.623C 33.3249 58.623 32.4829 59.55 32.4829 60.694C 32.4829 59.55 31.6409 58.623 30.6019 58.623C 31.6409 58.623 32.4829 57.695 32.4829 56.552002C 32.4829 57.695 33.3249 58.623 34.3629 58.623z" stroke="#E7BC9E" stroke-width="0.25" stroke-linecap="round" fill="none" />
    <path id=""  transform="matrix(1 0 0 -1 0 316)"  d="M15.2555 58.623C 14.2175 58.623 13.3755 59.55 13.3755 60.694C 13.3755 59.55 12.5335 58.623 11.4945 58.623C 12.5335 58.623 13.3755 57.695 13.3755 56.552002C 13.3755 57.695 14.2175 58.623 15.2555 58.623z" stroke="#E7BC9E" stroke-width="0.25" stroke-linecap="round" fill="none" />
			<g>
				<g clip-path="url(#7)" >
    <path id=""  transform="matrix(1 0 0 -1 0 316)"  d="M34.3629 65.4912C 33.3249 65.4912 32.4829 66.418205 32.4829 67.5612C 32.4829 66.418205 31.6409 65.4912 30.6019 65.4912C 31.6409 65.4912 32.4829 64.5632 32.4829 63.420204C 32.4829 64.5632 33.3249 65.4912 34.3629 65.4912z" stroke="#E7BC9E" stroke-width="0.25" stroke-linecap="round" fill="none" stroke-opacity="0.8" />
    <path id=""  transform="matrix(1 0 0 -1 0 316)"  d="M15.2555 65.4912C 14.2175 65.4912 13.3755 66.418205 13.3755 67.5612C 13.3755 66.418205 12.5335 65.4912 11.4945 65.4912C 12.5335 65.4912 13.3755 64.5632 13.3755 63.420204C 13.3755 64.5632 14.2175 65.4912 15.2555 65.4912z" stroke="#E7BC9E" stroke-width="0.25" stroke-linecap="round" fill="none" stroke-opacity="0.8" />
				</g>
			</g>
			<g>
				<g clip-path="url(#8)" >
    <path id=""  transform="matrix(1 0 0 -1 0 316)"  d="M34.3629 72.3584C 33.3249 72.3584 32.4829 73.2864 32.4829 74.4294C 32.4829 73.2864 31.6409 72.3584 30.6019 72.3584C 31.6409 72.3584 32.4829 71.4314 32.4829 70.2884C 32.4829 71.4314 33.3249 72.3584 34.3629 72.3584z" stroke="#E7BC9E" stroke-width="0.25" stroke-linecap="round" fill="none" stroke-opacity="0.6" />
    <path id=""  transform="matrix(1 0 0 -1 0 316)"  d="M15.2555 72.3584C 14.2175 72.3584 13.3755 73.2864 13.3755 74.4294C 13.3755 73.2864 12.5335 72.3584 11.4945 72.3584C 12.5335 72.3584 13.3755 71.4314 13.3755 70.2884C 13.3755 71.4314 14.2175 72.3584 15.2555 72.3584z" stroke="#E7BC9E" stroke-width="0.25" stroke-linecap="round" fill="none" stroke-opacity="0.6" />
				</g>
			</g>
			<g>
				<g clip-path="url(#9)" >
    <path id=""  transform="matrix(1 0 0 -1 0 316)"  d="M34.3629 79.2266C 33.3249 79.2266 32.4829 80.1546 32.4829 81.2976C 32.4829 80.1546 31.6409 79.2266 30.6019 79.2266C 31.6409 79.2266 32.4829 78.2996 32.4829 77.1556C 32.4829 78.2996 33.3249 79.2266 34.3629 79.2266z" stroke="#E7BC9E" stroke-width="0.25" stroke-linecap="round" fill="none" stroke-opacity="0.39607844" />
    <path id=""  transform="matrix(1 0 0 -1 0 316)"  d="M15.2555 79.2266C 14.2175 79.2266 13.3755 80.1546 13.3755 81.2976C 13.3755 80.1546 12.5335 79.2266 11.4945 79.2266C 12.5335 79.2266 13.3755 78.2996 13.3755 77.1556C 13.3755 78.2996 14.2175 79.2266 15.2555 79.2266z" stroke="#E7BC9E" stroke-width="0.25" stroke-linecap="round" fill="none" stroke-opacity="0.39607844" />
				</g>
			</g>
			<g>
				<g clip-path="url(#10)" >
    <path id=""  transform="matrix(1 0 0 -1 0 316)"  d="M34.3629 86.0947C 33.3249 86.0947 32.4829 87.022705 32.4829 88.1657C 32.4829 87.022705 31.6409 86.0947 30.6019 86.0947C 31.6409 86.0947 32.4829 85.1667 32.4829 84.023705C 32.4829 85.1667 33.3249 86.0947 34.3629 86.0947z" stroke="#E7BC9E" stroke-width="0.25" stroke-linecap="round" fill="none" stroke-opacity="0.19607843" />
    <path id=""  transform="matrix(1 0 0 -1 0 316)"  d="M15.2555 86.0947C 14.2175 86.0947 13.3755 87.022705 13.3755 88.1657C 13.3755 87.022705 12.5335 86.0947 11.4945 86.0947C 12.5335 86.0947 13.3755 85.1667 13.3755 84.023705C 13.3755 85.1667 14.2175 86.0947 15.2555 86.0947z" stroke="#E7BC9E" stroke-width="0.25" stroke-linecap="round" fill="none" stroke-opacity="0.19607843" />
				</g>
			</g>
    <path id=""  transform="matrix(1 0 0 -1 0 316)"  d="M15.692 33.1348L17.367 29.8098L17.367 29.8098L18.898 33.4138" stroke="#E7BC9E" stroke-width="0.5" stroke-linecap="round" fill="none" />
    <path id=""  transform="matrix(1 0 0 -1 0 316)"  d="M16.3297 26.0615L17.366701 29.8095L17.366701 29.8095L18.897701 25.1845" stroke="#E7BC9E" stroke-width="0.5" stroke-linecap="round" fill="none" />
    <path id=""  transform="matrix(1 0 0 -1 0 316)"  d="M18.8981 25.1846L21.4501 21.2686L21.4501 21.2686L22.9291 24.7686L22.9291 24.7686L20.8041 29.2266L20.8041 29.2266L18.8981 25.1846L18.8981 25.1846L18.8981 19.8516L18.8981 19.8516L21.4501 21.2686" stroke="#E7BC9E" stroke-width="0.5" stroke-linecap="round" fill="none" />
    <path id=""  transform="matrix(1 0 0 -1 0 316)"  d="M22.9293 21.2686L21.4503 21.2686L21.4503 21.2686L22.9293 18.7266L22.9293 18.7266L18.8983 19.8516L18.8983 19.8516L14.866301 29.6016L14.866301 29.6016L21.8043 59.2896L21.8043 59.2896L22.9293 59.2896L22.9293 59.2896L22.9293 33.3516L22.9293 33.3516L20.8043 29.2266L20.8043 29.2266L18.8983 33.4146L18.8983 33.4146L22.3353 59.2896" stroke="#E7BC9E" stroke-width="0.5" stroke-linecap="round" fill="none" />
    <path id=""  transform="matrix(1 0 0 -1 0 316)"  d="M30.1656 33.1348L28.4916 29.8098L28.4916 29.8098L26.9606 33.4138" stroke="#E7BC9E" stroke-width="0.5" stroke-linecap="round" fill="none" />
    <path id=""  transform="matrix(1 0 0 -1 0 316)"  d="M29.5279 26.0615L28.491901 29.8095L28.491901 29.8095L26.960901 25.1845" stroke="#E7BC9E" stroke-width="0.5" stroke-linecap="round" fill="none" />
    <path id=""  transform="matrix(1 0 0 -1 0 316)"  d="M26.9606 25.1846L24.4076 21.2686L24.4076 21.2686L22.9296 24.7686L22.9296 24.7686L25.0546 29.2266L25.0546 29.2266L26.9606 25.1846L26.9606 25.1846L26.9606 19.8516L26.9606 19.8516L24.4076 21.2686" stroke="#E7BC9E" stroke-width="0.5" stroke-linecap="round" fill="none" />
    <path id=""  transform="matrix(1 0 0 -1 0 316)"  d="M22.9293 21.2686L24.4083 21.2686L24.4083 21.2686L22.9293 18.7266L22.9293 18.7266L26.9603 19.8516L26.9603 19.8516L30.9923 29.6016L30.9923 29.6016L24.0543 59.2896L24.0543 59.2896L22.9293 59.2896L22.9293 59.2896L22.9293 33.3516L22.9293 33.3516L25.0543 29.2266L25.0543 29.2266L26.9603 33.4146L26.9603 33.4146L23.5233 59.2896" stroke="#E7BC9E" stroke-width="0.5" stroke-linecap="round" fill="none" />
    <path id=""  transform="matrix(1 0 0 -1 0 316)"  d="M25.3893 66.1494C 25.3893 64.7904 24.2873 63.6874 22.928299 63.6874C 21.5693 63.6874 20.4673 64.7904 20.4673 66.1494C 20.4673 67.5084 21.5693 68.6104 22.928299 68.6104C 24.2873 68.6104 25.3893 67.5084 25.3893 66.1494z" stroke="#E7BC9E" stroke-width="0.5" stroke-linecap="round" fill="none" />
    <path id=""  transform="matrix(1 0 0 -1 0 316)"  d="M23.5865 69.2686C 23.5865 68.9056 23.2915 68.6106 22.928501 68.6106C 22.5655 68.6106 22.2705 68.9056 22.2705 69.2686C 22.2705 69.6316 22.5655 69.9266 22.928501 69.9266C 23.2915 69.9266 23.5865 69.6316 23.5865 69.2686z" stroke="#E7BC9E" stroke-width="0.5" stroke-linecap="round" fill="none" />
    <path id=""  transform="matrix(1 0 0 -1 0 316)"  d="M21.9391 69.1797C 22.1211 68.8657 22.0121 68.4617 21.698101 68.2807C 21.3831 68.0987 20.9801 68.2067 20.7981 68.521706C 20.6171 68.8357 20.7241 69.2397 21.0401 69.4207C 21.354101 69.6027 21.7561 69.493706 21.9391 69.1797z" stroke="#E7BC9E" stroke-width="0.5" stroke-linecap="round" fill="none" />
    <path id=""  transform="matrix(1 0 0 -1 0 316)"  d="M20.5563 68.2793C 20.870298 68.0963 20.9793 67.6943 20.796299 67.380295C 20.6153 67.0643 20.2123 66.9573 19.8983 67.1383C 19.582298 67.3203 19.4753 67.7223 19.657299 68.0383C 19.838299 68.352295 20.241299 68.461296 20.5563 68.2793z" stroke="#E7BC9E" stroke-width="0.5" stroke-linecap="round" fill="none" />
    <path id=""  transform="matrix(1 0 0 -1 0 316)"  d="M19.8092 66.8076C 20.172201 66.8076 20.467201 66.5126 20.467201 66.149605C 20.467201 65.7856 20.172201 65.4916 19.8092 65.4916C 19.4452 65.4916 19.1512 65.7856 19.1512 66.149605C 19.1512 66.5126 19.4452 66.8076 19.8092 66.8076z" stroke="#E7BC9E" stroke-width="0.5" stroke-linecap="round" fill="none" />
    <path id=""  transform="matrix(1 0 0 -1 0 316)"  d="M19.8981 65.1592C 20.2121 65.3412 20.6151 65.2332 20.7961 64.918205C 20.9791 64.6032 20.8711 64.2012 20.556099 64.0192C 20.2411 63.838203 19.8381 63.9452 19.6571 64.2602C 19.4751 64.5752 19.5831 64.9772 19.8981 65.1592z" stroke="#E7BC9E" stroke-width="0.5" stroke-linecap="round" fill="none" />
    <path id=""  transform="matrix(1 0 0 -1 0 316)"  d="M20.7984 63.7764C 20.9804 64.0914 21.3834 64.1994 21.697401 64.0174C 22.012402 63.836403 22.120401 63.433403 21.939402 63.1184C 21.756401 62.803402 21.3544 62.6954 21.0394 62.878403C 20.724401 63.059402 20.616402 63.462402 20.7984 63.7764z" stroke="#E7BC9E" stroke-width="0.5" stroke-linecap="round" fill="none" />
    <path id=""  transform="matrix(1 0 0 -1 0 316)"  d="M22.2701 63.0293C 22.2701 63.3933 22.5651 63.6873 22.9281 63.6873C 23.2911 63.6873 23.5861 63.3933 23.5861 63.0293C 23.5861 62.6663 23.2911 62.3713 22.9281 62.3713C 22.5651 62.3713 22.2701 62.6663 22.2701 63.0293z" stroke="#E7BC9E" stroke-width="0.5" stroke-linecap="round" fill="none" />
    <path id=""  transform="matrix(1 0 0 -1 0 316)"  d="M23.9176 63.1182C 23.735601 63.433197 23.8446 63.836197 24.1586 64.0172C 24.4746 64.199196 24.8766 64.0922 25.058601 63.7762C 25.239601 63.4622 25.1326 63.0592 24.8166 62.878197C 24.5026 62.695198 24.100601 62.8042 23.9176 63.1182z" stroke="#E7BC9E" stroke-width="0.5" stroke-linecap="round" fill="none" />
    <path id=""  transform="matrix(1 0 0 -1 0 316)"  d="M25.3004 64.0195C 24.9864 64.2015 24.878399 64.6035 25.0604 64.9175C 25.2414 65.2335 25.6444 65.3405 25.9584 65.1595C 26.274399 64.9775 26.3814 64.5755 26.1994 64.2595C 26.0184 63.9455 25.6154 63.8375 25.3004 64.0195z" stroke="#E7BC9E" stroke-width="0.5" stroke-linecap="round" fill="none" />
    <path id=""  transform="matrix(1 0 0 -1 0 316)"  d="M26.0475 65.4912C 25.6845 65.4912 25.3895 65.7852 25.3895 66.1492C 25.3895 66.51221 25.6845 66.807205 26.0475 66.807205C 26.4115 66.807205 26.705502 66.51221 26.705502 66.1492C 26.705502 65.7852 26.4115 65.4912 26.0475 65.4912z" stroke="#E7BC9E" stroke-width="0.5" stroke-linecap="round" fill="none" />
    <path id=""  transform="matrix(1 0 0 -1 0 316)"  d="M25.9586 67.1387C 25.6446 66.9567 25.2416 67.064705 25.060598 67.3797C 24.8786 67.6947 24.9856 68.0967 25.300598 68.2797C 25.615599 68.4607 26.018599 68.3527 26.199598 68.037704C 26.3816 67.7227 26.2736 67.3207 25.9586 67.1387z" stroke="#E7BC9E" stroke-width="0.5" stroke-linecap="round" fill="none" />
    <path id=""  transform="matrix(1 0 0 -1 0 316)"  d="M25.0582 68.5215C 24.876202 68.2075 24.474201 68.0985 24.1592 68.2805C 23.8442 68.4615 23.7362 68.8655 23.9172 69.1795C 24.1002 69.4945 24.502201 69.6025 24.817202 69.4205C 25.1322 69.2395 25.2402 68.8355 25.0582 68.5215z" stroke="#E7BC9E" stroke-width="0.5" stroke-linecap="round" fill="none" />
    <path id=""  transform="matrix(1 0 0 -1 0 316)"  d="M22.7467 121.5996C 22.6777 121.6286 22.6137 121.6616 22.5597 121.6986C 21.6647 122.2626 20.8937 122.8556 20.248701 123.4776C 19.6017 124.0996 19.1057 124.7396 18.7577 125.3976C 18.4097 126.0556 18.2357 126.719604 18.2357 127.3916C 18.2357 127.9526 18.3527 128.4496 18.5877 128.8826C 18.8227 129.3156 19.1387 129.6546 19.5357 129.8996C 19.9337 130.1436 20.380701 130.2656 20.8777 130.2656C 21.3467 130.2656 21.7517 130.1476 22.0937 129.9116C 22.4347 129.6746 22.7137 129.3636 22.9287 128.9776C 23.1467 129.3676 23.4277 129.6796 23.7687 129.9136C 24.1107 130.1486 24.5147 130.2656 24.9787 130.2656C 25.4757 130.2656 25.9247 130.1436 26.3237 129.8996C 26.7237 129.6546 27.0397 129.3156 27.2717 128.8826C 27.5047 128.4496 27.6207 127.9526 27.6207 127.3916C 27.6207 126.719604 27.446701 126.0556 27.0997 125.3976C 26.751701 124.7396 26.2547 124.0996 25.6077 123.4776C 24.9627 122.8556 24.1917 122.2626 23.2987 121.6986C 23.2467 121.6616 23.1847 121.6286 23.1127 121.5996C 23.0417 121.5696 22.9797 121.5546 22.9287 121.5546C 22.8767 121.5546 22.8157 121.5696 22.7467 121.5996z" stroke="#E7BC9E" stroke-width="0.5" fill="none" />
    <path id=""  transform="matrix(1 0 0 -1 0 316)"  d="M24.1236 126.166C 23.4636 126.166 22.9286 126.756 22.9286 127.483C 22.9286 126.756 22.3936 126.166 21.7326 126.166C 22.3936 126.166 22.9286 125.576004 22.9286 124.849C 22.9286 125.576004 23.4636 126.166 24.1236 126.166" stroke="none" fill="#E7BC9E" fill-rule="nonzero" />
    <path id=""  transform="matrix(1 0 0 -1 0 316)"  d="M24.1236 126.166C 23.4636 126.166 22.9286 126.756 22.9286 127.483C 22.9286 126.756 22.3936 126.166 21.7326 126.166C 22.3936 126.166 22.9286 125.576004 22.9286 124.849C 22.9286 125.576004 23.4636 126.166 24.1236 126.166z" stroke="#E7BC9E" stroke-width="0.25" stroke-linecap="round" fill="none" />
    <path id=""  transform="matrix(1 0 0 -1 0 316)"  d="M29.7799 93.3369L24.0169 93.8109L24.0169 93.8109L27.7529 98.3899L27.7529 98.3899L23.3659 94.4469L23.3659 94.4469L22.927898 107.6779L22.927898 107.6779L22.4909 94.4479L22.4909 94.4479L18.093899 98.3769L18.093899 98.3769L21.8409 93.8109L21.8409 93.8109L16.0769 93.3369L16.0769 93.3369L21.8409 92.8639L21.8409 92.8639L18.0699 88.3239L18.0699 88.3239L22.4909 92.2259L22.4909 92.2259L22.927898 78.995895L22.927898 78.995895L23.3659 92.2269L23.3659 92.2269L27.7649 88.2989L27.7649 88.2989L24.0169 92.8639z" stroke="none" fill="#E7BC9E" fill-rule="nonzero" />
    <path id=""  transform="matrix(1 0 0 -1 0 316)"  d="M29.7799 93.3369L24.0169 93.8109L24.0169 93.8109L27.7529 98.3899L27.7529 98.3899L23.3659 94.4469L23.3659 94.4469L22.927898 107.6779L22.927898 107.6779L22.4909 94.4479L22.4909 94.4479L18.093899 98.3769L18.093899 98.3769L21.8409 93.8109L21.8409 93.8109L16.0769 93.3369L16.0769 93.3369L21.8409 92.8639L21.8409 92.8639L18.0699 88.3239L18.0699 88.3239L22.4909 92.2259L22.4909 92.2259L22.927898 78.995895L22.927898 78.995895L23.3659 92.2269L23.3659 92.2269L27.7649 88.2989L27.7649 88.2989L24.0169 92.8639L24.0169 92.8639L29.7799 93.3369z" stroke="#E7BC9E" stroke-width="0.3" stroke-linecap="round" fill="none" />
    <path id=""  transform="matrix(1 0 0 -1 0 316)"  d="M23.6168 119.1172C 23.6168 118.737206 23.3078 118.43021 22.9298 118.43021C 22.5498 118.43021 22.2418 118.737206 22.2418 119.1172C 22.2418 119.4972 22.5498 119.8042 22.9298 119.8042C 23.3078 119.8042 23.6168 119.4972 23.6168 119.1172z" stroke="#E7BC9E" stroke-width="0.5" fill="none" />
    <path id=""  transform="matrix(1 0 0 -1 0 316)"  d="M23.6168 132.4756C 23.6168 132.0956 23.3078 131.7886 22.9298 131.7886C 22.5498 131.7886 22.2418 132.0956 22.2418 132.4756C 22.2418 132.8546 22.5498 133.1626 22.9298 133.1626C 23.3078 133.1626 23.6168 132.8546 23.6168 132.4756z" stroke="#E7BC9E" stroke-width="0.5" fill="none" />
    <path id=""  transform="matrix(1 0 0 -1 0 316)"  d="M23.6168 135.3721C 23.6168 134.9921 23.3078 134.6851 22.9298 134.6851C 22.5498 134.6851 22.2418 134.9921 22.2418 135.3721C 22.2418 135.7521 22.5498 136.0591 22.9298 136.0591C 23.3078 136.0591 23.6168 135.7521 23.6168 135.3721z" stroke="#E7BC9E" stroke-width="0.5" fill="none" />
    <path id=""  transform="matrix(1 0 0 -1 0 316)"  d="M23.6168 138.2695C 23.6168 137.8895 23.3078 137.5825 22.9298 137.5825C 22.5498 137.5825 22.2418 137.8895 22.2418 138.2695C 22.2418 138.6485 22.5498 138.9565 22.9298 138.9565C 23.3078 138.9565 23.6168 138.6485 23.6168 138.2695z" stroke="#E7BC9E" stroke-width="0.5" fill="none" />
    <path id=""  transform="matrix(1 0 0 -1 0 316)"  d="M23.6168 141.166C 23.6168 140.786 23.3078 140.479 22.9298 140.479C 22.5498 140.479 22.2418 140.786 22.2418 141.166C 22.2418 141.546 22.5498 141.853 22.9298 141.853C 23.3078 141.853 23.6168 141.546 23.6168 141.166z" stroke="#E7BC9E" stroke-width="0.5" fill="none" />
    <path id=""  transform="matrix(1 0 0 -1 0 316)"  d="M23.6168 144.0625C 23.6168 143.6835 23.3078 143.3755 22.9298 143.3755C 22.5498 143.3755 22.2418 143.6835 22.2418 144.0625C 22.2418 144.4425 22.5498 144.7495 22.9298 144.7495C 23.3078 144.7495 23.6168 144.4425 23.6168 144.0625z" stroke="#E7BC9E" stroke-width="0.5" fill="none" />
		</g>
	</g>
</g>
</svg>