<?xml version="1.0" standalone="no"?>
<!DOCTYPE svg PUBLIC "-//W3C//DTD SVG 1.0//EN" "http://www.w3.org/TR/2001/REC-SVG-20010904/DTD/svg10.dtd">
<svg xmlns="http://www.w3.org/2000/svg" xmlns:xlink="http://www.w3.org/1999/xlink" id="body_3" width="247" height="421">

<defs>
    <clipPath  id="1">

    <path id=""  clip-rule="evenodd" transform="matrix(1 0 0 1 0 0)"  d="M0 316L0 0L0 0L185 0L185 0L185 316L185 316L0 316z" />    </clipPath>
    <clipPath  id="2">

    <path id=""  clip-rule="evenodd" transform="matrix(1 0 0 1 0 0)"  d="M0 0L185 0L185 0L185 316L185 316L0 316z" />    </clipPath>
</defs>

<g transform="matrix(1.3333 0 0 1.3333 0 0)">
	<g clip-path="url(#1)" >
		<g clip-path="url(#2)" >
    <path id=""  transform="matrix(1 0 0 -1 0 316)"  d="M20.1897 139.4513C 20.1897 141.0203 21.4607 142.29129 23.0297 142.29129C 24.596699 142.29129 25.8697 141.0203 25.8697 139.4513C 25.8697 137.8823 24.596699 136.6113 23.0297 136.6113C 21.4607 136.6113 20.1897 137.8823 20.1897 139.4513" stroke="none" fill="#E7BC9E" fill-rule="nonzero" />
    <path id=""  transform="matrix(1 0 0 -1 0 316)"  d="M20.1897 56.6935C 20.1897 58.2625 21.4607 59.5335 23.0297 59.5335C 24.596699 59.5335 25.8697 58.2625 25.8697 56.6935C 25.8697 55.1245 24.596699 53.8535 23.0297 53.8535C 21.4607 53.8535 20.1897 55.1245 20.1897 56.6935" stroke="none" fill="#E7BC9E" fill-rule="nonzero" />
    <path id=""  transform="matrix(1 0 0 -1 0 316)"  d="M20.1897 92.4825C 20.1897 94.0515 21.4607 95.322495 23.0297 95.322495C 24.596699 95.322495 25.8697 94.0515 25.8697 92.4825C 25.8697 90.9135 24.596699 89.6425 23.0297 89.6425C 21.4607 89.6425 20.1897 90.9135 20.1897 92.4825" stroke="none" fill="#E7BC9E" fill-rule="nonzero" />
    <path id=""  transform="matrix(1 0 0 -1 0 316)"  d="M14.5257 56.6935C 14.5257 61.3925 18.3307 65.1975 23.0297 65.1975C 27.7237 65.1975 31.533699 61.3925 31.533699 56.6935C 31.533699 51.9945 27.7237 48.1895 23.0297 48.1895C 18.3307 48.1895 14.5257 51.9945 14.5257 56.6935" stroke="#E7BC9E" stroke-width="1" fill="none" />
    <path id=""  transform="matrix(1 0 0 -1 0 316)"  d="M21.0452 40.7433C 21.0452 41.8403 21.9332 42.727303 23.0292 42.727303C 24.1252 42.727303 25.0142 41.8403 25.0142 40.7433C 25.0142 39.6463 24.1252 38.7593 23.0292 38.7593C 21.9332 38.7593 21.0452 39.6463 21.0452 40.7433" stroke="none" fill="#E7BC9E" fill-rule="nonzero" />
    <path id=""  transform="matrix(1 0 0 -1 0 316)"  d="M14.3811 109.2882C 13.4681 109.2882 12.604099 109.0842 11.8291 108.7192C 12.0131 108.7372 12.198099 108.7472 12.3861 108.7472C 15.3961 108.7472 17.8351 106.3072 17.8351 103.2982C 17.8351 100.2892 15.3961 97.8492 12.3861 97.8492C 12.198099 97.8492 12.0131 97.8582 11.8291 97.8762C 12.604099 97.5122 13.4681 97.3072 14.3811 97.3072C 17.6901 97.3072 20.3721 99.9882 20.3721 103.2982C 20.3721 106.6062 17.6901 109.2882 14.3811 109.2882z" stroke="#E7BC9E" stroke-width="0.85" stroke-linecap="round" fill="none" />
    <path id=""  transform="matrix(1 0 0 -1 0 316)"  d="M12.3723 106.6554C 11.8603 106.6554 11.3763 106.539406 10.9423 106.3354C 11.0453005 106.345406 11.1483 106.3514 11.2553005 106.3514C 12.9413 106.3514 14.3083 104.984406 14.3083 103.2984C 14.3083 101.611404 12.9413 100.2444 11.2553005 100.2444C 11.1483 100.2444 11.0453005 100.250404 10.9423 100.2594C 11.3763 100.055405 11.8603 99.9404 12.3723 99.9404C 14.2263 99.9404 15.7283 101.443405 15.7283 103.2984C 15.7283 105.152405 14.2263 106.6554 12.3723 106.6554z" stroke="#E7BC9E" stroke-width="0.85" stroke-linecap="round" fill="none" />
    <path id=""  transform="matrix(1 0 0 -1 0 316)"  d="M11.6438 103.298C 11.6438 102.754 11.2028 102.312996 10.6588 102.312996C 10.1147995 102.312996 9.6728 102.754 9.6728 103.298C 9.6728 103.841995 10.1147995 104.282 10.6588 104.282C 11.2028 104.282 11.6438 103.841995 11.6438 103.298z" stroke="#E7BC9E" stroke-width="0.85" stroke-linecap="round" fill="none" />
    <path id=""  transform="matrix(1 0 0 -1 0 316)"  d="M36.1839 103.298C 36.1839 102.754 35.742897 102.312996 35.1989 102.312996C 34.6549 102.312996 34.213898 102.754 34.213898 103.298C 34.213898 103.841995 34.6549 104.282 35.1989 104.282C 35.742897 104.282 36.1839 103.841995 36.1839 103.298z" stroke="#E7BC9E" stroke-width="0.85" stroke-linecap="round" fill="none" />
    <path id=""  transform="matrix(1 0 0 -1 0 316)"  d="M31.6624 97.3067C 32.575397 97.3067 33.4394 97.5117 34.2144 97.8757C 34.0314 97.8587 33.846397 97.8487 33.6574 97.8487C 30.6474 97.8487 28.208399 100.288704 28.208399 103.2977C 28.208399 106.3067 30.6474 108.746704 33.6574 108.746704C 33.846397 108.746704 34.0314 108.7377 34.2144 108.718704C 33.4394 109.0837 32.575397 109.287704 31.6624 109.287704C 28.3534 109.287704 25.671398 106.606705 25.671398 103.2977C 25.671398 99.9887 28.3534 97.3067 31.6624 97.3067z" stroke="#E7BC9E" stroke-width="0.85" stroke-linecap="round" fill="none" />
    <path id=""  transform="matrix(1 0 0 -1 0 316)"  d="M27.7366 73.9718C 27.7366 74.703804 27.572601 75.397804 27.2796 76.0188C 27.294601 75.8718 27.301601 75.7238 27.301601 75.5728C 27.301601 73.1578 25.342602 71.1998 22.9286 71.1998C 20.5126 71.1998 18.5546 73.1578 18.5546 75.5728C 18.5546 75.7238 18.562601 75.8718 18.5776 76.0188C 18.284601 75.397804 18.120602 74.703804 18.120602 73.9718C 18.120602 71.3168 20.2726 69.1628 22.9286 69.1628C 25.5846 69.1628 27.7366 71.3168 27.7366 73.9718z" stroke="#E7BC9E" stroke-width="0.85" stroke-linecap="round" fill="none" />
    <path id=""  transform="matrix(1 0 0 -1 0 316)"  d="M33.6712 99.9405C 34.1832 99.9405 34.6672 100.056496 35.1012 100.2605C 34.9982 100.250496 34.8952 100.2445 34.7882 100.2445C 33.1032 100.2445 31.735199 101.611496 31.735199 103.2975C 31.735199 104.9845 33.1032 106.350494 34.7882 106.350494C 34.8952 106.350494 34.9982 106.3455 35.1012 106.335495C 34.6672 106.5405 34.1832 106.6555 33.6712 106.6555C 31.8172 106.6555 30.3142 105.1525 30.3142 103.2975C 30.3142 101.4435 31.8172 99.9405 33.6712 99.9405z" stroke="#E7BC9E" stroke-width="0.85" stroke-linecap="round" fill="none" />
    <path id=""  transform="matrix(1 0 0 -1 0 316)"  d="M30.3137 103.298L28.2087 103.298" stroke="#E7BC9E" stroke-width="0.85" stroke-linecap="round" fill="none" />
    <path id=""  transform="matrix(1 0 0 -1 0 316)"  d="M25.6712 103.298L20.3722 103.298" stroke="#E7BC9E" stroke-width="0.85" stroke-linecap="round" fill="none" />
    <path id=""  transform="matrix(1 0 0 -1 0 316)"  d="M17.8352 103.298L15.7302 103.298" stroke="#E7BC9E" stroke-width="0.85" stroke-linecap="round" fill="none" />
    <path id=""  transform="matrix(1 0 0 -1 0 316)"  d="M23.0296 27.7667L23.0296 48.1897" stroke="#E7BC9E" stroke-width="1" stroke-linecap="round" fill="none" />
    <path id=""  transform="matrix(1 0 0 -1 0 316)"  d="M23.0296 71.1993L23.0296 166.7703" stroke="#E7BC9E" stroke-width="1" stroke-linecap="round" fill="none" />
    <path id=""  transform="matrix(1 0 0 -1 0 316)"  d="M23.0296 65.0382L23.0296 69.1642" stroke="#E7BC9E" stroke-width="1" stroke-linecap="round" fill="none" />
    <path id=""  transform="matrix(1 0 0 -1 0 316)"  d="M20.6087 25.3468C 20.6087 26.6828 21.6927 27.7668 23.0297 27.7668C 24.3657 27.7668 25.4497 26.6828 25.4497 25.3468C 25.4497 24.0098 24.3657 22.9258 23.0297 22.9258C 21.6927 22.9258 20.6087 24.0098 20.6087 25.3468z" stroke="#E7BC9E" stroke-width="1" stroke-linecap="round" fill="none" />
    <path id=""  transform="matrix(1 0 0 -1 0 316)"  d="M21.5227 19.5538C 21.5227 20.385801 22.197699 21.0608 23.0287 21.0608C 23.8617 21.0608 24.5367 20.385801 24.5367 19.5538C 24.5367 18.7218 23.8617 18.0478 23.0287 18.0478C 22.197699 18.0478 21.5227 18.7218 21.5227 19.5538z" stroke="#E7BC9E" stroke-width="1" stroke-linecap="round" fill="none" />
    <path id=""  transform="matrix(1 0 0 -1 0 316)"  d="M19.4065 113.2355L11.466499 113.2355" stroke="#E7BC9E" stroke-width="0.709" stroke-linecap="round" fill="none" />
    <path id=""  transform="matrix(1 0 0 -1 0 316)"  d="M26.6526 113.2355L34.5916 113.2355" stroke="#E7BC9E" stroke-width="0.709" stroke-linecap="round" fill="none" />
    <path id=""  transform="matrix(1 0 0 -1 0 316)"  d="M26.1673 115.047L32.1973 118.529" stroke="#E7BC9E" stroke-width="0.709" stroke-linecap="round" fill="none" />
    <path id=""  transform="matrix(1 0 0 -1 0 316)"  d="M24.8411 116.3732L29.4451 124.3472" stroke="#E7BC9E" stroke-width="0.709" stroke-linecap="round" fill="none" />
    <path id=""  transform="matrix(1 0 0 -1 0 316)"  d="M21.218 116.3732L16.614 124.3472" stroke="#E7BC9E" stroke-width="0.709" stroke-linecap="round" fill="none" />
    <path id=""  transform="matrix(1 0 0 -1 0 316)"  d="M19.8919 115.047L13.860899 118.529" stroke="#E7BC9E" stroke-width="0.709" stroke-linecap="round" fill="none" />
    <path id=""  transform="matrix(1 0 0 -1 0 316)"  d="M26.6526 113.2355L34.5916 113.2355" stroke="#E7BC9E" stroke-width="0.709" stroke-linecap="round" fill="none" />
    <path id=""  transform="matrix(1 0 0 -1 0 316)"  d="M22.137 116.7482L20.73 122.2912" stroke="#E7BC9E" stroke-width="0.709" stroke-linecap="round" fill="none" />
    <path id=""  transform="matrix(1 0 0 -1 0 316)"  d="M20.5012 115.8312L16.5112 119.9282" stroke="#E7BC9E" stroke-width="0.709" stroke-linecap="round" fill="none" />
    <path id=""  transform="matrix(1 0 0 -1 0 316)"  d="M19.5413 114.2198L14.0383 115.771805" stroke="#E7BC9E" stroke-width="0.709" stroke-linecap="round" fill="none" />
    <path id=""  transform="matrix(1 0 0 -1 0 316)"  d="M23.9534 116.7482L25.3604 122.2912" stroke="#E7BC9E" stroke-width="0.709" stroke-linecap="round" fill="none" />
    <path id=""  transform="matrix(1 0 0 -1 0 316)"  d="M25.5901 115.8312L29.5801 119.9282" stroke="#E7BC9E" stroke-width="0.709" stroke-linecap="round" fill="none" />
    <path id=""  transform="matrix(1 0 0 -1 0 316)"  d="M26.5491 114.2198L32.0531 115.771805" stroke="#E7BC9E" stroke-width="0.709" stroke-linecap="round" fill="none" />
    <path id=""  transform="matrix(1 0 0 -1 0 316)"  d="M26.6526 40.7433L34.5916 40.7433" stroke="#E7BC9E" stroke-width="0.709" stroke-linecap="round" fill="none" />
    <path id=""  transform="matrix(1 0 0 -1 0 316)"  d="M19.4065 40.7433L11.466499 40.7433" stroke="#E7BC9E" stroke-width="0.709" stroke-linecap="round" fill="none" />
    <path id=""  transform="matrix(1 0 0 -1 0 316)"  d="M19.8919 38.9317L13.860899 35.449703" stroke="#E7BC9E" stroke-width="0.709" stroke-linecap="round" fill="none" />
    <path id=""  transform="matrix(1 0 0 -1 0 316)"  d="M21.218 37.6056L16.614 29.6316" stroke="#E7BC9E" stroke-width="0.709" stroke-linecap="round" fill="none" />
    <path id=""  transform="matrix(1 0 0 -1 0 316)"  d="M24.8401 37.6056L29.4441 29.6316" stroke="#E7BC9E" stroke-width="0.709" stroke-linecap="round" fill="none" />
    <path id=""  transform="matrix(1 0 0 -1 0 316)"  d="M26.1673 38.9317L32.1973 35.449703" stroke="#E7BC9E" stroke-width="0.709" stroke-linecap="round" fill="none" />
    <path id=""  transform="matrix(1 0 0 -1 0 316)"  d="M19.4065 40.7433L11.466499 40.7433" stroke="#E7BC9E" stroke-width="0.709" stroke-linecap="round" fill="none" />
    <path id=""  transform="matrix(1 0 0 -1 0 316)"  d="M23.9212 37.2306L25.3282 31.6876" stroke="#E7BC9E" stroke-width="0.709" stroke-linecap="round" fill="none" />
    <path id=""  transform="matrix(1 0 0 -1 0 316)"  d="M25.5579 38.1476L29.5479 34.0506" stroke="#E7BC9E" stroke-width="0.709" stroke-linecap="round" fill="none" />
    <path id=""  transform="matrix(1 0 0 -1 0 316)"  d="M26.5169 39.7589L32.0209 38.2059" stroke="#E7BC9E" stroke-width="0.709" stroke-linecap="round" fill="none" />
    <path id=""  transform="matrix(1 0 0 -1 0 316)"  d="M22.1048 37.2306L20.6978 31.6876" stroke="#E7BC9E" stroke-width="0.709" stroke-linecap="round" fill="none" />
    <path id=""  transform="matrix(1 0 0 -1 0 316)"  d="M20.468 38.1476L16.478 34.0506" stroke="#E7BC9E" stroke-width="0.709" stroke-linecap="round" fill="none" />
    <path id=""  transform="matrix(1 0 0 -1 0 316)"  d="M19.509 39.7589L14.005001 38.2059" stroke="#E7BC9E" stroke-width="0.709" stroke-linecap="round" fill="none" />
    <path id=""  transform="matrix(1 0 0 -1 0 316)"  d="M22.3831 12.7091C 22.3831 13.0651 22.6721 13.3551 23.0291 13.3551C 23.3861 13.3551 23.6761 13.0651 23.6761 12.7091C 23.6761 12.352099 23.0291 10.7941 23.0291 10.7941C 23.0291 10.7941 22.3831 12.352099 22.3831 12.7091" stroke="none" fill="#E7BC9E" fill-rule="nonzero" />
    <path id=""  transform="matrix(1 0 0 -1 0 316)"  d="M22.3831 12.7091C 22.3831 13.0651 22.6721 13.3551 23.0291 13.3551C 23.3861 13.3551 23.6761 13.0651 23.6761 12.7091C 23.6761 12.352099 23.0291 10.7941 23.0291 10.7941C 23.0291 10.7941 22.3831 12.352099 22.3831 12.7091z" stroke="#E7BC9E" stroke-width="1" stroke-linecap="round" fill="none" />
    <path id=""  transform="matrix(1 0 0 -1 0 316)"  d="M22.7063 15.8595C 22.7063 16.0385 22.851301 16.1825 23.0293 16.1825C 23.208302 16.1825 23.3523 16.0385 23.3523 15.8595C 23.3523 15.6805 23.208302 15.5355 23.0293 15.5355C 22.851301 15.5355 22.7063 15.6805 22.7063 15.8595" stroke="none" fill="#E7BC9E" fill-rule="nonzero" />
    <path id=""  transform="matrix(1 0 0 -1 0 316)"  d="M22.7063 15.8595C 22.7063 16.0385 22.851301 16.1825 23.0293 16.1825C 23.208302 16.1825 23.3523 16.0385 23.3523 15.8595C 23.3523 15.6805 23.208302 15.5355 23.0293 15.5355C 22.851301 15.5355 22.7063 15.6805 22.7063 15.8595z" stroke="#E7BC9E" stroke-width="1" stroke-linecap="round" fill="none" />
    <path id=""  transform="matrix(1 0 0 -1 0 316)"  d="M159.3323 139.4513C 159.3323 141.0203 160.6033 142.29129 162.1723 142.29129C 163.74031 142.29129 165.0123 141.0203 165.0123 139.4513C 165.0123 137.8823 163.74031 136.6113 162.1723 136.6113C 160.6033 136.6113 159.3323 137.8823 159.3323 139.4513" stroke="none" fill="#E7BC9E" fill-rule="nonzero" />
    <path id=""  transform="matrix(1 0 0 -1 0 316)"  d="M159.3323 56.6935C 159.3323 58.2625 160.6033 59.5335 162.1723 59.5335C 163.74031 59.5335 165.0123 58.2625 165.0123 56.6935C 165.0123 55.1245 163.74031 53.8535 162.1723 53.8535C 160.6033 53.8535 159.3323 55.1245 159.3323 56.6935" stroke="none" fill="#E7BC9E" fill-rule="nonzero" />
    <path id=""  transform="matrix(1 0 0 -1 0 316)"  d="M159.3323 92.4825C 159.3323 94.0515 160.6033 95.322495 162.1723 95.322495C 163.74031 95.322495 165.0123 94.0515 165.0123 92.4825C 165.0123 90.9135 163.74031 89.6425 162.1723 89.6425C 160.6033 89.6425 159.3323 90.9135 159.3323 92.4825" stroke="none" fill="#E7BC9E" fill-rule="nonzero" />
    <path id=""  transform="matrix(1 0 0 -1 0 316)"  d="M153.6682 56.6935C 153.6682 61.3925 157.47319 65.1975 162.1722 65.1975C 166.8672 65.1975 170.6762 61.3925 170.6762 56.6935C 170.6762 51.9945 166.8672 48.1895 162.1722 48.1895C 157.47319 48.1895 153.6682 51.9945 153.6682 56.6935" stroke="#E7BC9E" stroke-width="1" fill="none" />
    <path id=""  transform="matrix(1 0 0 -1 0 316)"  d="M160.1878 40.7433C 160.1878 41.8403 161.0758 42.727303 162.1718 42.727303C 163.2678 42.727303 164.1568 41.8403 164.1568 40.7433C 164.1568 39.6463 163.2678 38.7593 162.1718 38.7593C 161.0758 38.7593 160.1878 39.6463 160.1878 40.7433" stroke="none" fill="#E7BC9E" fill-rule="nonzero" />
    <path id=""  transform="matrix(1 0 0 -1 0 316)"  d="M153.5237 109.2882C 152.6117 109.2882 151.7467 109.0842 150.9717 108.7192C 151.1557 108.7372 151.3407 108.7472 151.5297 108.7472C 154.5387 108.7472 156.9787 106.3072 156.9787 103.2982C 156.9787 100.2892 154.5387 97.8492 151.5297 97.8492C 151.3407 97.8492 151.1557 97.8582 150.9717 97.8762C 151.7467 97.5122 152.6117 97.3072 153.5237 97.3072C 156.8327 97.3072 159.5147 99.9882 159.5147 103.2982C 159.5147 106.6062 156.8327 109.2882 153.5237 109.2882z" stroke="#E7BC9E" stroke-width="0.85" stroke-linecap="round" fill="none" />
    <path id=""  transform="matrix(1 0 0 -1 0 316)"  d="M151.5149 106.6554C 151.00389 106.6554 150.5199 106.539406 150.0849 106.3354C 150.1879 106.345406 150.29189 106.3514 150.39789 106.3514C 152.0839 106.3514 153.4509 104.984406 153.4509 103.2984C 153.4509 101.611404 152.0839 100.2444 150.39789 100.2444C 150.29189 100.2444 150.1879 100.250404 150.0849 100.2594C 150.5199 100.055405 151.00389 99.9404 151.5149 99.9404C 153.3689 99.9404 154.87189 101.443405 154.87189 103.2984C 154.87189 105.152405 153.3689 106.6554 151.5149 106.6554z" stroke="#E7BC9E" stroke-width="0.85" stroke-linecap="round" fill="none" />
    <path id=""  transform="matrix(1 0 0 -1 0 316)"  d="M150.7864 103.298C 150.7864 102.754 150.34541 102.312996 149.8014 102.312996C 149.2574 102.312996 148.81541 102.754 148.81541 103.298C 148.81541 103.841995 149.2574 104.282 149.8014 104.282C 150.34541 104.282 150.7864 103.841995 150.7864 103.298z" stroke="#E7BC9E" stroke-width="0.85" stroke-linecap="round" fill="none" />
    <path id=""  transform="matrix(1 0 0 -1 0 316)"  d="M175.3264 103.298C 175.3264 102.754 174.8864 102.312996 174.3424 102.312996C 173.7984 102.312996 173.3564 102.754 173.3564 103.298C 173.3564 103.841995 173.7984 104.282 174.3424 104.282C 174.8864 104.282 175.3264 103.841995 175.3264 103.298z" stroke="#E7BC9E" stroke-width="0.85" stroke-linecap="round" fill="none" />
    <path id=""  transform="matrix(1 0 0 -1 0 316)"  d="M170.8059 97.3067C 171.7179 97.3067 172.5819 97.5117 173.35689 97.8757C 173.17389 97.8587 172.98889 97.8487 172.7999 97.8487C 169.7909 97.8487 167.35089 100.288704 167.35089 103.2977C 167.35089 106.3067 169.7909 108.746704 172.7999 108.746704C 172.98889 108.746704 173.17389 108.7377 173.35689 108.718704C 172.5819 109.0837 171.7179 109.287704 170.8059 109.287704C 167.4959 109.287704 164.8149 106.606705 164.8149 103.2977C 164.8149 99.9887 167.4959 97.3067 170.8059 97.3067z" stroke="#E7BC9E" stroke-width="0.85" stroke-linecap="round" fill="none" />
    <path id=""  transform="matrix(1 0 0 -1 0 316)"  d="M166.8792 73.9718C 166.8792 74.703804 166.7152 75.397804 166.4222 76.0188C 166.4372 75.8718 166.4442 75.7238 166.4442 75.5728C 166.4442 73.1578 164.4852 71.1998 162.0712 71.1998C 159.65619 71.1998 157.69719 73.1578 157.69719 75.5728C 157.69719 75.7238 157.7052 75.8718 157.7202 76.0188C 157.4272 75.397804 157.2632 74.703804 157.2632 73.9718C 157.2632 71.3168 159.41519 69.1628 162.0712 69.1628C 164.7272 69.1628 166.8792 71.3168 166.8792 73.9718z" stroke="#E7BC9E" stroke-width="0.85" stroke-linecap="round" fill="none" />
    <path id=""  transform="matrix(1 0 0 -1 0 316)"  d="M172.8137 99.9405C 173.3257 99.9405 173.80971 100.056496 174.2437 100.2605C 174.1407 100.250496 174.0377 100.2445 173.9317 100.2445C 172.24571 100.2445 170.8777 101.611496 170.8777 103.2975C 170.8777 104.9845 172.24571 106.350494 173.9317 106.350494C 174.0377 106.350494 174.1407 106.3455 174.2437 106.335495C 173.80971 106.5405 173.3257 106.6555 172.8137 106.6555C 170.9597 106.6555 169.4577 105.1525 169.4577 103.2975C 169.4577 101.4435 170.9597 99.9405 172.8137 99.9405z" stroke="#E7BC9E" stroke-width="0.85" stroke-linecap="round" fill="none" />
    <path id=""  transform="matrix(1 0 0 -1 0 316)"  d="M169.4573 103.298L167.3513 103.298" stroke="#E7BC9E" stroke-width="0.85" stroke-linecap="round" fill="none" />
    <path id=""  transform="matrix(1 0 0 -1 0 316)"  d="M164.8147 103.298L159.5147 103.298" stroke="#E7BC9E" stroke-width="0.85" stroke-linecap="round" fill="none" />
    <path id=""  transform="matrix(1 0 0 -1 0 316)"  d="M156.9778 103.298L154.8728 103.298" stroke="#E7BC9E" stroke-width="0.85" stroke-linecap="round" fill="none" />
    <path id=""  transform="matrix(1 0 0 -1 0 316)"  d="M162.1721 27.7667L162.1721 48.1897" stroke="#E7BC9E" stroke-width="1" stroke-linecap="round" fill="none" />
    <path id=""  transform="matrix(1 0 0 -1 0 316)"  d="M162.1721 71.1993L162.1721 166.7703" stroke="#E7BC9E" stroke-width="1" stroke-linecap="round" fill="none" />
    <path id=""  transform="matrix(1 0 0 -1 0 316)"  d="M162.1721 65.0382L162.1721 69.1642" stroke="#E7BC9E" stroke-width="1" stroke-linecap="round" fill="none" />
    <path id=""  transform="matrix(1 0 0 -1 0 316)"  d="M159.7522 25.3468C 159.7522 26.6828 160.83519 27.7668 162.1722 27.7668C 163.5092 27.7668 164.5922 26.6828 164.5922 25.3468C 164.5922 24.0098 163.5092 22.9258 162.1722 22.9258C 160.83519 22.9258 159.7522 24.0098 159.7522 25.3468z" stroke="#E7BC9E" stroke-width="1" stroke-linecap="round" fill="none" />
    <path id=""  transform="matrix(1 0 0 -1 0 316)"  d="M160.6653 19.5538C 160.6653 20.385801 161.3403 21.0608 162.1723 21.0608C 163.0043 21.0608 163.67929 20.385801 163.67929 19.5538C 163.67929 18.7218 163.0043 18.0478 162.1723 18.0478C 161.3403 18.0478 160.6653 18.7218 160.6653 19.5538z" stroke="#E7BC9E" stroke-width="1" stroke-linecap="round" fill="none" />
    <path id=""  transform="matrix(1 0 0 -1 0 316)"  d="M158.5491 113.2355L150.6091 113.2355" stroke="#E7BC9E" stroke-width="0.709" stroke-linecap="round" fill="none" />
    <path id=""  transform="matrix(1 0 0 -1 0 316)"  d="M165.7952 113.2355L173.7352 113.2355" stroke="#E7BC9E" stroke-width="0.709" stroke-linecap="round" fill="none" />
    <path id=""  transform="matrix(1 0 0 -1 0 316)"  d="M165.3098 115.047L171.3408 118.529" stroke="#E7BC9E" stroke-width="0.709" stroke-linecap="round" fill="none" />
    <path id=""  transform="matrix(1 0 0 -1 0 316)"  d="M163.9837 116.3732L168.5877 124.3472" stroke="#E7BC9E" stroke-width="0.709" stroke-linecap="round" fill="none" />
    <path id=""  transform="matrix(1 0 0 -1 0 316)"  d="M160.3606 116.3732L155.75659 124.3472" stroke="#E7BC9E" stroke-width="0.709" stroke-linecap="round" fill="none" />
    <path id=""  transform="matrix(1 0 0 -1 0 316)"  d="M159.0344 115.047L153.00339 118.529" stroke="#E7BC9E" stroke-width="0.709" stroke-linecap="round" fill="none" />
    <path id=""  transform="matrix(1 0 0 -1 0 316)"  d="M165.7952 113.2355L173.7352 113.2355" stroke="#E7BC9E" stroke-width="0.709" stroke-linecap="round" fill="none" />
    <path id=""  transform="matrix(1 0 0 -1 0 316)"  d="M161.2805 116.7482L159.8735 122.2912" stroke="#E7BC9E" stroke-width="0.709" stroke-linecap="round" fill="none" />
    <path id=""  transform="matrix(1 0 0 -1 0 316)"  d="M159.6438 115.8312L155.6538 119.9282" stroke="#E7BC9E" stroke-width="0.709" stroke-linecap="round" fill="none" />
    <path id=""  transform="matrix(1 0 0 -1 0 316)"  d="M158.6848 114.2198L153.1808 115.771805" stroke="#E7BC9E" stroke-width="0.709" stroke-linecap="round" fill="none" />
    <path id=""  transform="matrix(1 0 0 -1 0 316)"  d="M163.0969 116.7482L164.50389 122.2912" stroke="#E7BC9E" stroke-width="0.709" stroke-linecap="round" fill="none" />
    <path id=""  transform="matrix(1 0 0 -1 0 316)"  d="M164.7327 115.8312L168.7227 119.9282" stroke="#E7BC9E" stroke-width="0.709" stroke-linecap="round" fill="none" />
    <path id=""  transform="matrix(1 0 0 -1 0 316)"  d="M165.6917 114.2198L171.1967 115.771805" stroke="#E7BC9E" stroke-width="0.709" stroke-linecap="round" fill="none" />
    <path id=""  transform="matrix(1 0 0 -1 0 316)"  d="M165.7952 40.7433L173.7352 40.7433" stroke="#E7BC9E" stroke-width="0.709" stroke-linecap="round" fill="none" />
    <path id=""  transform="matrix(1 0 0 -1 0 316)"  d="M158.5491 40.7433L150.6091 40.7433" stroke="#E7BC9E" stroke-width="0.709" stroke-linecap="round" fill="none" />
    <path id=""  transform="matrix(1 0 0 -1 0 316)"  d="M159.0344 38.9317L153.00339 35.449703" stroke="#E7BC9E" stroke-width="0.709" stroke-linecap="round" fill="none" />
    <path id=""  transform="matrix(1 0 0 -1 0 316)"  d="M160.3606 37.6056L155.75659 29.6316" stroke="#E7BC9E" stroke-width="0.709" stroke-linecap="round" fill="none" />
    <path id=""  transform="matrix(1 0 0 -1 0 316)"  d="M163.9837 37.6056L168.5877 29.6316" stroke="#E7BC9E" stroke-width="0.709" stroke-linecap="round" fill="none" />
    <path id=""  transform="matrix(1 0 0 -1 0 316)"  d="M165.3098 38.9317L171.3408 35.449703" stroke="#E7BC9E" stroke-width="0.709" stroke-linecap="round" fill="none" />
    <path id=""  transform="matrix(1 0 0 -1 0 316)"  d="M158.5491 40.7433L150.6091 40.7433" stroke="#E7BC9E" stroke-width="0.709" stroke-linecap="round" fill="none" />
    <path id=""  transform="matrix(1 0 0 -1 0 316)"  d="M163.0637 37.2306L164.4707 31.6876" stroke="#E7BC9E" stroke-width="0.709" stroke-linecap="round" fill="none" />
    <path id=""  transform="matrix(1 0 0 -1 0 316)"  d="M164.7005 38.1476L168.6905 34.0506" stroke="#E7BC9E" stroke-width="0.709" stroke-linecap="round" fill="none" />
    <path id=""  transform="matrix(1 0 0 -1 0 316)"  d="M165.6594 39.7589L171.16339 38.2059" stroke="#E7BC9E" stroke-width="0.709" stroke-linecap="round" fill="none" />
    <path id=""  transform="matrix(1 0 0 -1 0 316)"  d="M161.2473 37.2306L159.8403 31.6876" stroke="#E7BC9E" stroke-width="0.709" stroke-linecap="round" fill="none" />
    <path id=""  transform="matrix(1 0 0 -1 0 316)"  d="M159.6116 38.1476L155.6206 34.0506" stroke="#E7BC9E" stroke-width="0.709" stroke-linecap="round" fill="none" />
    <path id=""  transform="matrix(1 0 0 -1 0 316)"  d="M158.6526 39.7589L153.1476 38.2059" stroke="#E7BC9E" stroke-width="0.709" stroke-linecap="round" fill="none" />
    <path id=""  transform="matrix(1 0 0 -1 0 316)"  d="M161.5257 12.7091C 161.5257 13.0651 161.8147 13.3551 162.17169 13.3551C 162.5287 13.3551 162.8187 13.0651 162.8187 12.7091C 162.8187 12.352099 162.17169 10.7941 162.17169 10.7941C 162.17169 10.7941 161.5257 12.352099 161.5257 12.7091" stroke="none" fill="#E7BC9E" fill-rule="nonzero" />
    <path id=""  transform="matrix(1 0 0 -1 0 316)"  d="M161.5257 12.7091C 161.5257 13.0651 161.8147 13.3551 162.17169 13.3551C 162.5287 13.3551 162.8187 13.0651 162.8187 12.7091C 162.8187 12.352099 162.17169 10.7941 162.17169 10.7941C 162.17169 10.7941 161.5257 12.352099 161.5257 12.7091z" stroke="#E7BC9E" stroke-width="1" stroke-linecap="round" fill="none" />
    <path id=""  transform="matrix(1 0 0 -1 0 316)"  d="M161.8489 15.8595C 161.8489 16.0385 161.99391 16.1825 162.1719 16.1825C 162.3509 16.1825 162.4949 16.0385 162.4949 15.8595C 162.4949 15.6805 162.3509 15.5355 162.1719 15.5355C 161.99391 15.5355 161.8489 15.6805 161.8489 15.8595" stroke="none" fill="#E7BC9E" fill-rule="nonzero" />
    <path id=""  transform="matrix(1 0 0 -1 0 316)"  d="M161.8489 15.8595C 161.8489 16.0385 161.99391 16.1825 162.1719 16.1825C 162.3509 16.1825 162.4949 16.0385 162.4949 15.8595C 162.4949 15.6805 162.3509 15.5355 162.1719 15.5355C 161.99391 15.5355 161.8489 15.6805 161.8489 15.8595z" stroke="#E7BC9E" stroke-width="1" stroke-linecap="round" fill="none" />
    <path id=""  transform="matrix(1 0 0 -1 0 316)"  d="M20.4915 164.7242C 20.4915 166.12419 21.626501 167.2592 23.029501 167.2592C 24.4295 167.2592 25.566502 166.12419 25.566502 164.7242C 25.566502 163.3212 23.029501 157.20619 23.029501 157.20619C 23.029501 157.20619 20.4915 163.3212 20.4915 164.7242" stroke="none" fill="#E7BC9E" fill-rule="nonzero" />
    <path id=""  transform="matrix(1 0 0 -1 0 316)"  d="M159.635 164.7594C 159.635 166.1594 160.76999 167.2944 162.172 167.2944C 163.573 167.2944 164.70999 166.1594 164.70999 164.7594C 164.70999 163.3564 162.172 157.2414 162.172 157.2414C 162.172 157.2414 159.635 163.3564 159.635 164.7594" stroke="none" fill="#E7BC9E" fill-rule="nonzero" />
		</g>
	</g>
</g>
</svg>