<?xml version="1.0" standalone="no"?>
<!DOCTYPE svg PUBLIC "-//W3C//DTD SVG 1.0//EN" "http://www.w3.org/TR/2001/REC-SVG-20010904/DTD/svg10.dtd">
<svg xmlns="http://www.w3.org/2000/svg" xmlns:xlink="http://www.w3.org/1999/xlink" id="body_6" width="247" height="421">

<defs>
    <clipPath  id="1">

    <path id=""  clip-rule="evenodd" transform="matrix(1 0 0 1 0 0)"  d="M0 316L0 0L0 0L185 0L185 0L185 316L185 316L0 316z" />    </clipPath>
    <clipPath  id="2">

    <path id=""  clip-rule="evenodd" transform="matrix(1 0 0 1 0 0)"  d="M0 0L185 0L185 0L185 316L185 316L0 316z" />    </clipPath>
</defs>

<g transform="matrix(1.3333 0 0 1.3333 0 0)">
	<g clip-path="url(#1)" >
		<g clip-path="url(#2)" >
    <path id=""  transform="matrix(1 0 0 -1 0 316)"  d="M16.8186 153.7363C 16.8186 152.8243 17.0236 151.9603 17.3886 151.1843C 17.3706 151.3683 17.3606 151.55229 17.3606 151.7423C 17.3606 154.7513 19.8006 157.1913 22.8096 157.1913C 25.8186 157.1913 28.258598 154.7513 28.258598 151.7423C 28.258598 151.55229 28.2496 151.3683 28.2316 151.1843C 28.5956 151.9603 28.8006 152.8243 28.8006 153.7363C 28.8006 157.0463 26.119598 159.7263 22.8096 159.7263C 19.5016 159.7263 16.8186 157.0463 16.8186 153.7363z" stroke="#E7BC9E" stroke-width="0.85" stroke-linecap="round" fill="none" />
    <path id=""  transform="matrix(1 0 0 -1 0 316)"  d="M25.9974 58.0849C 31.3304 56.6769 35.2634 51.8179 35.2634 46.0429C 35.2634 45.6109 35.2424 45.1889 35.2014 44.7699C 36.0334 46.5409 36.5024 48.5159 36.5024 50.6009C 36.5024 57.0669 32.0234 62.483902 25.9974 63.9199" stroke="#E7BC9E" stroke-width="0.75" stroke-linecap="round" fill="none" />
    <path id=""  transform="matrix(1 0 0 -1 0 316)"  d="M19.8606 63.9746C 13.716599 62.625603 9.1175995 57.152603 9.1175995 50.6006C 9.1175995 48.515602 9.5856 46.540604 10.4206 44.7696C 10.3796 45.188602 10.355599 45.611603 10.355599 46.042603C 10.355599 51.904602 14.406599 56.820602 19.8606 58.145603" stroke="#E7BC9E" stroke-width="0.75" stroke-linecap="round" fill="none" />
    <path id=""  transform="matrix(1 0 0 -1 0 316)"  d="M35.3753 125.4726L24.8073 126.3396L24.8073 126.3396L31.656301 134.7386L31.656301 134.7386L23.6123 127.508606L23.6123 127.508606L22.810303 151.7726L22.810303 151.7726L22.007301 127.509605L22.007301 127.509605L13.943302 134.7156L13.943302 134.7156L20.8143 126.3396L20.8143 126.3396L10.244301 125.4726L10.244301 125.4726L20.8143 124.60461L20.8143 124.60461L13.898302 116.2786L13.898302 116.2786L22.007301 123.4336L22.007301 123.4336L22.810303 99.1716L22.810303 99.1716L23.6123 123.4356L23.6123 123.4356L31.680302 116.231606L31.680302 116.231606L24.806301 124.60461z" stroke="none" fill="#E7BC9E" fill-rule="nonzero" />
    <path id=""  transform="matrix(1 0 0 -1 0 316)"  d="M35.3753 125.4726L24.8073 126.3396L24.8073 126.3396L31.656301 134.7386L31.656301 134.7386L23.6123 127.508606L23.6123 127.508606L22.810303 151.7726L22.810303 151.7726L22.007301 127.509605L22.007301 127.509605L13.943302 134.7156L13.943302 134.7156L20.8143 126.3396L20.8143 126.3396L10.244301 125.4726L10.244301 125.4726L20.8143 124.60461L20.8143 124.60461L13.898302 116.2786L13.898302 116.2786L22.007301 123.4336L22.007301 123.4336L22.810303 99.1716L22.810303 99.1716L23.6123 123.4356L23.6123 123.4356L31.680302 116.231606L31.680302 116.231606L24.806301 124.60461L24.806301 124.60461L35.3753 125.4726z" stroke="#E7BC9E" stroke-width="0.2" fill="none" />
    <path id=""  transform="matrix(1 0 0 -1 0 316)"  d="M19.8606 75.1201L22.9286 79.0781L22.9286 79.0781L25.9976 75.1201L25.9976 75.1201L25.9976 54.8021C 25.9976 53.1071 24.6236 51.7341 22.9286 51.7341C 21.2346 51.7341 19.8606 53.1071 19.8606 54.8021L19.8606 54.8021L19.8606 75.1201z" stroke="#E7BC9E" stroke-width="0.75" stroke-linecap="round" fill="none" />
    <path id=""  transform="matrix(1 0 0 -1 0 316)"  d="M25.1985 92.4453C 25.1985 91.1923 24.1815 90.1753 22.9285 90.1753C 21.6765 90.1753 20.6595 91.1923 20.6595 92.4453C 20.6595 93.698296 21.6765 94.715294 22.9285 94.715294C 24.1815 94.715294 25.1985 93.698296 25.1985 92.4453z" stroke="#E7BC9E" stroke-width="1" fill="none" />
    <path id=""  transform="matrix(1 0 0 -1 0 316)"  d="M24.0638 84.6269C 24.0638 83.9999 23.555801 83.4919 22.9288 83.4919C 22.301802 83.4919 21.7938 83.9999 21.7938 84.6269C 21.7938 85.2539 22.301802 85.7619 22.9288 85.7619C 23.555801 85.7619 24.0638 85.2539 24.0638 84.6269z" stroke="#E7BC9E" stroke-width="1" fill="none" />
    <path id=""  transform="matrix(1 0 0 -1 0 316)"  d="M20.5159 162.2754L22.912899 167.4864L22.912899 167.4864L25.3139 162.2754L25.3139 162.2754L22.912899 159.7124L22.912899 159.7124L20.5159 162.2754z" stroke="#E7BC9E" stroke-width="0.85" stroke-linecap="round" fill="none" />
    <path id=""  transform="matrix(1 0 0 -1 0 316)"  d="M156.0794 153.7363C 156.0794 152.8243 156.28441 151.9603 156.64941 151.1843C 156.63141 151.3683 156.62141 151.55229 156.62141 151.7423C 156.62141 154.7513 159.06041 157.1913 162.0704 157.1913C 165.0794 157.1913 167.5184 154.7513 167.5184 151.7423C 167.5184 151.55229 167.5104 151.3683 167.4924 151.1843C 167.85641 151.9603 168.06041 152.8243 168.06041 153.7363C 168.06041 157.0463 165.3804 159.7263 162.0704 159.7263C 158.7624 159.7263 156.0794 157.0463 156.0794 153.7363z" stroke="#E7BC9E" stroke-width="0.85" stroke-linecap="round" fill="none" />
    <path id=""  transform="matrix(1 0 0 -1 0 316)"  d="M174.636 125.4726L164.067 126.3396L164.067 126.3396L170.917 134.7386L170.917 134.7386L162.873 127.508606L162.873 127.508606L162.071 151.7726L162.071 151.7726L161.268 127.509605L161.268 127.509605L153.20401 134.7156L153.20401 134.7156L160.074 126.3396L160.074 126.3396L149.505 125.4726L149.505 125.4726L160.075 124.60461L160.075 124.60461L153.159 116.2786L153.159 116.2786L161.268 123.4336L161.268 123.4336L162.071 99.1716L162.071 99.1716L162.873 123.4356L162.873 123.4356L170.941 116.231606L170.941 116.231606L164.067 124.60461z" stroke="none" fill="#E7BC9E" fill-rule="nonzero" />
    <path id=""  transform="matrix(1 0 0 -1 0 316)"  d="M174.636 125.4726L164.067 126.3396L164.067 126.3396L170.917 134.7386L170.917 134.7386L162.873 127.508606L162.873 127.508606L162.071 151.7726L162.071 151.7726L161.268 127.509605L161.268 127.509605L153.20401 134.7156L153.20401 134.7156L160.074 126.3396L160.074 126.3396L149.505 125.4726L149.505 125.4726L160.075 124.60461L160.075 124.60461L153.159 116.2786L153.159 116.2786L161.268 123.4336L161.268 123.4336L162.071 99.1716L162.071 99.1716L162.873 123.4356L162.873 123.4356L170.941 116.231606L170.941 116.231606L164.067 124.60461L164.067 124.60461L174.636 125.4726z" stroke="#E7BC9E" stroke-width="0.2" fill="none" />
    <path id=""  transform="matrix(1 0 0 -1 0 316)"  d="M164.4593 92.4453C 164.4593 91.1923 163.4423 90.1753 162.1893 90.1753C 160.9373 90.1753 159.9203 91.1923 159.9203 92.4453C 159.9203 93.698296 160.9373 94.715294 162.1893 94.715294C 163.4423 94.715294 164.4593 93.698296 164.4593 92.4453z" stroke="#E7BC9E" stroke-width="1" fill="none" />
    <path id=""  transform="matrix(1 0 0 -1 0 316)"  d="M163.3245 84.6269C 163.3245 83.9999 162.8165 83.4919 162.1895 83.4919C 161.5625 83.4919 161.05449 83.9999 161.05449 84.6269C 161.05449 85.2539 161.5625 85.7619 162.1895 85.7619C 162.8165 85.7619 163.3245 85.2539 163.3245 84.6269z" stroke="#E7BC9E" stroke-width="1" fill="none" />
    <path id=""  transform="matrix(1 0 0 -1 0 316)"  d="M159.7757 162.2754L162.17369 167.4864L162.17369 167.4864L164.57469 162.2754L164.57469 162.2754L162.17369 159.7124L162.17369 159.7124L159.7757 162.2754z" stroke="#E7BC9E" stroke-width="0.85" stroke-linecap="round" fill="none" />
    <path id=""  transform="matrix(1 0 0 -1 0 316)"  d="M22.929 79.0781L22.929 51.7341" stroke="#E7BC9E" stroke-width="0.75" stroke-linecap="round" fill="none" />
    <path id=""  transform="matrix(1 0 0 -1 0 316)"  d="M19.8606 66.8125L22.9286 69.8545L22.9286 69.8545L25.9976 66.8125" stroke="#E7BC9E" stroke-width="0.75" stroke-linecap="round" fill="none" />
    <path id=""  transform="matrix(1 0 0 -1 0 316)"  d="M19.8606 62.75L22.9286 65.792L22.9286 65.792L25.9976 62.75" stroke="#E7BC9E" stroke-width="0.75" stroke-linecap="round" fill="none" />
    <path id=""  transform="matrix(1 0 0 -1 0 316)"  d="M19.8606 58.6875L22.9286 61.7295L22.9286 61.7295L25.9976 58.6875" stroke="#E7BC9E" stroke-width="0.75" stroke-linecap="round" fill="none" />
    <path id=""  transform="matrix(1 0 0 -1 0 316)"  d="M19.8606 54.625L22.9286 57.667L22.9286 57.667L25.9976 54.625" stroke="#E7BC9E" stroke-width="0.75" stroke-linecap="round" fill="none" />
    <path id=""  transform="matrix(1 0 0 -1 0 316)"  d="M165.3772 58.0849C 170.7102 56.6769 174.6442 51.8179 174.6442 46.0429C 174.6442 45.6109 174.6222 45.1889 174.58119 44.7699C 175.4132 46.5409 175.8822 48.5159 175.8822 50.6009C 175.8822 57.0669 171.4032 62.483902 165.3772 63.9199" stroke="#E7BC9E" stroke-width="0.75" stroke-linecap="round" fill="none" />
    <path id=""  transform="matrix(1 0 0 -1 0 316)"  d="M159.2405 63.9746C 153.0965 62.625603 148.4975 57.152603 148.4975 50.6006C 148.4975 48.515602 148.96649 46.540604 149.80049 44.7696C 149.75949 45.188602 149.73549 45.611603 149.73549 46.042603C 149.73549 51.904602 153.7865 56.820602 159.2405 58.145603" stroke="#E7BC9E" stroke-width="0.75" stroke-linecap="round" fill="none" />
    <path id=""  transform="matrix(1 0 0 -1 0 316)"  d="M159.2415 75.1201L162.3085 79.0781L162.3085 79.0781L165.3775 75.1201L165.3775 75.1201L165.3775 54.8021C 165.3775 53.1071 164.0035 51.7341 162.3085 51.7341C 160.6145 51.7341 159.2415 53.1071 159.2415 54.8021L159.2415 54.8021L159.2415 75.1201z" stroke="#E7BC9E" stroke-width="0.75" stroke-linecap="round" fill="none" />
    <path id=""  transform="matrix(1 0 0 -1 0 316)"  d="M162.3089 79.0781L162.3089 51.7341" stroke="#E7BC9E" stroke-width="0.75" stroke-linecap="round" fill="none" />
    <path id=""  transform="matrix(1 0 0 -1 0 316)"  d="M159.2415 66.8125L162.3085 69.8545L162.3085 69.8545L165.3775 66.8125" stroke="#E7BC9E" stroke-width="0.75" stroke-linecap="round" fill="none" />
    <path id=""  transform="matrix(1 0 0 -1 0 316)"  d="M159.2415 62.75L162.3085 65.792L162.3085 65.792L165.3775 62.75" stroke="#E7BC9E" stroke-width="0.75" stroke-linecap="round" fill="none" />
    <path id=""  transform="matrix(1 0 0 -1 0 316)"  d="M159.2415 58.6875L162.3085 61.7295L162.3085 61.7295L165.3775 58.6875" stroke="#E7BC9E" stroke-width="0.75" stroke-linecap="round" fill="none" />
    <path id=""  transform="matrix(1 0 0 -1 0 316)"  d="M159.2415 54.625L162.3085 57.667L162.3085 57.667L165.3775 54.625" stroke="#E7BC9E" stroke-width="0.75" stroke-linecap="round" fill="none" />
		</g>
	</g>
</g>
</svg>