<?xml version="1.0" standalone="no"?>
<!DOCTYPE svg PUBLIC "-//W3C//DTD SVG 1.0//EN" "http://www.w3.org/TR/2001/REC-SVG-20010904/DTD/svg10.dtd">
<svg xmlns="http://www.w3.org/2000/svg" xmlns:xlink="http://www.w3.org/1999/xlink" id="body_7" width="247" height="421">

<defs>
    <clipPath  id="1">

    <path id=""  clip-rule="evenodd" transform="matrix(1 0 0 1 0 0)"  d="M0 316L0 0L0 0L185 0L185 0L185 316L185 316L0 316z" />    </clipPath>
    <clipPath  id="2">

    <path id=""  clip-rule="evenodd" transform="matrix(1 0 0 1 0 0)"  d="M0 0L185 0L185 0L185 316L185 316L0 316z" />    </clipPath>
</defs>

<g transform="matrix(1.3333 0 0 1.3333 0 0)">
	<g clip-path="url(#1)" >
		<g clip-path="url(#2)" >
    <path id=""  transform="matrix(1 0 0 -1 0 316)"  d="M16.2747 46.2188C 18.1527 46.2188 19.6747 44.6968 19.6747 42.818798C 19.6747 40.9408 18.1527 39.4178 16.2747 39.4178C 14.3967 39.4178 9.0297 42.818798 9.0297 42.818798C 9.0297 42.818798 14.3967 46.2188 16.2747 46.2188z" stroke="#E7BC9E" stroke-width="1" stroke-linecap="round" fill="none" />
    <path id=""  transform="matrix(1 0 0 -1 0 316)"  d="M29.5823 39.4181C 27.7043 39.4181 26.1823 40.940098 26.1823 42.8181C 26.1823 44.6961 27.7043 46.219097 29.5823 46.219097C 31.4603 46.219097 36.8273 42.8181 36.8273 42.8181C 36.8273 42.8181 31.4603 39.4181 29.5823 39.4181z" stroke="#E7BC9E" stroke-width="1" stroke-linecap="round" fill="none" />
    <path id=""  transform="matrix(1 0 0 -1 0 316)"  d="M26.3294 49.4727C 26.3294 47.593697 24.8074 46.071697 22.9294 46.071697C 21.0504 46.071697 19.5274 47.593697 19.5274 49.4727C 19.5274 51.350697 22.9294 56.716698 22.9294 56.716698C 22.9294 56.716698 26.3294 51.350697 26.3294 49.4727z" stroke="#E7BC9E" stroke-width="1" stroke-linecap="round" fill="none" />
    <path id=""  transform="matrix(1 0 0 -1 0 316)"  d="M19.5276 36.1642C 19.5276 38.0422 21.049599 39.5642 22.9286 39.5642C 24.806599 39.5642 26.3296 38.0422 26.3296 36.1642C 26.3296 34.2862 22.9286 28.9202 22.9286 28.9202C 22.9286 28.9202 19.5276 34.2862 19.5276 36.1642z" stroke="#E7BC9E" stroke-width="1" stroke-linecap="round" fill="none" />
    <path id=""  transform="matrix(1 0 0 -1 0 316)"  d="M22.9299 73.1798L22.9299 164.4248" stroke="#E7BC9E" stroke-width="1" stroke-linecap="round" fill="none" />
    <path id=""  transform="matrix(1 0 0 -1 0 316)"  d="M22.8997 82.0567C 23.5677 82.8767 24.3337 83.5627 25.1237 84.2137C 25.9097 84.869705 26.814701 85.3627 27.6697 85.9237C 29.3787 87.0467 31.1047 88.1467 32.847702 89.2237C 32.8717 89.2387 32.9017 89.231705 32.9177 89.2077C 32.9297 89.1857 32.924698 89.1587 32.9067 89.1427C 31.332699 87.8307 29.7427 86.5407 28.1367 85.274704C 27.3337 84.6427 26.5807 83.939705 25.7087 83.4017C 24.8397 82.8597 23.9477 82.3487 22.9587 81.9757C 22.9307 81.9647 22.901701 81.9787 22.8907 82.0057C 22.8837 82.023705 22.887701 82.0427 22.8997 82.0567" stroke="none" fill="#E7BC9E" fill-rule="nonzero" />
    <path id=""  transform="matrix(1 0 0 -1 0 316)"  d="M22.8997 89.1388C 23.5677 89.9588 24.3337 90.6448 25.1237 91.2958C 25.9097 91.952805 26.814701 92.4448 27.6697 93.006805C 29.3787 94.1288 31.1047 95.228806 32.847702 96.3058C 32.8717 96.3208 32.9017 96.313805 32.9177 96.2898C 32.9297 96.2688 32.924698 96.2408 32.9067 96.2248C 31.332699 94.9128 29.7427 93.6238 28.1367 92.3578C 27.3337 91.7248 26.5807 91.021805 25.7087 90.4848C 24.8397 89.9418 23.9477 89.4318 22.9587 89.0578C 22.9307 89.0468 22.901701 89.0608 22.8907 89.0878C 22.8837 89.105804 22.887701 89.1248 22.8997 89.1388" stroke="none" fill="#E7BC9E" fill-rule="nonzero" />
    <path id=""  transform="matrix(1 0 0 -1 0 316)"  d="M22.8997 96.2208C 23.5677 97.0418 24.3337 97.7268 25.1237 98.3778C 25.9097 99.034805 26.814701 99.5268 27.6697 100.088806C 29.3787 101.2108 31.1047 102.31081 32.847702 103.3878C 32.8717 103.4028 32.9017 103.395805 32.9177 103.3718C 32.9297 103.3508 32.924698 103.3228 32.9067 103.3068C 31.332699 101.994804 29.7427 100.7058 28.1367 99.439804C 27.3337 98.8068 26.5807 98.103806 25.7087 97.5668C 24.8397 97.0238 23.9477 96.5138 22.9587 96.1398C 22.9307 96.1298 22.901701 96.1428 22.8907 96.1698C 22.8837 96.187805 22.887701 96.2068 22.8997 96.2208" stroke="none" fill="#E7BC9E" fill-rule="nonzero" />
    <path id=""  transform="matrix(1 0 0 -1 0 316)"  d="M22.8997 103.3028C 23.5677 104.1238 24.3337 104.8088 25.1237 105.4598C 25.9097 106.116806 26.814701 106.6088 27.6697 107.17081C 29.3787 108.2928 31.1047 109.39381 32.847702 110.4708C 32.8717 110.4858 32.9017 110.477806 32.9177 110.453804C 32.9297 110.4328 32.924698 110.4058 32.9067 110.3888C 31.332699 109.076805 29.7427 107.7878 28.1367 106.521805C 27.3337 105.8888 26.5807 105.18581 25.7087 104.6488C 24.8397 104.105804 23.9477 103.5958 22.9587 103.2218C 22.9307 103.2118 22.901701 103.2258 22.8907 103.2518C 22.8837 103.269806 22.887701 103.2888 22.8997 103.3028" stroke="none" fill="#E7BC9E" fill-rule="nonzero" />
    <path id=""  transform="matrix(1 0 0 -1 0 316)"  d="M22.8997 110.3849C 23.5677 111.2059 24.3337 111.8909 25.1237 112.5419C 25.9097 113.198906 26.814701 113.6919 27.6697 114.2529C 29.3787 115.3749 31.1047 116.47591 32.847702 117.5529C 32.8717 117.5679 32.9017 117.559906 32.9177 117.535904C 32.9297 117.5149 32.924698 117.4879 32.9067 117.4719C 31.332699 116.158905 29.7427 114.8699 28.1367 113.603905C 27.3337 112.9709 26.5807 112.268906 25.7087 111.7309C 24.8397 111.187904 23.9477 110.6779 22.9587 110.3039C 22.9307 110.2939 22.901701 110.3079 22.8907 110.3339C 22.8837 110.351906 22.887701 110.3709 22.8997 110.3849" stroke="none" fill="#E7BC9E" fill-rule="nonzero" />
    <path id=""  transform="matrix(1 0 0 -1 0 316)"  d="M22.8997 117.4679C 23.5677 118.2879 24.3337 118.9729 25.1237 119.6239C 25.9097 120.28091 26.814701 120.7739 27.6697 121.3349C 29.3787 122.4579 31.1047 123.55791 32.847702 124.6349C 32.8717 124.6499 32.9017 124.64191 32.9177 124.617905C 32.9297 124.5969 32.924698 124.5699 32.9067 124.5539C 31.332699 123.240906 29.7427 121.951904 28.1367 120.685905C 27.3337 120.0529 26.5807 119.35091 25.7087 118.812904C 24.8397 118.269905 23.9477 117.7599 22.9587 117.3859C 22.9307 117.3759 22.901701 117.3899 22.8907 117.4159C 22.8837 117.434906 22.887701 117.4529 22.8997 117.4679" stroke="none" fill="#E7BC9E" fill-rule="nonzero" />
    <path id=""  transform="matrix(1 0 0 -1 0 316)"  d="M22.8997 124.5499C 23.5677 125.369896 24.3337 126.05489 25.1237 126.706894C 25.9097 127.3629 26.814701 127.855896 27.6697 128.4169C 29.3787 129.5399 31.1047 130.6399 32.847702 131.71689C 32.8717 131.7319 32.9017 131.72389 32.9177 131.69989C 32.9297 131.6789 32.924698 131.6519 32.9067 131.6359C 31.332699 130.3239 29.7427 129.03389 28.1367 127.7679C 27.3337 127.135895 26.5807 126.4329 25.7087 125.8949C 24.8397 125.3519 23.9477 124.841896 22.9587 124.468895C 22.9307 124.45789 22.901701 124.47189 22.8907 124.497894C 22.8837 124.5169 22.887701 124.5349 22.8997 124.5499" stroke="none" fill="#E7BC9E" fill-rule="nonzero" />
    <path id=""  transform="matrix(1 0 0 -1 0 316)"  d="M22.8997 131.6319C 23.5677 132.4519 24.3337 133.1369 25.1237 133.7889C 25.9097 134.4449 26.814701 134.9379 27.6697 135.4989C 29.3787 136.6219 31.1047 137.7219 32.847702 138.79889C 32.8717 138.8139 32.9017 138.8069 32.9177 138.78189C 32.9297 138.7609 32.924698 138.7339 32.9067 138.7179C 31.332699 137.4059 29.7427 136.11589 28.1367 134.8499C 27.3337 134.2179 26.5807 133.5149 25.7087 132.9769C 24.8397 132.4339 23.9477 131.9239 22.9587 131.5509C 22.9307 131.5399 22.901701 131.5539 22.8907 131.5809C 22.8837 131.59889 22.887701 131.61789 22.8997 131.6319" stroke="none" fill="#E7BC9E" fill-rule="nonzero" />
    <path id=""  transform="matrix(1 0 0 -1 0 316)"  d="M22.8997 138.714C 23.5677 139.53401 24.3337 140.22 25.1237 140.871C 25.9097 141.52701 26.814701 142.02 27.6697 142.582C 29.3787 143.70401 31.1047 144.804 32.847702 145.88101C 32.8717 145.89601 32.9017 145.889 32.9177 145.865C 32.9297 145.84401 32.924698 145.81601 32.9067 145.8C 31.332699 144.488 29.7427 143.199 28.1367 141.933C 27.3337 141.3 26.5807 140.597 25.7087 140.06C 24.8397 139.517 23.9477 139.007 22.9587 138.63301C 22.9307 138.62201 22.901701 138.636 22.8907 138.66301C 22.8837 138.681 22.887701 138.7 22.8997 138.714" stroke="none" fill="#E7BC9E" fill-rule="nonzero" />
    <path id=""  transform="matrix(1 0 0 -1 0 316)"  d="M22.8997 81.9757C 21.9097 82.3487 21.0167 82.8597 20.1487 83.4017C 19.276701 83.9397 18.5237 84.6427 17.7197 85.274704C 16.1147 86.5407 14.5247 87.8307 12.9507 89.1427C 12.9297 89.1607 12.926701 89.1927 12.9447 89.2127C 12.9607 89.2327 12.9887 89.2367 13.0087 89.2237C 14.7527 88.1467 16.4777 87.0467 18.1887 85.9237C 19.0427 85.3627 19.9477 84.8707 20.7337 84.2137C 21.5237 83.5627 22.2907 82.8767 22.9587 82.0567C 22.9757 82.0347 22.9727 82.0017 22.9507 81.9837C 22.9357 81.9717 22.9167 81.9687 22.8997 81.9757" stroke="none" fill="#E7BC9E" fill-rule="nonzero" />
    <path id=""  transform="matrix(1 0 0 -1 0 316)"  d="M22.8997 89.0577C 21.9097 89.4317 21.0167 89.9417 20.1487 90.4847C 19.276701 91.0217 18.5237 91.7247 17.7197 92.357704C 16.1147 93.6237 14.5247 94.912704 12.9507 96.2247C 12.9297 96.2427 12.926701 96.274704 12.9447 96.2957C 12.9607 96.3147 12.9887 96.3197 13.0087 96.3057C 14.7527 95.2287 16.4777 94.1287 18.1887 93.0067C 19.0427 92.4447 19.9477 91.953705 20.7337 91.2957C 21.5237 90.6447 22.2907 89.9587 22.9587 89.1387C 22.9757 89.1167 22.9727 89.0837 22.9507 89.065704C 22.9357 89.0537 22.9167 89.0507 22.8997 89.0577" stroke="none" fill="#E7BC9E" fill-rule="nonzero" />
    <path id=""  transform="matrix(1 0 0 -1 0 316)"  d="M22.8997 96.1398C 21.9097 96.5138 21.0167 97.0238 20.1487 97.5668C 19.276701 98.1038 18.5237 98.8068 17.7197 99.439804C 16.1147 100.7058 14.5247 101.994804 12.9507 103.3068C 12.9297 103.3258 12.926701 103.356804 12.9447 103.3778C 12.9607 103.397804 12.9887 103.4018 13.0087 103.3878C 14.7527 102.3108 16.4777 101.2108 18.1887 100.0888C 19.0427 99.5268 19.9477 99.0358 20.7337 98.3778C 21.5237 97.7268 22.2907 97.0418 22.9587 96.2208C 22.9757 96.1988 22.9727 96.1658 22.9507 96.147804C 22.9357 96.1358 22.9167 96.133804 22.8997 96.1398" stroke="none" fill="#E7BC9E" fill-rule="nonzero" />
    <path id=""  transform="matrix(1 0 0 -1 0 316)"  d="M22.8997 103.2218C 21.9097 103.5958 21.0167 104.105804 20.1487 104.6488C 19.276701 105.1858 18.5237 105.8888 17.7197 106.521805C 16.1147 107.7878 14.5247 109.076805 12.9507 110.3888C 12.9297 110.4078 12.926701 110.438805 12.9447 110.4598C 12.9607 110.479805 12.9887 110.4838 13.0087 110.4708C 14.7527 109.3938 16.4777 108.2928 18.1887 107.1708C 19.0427 106.6088 19.9477 106.1178 20.7337 105.4598C 21.5237 104.8088 22.2907 104.1238 22.9587 103.3028C 22.9757 103.2818 22.9727 103.2478 22.9507 103.230804C 22.9357 103.217804 22.9167 103.215805 22.8997 103.2218" stroke="none" fill="#E7BC9E" fill-rule="nonzero" />
    <path id=""  transform="matrix(1 0 0 -1 0 316)"  d="M22.8997 110.3038C 21.9097 110.6778 21.0167 111.187805 20.1487 111.730804C 19.276701 112.2688 18.5237 112.9708 17.7197 113.603806C 16.1147 114.869804 14.5247 116.158806 12.9507 117.4718C 12.9297 117.4898 12.926701 117.520805 12.9447 117.5418C 12.9607 117.561806 12.9887 117.5658 13.0087 117.5528C 14.7527 116.4758 16.4777 115.3748 18.1887 114.2528C 19.0427 113.6918 19.9477 113.1998 20.7337 112.5418C 21.5237 111.8908 22.2907 111.2058 22.9587 110.3848C 22.9757 110.3638 22.9727 110.3298 22.9507 110.312805C 22.9357 110.299805 22.9167 110.297806 22.8997 110.3038" stroke="none" fill="#E7BC9E" fill-rule="nonzero" />
    <path id=""  transform="matrix(1 0 0 -1 0 316)"  d="M22.8997 117.3858C 21.9097 117.7598 21.0167 118.269806 20.1487 118.812805C 19.276701 119.3508 18.5237 120.0528 17.7197 120.68581C 16.1147 121.951805 14.5247 123.24081 12.9507 124.5538C 12.9297 124.5718 12.926701 124.602806 12.9447 124.6238C 12.9607 124.64381 12.9887 124.647804 13.0087 124.6348C 14.7527 123.5578 16.4777 122.4578 18.1887 121.3348C 19.0427 120.7738 19.9477 120.2818 20.7337 119.6238C 21.5237 118.9728 22.2907 118.2878 22.9587 117.467804C 22.9757 117.4458 22.9727 117.411804 22.9507 117.394806C 22.9357 117.382805 22.9167 117.37981 22.8997 117.3858" stroke="none" fill="#E7BC9E" fill-rule="nonzero" />
    <path id=""  transform="matrix(1 0 0 -1 0 316)"  d="M22.8997 124.4689C 21.9097 124.8419 21.0167 125.351906 20.1487 125.894905C 19.276701 126.4329 18.5237 127.1359 17.7197 127.76791C 16.1147 129.0339 14.5247 130.3239 12.9507 131.6359C 12.9297 131.6539 12.926701 131.6849 12.9447 131.7059C 12.9607 131.7259 12.9887 131.7299 13.0087 131.7169C 14.7527 130.63991 16.4777 129.5399 18.1887 128.4169C 19.0427 127.8559 19.9477 127.3639 20.7337 126.7069C 21.5237 126.0549 22.2907 125.3699 22.9587 124.549904C 22.9757 124.5279 22.9727 124.4949 22.9507 124.476906C 22.9357 124.464905 22.9167 124.4619 22.8997 124.4689" stroke="none" fill="#E7BC9E" fill-rule="nonzero" />
    <path id=""  transform="matrix(1 0 0 -1 0 316)"  d="M22.8997 131.5509C 21.9097 131.9239 21.0167 132.4339 20.1487 132.9769C 19.276701 133.51491 18.5237 134.21791 17.7197 134.8499C 16.1147 136.1159 14.5247 137.4059 12.9507 138.7179C 12.9297 138.7359 12.926701 138.7679 12.9447 138.7879C 12.9607 138.8079 12.9887 138.8119 13.0087 138.7989C 14.7527 137.72191 16.4777 136.6219 18.1887 135.4989C 19.0427 134.9379 19.9477 134.4459 20.7337 133.78891C 21.5237 133.1369 22.2907 132.4519 22.9587 131.6319C 22.9757 131.60991 22.9727 131.5769 22.9507 131.5589C 22.9357 131.5469 22.9167 131.5439 22.8997 131.5509" stroke="none" fill="#E7BC9E" fill-rule="nonzero" />
    <path id=""  transform="matrix(1 0 0 -1 0 316)"  d="M22.8997 138.6329C 21.9097 139.0069 21.0167 139.5169 20.1487 140.0599C 19.276701 140.59691 18.5237 141.29991 17.7197 141.9329C 16.1147 143.1989 14.5247 144.4879 12.9507 145.7999C 12.9297 145.8179 12.926701 145.8499 12.9447 145.87091C 12.9607 145.88991 12.9887 145.8949 13.0087 145.8809C 14.7527 144.80391 16.4777 143.7039 18.1887 142.58191C 19.0427 142.0199 19.9477 141.52791 20.7337 140.87091C 21.5237 140.21991 22.2907 139.5339 22.9587 138.7139C 22.9757 138.69191 22.9727 138.6589 22.9507 138.6409C 22.9357 138.6289 22.9167 138.6259 22.8997 138.6329" stroke="none" fill="#E7BC9E" fill-rule="nonzero" />
    <path id=""  transform="matrix(1 0 0 -1 0 316)"  d="M24.2473 42.8185C 24.2473 42.0895 23.6563 41.4995 22.929298 41.4995C 22.200298 41.4995 21.609299 42.0895 21.609299 42.8185C 21.609299 43.5475 22.200298 44.1365 22.929298 44.1365C 23.6563 44.1365 24.2473 43.5475 24.2473 42.8185z" stroke="#E7BC9E" stroke-width="1" fill="none" />
    <path id=""  transform="matrix(1 0 0 -1 0 316)"  d="M18.7864 42.8185C 18.7864 42.0895 18.1964 41.4995 17.4684 41.4995C 16.739399 41.4995 16.1484 42.0895 16.1484 42.8185C 16.1484 43.5475 16.739399 44.1365 17.4684 44.1365C 18.1964 44.1365 18.7864 43.5475 18.7864 42.8185" stroke="none" fill="#E7BC9E" fill-rule="nonzero" />
    <path id=""  transform="matrix(1 0 0 -1 0 316)"  d="M22.929 38.6768C 23.657001 38.6768 24.247002 38.0858 24.247002 37.3578C 24.247002 36.6288 23.657001 36.0388 22.929 36.0388C 22.2 36.0388 21.61 36.6288 21.61 37.3578C 21.61 38.0858 22.2 38.6768 22.929 38.6768" stroke="none" fill="#E7BC9E" fill-rule="nonzero" />
    <path id=""  transform="matrix(1 0 0 -1 0 316)"  d="M27.0706 42.8185C 27.0706 43.5475 27.6606 44.1365 28.388601 44.1365C 29.1176 44.1365 29.708601 43.5475 29.708601 42.8185C 29.708601 42.0895 29.1176 41.4995 28.388601 41.4995C 27.6606 41.4995 27.0706 42.0895 27.0706 42.8185" stroke="none" fill="#E7BC9E" fill-rule="nonzero" />
    <path id=""  transform="matrix(1 0 0 -1 0 316)"  d="M22.929 46.9601C 22.2 46.9601 21.61 47.551098 21.61 48.2791C 21.61 49.0071 22.2 49.5981 22.929 49.5981C 23.657001 49.5981 24.247002 49.0071 24.247002 48.2791C 24.247002 47.551098 23.657001 46.9601 22.929 46.9601" stroke="none" fill="#E7BC9E" fill-rule="nonzero" />
    <path id=""  transform="matrix(1 0 0 -1 0 316)"  d="M19.346 27.9337C 19.346 31.4167 20.95 34.2417 22.929 34.2417C 24.908 34.2417 26.511002 31.4167 26.511002 27.9337C 26.511002 24.449701 22.929 14.4947 22.929 14.4947C 22.929 14.4947 19.346 24.449701 19.346 27.9337z" stroke="#E7BC9E" stroke-width="1" stroke-linecap="round" fill="none" />
    <path id=""  transform="matrix(1 0 0 -1 0 316)"  d="M21.0022 14.8097C 21.0022 15.8347 21.864199 16.6667 22.9292 16.6667C 23.992199 16.6667 24.8552 15.8347 24.8552 14.8097C 24.8552 13.7837 22.9292 10.8507 22.9292 10.8507C 22.9292 10.8507 21.0022 13.7837 21.0022 14.8097" stroke="none" fill="#E7BC9E" fill-rule="nonzero" />
    <path id=""  transform="matrix(1 0 0 -1 0 316)"  d="M19.7815 164.4664C 19.7815 166.1424 21.1905 167.5014 22.9285 167.5014C 24.6665 167.5014 26.0755 166.1424 26.0755 164.4664C 26.0755 162.7904 22.9285 158.0004 22.9285 158.0004C 22.9285 158.0004 19.7815 162.7904 19.7815 164.4664" stroke="none" fill="#E7BC9E" fill-rule="nonzero" />
    <path id=""  transform="matrix(1 0 0 -1 0 316)"  d="M25.4153 23.6222C 25.4153 22.2482 24.3023 21.1352 22.9293 21.1352C 21.5553 21.1352 20.4413 22.2482 20.4413 23.6222C 20.4413 24.9952 22.9293 28.9202 22.9293 28.9202C 22.9293 28.9202 25.4153 24.9952 25.4153 23.6222z" stroke="#E7BC9E" stroke-width="1" stroke-linecap="round" fill="none" />
    <path id=""  transform="matrix(1 0 0 -1 0 316)"  d="M22.9114 75.086L25.4154 70.251L25.4154 70.251L22.9454 65.419L22.9454 65.419L20.4414 70.255z" stroke="none" fill="#E7BC9E" fill-rule="nonzero" />
    <path id=""  transform="matrix(1 0 0 -1 0 316)"  d="M21.6096 70.6671C 14.2966 70.2931 9.2376 69.4881 9.2376 68.5561C 9.2376 67.7081 13.4196005 66.9661 19.6746 66.5581" stroke="#E7BC9E" stroke-width="0.709" stroke-linecap="round" fill="none" />
    <path id=""  transform="matrix(1 0 0 -1 0 316)"  d="M24.2473 70.6671C 31.560299 70.2931 36.6193 69.4881 36.6193 68.5561C 36.6193 67.7081 32.437298 66.9661 26.182299 66.5581" stroke="#E7BC9E" stroke-width="0.709" stroke-linecap="round" fill="none" />
    <path id=""  transform="matrix(1 0 0 -1 0 316)"  d="M22.929 56.7169L22.929 68.1699" stroke="#E7BC9E" stroke-width="0.567" fill="none" />
    <path id=""  transform="matrix(1 0 0 -1 0 316)"  d="M155.4173 46.2188C 157.2953 46.2188 158.81729 44.6968 158.81729 42.818798C 158.81729 40.9408 157.2953 39.4178 155.4173 39.4178C 153.53929 39.4178 148.1733 42.818798 148.1733 42.818798C 148.1733 42.818798 153.53929 46.2188 155.4173 46.2188z" stroke="#E7BC9E" stroke-width="1" stroke-linecap="round" fill="none" />
    <path id=""  transform="matrix(1 0 0 -1 0 316)"  d="M168.7258 39.4181C 166.8468 39.4181 165.3248 40.940098 165.3248 42.8181C 165.3248 44.6961 166.8468 46.219097 168.7258 46.219097C 170.6038 46.219097 175.9698 42.8181 175.9698 42.8181C 175.9698 42.8181 170.6038 39.4181 168.7258 39.4181z" stroke="#E7BC9E" stroke-width="1" stroke-linecap="round" fill="none" />
    <path id=""  transform="matrix(1 0 0 -1 0 316)"  d="M165.4719 49.4727C 165.4719 47.593697 163.94989 46.071697 162.0719 46.071697C 160.1939 46.071697 158.6709 47.593697 158.6709 49.4727C 158.6709 51.350697 162.0719 56.716698 162.0719 56.716698C 162.0719 56.716698 165.4719 51.350697 165.4719 49.4727z" stroke="#E7BC9E" stroke-width="1" stroke-linecap="round" fill="none" />
    <path id=""  transform="matrix(1 0 0 -1 0 316)"  d="M158.6712 36.1642C 158.6712 38.0422 160.1932 39.5642 162.0712 39.5642C 163.9492 39.5642 165.4722 38.0422 165.4722 36.1642C 165.4722 34.2862 162.0712 28.9202 162.0712 28.9202C 162.0712 28.9202 158.6712 34.2862 158.6712 36.1642z" stroke="#E7BC9E" stroke-width="1" stroke-linecap="round" fill="none" />
    <path id=""  transform="matrix(1 0 0 -1 0 316)"  d="M162.0725 73.1798L162.0725 164.4248" stroke="#E7BC9E" stroke-width="1" stroke-linecap="round" fill="none" />
    <path id=""  transform="matrix(1 0 0 -1 0 316)"  d="M162.0423 82.0567C 162.7103 82.8767 163.4763 83.5627 164.2663 84.2137C 165.05229 84.869705 165.95729 85.3627 166.8123 85.9237C 168.5213 87.0467 170.24829 88.1467 171.9903 89.2237C 172.0143 89.2387 172.0453 89.231705 172.0603 89.2077C 172.0723 89.1857 172.06729 89.1587 172.0493 89.1427C 170.4763 87.8307 168.88629 86.5407 167.2793 85.274704C 166.4763 84.6427 165.7233 83.939705 164.8513 83.4017C 163.9823 82.8597 163.0913 82.3487 162.1013 81.9757C 162.0733 81.9647 162.0443 81.9787 162.0333 82.0057C 162.0273 82.023705 162.0303 82.0427 162.0423 82.0567" stroke="none" fill="#E7BC9E" fill-rule="nonzero" />
    <path id=""  transform="matrix(1 0 0 -1 0 316)"  d="M162.0423 89.1388C 162.7103 89.9588 163.4763 90.6448 164.2663 91.2958C 165.05229 91.952805 165.95729 92.4448 166.8123 93.006805C 168.5213 94.1288 170.24829 95.228806 171.9903 96.3058C 172.0143 96.3208 172.0453 96.313805 172.0603 96.2898C 172.0723 96.2688 172.06729 96.2408 172.0493 96.2248C 170.4763 94.9128 168.88629 93.6238 167.2793 92.3578C 166.4763 91.7248 165.7233 91.021805 164.8513 90.4848C 163.9823 89.9418 163.0913 89.4318 162.1013 89.0578C 162.0733 89.0468 162.0443 89.0608 162.0333 89.0878C 162.0273 89.105804 162.0303 89.1248 162.0423 89.1388" stroke="none" fill="#E7BC9E" fill-rule="nonzero" />
    <path id=""  transform="matrix(1 0 0 -1 0 316)"  d="M162.0423 96.2208C 162.7103 97.0418 163.4763 97.7268 164.2663 98.3778C 165.05229 99.034805 165.95729 99.5268 166.8123 100.088806C 168.5213 101.2108 170.24829 102.31081 171.9903 103.3878C 172.0143 103.4028 172.0453 103.395805 172.0603 103.3718C 172.0723 103.3508 172.06729 103.3228 172.0493 103.3068C 170.4763 101.994804 168.88629 100.7058 167.2793 99.439804C 166.4763 98.8068 165.7233 98.103806 164.8513 97.5668C 163.9823 97.0238 163.0913 96.5138 162.1013 96.1398C 162.0733 96.1298 162.0443 96.1428 162.0333 96.1698C 162.0273 96.187805 162.0303 96.2068 162.0423 96.2208" stroke="none" fill="#E7BC9E" fill-rule="nonzero" />
    <path id=""  transform="matrix(1 0 0 -1 0 316)"  d="M162.0423 103.3028C 162.7103 104.1238 163.4763 104.8088 164.2663 105.4598C 165.05229 106.116806 165.95729 106.6088 166.8123 107.17081C 168.5213 108.2928 170.24829 109.39381 171.9903 110.4708C 172.0143 110.4858 172.0453 110.477806 172.0603 110.453804C 172.0723 110.4328 172.06729 110.4058 172.0493 110.3888C 170.4763 109.076805 168.88629 107.7878 167.2793 106.521805C 166.4763 105.8888 165.7233 105.18581 164.8513 104.6488C 163.9823 104.105804 163.0913 103.5958 162.1013 103.2218C 162.0733 103.2118 162.0443 103.2258 162.0333 103.2518C 162.0273 103.269806 162.0303 103.2888 162.0423 103.3028" stroke="none" fill="#E7BC9E" fill-rule="nonzero" />
    <path id=""  transform="matrix(1 0 0 -1 0 316)"  d="M162.0423 110.3849C 162.7103 111.2059 163.4763 111.8909 164.2663 112.5419C 165.05229 113.198906 165.95729 113.6919 166.8123 114.2529C 168.5213 115.3749 170.24829 116.47591 171.9903 117.5529C 172.0143 117.5679 172.0453 117.559906 172.0603 117.535904C 172.0723 117.5149 172.06729 117.4879 172.0493 117.4719C 170.4763 116.158905 168.88629 114.8699 167.2793 113.603905C 166.4763 112.9709 165.7233 112.268906 164.8513 111.7309C 163.9823 111.187904 163.0913 110.6779 162.1013 110.3039C 162.0733 110.2939 162.0443 110.3079 162.0333 110.3339C 162.0273 110.351906 162.0303 110.3709 162.0423 110.3849" stroke="none" fill="#E7BC9E" fill-rule="nonzero" />
    <path id=""  transform="matrix(1 0 0 -1 0 316)"  d="M162.0423 117.4679C 162.7103 118.2879 163.4763 118.9729 164.2663 119.6239C 165.05229 120.28091 165.95729 120.7739 166.8123 121.3349C 168.5213 122.4579 170.24829 123.55791 171.9903 124.6349C 172.0143 124.6499 172.0453 124.64191 172.0603 124.617905C 172.0723 124.5969 172.06729 124.5699 172.0493 124.5539C 170.4763 123.240906 168.88629 121.951904 167.2793 120.685905C 166.4763 120.0529 165.7233 119.35091 164.8513 118.812904C 163.9823 118.269905 163.0913 117.7599 162.1013 117.3859C 162.0733 117.3759 162.0443 117.3899 162.0333 117.4159C 162.0273 117.434906 162.0303 117.4529 162.0423 117.4679" stroke="none" fill="#E7BC9E" fill-rule="nonzero" />
    <path id=""  transform="matrix(1 0 0 -1 0 316)"  d="M162.0423 124.5499C 162.7103 125.369896 163.4763 126.05489 164.2663 126.706894C 165.05229 127.3629 165.95729 127.855896 166.8123 128.4169C 168.5213 129.5399 170.24829 130.6399 171.9903 131.71689C 172.0143 131.7319 172.0453 131.72389 172.0603 131.69989C 172.0723 131.6789 172.06729 131.6519 172.0493 131.6359C 170.4763 130.3239 168.88629 129.03389 167.2793 127.7679C 166.4763 127.135895 165.7233 126.4329 164.8513 125.8949C 163.9823 125.3519 163.0913 124.841896 162.1013 124.468895C 162.0733 124.45789 162.0443 124.47189 162.0333 124.497894C 162.0273 124.5169 162.0303 124.5349 162.0423 124.5499" stroke="none" fill="#E7BC9E" fill-rule="nonzero" />
    <path id=""  transform="matrix(1 0 0 -1 0 316)"  d="M162.0423 131.6319C 162.7103 132.4519 163.4763 133.1369 164.2663 133.7889C 165.05229 134.4449 165.95729 134.9379 166.8123 135.4989C 168.5213 136.6219 170.24829 137.7219 171.9903 138.79889C 172.0143 138.8139 172.0453 138.8069 172.0603 138.78189C 172.0723 138.7609 172.06729 138.7339 172.0493 138.7179C 170.4763 137.4059 168.88629 136.11589 167.2793 134.8499C 166.4763 134.2179 165.7233 133.5149 164.8513 132.9769C 163.9823 132.4339 163.0913 131.9239 162.1013 131.5509C 162.0733 131.5399 162.0443 131.5539 162.0333 131.5809C 162.0273 131.59889 162.0303 131.61789 162.0423 131.6319" stroke="none" fill="#E7BC9E" fill-rule="nonzero" />
    <path id=""  transform="matrix(1 0 0 -1 0 316)"  d="M162.0423 138.714C 162.7103 139.53401 163.4763 140.22 164.2663 140.871C 165.05229 141.52701 165.95729 142.02 166.8123 142.582C 168.5213 143.70401 170.24829 144.804 171.9903 145.88101C 172.0143 145.89601 172.0453 145.889 172.0603 145.865C 172.0723 145.84401 172.06729 145.81601 172.0493 145.8C 170.4763 144.488 168.88629 143.199 167.2793 141.933C 166.4763 141.3 165.7233 140.597 164.8513 140.06C 163.9823 139.517 163.0913 139.007 162.1013 138.63301C 162.0733 138.62201 162.0443 138.636 162.0333 138.66301C 162.0273 138.681 162.0303 138.7 162.0423 138.714" stroke="none" fill="#E7BC9E" fill-rule="nonzero" />
    <path id=""  transform="matrix(1 0 0 -1 0 316)"  d="M162.0423 81.9757C 161.05229 82.3487 160.1603 82.8597 159.2923 83.4017C 158.4203 83.9397 157.6673 84.6427 156.8633 85.274704C 155.2573 86.5407 153.6673 87.8307 152.0943 89.1427C 152.0723 89.1607 152.0693 89.1927 152.0873 89.2127C 152.1043 89.2327 152.1313 89.2367 152.1523 89.2237C 153.8953 88.1467 155.62129 87.0467 157.3313 85.9237C 158.1863 85.3627 159.0913 84.8707 159.8773 84.2137C 160.66629 83.5627 161.4333 82.8767 162.1013 82.0567C 162.1183 82.0347 162.1153 82.0017 162.09329 81.9837C 162.0783 81.9717 162.0593 81.9687 162.0423 81.9757" stroke="none" fill="#E7BC9E" fill-rule="nonzero" />
    <path id=""  transform="matrix(1 0 0 -1 0 316)"  d="M162.0423 89.0577C 161.05229 89.4317 160.1603 89.9417 159.2923 90.4847C 158.4203 91.0217 157.6673 91.7247 156.8633 92.357704C 155.2573 93.6237 153.6673 94.912704 152.0943 96.2247C 152.0723 96.2427 152.0693 96.274704 152.0873 96.2957C 152.1043 96.3147 152.1313 96.3197 152.1523 96.3057C 153.8953 95.2287 155.62129 94.1287 157.3313 93.0067C 158.1863 92.4447 159.0913 91.953705 159.8773 91.2957C 160.66629 90.6447 161.4333 89.9587 162.1013 89.1387C 162.1183 89.1167 162.1153 89.0837 162.09329 89.065704C 162.0783 89.0537 162.0593 89.0507 162.0423 89.0577" stroke="none" fill="#E7BC9E" fill-rule="nonzero" />
    <path id=""  transform="matrix(1 0 0 -1 0 316)"  d="M162.0423 96.1398C 161.05229 96.5138 160.1603 97.0238 159.2923 97.5668C 158.4203 98.1038 157.6673 98.8068 156.8633 99.439804C 155.2573 100.7058 153.6673 101.994804 152.0943 103.3068C 152.0723 103.3258 152.0693 103.356804 152.0873 103.3778C 152.1043 103.397804 152.1313 103.4018 152.1523 103.3878C 153.8953 102.3108 155.62129 101.2108 157.3313 100.0888C 158.1863 99.5268 159.0913 99.0358 159.8773 98.3778C 160.66629 97.7268 161.4333 97.0418 162.1013 96.2208C 162.1183 96.1988 162.1153 96.1658 162.09329 96.147804C 162.0783 96.1358 162.0593 96.133804 162.0423 96.1398" stroke="none" fill="#E7BC9E" fill-rule="nonzero" />
    <path id=""  transform="matrix(1 0 0 -1 0 316)"  d="M162.0423 103.2218C 161.05229 103.5958 160.1603 104.105804 159.2923 104.6488C 158.4203 105.1858 157.6673 105.8888 156.8633 106.521805C 155.2573 107.7878 153.6673 109.076805 152.0943 110.3888C 152.0723 110.4078 152.0693 110.438805 152.0873 110.4598C 152.1043 110.479805 152.1313 110.4838 152.1523 110.4708C 153.8953 109.3938 155.62129 108.2928 157.3313 107.1708C 158.1863 106.6088 159.0913 106.1178 159.8773 105.4598C 160.66629 104.8088 161.4333 104.1238 162.1013 103.3028C 162.1183 103.2818 162.1153 103.2478 162.09329 103.230804C 162.0783 103.217804 162.0593 103.215805 162.0423 103.2218" stroke="none" fill="#E7BC9E" fill-rule="nonzero" />
    <path id=""  transform="matrix(1 0 0 -1 0 316)"  d="M162.0423 110.3038C 161.05229 110.6778 160.1603 111.187805 159.2923 111.730804C 158.4203 112.2688 157.6673 112.9708 156.8633 113.603806C 155.2573 114.869804 153.6673 116.158806 152.0943 117.4718C 152.0723 117.4898 152.0693 117.520805 152.0873 117.5418C 152.1043 117.561806 152.1313 117.5658 152.1523 117.5528C 153.8953 116.4758 155.62129 115.3748 157.3313 114.2528C 158.1863 113.6918 159.0913 113.1998 159.8773 112.5418C 160.66629 111.8908 161.4333 111.2058 162.1013 110.3848C 162.1183 110.3638 162.1153 110.3298 162.09329 110.312805C 162.0783 110.299805 162.0593 110.297806 162.0423 110.3038" stroke="none" fill="#E7BC9E" fill-rule="nonzero" />
    <path id=""  transform="matrix(1 0 0 -1 0 316)"  d="M162.0423 117.3858C 161.05229 117.7598 160.1603 118.269806 159.2923 118.812805C 158.4203 119.3508 157.6673 120.0528 156.8633 120.68581C 155.2573 121.951805 153.6673 123.24081 152.0943 124.5538C 152.0723 124.5718 152.0693 124.602806 152.0873 124.6238C 152.1043 124.64381 152.1313 124.647804 152.1523 124.6348C 153.8953 123.5578 155.62129 122.4578 157.3313 121.3348C 158.1863 120.7738 159.0913 120.2818 159.8773 119.6238C 160.66629 118.9728 161.4333 118.2878 162.1013 117.467804C 162.1183 117.4458 162.1153 117.411804 162.09329 117.394806C 162.0783 117.382805 162.0593 117.37981 162.0423 117.3858" stroke="none" fill="#E7BC9E" fill-rule="nonzero" />
    <path id=""  transform="matrix(1 0 0 -1 0 316)"  d="M162.0423 124.4689C 161.05229 124.8419 160.1603 125.351906 159.2923 125.894905C 158.4203 126.4329 157.6673 127.1359 156.8633 127.76791C 155.2573 129.0339 153.6673 130.3239 152.0943 131.6359C 152.0723 131.6539 152.0693 131.6849 152.0873 131.7059C 152.1043 131.7259 152.1313 131.7299 152.1523 131.7169C 153.8953 130.63991 155.62129 129.5399 157.3313 128.4169C 158.1863 127.8559 159.0913 127.3639 159.8773 126.7069C 160.66629 126.0549 161.4333 125.3699 162.1013 124.549904C 162.1183 124.5279 162.1153 124.4949 162.09329 124.476906C 162.0783 124.464905 162.0593 124.4619 162.0423 124.4689" stroke="none" fill="#E7BC9E" fill-rule="nonzero" />
    <path id=""  transform="matrix(1 0 0 -1 0 316)"  d="M162.0423 131.5509C 161.05229 131.9239 160.1603 132.4339 159.2923 132.9769C 158.4203 133.51491 157.6673 134.21791 156.8633 134.8499C 155.2573 136.1159 153.6673 137.4059 152.0943 138.7179C 152.0723 138.7359 152.0693 138.7679 152.0873 138.7879C 152.1043 138.8079 152.1313 138.8119 152.1523 138.7989C 153.8953 137.72191 155.62129 136.6219 157.3313 135.4989C 158.1863 134.9379 159.0913 134.4459 159.8773 133.78891C 160.66629 133.1369 161.4333 132.4519 162.1013 131.6319C 162.1183 131.60991 162.1153 131.5769 162.09329 131.5589C 162.0783 131.5469 162.0593 131.5439 162.0423 131.5509" stroke="none" fill="#E7BC9E" fill-rule="nonzero" />
    <path id=""  transform="matrix(1 0 0 -1 0 316)"  d="M162.0423 138.6329C 161.05229 139.0069 160.1603 139.5169 159.2923 140.0599C 158.4203 140.59691 157.6673 141.29991 156.8633 141.9329C 155.2573 143.1989 153.6673 144.4879 152.0943 145.7999C 152.0723 145.8179 152.0693 145.8499 152.0873 145.87091C 152.1043 145.88991 152.1313 145.8949 152.1523 145.8809C 153.8953 144.80391 155.62129 143.7039 157.3313 142.58191C 158.1863 142.0199 159.0913 141.52791 159.8773 140.87091C 160.66629 140.21991 161.4333 139.5339 162.1013 138.7139C 162.1183 138.69191 162.1153 138.6589 162.09329 138.6409C 162.0783 138.6289 162.0593 138.6259 162.0423 138.6329" stroke="none" fill="#E7BC9E" fill-rule="nonzero" />
    <path id=""  transform="matrix(1 0 0 -1 0 316)"  d="M163.3899 42.8185C 163.3899 42.0895 162.7999 41.4995 162.0719 41.4995C 161.3429 41.4995 160.75189 42.0895 160.75189 42.8185C 160.75189 43.5475 161.3429 44.1365 162.0719 44.1365C 162.7999 44.1365 163.3899 43.5475 163.3899 42.8185z" stroke="#E7BC9E" stroke-width="1" fill="none" />
    <path id=""  transform="matrix(1 0 0 -1 0 316)"  d="M157.9299 42.8185C 157.9299 42.0895 157.3389 41.4995 156.6109 41.4995C 155.8819 41.4995 155.2919 42.0895 155.2919 42.8185C 155.2919 43.5475 155.8819 44.1365 156.6109 44.1365C 157.3389 44.1365 157.9299 43.5475 157.9299 42.8185" stroke="none" fill="#E7BC9E" fill-rule="nonzero" />
    <path id=""  transform="matrix(1 0 0 -1 0 316)"  d="M162.0715 38.6768C 162.8005 38.6768 163.3895 38.0858 163.3895 37.3578C 163.3895 36.6288 162.8005 36.0388 162.0715 36.0388C 161.3425 36.0388 160.7525 36.6288 160.7525 37.3578C 160.7525 38.0858 161.3425 38.6768 162.0715 38.6768" stroke="none" fill="#E7BC9E" fill-rule="nonzero" />
    <path id=""  transform="matrix(1 0 0 -1 0 316)"  d="M166.2132 42.8185C 166.2132 43.5475 166.8042 44.1365 167.5322 44.1365C 168.2602 44.1365 168.8512 43.5475 168.8512 42.8185C 168.8512 42.0895 168.2602 41.4995 167.5322 41.4995C 166.8042 41.4995 166.2132 42.0895 166.2132 42.8185" stroke="none" fill="#E7BC9E" fill-rule="nonzero" />
    <path id=""  transform="matrix(1 0 0 -1 0 316)"  d="M162.0715 46.9601C 161.3425 46.9601 160.7525 47.551098 160.7525 48.2791C 160.7525 49.0071 161.3425 49.5981 162.0715 49.5981C 162.8005 49.5981 163.3895 49.0071 163.3895 48.2791C 163.3895 47.551098 162.8005 46.9601 162.0715 46.9601" stroke="none" fill="#E7BC9E" fill-rule="nonzero" />
    <path id=""  transform="matrix(1 0 0 -1 0 316)"  d="M158.4885 27.9337C 158.4885 31.4167 160.0925 34.2417 162.07149 34.2417C 164.05049 34.2417 165.6545 31.4167 165.6545 27.9337C 165.6545 24.449701 162.07149 14.4947 162.07149 14.4947C 162.07149 14.4947 158.4885 24.449701 158.4885 27.9337z" stroke="#E7BC9E" stroke-width="1" stroke-linecap="round" fill="none" />
    <path id=""  transform="matrix(1 0 0 -1 0 316)"  d="M160.1448 14.8097C 160.1448 15.8347 161.0068 16.6667 162.07181 16.6667C 163.13481 16.6667 163.9978 15.8347 163.9978 14.8097C 163.9978 13.7837 162.07181 10.8507 162.07181 10.8507C 162.07181 10.8507 160.1448 13.7837 160.1448 14.8097" stroke="none" fill="#E7BC9E" fill-rule="nonzero" />
    <path id=""  transform="matrix(1 0 0 -1 0 316)"  d="M158.9241 164.4664C 158.9241 166.1424 160.3331 167.5014 162.0711 167.5014C 163.8101 167.5014 165.21811 166.1424 165.21811 164.4664C 165.21811 162.7904 162.0711 158.0004 162.0711 158.0004C 162.0711 158.0004 158.9241 162.7904 158.9241 164.4664" stroke="none" fill="#E7BC9E" fill-rule="nonzero" />
    <path id=""  transform="matrix(1 0 0 -1 0 316)"  d="M164.5579 23.6222C 164.5579 22.2482 163.4449 21.1352 162.0719 21.1352C 160.69891 21.1352 159.58391 22.2482 159.58391 23.6222C 159.58391 24.9952 162.0719 28.9202 162.0719 28.9202C 162.0719 28.9202 164.5579 24.9952 164.5579 23.6222z" stroke="#E7BC9E" stroke-width="1" stroke-linecap="round" fill="none" />
    <path id=""  transform="matrix(1 0 0 -1 0 316)"  d="M162.054 75.086L164.559 70.251L164.559 70.251L162.089 65.419L162.089 65.419L159.584 70.255z" stroke="none" fill="#E7BC9E" fill-rule="nonzero" />
    <path id=""  transform="matrix(1 0 0 -1 0 316)"  d="M160.7522 70.6671C 153.4402 70.2931 148.3802 69.4881 148.3802 68.5561C 148.3802 67.7081 152.5622 66.9661 158.8172 66.5581" stroke="#E7BC9E" stroke-width="0.709" stroke-linecap="round" fill="none" />
    <path id=""  transform="matrix(1 0 0 -1 0 316)"  d="M163.3899 70.6671C 170.7029 70.2931 175.7629 69.4881 175.7629 68.5561C 175.7629 67.7081 171.5799 66.9661 165.32489 66.5581" stroke="#E7BC9E" stroke-width="0.709" stroke-linecap="round" fill="none" />
    <path id=""  transform="matrix(1 0 0 -1 0 316)"  d="M162.0715 56.7169L162.0715 68.1699" stroke="#E7BC9E" stroke-width="0.567" fill="none" />
		</g>
	</g>
</g>
</svg>