<?xml version="1.0" standalone="no"?>
<!DOCTYPE svg PUBLIC "-//W3C//DTD SVG 1.0//EN" "http://www.w3.org/TR/2001/REC-SVG-20010904/DTD/svg10.dtd">
<svg xmlns="http://www.w3.org/2000/svg" xmlns:xlink="http://www.w3.org/1999/xlink" id="body_6" width="247" height="421">

<defs>
    <clipPath  id="1">

    <path id=""  clip-rule="evenodd" transform="matrix(1 0 0 1 0 0)"  d="M0 316L0 0L0 0L185 0L185 0L185 316L185 316L0 316z" />    </clipPath>
    <clipPath  id="2">

    <path id=""  clip-rule="evenodd" transform="matrix(1 0 0 1 0 0)"  d="M0 0L185 0L185 0L185 316L185 316L0 316z" />    </clipPath>
</defs>

<g transform="matrix(1.3333 0 0 1.3333 0 0)">
	<g clip-path="url(#1)" >
		<g clip-path="url(#2)" >
    <path id=""  transform="matrix(1 0 0 -1 0 316)"  d="M137.2529 67.2892C 136.2469 67.2892 135.43289 68.393196 135.43289 69.7522C 135.43289 68.393196 134.6169 67.2892 133.6119 67.2892C 134.6169 67.2892 135.43289 66.1862 135.43289 64.8262C 135.43289 66.1862 136.2469 67.2892 137.2529 67.2892" stroke="none" fill="#E7BC9E" fill-rule="nonzero" />
    <path id=""  transform="matrix(1 0 0 -1 0 316)"  d="M137.2529 67.2892C 136.2469 67.2892 135.43289 68.393196 135.43289 69.7522C 135.43289 68.393196 134.6169 67.2892 133.6119 67.2892C 134.6169 67.2892 135.43289 66.1862 135.43289 64.8262C 135.43289 66.1862 136.2469 67.2892 137.2529 67.2892z" stroke="#E7BC9E" stroke-width="0.25" fill="none" />
    <path id=""  transform="matrix(1 0 0 -1 0 316)"  d="M51.8779 67.2892C 50.8729 67.2892 50.0579 68.393196 50.0579 69.7522C 50.0579 68.393196 49.241898 67.2892 48.2369 67.2892C 49.241898 67.2892 50.0579 66.1862 50.0579 64.8262C 50.0579 66.1862 50.8729 67.2892 51.8779 67.2892" stroke="none" fill="#E7BC9E" fill-rule="nonzero" />
    <path id=""  transform="matrix(1 0 0 -1 0 316)"  d="M51.8779 67.2892C 50.8729 67.2892 50.0579 68.393196 50.0579 69.7522C 50.0579 68.393196 49.241898 67.2892 48.2369 67.2892C 49.241898 67.2892 50.0579 66.1862 50.0579 64.8262C 50.0579 66.1862 50.8729 67.2892 51.8779 67.2892z" stroke="#E7BC9E" stroke-width="0.25" fill="none" />
    <path id=""  transform="matrix(1 0 0 -1 0 316)"  d="M137.2529 48.3673C 136.2469 48.3673 135.43289 47.264297 135.43289 45.904297C 135.43289 47.264297 134.6169 48.3673 133.6119 48.3673C 134.6169 48.3673 135.43289 49.4703 135.43289 50.8303C 135.43289 49.4703 136.2469 48.3673 137.2529 48.3673" stroke="none" fill="#E7BC9E" fill-rule="nonzero" />
    <path id=""  transform="matrix(1 0 0 -1 0 316)"  d="M137.2529 48.3673C 136.2469 48.3673 135.43289 47.264297 135.43289 45.904297C 135.43289 47.264297 134.6169 48.3673 133.6119 48.3673C 134.6169 48.3673 135.43289 49.4703 135.43289 50.8303C 135.43289 49.4703 136.2469 48.3673 137.2529 48.3673z" stroke="#E7BC9E" stroke-width="0.25" fill="none" />
    <path id=""  transform="matrix(1 0 0 -1 0 316)"  d="M51.8779 48.3673C 50.8729 48.3673 50.0579 47.264297 50.0579 45.904297C 50.0579 47.264297 49.241898 48.3673 48.2369 48.3673C 49.241898 48.3673 50.0579 49.4703 50.0579 50.8303C 50.0579 49.4703 50.8729 48.3673 51.8779 48.3673" stroke="none" fill="#E7BC9E" fill-rule="nonzero" />
    <path id=""  transform="matrix(1 0 0 -1 0 316)"  d="M51.8779 48.3673C 50.8729 48.3673 50.0579 47.264297 50.0579 45.904297C 50.0579 47.264297 49.241898 48.3673 48.2369 48.3673C 49.241898 48.3673 50.0579 49.4703 50.0579 50.8303C 50.0579 49.4703 50.8729 48.3673 51.8779 48.3673z" stroke="#E7BC9E" stroke-width="0.25" fill="none" />
    <path id=""  transform="matrix(1 0 0 -1 0 316)"  d="M47.292 108.5705L60.063 108.5705" stroke="#E7BC9E" stroke-width="0.75" stroke-linecap="round" fill="none" />
    <path id=""  transform="matrix(1 0 0 -1 0 316)"  d="M62.9756 113.6173L55.5726 126.4413" stroke="#E7BC9E" stroke-width="0.75" stroke-linecap="round" fill="none" />
    <path id=""  transform="matrix(1 0 0 -1 0 316)"  d="M60.8428 111.4845L51.1428 117.084496" stroke="#E7BC9E" stroke-width="0.75" stroke-linecap="round" fill="none" />
    <path id=""  transform="matrix(1 0 0 -1 0 316)"  d="M64.4551 114.2189L62.1911 123.1339" stroke="#E7BC9E" stroke-width="0.75" stroke-linecap="round" fill="none" />
    <path id=""  transform="matrix(1 0 0 -1 0 316)"  d="M61.8233 112.7453L55.4053 119.3333" stroke="#E7BC9E" stroke-width="0.75" stroke-linecap="round" fill="none" />
    <path id=""  transform="matrix(1 0 0 -1 0 316)"  d="M60.2803 110.1525L51.4273 112.6495" stroke="#E7BC9E" stroke-width="0.75" stroke-linecap="round" fill="none" />
    <path id=""  transform="matrix(1 0 0 -1 0 316)"  d="M65.8887 139.8175L65.8887 114.580505" stroke="#E7BC9E" stroke-width="0.75" stroke-linecap="round" fill="none" />
    <path id=""  transform="matrix(1 0 0 -1 0 316)"  d="M138.1982 108.5705L125.42819 108.5705" stroke="#E7BC9E" stroke-width="0.75" stroke-linecap="round" fill="none" />
    <path id=""  transform="matrix(1 0 0 -1 0 316)"  d="M122.5137 113.6173L129.91771 126.4413" stroke="#E7BC9E" stroke-width="0.75" stroke-linecap="round" fill="none" />
    <path id=""  transform="matrix(1 0 0 -1 0 316)"  d="M124.6465 111.4845L134.3465 117.084496" stroke="#E7BC9E" stroke-width="0.75" stroke-linecap="round" fill="none" />
    <path id=""  transform="matrix(1 0 0 -1 0 316)"  d="M121.0342 114.2189L123.2982 123.1339" stroke="#E7BC9E" stroke-width="0.75" stroke-linecap="round" fill="none" />
    <path id=""  transform="matrix(1 0 0 -1 0 316)"  d="M123.667 112.7453L130.085 119.3333" stroke="#E7BC9E" stroke-width="0.75" stroke-linecap="round" fill="none" />
    <path id=""  transform="matrix(1 0 0 -1 0 316)"  d="M125.21 110.1525L134.062 112.6495" stroke="#E7BC9E" stroke-width="0.75" stroke-linecap="round" fill="none" />
    <path id=""  transform="matrix(1 0 0 -1 0 316)"  d="M119.6016 139.8175L119.6016 114.580505" stroke="#E7BC9E" stroke-width="0.75" stroke-linecap="round" fill="none" />
    <path id=""  transform="matrix(1 0 0 -1 0 316)"  d="M123.2188 108.5705L120.175804 108.75951L120.175804 108.75951L119.8318 109.0155L119.8318 109.0155L119.60181 112.2945L119.60181 112.2945L119.369804 109.0165L119.369804 109.0165L119.0268 108.75951L119.0268 108.75951L115.9848 108.5705L115.9848 108.5705L119.0278 108.3815L119.0278 108.3815L119.369804 108.1255L119.369804 108.1255L119.60181 104.846504L119.60181 104.846504L119.8318 108.1255L119.8318 108.1255L120.175804 108.3815z" stroke="none" fill="#E7BC9E" fill-rule="nonzero" />
    <path id=""  transform="matrix(1 0 0 -1 0 316)"  d="M123.2188 108.5705L120.175804 108.75951L120.175804 108.75951L119.8318 109.0155L119.8318 109.0155L119.60181 112.2945L119.60181 112.2945L119.369804 109.0165L119.369804 109.0165L119.0268 108.75951L119.0268 108.75951L115.9848 108.5705L115.9848 108.5705L119.0278 108.3815L119.0278 108.3815L119.369804 108.1255L119.369804 108.1255L119.60181 104.846504L119.60181 104.846504L119.8318 108.1255L119.8318 108.1255L120.175804 108.3815L120.175804 108.3815L123.2188 108.5705z" stroke="#E7BC9E" stroke-width="0.6" stroke-linecap="round" fill="none" />
    <path id=""  transform="matrix(1 0 0 -1 0 316)"  d="M69.5059 108.5705L66.4639 108.75951L66.4639 108.75951L66.119896 109.0155L66.119896 109.0155L65.8889 112.2945L65.8889 112.2945L65.6569 109.0165L65.6569 109.0165L65.314896 108.75951L65.314896 108.75951L62.271896 108.5705L62.271896 108.5705L65.314896 108.3815L65.314896 108.3815L65.6569 108.1255L65.6569 108.1255L65.8889 104.846504L65.8889 104.846504L66.119896 108.1255L66.119896 108.1255L66.4629 108.3815z" stroke="none" fill="#E7BC9E" fill-rule="nonzero" />
    <path id=""  transform="matrix(1 0 0 -1 0 316)"  d="M69.5059 108.5705L66.4639 108.75951L66.4639 108.75951L66.119896 109.0155L66.119896 109.0155L65.8889 112.2945L65.8889 112.2945L65.6569 109.0165L65.6569 109.0165L65.314896 108.75951L65.314896 108.75951L62.271896 108.5705L62.271896 108.5705L65.314896 108.3815L65.314896 108.3815L65.6569 108.1255L65.6569 108.1255L65.8889 104.846504L65.8889 104.846504L66.119896 108.1255L66.119896 108.1255L66.4629 108.3815L66.4629 108.3815L69.5059 108.5705z" stroke="#E7BC9E" stroke-width="0.6" stroke-linecap="round" fill="none" />
    <path id=""  transform="matrix(1 0 0 -1 0 316)"  d="M122.5889 104.423C 122.5889 104.423 138.0049 61.191998 122.5889 11" stroke="#E7BC9E" stroke-width="0.5" stroke-linecap="round" fill="none" />
    <path id=""  transform="matrix(1 0 0 -1 0 316)"  d="M123.5889 104.423C 123.5889 104.423 139.0049 61.191998 123.5889 11" stroke="#E7BC9E" stroke-width="0.5" stroke-linecap="round" fill="none" />
    <path id=""  transform="matrix(1 0 0 -1 0 316)"  d="M62.9014 104.423C 62.9014 104.423 47.4844 61.191998 62.9014 11" stroke="#E7BC9E" stroke-width="0.5" stroke-linecap="round" fill="none" />
    <path id=""  transform="matrix(1 0 0 -1 0 316)"  d="M61.9014 104.423C 61.9014 104.423 46.4844 61.191998 61.9014 11" stroke="#E7BC9E" stroke-width="0.5" stroke-linecap="round" fill="none" />
    <path id=""  transform="matrix(1 0 0 -1 0 316)"  d="M133.0713 100.3195C 131.30031 100.3195 129.86531 102.260506 129.86531 104.6565C 129.86531 102.260506 128.4293 100.3195 126.6593 100.3195C 128.4293 100.3195 129.86531 98.3775 129.86531 95.98151C 129.86531 98.3775 131.30031 100.3195 133.0713 100.3195" stroke="none" fill="#E7BC9E" fill-rule="nonzero" />
    <path id=""  transform="matrix(1 0 0 -1 0 316)"  d="M133.0713 100.3195C 131.30031 100.3195 129.86531 102.260506 129.86531 104.6565C 129.86531 102.260506 128.4293 100.3195 126.6593 100.3195C 128.4293 100.3195 129.86531 98.3775 129.86531 95.98151C 129.86531 98.3775 131.30031 100.3195 133.0713 100.3195z" stroke="#E7BC9E" stroke-width="0.25" fill="none" />
    <path id=""  transform="matrix(1 0 0 -1 0 316)"  d="M58.8301 100.3195C 57.0591 100.3195 55.6251 102.260506 55.6251 104.6565C 55.6251 102.260506 54.189102 100.3195 52.4191 100.3195C 54.189102 100.3195 55.6251 98.3775 55.6251 95.98151C 55.6251 98.3775 57.0591 100.3195 58.8301 100.3195" stroke="none" fill="#E7BC9E" fill-rule="nonzero" />
    <path id=""  transform="matrix(1 0 0 -1 0 316)"  d="M58.8301 100.3195C 57.0591 100.3195 55.6251 102.260506 55.6251 104.6565C 55.6251 102.260506 54.189102 100.3195 52.4191 100.3195C 54.189102 100.3195 55.6251 98.3775 55.6251 95.98151C 55.6251 98.3775 57.0591 100.3195 58.8301 100.3195z" stroke="#E7BC9E" stroke-width="0.25" fill="none" />
    <path id=""  transform="matrix(1 0 0 -1 0 316)"  d="M135.667 83.4269C 134.31001 83.4269 133.20901 84.9159 133.20901 86.7519C 133.20901 84.9159 132.108 83.4269 130.751 83.4269C 132.108 83.4269 133.20901 81.936905 133.20901 80.10091C 133.20901 81.936905 134.31001 83.4269 135.667 83.4269" stroke="none" fill="#E7BC9E" fill-rule="nonzero" />
    <path id=""  transform="matrix(1 0 0 -1 0 316)"  d="M135.667 83.4269C 134.31001 83.4269 133.20901 84.9159 133.20901 86.7519C 133.20901 84.9159 132.108 83.4269 130.751 83.4269C 132.108 83.4269 133.20901 81.936905 133.20901 80.10091C 133.20901 81.936905 134.31001 83.4269 135.667 83.4269z" stroke="#E7BC9E" stroke-width="0.25" fill="none" />
    <path id=""  transform="matrix(1 0 0 -1 0 316)"  d="M54.7393 83.4269C 53.3823 83.4269 52.2813 84.9159 52.2813 86.7519C 52.2813 84.9159 51.180298 83.4269 49.8233 83.4269C 51.180298 83.4269 52.2813 81.936905 52.2813 80.10091C 52.2813 81.936905 53.3823 83.4269 54.7393 83.4269" stroke="none" fill="#E7BC9E" fill-rule="nonzero" />
    <path id=""  transform="matrix(1 0 0 -1 0 316)"  d="M54.7393 83.4269C 53.3823 83.4269 52.2813 84.9159 52.2813 86.7519C 52.2813 84.9159 51.180298 83.4269 49.8233 83.4269C 51.180298 83.4269 52.2813 81.936905 52.2813 80.10091C 52.2813 81.936905 53.3823 83.4269 54.7393 83.4269z" stroke="#E7BC9E" stroke-width="0.25" fill="none" />
    <path id=""  transform="matrix(1 0 0 -1 0 316)"  d="M133.0713 15.338C 131.30031 15.338 129.86531 13.396 129.86531 11C 129.86531 13.396 128.4293 15.338 126.6593 15.338C 128.4293 15.338 129.86531 17.279 129.86531 19.675C 129.86531 17.279 131.30031 15.338 133.0713 15.338" stroke="none" fill="#E7BC9E" fill-rule="nonzero" />
    <path id=""  transform="matrix(1 0 0 -1 0 316)"  d="M133.0713 15.338C 131.30031 15.338 129.86531 13.396 129.86531 11C 129.86531 13.396 128.4293 15.338 126.6593 15.338C 128.4293 15.338 129.86531 17.279 129.86531 19.675C 129.86531 17.279 131.30031 15.338 133.0713 15.338z" stroke="#E7BC9E" stroke-width="0.25" fill="none" />
    <path id=""  transform="matrix(1 0 0 -1 0 316)"  d="M58.8301 15.338C 57.0591 15.338 55.6251 13.396 55.6251 11C 55.6251 13.396 54.189102 15.338 52.4191 15.338C 54.189102 15.338 55.6251 17.279 55.6251 19.675C 55.6251 17.279 57.0591 15.338 58.8301 15.338" stroke="none" fill="#E7BC9E" fill-rule="nonzero" />
    <path id=""  transform="matrix(1 0 0 -1 0 316)"  d="M58.8301 15.338C 57.0591 15.338 55.6251 13.396 55.6251 11C 55.6251 13.396 54.189102 15.338 52.4191 15.338C 54.189102 15.338 55.6251 17.279 55.6251 19.675C 55.6251 17.279 57.0591 15.338 58.8301 15.338z" stroke="#E7BC9E" stroke-width="0.25" fill="none" />
    <path id=""  transform="matrix(1 0 0 -1 0 316)"  d="M135.667 32.2306C 134.31001 32.2306 133.20901 30.741598 133.20901 28.904598C 133.20901 30.741598 132.108 32.2306 130.751 32.2306C 132.108 32.2306 133.20901 33.719597 133.20901 35.5556C 133.20901 33.719597 134.31001 32.2306 135.667 32.2306" stroke="none" fill="#E7BC9E" fill-rule="nonzero" />
    <path id=""  transform="matrix(1 0 0 -1 0 316)"  d="M135.667 32.2306C 134.31001 32.2306 133.20901 30.741598 133.20901 28.904598C 133.20901 30.741598 132.108 32.2306 130.751 32.2306C 132.108 32.2306 133.20901 33.719597 133.20901 35.5556C 133.20901 33.719597 134.31001 32.2306 135.667 32.2306z" stroke="#E7BC9E" stroke-width="0.25" fill="none" />
    <path id=""  transform="matrix(1 0 0 -1 0 316)"  d="M54.7393 32.2306C 53.3823 32.2306 52.2813 30.741598 52.2813 28.904598C 52.2813 30.741598 51.180298 32.2306 49.8233 32.2306C 51.180298 32.2306 52.2813 33.719597 52.2813 35.5556C 52.2813 33.719597 53.3823 32.2306 54.7393 32.2306" stroke="none" fill="#E7BC9E" fill-rule="nonzero" />
    <path id=""  transform="matrix(1 0 0 -1 0 316)"  d="M54.7393 32.2306C 53.3823 32.2306 52.2813 30.741598 52.2813 28.904598C 52.2813 30.741598 51.180298 32.2306 49.8233 32.2306C 51.180298 32.2306 52.2813 33.719597 52.2813 35.5556C 52.2813 33.719597 53.3823 32.2306 54.7393 32.2306z" stroke="#E7BC9E" stroke-width="0.25" fill="none" />
    <path id=""  transform="matrix(1 0 0 -1 0 316)"  d="M121.626 94.5168C 121.634 94.4858 121.641 94.4548 121.647 94.4228" stroke="#E7BC9E" stroke-width="0.75" stroke-linecap="round" fill="none" />
    <path id=""  transform="matrix(1 0 0 -1 0 316)"  d="M122.4932 90.4933C 125.7872 74.1313 128.8632 45.115303 119.5002 13.031303" stroke="#E7BC9E" stroke-width="0.75" stroke-linecap="round" stroke-dasharray="0.951,3.2729998" fill="none" />
    <path id=""  transform="matrix(1 0 0 -1 0 316)"  d="M118.9209 11.0958C 118.9109 11.063801 118.9009 11.032801 118.8919 10.999801" stroke="#E7BC9E" stroke-width="0.75" stroke-linecap="round" fill="none" />
    <path id=""  transform="matrix(1 0 0 -1 0 316)"  d="M63.9766 94.5168C 63.9696 94.4858 63.9626 94.4548 63.9556 94.4228" stroke="#E7BC9E" stroke-width="0.75" stroke-linecap="round" fill="none" />
    <path id=""  transform="matrix(1 0 0 -1 0 316)"  d="M63.1094 90.4933C 59.816402 74.1313 56.740402 45.115303 66.1034 13.031303" stroke="#E7BC9E" stroke-width="0.75" stroke-linecap="round" stroke-dasharray="0.951,3.2729998" fill="none" />
    <path id=""  transform="matrix(1 0 0 -1 0 316)"  d="M66.6826 11.0958C 66.692604 11.063801 66.7026 11.032801 66.7116 10.999801" stroke="#E7BC9E" stroke-width="0.75" stroke-linecap="round" fill="none" />
		</g>
	</g>
</g>
</svg>