<?xml version="1.0" standalone="no"?>
<!DOCTYPE svg PUBLIC "-//W3C//DTD SVG 1.0//EN" "http://www.w3.org/TR/2001/REC-SVG-20010904/DTD/svg10.dtd">
<svg xmlns="http://www.w3.org/2000/svg" xmlns:xlink="http://www.w3.org/1999/xlink" id="body_7" width="247" height="421">

<defs>
    <clipPath  id="1">

    <path id=""  clip-rule="evenodd" transform="matrix(1 0 0 1 0 0)"  d="M0 316L0 0L0 0L185 0L185 0L185 316L185 316L0 316z" />    </clipPath>
    <clipPath  id="2">

    <path id=""  clip-rule="evenodd" transform="matrix(1 0 0 1 0 0)"  d="M0 0L185 0L185 0L185 316L185 316L0 316z" />    </clipPath>
</defs>

<g transform="matrix(1.3333 0 0 1.3333 0 0)">
	<g clip-path="url(#1)" >
		<g clip-path="url(#2)" >
    <path id=""  transform="matrix(1 0 0 -1 0 316)"  d="M54.7789 59.3281C 54.7789 59.580097 54.5069 59.7241 54.0309 59.7241C 54.0059 59.7241 53.9869 59.720097 53.9629 59.720097C 53.9809 59.7361 53.9989 59.7431 54.0159 59.761097C 54.3499 60.0961 54.4419 60.3901 54.2639 60.5711C 54.0849 60.7511 53.7919 60.6611 53.4539 60.322098C 53.4359 60.3061 53.4289 60.287098 53.4129 60.269096C 53.4139 60.294098 53.4179 60.3111 53.4179 60.337097C 53.4179 60.8121 53.2729 61.0851 53.0209 61.0851C 52.7679 61.0851 52.6239 60.8121 52.6239 60.337097C 52.6239 60.3131 52.6289 60.2971 52.6289 60.274097C 52.6129 60.2911 52.6049 60.3061 52.5879 60.322098C 52.2519 60.6581 51.955902 60.7501 51.7769 60.5701C 51.5989 60.391098 51.6899 60.0961 52.0259 59.761097C 52.0379 59.7491 52.0549 59.733097 52.0699 59.720097C 52.0489 59.7211 52.0329 59.7241 52.0109 59.7241C 51.5359 59.7241 51.2619 59.580097 51.2619 59.3281C 51.2619 59.074097 51.5359 58.9301 52.0109 58.9301C 52.0349 58.9301 52.0509 58.934097 52.0739 58.934097C 52.0569 58.920097 52.0429 58.9111 52.0259 58.8941C 51.8989 58.767097 51.6879 58.523098 51.6889 58.3051C 51.6889 58.220097 51.719902 58.141098 51.7759 58.087097C 51.7759 58.087097 52.1219 57.780098 52.5879 58.3331C 52.6029 58.350098 52.6139 58.365097 52.6289 58.3821C 52.6289 58.358097 52.6239 58.3421 52.6239 58.3181C 52.6239 57.843098 52.7679 57.5691 53.0209 57.5691C 53.2729 57.5691 53.4179 57.843098 53.4179 58.3181C 53.4179 58.3401 53.4139 58.3551 53.4129 58.377098C 53.4259 58.3621 53.4419 58.345097 53.4539 58.3331C 53.5799 58.2071 53.8219 57.9951 54.0419 57.9951L54.0419 57.9951L54.0429 57.9951L54.0429 57.9951L54.1889 58.010098L54.1889 58.010098L54.2639 58.0851C 54.4419 58.2631 54.3509 58.5571 54.0159 58.8941C 53.9999 58.9111 53.983902 58.920097 53.9679 58.934097C 53.990902 58.934097 54.0079 58.9301 54.0309 58.9301C 54.5069 58.9301 54.7789 59.074097 54.7789 59.3281" stroke="none" fill="#E7BC9E" fill-rule="nonzero" />
    <path id=""  transform="matrix(1 0 0 -1 0 316)"  d="M59.1861 59.3281C 59.1861 59.580097 58.9131 59.7241 58.4371 59.7241C 58.4121 59.7241 58.3931 59.720097 58.370102 59.720097C 58.3871 59.7361 58.4051 59.7431 58.4221 59.761097C 58.7561 60.0961 58.8481 60.3901 58.6701 60.5711C 58.4911 60.7511 58.1981 60.6611 57.8601 60.322098C 57.8421 60.3061 57.8351 60.287098 57.8191 60.269096C 57.8201 60.294098 57.8251 60.3111 57.8251 60.337097C 57.8251 60.8121 57.6791 61.0851 57.4271 61.0851C 57.1751 61.0851 57.0301 60.8121 57.0301 60.337097C 57.0301 60.3131 57.0351 60.2971 57.0361 60.274097C 57.0201 60.2911 57.0111 60.3061 56.995102 60.322098C 56.6581 60.6581 56.3631 60.7501 56.1831 60.5701C 56.0051 60.391098 56.0961 60.0961 56.4321 59.761097C 56.4451 59.7491 56.4621 59.733097 56.4761 59.720097C 56.4561 59.7211 56.4401 59.7241 56.4171 59.7241C 55.9421 59.7241 55.6681 59.580097 55.6681 59.3281C 55.6681 59.074097 55.9421 58.9301 56.4171 58.9301C 56.4411 58.9301 56.4571 58.934097 56.4801 58.934097C 56.4631 58.920097 56.4491 58.9111 56.4321 58.8941C 56.3061 58.767097 56.0941 58.523098 56.0951 58.3051C 56.0951 58.220097 56.127098 58.141098 56.1831 58.087097C 56.1831 58.087097 56.5291 57.780098 56.995102 58.3331C 57.0091 58.350098 57.0201 58.365097 57.0361 58.3821C 57.0351 58.358097 57.0301 58.3421 57.0301 58.3181C 57.0301 57.843098 57.1751 57.5691 57.4271 57.5691C 57.6791 57.5691 57.8251 57.843098 57.8251 58.3181C 57.8251 58.3401 57.8201 58.3551 57.8201 58.377098C 57.8321 58.3621 57.8481 58.345097 57.8601 58.3331C 57.9861 58.2071 58.2291 57.9951 58.4481 57.9951L58.4481 57.9951L58.4491 57.9951L58.4491 57.9951L58.5961 58.010098L58.5961 58.010098L58.6701 58.0851C 58.8481 58.2631 58.7571 58.5571 58.4221 58.8941C 58.4061 58.9111 58.3911 58.920097 58.3741 58.934097C 58.3971 58.934097 58.4141 58.9301 58.4371 58.9301C 58.9131 58.9301 59.1861 59.074097 59.1861 59.3281" stroke="none" fill="#E7BC9E" fill-rule="nonzero" />
    <path id=""  transform="matrix(1 0 0 -1 0 316)"  d="M63.5924 59.3281C 63.5924 59.580097 63.3194 59.7241 62.8434 59.7241C 62.8184 59.7241 62.8004 59.720097 62.776398 59.720097C 62.7934 59.7361 62.8114 59.7431 62.8284 59.761097C 63.1634 60.0961 63.2544 60.3901 63.0764 60.5711C 62.8974 60.7511 62.6044 60.6611 62.2674 60.322098C 62.2494 60.3061 62.241398 60.287098 62.2254 60.269096C 62.2264 60.294098 62.2314 60.3111 62.2314 60.337097C 62.2314 60.8121 62.0864 61.0851 61.8334 61.0851C 61.581398 61.0851 61.4374 60.8121 61.4374 60.337097C 61.4374 60.3131 61.4414 60.2971 61.442398 60.274097C 61.4264 60.2911 61.4174 60.3061 61.401398 60.322098C 61.0644 60.6581 60.7694 60.7501 60.5894 60.5701C 60.4114 60.391098 60.5024 60.0961 60.8394 59.761097C 60.8514 59.7491 60.8684 59.733097 60.8834 59.720097C 60.8624 59.7211 60.8464 59.7241 60.8234 59.7241C 60.3484 59.7241 60.0754 59.580097 60.0754 59.3281C 60.0754 59.074097 60.3484 58.9301 60.8234 58.9301C 60.8474 58.9301 60.8634 58.934097 60.8864 58.934097C 60.8704 58.920097 60.8554 58.9111 60.8394 58.8941C 60.7124 58.767097 60.5004 58.523098 60.5014 58.3051C 60.5014 58.220097 60.5334 58.141098 60.5894 58.087097C 60.5894 58.087097 60.9354 57.780098 61.401398 58.3331C 61.4164 58.350098 61.4264 58.365097 61.442398 58.3821C 61.4414 58.358097 61.4374 58.3421 61.4374 58.3181C 61.4374 57.843098 61.581398 57.5691 61.8334 57.5691C 62.0864 57.5691 62.2314 57.843098 62.2314 58.3181C 62.2314 58.3401 62.227398 58.3551 62.2264 58.377098C 62.2394 58.3621 62.2544 58.345097 62.2674 58.3331C 62.3934 58.2071 62.6354 57.9951 62.8554 57.9951L62.8554 57.9951L62.8564 57.9951L62.8564 57.9951L63.0024 58.010098L63.0024 58.010098L63.0764 58.0851C 63.2544 58.2631 63.1644 58.5571 62.8284 58.8941C 62.8124 58.9111 62.7974 58.920097 62.7814 58.934097C 62.8034 58.934097 62.8204 58.9301 62.8434 58.9301C 63.3194 58.9301 63.5924 59.074097 63.5924 59.3281" stroke="none" fill="#E7BC9E" fill-rule="nonzero" />
    <path id=""  transform="matrix(1 0 0 -1 0 316)"  d="M125.0406 59.3281C 125.0406 59.580097 124.7676 59.7241 124.2916 59.7241C 124.2666 59.7241 124.248604 59.720097 124.2246 59.720097C 124.2416 59.7361 124.259605 59.7431 124.2766 59.761097C 124.6116 60.0961 124.70261 60.3901 124.524605 60.5711C 124.345604 60.7511 124.052605 60.6611 123.71461 60.322098C 123.6976 60.3061 123.689606 60.287098 123.67361 60.269096C 123.67461 60.294098 123.6796 60.3111 123.6796 60.337097C 123.6796 60.8121 123.5336 61.0851 123.2816 61.0851C 123.0296 61.0851 122.884605 60.8121 122.884605 60.337097C 122.884605 60.3131 122.8896 60.2971 122.8906 60.274097C 122.8746 60.2911 122.8656 60.3061 122.8496 60.322098C 122.5126 60.6581 122.217606 60.7501 122.037605 60.5701C 121.859604 60.391098 121.95061 60.0961 122.286606 59.761097C 122.29961 59.7491 122.316605 59.733097 122.330605 59.720097C 122.3106 59.7211 122.2946 59.7241 122.27161 59.7241C 121.7966 59.7241 121.522606 59.580097 121.522606 59.3281C 121.522606 59.074097 121.7966 58.9301 122.27161 58.9301C 122.2956 58.9301 122.3116 58.934097 122.3346 58.934097C 122.317604 58.920097 122.303604 58.9111 122.286606 58.8941C 122.16061 58.767097 121.9486 58.523098 121.9496 58.3051C 121.9496 58.220097 121.981606 58.141098 122.037605 58.087097C 122.037605 58.087097 122.383606 57.780098 122.8496 58.3331C 122.8636 58.350098 122.8746 58.365097 122.8906 58.3821C 122.8896 58.358097 122.884605 58.3421 122.884605 58.3181C 122.884605 57.843098 123.0296 57.5691 123.2816 57.5691C 123.5336 57.5691 123.6796 57.843098 123.6796 58.3181C 123.6796 58.3401 123.67461 58.3551 123.67461 58.377098C 123.68761 58.3621 123.70261 58.345097 123.71461 58.3331C 123.841606 58.2071 124.0836 57.9951 124.302605 57.9951L124.302605 57.9951L124.303604 57.9951L124.303604 57.9951L124.45061 58.010098L124.45061 58.010098L124.524605 58.0851C 124.70261 58.2631 124.6126 58.5571 124.2766 58.8941C 124.260605 58.9111 124.245605 58.920097 124.22861 58.934097C 124.2516 58.934097 124.2686 58.9301 124.2916 58.9301C 124.7676 58.9301 125.0406 59.074097 125.0406 59.3281" stroke="none" fill="#E7BC9E" fill-rule="nonzero" />
    <path id=""  transform="matrix(1 0 0 -1 0 316)"  d="M129.4469 59.3281C 129.4469 59.580097 129.1749 59.7241 128.6979 59.7241C 128.6729 59.7241 128.65489 59.720097 128.6309 59.720097C 128.6479 59.7361 128.6659 59.7431 128.68289 59.761097C 129.0179 60.0961 129.1089 60.3901 128.9309 60.5711C 128.75189 60.7511 128.4589 60.6611 128.1219 60.322098C 128.1039 60.3061 128.0959 60.287098 128.0799 60.269096C 128.0809 60.294098 128.0859 60.3111 128.0859 60.337097C 128.0859 60.8121 127.9409 61.0851 127.6879 61.0851C 127.4359 61.0851 127.2919 60.8121 127.2919 60.337097C 127.2919 60.3131 127.2959 60.2971 127.2969 60.274097C 127.2809 60.2911 127.2719 60.3061 127.2559 60.322098C 126.9189 60.6581 126.6239 60.7501 126.4439 60.5701C 126.2659 60.391098 126.3569 60.0961 126.6939 59.761097C 126.7059 59.7491 126.7229 59.733097 126.7379 59.720097C 126.716896 59.7211 126.7009 59.7241 126.6779 59.7241C 126.202896 59.7241 125.9299 59.580097 125.9299 59.3281C 125.9299 59.074097 126.202896 58.9301 126.6779 58.9301C 126.7019 58.9301 126.717896 58.934097 126.7409 58.934097C 126.7249 58.920097 126.7099 58.9111 126.6939 58.8941C 126.5669 58.767097 126.3549 58.523098 126.355896 58.3051C 126.355896 58.220097 126.3879 58.141098 126.4439 58.087097C 126.4439 58.087097 126.7899 57.780098 127.2559 58.3331C 127.2709 58.350098 127.2809 58.365097 127.2969 58.3821C 127.2959 58.358097 127.2919 58.3421 127.2919 58.3181C 127.2919 57.843098 127.4359 57.5691 127.6879 57.5691C 127.9409 57.5691 128.0859 57.843098 128.0859 58.3181C 128.0859 58.3401 128.0819 58.3551 128.0809 58.377098C 128.0939 58.3621 128.1089 58.345097 128.1219 58.3331C 128.2479 58.2071 128.4899 57.9951 128.7099 57.9951L128.7099 57.9951L128.7109 57.9951L128.7109 57.9951L128.8569 58.010098L128.8569 58.010098L128.9309 58.0851C 129.1089 58.2631 129.0189 58.5571 128.68289 58.8941C 128.6669 58.9111 128.6519 58.920097 128.6359 58.934097C 128.6589 58.934097 128.6759 58.9301 128.6979 58.9301C 129.1749 58.9301 129.4469 59.074097 129.4469 59.3281" stroke="none" fill="#E7BC9E" fill-rule="nonzero" />
    <path id=""  transform="matrix(1 0 0 -1 0 316)"  d="M133.8531 59.3281C 133.8531 59.580097 133.5811 59.7241 133.1051 59.7241C 133.08011 59.7241 133.0611 59.720097 133.03711 59.720097C 133.0551 59.7361 133.0731 59.7431 133.0901 59.761097C 133.4241 60.0961 133.5161 60.3901 133.3381 60.5711C 133.1591 60.7511 132.8661 60.6611 132.5281 60.322098C 132.5101 60.3061 132.5031 60.287098 132.4871 60.269096C 132.4881 60.294098 132.49211 60.3111 132.49211 60.337097C 132.49211 60.8121 132.3471 61.0851 132.09511 61.0851C 131.8421 61.0851 131.6981 60.8121 131.6981 60.337097C 131.6981 60.3131 131.70311 60.2971 131.70311 60.274097C 131.6871 60.2911 131.67911 60.3061 131.66211 60.322098C 131.32611 60.6581 131.0301 60.7501 130.8511 60.5701C 130.67311 60.391098 130.7641 60.0961 131.1001 59.761097C 131.1121 59.7491 131.1291 59.733097 131.1441 59.720097C 131.12311 59.7211 131.1071 59.7241 131.0851 59.7241C 130.6101 59.7241 130.3361 59.580097 130.3361 59.3281C 130.3361 59.074097 130.6101 58.9301 131.0851 58.9301C 131.1091 58.9301 131.1251 58.934097 131.1481 58.934097C 131.1311 58.920097 131.1171 58.9111 131.1001 58.8941C 130.9731 58.767097 130.7621 58.523098 130.7631 58.3051C 130.7631 58.220097 130.7941 58.141098 130.8501 58.087097C 130.8501 58.087097 131.1961 57.780098 131.66211 58.3331C 131.67711 58.350098 131.68811 58.365097 131.70311 58.3821C 131.70311 58.358097 131.6981 58.3421 131.6981 58.3181C 131.6981 57.843098 131.8421 57.5691 132.09511 57.5691C 132.3471 57.5691 132.49211 57.843098 132.49211 58.3181C 132.49211 58.3401 132.4881 58.3551 132.4871 58.377098C 132.5001 58.3621 132.5161 58.345097 132.5281 58.3331C 132.6541 58.2071 132.8961 57.9951 133.1161 57.9951L133.1161 57.9951L133.11711 57.9951L133.11711 57.9951L133.2631 58.010098L133.2631 58.010098L133.3381 58.0851C 133.5161 58.2631 133.42511 58.5571 133.0901 58.8941C 133.0741 58.9111 133.0581 58.920097 133.0421 58.934097C 133.06511 58.934097 133.0821 58.9301 133.1051 58.9301C 133.5811 58.9301 133.8531 59.074097 133.8531 59.3281" stroke="none" fill="#E7BC9E" fill-rule="nonzero" />
    <path id=""  transform="matrix(1 0 0 -1 0 316)"  d="M59.4469 101.4121C 59.4469 101.7021 59.1339 101.8681 58.5869 101.8681C 58.5579 101.8681 58.5369 101.8631 58.5099 101.8621C 58.5299 101.8811 58.5499 101.8901 58.5699 101.9091C 58.9539 102.294106 59.0589 102.6321 58.8549 102.8401C 58.6479 103.046104 58.3119 102.9431 57.9249 102.5551C 57.9049 102.5351 57.8959 102.5151 57.8769 102.4941C 57.8779 102.5211 57.8839 102.5421 57.8839 102.5701C 57.8839 103.1171 57.7179 103.4311 57.4269 103.4311C 57.1379 103.4311 56.970898 103.1171 56.970898 102.5701C 56.970898 102.5441 56.9759 102.5241 56.9769 102.4991C 56.9599 102.517105 56.949898 102.5351 56.9299 102.5551C 56.5439 102.9401 56.2049 103.045105 55.9989 102.8391C 55.7949 102.6341 55.8989 102.294106 56.2849 101.9091C 56.2989 101.8951 56.3189 101.878105 56.3359 101.8621C 56.310898 101.8631 56.2939 101.8681 56.2679 101.8681C 55.720898 101.8681 55.407898 101.7021 55.407898 101.4121C 55.407898 101.1221 55.720898 100.9551 56.2679 100.9551C 56.2949 100.9551 56.3139 100.9601 56.3399 100.961105C 56.3209 100.9431 56.3029 100.933105 56.2849 100.9151C 56.1389 100.769104 55.8969 100.489105 55.8979 100.2381C 55.8979 100.1401 55.9339 100.0501 55.9989 99.9871C 55.9989 99.9871 56.394897 99.6361 56.9299 100.269104C 56.9479 100.2911 56.9599 100.3071 56.9769 100.3251C 56.9759 100.3001 56.970898 100.280106 56.970898 100.253105C 56.970898 99.7071 57.1379 99.393105 57.4269 99.393105C 57.7179 99.393105 57.8839 99.7071 57.8839 100.253105C 57.8839 100.2781 57.8789 100.296104 57.8779 100.3201C 57.8929 100.3041 57.9109 100.2841 57.9249 100.269104C 58.0689 100.1251 58.3469 99.8821 58.5989 99.8821L58.5989 99.8821L58.5999 99.8821L58.5999 99.8821L58.768898 99.8991L58.768898 99.8991L58.8549 99.9841C 59.0589 100.1881 58.9559 100.5271 58.5699 100.9151C 58.5509 100.933105 58.5339 100.9431 58.5149 100.961105C 58.5409 100.9601 58.5599 100.9551 58.5869 100.9551C 59.1339 100.9551 59.4469 101.1221 59.4469 101.4121" stroke="none" fill="#E7BC9E" fill-rule="nonzero" />
    <path id=""  transform="matrix(1 0 0 -1 0 316)"  d="M129.7076 101.4121C 129.7076 101.7021 129.39459 101.8681 128.8486 101.8681C 128.81859 101.8681 128.7986 101.8631 128.7706 101.8621C 128.79059 101.8811 128.8116 101.8901 128.8306 101.9091C 129.21559 102.294106 129.3196 102.6321 129.1156 102.8401C 128.90959 103.046104 128.5726 102.9431 128.1856 102.5551C 128.16559 102.5351 128.1566 102.5151 128.1386 102.4941C 128.1396 102.5211 128.14459 102.5421 128.14459 102.5701C 128.14459 103.1171 127.9786 103.4311 127.6876 103.4311C 127.3986 103.4311 127.2316 103.1171 127.2316 102.5701C 127.2316 102.5441 127.237595 102.5241 127.238594 102.4991C 127.2206 102.517105 127.210594 102.5351 127.1906 102.5551C 126.805595 102.9401 126.4656 103.045105 126.2606 102.8391C 126.056595 102.6341 126.1596 102.294106 126.54659 101.9091C 126.56059 101.8951 126.5806 101.878105 126.596596 101.8621C 126.571594 101.8631 126.554596 101.8681 126.528595 101.8681C 125.9826 101.8681 125.66959 101.7021 125.66959 101.4121C 125.66959 101.1221 125.9826 100.9551 126.528595 100.9551C 126.556595 100.9551 126.57459 100.9601 126.60059 100.961105C 126.5816 100.9431 126.5646 100.933105 126.54659 100.9151C 126.4006 100.769104 126.15759 100.489105 126.15859 100.2381C 126.15859 100.1401 126.195595 100.0501 126.2596 99.9871C 126.2596 99.9871 126.65659 99.6361 127.1906 100.269104C 127.208595 100.2911 127.2206 100.3071 127.238594 100.3251C 127.237595 100.3001 127.2316 100.280106 127.2316 100.253105C 127.2316 99.7071 127.3986 99.393105 127.6876 99.393105C 127.9786 99.393105 128.14459 99.7071 128.14459 100.253105C 128.14459 100.2781 128.1396 100.296104 128.1396 100.3201C 128.1536 100.3041 128.1716 100.2841 128.1856 100.269104C 128.3306 100.1251 128.6086 99.8821 128.8606 99.8821L128.8606 99.8821L128.8616 99.8821L128.8616 99.8821L129.0306 99.8991L129.0306 99.8991L129.1156 99.9841C 129.3196 100.1881 129.2166 100.5271 128.8306 100.9151C 128.8116 100.933105 128.7956 100.9431 128.7766 100.961105C 128.8026 100.9601 128.8206 100.9551 128.8486 100.9551C 129.39459 100.9551 129.7076 101.1221 129.7076 101.4121" stroke="none" fill="#E7BC9E" fill-rule="nonzero" />
    <path id=""  transform="matrix(1 0 0 -1 0 316)"  d="M60.6998 119.165C 60.6998 119.635 60.1908 119.904 59.305798 119.904C 59.2598 119.904 59.2248 119.895004 59.1798 119.894C 59.2138 119.925 59.2458 119.938 59.278797 119.971C 59.9008 120.594 60.070797 121.143 59.7408 121.478004C 59.4058 121.812004 58.860798 121.646 58.2328 121.017C 58.200798 120.984 58.1868 120.951004 58.1558 120.918C 58.1578 120.963 58.166798 120.996 58.166798 121.043C 58.166798 121.928 57.896797 122.436005 57.4278 122.436005C 56.957798 122.436005 56.687798 121.928 56.687798 121.043C 56.687798 120.999 56.6968 120.968 56.6978 120.926C 56.6698 120.957 56.652798 120.985 56.6218 121.017C 55.9958 121.642 55.445797 121.811005 55.111797 121.477C 54.7818 121.144 54.950798 120.594 55.575798 119.971C 55.597797 119.948 55.631798 119.92 55.6578 119.895004C 55.618797 119.896 55.589798 119.904 55.548798 119.904C 54.6638 119.904 54.1548 119.635 54.1548 119.165C 54.1548 118.694 54.6638 118.425 55.548798 118.425C 55.5928 118.425 55.6228 118.433 55.6648 118.435C 55.6348 118.406 55.6068 118.391 55.575798 118.359C 55.340797 118.123 54.9468 117.669 54.9488 117.263C 54.9488 117.103004 55.008797 116.957 55.111797 116.855C 55.111797 116.855 55.7558 116.286 56.6218 117.314C 56.6498 117.348 56.6698 117.374 56.6978 117.404C 56.6968 117.362 56.687798 117.331 56.687798 117.286C 56.687798 116.401 56.957798 115.894 57.4278 115.894C 57.896797 115.894 58.166798 116.401 58.166798 117.286C 58.166798 117.327 58.1588 117.356 58.1568 117.395004C 58.181797 117.369 58.2108 117.337 58.2328 117.314C 58.4678 117.079 58.9188 116.686005 59.326797 116.686005L59.326797 116.686005L59.3288 116.686005L59.3288 116.686005L59.6018 116.714005L59.6018 116.714005L59.7408 116.852C 60.070797 117.183 59.902798 117.731 59.278797 118.359C 59.2488 118.391 59.2208 118.406 59.1898 118.435C 59.2318 118.433 59.2628 118.425 59.305798 118.425C 60.1908 118.425 60.6998 118.694 60.6998 119.165" stroke="none" fill="#E7BC9E" fill-rule="nonzero" />
    <path id=""  transform="matrix(1 0 0 -1 0 316)"  d="M130.9606 119.165C 130.9606 119.635 130.4526 119.904 129.5676 119.904C 129.5206 119.904 129.4866 119.895004 129.4406 119.894C 129.47461 119.925 129.5076 119.938 129.5396 119.971C 130.1626 120.594 130.3326 121.143 130.0016 121.478004C 129.6676 121.812004 129.1226 121.646 128.4936 121.017C 128.46161 120.984 128.4476 120.951004 128.4176 120.918C 128.4186 120.963 128.4276 120.996 128.4276 121.043C 128.4276 121.928 128.15761 122.436005 127.6886 122.436005C 127.219604 122.436005 126.9496 121.928 126.9496 121.043C 126.9496 120.999 126.9576 120.968 126.9596 120.926C 126.9306 120.957 126.913605 120.985 126.8836 121.017C 126.2566 121.642 125.706604 121.811005 125.373604 121.477C 125.0426 121.144 125.2116 120.594 125.8376 119.971C 125.859604 119.948 125.8926 119.92 125.9186 119.895004C 125.8796 119.896 125.8506 119.904 125.8096 119.904C 124.9246 119.904 124.4166 119.635 124.4166 119.165C 124.4166 118.694 124.9246 118.425 125.8096 118.425C 125.8536 118.425 125.8846 118.433 125.9256 118.435C 125.8956 118.406 125.8676 118.391 125.8376 118.359C 125.6026 118.123 125.2086 117.669 125.2096 117.263C 125.2096 117.103004 125.2696 116.957 125.372604 116.855C 125.372604 116.855 126.0166 116.286 126.8836 117.314C 126.911606 117.348 126.9306 117.374 126.9596 117.404C 126.9576 117.362 126.9496 117.331 126.9496 117.286C 126.9496 116.401 127.219604 115.894 127.6886 115.894C 128.15761 115.894 128.4276 116.401 128.4276 117.286C 128.4276 117.327 128.4196 117.356 128.4186 117.395004C 128.4426 117.369 128.4716 117.337 128.4936 117.314C 128.7296 117.079 129.1796 116.686005 129.5876 116.686005L129.5876 116.686005L129.5896 116.686005L129.5896 116.686005L129.8626 116.714005L129.8626 116.714005L130.0016 116.852C 130.3326 117.183 130.1646 117.731 129.5396 118.359C 129.5096 118.391 129.4816 118.406 129.4516 118.435C 129.4926 118.433 129.5236 118.425 129.5676 118.425C 130.4526 118.425 130.9606 118.694 130.9606 119.165" stroke="none" fill="#E7BC9E" fill-rule="nonzero" />
    <path id=""  transform="matrix(1 0 0 -1 0 316)"  d="M121.941 27.6406L123.282005 38.0586L123.282005 38.0586L124.624 27.6406L124.624 27.6406L123.282005 22.5156L123.282005 22.5156L121.941 27.6406z" stroke="#E7BC9E" stroke-width="0.75" stroke-linecap="round" fill="none" />
    <path id=""  transform="matrix(1 0 0 -1 0 316)"  d="M126.3473 27.6406L127.6883 38.0586L127.6883 38.0586L129.0303 27.6406L129.0303 27.6406L127.6883 22.5156L127.6883 22.5156L126.3473 27.6406z" stroke="#E7BC9E" stroke-width="0.75" stroke-linecap="round" fill="none" />
    <path id=""  transform="matrix(1 0 0 -1 0 316)"  d="M130.7535 27.6406L132.0945 38.0586L132.0945 38.0586L133.4365 27.6406L133.4365 27.6406L132.0945 22.5156L132.0945 22.5156L130.7535 27.6406z" stroke="#E7BC9E" stroke-width="0.75" stroke-linecap="round" fill="none" />
    <path id=""  transform="matrix(1 0 0 -1 0 316)"  d="M51.6793 27.6406L53.020298 38.0586L53.020298 38.0586L54.362297 27.6406L54.362297 27.6406L53.020298 22.5156L53.020298 22.5156L51.6793 27.6406z" stroke="#E7BC9E" stroke-width="0.75" stroke-linecap="round" fill="none" />
    <path id=""  transform="matrix(1 0 0 -1 0 316)"  d="M56.0865 27.6406L57.4265 38.0586L57.4265 38.0586L58.769497 27.6406L58.769497 27.6406L57.4265 22.5156L57.4265 22.5156L56.0865 27.6406z" stroke="#E7BC9E" stroke-width="0.75" stroke-linecap="round" fill="none" />
    <path id=""  transform="matrix(1 0 0 -1 0 316)"  d="M60.4928 27.6406L61.8338 38.0586L61.8338 38.0586L63.1758 27.6406L63.1758 27.6406L61.8338 22.5156L61.8338 22.5156L60.4928 27.6406z" stroke="#E7BC9E" stroke-width="0.75" stroke-linecap="round" fill="none" />
    <path id=""  transform="matrix(1 0 0 -1 0 316)"  d="M51.6793 15.8066L53.020298 19.2256L53.020298 19.2256L54.362297 15.8066L54.362297 15.8066L53.020298 14.124599L53.020298 14.124599L51.6793 15.8066z" stroke="#E7BC9E" stroke-width="0.75" stroke-linecap="round" fill="none" />
    <path id=""  transform="matrix(1 0 0 -1 0 316)"  d="M56.0865 15.8066L57.4265 19.2256L57.4265 19.2256L58.769497 15.8066L58.769497 15.8066L57.4265 14.124599L57.4265 14.124599L56.0865 15.8066z" stroke="#E7BC9E" stroke-width="0.75" stroke-linecap="round" fill="none" />
    <path id=""  transform="matrix(1 0 0 -1 0 316)"  d="M60.4928 15.8066L61.8338 19.2256L61.8338 19.2256L63.1758 15.8066L63.1758 15.8066L61.8338 14.124599L61.8338 14.124599L60.4928 15.8066z" stroke="#E7BC9E" stroke-width="0.75" stroke-linecap="round" fill="none" />
    <path id=""  transform="matrix(1 0 0 -1 0 316)"  d="M121.941 15.8066L123.282005 19.2256L123.282005 19.2256L124.624 15.8066L124.624 15.8066L123.282005 14.124599L123.282005 14.124599L121.941 15.8066z" stroke="#E7BC9E" stroke-width="0.75" stroke-linecap="round" fill="none" />
    <path id=""  transform="matrix(1 0 0 -1 0 316)"  d="M126.3473 15.8066L127.6883 19.2256L127.6883 19.2256L129.0303 15.8066L129.0303 15.8066L127.6883 14.124599L127.6883 14.124599L126.3473 15.8066z" stroke="#E7BC9E" stroke-width="0.75" stroke-linecap="round" fill="none" />
    <path id=""  transform="matrix(1 0 0 -1 0 316)"  d="M130.7535 15.8066L132.0945 19.2256L132.0945 19.2256L133.4365 15.8066L133.4365 15.8066L132.0945 14.124599L132.0945 14.124599L130.7535 15.8066z" stroke="#E7BC9E" stroke-width="0.75" stroke-linecap="round" fill="none" />
    <path id=""  transform="matrix(1 0 0 -1 0 316)"  d="M54.3619 84.9355C 54.3619 84.1955 53.7609 83.5945 53.0209 83.5945C 52.2799 83.5945 51.6789 84.1955 51.6789 84.9355C 51.6789 85.6765 52.2799 86.277504 53.0209 86.277504C 53.7609 86.277504 54.3619 85.6765 54.3619 84.9355z" stroke="#E7BC9E" stroke-width="0.75" stroke-linecap="round" fill="none" />
    <path id=""  transform="matrix(1 0 0 -1 0 316)"  d="M58.7691 84.9355C 58.7691 84.1955 58.1681 83.5945 57.4271 83.5945C 56.6861 83.5945 56.0861 84.1955 56.0861 84.9355C 56.0861 85.6765 56.6861 86.277504 57.4271 86.277504C 58.1681 86.277504 58.7691 85.6765 58.7691 84.9355z" stroke="#E7BC9E" stroke-width="0.75" stroke-linecap="round" fill="none" />
    <path id=""  transform="matrix(1 0 0 -1 0 316)"  d="M63.1754 84.9355C 63.1754 84.1955 62.574398 83.5945 61.8334 83.5945C 61.0934 83.5945 60.4924 84.1955 60.4924 84.9355C 60.4924 85.6765 61.0934 86.277504 61.8334 86.277504C 62.574398 86.277504 63.1754 85.6765 63.1754 84.9355z" stroke="#E7BC9E" stroke-width="0.75" stroke-linecap="round" fill="none" />
    <path id=""  transform="matrix(1 0 0 -1 0 316)"  d="M124.6236 84.9355C 124.6236 84.1955 124.0226 83.5945 123.28159 83.5945C 122.541595 83.5945 121.9406 84.1955 121.9406 84.9355C 121.9406 85.6765 122.541595 86.277504 123.28159 86.277504C 124.0226 86.277504 124.6236 85.6765 124.6236 84.9355z" stroke="#E7BC9E" stroke-width="0.75" stroke-linecap="round" fill="none" />
    <path id=""  transform="matrix(1 0 0 -1 0 316)"  d="M129.0299 84.9355C 129.0299 84.1955 128.42891 83.5945 127.687904 83.5945C 126.94791 83.5945 126.34691 84.1955 126.34691 84.9355C 126.34691 85.6765 126.94791 86.277504 127.687904 86.277504C 128.42891 86.277504 129.0299 85.6765 129.0299 84.9355z" stroke="#E7BC9E" stroke-width="0.75" stroke-linecap="round" fill="none" />
    <path id=""  transform="matrix(1 0 0 -1 0 316)"  d="M133.4361 84.9355C 133.4361 84.1955 132.8351 83.5945 132.0951 83.5945C 131.3541 83.5945 130.7531 84.1955 130.7531 84.9355C 130.7531 85.6765 131.3541 86.277504 132.0951 86.277504C 132.8351 86.277504 133.4361 85.6765 133.4361 84.9355z" stroke="#E7BC9E" stroke-width="0.75" stroke-linecap="round" fill="none" />
    <path id=""  transform="matrix(1 0 0 -1 0 316)"  d="M61.8336 62.4258L61.8336 82.2548" stroke="#E7BC9E" stroke-width="0.75" stroke-linecap="round" fill="none" />
    <path id=""  transform="matrix(1 0 0 -1 0 316)"  d="M57.4274 62.4258L57.4274 82.2548" stroke="#E7BC9E" stroke-width="0.75" stroke-linecap="round" fill="none" />
    <path id=""  transform="matrix(1 0 0 -1 0 316)"  d="M53.0211 62.4258L53.0211 82.2548" stroke="#E7BC9E" stroke-width="0.75" stroke-linecap="round" fill="none" />
    <path id=""  transform="matrix(1 0 0 -1 0 316)"  d="M132.0953 62.4258L132.0953 82.2548" stroke="#E7BC9E" stroke-width="0.75" stroke-linecap="round" fill="none" />
    <path id=""  transform="matrix(1 0 0 -1 0 316)"  d="M127.6881 62.4258L127.6881 82.2548" stroke="#E7BC9E" stroke-width="0.75" stroke-linecap="round" fill="none" />
    <path id=""  transform="matrix(1 0 0 -1 0 316)"  d="M123.2818 62.4258L123.2818 82.2548" stroke="#E7BC9E" stroke-width="0.75" stroke-linecap="round" fill="none" />
    <path id=""  transform="matrix(1 0 0 -1 0 316)"  d="M54.7789 41.1572C 54.7789 41.4092 54.5069 41.5542 54.0309 41.5542C 54.0059 41.5542 53.9869 41.5502 53.9629 41.5492C 53.9809 41.5652 53.9989 41.5732 54.0159 41.591198C 54.3499 41.9252 54.4419 42.2192 54.2639 42.4002C 54.0849 42.5802 53.7919 42.4912 53.4539 42.1522C 53.4359 42.1352 53.4289 42.1172 53.4129 42.0992C 53.4139 42.1232 53.4179 42.1412 53.4179 42.1662C 53.4179 42.6412 53.2729 42.9152 53.0209 42.9152C 52.7679 42.9152 52.6239 42.6412 52.6239 42.1662C 52.6239 42.1422 52.6289 42.1262 52.6289 42.1032C 52.6129 42.1202 52.6049 42.1362 52.5879 42.1522C 52.2519 42.4882 51.955902 42.5792 51.7769 42.3992C 51.5989 42.2202 51.6899 41.9252 52.0259 41.591198C 52.0379 41.5782 52.0549 41.563198 52.0699 41.5502C 52.0489 41.5512 52.0329 41.5542 52.0109 41.5542C 51.5359 41.5542 51.2619 41.4092 51.2619 41.1572C 51.2619 40.9042 51.5359 40.7602 52.0109 40.7602C 52.0349 40.7602 52.0509 40.7632 52.0739 40.7642C 52.0569 40.7492 52.0429 40.7412 52.0259 40.7242C 51.8989 40.5972 51.6879 40.3532 51.6889 40.1352C 51.6889 40.0502 51.719902 39.9702 51.7759 39.9162C 51.7759 39.9162 52.1219 39.6102 52.5879 40.1622C 52.6029 40.1802 52.6139 40.1942 52.6289 40.2112C 52.6289 40.188198 52.6239 40.1722 52.6239 40.1472C 52.6239 39.6722 52.7679 39.3992 53.0209 39.3992C 53.2729 39.3992 53.4179 39.6722 53.4179 40.1472C 53.4179 40.1702 53.4139 40.1852 53.4129 40.2062C 53.4259 40.1922 53.4419 40.1752 53.4539 40.1622C 53.5799 40.0362 53.8219 39.8252 54.0419 39.8252L54.0419 39.8252L54.0429 39.8252L54.0429 39.8252L54.1889 39.8402L54.1889 39.8402L54.2639 39.9142C 54.4419 40.0922 54.3509 40.3862 54.0159 40.7242C 53.9999 40.7412 53.983902 40.7492 53.9679 40.7642C 53.990902 40.7632 54.0079 40.7602 54.0309 40.7602C 54.5069 40.7602 54.7789 40.9042 54.7789 41.1572" stroke="none" fill="#E7BC9E" fill-rule="nonzero" />
    <path id=""  transform="matrix(1 0 0 -1 0 316)"  d="M59.1861 41.1572C 59.1861 41.4092 58.9131 41.5542 58.4371 41.5542C 58.4121 41.5542 58.3931 41.5502 58.370102 41.5492C 58.3871 41.5652 58.4051 41.5732 58.4221 41.591198C 58.7561 41.9252 58.8481 42.2192 58.6701 42.4002C 58.4911 42.5802 58.1981 42.4912 57.8601 42.1522C 57.8421 42.1352 57.8351 42.1172 57.8191 42.0992C 57.8201 42.1232 57.8251 42.1412 57.8251 42.1662C 57.8251 42.6412 57.6791 42.9152 57.4271 42.9152C 57.1751 42.9152 57.0301 42.6412 57.0301 42.1662C 57.0301 42.1422 57.0351 42.1262 57.0361 42.1032C 57.0201 42.1202 57.0111 42.1362 56.995102 42.1522C 56.6581 42.4882 56.3631 42.5792 56.1831 42.3992C 56.0051 42.2202 56.0961 41.9252 56.4321 41.591198C 56.4451 41.5782 56.4621 41.563198 56.4761 41.5502C 56.4561 41.5512 56.4401 41.5542 56.4171 41.5542C 55.9421 41.5542 55.6681 41.4092 55.6681 41.1572C 55.6681 40.9042 55.9421 40.7602 56.4171 40.7602C 56.4411 40.7602 56.4571 40.7632 56.4801 40.7642C 56.4631 40.7492 56.4491 40.7412 56.4321 40.7242C 56.3061 40.5972 56.0941 40.3532 56.0951 40.1352C 56.0951 40.0502 56.127098 39.9702 56.1831 39.9162C 56.1831 39.9162 56.5291 39.6102 56.995102 40.1622C 57.0091 40.1802 57.0201 40.1942 57.0361 40.2112C 57.0351 40.188198 57.0301 40.1722 57.0301 40.1472C 57.0301 39.6722 57.1751 39.3992 57.4271 39.3992C 57.6791 39.3992 57.8251 39.6722 57.8251 40.1472C 57.8251 40.1702 57.8201 40.1852 57.8201 40.2062C 57.8321 40.1922 57.8481 40.1752 57.8601 40.1622C 57.9861 40.0362 58.2291 39.8252 58.4481 39.8252L58.4481 39.8252L58.4491 39.8252L58.4491 39.8252L58.5961 39.8402L58.5961 39.8402L58.6701 39.9142C 58.8481 40.0922 58.7571 40.3862 58.4221 40.7242C 58.4061 40.7412 58.3911 40.7492 58.3741 40.7642C 58.3971 40.7632 58.4141 40.7602 58.4371 40.7602C 58.9131 40.7602 59.1861 40.9042 59.1861 41.1572" stroke="none" fill="#E7BC9E" fill-rule="nonzero" />
    <path id=""  transform="matrix(1 0 0 -1 0 316)"  d="M63.5924 41.1572C 63.5924 41.4092 63.3194 41.5542 62.8434 41.5542C 62.8184 41.5542 62.8004 41.5502 62.776398 41.5492C 62.7934 41.5652 62.8114 41.5732 62.8284 41.591198C 63.1634 41.9252 63.2544 42.2192 63.0764 42.4002C 62.8974 42.5802 62.6044 42.4912 62.2674 42.1522C 62.2494 42.1352 62.241398 42.1172 62.2254 42.0992C 62.2264 42.1232 62.2314 42.1412 62.2314 42.1662C 62.2314 42.6412 62.0864 42.9152 61.8334 42.9152C 61.581398 42.9152 61.4374 42.6412 61.4374 42.1662C 61.4374 42.1422 61.4414 42.1262 61.442398 42.1032C 61.4264 42.1202 61.4174 42.1362 61.401398 42.1522C 61.0644 42.4882 60.7694 42.5792 60.5894 42.3992C 60.4114 42.2202 60.5024 41.9252 60.8394 41.591198C 60.8514 41.5782 60.8684 41.563198 60.8834 41.5502C 60.8624 41.5512 60.8464 41.5542 60.8234 41.5542C 60.3484 41.5542 60.0754 41.4092 60.0754 41.1572C 60.0754 40.9042 60.3484 40.7602 60.8234 40.7602C 60.8474 40.7602 60.8634 40.7632 60.8864 40.7642C 60.8704 40.7492 60.8554 40.7412 60.8394 40.7242C 60.7124 40.5972 60.5004 40.3532 60.5014 40.1352C 60.5014 40.0502 60.5334 39.9702 60.5894 39.9162C 60.5894 39.9162 60.9354 39.6102 61.401398 40.1622C 61.4164 40.1802 61.4264 40.1942 61.442398 40.2112C 61.4414 40.188198 61.4374 40.1722 61.4374 40.1472C 61.4374 39.6722 61.581398 39.3992 61.8334 39.3992C 62.0864 39.3992 62.2314 39.6722 62.2314 40.1472C 62.2314 40.1702 62.227398 40.1852 62.2264 40.2062C 62.2394 40.1922 62.2544 40.1752 62.2674 40.1622C 62.3934 40.0362 62.6354 39.8252 62.8554 39.8252L62.8554 39.8252L62.8564 39.8252L62.8564 39.8252L63.0024 39.8402L63.0024 39.8402L63.0764 39.9142C 63.2544 40.0922 63.1644 40.3862 62.8284 40.7242C 62.8124 40.7412 62.7974 40.7492 62.7814 40.7642C 62.8034 40.7632 62.8204 40.7602 62.8434 40.7602C 63.3194 40.7602 63.5924 40.9042 63.5924 41.1572" stroke="none" fill="#E7BC9E" fill-rule="nonzero" />
    <path id=""  transform="matrix(1 0 0 -1 0 316)"  d="M125.0406 41.1572C 125.0406 41.4092 124.7676 41.5542 124.2916 41.5542C 124.2666 41.5542 124.248604 41.5502 124.2246 41.5492C 124.2416 41.5652 124.259605 41.5732 124.2766 41.591198C 124.6116 41.9252 124.70261 42.2192 124.524605 42.4002C 124.345604 42.5802 124.052605 42.4912 123.71461 42.1522C 123.6976 42.1352 123.689606 42.1172 123.67361 42.0992C 123.67461 42.1232 123.6796 42.1412 123.6796 42.1662C 123.6796 42.6412 123.5336 42.9152 123.2816 42.9152C 123.0296 42.9152 122.884605 42.6412 122.884605 42.1662C 122.884605 42.1422 122.8896 42.1262 122.8906 42.1032C 122.8746 42.1202 122.8656 42.1362 122.8496 42.1522C 122.5126 42.4882 122.217606 42.5792 122.037605 42.3992C 121.859604 42.2202 121.95061 41.9252 122.286606 41.591198C 122.29961 41.5782 122.316605 41.563198 122.330605 41.5502C 122.3106 41.5512 122.2946 41.5542 122.27161 41.5542C 121.7966 41.5542 121.522606 41.4092 121.522606 41.1572C 121.522606 40.9042 121.7966 40.7602 122.27161 40.7602C 122.2956 40.7602 122.3116 40.7632 122.3346 40.7642C 122.317604 40.7492 122.303604 40.7412 122.286606 40.7242C 122.16061 40.5972 121.9486 40.3532 121.9496 40.1352C 121.9496 40.0502 121.981606 39.9702 122.037605 39.9162C 122.037605 39.9162 122.383606 39.6102 122.8496 40.1622C 122.8636 40.1802 122.8746 40.1942 122.8906 40.2112C 122.8896 40.188198 122.884605 40.1722 122.884605 40.1472C 122.884605 39.6722 123.0296 39.3992 123.2816 39.3992C 123.5336 39.3992 123.6796 39.6722 123.6796 40.1472C 123.6796 40.1702 123.67461 40.1852 123.67461 40.2062C 123.68761 40.1922 123.70261 40.1752 123.71461 40.1622C 123.841606 40.0362 124.0836 39.8252 124.302605 39.8252L124.302605 39.8252L124.303604 39.8252L124.303604 39.8252L124.45061 39.8402L124.45061 39.8402L124.524605 39.9142C 124.70261 40.0922 124.6126 40.3862 124.2766 40.7242C 124.260605 40.7412 124.245605 40.7492 124.22861 40.7642C 124.2516 40.7632 124.2686 40.7602 124.2916 40.7602C 124.7676 40.7602 125.0406 40.9042 125.0406 41.1572" stroke="none" fill="#E7BC9E" fill-rule="nonzero" />
    <path id=""  transform="matrix(1 0 0 -1 0 316)"  d="M129.4469 41.1572C 129.4469 41.4092 129.1749 41.5542 128.6979 41.5542C 128.6729 41.5542 128.65489 41.5502 128.6309 41.5492C 128.6479 41.5652 128.6659 41.5732 128.68289 41.591198C 129.0179 41.9252 129.1089 42.2192 128.9309 42.4002C 128.75189 42.5802 128.4589 42.4912 128.1219 42.1522C 128.1039 42.1352 128.0959 42.1172 128.0799 42.0992C 128.0809 42.1232 128.0859 42.1412 128.0859 42.1662C 128.0859 42.6412 127.9409 42.9152 127.6879 42.9152C 127.4359 42.9152 127.2919 42.6412 127.2919 42.1662C 127.2919 42.1422 127.2959 42.1262 127.2969 42.1032C 127.2809 42.1202 127.2719 42.1362 127.2559 42.1522C 126.9189 42.4882 126.6239 42.5792 126.4439 42.3992C 126.2659 42.2202 126.3569 41.9252 126.6939 41.591198C 126.7059 41.5782 126.7229 41.563198 126.7379 41.5502C 126.716896 41.5512 126.7009 41.5542 126.6779 41.5542C 126.202896 41.5542 125.9299 41.4092 125.9299 41.1572C 125.9299 40.9042 126.202896 40.7602 126.6779 40.7602C 126.7019 40.7602 126.717896 40.7632 126.7409 40.7642C 126.7249 40.7492 126.7099 40.7412 126.6939 40.7242C 126.5669 40.5972 126.3549 40.3532 126.355896 40.1352C 126.355896 40.0502 126.3879 39.9702 126.4439 39.9162C 126.4439 39.9162 126.7899 39.6102 127.2559 40.1622C 127.2709 40.1802 127.2809 40.1942 127.2969 40.2112C 127.2959 40.188198 127.2919 40.1722 127.2919 40.1472C 127.2919 39.6722 127.4359 39.3992 127.6879 39.3992C 127.9409 39.3992 128.0859 39.6722 128.0859 40.1472C 128.0859 40.1702 128.0819 40.1852 128.0809 40.2062C 128.0939 40.1922 128.1089 40.1752 128.1219 40.1622C 128.2479 40.0362 128.4899 39.8252 128.7099 39.8252L128.7099 39.8252L128.7109 39.8252L128.7109 39.8252L128.8569 39.8402L128.8569 39.8402L128.9309 39.9142C 129.1089 40.0922 129.0189 40.3862 128.68289 40.7242C 128.6669 40.7412 128.6519 40.7492 128.6359 40.7642C 128.6589 40.7632 128.6759 40.7602 128.6979 40.7602C 129.1749 40.7602 129.4469 40.9042 129.4469 41.1572" stroke="none" fill="#E7BC9E" fill-rule="nonzero" />
    <path id=""  transform="matrix(1 0 0 -1 0 316)"  d="M133.8531 41.1572C 133.8531 41.4092 133.5811 41.5542 133.1051 41.5542C 133.08011 41.5542 133.0611 41.5502 133.03711 41.5492C 133.0551 41.5652 133.0731 41.5732 133.0901 41.591198C 133.4241 41.9252 133.5161 42.2192 133.3381 42.4002C 133.1591 42.5802 132.8661 42.4912 132.5281 42.1522C 132.5101 42.1352 132.5031 42.1172 132.4871 42.0992C 132.4881 42.1232 132.49211 42.1412 132.49211 42.1662C 132.49211 42.6412 132.3471 42.9152 132.09511 42.9152C 131.8421 42.9152 131.6981 42.6412 131.6981 42.1662C 131.6981 42.1422 131.70311 42.1262 131.70311 42.1032C 131.6871 42.1202 131.67911 42.1362 131.66211 42.1522C 131.32611 42.4882 131.0301 42.5792 130.8511 42.3992C 130.67311 42.2202 130.7641 41.9252 131.1001 41.591198C 131.1121 41.5782 131.1291 41.563198 131.1441 41.5502C 131.12311 41.5512 131.1071 41.5542 131.0851 41.5542C 130.6101 41.5542 130.3361 41.4092 130.3361 41.1572C 130.3361 40.9042 130.6101 40.7602 131.0851 40.7602C 131.1091 40.7602 131.1251 40.7632 131.1481 40.7642C 131.1311 40.7492 131.1171 40.7412 131.1001 40.7242C 130.9731 40.5972 130.7621 40.3532 130.7631 40.1352C 130.7631 40.0502 130.7941 39.9702 130.8501 39.9162C 130.8501 39.9162 131.1961 39.6102 131.66211 40.1622C 131.67711 40.1802 131.68811 40.1942 131.70311 40.2112C 131.70311 40.188198 131.6981 40.1722 131.6981 40.1472C 131.6981 39.6722 131.8421 39.3992 132.09511 39.3992C 132.3471 39.3992 132.49211 39.6722 132.49211 40.1472C 132.49211 40.1702 132.4881 40.1852 132.4871 40.2062C 132.5001 40.1922 132.5161 40.1752 132.5281 40.1622C 132.6541 40.0362 132.8961 39.8252 133.1161 39.8252L133.1161 39.8252L133.11711 39.8252L133.11711 39.8252L133.2631 39.8402L133.2631 39.8402L133.3381 39.9142C 133.5161 40.0922 133.42511 40.3862 133.0901 40.7242C 133.0741 40.7412 133.0581 40.7492 133.0421 40.7642C 133.06511 40.7632 133.0821 40.7602 133.1051 40.7602C 133.5811 40.7602 133.8531 40.9042 133.8531 41.1572" stroke="none" fill="#E7BC9E" fill-rule="nonzero" />
    <path id=""  transform="matrix(1 0 0 -1 0 316)"  d="M61.8336 44.2549L61.8336 56.4429" stroke="#E7BC9E" stroke-width="0.75" stroke-linecap="round" fill="none" />
    <path id=""  transform="matrix(1 0 0 -1 0 316)"  d="M57.4274 44.2549L57.4274 56.4429" stroke="#E7BC9E" stroke-width="0.75" stroke-linecap="round" fill="none" />
    <path id=""  transform="matrix(1 0 0 -1 0 316)"  d="M53.0211 44.2549L53.0211 56.4429" stroke="#E7BC9E" stroke-width="0.75" stroke-linecap="round" fill="none" />
    <path id=""  transform="matrix(1 0 0 -1 0 316)"  d="M132.0953 44.2549L132.0953 56.4429" stroke="#E7BC9E" stroke-width="0.75" stroke-linecap="round" fill="none" />
    <path id=""  transform="matrix(1 0 0 -1 0 316)"  d="M127.6881 44.2549L127.6881 56.4429" stroke="#E7BC9E" stroke-width="0.75" stroke-linecap="round" fill="none" />
    <path id=""  transform="matrix(1 0 0 -1 0 316)"  d="M123.2818 44.2549L123.2818 56.4429" stroke="#E7BC9E" stroke-width="0.75" stroke-linecap="round" fill="none" />
    <path id=""  transform="matrix(1 0 0 -1 0 316)"  d="M118.8736 103.7139C 117.60159 102.442894 117.60159 100.3809 118.8736 99.10989C 120.1446 97.8379 122.2066 97.8379 123.4776 99.10989C 124.113594 99.744896 124.432594 100.577896 124.432594 101.411896C 124.432594 102.244896 124.113594 103.077896 123.4776 103.7139C 122.2066 104.9859 120.1446 104.9859 118.8736 103.7139z" stroke="#E7BC9E" stroke-width="1" fill="none" />
    <path id=""  transform="matrix(1 0 0 -1 0 316)"  d="M136.5035 99.1094C 137.77449 100.3804 137.77449 102.4424 136.5035 103.713394C 135.2325 104.9864 133.1705 104.9864 131.89949 103.713394C 131.2625 103.0784 130.94449 102.2454 130.94449 101.4124C 130.94449 100.5784 131.2625 99.7454 131.89949 99.1094C 133.1705 97.838394 135.2325 97.838394 136.5035 99.1094z" stroke="#E7BC9E" stroke-width="1" fill="none" />
    <path id=""  transform="matrix(1 0 0 -1 0 316)"  d="M125.3863 110.2266C 124.114296 108.9556 124.114296 106.8936 125.3863 105.622604C 126.6573 104.3506 128.7193 104.3506 129.9903 105.622604C 131.2623 106.8936 131.2623 108.9556 129.9903 110.2266C 128.7193 111.498604 126.6573 111.498604 125.3863 110.2266z" stroke="#E7BC9E" stroke-width="1" fill="none" />
    <path id=""  transform="matrix(1 0 0 -1 0 316)"  d="M127.6881 98.1553C 128.52211 98.1553 129.3551 98.4733 129.9911 99.1093C 130.6261 99.74529 130.9451 100.57829 130.9451 101.41229C 130.9451 102.2453 130.6261 103.07829 129.9911 103.714294C 128.7191 104.9863 126.658104 104.9863 125.3861 103.714294C 124.7501 103.07829 124.432106 102.2453 124.432106 101.41229C 124.432106 100.57829 124.7501 99.74529 125.3861 99.1093C 126.0221 98.4733 126.8551 98.1553 127.6881 98.1553z" stroke="#E7BC9E" stroke-width="1" fill="none" />
    <path id=""  transform="matrix(1 0 0 -1 0 316)"  d="M125.3863 92.5967C 126.6573 91.3257 128.7193 91.3257 129.9903 92.5967C 131.2623 93.86771 131.2623 95.9297 129.9903 97.2007C 129.3553 97.8377 128.5223 98.1557 127.6883 98.1557C 126.8553 98.1557 126.0223 97.8377 125.3863 97.2007C 124.114296 95.9297 124.114296 93.86771 125.3863 92.5967z" stroke="#E7BC9E" stroke-width="1" fill="none" />
    <path id=""  transform="matrix(1 0 0 -1 0 316)"  d="M117.7897 101.4121C 117.7897 106.879105 122.2217 111.310104 127.687706 111.310104C 133.1557 111.310104 137.5877 106.879105 137.5877 101.4121C 137.5877 95.9441 133.1557 91.5131 127.687706 91.5131C 122.2217 91.5131 117.7897 95.9441 117.7897 101.4121z" stroke="#E7BC9E" stroke-width="0.75" fill="none" />
    <path id=""  transform="matrix(1 0 0 -1 0 316)"  d="M48.441 103.7139C 47.169003 102.442894 47.169003 100.3809 48.441 99.10989C 49.712 97.8379 51.774002 97.8379 53.045002 99.10989C 53.681 99.744896 54 100.577896 54 101.411896C 54 102.244896 53.681 103.077896 53.045002 103.7139C 51.774002 104.9859 49.712 104.9859 48.441 103.7139z" stroke="#E7BC9E" stroke-width="0.75" fill="none" />
    <path id=""  transform="matrix(1 0 0 -1 0 316)"  d="M66.0709 99.1094C 67.3419 100.3804 67.3419 102.4424 66.0709 103.713394C 64.7999 104.9864 62.7379 104.9864 61.4669 103.713394C 60.8299 103.0784 60.5119 102.2454 60.5119 101.4124C 60.5119 100.5784 60.8299 99.7454 61.4669 99.1094C 62.7379 97.838394 64.7999 97.838394 66.0709 99.1094z" stroke="#E7BC9E" stroke-width="0.75" fill="none" />
    <path id=""  transform="matrix(1 0 0 -1 0 316)"  d="M54.9537 110.2266C 53.6817 108.9556 53.6817 106.8936 54.9537 105.622604C 56.2247 104.3506 58.2867 104.3506 59.5577 105.622604C 60.8297 106.8936 60.8297 108.9556 59.5577 110.2266C 58.2867 111.498604 56.2247 111.498604 54.9537 110.2266z" stroke="#E7BC9E" stroke-width="0.75" fill="none" />
    <path id=""  transform="matrix(1 0 0 -1 0 316)"  d="M57.2555 98.1553C 58.0895 98.1553 58.9225 98.4733 59.558502 99.1093C 60.1935 99.74529 60.5125 100.57829 60.5125 101.41229C 60.5125 102.2453 60.1935 103.07829 59.558502 103.714294C 58.2865 104.9863 56.225502 104.9863 54.9535 103.714294C 54.3175 103.07829 53.9995 102.2453 53.9995 101.41229C 53.9995 100.57829 54.3175 99.74529 54.9535 99.1093C 55.5895 98.4733 56.4225 98.1553 57.2555 98.1553z" stroke="#E7BC9E" stroke-width="0.75" fill="none" />
    <path id=""  transform="matrix(1 0 0 -1 0 316)"  d="M54.9537 92.5967C 56.2247 91.3257 58.2867 91.3257 59.5577 92.5967C 60.8297 93.86771 60.8297 95.9297 59.5577 97.2007C 58.922703 97.8377 58.089703 98.1557 57.2557 98.1557C 56.422703 98.1557 55.589703 97.8377 54.9537 97.2007C 53.6817 95.9297 53.6817 93.86771 54.9537 92.5967z" stroke="#E7BC9E" stroke-width="0.75" fill="none" />
    <path id=""  transform="matrix(1 0 0 -1 0 316)"  d="M47.357 101.4121C 47.357 106.879105 51.788998 111.310104 57.254997 111.310104C 62.723 111.310104 67.155 106.879105 67.155 101.4121C 67.155 95.9441 62.723 91.5131 57.254997 91.5131C 51.788998 91.5131 47.357 95.9441 47.357 101.4121z" stroke="#E7BC9E" stroke-width="1" fill="none" />
    <path id=""  transform="matrix(1 0 0 -1 0 316)"  d="M139.2525 99.7959C 138.3595 93.4099 132.4595 88.9559 126.0725 89.8489C 119.6865 90.7399 115.2325 96.6409 116.124504 103.0269C 117.0175 109.413895 122.9175 113.8669 129.3045 112.9759C 135.6895 112.0829 140.1445 106.1829 139.2525 99.7959z" stroke="#E7BC9E" stroke-width="0.5" fill="none" />
    <path id=""  transform="matrix(1 0 0 -1 0 316)"  d="M68.9322 101.4121C 68.9322 94.963104 63.704197 89.7361 57.255196 89.7361C 50.807198 89.7361 45.579197 94.963104 45.579197 101.4121C 45.579197 107.8601 50.807198 113.088104 57.255196 113.088104C 63.704197 113.088104 68.9322 107.8601 68.9322 101.4121z" stroke="#E7BC9E" stroke-width="0.5" fill="none" />
		</g>
	</g>
</g>
</svg>