<?xml version="1.0" standalone="no"?>
<!DOCTYPE svg PUBLIC "-//W3C//DTD SVG 1.0//EN" "http://www.w3.org/TR/2001/REC-SVG-20010904/DTD/svg10.dtd">
<svg xmlns="http://www.w3.org/2000/svg" xmlns:xlink="http://www.w3.org/1999/xlink" id="body_8" width="247" height="421">

<defs>
    <clipPath  id="1">

    <path id=""  clip-rule="evenodd" transform="matrix(1 0 0 1 0 0)"  d="M0 316L0 0L0 0L185 0L185 0L185 316L185 316L0 316z" />    </clipPath>
    <clipPath  id="2">

    <path id=""  clip-rule="evenodd" transform="matrix(1 0 0 1 0 0)"  d="M0 0L185 0L185 0L185 316L185 316L0 316z" />    </clipPath>
</defs>

<g transform="matrix(1.3333 0 0 1.3333 0 0)">
	<g clip-path="url(#1)" >
		<g clip-path="url(#2)" >
    <path id=""  transform="matrix(1 0 0 -1 0 316)"  d="M128.1533 73.957C 124.736305 73.957 121.96631 76.728 121.96631 80.144C 121.96631 87.901 128.1533 93.734 128.1533 93.734C 128.1533 93.734 134.3403 87.901 134.3403 80.144C 134.3403 76.728 131.57031 73.957 128.1533 73.957z" stroke="#E7BC9E" stroke-width="0.5" stroke-linecap="round" fill="none" />
    <path id=""  transform="matrix(1 0 0 -1 0 316)"  d="M128.1533 93.7344L129.53331 89.7764L129.53331 89.7764L131.15831 81.7764L131.15831 81.7764L130.0023 78.057396L130.0023 78.057396L130.0023 75.932396L130.0023 75.932396L130.5403 74.435394" stroke="#E7BC9E" stroke-width="0.25" stroke-linecap="round" fill="none" />
    <path id=""  transform="matrix(1 0 0 -1 0 316)"  d="M130.6045 90.8047L129.53351 89.7767L129.53351 89.7767L128.1535 88.7137L128.1535 88.7137L132.37651 84.0847L132.37651 84.0847L132.47351 87.6687L132.47351 87.6687L129.53351 89.7767" stroke="#E7BC9E" stroke-width="0.25" stroke-linecap="round" fill="none" />
    <path id=""  transform="matrix(1 0 0 -1 0 316)"  d="M133.9971 78.1104L132.3771 78.71439L132.3771 78.71439L131.1581 81.7764L131.1581 81.7764L132.3771 84.085396" stroke="#E7BC9E" stroke-width="0.25" stroke-linecap="round" fill="none" />
    <path id=""  transform="matrix(1 0 0 -1 0 316)"  d="M133.7119 84.4834L132.37689 84.085396L132.37689 84.085396L134.2779 81.4944L134.2779 81.4944L132.37689 78.7134L132.37689 78.7134L132.5789 75.822395L132.5789 75.822395L130.00189 75.932396L130.00189 75.932396L128.1529 77.5884L128.1529 77.5884L130.00189 78.057396L130.00189 78.057396L132.37689 78.7134" stroke="#E7BC9E" stroke-width="0.25" stroke-linecap="round" fill="none" />
    <path id=""  transform="matrix(1 0 0 -1 0 316)"  d="M128.1533 73.957L130.0023 75.933" stroke="#E7BC9E" stroke-width="0.25" stroke-linecap="round" fill="none" />
    <path id=""  transform="matrix(1 0 0 -1 0 316)"  d="M128.1533 93.7344L126.77331 89.7764L126.77331 89.7764L125.14831 81.7764L125.14831 81.7764L126.304306 78.057396L126.304306 78.057396L126.304306 75.932396L126.304306 75.932396L125.766304 74.435394" stroke="#E7BC9E" stroke-width="0.25" stroke-linecap="round" fill="none" />
    <path id=""  transform="matrix(1 0 0 -1 0 316)"  d="M125.7012 90.8047L126.7732 89.7767L126.7732 89.7767L128.1532 88.7137L128.1532 88.7137L123.9302 84.0847L123.9302 84.0847L123.8322 87.6687L123.8322 87.6687L126.7732 89.7767" stroke="#E7BC9E" stroke-width="0.25" stroke-linecap="round" fill="none" />
    <path id=""  transform="matrix(1 0 0 -1 0 316)"  d="M122.3096 78.1104L123.9296 78.71439L123.9296 78.71439L125.1486 81.7764L125.1486 81.7764L123.9296 84.085396" stroke="#E7BC9E" stroke-width="0.25" stroke-linecap="round" fill="none" />
    <path id=""  transform="matrix(1 0 0 -1 0 316)"  d="M122.5947 84.4834L123.9297 84.085396L123.9297 84.085396L122.0287 81.4944L122.0287 81.4944L123.9297 78.7134L123.9297 78.7134L123.7267 75.822395L123.7267 75.822395L126.3047 75.932396L126.3047 75.932396L128.1537 77.5884L128.1537 77.5884L126.3047 78.057396L126.3047 78.057396L123.9297 78.7134" stroke="#E7BC9E" stroke-width="0.25" stroke-linecap="round" fill="none" />
    <path id=""  transform="matrix(1 0 0 -1 0 316)"  d="M128.1533 73.957L126.304306 75.933" stroke="#E7BC9E" stroke-width="0.25" stroke-linecap="round" fill="none" />
    <path id=""  transform="matrix(1 0 0 -1 0 316)"  d="M129.8291 100.6641C 129.8291 99.7381 129.0781 98.9881 128.1531 98.9881C 127.227104 98.9881 126.477104 99.7381 126.477104 100.6641C 126.477104 101.5891 127.227104 102.3401 128.1531 102.3401C 129.0781 102.3401 129.8291 101.5891 129.8291 100.6641z" stroke="#E7BC9E" stroke-width="0.5" stroke-linecap="round" fill="none" />
    <path id=""  transform="matrix(1 0 0 -1 0 316)"  d="M128.6016 102.7871C 128.6016 102.5401 128.40059 102.3401 128.1536 102.3401C 127.905594 102.3401 127.70559 102.5401 127.70559 102.7871C 127.70559 103.0351 127.905594 103.2351 128.1536 103.2351C 128.40059 103.2351 128.6016 103.0351 128.6016 102.7871z" stroke="#E7BC9E" stroke-width="0.3" stroke-linecap="round" fill="none" />
    <path id=""  transform="matrix(1 0 0 -1 0 316)"  d="M127.4795 102.7275C 127.6035 102.512505 127.5295 102.2385 127.3155 102.1155C 127.1005 101.9915 126.8275 102.0645 126.7035 102.2795C 126.5795 102.4935 126.6525 102.7675 126.8675 102.8905C 127.0815 103.0145 127.3555 102.9415 127.4795 102.7275z" stroke="#E7BC9E" stroke-width="0.3" stroke-linecap="round" fill="none" />
    <path id=""  transform="matrix(1 0 0 -1 0 316)"  d="M126.5381 102.1133C 126.7521 101.990295 126.8261 101.71629 126.7021 101.5023C 126.5781 101.2873 126.3041 101.214294 126.0901 101.338295C 125.8751 101.461296 125.8021 101.7353 125.9261 101.950294C 126.0501 102.1643 126.323105 102.2373 126.5381 102.1133z" stroke="#E7BC9E" stroke-width="0.3" stroke-linecap="round" fill="none" />
    <path id=""  transform="matrix(1 0 0 -1 0 316)"  d="M126.0293 101.1123C 126.2763 101.1123 126.477295 100.9113 126.477295 100.6643C 126.477295 100.4163 126.2763 100.21629 126.0293 100.21629C 125.782295 100.21629 125.5813 100.4163 125.5813 100.6643C 125.5813 100.9113 125.782295 101.1123 126.0293 101.1123z" stroke="#E7BC9E" stroke-width="0.3" stroke-linecap="round" fill="none" />
    <path id=""  transform="matrix(1 0 0 -1 0 316)"  d="M126.0899 99.9902C 126.303894 100.1132 126.577896 100.0402 126.7019 99.826195C 126.8259 99.6112 126.7519 99.338196 126.537895 99.214195C 126.3229 99.090195 126.0499 99.16319 125.925896 99.3782C 125.801895 99.59219 125.8749 99.866196 126.0899 99.9902z" stroke="#E7BC9E" stroke-width="0.3" stroke-linecap="round" fill="none" />
    <path id=""  transform="matrix(1 0 0 -1 0 316)"  d="M126.7031 99.0488C 126.8271 99.262794 127.100105 99.3358 127.3151 99.2128C 127.5291 99.0888 127.6031 98.8148 127.4791 98.6008C 127.3551 98.385796 127.0811 98.3128 126.8671 98.4368C 126.6521 98.5608 126.5791 98.8338 126.7031 99.0488z" stroke="#E7BC9E" stroke-width="0.3" stroke-linecap="round" fill="none" />
    <path id=""  transform="matrix(1 0 0 -1 0 316)"  d="M127.7051 98.54C 127.7051 98.787 127.9051 98.988 128.1531 98.988C 128.4001 98.988 128.6011 98.787 128.6011 98.54C 128.6011 98.292 128.4001 98.092 128.1531 98.092C 127.9051 98.092 127.7051 98.292 127.7051 98.54z" stroke="#E7BC9E" stroke-width="0.3" stroke-linecap="round" fill="none" />
    <path id=""  transform="matrix(1 0 0 -1 0 316)"  d="M127.7051 97.0195C 127.7051 97.2675 127.9051 97.4675 128.1531 97.4675C 128.4001 97.4675 128.6011 97.2675 128.6011 97.0195C 128.6011 96.7725 128.4001 96.5715 128.1531 96.5715C 127.9051 96.5715 127.7051 96.7725 127.7051 97.0195z" stroke="#E7BC9E" stroke-width="0.3" stroke-linecap="round" fill="none" />
    <path id=""  transform="matrix(1 0 0 -1 0 316)"  d="M127.7051 95.499C 127.7051 95.747 127.9051 95.947 128.1531 95.947C 128.4001 95.947 128.6011 95.747 128.6011 95.499C 128.6011 95.252 128.4001 95.052 128.1531 95.052C 127.9051 95.052 127.7051 95.252 127.7051 95.499z" stroke="#E7BC9E" stroke-width="0.3" stroke-linecap="round" fill="none" />
    <path id=""  transform="matrix(1 0 0 -1 0 316)"  d="M128.8271 98.6006C 128.70311 98.8146 128.77611 99.0886 128.9911 99.2126C 129.20511 99.3356 129.4791 99.2626 129.6031 99.0486C 129.7261 98.8336 129.6531 98.5606 129.4391 98.4366C 129.2241 98.3126 128.9501 98.385605 128.8271 98.6006z" stroke="#E7BC9E" stroke-width="0.3" stroke-linecap="round" fill="none" />
    <path id=""  transform="matrix(1 0 0 -1 0 316)"  d="M129.7686 99.2139C 129.5536 99.3379 129.4806 99.6109 129.6046 99.8259C 129.7286 100.039894 130.0016 100.1129 130.2166 99.9899C 130.4306 99.8659 130.5036 99.591896 130.3806 99.3779C 130.2566 99.162895 129.9826 99.0899 129.7686 99.2139z" stroke="#E7BC9E" stroke-width="0.3" stroke-linecap="round" fill="none" />
    <path id=""  transform="matrix(1 0 0 -1 0 316)"  d="M130.2773 100.2158C 130.0293 100.2158 129.8293 100.415794 129.8293 100.663795C 129.8293 100.9108 130.0293 101.1118 130.2773 101.1118C 130.52429 101.1118 130.7243 100.9108 130.7243 100.663795C 130.7243 100.415794 130.52429 100.2158 130.2773 100.2158z" stroke="#E7BC9E" stroke-width="0.3" stroke-linecap="round" fill="none" />
    <path id=""  transform="matrix(1 0 0 -1 0 316)"  d="M130.2168 101.3379C 130.0018 101.2139 129.72879 101.286896 129.6048 101.5019C 129.4808 101.7159 129.5538 101.9899 129.7688 102.1129C 129.9828 102.2369 130.25679 102.163895 130.3808 101.9499C 130.5038 101.7349 130.4308 101.4609 130.2168 101.3379z" stroke="#E7BC9E" stroke-width="0.3" stroke-linecap="round" fill="none" />
    <path id=""  transform="matrix(1 0 0 -1 0 316)"  d="M129.6035 102.2793C 129.4795 102.0643 129.2055 101.991295 128.9915 102.115295C 128.7765 102.2383 128.7035 102.5123 128.8275 102.727295C 128.9505 102.9413 129.2245 103.0143 129.4395 102.8903C 129.6535 102.767296 129.7265 102.49329 129.6035 102.2793z" stroke="#E7BC9E" stroke-width="0.3" stroke-linecap="round" fill="none" />
    <path id=""  transform="matrix(1 0 0 -1 0 316)"  d="M122.4473 90.4473C 121.7433 90.4473 121.1723 91.0763 121.1723 91.8523C 121.1723 91.0763 120.6003 90.4473 119.8963 90.4473C 120.6003 90.4473 121.1723 89.818306 121.1723 89.042305C 121.1723 89.818306 121.7433 90.4473 122.4473 90.4473" stroke="none" fill="#E7BC9E" fill-rule="nonzero" />
    <path id=""  transform="matrix(1 0 0 -1 0 316)"  d="M122.4473 90.4473C 121.7433 90.4473 121.1723 91.0763 121.1723 91.8523C 121.1723 91.0763 120.6003 90.4473 119.8963 90.4473C 120.6003 90.4473 121.1723 89.818306 121.1723 89.042305C 121.1723 89.818306 121.7433 90.4473 122.4473 90.4473z" stroke="#E7BC9E" stroke-width="0.25" stroke-linecap="round" fill="none" />
    <path id=""  transform="matrix(1 0 0 -1 0 316)"  d="M136.4102 90.4473C 135.7062 90.4473 135.13521 91.0763 135.13521 91.8523C 135.13521 91.0763 134.5632 90.4473 133.8592 90.4473C 134.5632 90.4473 135.13521 89.818306 135.13521 89.042305C 135.13521 89.818306 135.7062 90.4473 136.4102 90.4473" stroke="none" fill="#E7BC9E" fill-rule="nonzero" />
    <path id=""  transform="matrix(1 0 0 -1 0 316)"  d="M136.4102 90.4473C 135.7062 90.4473 135.13521 91.0763 135.13521 91.8523C 135.13521 91.0763 134.5632 90.4473 133.8592 90.4473C 134.5632 90.4473 135.13521 89.818306 135.13521 89.042305C 135.13521 89.818306 135.7062 90.4473 136.4102 90.4473z" stroke="#E7BC9E" stroke-width="0.25" stroke-linecap="round" fill="none" />
    <path id=""  transform="matrix(1 0 0 -1 0 316)"  d="M131.8955 50.9102L131.8955 67.6062" stroke="#E7BC9E" stroke-width="1" stroke-linecap="round" stroke-dasharray="1.07,2" fill="none" />
    <path id=""  transform="matrix(1 0 0 -1 0 316)"  d="M128.1533 45.8779L128.1533 67.6069" stroke="#E7BC9E" stroke-width="1" stroke-linecap="round" stroke-dasharray="1.07,2" fill="none" />
    <path id=""  transform="matrix(1 0 0 -1 0 316)"  d="M124.4102 50.9102L124.4102 67.6062" stroke="#E7BC9E" stroke-width="1" stroke-linecap="round" stroke-dasharray="1.07,2" fill="none" />
    <path id=""  transform="matrix(1 0 0 -1 0 316)"  d="M125.1582 70.3369C 125.1582 69.9239 124.823204 69.5889 124.4102 69.5889C 123.9972 69.5889 123.6632 69.9239 123.6632 70.3369C 123.6632 70.7499 123.9972 71.0839 124.4102 71.0839C 124.823204 71.0839 125.1582 70.7499 125.1582 70.3369z" stroke="#E7BC9E" stroke-width="0.25" stroke-linecap="round" fill="none" />
    <path id=""  transform="matrix(1 0 0 -1 0 316)"  d="M124.6104 71.2842C 124.6104 71.1742 124.5204 71.084206 124.4104 71.084206C 124.2994 71.084206 124.210396 71.1742 124.210396 71.2842C 124.210396 71.3942 124.2994 71.4842 124.4104 71.4842C 124.5204 71.4842 124.6104 71.3942 124.6104 71.2842z" stroke="#E7BC9E" stroke-width="0.25" stroke-linecap="round" fill="none" />
    <path id=""  transform="matrix(1 0 0 -1 0 316)"  d="M124.1094 71.2568C 124.1654 71.1618 124.1314 71.038795 124.0364 70.984795C 123.9404 70.928795 123.8184 70.9618 123.7634 71.0578C 123.7084 71.1528 123.7414 71.275795 123.837395 71.329796C 123.932396 71.385796 124.0544 71.3528 124.1094 71.2568z" stroke="#E7BC9E" stroke-width="0.25" stroke-linecap="round" fill="none" />
    <path id=""  transform="matrix(1 0 0 -1 0 316)"  d="M123.6895 70.9834C 123.7855 70.9284 123.8185 70.8054 123.7625 70.710396C 123.708496 70.6154 123.5855 70.5824 123.4895 70.6374C 123.3945 70.6924 123.361496 70.8144 123.4165 70.9104C 123.4715 71.0054 123.5935 71.0394 123.6895 70.9834z" stroke="#E7BC9E" stroke-width="0.25" stroke-linecap="round" fill="none" />
    <path id=""  transform="matrix(1 0 0 -1 0 316)"  d="M123.4629 70.5361C 123.5729 70.5361 123.662895 70.447105 123.662895 70.337105C 123.662895 70.226105 123.5729 70.1371 123.4629 70.1371C 123.3529 70.1371 123.2629 70.226105 123.2629 70.337105C 123.2629 70.447105 123.3529 70.5361 123.4629 70.5361z" stroke="#E7BC9E" stroke-width="0.25" stroke-linecap="round" fill="none" />
    <path id=""  transform="matrix(1 0 0 -1 0 316)"  d="M123.4893 70.0361C 123.585304 70.0911 123.708305 70.058105 123.76231 69.963104C 123.818306 69.8671 123.7853 69.7451 123.6893 69.6891C 123.5933 69.6351 123.471306 69.6671 123.416306 69.7631C 123.361305 69.8581 123.3943 69.9801 123.4893 70.0361z" stroke="#E7BC9E" stroke-width="0.25" stroke-linecap="round" fill="none" />
    <path id=""  transform="matrix(1 0 0 -1 0 316)"  d="M123.7637 69.6162C 123.8187 69.712204 123.940704 69.7442 124.035706 69.6892C 124.1317 69.6342 124.1647 69.51221 124.1097 69.41621C 124.0547 69.320206 123.9327 69.2872 123.8367 69.3432C 123.7417 69.3972 123.7077 69.5202 123.7637 69.6162z" stroke="#E7BC9E" stroke-width="0.25" stroke-linecap="round" fill="none" />
    <path id=""  transform="matrix(1 0 0 -1 0 316)"  d="M124.21 69.3887C 124.21 69.4987 124.299995 69.5887 124.409996 69.5887C 124.520996 69.5887 124.61 69.4987 124.61 69.3887C 124.61 69.2787 124.520996 69.188705 124.409996 69.188705C 124.299995 69.188705 124.21 69.2787 124.21 69.3887z" stroke="#E7BC9E" stroke-width="0.25" stroke-linecap="round" fill="none" />
    <path id=""  transform="matrix(1 0 0 -1 0 316)"  d="M124.711 69.416C 124.656 69.512 124.688995 69.634 124.784 69.689C 124.88 69.744 125.002 69.712 125.058 69.616C 125.112 69.52 125.08 69.397 124.984 69.343C 124.889 69.287 124.767 69.32 124.711 69.416z" stroke="#E7BC9E" stroke-width="0.25" stroke-linecap="round" fill="none" />
    <path id=""  transform="matrix(1 0 0 -1 0 316)"  d="M125.1309 69.6895C 125.0349 69.7455 125.0029 69.8675 125.0579 69.9625C 125.1129 70.0585 125.23489 70.0905 125.330894 70.0365C 125.426895 69.9805 125.4599 69.8585 125.4039 69.7625C 125.3489 69.667496 125.2269 69.6345 125.1309 69.6895z" stroke="#E7BC9E" stroke-width="0.25" stroke-linecap="round" fill="none" />
    <path id=""  transform="matrix(1 0 0 -1 0 316)"  d="M125.3584 70.1367C 125.2484 70.1367 125.1584 70.2267 125.1584 70.3367C 125.1584 70.4477 125.2484 70.535706 125.3584 70.535706C 125.4684 70.535706 125.557396 70.4477 125.557396 70.3367C 125.557396 70.2267 125.4684 70.1367 125.3584 70.1367z" stroke="#E7BC9E" stroke-width="0.25" stroke-linecap="round" fill="none" />
    <path id=""  transform="matrix(1 0 0 -1 0 316)"  d="M125.3311 70.6377C 125.2351 70.5817 125.1131 70.6157 125.0581 70.7097C 125.0031 70.8057 125.0351 70.9287 125.1311 70.9837C 125.227104 71.038704 125.3491 71.0057 125.4041 70.909706C 125.4601 70.814705 125.4271 70.6927 125.3311 70.6377z" stroke="#E7BC9E" stroke-width="0.25" stroke-linecap="round" fill="none" />
    <path id=""  transform="matrix(1 0 0 -1 0 316)"  d="M125.0576 71.0576C 125.0016 70.9616 124.8796 70.928604 124.7846 70.984604C 124.6886 71.038605 124.6566 71.1616 124.7106 71.2566C 124.7666 71.3526 124.8886 71.385605 124.984604 71.329605C 125.079605 71.275604 125.1126 71.1536 125.0576 71.0576z" stroke="#E7BC9E" stroke-width="0.25" stroke-linecap="round" fill="none" />
    <path id=""  transform="matrix(1 0 0 -1 0 316)"  d="M128.9004 70.3369C 128.9004 69.9239 128.5664 69.5889 128.15341 69.5889C 127.7404 69.5889 127.4054 69.9239 127.4054 70.3369C 127.4054 70.7499 127.7404 71.0839 128.15341 71.0839C 128.5664 71.0839 128.9004 70.7499 128.9004 70.3369z" stroke="#E7BC9E" stroke-width="0.25" stroke-linecap="round" fill="none" />
    <path id=""  transform="matrix(1 0 0 -1 0 316)"  d="M128.3535 71.2842C 128.3535 71.1742 128.2635 71.084206 128.1535 71.084206C 128.0425 71.084206 127.9535 71.1742 127.9535 71.2842C 127.9535 71.3942 128.0425 71.4842 128.1535 71.4842C 128.2635 71.4842 128.3535 71.3942 128.3535 71.2842z" stroke="#E7BC9E" stroke-width="0.25" stroke-linecap="round" fill="none" />
    <path id=""  transform="matrix(1 0 0 -1 0 316)"  d="M127.8526 71.2568C 127.9076 71.1618 127.8746 71.038795 127.7796 70.984795C 127.6836 70.928795 127.5616 70.9618 127.5056 71.0578C 127.4516 71.1528 127.4836 71.275795 127.5796 71.329796C 127.6746 71.385796 127.7966 71.3528 127.8526 71.2568z" stroke="#E7BC9E" stroke-width="0.25" stroke-linecap="round" fill="none" />
    <path id=""  transform="matrix(1 0 0 -1 0 316)"  d="M127.4326 70.9834C 127.5286 70.9284 127.5606 70.8054 127.5056 70.710396C 127.4506 70.6154 127.328606 70.5824 127.232605 70.6374C 127.136604 70.6924 127.1046 70.8144 127.1596 70.9104C 127.2146 71.0054 127.3366 71.0394 127.4326 70.9834z" stroke="#E7BC9E" stroke-width="0.25" stroke-linecap="round" fill="none" />
    <path id=""  transform="matrix(1 0 0 -1 0 316)"  d="M127.2051 70.5361C 127.3151 70.5361 127.4051 70.447105 127.4051 70.337105C 127.4051 70.226105 127.3151 70.1371 127.2051 70.1371C 127.0951 70.1371 127.0061 70.226105 127.0061 70.337105C 127.0061 70.447105 127.0951 70.5361 127.2051 70.5361z" stroke="#E7BC9E" stroke-width="0.25" stroke-linecap="round" fill="none" />
    <path id=""  transform="matrix(1 0 0 -1 0 316)"  d="M127.2324 70.0361C 127.3284 70.0911 127.4504 70.058105 127.5054 69.963104C 127.5604 69.8671 127.5284 69.7451 127.432396 69.6891C 127.336395 69.6351 127.2144 69.6671 127.1594 69.7631C 127.1044 69.8581 127.1364 69.9801 127.2324 70.0361z" stroke="#E7BC9E" stroke-width="0.25" stroke-linecap="round" fill="none" />
    <path id=""  transform="matrix(1 0 0 -1 0 316)"  d="M127.5059 69.6162C 127.5619 69.712204 127.6839 69.7442 127.7789 69.6892C 127.8749 69.6342 127.9069 69.51221 127.8529 69.41621C 127.7969 69.320206 127.6749 69.2872 127.578896 69.3432C 127.483894 69.3972 127.4509 69.5202 127.5059 69.6162z" stroke="#E7BC9E" stroke-width="0.25" stroke-linecap="round" fill="none" />
    <path id=""  transform="matrix(1 0 0 -1 0 316)"  d="M127.9531 69.3887C 127.9531 69.4987 128.0431 69.5887 128.1531 69.5887C 128.2641 69.5887 128.3531 69.4987 128.3531 69.3887C 128.3531 69.2787 128.2641 69.188705 128.1531 69.188705C 128.0431 69.188705 127.9531 69.2787 127.9531 69.3887z" stroke="#E7BC9E" stroke-width="0.25" stroke-linecap="round" fill="none" />
    <path id=""  transform="matrix(1 0 0 -1 0 316)"  d="M128.4541 69.416C 128.3981 69.512 128.4321 69.634 128.5271 69.689C 128.62311 69.744 128.7451 69.712 128.8001 69.616C 128.8551 69.52 128.8221 69.397 128.7261 69.343C 128.6311 69.287 128.5091 69.32 128.4541 69.416z" stroke="#E7BC9E" stroke-width="0.25" stroke-linecap="round" fill="none" />
    <path id=""  transform="matrix(1 0 0 -1 0 316)"  d="M128.874 69.6895C 128.778 69.7455 128.745 69.8675 128.801 69.9625C 128.855 70.0585 128.978 70.0905 129.07399 70.0365C 129.17 69.9805 129.202 69.8585 129.14699 69.7625C 129.092 69.667496 128.96999 69.6345 128.874 69.6895z" stroke="#E7BC9E" stroke-width="0.25" stroke-linecap="round" fill="none" />
    <path id=""  transform="matrix(1 0 0 -1 0 316)"  d="M129.1006 70.1367C 128.9906 70.1367 128.9006 70.2267 128.9006 70.3367C 128.9006 70.4477 128.9906 70.535706 129.1006 70.535706C 129.2106 70.535706 129.3006 70.4477 129.3006 70.3367C 129.3006 70.2267 129.2106 70.1367 129.1006 70.1367z" stroke="#E7BC9E" stroke-width="0.25" stroke-linecap="round" fill="none" />
    <path id=""  transform="matrix(1 0 0 -1 0 316)"  d="M129.0742 70.6377C 128.97821 70.5817 128.85521 70.6157 128.80121 70.7097C 128.74521 70.8057 128.7782 70.9287 128.8742 70.9837C 128.9702 71.038704 129.09221 71.0057 129.1472 70.909706C 129.20221 70.814705 129.1702 70.6927 129.0742 70.6377z" stroke="#E7BC9E" stroke-width="0.25" stroke-linecap="round" fill="none" />
    <path id=""  transform="matrix(1 0 0 -1 0 316)"  d="M128.7998 71.0576C 128.74481 70.9616 128.6228 70.928604 128.5278 70.984604C 128.43181 71.038605 128.3988 71.1616 128.45381 71.2566C 128.5088 71.3526 128.6308 71.385605 128.7268 71.329605C 128.82181 71.275604 128.8558 71.1536 128.7998 71.0576z" stroke="#E7BC9E" stroke-width="0.25" stroke-linecap="round" fill="none" />
    <path id=""  transform="matrix(1 0 0 -1 0 316)"  d="M132.6436 70.3369C 132.6436 69.9239 132.3086 69.5889 131.8956 69.5889C 131.4836 69.5889 131.1486 69.9239 131.1486 70.3369C 131.1486 70.7499 131.4836 71.0839 131.8956 71.0839C 132.3086 71.0839 132.6436 70.7499 132.6436 70.3369z" stroke="#E7BC9E" stroke-width="0.25" stroke-linecap="round" fill="none" />
    <path id=""  transform="matrix(1 0 0 -1 0 316)"  d="M132.0957 71.2842C 132.0957 71.1742 132.0057 71.084206 131.8957 71.084206C 131.7847 71.084206 131.6967 71.1742 131.6967 71.2842C 131.6967 71.3942 131.7847 71.4842 131.8957 71.4842C 132.0057 71.4842 132.0957 71.3942 132.0957 71.2842z" stroke="#E7BC9E" stroke-width="0.25" stroke-linecap="round" fill="none" />
    <path id=""  transform="matrix(1 0 0 -1 0 316)"  d="M131.5947 71.2568C 131.6507 71.1618 131.6167 71.038795 131.52269 70.984795C 131.4267 70.928795 131.3037 70.9618 131.2487 71.0578C 131.1937 71.1528 131.2267 71.275795 131.3227 71.329796C 131.4177 71.385796 131.5397 71.3528 131.5947 71.2568z" stroke="#E7BC9E" stroke-width="0.25" stroke-linecap="round" fill="none" />
    <path id=""  transform="matrix(1 0 0 -1 0 316)"  d="M131.1748 70.9834C 131.2708 70.9284 131.3038 70.8054 131.2478 70.710396C 131.1938 70.6154 131.0708 70.5824 130.9758 70.6374C 130.8798 70.6924 130.8468 70.8144 130.9028 70.9104C 130.9568 71.0054 131.07881 71.0394 131.1748 70.9834z" stroke="#E7BC9E" stroke-width="0.25" stroke-linecap="round" fill="none" />
    <path id=""  transform="matrix(1 0 0 -1 0 316)"  d="M130.9482 70.5361C 131.0582 70.5361 131.1482 70.447105 131.1482 70.337105C 131.1482 70.226105 131.0582 70.1371 130.9482 70.1371C 130.8382 70.1371 130.7482 70.226105 130.7482 70.337105C 130.7482 70.447105 130.8382 70.5361 130.9482 70.5361z" stroke="#E7BC9E" stroke-width="0.25" stroke-linecap="round" fill="none" />
    <path id=""  transform="matrix(1 0 0 -1 0 316)"  d="M130.9756 70.0361C 131.0716 70.0911 131.1936 70.058105 131.2476 69.963104C 131.3036 69.8671 131.2706 69.7451 131.1746 69.6891C 131.0796 69.6351 130.9566 69.6671 130.9026 69.7631C 130.8466 69.8581 130.87961 69.9801 130.9756 70.0361z" stroke="#E7BC9E" stroke-width="0.25" stroke-linecap="round" fill="none" />
    <path id=""  transform="matrix(1 0 0 -1 0 316)"  d="M131.249 69.6162C 131.30399 69.712204 131.42699 69.7442 131.52199 69.6892C 131.61699 69.6342 131.65 69.51221 131.59499 69.41621C 131.54 69.320206 131.418 69.2872 131.32199 69.3432C 131.22699 69.3972 131.193 69.5202 131.249 69.6162z" stroke="#E7BC9E" stroke-width="0.25" stroke-linecap="round" fill="none" />
    <path id=""  transform="matrix(1 0 0 -1 0 316)"  d="M131.6963 69.3887C 131.6963 69.4987 131.78531 69.5887 131.89531 69.5887C 132.0063 69.5887 132.0953 69.4987 132.0953 69.3887C 132.0953 69.2787 132.0063 69.188705 131.89531 69.188705C 131.78531 69.188705 131.6963 69.2787 131.6963 69.3887z" stroke="#E7BC9E" stroke-width="0.25" stroke-linecap="round" fill="none" />
    <path id=""  transform="matrix(1 0 0 -1 0 316)"  d="M132.1963 69.416C 132.14131 69.512 132.1743 69.634 132.2693 69.689C 132.36531 69.744 132.4873 69.712 132.5433 69.616C 132.5973 69.52 132.5653 69.397 132.4693 69.343C 132.3743 69.287 132.2523 69.32 132.1963 69.416z" stroke="#E7BC9E" stroke-width="0.25" stroke-linecap="round" fill="none" />
    <path id=""  transform="matrix(1 0 0 -1 0 316)"  d="M132.6162 69.6895C 132.5202 69.7455 132.48819 69.8675 132.5432 69.9625C 132.59819 70.0585 132.7202 70.0905 132.8162 70.0365C 132.9122 69.9805 132.94519 69.8585 132.88919 69.7625C 132.83519 69.667496 132.71219 69.6345 132.6162 69.6895z" stroke="#E7BC9E" stroke-width="0.25" stroke-linecap="round" fill="none" />
    <path id=""  transform="matrix(1 0 0 -1 0 316)"  d="M132.8437 70.1367C 132.7337 70.1367 132.6437 70.2267 132.6437 70.3367C 132.6437 70.4477 132.7337 70.535706 132.8437 70.535706C 132.9537 70.535706 133.0437 70.4477 133.0437 70.3367C 133.0437 70.2267 132.9537 70.1367 132.8437 70.1367z" stroke="#E7BC9E" stroke-width="0.25" stroke-linecap="round" fill="none" />
    <path id=""  transform="matrix(1 0 0 -1 0 316)"  d="M132.8164 70.6377C 132.72041 70.5817 132.5984 70.6157 132.54341 70.7097C 132.4884 70.8057 132.5204 70.9287 132.61641 70.9837C 132.7124 71.038704 132.8354 71.0057 132.8894 70.909706C 132.9454 70.814705 132.9124 70.6927 132.8164 70.6377z" stroke="#E7BC9E" stroke-width="0.25" stroke-linecap="round" fill="none" />
    <path id=""  transform="matrix(1 0 0 -1 0 316)"  d="M132.543 71.0576C 132.487 70.9616 132.365 70.928604 132.27 70.984604C 132.174 71.038605 132.142 71.1616 132.196 71.2566C 132.252 71.3526 132.374 71.385605 132.47 71.329605C 132.565 71.275604 132.59799 71.1536 132.543 71.0576z" stroke="#E7BC9E" stroke-width="0.25" stroke-linecap="round" fill="none" />
    <path id=""  transform="matrix(1 0 0 -1 0 316)"  d="M116.1152 100.7715L124.381195 100.7715" stroke="#E7BC9E" stroke-width="0.5" fill="none" />
    <path id=""  transform="matrix(1 0 0 -1 0 316)"  d="M131.9248 100.7715L140.1918 100.7715" stroke="#E7BC9E" stroke-width="0.5" fill="none" />
    <path id=""  transform="matrix(1 0 0 -1 0 316)"  d="M131.4189 102.6572L137.6979 106.2822" stroke="#E7BC9E" stroke-width="0.5" fill="none" />
    <path id=""  transform="matrix(1 0 0 -1 0 316)"  d="M130.0381 104.0381L134.8311 112.3391" stroke="#E7BC9E" stroke-width="0.5" fill="none" />
    <path id=""  transform="matrix(1 0 0 -1 0 316)"  d="M126.2666 104.0381L121.4746 112.3391" stroke="#E7BC9E" stroke-width="0.5" fill="none" />
    <path id=""  transform="matrix(1 0 0 -1 0 316)"  d="M124.8867 102.6572L118.607704 106.2822" stroke="#E7BC9E" stroke-width="0.5" fill="none" />
    <path id=""  transform="matrix(1 0 0 -1 0 316)"  d="M131.9248 100.7715L140.1918 100.7715" stroke="#E7BC9E" stroke-width="0.5" fill="none" />
    <path id=""  transform="matrix(1 0 0 -1 0 316)"  d="M127.2246 104.4277L125.759605 110.19769" stroke="#E7BC9E" stroke-width="0.5" fill="none" />
    <path id=""  transform="matrix(1 0 0 -1 0 316)"  d="M125.5205 103.4736L121.3665 107.7386" stroke="#E7BC9E" stroke-width="0.5" fill="none" />
    <path id=""  transform="matrix(1 0 0 -1 0 316)"  d="M124.5225 101.7949L118.7935 103.411896" stroke="#E7BC9E" stroke-width="0.5" fill="none" />
    <path id=""  transform="matrix(1 0 0 -1 0 316)"  d="M129.1152 104.4277L130.5802 110.19769" stroke="#E7BC9E" stroke-width="0.5" fill="none" />
    <path id=""  transform="matrix(1 0 0 -1 0 316)"  d="M130.8193 103.4736L134.97331 107.7386" stroke="#E7BC9E" stroke-width="0.5" fill="none" />
    <path id=""  transform="matrix(1 0 0 -1 0 316)"  d="M131.8174 101.7949L137.5464 103.411896" stroke="#E7BC9E" stroke-width="0.5" fill="none" />
    <path id=""  transform="matrix(1 0 0 -1 0 316)"  d="M128.1523 140.4375L128.1523 113.8445" stroke="#E7BC9E" stroke-width="0.5" fill="none" />
    <path id=""  transform="matrix(1 0 0 -1 0 316)"  d="M128.0928 111.4883C 128.06981 111.4983 128.0488 111.5093 128.0308 111.520294C 127.7348 111.7073 127.480804 111.9033 127.26681 112.1093C 127.0528 112.31429 126.8888 112.5263 126.7738 112.74329C 126.658806 112.961296 126.60181 113.1803 126.60181 113.4023C 126.60181 113.588295 126.6408 113.7523 126.717804 113.895294C 126.79481 114.0393 126.8998 114.1503 127.03081 114.23129C 127.161804 114.312294 127.31081 114.352295 127.47481 114.352295C 127.62981 114.352295 127.7638 114.31329 127.8768 114.2353C 127.98881 114.157295 128.08081 114.0543 128.1528 113.9263C 128.22481 114.0553 128.31781 114.159294 128.4308 114.2363C 128.5428 114.31329 128.6768 114.352295 128.8298 114.352295C 128.9938 114.352295 129.1428 114.312294 129.27481 114.23129C 129.4068 114.1503 129.51181 114.0393 129.5878 113.895294C 129.66481 113.7523 129.7028 113.588295 129.7028 113.4023C 129.7028 113.1803 129.6458 112.961296 129.5308 112.74329C 129.4158 112.5263 129.2518 112.31429 129.03781 112.1093C 128.8248 111.9033 128.5708 111.7073 128.27481 111.520294C 128.2578 111.5093 128.23781 111.4983 128.2138 111.4883C 128.1898 111.478294 128.1698 111.4733 128.1528 111.4733C 128.1358 111.4733 128.1148 111.478294 128.0928 111.4883z" stroke="#E7BC9E" stroke-width="0.5" fill="none" />
    <path id=""  transform="matrix(1 0 0 -1 0 316)"  d="M123.4102 48.6494L123.4102 47.6324" stroke="#E7BC9E" stroke-width="0.5" stroke-linecap="round" fill="none" />
    <path id=""  transform="matrix(1 0 0 -1 0 316)"  d="M121.7705 47.0098L122.7875 47.0098" stroke="#E7BC9E" stroke-width="0.5" stroke-linecap="round" fill="none" />
    <path id=""  transform="matrix(1 0 0 -1 0 316)"  d="M123.4102 45.3691L123.4102 46.3871" stroke="#E7BC9E" stroke-width="0.5" stroke-linecap="round" fill="none" />
    <path id=""  transform="matrix(1 0 0 -1 0 316)"  d="M125.0508 47.0098L124.0328 47.0098" stroke="#E7BC9E" stroke-width="0.5" stroke-linecap="round" fill="none" />
    <path id=""  transform="matrix(1 0 0 -1 0 316)"  d="M128.1533 43.8926L128.1533 42.8746" stroke="#E7BC9E" stroke-width="0.5" stroke-linecap="round" fill="none" />
    <path id=""  transform="matrix(1 0 0 -1 0 316)"  d="M126.5127 42.252L127.5307 42.252" stroke="#E7BC9E" stroke-width="0.5" stroke-linecap="round" fill="none" />
    <path id=""  transform="matrix(1 0 0 -1 0 316)"  d="M128.1533 40.6123L128.1533 41.6293" stroke="#E7BC9E" stroke-width="0.5" stroke-linecap="round" fill="none" />
    <path id=""  transform="matrix(1 0 0 -1 0 316)"  d="M129.793 42.252L128.776 42.252" stroke="#E7BC9E" stroke-width="0.5" stroke-linecap="round" fill="none" />
    <path id=""  transform="matrix(1 0 0 -1 0 316)"  d="M132.8955 48.6494L132.8955 47.6324" stroke="#E7BC9E" stroke-width="0.5" stroke-linecap="round" fill="none" />
    <path id=""  transform="matrix(1 0 0 -1 0 316)"  d="M131.2559 47.0098L132.27391 47.0098" stroke="#E7BC9E" stroke-width="0.5" stroke-linecap="round" fill="none" />
    <path id=""  transform="matrix(1 0 0 -1 0 316)"  d="M132.8955 45.3691L132.8955 46.3871" stroke="#E7BC9E" stroke-width="0.5" stroke-linecap="round" fill="none" />
    <path id=""  transform="matrix(1 0 0 -1 0 316)"  d="M134.5361 47.0098L133.5181 47.0098" stroke="#E7BC9E" stroke-width="0.5" stroke-linecap="round" fill="none" />
    <path id=""  transform="matrix(1 0 0 -1 0 316)"  d="M134.1709 41.4473C 133.4669 41.4473 132.8959 42.0763 132.8959 42.8523C 132.8959 42.0763 132.3249 41.4473 131.6199 41.4473C 132.3249 41.4473 132.8959 40.8183 132.8959 40.0423C 132.8959 40.8183 133.4669 41.4473 134.1709 41.4473" stroke="none" fill="#E7BC9E" fill-rule="nonzero" />
    <path id=""  transform="matrix(1 0 0 -1 0 316)"  d="M134.1709 41.4473C 133.4669 41.4473 132.8959 42.0763 132.8959 42.8523C 132.8959 42.0763 132.3249 41.4473 131.6199 41.4473C 132.3249 41.4473 132.8959 40.8183 132.8959 40.0423C 132.8959 40.8183 133.4669 41.4473 134.1709 41.4473z" stroke="#E7BC9E" stroke-width="0.25" stroke-linecap="round" fill="none" />
    <path id=""  transform="matrix(1 0 0 -1 0 316)"  d="M129.4287 36.6895C 128.7247 36.6895 128.1537 37.3195 128.1537 38.094498C 128.1537 37.3195 127.581696 36.6895 126.87769 36.6895C 127.581696 36.6895 128.1537 36.060497 128.1537 35.2855C 128.1537 36.060497 128.7247 36.6895 129.4287 36.6895" stroke="none" fill="#E7BC9E" fill-rule="nonzero" />
    <path id=""  transform="matrix(1 0 0 -1 0 316)"  d="M129.4287 36.6895C 128.7247 36.6895 128.1537 37.3195 128.1537 38.094498C 128.1537 37.3195 127.581696 36.6895 126.87769 36.6895C 127.581696 36.6895 128.1537 36.060497 128.1537 35.2855C 128.1537 36.060497 128.7247 36.6895 129.4287 36.6895z" stroke="#E7BC9E" stroke-width="0.25" stroke-linecap="round" fill="none" />
    <path id=""  transform="matrix(1 0 0 -1 0 316)"  d="M124.6856 41.4473C 123.9816 41.4473 123.4106 42.0763 123.4106 42.8523C 123.4106 42.0763 122.8386 41.4473 122.1346 41.4473C 122.8386 41.4473 123.4106 40.8183 123.4106 40.0423C 123.4106 40.8183 123.9816 41.4473 124.6856 41.4473" stroke="none" fill="#E7BC9E" fill-rule="nonzero" />
    <path id=""  transform="matrix(1 0 0 -1 0 316)"  d="M124.6856 41.4473C 123.9816 41.4473 123.4106 42.0763 123.4106 42.8523C 123.4106 42.0763 122.8386 41.4473 122.1346 41.4473C 122.8386 41.4473 123.4106 40.8183 123.4106 40.0423C 123.4106 40.8183 123.9816 41.4473 124.6856 41.4473z" stroke="#E7BC9E" stroke-width="0.25" stroke-linecap="round" fill="none" />
    <path id=""  transform="matrix(1 0 0 -1 0 316)"  d="M128.1533 31.833L128.1533 28.667" stroke="#E7BC9E" stroke-width="0.5" stroke-linecap="round" fill="none" />
    <path id=""  transform="matrix(1 0 0 -1 0 316)"  d="M130.0703 32.001L130.6203 28.883" stroke="#E7BC9E" stroke-width="0.5" stroke-linecap="round" fill="none" />
    <path id=""  transform="matrix(1 0 0 -1 0 316)"  d="M131.9297 32.499L133.0127 29.523" stroke="#E7BC9E" stroke-width="0.5" stroke-linecap="round" fill="none" />
    <path id=""  transform="matrix(1 0 0 -1 0 316)"  d="M133.6738 33.3125L135.25679 30.5705" stroke="#E7BC9E" stroke-width="0.5" stroke-linecap="round" fill="none" />
    <path id=""  transform="matrix(1 0 0 -1 0 316)"  d="M135.251 34.417L137.28601 31.991" stroke="#E7BC9E" stroke-width="0.5" stroke-linecap="round" fill="none" />
    <path id=""  transform="matrix(1 0 0 -1 0 316)"  d="M136.6113 35.7773L139.0373 33.742302" stroke="#E7BC9E" stroke-width="0.5" stroke-linecap="round" fill="none" />
    <path id=""  transform="matrix(1 0 0 -1 0 316)"  d="M137.7158 37.3545L140.45781 35.7705" stroke="#E7BC9E" stroke-width="0.5" stroke-linecap="round" fill="none" />
    <path id=""  transform="matrix(1 0 0 -1 0 316)"  d="M126.2354 32.001L125.685394 28.883" stroke="#E7BC9E" stroke-width="0.5" stroke-linecap="round" fill="none" />
    <path id=""  transform="matrix(1 0 0 -1 0 316)"  d="M124.377 32.499L123.294 29.523" stroke="#E7BC9E" stroke-width="0.5" stroke-linecap="round" fill="none" />
    <path id=""  transform="matrix(1 0 0 -1 0 316)"  d="M122.6319 33.3125L121.0489 30.5705" stroke="#E7BC9E" stroke-width="0.5" stroke-linecap="round" fill="none" />
    <path id=""  transform="matrix(1 0 0 -1 0 316)"  d="M121.0557 34.417L119.0207 31.991" stroke="#E7BC9E" stroke-width="0.5" stroke-linecap="round" fill="none" />
    <path id=""  transform="matrix(1 0 0 -1 0 316)"  d="M119.6944 35.7773L117.268394 33.742302" stroke="#E7BC9E" stroke-width="0.5" stroke-linecap="round" fill="none" />
    <path id=""  transform="matrix(1 0 0 -1 0 316)"  d="M118.5908 37.3545L115.8488 35.7705" stroke="#E7BC9E" stroke-width="0.5" stroke-linecap="round" fill="none" />
    <path id=""  transform="matrix(1 0 0 -1 0 316)"  d="M56.8477 73.957C 53.4297 73.957 50.660698 76.728 50.660698 80.144C 50.660698 87.901 56.8477 93.734 56.8477 93.734C 56.8477 93.734 63.0347 87.901 63.0347 80.144C 63.0347 76.728 60.264698 73.957 56.8477 73.957z" stroke="#E7BC9E" stroke-width="0.5" stroke-linecap="round" fill="none" />
    <path id=""  transform="matrix(1 0 0 -1 0 316)"  d="M56.8477 93.7344L58.2277 89.7764L58.2277 89.7764L59.8527 81.7764L59.8527 81.7764L58.696697 78.057396L58.696697 78.057396L58.696697 75.932396L58.696697 75.932396L59.2347 74.435394" stroke="#E7BC9E" stroke-width="0.25" stroke-linecap="round" fill="none" />
    <path id=""  transform="matrix(1 0 0 -1 0 316)"  d="M59.2988 90.8047L58.227802 89.7767L58.227802 89.7767L56.8478 88.7137L56.8478 88.7137L61.0708 84.0847L61.0708 84.0847L61.1678 87.6687L61.1678 87.6687L58.227802 89.7767" stroke="#E7BC9E" stroke-width="0.25" stroke-linecap="round" fill="none" />
    <path id=""  transform="matrix(1 0 0 -1 0 316)"  d="M62.6914 78.1104L61.0714 78.71439L61.0714 78.71439L59.852398 81.7764L59.852398 81.7764L61.0714 84.085396" stroke="#E7BC9E" stroke-width="0.25" stroke-linecap="round" fill="none" />
    <path id=""  transform="matrix(1 0 0 -1 0 316)"  d="M62.4063 84.4834L61.0713 84.085396L61.0713 84.085396L62.972298 81.4944L62.972298 81.4944L61.0713 78.7134L61.0713 78.7134L61.2733 75.822395L61.2733 75.822395L58.6963 75.932396L58.6963 75.932396L56.847298 77.5884L56.847298 77.5884L58.6963 78.057396L58.6963 78.057396L61.0713 78.7134" stroke="#E7BC9E" stroke-width="0.25" stroke-linecap="round" fill="none" />
    <path id=""  transform="matrix(1 0 0 -1 0 316)"  d="M56.8477 73.957L58.696697 75.933" stroke="#E7BC9E" stroke-width="0.25" stroke-linecap="round" fill="none" />
    <path id=""  transform="matrix(1 0 0 -1 0 316)"  d="M56.8477 93.7344L55.466698 89.7764L55.466698 89.7764L53.841698 81.7764L53.841698 81.7764L54.9977 78.057396L54.9977 78.057396L54.9977 75.932396L54.9977 75.932396L54.459698 74.435394" stroke="#E7BC9E" stroke-width="0.25" stroke-linecap="round" fill="none" />
    <path id=""  transform="matrix(1 0 0 -1 0 316)"  d="M54.3955 90.8047L55.4665 89.7767L55.4665 89.7767L56.8475 88.7137L56.8475 88.7137L52.6235 84.0847L52.6235 84.0847L52.5265 87.6687L52.5265 87.6687L55.4665 89.7767" stroke="#E7BC9E" stroke-width="0.25" stroke-linecap="round" fill="none" />
    <path id=""  transform="matrix(1 0 0 -1 0 316)"  d="M51.0029 78.1104L52.6229 78.71439L52.6229 78.71439L53.8419 81.7764L53.8419 81.7764L52.6229 84.085396" stroke="#E7BC9E" stroke-width="0.25" stroke-linecap="round" fill="none" />
    <path id=""  transform="matrix(1 0 0 -1 0 316)"  d="M51.2881 84.4834L52.6231 84.085396L52.6231 84.085396L50.7221 81.4944L50.7221 81.4944L52.6231 78.7134L52.6231 78.7134L52.4211 75.822395L52.4211 75.822395L54.9981 75.932396L54.9981 75.932396L56.848103 77.5884L56.848103 77.5884L54.9981 78.057396L54.9981 78.057396L52.6231 78.7134" stroke="#E7BC9E" stroke-width="0.25" stroke-linecap="round" fill="none" />
    <path id=""  transform="matrix(1 0 0 -1 0 316)"  d="M56.8477 73.957L54.9977 75.933" stroke="#E7BC9E" stroke-width="0.25" stroke-linecap="round" fill="none" />
    <path id=""  transform="matrix(1 0 0 -1 0 316)"  d="M58.5225 100.6641C 58.5225 99.7381 57.7725 98.9881 56.8475 98.9881C 55.921497 98.9881 55.171497 99.7381 55.171497 100.6641C 55.171497 101.5891 55.921497 102.3401 56.8475 102.3401C 57.7725 102.3401 58.5225 101.5891 58.5225 100.6641z" stroke="#E7BC9E" stroke-width="0.5" stroke-linecap="round" fill="none" />
    <path id=""  transform="matrix(1 0 0 -1 0 316)"  d="M57.2949 102.7871C 57.2949 102.5401 57.0949 102.3401 56.8479 102.3401C 56.5999 102.3401 56.3989 102.5401 56.3989 102.7871C 56.3989 103.0351 56.5999 103.2351 56.8479 103.2351C 57.0949 103.2351 57.2949 103.0351 57.2949 102.7871z" stroke="#E7BC9E" stroke-width="0.3" stroke-linecap="round" fill="none" />
    <path id=""  transform="matrix(1 0 0 -1 0 316)"  d="M56.1738 102.7275C 56.296803 102.512505 56.2238 102.2385 56.0098 102.1155C 55.7948 101.9915 55.5208 102.0645 55.3978 102.2795C 55.2738 102.4935 55.3468 102.7675 55.561802 102.8905C 55.775803 103.0145 56.0498 102.9415 56.1738 102.7275z" stroke="#E7BC9E" stroke-width="0.3" stroke-linecap="round" fill="none" />
    <path id=""  transform="matrix(1 0 0 -1 0 316)"  d="M55.2324 102.1133C 55.4464 101.990295 55.519398 101.71629 55.3964 101.5023C 55.2724 101.2873 54.998398 101.214294 54.784397 101.338295C 54.5694 101.461296 54.4964 101.7353 54.6204 101.950294C 54.7434 102.1643 55.0174 102.2373 55.2324 102.1133z" stroke="#E7BC9E" stroke-width="0.3" stroke-linecap="round" fill="none" />
    <path id=""  transform="matrix(1 0 0 -1 0 316)"  d="M54.7236 101.1123C 54.9706 101.1123 55.1716 100.9113 55.1716 100.6643C 55.1716 100.4163 54.9706 100.21629 54.7236 100.21629C 54.475597 100.21629 54.275597 100.4163 54.275597 100.6643C 54.275597 100.9113 54.475597 101.1123 54.7236 101.1123z" stroke="#E7BC9E" stroke-width="0.3" stroke-linecap="round" fill="none" />
    <path id=""  transform="matrix(1 0 0 -1 0 316)"  d="M54.7842 99.9902C 54.9982 100.1132 55.272198 100.0402 55.3962 99.826195C 55.5192 99.6112 55.446198 99.338196 55.2322 99.214195C 55.0172 99.090195 54.7432 99.16319 54.620197 99.3782C 54.4962 99.59219 54.5692 99.866196 54.7842 99.9902z" stroke="#E7BC9E" stroke-width="0.3" stroke-linecap="round" fill="none" />
    <path id=""  transform="matrix(1 0 0 -1 0 316)"  d="M55.3975 99.0488C 55.5205 99.262794 55.7945 99.3358 56.0095 99.2128C 56.2235 99.0888 56.296497 98.8148 56.1735 98.6008C 56.0495 98.385796 55.775497 98.3128 55.5615 98.4368C 55.3465 98.5608 55.2735 98.8338 55.3975 99.0488z" stroke="#E7BC9E" stroke-width="0.3" stroke-linecap="round" fill="none" />
    <path id=""  transform="matrix(1 0 0 -1 0 316)"  d="M56.3994 98.54C 56.3994 98.787 56.5994 98.988 56.8474 98.988C 57.0944 98.988 57.2954 98.787 57.2954 98.54C 57.2954 98.292 57.0944 98.092 56.8474 98.092C 56.5994 98.092 56.3994 98.292 56.3994 98.54z" stroke="#E7BC9E" stroke-width="0.3" stroke-linecap="round" fill="none" />
    <path id=""  transform="matrix(1 0 0 -1 0 316)"  d="M56.3994 97.0195C 56.3994 97.2675 56.5994 97.4675 56.8474 97.4675C 57.0944 97.4675 57.2954 97.2675 57.2954 97.0195C 57.2954 96.7725 57.0944 96.5715 56.8474 96.5715C 56.5994 96.5715 56.3994 96.7725 56.3994 97.0195z" stroke="#E7BC9E" stroke-width="0.3" stroke-linecap="round" fill="none" />
    <path id=""  transform="matrix(1 0 0 -1 0 316)"  d="M56.3994 95.499C 56.3994 95.747 56.5994 95.947 56.8474 95.947C 57.0944 95.947 57.2954 95.747 57.2954 95.499C 57.2954 95.252 57.0944 95.052 56.8474 95.052C 56.5994 95.052 56.3994 95.252 56.3994 95.499z" stroke="#E7BC9E" stroke-width="0.3" stroke-linecap="round" fill="none" />
    <path id=""  transform="matrix(1 0 0 -1 0 316)"  d="M57.5215 98.6006C 57.3975 98.8146 57.4705 99.0886 57.684498 99.2126C 57.899498 99.3356 58.1735 99.2626 58.2965 99.0486C 58.420498 98.8336 58.3475 98.5606 58.1325 98.4366C 57.9185 98.3126 57.6445 98.385605 57.5215 98.6006z" stroke="#E7BC9E" stroke-width="0.3" stroke-linecap="round" fill="none" />
    <path id=""  transform="matrix(1 0 0 -1 0 316)"  d="M58.4629 99.2139C 58.2479 99.3379 58.1749 99.6109 58.298897 99.8259C 58.421898 100.039894 58.6959 100.1129 58.909897 99.9899C 59.124897 99.8659 59.1979 99.591896 59.0739 99.3779C 58.950897 99.162895 58.6769 99.0899 58.4629 99.2139z" stroke="#E7BC9E" stroke-width="0.3" stroke-linecap="round" fill="none" />
    <path id=""  transform="matrix(1 0 0 -1 0 316)"  d="M58.9707 100.2158C 58.723698 100.2158 58.522697 100.415794 58.522697 100.663795C 58.522697 100.9108 58.723698 101.1118 58.9707 101.1118C 59.2187 101.1118 59.4187 100.9108 59.4187 100.663795C 59.4187 100.415794 59.2187 100.2158 58.9707 100.2158z" stroke="#E7BC9E" stroke-width="0.3" stroke-linecap="round" fill="none" />
    <path id=""  transform="matrix(1 0 0 -1 0 316)"  d="M58.9102 101.3379C 58.696198 101.2139 58.4222 101.286896 58.2992 101.5019C 58.175198 101.7159 58.2482 101.9899 58.4632 102.1129C 58.677197 102.2369 58.9512 102.163895 59.0742 101.9499C 59.198196 101.7349 59.1252 101.4609 58.9102 101.3379z" stroke="#E7BC9E" stroke-width="0.3" stroke-linecap="round" fill="none" />
    <path id=""  transform="matrix(1 0 0 -1 0 316)"  d="M58.2969 102.2793C 58.1739 102.0643 57.899902 101.991295 57.684902 102.115295C 57.4709 102.2383 57.397903 102.5123 57.5219 102.727295C 57.6449 102.9413 57.918903 103.0143 58.1329 102.8903C 58.3479 102.767296 58.420902 102.49329 58.2969 102.2793z" stroke="#E7BC9E" stroke-width="0.3" stroke-linecap="round" fill="none" />
    <path id=""  transform="matrix(1 0 0 -1 0 316)"  d="M51.1416 90.4473C 50.4366 90.4473 49.8666 91.0763 49.8666 91.8523C 49.8666 91.0763 49.2946 90.4473 48.590603 90.4473C 49.2946 90.4473 49.8666 89.818306 49.8666 89.042305C 49.8666 89.818306 50.4366 90.4473 51.1416 90.4473" stroke="none" fill="#E7BC9E" fill-rule="nonzero" />
    <path id=""  transform="matrix(1 0 0 -1 0 316)"  d="M51.1416 90.4473C 50.4366 90.4473 49.8666 91.0763 49.8666 91.8523C 49.8666 91.0763 49.2946 90.4473 48.590603 90.4473C 49.2946 90.4473 49.8666 89.818306 49.8666 89.042305C 49.8666 89.818306 50.4366 90.4473 51.1416 90.4473z" stroke="#E7BC9E" stroke-width="0.25" stroke-linecap="round" fill="none" />
    <path id=""  transform="matrix(1 0 0 -1 0 316)"  d="M65.1045 90.4473C 64.3995 90.4473 63.8285 91.0763 63.8285 91.8523C 63.8285 91.0763 63.2575 90.4473 62.552498 90.4473C 63.2575 90.4473 63.8285 89.818306 63.8285 89.042305C 63.8285 89.818306 64.3995 90.4473 65.1045 90.4473" stroke="none" fill="#E7BC9E" fill-rule="nonzero" />
    <path id=""  transform="matrix(1 0 0 -1 0 316)"  d="M65.1045 90.4473C 64.3995 90.4473 63.8285 91.0763 63.8285 91.8523C 63.8285 91.0763 63.2575 90.4473 62.552498 90.4473C 63.2575 90.4473 63.8285 89.818306 63.8285 89.042305C 63.8285 89.818306 64.3995 90.4473 65.1045 90.4473z" stroke="#E7BC9E" stroke-width="0.25" stroke-linecap="round" fill="none" />
    <path id=""  transform="matrix(1 0 0 -1 0 316)"  d="M60.5899 50.9102L60.5899 67.6062" stroke="#E7BC9E" stroke-width="1" stroke-linecap="round" stroke-dasharray="1.07,2" fill="none" />
    <path id=""  transform="matrix(1 0 0 -1 0 316)"  d="M56.8477 45.8779L56.8477 67.6069" stroke="#E7BC9E" stroke-width="1" stroke-linecap="round" stroke-dasharray="1.07,2" fill="none" />
    <path id=""  transform="matrix(1 0 0 -1 0 316)"  d="M53.1045 50.9102L53.1045 67.6062" stroke="#E7BC9E" stroke-width="1" stroke-linecap="round" stroke-dasharray="1.07,2" fill="none" />
    <path id=""  transform="matrix(1 0 0 -1 0 316)"  d="M53.8526 70.3369C 53.8526 69.9239 53.5176 69.5889 53.1046 69.5889C 52.6916 69.5889 52.3566 69.9239 52.3566 70.3369C 52.3566 70.7499 52.6916 71.0839 53.1046 71.0839C 53.5176 71.0839 53.8526 70.7499 53.8526 70.3369z" stroke="#E7BC9E" stroke-width="0.25" stroke-linecap="round" fill="none" />
    <path id=""  transform="matrix(1 0 0 -1 0 316)"  d="M53.3047 71.2842C 53.3047 71.1742 53.2147 71.084206 53.1047 71.084206C 52.9937 71.084206 52.904697 71.1742 52.904697 71.2842C 52.904697 71.3942 52.9937 71.4842 53.1047 71.4842C 53.2147 71.4842 53.3047 71.3942 53.3047 71.2842z" stroke="#E7BC9E" stroke-width="0.25" stroke-linecap="round" fill="none" />
    <path id=""  transform="matrix(1 0 0 -1 0 316)"  d="M52.8037 71.2568C 52.8597 71.1618 52.8257 71.038795 52.730698 70.984795C 52.6347 70.928795 52.5127 70.9618 52.4567 71.0578C 52.4027 71.1528 52.4347 71.275795 52.5307 71.329796C 52.625698 71.385796 52.7487 71.3528 52.8037 71.2568z" stroke="#E7BC9E" stroke-width="0.25" stroke-linecap="round" fill="none" />
    <path id=""  transform="matrix(1 0 0 -1 0 316)"  d="M52.3838 70.9834C 52.4798 70.9284 52.5118 70.8054 52.456802 70.710396C 52.401802 70.6154 52.2798 70.5824 52.1838 70.6374C 52.0878 70.6924 52.0558 70.8144 52.1108 70.9104C 52.165802 71.0054 52.2878 71.0394 52.3838 70.9834z" stroke="#E7BC9E" stroke-width="0.25" stroke-linecap="round" fill="none" />
    <path id=""  transform="matrix(1 0 0 -1 0 316)"  d="M52.1572 70.5361C 52.2672 70.5361 52.3562 70.447105 52.3562 70.337105C 52.3562 70.226105 52.2672 70.1371 52.1572 70.1371C 52.0462 70.1371 51.9572 70.226105 51.9572 70.337105C 51.9572 70.447105 52.0462 70.5361 52.1572 70.5361z" stroke="#E7BC9E" stroke-width="0.25" stroke-linecap="round" fill="none" />
    <path id=""  transform="matrix(1 0 0 -1 0 316)"  d="M52.1836 70.0361C 52.279602 70.0911 52.4016 70.058105 52.4566 69.963104C 52.5116 69.8671 52.479603 69.7451 52.383602 69.6891C 52.2876 69.6351 52.1656 69.6671 52.1106 69.7631C 52.055603 69.8581 52.0876 69.9801 52.1836 70.0361z" stroke="#E7BC9E" stroke-width="0.25" stroke-linecap="round" fill="none" />
    <path id=""  transform="matrix(1 0 0 -1 0 316)"  d="M52.457 69.6162C 52.513 69.712204 52.635002 69.7442 52.73 69.6892C 52.826 69.6342 52.859 69.51221 52.804 69.41621C 52.749 69.320206 52.626 69.2872 52.530003 69.3432C 52.435 69.3972 52.402 69.5202 52.457 69.6162z" stroke="#E7BC9E" stroke-width="0.25" stroke-linecap="round" fill="none" />
    <path id=""  transform="matrix(1 0 0 -1 0 316)"  d="M52.9043 69.3887C 52.9043 69.4987 52.9943 69.5887 53.1043 69.5887C 53.2153 69.5887 53.304302 69.4987 53.304302 69.3887C 53.304302 69.2787 53.2153 69.188705 53.1043 69.188705C 52.9943 69.188705 52.9043 69.2787 52.9043 69.3887z" stroke="#E7BC9E" stroke-width="0.25" stroke-linecap="round" fill="none" />
    <path id=""  transform="matrix(1 0 0 -1 0 316)"  d="M53.4053 69.416C 53.3493 69.512 53.3833 69.634 53.478302 69.689C 53.5743 69.744 53.6963 69.712 53.7523 69.616C 53.8063 69.52 53.7743 69.397 53.6783 69.343C 53.5833 69.287 53.4603 69.32 53.4053 69.416z" stroke="#E7BC9E" stroke-width="0.25" stroke-linecap="round" fill="none" />
    <path id=""  transform="matrix(1 0 0 -1 0 316)"  d="M53.8252 69.6895C 53.7292 69.7455 53.6972 69.8675 53.752197 69.9625C 53.807198 70.0585 53.9292 70.0905 54.0252 70.0365C 54.1212 69.9805 54.1532 69.8585 54.098198 69.7625C 54.043198 69.667496 53.9212 69.6345 53.8252 69.6895z" stroke="#E7BC9E" stroke-width="0.25" stroke-linecap="round" fill="none" />
    <path id=""  transform="matrix(1 0 0 -1 0 316)"  d="M54.0518 70.1367C 53.9418 70.1367 53.8528 70.2267 53.8528 70.3367C 53.8528 70.4477 53.9418 70.535706 54.0518 70.535706C 54.1618 70.535706 54.2518 70.4477 54.2518 70.3367C 54.2518 70.2267 54.1618 70.1367 54.0518 70.1367z" stroke="#E7BC9E" stroke-width="0.25" stroke-linecap="round" fill="none" />
    <path id=""  transform="matrix(1 0 0 -1 0 316)"  d="M54.0254 70.6377C 53.929398 70.5817 53.8074 70.6157 53.7524 70.7097C 53.6974 70.8057 53.729397 70.9287 53.825397 70.9837C 53.9214 71.038704 54.0434 71.0057 54.0984 70.909706C 54.153397 70.814705 54.1214 70.6927 54.0254 70.6377z" stroke="#E7BC9E" stroke-width="0.25" stroke-linecap="round" fill="none" />
    <path id=""  transform="matrix(1 0 0 -1 0 316)"  d="M53.752 71.0576C 53.696 70.9616 53.573997 70.928604 53.479 70.984604C 53.383 71.038605 53.35 71.1616 53.405 71.2566C 53.46 71.3526 53.583 71.385605 53.678997 71.329605C 53.774 71.275604 53.807 71.1536 53.752 71.0576z" stroke="#E7BC9E" stroke-width="0.25" stroke-linecap="round" fill="none" />
    <path id=""  transform="matrix(1 0 0 -1 0 316)"  d="M57.5947 70.3369C 57.5947 69.9239 57.2597 69.5889 56.8477 69.5889C 56.4347 69.5889 56.0997 69.9239 56.0997 70.3369C 56.0997 70.7499 56.4347 71.0839 56.8477 71.0839C 57.2597 71.0839 57.5947 70.7499 57.5947 70.3369z" stroke="#E7BC9E" stroke-width="0.25" stroke-linecap="round" fill="none" />
    <path id=""  transform="matrix(1 0 0 -1 0 316)"  d="M57.0469 71.2842C 57.0469 71.1742 56.9579 71.084206 56.8479 71.084206C 56.7359 71.084206 56.647903 71.1742 56.647903 71.2842C 56.647903 71.3942 56.7359 71.4842 56.8479 71.4842C 56.9579 71.4842 57.0469 71.3942 57.0469 71.2842z" stroke="#E7BC9E" stroke-width="0.25" stroke-linecap="round" fill="none" />
    <path id=""  transform="matrix(1 0 0 -1 0 316)"  d="M56.5469 71.2568C 56.601902 71.1618 56.5689 71.038795 56.4739 70.984795C 56.377903 70.928795 56.2559 70.9618 56.1999 71.0578C 56.1449 71.1528 56.177902 71.275795 56.273903 71.329796C 56.3689 71.385796 56.490902 71.3528 56.5469 71.2568z" stroke="#E7BC9E" stroke-width="0.25" stroke-linecap="round" fill="none" />
    <path id=""  transform="matrix(1 0 0 -1 0 316)"  d="M56.127 70.9834C 56.222 70.9284 56.254997 70.8054 56.198997 70.710396C 56.145 70.6154 56.023 70.5824 55.927 70.6374C 55.830997 70.6924 55.798 70.8144 55.854 70.9104C 55.907997 71.0054 56.031 71.0394 56.127 70.9834z" stroke="#E7BC9E" stroke-width="0.25" stroke-linecap="round" fill="none" />
    <path id=""  transform="matrix(1 0 0 -1 0 316)"  d="M55.8994 70.5361C 56.0094 70.5361 56.0994 70.447105 56.0994 70.337105C 56.0994 70.226105 56.0094 70.1371 55.8994 70.1371C 55.7894 70.1371 55.699398 70.226105 55.699398 70.337105C 55.699398 70.447105 55.7894 70.5361 55.8994 70.5361z" stroke="#E7BC9E" stroke-width="0.25" stroke-linecap="round" fill="none" />
    <path id=""  transform="matrix(1 0 0 -1 0 316)"  d="M55.9268 70.0361C 56.0228 70.0911 56.1448 70.058105 56.1988 69.963104C 56.2548 69.8671 56.221798 69.7451 56.1268 69.6891C 56.0308 69.6351 55.9078 69.6671 55.853798 69.7631C 55.7978 69.8581 55.8308 69.9801 55.9268 70.0361z" stroke="#E7BC9E" stroke-width="0.25" stroke-linecap="round" fill="none" />
    <path id=""  transform="matrix(1 0 0 -1 0 316)"  d="M56.2002 69.6162C 56.2562 69.712204 56.3782 69.7442 56.473198 69.6892C 56.5692 69.6342 56.6012 69.51221 56.5472 69.41621C 56.4912 69.320206 56.369198 69.2872 56.2732 69.3432C 56.1782 69.3972 56.1442 69.5202 56.2002 69.6162z" stroke="#E7BC9E" stroke-width="0.25" stroke-linecap="round" fill="none" />
    <path id=""  transform="matrix(1 0 0 -1 0 316)"  d="M56.6475 69.3887C 56.6475 69.4987 56.7365 69.5887 56.8475 69.5887C 56.9585 69.5887 57.046497 69.4987 57.046497 69.3887C 57.046497 69.2787 56.9585 69.188705 56.8475 69.188705C 56.7365 69.188705 56.6475 69.2787 56.6475 69.3887z" stroke="#E7BC9E" stroke-width="0.25" stroke-linecap="round" fill="none" />
    <path id=""  transform="matrix(1 0 0 -1 0 316)"  d="M57.1475 69.416C 57.0925 69.512 57.1255 69.634 57.2205 69.689C 57.316498 69.744 57.4395 69.712 57.4945 69.616C 57.5495 69.52 57.5165 69.397 57.420498 69.343C 57.3255 69.287 57.2035 69.32 57.1475 69.416z" stroke="#E7BC9E" stroke-width="0.25" stroke-linecap="round" fill="none" />
    <path id=""  transform="matrix(1 0 0 -1 0 316)"  d="M57.5684 69.6895C 57.4724 69.7455 57.4394 69.8675 57.4954 69.9625C 57.5494 70.0585 57.6724 70.0905 57.767403 70.0365C 57.8634 69.9805 57.8964 69.8585 57.8404 69.7625C 57.7864 69.667496 57.664402 69.6345 57.5684 69.6895z" stroke="#E7BC9E" stroke-width="0.25" stroke-linecap="round" fill="none" />
    <path id=""  transform="matrix(1 0 0 -1 0 316)"  d="M57.7949 70.1367C 57.6849 70.1367 57.5949 70.2267 57.5949 70.3367C 57.5949 70.4477 57.6849 70.535706 57.7949 70.535706C 57.9049 70.535706 57.9949 70.4477 57.9949 70.3367C 57.9949 70.2267 57.9049 70.1367 57.7949 70.1367z" stroke="#E7BC9E" stroke-width="0.25" stroke-linecap="round" fill="none" />
    <path id=""  transform="matrix(1 0 0 -1 0 316)"  d="M57.7676 70.6377C 57.6716 70.5817 57.549603 70.6157 57.4956 70.7097C 57.4396 70.8057 57.472603 70.9287 57.5686 70.9837C 57.6636 71.038704 57.786602 71.0057 57.840603 70.909706C 57.896603 70.814705 57.8636 70.6927 57.7676 70.6377z" stroke="#E7BC9E" stroke-width="0.25" stroke-linecap="round" fill="none" />
    <path id=""  transform="matrix(1 0 0 -1 0 316)"  d="M57.4942 71.0576C 57.4392 70.9616 57.3162 70.928604 57.221203 70.984604C 57.125202 71.038605 57.0932 71.1616 57.1472 71.2566C 57.2032 71.3526 57.325203 71.385605 57.4212 71.329605C 57.5162 71.275604 57.5502 71.1536 57.4942 71.0576z" stroke="#E7BC9E" stroke-width="0.25" stroke-linecap="round" fill="none" />
    <path id=""  transform="matrix(1 0 0 -1 0 316)"  d="M61.3379 70.3369C 61.3379 69.9239 61.0029 69.5889 60.589897 69.5889C 60.1769 69.5889 59.8419 69.9239 59.8419 70.3369C 59.8419 70.7499 60.1769 71.0839 60.589897 71.0839C 61.0029 71.0839 61.3379 70.7499 61.3379 70.3369z" stroke="#E7BC9E" stroke-width="0.25" stroke-linecap="round" fill="none" />
    <path id=""  transform="matrix(1 0 0 -1 0 316)"  d="M60.7901 71.2842C 60.7901 71.1742 60.7001 71.084206 60.5901 71.084206C 60.4791 71.084206 60.3901 71.1742 60.3901 71.2842C 60.3901 71.3942 60.4791 71.4842 60.5901 71.4842C 60.7001 71.4842 60.7901 71.3942 60.7901 71.2842z" stroke="#E7BC9E" stroke-width="0.25" stroke-linecap="round" fill="none" />
    <path id=""  transform="matrix(1 0 0 -1 0 316)"  d="M60.2891 71.2568C 60.3451 71.1618 60.3111 71.038795 60.2161 70.984795C 60.120102 70.928795 59.9981 70.9618 59.9431 71.0578C 59.8881 71.1528 59.9211 71.275795 60.0171 71.329796C 60.1111 71.385796 60.2341 71.3528 60.2891 71.2568z" stroke="#E7BC9E" stroke-width="0.25" stroke-linecap="round" fill="none" />
    <path id=""  transform="matrix(1 0 0 -1 0 316)"  d="M59.8692 70.9834C 59.965202 70.9284 59.998203 70.8054 59.942204 70.710396C 59.887203 70.6154 59.7652 70.5824 59.6692 70.6374C 59.5732 70.6924 59.541203 70.8144 59.596203 70.9104C 59.651203 71.0054 59.7732 71.0394 59.8692 70.9834z" stroke="#E7BC9E" stroke-width="0.25" stroke-linecap="round" fill="none" />
    <path id=""  transform="matrix(1 0 0 -1 0 316)"  d="M59.6426 70.5361C 59.7526 70.5361 59.841602 70.447105 59.841602 70.337105C 59.841602 70.226105 59.7526 70.1371 59.6426 70.1371C 59.5326 70.1371 59.4426 70.226105 59.4426 70.337105C 59.4426 70.447105 59.5326 70.5361 59.6426 70.5361z" stroke="#E7BC9E" stroke-width="0.25" stroke-linecap="round" fill="none" />
    <path id=""  transform="matrix(1 0 0 -1 0 316)"  d="M59.669 70.0361C 59.765 70.0911 59.886997 70.058105 59.941998 69.963104C 59.997997 69.8671 59.965 69.7451 59.869 69.6891C 59.773 69.6351 59.650997 69.6671 59.595997 69.7631C 59.541 69.8581 59.572998 69.9801 59.669 70.0361z" stroke="#E7BC9E" stroke-width="0.25" stroke-linecap="round" fill="none" />
    <path id=""  transform="matrix(1 0 0 -1 0 316)"  d="M59.9434 69.6162C 59.9984 69.712204 60.1204 69.7442 60.2154 69.6892C 60.3114 69.6342 60.344402 69.51221 60.289402 69.41621C 60.2344 69.320206 60.1114 69.2872 60.016403 69.3432C 59.921402 69.3972 59.8874 69.5202 59.9434 69.6162z" stroke="#E7BC9E" stroke-width="0.25" stroke-linecap="round" fill="none" />
    <path id=""  transform="matrix(1 0 0 -1 0 316)"  d="M60.3897 69.3887C 60.3897 69.4987 60.479702 69.5887 60.589703 69.5887C 60.700703 69.5887 60.789703 69.4987 60.789703 69.3887C 60.789703 69.2787 60.700703 69.188705 60.589703 69.188705C 60.479702 69.188705 60.3897 69.2787 60.3897 69.3887z" stroke="#E7BC9E" stroke-width="0.25" stroke-linecap="round" fill="none" />
    <path id=""  transform="matrix(1 0 0 -1 0 316)"  d="M60.8906 69.416C 60.8346 69.512 60.8686 69.634 60.9636 69.689C 61.059597 69.744 61.1816 69.712 61.2376 69.616C 61.2916 69.52 61.259598 69.397 61.163597 69.343C 61.0686 69.287 60.946598 69.32 60.8906 69.416z" stroke="#E7BC9E" stroke-width="0.25" stroke-linecap="round" fill="none" />
    <path id=""  transform="matrix(1 0 0 -1 0 316)"  d="M61.3106 69.6895C 61.2146 69.7455 61.182602 69.8675 61.2376 69.9625C 61.2926 70.0585 61.4146 70.0905 61.5106 70.0365C 61.6066 69.9805 61.6386 69.8585 61.5836 69.7625C 61.5286 69.667496 61.4066 69.6345 61.3106 69.6895z" stroke="#E7BC9E" stroke-width="0.25" stroke-linecap="round" fill="none" />
    <path id=""  transform="matrix(1 0 0 -1 0 316)"  d="M61.5381 70.1367C 61.4271 70.1367 61.3381 70.2267 61.3381 70.3367C 61.3381 70.4477 61.4271 70.535706 61.5381 70.535706C 61.6481 70.535706 61.737103 70.4477 61.737103 70.3367C 61.737103 70.2267 61.6481 70.1367 61.5381 70.1367z" stroke="#E7BC9E" stroke-width="0.25" stroke-linecap="round" fill="none" />
    <path id=""  transform="matrix(1 0 0 -1 0 316)"  d="M61.5108 70.6377C 61.4148 70.5817 61.2928 70.6157 61.2378 70.7097C 61.1828 70.8057 61.214798 70.9287 61.3108 70.9837C 61.4068 71.038704 61.5288 71.0057 61.5838 70.909706C 61.638798 70.814705 61.6068 70.6927 61.5108 70.6377z" stroke="#E7BC9E" stroke-width="0.25" stroke-linecap="round" fill="none" />
    <path id=""  transform="matrix(1 0 0 -1 0 316)"  d="M61.2373 71.0576C 61.1813 70.9616 61.0593 70.928604 60.964302 70.984604C 60.8683 71.038605 60.8353 71.1616 60.8903 71.2566C 60.9463 71.3526 61.068302 71.385605 61.1643 71.329605C 61.2593 71.275604 61.2923 71.1536 61.2373 71.0576z" stroke="#E7BC9E" stroke-width="0.25" stroke-linecap="round" fill="none" />
    <path id=""  transform="matrix(1 0 0 -1 0 316)"  d="M44.8096 100.7715L53.0756 100.7715" stroke="#E7BC9E" stroke-width="0.5" fill="none" />
    <path id=""  transform="matrix(1 0 0 -1 0 316)"  d="M60.6182 100.7715L68.8852 100.7715" stroke="#E7BC9E" stroke-width="0.5" fill="none" />
    <path id=""  transform="matrix(1 0 0 -1 0 316)"  d="M60.1133 102.6572L66.3923 106.2822" stroke="#E7BC9E" stroke-width="0.5" fill="none" />
    <path id=""  transform="matrix(1 0 0 -1 0 316)"  d="M58.7324 104.0381L63.5254 112.3391" stroke="#E7BC9E" stroke-width="0.5" fill="none" />
    <path id=""  transform="matrix(1 0 0 -1 0 316)"  d="M54.961 104.0381L50.169 112.3391" stroke="#E7BC9E" stroke-width="0.5" fill="none" />
    <path id=""  transform="matrix(1 0 0 -1 0 316)"  d="M53.5811 102.6572L47.3021 106.2822" stroke="#E7BC9E" stroke-width="0.5" fill="none" />
    <path id=""  transform="matrix(1 0 0 -1 0 316)"  d="M60.6182 100.7715L68.8852 100.7715" stroke="#E7BC9E" stroke-width="0.5" fill="none" />
    <path id=""  transform="matrix(1 0 0 -1 0 316)"  d="M55.919 104.4277L54.453 110.19769" stroke="#E7BC9E" stroke-width="0.5" fill="none" />
    <path id=""  transform="matrix(1 0 0 -1 0 316)"  d="M54.2149 103.4736L50.0609 107.7386" stroke="#E7BC9E" stroke-width="0.5" fill="none" />
    <path id=""  transform="matrix(1 0 0 -1 0 316)"  d="M53.2168 101.7949L47.4868 103.411896" stroke="#E7BC9E" stroke-width="0.5" fill="none" />
    <path id=""  transform="matrix(1 0 0 -1 0 316)"  d="M57.8096 104.4277L59.2746 110.19769" stroke="#E7BC9E" stroke-width="0.5" fill="none" />
    <path id=""  transform="matrix(1 0 0 -1 0 316)"  d="M59.5127 103.4736L63.6667 107.7386" stroke="#E7BC9E" stroke-width="0.5" fill="none" />
    <path id=""  transform="matrix(1 0 0 -1 0 316)"  d="M60.5117 101.7949L66.2407 103.411896" stroke="#E7BC9E" stroke-width="0.5" fill="none" />
    <path id=""  transform="matrix(1 0 0 -1 0 316)"  d="M56.8467 140.4375L56.8467 113.8445" stroke="#E7BC9E" stroke-width="0.5" fill="none" />
    <path id=""  transform="matrix(1 0 0 -1 0 316)"  d="M56.7861 111.4883C 56.7641 111.4983 56.7431 111.5093 56.7241 111.520294C 56.4291 111.7073 56.1741 111.9033 55.961098 112.1093C 55.747097 112.31429 55.5831 112.5263 55.468098 112.74329C 55.3531 112.961296 55.296097 113.1803 55.296097 113.4023C 55.296097 113.588295 55.3341 113.7523 55.412098 113.895294C 55.489098 114.0393 55.594097 114.1503 55.725098 114.23129C 55.8561 114.312294 56.004097 114.352295 56.169098 114.352295C 56.323097 114.352295 56.4581 114.31329 56.5701 114.2353C 56.683098 114.157295 56.775097 114.0543 56.8471 113.9263C 56.919098 114.0553 57.0121 114.159294 57.1241 114.2363C 57.2371 114.31329 57.371098 114.352295 57.524097 114.352295C 57.6881 114.352295 57.837097 114.312294 57.969097 114.23129C 58.100098 114.1503 58.205097 114.0393 58.282097 113.895294C 58.3591 113.7523 58.3971 113.588295 58.3971 113.4023C 58.3971 113.1803 58.3401 112.961296 58.2241 112.74329C 58.1101 112.5263 57.9461 112.31429 57.732098 112.1093C 57.518097 111.9033 57.2651 111.7073 56.969097 111.520294C 56.9511 111.5093 56.9321 111.4983 56.907097 111.4883C 56.884098 111.478294 56.8631 111.4733 56.8471 111.4733C 56.829098 111.4733 56.809097 111.478294 56.7861 111.4883z" stroke="#E7BC9E" stroke-width="0.5" fill="none" />
    <path id=""  transform="matrix(1 0 0 -1 0 316)"  d="M52.1045 48.6494L52.1045 47.6324" stroke="#E7BC9E" stroke-width="0.5" stroke-linecap="round" fill="none" />
    <path id=""  transform="matrix(1 0 0 -1 0 316)"  d="M50.4649 47.0098L51.4819 47.0098" stroke="#E7BC9E" stroke-width="0.5" stroke-linecap="round" fill="none" />
    <path id=""  transform="matrix(1 0 0 -1 0 316)"  d="M52.1045 45.3691L52.1045 46.3871" stroke="#E7BC9E" stroke-width="0.5" stroke-linecap="round" fill="none" />
    <path id=""  transform="matrix(1 0 0 -1 0 316)"  d="M53.7442 47.0098L52.727203 47.0098" stroke="#E7BC9E" stroke-width="0.5" stroke-linecap="round" fill="none" />
    <path id=""  transform="matrix(1 0 0 -1 0 316)"  d="M56.8477 43.8926L56.8477 42.8746" stroke="#E7BC9E" stroke-width="0.5" stroke-linecap="round" fill="none" />
    <path id=""  transform="matrix(1 0 0 -1 0 316)"  d="M55.207 42.252L56.225002 42.252" stroke="#E7BC9E" stroke-width="0.5" stroke-linecap="round" fill="none" />
    <path id=""  transform="matrix(1 0 0 -1 0 316)"  d="M56.8477 40.6123L56.8477 41.6293" stroke="#E7BC9E" stroke-width="0.5" stroke-linecap="round" fill="none" />
    <path id=""  transform="matrix(1 0 0 -1 0 316)"  d="M58.4873 42.252L57.4693 42.252" stroke="#E7BC9E" stroke-width="0.5" stroke-linecap="round" fill="none" />
    <path id=""  transform="matrix(1 0 0 -1 0 316)"  d="M61.5899 48.6494L61.5899 47.6324" stroke="#E7BC9E" stroke-width="0.5" stroke-linecap="round" fill="none" />
    <path id=""  transform="matrix(1 0 0 -1 0 316)"  d="M59.9502 47.0098L60.967197 47.0098" stroke="#E7BC9E" stroke-width="0.5" stroke-linecap="round" fill="none" />
    <path id=""  transform="matrix(1 0 0 -1 0 316)"  d="M61.5899 45.3691L61.5899 46.3871" stroke="#E7BC9E" stroke-width="0.5" stroke-linecap="round" fill="none" />
    <path id=""  transform="matrix(1 0 0 -1 0 316)"  d="M63.2305 47.0098L62.212498 47.0098" stroke="#E7BC9E" stroke-width="0.5" stroke-linecap="round" fill="none" />
    <path id=""  transform="matrix(1 0 0 -1 0 316)"  d="M62.8652 41.4473C 62.1612 41.4473 61.5902 42.0763 61.5902 42.8523C 61.5902 42.0763 61.0182 41.4473 60.3142 41.4473C 61.0182 41.4473 61.5902 40.8183 61.5902 40.0423C 61.5902 40.8183 62.1612 41.4473 62.8652 41.4473" stroke="none" fill="#E7BC9E" fill-rule="nonzero" />
    <path id=""  transform="matrix(1 0 0 -1 0 316)"  d="M62.8652 41.4473C 62.1612 41.4473 61.5902 42.0763 61.5902 42.8523C 61.5902 42.0763 61.0182 41.4473 60.3142 41.4473C 61.0182 41.4473 61.5902 40.8183 61.5902 40.0423C 61.5902 40.8183 62.1612 41.4473 62.8652 41.4473z" stroke="#E7BC9E" stroke-width="0.25" stroke-linecap="round" fill="none" />
    <path id=""  transform="matrix(1 0 0 -1 0 316)"  d="M58.1231 36.6895C 57.4181 36.6895 56.8481 37.3195 56.8481 38.094498C 56.8481 37.3195 56.2761 36.6895 55.5711 36.6895C 56.2761 36.6895 56.8481 36.060497 56.8481 35.2855C 56.8481 36.060497 57.4181 36.6895 58.1231 36.6895" stroke="none" fill="#E7BC9E" fill-rule="nonzero" />
    <path id=""  transform="matrix(1 0 0 -1 0 316)"  d="M58.1231 36.6895C 57.4181 36.6895 56.8481 37.3195 56.8481 38.094498C 56.8481 37.3195 56.2761 36.6895 55.5711 36.6895C 56.2761 36.6895 56.8481 36.060497 56.8481 35.2855C 56.8481 36.060497 57.4181 36.6895 58.1231 36.6895z" stroke="#E7BC9E" stroke-width="0.25" stroke-linecap="round" fill="none" />
    <path id=""  transform="matrix(1 0 0 -1 0 316)"  d="M53.3799 41.4473C 52.675903 41.4473 52.1049 42.0763 52.1049 42.8523C 52.1049 42.0763 51.5329 41.4473 50.828903 41.4473C 51.5329 41.4473 52.1049 40.8183 52.1049 40.0423C 52.1049 40.8183 52.675903 41.4473 53.3799 41.4473" stroke="none" fill="#E7BC9E" fill-rule="nonzero" />
    <path id=""  transform="matrix(1 0 0 -1 0 316)"  d="M53.3799 41.4473C 52.675903 41.4473 52.1049 42.0763 52.1049 42.8523C 52.1049 42.0763 51.5329 41.4473 50.828903 41.4473C 51.5329 41.4473 52.1049 40.8183 52.1049 40.0423C 52.1049 40.8183 52.675903 41.4473 53.3799 41.4473z" stroke="#E7BC9E" stroke-width="0.25" stroke-linecap="round" fill="none" />
    <path id=""  transform="matrix(1 0 0 -1 0 316)"  d="M56.8477 31.833L56.8477 28.667" stroke="#E7BC9E" stroke-width="0.5" stroke-linecap="round" fill="none" />
    <path id=""  transform="matrix(1 0 0 -1 0 316)"  d="M58.7647 32.001L59.3147 28.883" stroke="#E7BC9E" stroke-width="0.5" stroke-linecap="round" fill="none" />
    <path id=""  transform="matrix(1 0 0 -1 0 316)"  d="M60.624 32.499L61.707 29.523" stroke="#E7BC9E" stroke-width="0.5" stroke-linecap="round" fill="none" />
    <path id=""  transform="matrix(1 0 0 -1 0 316)"  d="M62.3682 33.3125L63.9512 30.5705" stroke="#E7BC9E" stroke-width="0.5" stroke-linecap="round" fill="none" />
    <path id=""  transform="matrix(1 0 0 -1 0 316)"  d="M63.9444 34.417L65.9804 31.991" stroke="#E7BC9E" stroke-width="0.5" stroke-linecap="round" fill="none" />
    <path id=""  transform="matrix(1 0 0 -1 0 316)"  d="M65.3057 35.7773L67.731705 33.742302" stroke="#E7BC9E" stroke-width="0.5" stroke-linecap="round" fill="none" />
    <path id=""  transform="matrix(1 0 0 -1 0 316)"  d="M66.4092 37.3545L69.15221 35.7705" stroke="#E7BC9E" stroke-width="0.5" stroke-linecap="round" fill="none" />
    <path id=""  transform="matrix(1 0 0 -1 0 316)"  d="M54.9297 32.001L54.3797 28.883" stroke="#E7BC9E" stroke-width="0.5" stroke-linecap="round" fill="none" />
    <path id=""  transform="matrix(1 0 0 -1 0 316)"  d="M53.0703 32.499L51.9873 29.523" stroke="#E7BC9E" stroke-width="0.5" stroke-linecap="round" fill="none" />
    <path id=""  transform="matrix(1 0 0 -1 0 316)"  d="M51.3262 33.3125L49.7432 30.5705" stroke="#E7BC9E" stroke-width="0.5" stroke-linecap="round" fill="none" />
    <path id=""  transform="matrix(1 0 0 -1 0 316)"  d="M49.75 34.417L47.714 31.991" stroke="#E7BC9E" stroke-width="0.5" stroke-linecap="round" fill="none" />
    <path id=""  transform="matrix(1 0 0 -1 0 316)"  d="M48.3887 35.7773L45.9627 33.742302" stroke="#E7BC9E" stroke-width="0.5" stroke-linecap="round" fill="none" />
    <path id=""  transform="matrix(1 0 0 -1 0 316)"  d="M47.2852 37.3545L44.5422 35.7705" stroke="#E7BC9E" stroke-width="0.5" stroke-linecap="round" fill="none" />
		</g>
	</g>
</g>
</svg>