<?xml version="1.0" standalone="no"?>
<!DOCTYPE svg PUBLIC "-//W3C//DTD SVG 1.0//EN" "http://www.w3.org/TR/2001/REC-SVG-20010904/DTD/svg10.dtd">
<svg xmlns="http://www.w3.org/2000/svg" xmlns:xlink="http://www.w3.org/1999/xlink" id="body_1" width="247" height="421">

<defs>
    <clipPath  id="1">

    <path id=""  clip-rule="evenodd" transform="matrix(1 0 0 1 0 0)"  d="M0 316L0 0L0 0L185 0L185 0L185 316L185 316L0 316z" />    </clipPath>
    <clipPath  id="2">

    <path id=""  clip-rule="evenodd" transform="matrix(1 0 0 1 0 0)"  d="M0 0L185 0L185 0L185 316L185 316L0 316z" />    </clipPath>
</defs>

<g transform="matrix(1.3333 0 0 1.3333 0 0)">
	<g clip-path="url(#1)" >
		<g clip-path="url(#2)" >
    <path id=""  transform="matrix(1 0 0 -1 0 316)"  d="M59.1593 134.6085L55.1183 135.0065C 54.9943 135.0195 54.874302 135.0565 54.7633 135.11351L54.7633 135.11351L56.6943 137.4675C 56.934303 137.7605 56.8913 137.80351 56.5983 137.5635L56.5983 137.5635L54.2443 135.63051C 54.1873 135.74251 54.150303 135.86351 54.1383 135.98651L54.1383 135.98651L53.740303 140.0285C 53.692303 140.51851 53.6133 140.51851 53.5643 140.0285L53.5643 140.0285L53.1663 135.98651C 53.1543 135.86351 53.117302 135.74251 53.060303 135.63051L53.060303 135.63051L50.706303 137.5635C 50.4133 137.80351 50.3703 137.7605 50.610302 137.4675L50.610302 137.4675L52.5433 135.11351C 52.4303 135.0565 52.310303 135.0195 52.1873 135.0065L52.1873 135.0065L48.1453 134.6085C 47.655304 134.5605 47.655304 134.4815 48.1453 134.4335L48.1453 134.4335L52.186302 134.0355C 52.310303 134.0225 52.4303 133.9855 52.5423 133.92851L52.5423 133.92851L50.610302 131.57451C 50.3703 131.28151 50.4133 131.23851 50.706303 131.4785L50.706303 131.4785L53.060303 133.4115C 53.117302 133.2995 53.1543 133.17851 53.1663 133.05551L53.1663 133.05551L53.5643 129.0135C 53.6133 128.5235 53.691303 128.5235 53.740303 129.0135L53.740303 129.0135L54.1383 133.05551C 54.150303 133.17851 54.1873 133.2995 54.2443 133.4115L54.2443 133.4115L56.5983 131.4785C 56.8913 131.23851 56.934303 131.28151 56.6943 131.57451L56.6943 131.57451L54.7633 133.92851C 54.874302 133.9855 54.9943 134.0225 55.1183 134.0355L55.1183 134.0355L59.1593 134.4335C 59.649303 134.4815 59.649303 134.5605 59.1593 134.6085" stroke="none" fill="#E7BC9E" fill-rule="nonzero" />
    <path id=""  transform="matrix(1 0 0 -1 0 316)"  d="M130.0636 92.5704L126.0216 92.9684C 125.8986 92.9804 125.778595 93.017395 125.666595 93.074394L125.666595 93.074394L127.5986 95.4284C 127.8386 95.7214 127.7956 95.7644 127.5026 95.5244L127.5026 95.5244L125.1486 93.5914C 125.0916 93.7044 125.054596 93.824394 125.0426 93.947395L125.0426 93.947395L124.6446 97.989395C 124.5956 98.47939 124.5166 98.47939 124.4686 97.989395L124.4686 97.989395L124.0706 93.947395C 124.0586 93.824394 124.0206 93.7044 123.9646 93.5914L123.9646 93.5914L121.610596 95.5244C 121.3176 95.7644 121.2746 95.7214 121.5146 95.4284L121.5146 95.4284L123.4466 93.074394C 123.334595 93.017395 123.2146 92.9804 123.0906 92.9684L123.0906 92.9684L119.0496 92.5704C 118.5596 92.52139 118.5596 92.4424 119.0496 92.394394L119.0496 92.394394L123.0906 91.9964C 123.2146 91.9844 123.334595 91.946396 123.4466 91.890396L123.4466 91.890396L121.5146 89.5364C 121.2736 89.24339 121.3166 89.20039 121.6096 89.4404L121.6096 89.4404L123.9646 91.3724C 124.0206 91.2604 124.0576 91.140396 124.0706 91.016396L124.0706 91.016396L124.4686 86.975395C 124.5166 86.4854 124.5956 86.4854 124.6446 86.975395L124.6446 86.975395L125.0426 91.016396C 125.054596 91.140396 125.0916 91.2604 125.1486 91.3724L125.1486 91.3724L127.5026 89.4404C 127.7956 89.20039 127.8386 89.24339 127.5986 89.5364L127.5986 89.5364L125.666595 91.890396C 125.778595 91.946396 125.8986 91.9844 126.0216 91.9964L126.0216 91.9964L130.0636 92.394394C 130.5536 92.4424 130.5536 92.52139 130.0636 92.5704" stroke="none" fill="#E7BC9E" fill-rule="nonzero" />
    <path id=""  transform="matrix(1 0 0 -1 0 316)"  d="M64.4484 119.8497L62.475403 120.0437C 62.4154 120.0497 62.356403 120.0677 62.302402 120.0957L62.302402 120.0957L63.245403 121.245705C 63.362404 121.3877 63.342403 121.4097 63.198402 121.2917L63.198402 121.2917L62.049404 120.3487C 62.0214 120.4027 62.004402 120.4617 61.9984 120.5217L61.9984 120.5217L61.802402 122.4957C 61.779404 122.7347 61.7414 122.7347 61.718403 122.4957L61.718403 122.4957L61.523403 120.5217C 61.516403 120.4617 61.4994 120.4027 61.4714 120.3487L61.4714 120.3487L60.322403 121.2917C 60.178402 121.4097 60.1584 121.3877 60.275402 121.245705L60.275402 121.245705L61.219402 120.0957C 61.164402 120.0677 61.105404 120.0497 61.045403 120.0437L61.045403 120.0437L59.072403 119.8497C 58.833405 119.8267 58.833405 119.787704 59.072403 119.7637L59.072403 119.7637L61.045403 119.5697C 61.105404 119.5637 61.164402 119.5447 61.219402 119.5177L61.219402 119.5177L60.275402 118.3687C 60.1584 118.2247 60.178402 118.2037 60.322403 118.3217L60.322403 118.3217L61.4714 119.2647C 61.4994 119.2097 61.516403 119.1517 61.523403 119.0907L61.523403 119.0907L61.718403 117.1187C 61.7414 116.8787 61.779404 116.8787 61.802402 117.1187L61.802402 117.1187L61.997402 119.0907C 62.004402 119.1517 62.0214 119.2097 62.049404 119.2647L62.049404 119.2647L63.198402 118.3217C 63.342403 118.2037 63.362404 118.2247 63.245403 118.3687L63.245403 118.3687L62.302402 119.5177C 62.356403 119.5447 62.4154 119.5637 62.475403 119.5697L62.475403 119.5697L64.4484 119.7637C 64.6874 119.787704 64.6874 119.8267 64.4484 119.8497" stroke="none" fill="#E7BC9E" fill-rule="nonzero" />
    <path id=""  transform="matrix(1 0 0 -1 0 316)"  d="M62.5812 56.0118L60.6072 56.2058C 60.5482 56.2118 60.4892 56.229797 60.4352 56.257797L60.4352 56.257797L61.3782 57.4078C 61.4952 57.549797 61.4742 57.5718 61.3312 57.4538L61.3312 57.4538L60.1822 56.5108C 60.154198 56.5648 60.1362 56.6238 60.1302 56.6838L60.1302 56.6838L59.9352 58.6578C 59.9122 58.896797 59.8732 58.896797 59.8502 58.6578L59.8502 58.6578L59.6552 56.6838C 59.6492 56.6238 59.6312 56.5648 59.6032 56.5108L59.6032 56.5108L58.4542 57.4538C 58.3112 57.5718 58.2902 57.549797 58.4072 57.4078L58.4072 57.4078L59.3512 56.257797C 59.2962 56.229797 59.237198 56.2118 59.1772 56.2058L59.1772 56.2058L57.2042 56.0118C 56.9652 55.9888 56.9652 55.9498 57.2042 55.9258L57.2042 55.9258L59.1772 55.7318C 59.237198 55.7258 59.2962 55.7068 59.3512 55.6798L59.3512 55.6798L58.4072 54.5308C 58.2902 54.3868 58.3102 54.3658 58.4542 54.4838L58.4542 54.4838L59.6032 55.4268C 59.6312 55.3718 59.6492 55.313797 59.6552 55.2528L59.6552 55.2528L59.8502 53.2808C 59.8732 53.0408 59.9122 53.0408 59.9352 53.2808L59.9352 53.2808L60.1302 55.2528C 60.1362 55.313797 60.154198 55.3718 60.1822 55.4268L60.1822 55.4268L61.3312 54.4838C 61.4742 54.3658 61.4952 54.3868 61.3782 54.5308L61.3782 54.5308L60.4352 55.6798C 60.4892 55.7068 60.5482 55.7258 60.6072 55.7318L60.6072 55.7318L62.5812 55.9258C 62.820198 55.9498 62.820198 55.9888 62.5812 56.0118" stroke="none" fill="#E7BC9E" fill-rule="nonzero" />
    <path id=""  transform="matrix(1 0 0 -1 0 316)"  d="M139.0743 101.422L137.10129 101.616C 137.04129 101.621994 136.9823 101.641 136.9283 101.668L136.9283 101.668L137.87129 102.818C 137.9883 102.961 137.96829 102.981995 137.8243 102.864L137.8243 102.864L136.6753 101.921C 136.6473 101.976 136.6303 102.034 136.62329 102.09499L136.62329 102.09499L136.4283 104.06799C 136.40529 104.307 136.3673 104.307 136.3443 104.06799L136.3443 104.06799L136.1483 102.09499C 136.14229 102.034 136.12529 101.976 136.09729 101.921L136.09729 101.921L134.9473 102.864C 134.80429 102.981995 134.7843 102.961 134.90129 102.818L134.90129 102.818L135.84529 101.668C 135.7903 101.641 135.7313 101.621994 135.6713 101.616L135.6713 101.616L133.69829 101.422C 133.4583 101.398994 133.4583 101.36 133.69829 101.336L133.69829 101.336L135.6713 101.142C 135.7313 101.135994 135.7903 101.117 135.84529 101.09L135.84529 101.09L134.90129 99.940994C 134.7843 99.798 134.80429 99.77599 134.9473 99.894L134.9473 99.894L136.0963 100.837C 136.12529 100.782 136.14229 100.724 136.1483 100.663994L136.1483 100.663994L136.34329 98.690994C 136.3673 98.451 136.40529 98.451 136.4283 98.690994L136.4283 98.690994L136.62329 100.663994C 136.62929 100.724 136.6473 100.782 136.6753 100.837L136.6753 100.837L137.8243 99.894C 137.96829 99.77599 137.9883 99.798 137.87129 99.940994L137.87129 99.940994L136.9283 101.09C 136.9823 101.117 137.04129 101.135994 137.10129 101.142L137.10129 101.142L139.0743 101.336C 139.3133 101.36 139.3133 101.398994 139.0743 101.422" stroke="none" fill="#E7BC9E" fill-rule="nonzero" />
    <path id=""  transform="matrix(1 0 0 -1 0 316)"  d="M54.9943 99.962L54.005302 100.06C 53.9743 100.062996 53.9443 100.071 53.9173 100.086L53.9173 100.086L54.3903 100.661995C 54.449303 100.733 54.4383 100.743996 54.367302 100.686L54.367302 100.686L53.7913 100.213C 53.776302 100.24 53.7673 100.27 53.7653 100.299995L53.7653 100.299995L53.6673 101.289C 53.6553 101.409 53.6363 101.409 53.624302 101.289L53.624302 101.289L53.526302 100.299995C 53.5233 100.27 53.5153 100.24 53.5013 100.213L53.5013 100.213L52.9243 100.686C 52.852303 100.743996 52.8423 100.733 52.9003 100.661995L52.9003 100.661995L53.374302 100.086C 53.3473 100.071 53.3173 100.062996 53.2873 100.06L53.2873 100.06L52.297302 99.962C 52.1773 99.95 52.1773 99.931 52.297302 99.919L52.297302 99.919L53.2873 99.821C 53.3173 99.818 53.3473 99.81 53.374302 99.796L53.374302 99.796L52.9003 99.219C 52.8423 99.147995 52.852303 99.137 52.9243 99.195L52.9243 99.195L53.5013 99.669C 53.5153 99.642 53.5233 99.612 53.526302 99.582L53.526302 99.582L53.624302 98.591995C 53.6363 98.473 53.6553 98.473 53.6673 98.591995L53.6673 98.591995L53.7653 99.582C 53.7673 99.612 53.776302 99.642 53.790302 99.669L53.790302 99.669L54.367302 99.195C 54.4383 99.137 54.449303 99.147995 54.3903 99.219L54.3903 99.219L53.9173 99.796C 53.9443 99.81 53.9743 99.818 54.0043 99.821L54.0043 99.821L54.9943 99.919C 55.1143 99.931 55.1143 99.95 54.9943 99.962" stroke="none" fill="#E7BC9E" fill-rule="nonzero" />
    <path id=""  transform="matrix(1 0 0 -1 0 316)"  d="M125.9044 122.3126L124.915405 122.4096C 124.88441 122.4126 124.8554 122.4216 124.82841 122.4356L124.82841 122.4356L125.30041 123.0116C 125.360405 123.0836 125.3494 123.0946 125.278404 123.0356L125.278404 123.0356L124.7014 122.5626C 124.6874 122.5896 124.678406 122.6196 124.67541 122.6496L124.67541 122.6496L124.57841 123.638596C 124.56641 123.7586 124.5474 123.7586 124.5354 123.638596L124.5354 123.638596L124.4374 122.6496C 124.4344 122.6196 124.42541 122.5896 124.41141 122.5626L124.41141 122.5626L123.8354 123.0356C 123.763405 123.0946 123.7534 123.0836 123.8114 123.0116L123.8114 123.0116L124.2844 122.4356C 124.2574 122.4216 124.2274 122.4126 124.1974 122.4096L124.1974 122.4096L123.208405 122.3126C 123.0884 122.2996 123.0884 122.2816 123.208405 122.2696L123.208405 122.2696L124.1974 122.1716C 124.2274 122.1686 124.2574 122.1596 124.2844 122.1456L124.2844 122.1456L123.8114 121.5696C 123.7534 121.4976 123.762405 121.4876 123.8354 121.5456L123.8354 121.5456L124.41141 122.0186C 124.42541 121.9916 124.4344 121.9616 124.4374 121.9316L124.4374 121.9316L124.5354 120.9426C 124.5474 120.8226 124.56641 120.8226 124.57841 120.9426L124.57841 120.9426L124.67541 121.9316C 124.678406 121.9616 124.6874 121.9916 124.7014 122.0186L124.7014 122.0186L125.277405 121.5456C 125.3494 121.4876 125.360405 121.4976 125.30041 121.5696L125.30041 121.5696L124.82841 122.1456C 124.8554 122.1596 124.88441 122.1686 124.915405 122.1716L124.915405 122.1716L125.9044 122.2696C 126.02441 122.2816 126.02441 122.2996 125.9044 122.3126" stroke="none" fill="#E7BC9E" fill-rule="nonzero" />
    <path id=""  transform="matrix(1 0 0 -1 0 316)"  d="M54.9943 38.2286L54.005302 38.3256C 53.9743 38.328598 53.9443 38.3376 53.9173 38.3516L53.9173 38.3516L54.3903 38.9276C 54.449303 38.9996 54.4383 39.009598 54.367302 38.9516L54.367302 38.9516L53.7913 38.4786C 53.776302 38.5056 53.7673 38.5356 53.7653 38.5656L53.7653 38.5656L53.6673 39.5546C 53.6553 39.6746 53.6363 39.6746 53.624302 39.5546L53.624302 39.5546L53.526302 38.5656C 53.5233 38.5356 53.5153 38.5056 53.5013 38.4786L53.5013 38.4786L52.9243 38.9516C 52.852303 39.009598 52.8423 38.9996 52.9003 38.9276L52.9003 38.9276L53.374302 38.3516C 53.3473 38.3376 53.3173 38.328598 53.2873 38.3256L53.2873 38.3256L52.297302 38.2286C 52.1773 38.2156 52.1773 38.1976 52.297302 38.1846L52.297302 38.1846L53.2873 38.0876C 53.3173 38.0846 53.3473 38.0756 53.374302 38.0616L53.374302 38.0616L52.9003 37.4856C 52.8423 37.4136 52.852303 37.4026 52.9243 37.4616L52.9243 37.4616L53.5013 37.9346C 53.5153 37.9076 53.5233 37.877598 53.526302 37.8476L53.526302 37.8476L53.624302 36.8586C 53.6363 36.738598 53.6553 36.738598 53.6673 36.8586L53.6673 36.8586L53.7653 37.8476C 53.7673 37.877598 53.776302 37.9076 53.790302 37.9346L53.790302 37.9346L54.367302 37.4616C 54.4383 37.4026 54.449303 37.4136 54.3903 37.4856L54.3903 37.4856L53.9173 38.0616C 53.9443 38.0756 53.9743 38.0846 54.0043 38.0876L54.0043 38.0876L54.9943 38.1846C 55.1143 38.1976 55.1143 38.2156 54.9943 38.2286" stroke="none" fill="#E7BC9E" fill-rule="nonzero" />
    <path id=""  transform="matrix(1 0 0 -1 0 316)"  d="M67.4152 22.9474L66.4262 23.045399C 66.3952 23.048399 66.3652 23.0574 66.338196 23.0714L66.338196 23.0714L66.8112 23.6474C 66.8702 23.7184 66.8592 23.729399 66.7882 23.671398L66.7882 23.671398L66.2122 23.198399C 66.1972 23.225399 66.1882 23.2554 66.1862 23.285398L66.1862 23.285398L66.088196 24.274399C 66.0762 24.3944 66.0572 24.3944 66.0452 24.274399L66.0452 24.274399L65.9472 23.285398C 65.9442 23.2554 65.9362 23.225399 65.922195 23.198399L65.922195 23.198399L65.3452 23.671398C 65.2732 23.729399 65.2632 23.7184 65.3212 23.6474L65.3212 23.6474L65.7952 23.0714C 65.768196 23.0574 65.7382 23.048399 65.7082 23.045399L65.7082 23.045399L64.7182 22.9474C 64.5982 22.9354 64.5982 22.916399 64.7182 22.9044L64.7182 22.9044L65.7082 22.806398C 65.7382 22.8034 65.768196 22.795399 65.7952 22.781399L65.7952 22.781399L65.3212 22.2044C 65.2632 22.1334 65.2732 22.122398 65.3452 22.181398L65.3452 22.181398L65.922195 22.6544C 65.9362 22.6274 65.9442 22.597399 65.9472 22.5674L65.9472 22.5674L66.0452 21.5784C 66.0572 21.458399 66.0762 21.458399 66.088196 21.5784L66.088196 21.5784L66.1862 22.5674C 66.1882 22.597399 66.1972 22.6274 66.2122 22.6544L66.2122 22.6544L66.7882 22.181398C 66.8592 22.122398 66.8702 22.1334 66.8112 22.2044L66.8112 22.2044L66.338196 22.781399C 66.3652 22.795399 66.3952 22.8034 66.4262 22.806398L66.4262 22.806398L67.4152 22.9044C 67.5352 22.916399 67.5352 22.9354 67.4152 22.9474" stroke="none" fill="#E7BC9E" fill-rule="nonzero" />
    <path id=""  transform="matrix(1 0 0 -1 0 316)"  d="M128.9044 40.7491L127.915405 40.8471C 127.88441 40.8501 127.8554 40.8581 127.82841 40.8721L127.82841 40.8721L128.3004 41.4481C 128.3604 41.5201 128.34941 41.5311 128.2784 41.4721L128.2784 41.4721L127.7014 40.9991C 127.6874 41.0261 127.678406 41.0561 127.67541 41.0861L127.67541 41.0861L127.57841 42.0751C 127.56641 42.1951 127.5474 42.1951 127.5354 42.0751L127.5354 42.0751L127.4374 41.0861C 127.4344 41.0561 127.42541 41.0261 127.41141 40.9991L127.41141 40.9991L126.8354 41.4721C 126.763405 41.5311 126.7534 41.5201 126.8114 41.4481L126.8114 41.4481L127.2844 40.8721C 127.2574 40.8581 127.2274 40.8501 127.1974 40.8471L127.1974 40.8471L126.208405 40.7491C 126.0884 40.7371 126.0884 40.7181 126.208405 40.7061L126.208405 40.7061L127.1974 40.6081C 127.2274 40.6051 127.2574 40.5961 127.2844 40.5821L127.2844 40.5821L126.8114 40.0061C 126.7534 39.9341 126.762405 39.9241 126.8354 39.9821L126.8354 39.9821L127.41141 40.4551C 127.42541 40.4281 127.4344 40.398098 127.4374 40.3681L127.4374 40.3681L127.5354 39.3791C 127.5474 39.259098 127.56641 39.259098 127.57841 39.3791L127.57841 39.3791L127.67541 40.3681C 127.678406 40.398098 127.6874 40.4281 127.7014 40.4551L127.7014 40.4551L128.2774 39.9821C 128.34941 39.9241 128.3604 39.9341 128.3004 40.0061L128.3004 40.0061L127.82841 40.5821C 127.8554 40.5961 127.88441 40.6051 127.915405 40.6081L127.915405 40.6081L128.9044 40.7061C 129.0244 40.7181 129.0244 40.7371 128.9044 40.7491" stroke="none" fill="#E7BC9E" fill-rule="nonzero" />
    <path id=""  transform="matrix(1 0 0 -1 0 316)"  d="M136.2072 35.4923L134.2332 35.6863C 134.1742 35.6923 134.1142 35.7113 134.0612 35.738297L134.0612 35.738297L135.0032 36.888298C 135.1212 37.0313 135.1002 37.0523 134.9572 36.9343L134.9572 36.9343L133.8082 35.9913C 133.7792 36.0463 133.76219 36.104298 133.7562 36.1653L133.7562 36.1653L133.5612 38.138298C 133.5372 38.377296 133.4992 38.377296 133.4762 38.138298L133.4762 38.138298L133.2812 36.1653C 133.27519 36.104298 133.2572 36.0463 133.2292 35.9913L133.2292 35.9913L132.0802 36.9343C 131.9362 37.0523 131.9162 37.0313 132.0332 36.888298L132.0332 36.888298L132.9772 35.738297C 132.9222 35.7113 132.8632 35.6923 132.80319 35.6863L132.80319 35.6863L130.8302 35.4923C 130.5912 35.4693 130.5912 35.430298 130.8302 35.4063L130.8302 35.4063L132.80319 35.2123C 132.8632 35.2063 132.9222 35.188297 132.9772 35.160297L132.9772 35.160297L132.0332 34.0113C 131.9162 33.868298 131.9362 33.8463 132.0802 33.965298L132.0802 33.965298L133.2292 34.9073C 133.2572 34.8533 133.27519 34.7953 133.2812 34.7343L133.2812 34.7343L133.4762 32.7613C 133.4992 32.521297 133.5372 32.521297 133.5612 32.7613L133.5612 32.7613L133.7562 34.7343C 133.76219 34.7953 133.7792 34.8533 133.8082 34.9073L133.8082 34.9073L134.9572 33.965298C 135.1002 33.8463 135.1212 33.868298 135.0032 34.0113L135.0032 34.0113L134.0612 35.160297C 134.1142 35.188297 134.1742 35.2063 134.2332 35.2123L134.2332 35.2123L136.2072 35.4063C 136.4462 35.430298 136.4462 35.4693 136.2072 35.4923" stroke="none" fill="#E7BC9E" fill-rule="nonzero" />
		</g>
	</g>
</g>
</svg>