<?xml version="1.0" standalone="no"?>
<!DOCTYPE svg PUBLIC "-//W3C//DTD SVG 1.0//EN" "http://www.w3.org/TR/2001/REC-SVG-20010904/DTD/svg10.dtd">
<svg xmlns="http://www.w3.org/2000/svg" xmlns:xlink="http://www.w3.org/1999/xlink" id="body_2" width="247" height="421">

<defs>
    <clipPath  id="1">

    <path id=""  clip-rule="evenodd" transform="matrix(1 0 0 1 0 0)"  d="M0 316L0 0L0 0L185 0L185 0L185 316L185 316L0 316z" />    </clipPath>
    <clipPath  id="2">

    <path id=""  clip-rule="evenodd" transform="matrix(1 0 0 1 0 0)"  d="M0 0L185 0L185 0L185 316L185 316L0 316z" />    </clipPath>
    <clipPath  id="3">

    <path id=""  clip-rule="evenodd" transform="matrix(1 0 0 1 0 0)"  d="M56.5583 195.104L61.282 195.104L61.282 195.104L61.282 200.315L61.282 200.315L56.5583 200.315z" />    </clipPath>
    <clipPath  id="4">

    <path id=""  clip-rule="evenodd" transform="matrix(1 0 0 1 0 0)"  d="M120.651 202.731L125.374 202.731L125.374 202.731L125.374 207.942L125.374 207.942L120.651 207.942z" />    </clipPath>
    <clipPath  id="5">

    <path id=""  clip-rule="evenodd" transform="matrix(1 0 0 1 0 0)"  d="M118.312 293.8038L119.651 293.8038L119.651 293.8038L119.651 295.142L119.651 295.142L118.312 295.142z" />    </clipPath>
    <clipPath  id="6">

    <path id=""  clip-rule="evenodd" transform="matrix(1 0 0 1 0 0)"  d="M56.5843 297.8802L57.9225 297.8802L57.9225 297.8802L57.9225 299.21838L57.9225 299.21838L56.5843 299.21838z" />    </clipPath>
</defs>

<g transform="matrix(1.3333 0 0 1.3333 0 0)">
	<g clip-path="url(#1)" >
		<g clip-path="url(#2)" >
    <path id=""  transform="matrix(1 0 0 -1 0 316)"  d="M59.9503 133.1974C 59.5953 133.0584 59.1933 133.2344 59.0543 133.59041C 58.9153 133.9454 59.091297 134.3454 59.446297 134.4854C 59.8023 134.6244 60.203297 134.4494 60.342297 134.0934C 60.481297 133.7374 60.305298 133.3374 59.9503 133.1974" stroke="none" fill="#E7BC9E" fill-rule="nonzero" />
    <path id=""  transform="matrix(1 0 0 -1 0 316)"  d="M57.8907 135.5333C 57.3367 135.3163 56.7127 135.5903 56.4957 136.1433C 56.2797 136.6973 56.5527 137.3223 57.1067 137.5383C 57.6607 137.7553 58.2857 137.4813 58.5007 136.9283C 58.7177 136.3743 58.444702 135.75029 57.8907 135.5333" stroke="none" fill="#E7BC9E" fill-rule="nonzero" />
    <path id=""  transform="matrix(1 0 0 -1 0 316)"  d="M56.9825 130.881C 56.428497 130.664 55.803497 130.938 55.587498 131.491C 55.3715 132.045 55.644497 132.66899 56.198498 132.886C 56.7525 133.103 57.3765 132.829 57.5925 132.276C 57.809498 131.722 57.5365 131.09799 56.9825 130.881" stroke="none" fill="#E7BC9E" fill-rule="nonzero" />
    <path id=""  transform="matrix(1 0 0 -1 0 316)"  d="M59.6984 133.6056C 59.679398 133.6056 59.6614 133.60661 59.6424 133.6116L59.6424 133.6116L54.7744 134.80461L54.7744 134.80461L54.728397 134.8486L54.728397 134.8486L52.0934 137.39961C 51.999397 137.4906 51.9974 137.64061 52.0874 137.7346C 52.1784 137.82861 52.3294 137.8296 52.422398 137.73961L52.422398 137.73961L55.0114 135.23361L55.0114 135.23361L59.755398 134.07161C 59.882397 134.0406 59.9594 133.91261 59.9284 133.7856C 59.901398 133.6766 59.804398 133.6056 59.6984 133.6056" stroke="none" fill="#E7BC9E" fill-rule="nonzero" />
    <path id=""  transform="matrix(1 0 0 -1 0 316)"  d="M54.6095 135.1515L54.4365 135.5915L54.4365 135.5915L57.4135 136.75551L57.4135 136.75551L57.585503 136.3155z" stroke="none" fill="#E7BC9E" fill-rule="nonzero" />
    <path id=""  transform="matrix(1 0 0 -1 0 316)"  d="M56.3536 131.8663L56.1536 134.6363L56.1536 134.6363L56.6256 134.6703L56.6256 134.6703L56.8266 131.9003z" stroke="none" fill="#E7BC9E" fill-rule="nonzero" />
			<g>
				<g clip-path="url(#3)" >
    <path id=""  transform="matrix(1 0 0 -1 0 316)"  d="M56.9611 116.6671C 57.2111 116.6391 57.437103 116.8171 57.466103 117.0671C 57.494102 117.3161 57.3151 117.5431 57.0651 117.5711C 56.8161 117.6011 56.590103 117.4221 56.562103 117.1721C 56.5321 116.9221 56.7111 116.6961 56.9611 116.6671" stroke="none" fill="#E7BC9E" fill-rule="nonzero" fill-opacity="0.29803923" />
    <path id=""  transform="matrix(1 0 0 -1 0 316)"  d="M57.881 118.5001C 58.27 118.4541 58.621002 118.7331 58.666 119.1221C 58.711002 119.5111 58.433 119.8621 58.044 119.9071C 57.655 119.9531 57.303 119.6741 57.258 119.2851C 57.213 118.8961 57.491 118.5451 57.881 118.5001" stroke="none" fill="#E7BC9E" fill-rule="nonzero" fill-opacity="0.29803923" />
    <path id=""  transform="matrix(1 0 0 -1 0 316)"  d="M59.2394 115.6896C 59.6284 115.6446 59.9794 115.9226 60.0244 116.3116C 60.0694 116.7016 59.791397 117.0526 59.402397 117.097595C 59.013397 117.1426 58.6614 116.8646 58.616398 116.4756C 58.5714 116.0856 58.8494 115.7346 59.2394 115.6896" stroke="none" fill="#E7BC9E" fill-rule="nonzero" fill-opacity="0.29803923" />
    <path id=""  transform="matrix(1 0 0 -1 0 316)"  d="M57.0529 116.9689C 57.0649 116.9719 57.075897 116.976906 57.0879 116.9829L57.0879 116.9829L59.9869 118.5579L59.9869 118.5579L60.0089 118.5939L60.0089 118.5939L61.2599 120.658905C 61.303898 120.7339 61.2809 120.8289 61.206898 120.8729C 61.132896 120.9179 61.0369 120.893906 60.992897 120.8219L60.992897 120.8219L59.7649 118.7909L59.7649 118.7909L56.9389 117.256905C 56.8639 117.215904 56.8349 117.1209 56.8759 117.0449C 56.9109 116.9809 56.984898 116.950905 57.0529 116.9689" stroke="none" fill="#E7BC9E" fill-rule="nonzero" fill-opacity="0.29803923" />
    <path id=""  transform="matrix(1 0 0 -1 0 316)"  d="M60.0343 118.8067L60.0703 119.1157L60.0703 119.1157L57.9803 119.3587L57.9803 119.3587L57.9443 119.0487z" stroke="none" fill="#E7BC9E" fill-rule="nonzero" fill-opacity="0.29803923" />
    <path id=""  transform="matrix(1 0 0 -1 0 316)"  d="M59.4738 116.423L59.137802 118.218994L59.137802 118.218994L58.8308 118.161995L58.8308 118.161995L59.1668 116.365z" stroke="none" fill="#E7BC9E" fill-rule="nonzero" fill-opacity="0.29803923" />
				</g>
			</g>
			<g>
				<g clip-path="url(#4)" >
    <path id=""  transform="matrix(1 0 0 -1 0 316)"  d="M124.9718 109.0411C 124.7218 109.0121 124.495804 109.1901 124.466805 109.4401C 124.437805 109.6901 124.617805 109.9161 124.8668 109.9451C 125.1168 109.9741 125.341805 109.7951 125.370804 109.5451C 125.4008 109.2961 125.2208 109.0691 124.9718 109.0411" stroke="none" fill="#E7BC9E" fill-rule="nonzero" fill-opacity="0.29803923" />
    <path id=""  transform="matrix(1 0 0 -1 0 316)"  d="M124.0519 110.8732C 123.6629 110.8282 123.311905 111.1062 123.2669 111.4952C 123.2209 111.8842 123.4999 112.2362 123.8889 112.2812C 124.2779 112.3262 124.62891 112.0482 124.673904 111.6592C 124.7199 111.2692 124.4409 110.9182 124.0519 110.8732" stroke="none" fill="#E7BC9E" fill-rule="nonzero" fill-opacity="0.29803923" />
    <path id=""  transform="matrix(1 0 0 -1 0 316)"  d="M122.6935 108.0636C 122.3045 108.0176 121.9535 108.2966 121.90849 108.6856C 121.862495 109.0746 122.141495 109.4256 122.530495 109.4706C 122.919495 109.5166 123.2705 109.2376 123.3155 108.8486C 123.361496 108.4596 123.0825 108.1086 122.6935 108.0636" stroke="none" fill="#E7BC9E" fill-rule="nonzero" fill-opacity="0.29803923" />
    <path id=""  transform="matrix(1 0 0 -1 0 316)"  d="M124.88 109.3429C 124.867 109.3459 124.855995 109.34991 124.84499 109.3569L124.84499 109.3569L121.945 110.9309L121.945 110.9309L121.923996 110.9669L121.923996 110.9669L120.673 113.031906C 120.629 113.1069 120.652 113.201904 120.726 113.2469C 120.799995 113.2919 120.895996 113.26691 120.939995 113.1949L120.939995 113.1949L122.168 111.1639L122.168 111.1639L124.993 109.629906C 125.069 109.588905 125.097 109.493904 125.056 109.4189C 125.020996 109.354904 124.947 109.323906 124.88 109.3429" stroke="none" fill="#E7BC9E" fill-rule="nonzero" fill-opacity="0.29803923" />
    <path id=""  transform="matrix(1 0 0 -1 0 316)"  d="M121.8986 111.1798L121.862595 111.4898L121.862595 111.4898L123.9526 111.731804L123.9526 111.731804L123.988594 111.4218z" stroke="none" fill="#E7BC9E" fill-rule="nonzero" fill-opacity="0.29803923" />
    <path id=""  transform="matrix(1 0 0 -1 0 316)"  d="M122.4591 108.796L122.7951 110.592995L122.7951 110.592995L123.1021 110.534996L123.1021 110.534996L122.7661 108.738z" stroke="none" fill="#E7BC9E" fill-rule="nonzero" fill-opacity="0.29803923" />
				</g>
			</g>
    <path id=""  transform="matrix(1 0 0 -1 0 316)"  d="M53.3478 94.2775C 53.6348 94.432495 53.740803 94.7915 53.5838 95.0785C 53.428802 95.364494 53.0698 95.4705 52.783802 95.3145C 52.4968 95.15849 52.3908 94.7995 52.546803 94.5135C 52.7028 94.226494 53.061802 94.1215 53.3478 94.2775" stroke="none" fill="#E7BC9E" fill-rule="nonzero" />
    <path id=""  transform="matrix(1 0 0 -1 0 316)"  d="M52.9532 96.9073C 53.3992 97.1503 53.5642 97.709305 53.3212 98.155304C 53.0782 98.6013 52.520203 98.765305 52.0742 98.5233C 51.6282 98.280304 51.4632 97.721306 51.7062 97.2753C 51.9482 96.8293 52.507202 96.665306 52.9532 96.9073" stroke="none" fill="#E7BC9E" fill-rule="nonzero" />
    <path id=""  transform="matrix(1 0 0 -1 0 316)"  d="M53.2198 94.6651C 53.2308 94.6781 53.2398 94.6901 53.2468 94.7061L53.2468 94.7061L55.1438 98.5441L55.1438 98.5441L55.1408 98.5991L55.1408 98.5991L54.9228 101.7251C 54.9148 101.8361 54.818798 101.9201 54.7068 101.9121C 54.5948 101.9041 54.5118 101.8071 54.5188 101.6961L54.5188 101.6961L54.7338 98.6251L54.7338 98.6251L52.8838 94.8851C 52.833797 94.7851 52.875797 94.6641 52.9758 94.6141C 53.0618 94.5721 53.1608 94.5961 53.2198 94.6651" stroke="none" fill="#E7BC9E" fill-rule="nonzero" />
    <path id=""  transform="matrix(1 0 0 -1 0 316)"  d="M55.0079 98.8429L54.8159 99.19791L54.8159 99.19791L52.4169 97.89291L52.4169 97.89291L52.6109 97.5369z" stroke="none" fill="#E7BC9E" fill-rule="nonzero" />
    <path id=""  transform="matrix(1 0 0 -1 0 316)"  d="M135.6329 136.5841C 135.7109 136.2241 135.48291 135.86711 135.12091 135.78911C 134.7599 135.7111 134.4039 135.9391 134.3249 136.3011C 134.2469 136.66211 134.4769 137.01811 134.8379 137.0971C 135.1979 137.17511 135.5549 136.9451 135.6329 136.5841" stroke="none" fill="#E7BC9E" fill-rule="nonzero" />
    <path id=""  transform="matrix(1 0 0 -1 0 316)"  d="M133.0861 134.9757C 133.2081 134.4137 132.8511 133.85869 132.28911 133.7367C 131.72711 133.6147 131.1721 133.9717 131.05011 134.5347C 130.9281 135.09569 131.2841 135.6507 131.8471 135.77269C 132.4091 135.8947 132.96411 135.53769 133.0861 134.9757" stroke="none" fill="#E7BC9E" fill-rule="nonzero" />
    <path id=""  transform="matrix(1 0 0 -1 0 316)"  d="M137.3917 133.3936C 137.51369 132.8316 137.1567 132.2776 136.5947 132.1556C 136.0327 132.0336 135.47769 132.3896 135.3557 132.9526C 135.23369 133.5146 135.58969 134.0696 136.1527 134.1916C 136.71469 134.3126 137.2697 133.9556 137.3917 133.3936" stroke="none" fill="#E7BC9E" fill-rule="nonzero" />
    <path id=""  transform="matrix(1 0 0 -1 0 316)"  d="M130.3263 129.6817C 130.24129 129.6627 130.14929 129.6947 130.0943 129.7677C 130.01729 129.8687 130.0383 130.0117 130.1393 130.0877L130.1393 130.0877L132.9303 132.1787L132.9303 132.1787L134.76929 136.53171C 134.81729 136.6487 134.9523 136.7027 135.0683 136.6537C 135.18529 136.6037 135.2403 136.4697 135.19029 136.3537L135.19029 136.3537L133.30429 131.8867L133.30429 131.8867L130.4153 129.7217C 130.38829 129.7017 130.3573 129.6887 130.3263 129.6817" stroke="none" fill="#E7BC9E" fill-rule="nonzero" />
    <path id=""  transform="matrix(1 0 0 -1 0 316)"  d="M126.7042 69.5714C 126.7822 69.2104 126.5532 68.8534 126.1912 68.775406C 125.8312 68.6974 125.475204 68.9254 125.3962 69.28741C 125.3182 69.64841 125.5472 70.0054 125.9082 70.083405C 126.2692 70.1614 126.6252 69.931404 126.7042 69.5714" stroke="none" fill="#E7BC9E" fill-rule="nonzero" />
    <path id=""  transform="matrix(1 0 0 -1 0 316)"  d="M121.3966 62.6681C 121.3116 62.649097 121.2196 62.6811 121.165596 62.754097C 121.0886 62.8551 121.1096 62.9991 121.2106 63.074097L121.2106 63.074097L124.0016 65.1651L124.0016 65.1651L125.8396 69.5181C 125.887596 69.6351 126.0226 69.6891 126.1396 69.6401C 126.2556 69.591095 126.3106 69.4561 126.2606 69.340096L126.2606 69.340096L124.375595 64.8731L124.375595 64.8731L121.485596 62.7081C 121.458595 62.6881 121.4276 62.6751 121.3966 62.6681" stroke="none" fill="#E7BC9E" fill-rule="nonzero" />
    <path id=""  transform="matrix(1 0 0 -1 0 316)"  d="M132.9474 131.7813L132.5004 131.6843L132.5004 131.6843L131.8434 134.7063L131.8434 134.7063L132.2914 134.80229z" stroke="none" fill="#E7BC9E" fill-rule="nonzero" />
    <path id=""  transform="matrix(1 0 0 -1 0 316)"  d="M136.3536 132.9454L133.67761 133.1774L133.67761 133.1774L133.7176 133.6334L133.7176 133.6334L136.3936 133.4014z" stroke="none" fill="#E7BC9E" fill-rule="nonzero" />
    <path id=""  transform="matrix(1 0 0 -1 0 316)"  d="M129.5616 89.6964C 129.8646 89.9074 130.2816 89.834404 130.4936 89.5314C 130.7056 89.2284 130.6316 88.8114 130.3296 88.5994C 130.0256 88.387405 129.6086 88.4624 129.3976 88.764404C 129.1856 89.067406 129.2586 89.484406 129.5616 89.6964" stroke="none" fill="#E7BC9E" fill-rule="nonzero" />
    <path id=""  transform="matrix(1 0 0 -1 0 316)"  d="M132.0304 87.9679C 132.50139 88.297905 133.15039 88.1829 133.4804 87.7109C 133.8104 87.23891 133.69539 86.589905 133.22339 86.2609C 132.7524 85.9309 132.1024 86.045906 131.77339 86.51791C 131.44339 86.98891 131.5584 87.6379 132.0304 87.9679" stroke="none" fill="#E7BC9E" fill-rule="nonzero" />
    <path id=""  transform="matrix(1 0 0 -1 0 316)"  d="M131.8253 92.5499C 132.2973 92.8799 132.9463 92.76489 133.2763 92.2939C 133.60631 91.8219 133.4913 91.1729 133.0193 90.842896C 132.54831 90.51389 131.8983 90.6279 131.5693 91.0999C 131.2393 91.5709 131.35431 92.220894 131.8253 92.5499" stroke="none" fill="#E7BC9E" fill-rule="nonzero" />
    <path id=""  transform="matrix(1 0 0 -1 0 316)"  d="M137.9796 87.4669C 138.0296 87.395905 138.0356 87.299904 137.9896 87.2199C 137.9246 87.1109 137.7856 87.073906 137.6756 87.1389L137.6756 87.1389L134.6696 88.90491L134.6696 88.90491L129.9446 88.91991C 129.8186 88.91891 129.7156 89.0229 129.7166 89.1499C 129.7166 89.2759 129.8196 89.37791 129.9466 89.37691L129.9466 89.37691L134.7946 89.36291L134.7946 89.36291L137.9076 87.532906C 137.9366 87.51691 137.9606 87.492905 137.9796 87.4669" stroke="none" fill="#E7BC9E" fill-rule="nonzero" />
    <path id=""  transform="matrix(1 0 0 -1 0 316)"  d="M135.0294 89.0733L135.2924 88.6983L135.2924 88.6983L132.7584 86.92731L132.7584 86.92731L132.4964 87.3023z" stroke="none" fill="#E7BC9E" fill-rule="nonzero" />
    <path id=""  transform="matrix(1 0 0 -1 0 316)"  d="M60.3165 74.7335C 59.9985 75.212494 60.1285 75.8595 60.607502 76.1775C 61.0875 76.4975 61.7335 76.3665 62.051502 75.8875C 62.370502 75.4085 62.2405 74.7615 61.7605 74.4435C 61.2825 74.125496 60.6355 74.2545 60.3165 74.7335" stroke="none" fill="#E7BC9E" fill-rule="nonzero" />
    <path id=""  transform="matrix(1 0 0 -1 0 316)"  d="M59.2823 77.7589L59.6633 78.0129L59.6633 78.0129L61.375298 75.437904L61.375298 75.437904L60.9943 75.184906z" stroke="none" fill="#E7BC9E" fill-rule="nonzero" />
    <path id=""  transform="matrix(1 0 0 -1 0 316)"  d="M51.1534 54.0792C 50.8354 54.5582 50.9654 55.2042 51.4444 55.5222C 51.9234 55.8422 52.5694 55.7112 52.8884 55.2322C 53.2074 54.7532 53.0764 54.1062 52.5974 53.7882C 52.1184 53.4702 51.4714 53.6002 51.1534 54.0792" stroke="none" fill="#E7BC9E" fill-rule="nonzero" />
    <path id=""  transform="matrix(1 0 0 -1 0 316)"  d="M131.7599 39.8936C 131.4409 40.3726 131.5719 41.0196 132.0499 41.3376C 132.5299 41.6566 133.1759 41.5266 133.4939 41.0466C 133.8129 40.5686 133.6829 39.9216 133.2029 39.6036C 132.7249 39.2846 132.0779 39.4146 131.7599 39.8936" stroke="none" fill="#E7BC9E" fill-rule="nonzero" />
    <path id=""  transform="matrix(1 0 0 -1 0 316)"  d="M132.6407 91.7667L133.4587 89.2077L133.4587 89.2077L133.0237 89.0687L133.0237 89.0687L132.2037 91.6267z" stroke="none" fill="#E7BC9E" fill-rule="nonzero" />
    <path id=""  transform="matrix(1 0 0 -1 0 316)"  d="M62.9357 35.2433C 63.0137 34.8823 62.785698 34.525303 62.4237 34.4473C 62.0627 34.3693 61.7067 34.5983 61.6277 34.9593C 61.549698 35.3203 61.7797 35.6773 62.139698 35.755302C 62.500698 35.8333 62.8577 35.6043 62.9357 35.2433" stroke="none" fill="#E7BC9E" fill-rule="nonzero" />
			<g>
				<g clip-path="url(#5)" >
    <path id=""  transform="matrix(1 0 0 -1 0 316)"  d="M119.6349 21.669C 119.713905 21.308 119.4849 20.951 119.1229 20.873001C 118.7629 20.795 118.40591 21.024 118.3279 21.385C 118.2489 21.746 118.478905 22.103 118.839905 22.181C 119.199905 22.259 119.5569 22.03 119.6349 21.669" stroke="none" fill="#E7BC9E" fill-rule="nonzero" fill-opacity="0.29803923" />
				</g>
			</g>
			<g>
				<g clip-path="url(#6)" >
    <path id=""  transform="matrix(1 0 0 -1 0 316)"  d="M57.9073 17.5929C 57.9853 17.2319 57.756298 16.874899 57.395298 16.7969C 57.034298 16.718899 56.6783 16.9469 56.5993 17.308899C 56.521297 17.669899 56.750298 18.0269 57.111298 18.104898C 57.472298 18.1829 57.8293 17.9529 57.9073 17.5929" stroke="none" fill="#E7BC9E" fill-rule="nonzero" fill-opacity="0.29803923" />
				</g>
			</g>
		</g>
	</g>
</g>
</svg>