<?xml version="1.0" standalone="no"?>
<!DOCTYPE svg PUBLIC "-//W3C//DTD SVG 1.0//EN" "http://www.w3.org/TR/2001/REC-SVG-20010904/DTD/svg10.dtd">
<svg xmlns="http://www.w3.org/2000/svg" xmlns:xlink="http://www.w3.org/1999/xlink" id="body_3" width="247" height="421">

<defs>
    <clipPath  id="1">

    <path id=""  clip-rule="evenodd" transform="matrix(1 0 0 1 0 0)"  d="M0 316L0 0L0 0L185 0L185 0L185 316L185 316L0 316z" />    </clipPath>
    <clipPath  id="2">

    <path id=""  clip-rule="evenodd" transform="matrix(1 0 0 1 0 0)"  d="M0 0L185 0L185 0L185 316L185 316L0 316z" />    </clipPath>
</defs>

<g transform="matrix(1.3333 0 0 1.3333 0 0)">
	<g clip-path="url(#1)" >
		<g clip-path="url(#2)" >
    <path id=""  transform="matrix(1 0 0 -1 0 316)"  d="M59.4545 136.6124C 59.4545 135.48439 58.540497 134.5714 57.413498 134.5714C 56.2855 134.5714 55.3715 135.48439 55.3715 136.6124C 55.3715 137.7394 56.2855 138.6534 57.413498 138.6534C 58.540497 138.6534 59.4545 137.7394 59.4545 136.6124z" stroke="#E7BC9E" stroke-width="1" stroke-linecap="round" fill="none" />
    <path id=""  transform="matrix(1 0 0 -1 0 316)"  d="M59.0453 68.4679C 59.0453 67.339905 58.131298 66.4259 57.0033 66.4259C 55.8763 66.4259 54.9623 67.339905 54.9623 68.4679C 54.9623 69.5949 55.8763 70.5089 57.0033 70.5089C 58.131298 70.5089 59.0453 69.5949 59.0453 68.4679z" stroke="#E7BC9E" stroke-width="1" stroke-linecap="round" fill="none" />
    <path id=""  transform="matrix(1 0 0 -1 0 316)"  d="M129.4262 68.4679C 129.4262 67.339905 128.51219 66.4259 127.38419 66.4259C 126.257195 66.4259 125.34319 67.339905 125.34319 68.4679C 125.34319 69.5949 126.257195 70.5089 127.38419 70.5089C 128.51219 70.5089 129.4262 69.5949 129.4262 68.4679z" stroke="#E7BC9E" stroke-width="1" stroke-linecap="round" fill="none" />
    <path id=""  transform="matrix(1 0 0 -1 0 316)"  d="M130.1039 136.6124C 130.1039 135.48439 129.1899 134.5714 128.0629 134.5714C 126.9349 134.5714 126.0209 135.48439 126.0209 136.6124C 126.0209 137.7394 126.9349 138.6534 128.0629 138.6534C 129.1899 138.6534 130.1039 137.7394 130.1039 136.6124z" stroke="#E7BC9E" stroke-width="1" stroke-linecap="round" fill="none" />
    <path id=""  transform="matrix(1 0 0 -1 0 316)"  d="M52.2865 127.7189C 52.2865 127.7189 64.5195 103.1779 52.2865 78.1689" stroke="#E7BC9E" stroke-width="0.6" stroke-linecap="round" fill="none" />
    <path id=""  transform="matrix(1 0 0 -1 0 316)"  d="M54.9438 127.7189C 54.9438 127.7189 67.1768 103.1779 54.9438 78.1689" stroke="#E7BC9E" stroke-width="0.6" stroke-linecap="round" fill="none" />
    <path id=""  transform="matrix(1 0 0 -1 0 316)"  d="M57.601 127.7189C 57.601 127.7189 69.835 103.1779 57.601 78.1689" stroke="#E7BC9E" stroke-width="0.6" stroke-linecap="round" fill="none" />
    <path id=""  transform="matrix(1 0 0 -1 0 316)"  d="M60.2592 127.7189C 60.2592 127.7189 72.4922 103.1779 60.2592 78.1689" stroke="#E7BC9E" stroke-width="0.6" stroke-linecap="round" fill="none" />
    <path id=""  transform="matrix(1 0 0 -1 0 316)"  d="M132.6996 127.7189C 132.6996 127.7189 120.4666 103.1779 132.6996 78.1689" stroke="#E7BC9E" stroke-width="0.6" stroke-linecap="round" fill="none" />
    <path id=""  transform="matrix(1 0 0 -1 0 316)"  d="M130.0424 127.7189C 130.0424 127.7189 117.8094 103.1779 130.0424 78.1689" stroke="#E7BC9E" stroke-width="0.6" stroke-linecap="round" fill="none" />
    <path id=""  transform="matrix(1 0 0 -1 0 316)"  d="M127.3842 127.7189C 127.3842 127.7189 115.1512 103.1779 127.3842 78.1689" stroke="#E7BC9E" stroke-width="0.6" stroke-linecap="round" fill="none" />
    <path id=""  transform="matrix(1 0 0 -1 0 316)"  d="M124.727 127.7189C 124.727 127.7189 112.493996 103.1779 124.727 78.1689" stroke="#E7BC9E" stroke-width="0.6" stroke-linecap="round" fill="none" />
    <path id=""  transform="matrix(1 0 0 -1 0 316)"  d="M138.8793 103.4923L134.6913 103.8413L134.6913 103.8413L134.2173 104.3113L134.2173 104.3113L133.8993 110.3393L133.8993 110.3393L133.5813 104.3113L133.5813 104.3113L133.1083 103.8413L133.1083 103.8413L128.9193 103.4923L128.9193 103.4923L133.1083 103.1433L133.1083 103.1433L133.5813 102.6723L133.5813 102.6723L133.8993 96.6443L133.8993 96.6443L134.2173 102.6733L134.2173 102.6733L134.6913 103.1433z" stroke="none" fill="#E7BC9E" fill-rule="nonzero" />
    <path id=""  transform="matrix(1 0 0 -1 0 316)"  d="M138.8793 103.4923L134.6913 103.8413L134.6913 103.8413L134.2173 104.3113L134.2173 104.3113L133.8993 110.3393L133.8993 110.3393L133.5813 104.3113L133.5813 104.3113L133.1083 103.8413L133.1083 103.8413L128.9193 103.4923L128.9193 103.4923L133.1083 103.1433L133.1083 103.1433L133.5813 102.6723L133.5813 102.6723L133.8993 96.6443L133.8993 96.6443L134.2173 102.6733L134.2173 102.6733L134.6913 103.1433L134.6913 103.1433L138.8793 103.4923z" stroke="#E7BC9E" stroke-width="0.6" stroke-linecap="round" fill="none" />
    <path id=""  transform="matrix(1 0 0 -1 0 316)"  d="M127.7328 62.2159L129.3078 64.0279L129.3078 64.0279L127.4968 62.4519L127.4968 62.4519L127.188805 62.4959L127.188805 62.4959L125.534805 63.9539L125.534805 63.9539L126.992805 62.2999L126.992805 62.2999L127.036804 61.9919L127.036804 61.9919L125.4608 60.1799L125.4608 60.1799L127.272804 61.7559L127.272804 61.7559L127.5808 61.7119L127.5808 61.7119L129.2348 60.2539L129.2348 60.2539L127.7768 61.9079z" stroke="none" fill="#E7BC9E" fill-rule="nonzero" />
    <path id=""  transform="matrix(1 0 0 -1 0 316)"  d="M127.7328 62.2159L129.3078 64.0279L129.3078 64.0279L127.4968 62.4519L127.4968 62.4519L127.188805 62.4959L127.188805 62.4959L125.534805 63.9539L125.534805 63.9539L126.992805 62.2999L126.992805 62.2999L127.036804 61.9919L127.036804 61.9919L125.4608 60.1799L125.4608 60.1799L127.272804 61.7559L127.272804 61.7559L127.5808 61.7119L127.5808 61.7119L129.2348 60.2539L129.2348 60.2539L127.7768 61.9079L127.7768 61.9079L127.7328 62.2159z" stroke="#E7BC9E" stroke-width="0.6" stroke-linecap="round" fill="none" />
    <path id=""  transform="matrix(1 0 0 -1 0 316)"  d="M127.7328 55.7345L129.3078 57.5465L129.3078 57.5465L127.4968 55.9705L127.4968 55.9705L127.188805 56.0135L127.188805 56.0135L125.534805 57.4725L125.534805 57.4725L126.992805 55.8175L126.992805 55.8175L127.036804 55.509502L127.036804 55.509502L125.4608 53.6985L125.4608 53.6985L127.272804 55.273502L127.272804 55.273502L127.5808 55.2305L127.5808 55.2305L129.2348 53.7715L129.2348 53.7715L127.7768 55.425503z" stroke="none" fill="#E7BC9E" fill-rule="nonzero" />
    <path id=""  transform="matrix(1 0 0 -1 0 316)"  d="M127.7328 55.7345L129.3078 57.5465L129.3078 57.5465L127.4968 55.9705L127.4968 55.9705L127.188805 56.0135L127.188805 56.0135L125.534805 57.4725L125.534805 57.4725L126.992805 55.8175L126.992805 55.8175L127.036804 55.509502L127.036804 55.509502L125.4608 53.6985L125.4608 53.6985L127.272804 55.273502L127.272804 55.273502L127.5808 55.2305L127.5808 55.2305L129.2348 53.7715L129.2348 53.7715L127.7768 55.425503L127.7768 55.425503L127.7328 55.7345z" stroke="#E7BC9E" stroke-width="0.6" stroke-linecap="round" fill="none" />
    <path id=""  transform="matrix(1 0 0 -1 0 316)"  d="M127.7328 49.2521L129.3078 51.064102L129.3078 51.064102L127.4968 49.488102L127.4968 49.488102L127.188805 49.5321L127.188805 49.5321L125.534805 50.9901L125.534805 50.9901L126.992805 49.3361L126.992805 49.3361L127.036804 49.028103L127.036804 49.028103L125.4608 47.217102L125.4608 47.217102L127.272804 48.792103L127.272804 48.792103L127.5808 48.7481L127.5808 48.7481L129.2348 47.2901L129.2348 47.2901L127.7768 48.944103z" stroke="none" fill="#E7BC9E" fill-rule="nonzero" />
    <path id=""  transform="matrix(1 0 0 -1 0 316)"  d="M127.7328 49.2521L129.3078 51.064102L129.3078 51.064102L127.4968 49.488102L127.4968 49.488102L127.188805 49.5321L127.188805 49.5321L125.534805 50.9901L125.534805 50.9901L126.992805 49.3361L126.992805 49.3361L127.036804 49.028103L127.036804 49.028103L125.4608 47.217102L125.4608 47.217102L127.272804 48.792103L127.272804 48.792103L127.5808 48.7481L127.5808 48.7481L129.2348 47.2901L129.2348 47.2901L127.7768 48.944103L127.7768 48.944103L127.7328 49.2521z" stroke="#E7BC9E" stroke-width="0.6" stroke-linecap="round" fill="none" />
    <path id=""  transform="matrix(1 0 0 -1 0 316)"  d="M127.7328 42.7706L129.3078 44.5826L129.3078 44.5826L127.4968 43.0066L127.4968 43.0066L127.188805 43.0496L127.188805 43.0496L125.534805 44.5086L125.534805 44.5086L126.992805 42.8536L126.992805 42.8536L127.036804 42.5456L127.036804 42.5456L125.4608 40.7346L125.4608 40.7346L127.272804 42.3096L127.272804 42.3096L127.5808 42.266598L127.5808 42.266598L129.2348 40.8076L129.2348 40.8076L127.7768 42.4616z" stroke="none" fill="#E7BC9E" fill-rule="nonzero" />
    <path id=""  transform="matrix(1 0 0 -1 0 316)"  d="M127.7328 42.7706L129.3078 44.5826L129.3078 44.5826L127.4968 43.0066L127.4968 43.0066L127.188805 43.0496L127.188805 43.0496L125.534805 44.5086L125.534805 44.5086L126.992805 42.8536L126.992805 42.8536L127.036804 42.5456L127.036804 42.5456L125.4608 40.7346L125.4608 40.7346L127.272804 42.3096L127.272804 42.3096L127.5808 42.266598L127.5808 42.266598L129.2348 40.8076L129.2348 40.8076L127.7768 42.4616L127.7768 42.4616L127.7328 42.7706z" stroke="#E7BC9E" stroke-width="0.6" stroke-linecap="round" fill="none" />
    <path id=""  transform="matrix(1 0 0 -1 0 316)"  d="M57.352 62.2159L58.927002 64.0279L58.927002 64.0279L57.116 62.4519L57.116 62.4519L56.808002 62.4959L56.808002 62.4959L55.154 63.9539L55.154 63.9539L56.612 62.2999L56.612 62.2999L56.656002 61.9919L56.656002 61.9919L55.08 60.1799L55.08 60.1799L56.892002 61.7559L56.892002 61.7559L57.2 61.7119L57.2 61.7119L58.854 60.2539L58.854 60.2539L57.396 61.9079z" stroke="none" fill="#E7BC9E" fill-rule="nonzero" />
    <path id=""  transform="matrix(1 0 0 -1 0 316)"  d="M57.352 62.2159L58.927002 64.0279L58.927002 64.0279L57.116 62.4519L57.116 62.4519L56.808002 62.4959L56.808002 62.4959L55.154 63.9539L55.154 63.9539L56.612 62.2999L56.612 62.2999L56.656002 61.9919L56.656002 61.9919L55.08 60.1799L55.08 60.1799L56.892002 61.7559L56.892002 61.7559L57.2 61.7119L57.2 61.7119L58.854 60.2539L58.854 60.2539L57.396 61.9079L57.396 61.9079L57.352 62.2159z" stroke="#E7BC9E" stroke-width="0.6" stroke-linecap="round" fill="none" />
    <path id=""  transform="matrix(1 0 0 -1 0 316)"  d="M57.352 55.7345L58.927002 57.5465L58.927002 57.5465L57.116 55.9705L57.116 55.9705L56.808002 56.0135L56.808002 56.0135L55.154 57.4725L55.154 57.4725L56.612 55.8175L56.612 55.8175L56.656002 55.509502L56.656002 55.509502L55.08 53.6985L55.08 53.6985L56.892002 55.273502L56.892002 55.273502L57.2 55.2305L57.2 55.2305L58.854 53.7715L58.854 53.7715L57.396 55.425503z" stroke="none" fill="#E7BC9E" fill-rule="nonzero" />
    <path id=""  transform="matrix(1 0 0 -1 0 316)"  d="M57.352 55.7345L58.927002 57.5465L58.927002 57.5465L57.116 55.9705L57.116 55.9705L56.808002 56.0135L56.808002 56.0135L55.154 57.4725L55.154 57.4725L56.612 55.8175L56.612 55.8175L56.656002 55.509502L56.656002 55.509502L55.08 53.6985L55.08 53.6985L56.892002 55.273502L56.892002 55.273502L57.2 55.2305L57.2 55.2305L58.854 53.7715L58.854 53.7715L57.396 55.425503L57.396 55.425503L57.352 55.7345z" stroke="#E7BC9E" stroke-width="0.6" stroke-linecap="round" fill="none" />
    <path id=""  transform="matrix(1 0 0 -1 0 316)"  d="M57.352 49.2521L58.927002 51.064102L58.927002 51.064102L57.116 49.488102L57.116 49.488102L56.808002 49.5321L56.808002 49.5321L55.154 50.9901L55.154 50.9901L56.612 49.3361L56.612 49.3361L56.656002 49.028103L56.656002 49.028103L55.08 47.217102L55.08 47.217102L56.892002 48.792103L56.892002 48.792103L57.2 48.7481L57.2 48.7481L58.854 47.2901L58.854 47.2901L57.396 48.944103z" stroke="none" fill="#E7BC9E" fill-rule="nonzero" />
    <path id=""  transform="matrix(1 0 0 -1 0 316)"  d="M57.352 49.2521L58.927002 51.064102L58.927002 51.064102L57.116 49.488102L57.116 49.488102L56.808002 49.5321L56.808002 49.5321L55.154 50.9901L55.154 50.9901L56.612 49.3361L56.612 49.3361L56.656002 49.028103L56.656002 49.028103L55.08 47.217102L55.08 47.217102L56.892002 48.792103L56.892002 48.792103L57.2 48.7481L57.2 48.7481L58.854 47.2901L58.854 47.2901L57.396 48.944103L57.396 48.944103L57.352 49.2521z" stroke="#E7BC9E" stroke-width="0.6" stroke-linecap="round" fill="none" />
    <path id=""  transform="matrix(1 0 0 -1 0 316)"  d="M57.352 42.7706L58.927002 44.5826L58.927002 44.5826L57.116 43.0066L57.116 43.0066L56.808002 43.0496L56.808002 43.0496L55.154 44.5086L55.154 44.5086L56.612 42.8536L56.612 42.8536L56.656002 42.5456L56.656002 42.5456L55.08 40.7346L55.08 40.7346L56.892002 42.3096L56.892002 42.3096L57.2 42.266598L57.2 42.266598L58.854 40.8076L58.854 40.8076L57.396 42.4616z" stroke="none" fill="#E7BC9E" fill-rule="nonzero" />
    <path id=""  transform="matrix(1 0 0 -1 0 316)"  d="M57.352 42.7706L58.927002 44.5826L58.927002 44.5826L57.116 43.0066L57.116 43.0066L56.808002 43.0496L56.808002 43.0496L55.154 44.5086L55.154 44.5086L56.612 42.8536L56.612 42.8536L56.656002 42.5456L56.656002 42.5456L55.08 40.7346L55.08 40.7346L56.892002 42.3096L56.892002 42.3096L57.2 42.266598L57.2 42.266598L58.854 40.8076L58.854 40.8076L57.396 42.4616L57.396 42.4616L57.352 42.7706z" stroke="#E7BC9E" stroke-width="0.6" stroke-linecap="round" fill="none" />
    <path id=""  transform="matrix(1 0 0 -1 0 316)"  d="M56.266 102.9571L52.078 103.3061L52.078 103.3061L51.604 103.7751L51.604 103.7751L51.287 109.8041L51.287 109.8041L50.968 103.7761L50.968 103.7761L50.495 103.3061L50.495 103.3061L46.306 102.9571L46.306 102.9571L50.495 102.6071L50.495 102.6071L50.968 102.1371L50.968 102.1371L51.287 96.1091L51.287 96.1091L51.604 102.1381L51.604 102.1381L52.078 102.6071z" stroke="none" fill="#E7BC9E" fill-rule="nonzero" />
    <path id=""  transform="matrix(1 0 0 -1 0 316)"  d="M56.266 102.9571L52.078 103.3061L52.078 103.3061L51.604 103.7751L51.604 103.7751L51.287 109.8041L51.287 109.8041L50.968 103.7761L50.968 103.7761L50.495 103.3061L50.495 103.3061L46.306 102.9571L46.306 102.9571L50.495 102.6071L50.495 102.6071L50.968 102.1371L50.968 102.1371L51.287 96.1091L51.287 96.1091L51.604 102.1381L51.604 102.1381L52.078 102.6071L52.078 102.6071L56.266 102.9571z" stroke="#E7BC9E" stroke-width="0.6" stroke-linecap="round" fill="none" />
		</g>
	</g>
</g>
</svg>