<?xml version="1.0" standalone="no"?>
<!DOCTYPE svg PUBLIC "-//W3C//DTD SVG 1.0//EN" "http://www.w3.org/TR/2001/REC-SVG-20010904/DTD/svg10.dtd">
<svg xmlns="http://www.w3.org/2000/svg" xmlns:xlink="http://www.w3.org/1999/xlink" id="body_4" width="247" height="421">

<defs>
    <clipPath  id="1">

    <path id=""  clip-rule="evenodd" transform="matrix(1 0 0 1 0 0)"  d="M0 316L0 0L0 0L185 0L185 0L185 316L185 316L0 316z" />    </clipPath>
    <clipPath  id="2">

    <path id=""  clip-rule="evenodd" transform="matrix(1 0 0 1 0 0)"  d="M0 0L185 0L185 0L185 316L185 316L0 316z" />    </clipPath>
</defs>

<g transform="matrix(1.3333 0 0 1.3333 0 0)">
	<g clip-path="url(#1)" >
		<g clip-path="url(#2)" >
    <path id=""  transform="matrix(1 0 0 -1 0 316)"  d="M59.4848 70.8789C 60.3428 70.8789 61.1568 71.0719 61.8858 71.4149C 61.7138 71.398895 61.5398 71.3889 61.361797 71.3889C 58.529797 71.3889 56.2328 73.6859 56.2328 76.5179C 56.2328 79.3499 58.529797 81.6469 61.361797 81.6469C 61.5398 81.6469 61.7138 81.6389 61.8858 81.620895C 61.1568 81.9639 60.3428 82.1569 59.4848 82.1569C 56.369797 82.1569 53.8458 79.633896 53.8458 76.5179C 53.8458 73.4039 56.369797 70.8789 59.4848 70.8789z" stroke="#E7BC9E" stroke-width="0.75" stroke-linecap="round" fill="none" />
    <path id=""  transform="matrix(1 0 0 -1 0 316)"  d="M125.4545 82.1572C 124.5965 82.1572 123.7825 81.9642 123.0535 81.6202C 123.225494 81.63721 123.3995 81.6462 123.5775 81.6462C 126.4095 81.6462 128.7065 79.349205 128.7065 76.517204C 128.7065 73.6852 126.4095 71.38821 123.5775 71.38821C 123.3995 71.38821 123.225494 71.3972 123.0535 71.4142C 123.7825 71.072205 124.5965 70.8792 125.4545 70.8792C 128.5695 70.8792 131.0935 73.40221 131.0935 76.517204C 131.0935 79.6322 128.5695 82.1572 125.4545 82.1572z" stroke="#E7BC9E" stroke-width="0.75" stroke-linecap="round" fill="none" />
    <path id=""  transform="matrix(1 0 0 -1 0 316)"  d="M128.5922 142.6093C 128.5922 141.9253 128.0382 141.3733 127.35619 141.3733C 126.673195 141.3733 126.119194 141.9253 126.119194 142.6093C 126.119194 143.2923 126.673195 143.84529 127.35619 143.84529C 128.0382 143.84529 128.5922 143.2923 128.5922 142.6093z" stroke="#E7BC9E" stroke-width="1" fill="none" />
    <path id=""  transform="matrix(1 0 0 -1 0 316)"  d="M128.5922 131.4033C 128.5922 130.7193 128.0382 130.16731 127.35619 130.16731C 126.673195 130.16731 126.119194 130.7193 126.119194 131.4033C 126.119194 132.0863 126.673195 132.6393 127.35619 132.6393C 128.0382 132.6393 128.5922 132.0863 128.5922 131.4033z" stroke="#E7BC9E" stroke-width="1" fill="none" />
    <path id=""  transform="matrix(1 0 0 -1 0 316)"  d="M129.6254 137.0058C 129.6254 135.75279 128.6084 134.7358 127.3554 134.7358C 126.102394 134.7358 125.086395 135.75279 125.086395 137.0058C 125.086395 138.2598 126.102394 139.2758 127.3554 139.2758C 128.6084 139.2758 129.6254 138.2598 129.6254 137.0058z" stroke="#E7BC9E" stroke-width="1" fill="none" />
    <path id=""  transform="matrix(1 0 0 -1 0 316)"  d="M58.8197 142.6093C 58.8197 141.9253 58.265697 141.3733 57.5837 141.3733C 56.9007 141.3733 56.3467 141.9253 56.3467 142.6093C 56.3467 143.2923 56.9007 143.84529 57.5837 143.84529C 58.265697 143.84529 58.8197 143.2923 58.8197 142.6093z" stroke="#E7BC9E" stroke-width="1" fill="none" />
    <path id=""  transform="matrix(1 0 0 -1 0 316)"  d="M58.8197 131.4033C 58.8197 130.7193 58.265697 130.16731 57.5837 130.16731C 56.9007 130.16731 56.3467 130.7193 56.3467 131.4033C 56.3467 132.0863 56.9007 132.6393 57.5837 132.6393C 58.265697 132.6393 58.8197 132.0863 58.8197 131.4033z" stroke="#E7BC9E" stroke-width="1" fill="none" />
    <path id=""  transform="matrix(1 0 0 -1 0 316)"  d="M59.8529 137.0058C 59.8529 135.75279 58.836903 134.7358 57.5829 134.7358C 56.330902 134.7358 55.3139 135.75279 55.3139 137.0058C 55.3139 138.2598 56.330902 139.2758 57.5829 139.2758C 58.836903 139.2758 59.8529 138.2598 59.8529 137.0058z" stroke="#E7BC9E" stroke-width="1" fill="none" />
    <path id=""  transform="matrix(1 0 0 -1 0 316)"  d="M56.1615 126.9912C 56.1615 126.9912 40.7455 89.667206 56.1615 46.333206" stroke="#E7BC9E" stroke-width="0.75" stroke-linecap="round" fill="none" />
    <path id=""  transform="matrix(1 0 0 -1 0 316)"  d="M56.1615 106.7021C 56.1615 106.7021 40.7455 69.3781 56.1615 26.044106" stroke="#E7BC9E" stroke-width="0.75" stroke-linecap="round" fill="none" />
    <path id=""  transform="matrix(1 0 0 -1 0 316)"  d="M128.7777 126.9912C 128.7777 126.9912 144.1937 89.667206 128.7777 46.333206" stroke="#E7BC9E" stroke-width="0.75" stroke-linecap="round" fill="none" />
    <path id=""  transform="matrix(1 0 0 -1 0 316)"  d="M128.7777 106.7021C 128.7777 106.7021 144.1937 69.3781 128.7777 26.044106" stroke="#E7BC9E" stroke-width="0.75" stroke-linecap="round" fill="none" />
    <path id=""  transform="matrix(1 0 0 -1 0 316)"  d="M60.0131 22.625C 60.0131 21.998 59.5041 21.49 58.8781 21.49C 58.2511 21.49 57.7431 21.998 57.7431 22.625C 57.7431 23.252 58.2511 23.76 58.8781 23.76C 59.5041 23.76 60.0131 23.252 60.0131 22.625z" stroke="#E7BC9E" stroke-width="1" fill="none" />
    <path id=""  transform="matrix(1 0 0 -1 0 316)"  d="M60.0131 44C 60.0131 43.373 59.5041 42.865 58.8781 42.865C 58.2511 42.865 57.7431 43.373 57.7431 44C 57.7431 44.627 58.2511 45.135 58.8781 45.135C 59.5041 45.135 60.0131 44.627 60.0131 44z" stroke="#E7BC9E" stroke-width="1" fill="none" />
    <path id=""  transform="matrix(1 0 0 -1 0 316)"  d="M125.0668 22.625C 125.0668 21.998 125.57481 21.49 126.201805 21.49C 126.828804 21.49 127.3368 21.998 127.3368 22.625C 127.3368 23.252 126.828804 23.76 126.201805 23.76C 125.57481 23.76 125.0668 23.252 125.0668 22.625z" stroke="#E7BC9E" stroke-width="1" fill="none" />
    <path id=""  transform="matrix(1 0 0 -1 0 316)"  d="M125.0668 44C 125.0668 43.373 125.57481 42.865 126.201805 42.865C 126.828804 42.865 127.3368 43.373 127.3368 44C 127.3368 44.627 126.828804 45.135 126.201805 45.135C 125.57481 45.135 125.0668 44.627 125.0668 44z" stroke="#E7BC9E" stroke-width="1" fill="none" />
		</g>
	</g>
</g>
</svg>