<svg id="레이어_2" data-name="레이어 2" xmlns="http://www.w3.org/2000/svg" viewBox="0 0 185 316"><defs><style>.cls-1{fill:#e7bc9e;}.cls-2,.cls-3,.cls-4,.cls-5{fill:none;stroke:#e7bc9e;}.cls-2{stroke-linecap:round;stroke-linejoin:round;}.cls-2,.cls-4{stroke-width:0.75px;}.cls-3,.cls-4,.cls-5{stroke-miterlimit:10;}.cls-5{stroke-width:0.5px;}</style></defs><title>6_7</title><path class="cls-1" d="M54.78,256.67c0-.25-.27-.39-.75-.39H54l.06,0c.33-.34.42-.63.24-.81s-.47-.09-.81.25l0,0s0,0,0-.07c0-.47-.15-.75-.4-.75s-.4.28-.4.75c0,0,0,0,0,.07l0,0c-.34-.34-.63-.43-.81-.25s-.09.47.25.81l0,0H52c-.47,0-.75.14-.75.39s.28.4.75.4h.06s0,0,0,0a1,1,0,0,0-.34.58.28.28,0,0,0,.09.22s.34.31.81-.24l0-.05s0,0,0,.06c0,.48.15.75.4.75s.4-.27.4-.75c0,0,0,0,0-.06l0,.05A1.05,1.05,0,0,0,54,258h.15l.07-.07c.18-.18.09-.48-.24-.81l-.05,0H54C54.51,257.07,54.78,256.93,54.78,256.67Z"/><path class="cls-1" d="M59.19,256.67c0-.25-.28-.39-.75-.39h-.07l.05,0c.34-.34.43-.63.25-.81s-.47-.09-.81.25c0,0,0,0,0,0v-.07c0-.47-.14-.75-.39-.75s-.4.28-.4.75a.17.17,0,0,0,0,.07l0,0c-.33-.34-.63-.43-.81-.25s-.08.47.25.81l0,0h-.06c-.48,0-.75.14-.75.39s.27.4.75.4h.06l0,0a1,1,0,0,0-.33.58.31.31,0,0,0,.08.22s.35.31.81-.24l0-.05a.13.13,0,0,0,0,.06c0,.48.15.75.4.75s.39-.27.39-.75v-.06l0,.05a1.05,1.05,0,0,0,.59.33h.15l.07-.07c.18-.18.09-.48-.25-.81a.1.1,0,0,0-.05,0h.07C58.91,257.07,59.19,256.93,59.19,256.67Z"/><path class="cls-1" d="M63.59,256.67c0-.25-.27-.39-.75-.39h-.06s0,0,0,0c.33-.34.42-.63.25-.81s-.48-.09-.81.25a.1.1,0,0,0,0,0v-.07c0-.47-.14-.75-.4-.75s-.39.28-.39.75v.07a.1.1,0,0,0,0,0c-.34-.34-.63-.43-.81-.25s-.09.47.25.81l0,0h-.06c-.47,0-.74.14-.74.39s.27.4.74.4h.07l0,0a1,1,0,0,0-.34.58.28.28,0,0,0,.09.22s.35.31.81-.24l0-.05v.06c0,.48.14.75.39.75s.4-.27.4-.75v-.06a.1.1,0,0,0,0,.05,1,1,0,0,0,.58.33H63l.08-.07c.17-.18.08-.48-.25-.81l0,0h.06C63.32,257.07,63.59,256.93,63.59,256.67Z"/><path class="cls-1" d="M125,256.67c0-.25-.27-.39-.75-.39h-.07l.06,0c.33-.34.42-.63.25-.81s-.48-.09-.82.25l0,0s0,0,0-.07c0-.47-.15-.75-.4-.75s-.4.28-.4.75c0,0,0,0,0,.07s0,0,0,0c-.34-.34-.63-.43-.81-.25s-.09.47.25.81l0,0h-.06c-.47,0-.75.14-.75.39s.28.4.75.4h.06s0,0,0,0a1,1,0,0,0-.34.58.28.28,0,0,0,.09.22s.34.31.81-.24l0-.05s0,0,0,.06c0,.48.15.75.4.75s.4-.27.4-.75c0,0,0,0,0-.06l0,.05a1.05,1.05,0,0,0,.59.33h.15l.08-.07c.17-.18.08-.48-.25-.81l0,0h.06C124.77,257.07,125,256.93,125,256.67Z"/><path class="cls-1" d="M129.45,256.67c0-.25-.28-.39-.75-.39h-.07s0,0,.05,0c.34-.34.43-.63.25-.81s-.47-.09-.81.25c0,0,0,0,0,0s0,0,0-.07c0-.47-.15-.75-.4-.75s-.4.28-.4.75c0,0,0,0,0,.07l0,0c-.34-.34-.64-.43-.82-.25s-.08.47.25.81l0,0h-.06c-.48,0-.75.14-.75.39s.27.4.75.4h.06l0,0a1,1,0,0,0-.33.58.31.31,0,0,0,.08.22s.35.31.82-.24l0-.05s0,0,0,.06c0,.48.15.75.4.75s.4-.27.4-.75c0,0,0,0,0-.06l0,.05a1.05,1.05,0,0,0,.59.33h.15l.07-.07c.18-.18.09-.48-.25-.81,0,0,0,0,0,0h.06C129.17,257.07,129.45,256.93,129.45,256.67Z"/><path class="cls-1" d="M133.85,256.67c0-.25-.27-.39-.75-.39H133s0,0,.05,0c.33-.34.43-.63.25-.81s-.47-.09-.81.25a.1.1,0,0,0,0,0v-.07c0-.47-.14-.75-.39-.75s-.4.28-.4.75v.07a.1.1,0,0,0,0,0c-.33-.34-.63-.43-.81-.25s-.09.47.25.81l0,0h0c-.48,0-.75.14-.75.39s.27.4.75.4h.06l-.05,0a1,1,0,0,0-.34.58.28.28,0,0,0,.09.22s.35.31.81-.24l0-.05v.06c0,.48.14.75.4.75s.39-.27.39-.75v-.06l0,.05a1,1,0,0,0,.59.33h.14l.08-.07c.18-.18.09-.48-.25-.81l-.05,0h.06C133.58,257.07,133.85,256.93,133.85,256.67Z"/><path class="cls-1" d="M59.45,214.59c0-.29-.32-.46-.86-.46h-.08l.06,0c.38-.38.49-.72.28-.93s-.54-.1-.93.29c0,0,0,0,0,.06v-.08c0-.55-.16-.86-.45-.86s-.46.31-.46.86c0,0,0,0,0,.07l0-.05c-.39-.39-.73-.5-.93-.29s-.1.55.28.93l.06,0h-.07c-.55,0-.86.17-.86.46s.31.45.86.45h.07l-.06,0a1.21,1.21,0,0,0-.38.68.32.32,0,0,0,.1.25s.4.35.93-.28l0-.06s0,.05,0,.08c0,.54.17.86.46.86s.45-.32.45-.86v-.07l0,0a1.23,1.23,0,0,0,.68.39h0l.17,0,.08-.08c.21-.21.11-.55-.28-.94a.1.1,0,0,1,0,0h.07C59.13,215,59.45,214.88,59.45,214.59Z"/><path class="cls-1" d="M129.71,214.59c0-.29-.32-.46-.86-.46h-.08l.06,0c.39-.38.49-.72.29-.93s-.55-.1-.93.29l-.05.06v-.08c0-.55-.16-.86-.45-.86s-.46.31-.46.86c0,0,0,0,0,.07l0-.05c-.39-.39-.72-.5-.93-.29s-.1.55.29.93l0,0h-.07c-.55,0-.86.17-.86.46s.31.45.86.45h.07l0,0a1.17,1.17,0,0,0-.39.68.36.36,0,0,0,.1.25s.4.35.93-.28l0-.06s0,.05,0,.08c0,.54.17.86.46.86s.45-.32.45-.86v-.07a.12.12,0,0,0,.05,0,1.17,1.17,0,0,0,.67.39h0l.17,0,.09-.08c.2-.21.1-.55-.29-.94l-.05,0h.07C129.39,215,129.71,214.88,129.71,214.59Z"/><path class="cls-1" d="M60.7,196.83c0-.46-.51-.73-1.39-.73h-.13l.1-.08c.62-.62.79-1.17.46-1.51s-.88-.17-1.51.46a.86.86,0,0,1-.07.1s0-.08,0-.12c0-.89-.27-1.4-.74-1.4s-.74.51-.74,1.4c0,0,0,.07,0,.11l-.08-.09c-.62-.62-1.17-.79-1.51-.46s-.16.89.47,1.51l.08.07h-.11c-.89,0-1.39.27-1.39.73s.5.75,1.39.75h.11l-.08.07a1.88,1.88,0,0,0-.63,1.1.56.56,0,0,0,.16.4s.65.57,1.51-.45l.08-.09s0,.07,0,.11c0,.89.27,1.4.74,1.4s.74-.51.74-1.4c0,0,0-.07,0-.11l.07.09a1.92,1.92,0,0,0,1.1.62h0l.27,0,.14-.14c.33-.33.16-.88-.46-1.51l-.09-.07h.12C60.19,197.58,60.7,197.31,60.7,196.83Z"/><path class="cls-1" d="M131,196.83c0-.46-.51-.73-1.39-.73h-.13l.1-.08c.62-.62.79-1.17.46-1.51s-.88-.17-1.51.46a.86.86,0,0,1-.07.1s0-.08,0-.12c0-.89-.27-1.4-.74-1.4s-.74.51-.74,1.4c0,0,0,.07,0,.11l-.08-.09c-.62-.62-1.17-.79-1.51-.46s-.16.89.47,1.51l.08.07h-.11c-.89,0-1.39.27-1.39.73s.5.75,1.39.75h.12l-.09.07a1.88,1.88,0,0,0-.63,1.1.56.56,0,0,0,.16.4s.65.57,1.51-.45l.08-.09s0,.07,0,.11c0,.89.27,1.4.74,1.4s.74-.51.74-1.4c0,0,0-.07,0-.11l.07.09a1.92,1.92,0,0,0,1.1.62h0l.27,0,.14-.14c.33-.33.16-.88-.46-1.51l-.09-.07h.12C130.45,197.58,131,197.31,131,196.83Z"/><polygon class="cls-2" points="121.94 288.36 123.28 277.94 124.62 288.36 123.28 293.48 121.94 288.36"/><polygon class="cls-2" points="126.35 288.36 127.69 277.94 129.03 288.36 127.69 293.48 126.35 288.36"/><polygon class="cls-2" points="130.75 288.36 132.09 277.94 133.44 288.36 132.09 293.48 130.75 288.36"/><polygon class="cls-2" points="51.68 288.36 53.02 277.94 54.36 288.36 53.02 293.48 51.68 288.36"/><polygon class="cls-2" points="56.09 288.36 57.43 277.94 58.77 288.36 57.43 293.48 56.09 288.36"/><polygon class="cls-2" points="60.49 288.36 61.83 277.94 63.17 288.36 61.83 293.48 60.49 288.36"/><polygon class="cls-2" points="51.68 300.19 53.02 296.77 54.36 300.19 53.02 301.88 51.68 300.19"/><polygon class="cls-2" points="56.09 300.19 57.43 296.77 58.77 300.19 57.43 301.88 56.09 300.19"/><polygon class="cls-2" points="60.49 300.19 61.83 296.77 63.17 300.19 61.83 301.88 60.49 300.19"/><polygon class="cls-2" points="121.94 300.19 123.28 296.77 124.62 300.19 123.28 301.88 121.94 300.19"/><polygon class="cls-2" points="126.35 300.19 127.69 296.77 129.03 300.19 127.69 301.88 126.35 300.19"/><polygon class="cls-2" points="130.75 300.19 132.09 296.77 133.44 300.19 132.09 301.88 130.75 300.19"/><circle class="cls-2" cx="53.02" cy="231.06" r="1.34"/><circle class="cls-2" cx="57.43" cy="231.06" r="1.34"/><circle class="cls-2" cx="61.83" cy="231.06" r="1.34"/><circle class="cls-2" cx="123.28" cy="231.06" r="1.34"/><circle class="cls-2" cx="127.69" cy="231.06" r="1.34"/><circle class="cls-2" cx="132.1" cy="231.06" r="1.34"/><line class="cls-2" x1="61.83" y1="253.57" x2="61.83" y2="233.75"/><line class="cls-2" x1="57.43" y1="253.57" x2="57.43" y2="233.75"/><line class="cls-2" x1="53.02" y1="253.57" x2="53.02" y2="233.75"/><line class="cls-2" x1="132.1" y1="253.57" x2="132.1" y2="233.75"/><line class="cls-2" x1="127.69" y1="253.57" x2="127.69" y2="233.75"/><line class="cls-2" x1="123.28" y1="253.57" x2="123.28" y2="233.75"/><path class="cls-1" d="M54.78,274.84c0-.25-.27-.39-.75-.39H54l.06,0c.33-.33.42-.63.24-.81s-.47-.09-.81.25l0,0s0,0,0-.07c0-.47-.15-.74-.4-.74s-.4.27-.4.74c0,0,0,0,0,.07l0,0c-.34-.34-.63-.43-.81-.25s-.09.48.25.81l0,0H52c-.47,0-.75.14-.75.39s.28.4.75.4h.06l0,0a1,1,0,0,0-.34.59.27.27,0,0,0,.09.21s.34.31.81-.24l0,0s0,0,0,.06c0,.48.15.75.4.75s.4-.27.4-.75c0,0,0,0,0-.06l0,0a1.07,1.07,0,0,0,.59.34h0l.15,0,.07-.07c.18-.18.09-.48-.24-.81l-.05,0H54C54.51,275.24,54.78,275.1,54.78,274.84Z"/><path class="cls-1" d="M59.19,274.84c0-.25-.28-.39-.75-.39h-.07l.05,0c.34-.33.43-.63.25-.81s-.47-.09-.81.25l0,0v-.07c0-.47-.14-.74-.39-.74s-.4.27-.4.74a.17.17,0,0,0,0,.07l0,0c-.33-.34-.63-.43-.81-.25s-.08.48.25.81l0,0h-.06c-.48,0-.75.14-.75.39s.27.4.75.4h.06l0,0a1,1,0,0,0-.33.59.3.3,0,0,0,.08.21s.35.31.81-.24l0,0a.13.13,0,0,0,0,.06c0,.48.15.75.4.75s.39-.27.39-.75v-.06l0,0a1.07,1.07,0,0,0,.59.34h0l.15,0,.07-.07c.18-.18.09-.48-.25-.81a.1.1,0,0,0-.05,0h.07C58.91,275.24,59.19,275.1,59.19,274.84Z"/><path class="cls-1" d="M63.59,274.84c0-.25-.27-.39-.75-.39h-.06s0,0,0,0c.33-.33.42-.63.25-.81s-.48-.09-.81.25l0,0v-.07c0-.47-.14-.74-.4-.74s-.39.27-.39.74v.07a.1.1,0,0,0,0,0c-.34-.34-.63-.43-.81-.25s-.09.48.25.81l0,0h-.06c-.47,0-.74.14-.74.39s.27.4.74.4h.07l0,0a1,1,0,0,0-.34.59.27.27,0,0,0,.09.21s.35.31.81-.24l0,0v.06c0,.48.14.75.39.75s.4-.27.4-.75v-.06a.1.1,0,0,0,0,0,1,1,0,0,0,.58.34h0l.14,0,.08-.07c.17-.18.08-.48-.25-.81l0,0h.06C63.32,275.24,63.59,275.1,63.59,274.84Z"/><path class="cls-1" d="M125,274.84c0-.25-.27-.39-.75-.39h-.07l.06,0c.33-.33.42-.63.25-.81s-.48-.09-.82.25l0,0s0,0,0-.07c0-.47-.15-.74-.4-.74s-.4.27-.4.74c0,0,0,0,0,.07s0,0,0,0c-.34-.34-.63-.43-.81-.25s-.09.48.25.81l0,0h-.06c-.47,0-.75.14-.75.39s.28.4.75.4h.06l0,0a1,1,0,0,0-.34.59.27.27,0,0,0,.09.21s.34.31.81-.24l0,0s0,0,0,.06c0,.48.15.75.4.75s.4-.27.4-.75c0,0,0,0,0-.06l0,0a1.07,1.07,0,0,0,.59.34h0l.15,0,.08-.07c.17-.18.08-.48-.25-.81l0,0h.06C124.77,275.24,125,275.1,125,274.84Z"/><path class="cls-1" d="M129.45,274.84c0-.25-.28-.39-.75-.39h-.07s0,0,.05,0c.34-.33.43-.63.25-.81s-.47-.09-.81.25l0,0s0,0,0-.07c0-.47-.15-.74-.4-.74s-.4.27-.4.74c0,0,0,0,0,.07l0,0c-.34-.34-.64-.43-.82-.25s-.08.48.25.81l0,0h-.06c-.48,0-.75.14-.75.39s.27.4.75.4h.06l0,0a1,1,0,0,0-.33.59.3.3,0,0,0,.08.21s.35.31.82-.24l0,0s0,0,0,.06c0,.48.15.75.4.75s.4-.27.4-.75c0,0,0,0,0-.06l0,0a1.07,1.07,0,0,0,.59.34h0l.15,0,.07-.07c.18-.18.09-.48-.25-.81l0,0h.06C129.17,275.24,129.45,275.1,129.45,274.84Z"/><path class="cls-1" d="M133.85,274.84c0-.25-.27-.39-.75-.39H133s0,0,.05,0c.33-.33.43-.63.25-.81s-.47-.09-.81.25l0,0v-.07c0-.47-.14-.74-.39-.74s-.4.27-.4.74v.07a.1.1,0,0,0,0,0c-.33-.34-.63-.43-.81-.25s-.09.48.25.81l0,0h0c-.48,0-.75.14-.75.39s.27.4.75.4h.06l-.05,0a1,1,0,0,0-.34.59.27.27,0,0,0,.09.21s.35.31.81-.24l0,0v.06c0,.48.14.75.4.75s.39-.27.39-.75v-.06l0,0a1,1,0,0,0,.59.34h0l.14,0,.08-.07c.18-.18.09-.48-.25-.81l-.05,0h.06C133.58,275.24,133.85,275.1,133.85,274.84Z"/><line class="cls-2" x1="61.83" y1="271.74" x2="61.83" y2="259.56"/><line class="cls-2" x1="57.43" y1="271.74" x2="57.43" y2="259.56"/><line class="cls-2" x1="53.02" y1="271.74" x2="53.02" y2="259.56"/><line class="cls-2" x1="132.1" y1="271.74" x2="132.1" y2="259.56"/><line class="cls-2" x1="127.69" y1="271.74" x2="127.69" y2="259.56"/><line class="cls-2" x1="123.28" y1="271.74" x2="123.28" y2="259.56"/><path class="cls-3" d="M118.87,212.29a3.26,3.26,0,1,0,4.61,0A3.25,3.25,0,0,0,118.87,212.29Z"/><path class="cls-3" d="M136.5,216.89a3.26,3.26,0,1,0-4.6,0A3.24,3.24,0,0,0,136.5,216.89Z"/><circle class="cls-3" cx="127.69" cy="208.08" r="3.26"/><path class="cls-3" d="M127.69,217.84a3.26,3.26,0,1,0-2.3-1A3.21,3.21,0,0,0,127.69,217.84Z"/><path class="cls-3" d="M125.39,223.4a3.26,3.26,0,1,0,0-4.6A3.24,3.24,0,0,0,125.39,223.4Z"/><circle class="cls-4" cx="127.69" cy="214.59" r="9.9"/><path class="cls-4" d="M48.44,212.29a3.26,3.26,0,1,0,4.61,0A3.25,3.25,0,0,0,48.44,212.29Z"/><path class="cls-4" d="M66.07,216.89a3.25,3.25,0,1,0-4.6-4.6,3.24,3.24,0,0,0,0,4.6A3.25,3.25,0,0,0,66.07,216.89Z"/><circle class="cls-4" cx="57.26" cy="208.08" r="3.26"/><path class="cls-4" d="M57.26,217.84a3.24,3.24,0,1,0-2.31-1A3.23,3.23,0,0,0,57.26,217.84Z"/><path class="cls-4" d="M55,223.4a3.26,3.26,0,1,0,0-4.6A3.25,3.25,0,0,0,55,223.4Z"/><circle class="cls-3" cx="57.26" cy="214.59" r="9.9"/><circle class="cls-5" cx="127.69" cy="214.59" r="11.68"/><circle class="cls-5" cx="57.26" cy="214.59" r="11.68"/></svg>