<?xml version="1.0" standalone="no"?>
<!DOCTYPE svg PUBLIC "-//W3C//DTD SVG 1.0//EN" "http://www.w3.org/TR/2001/REC-SVG-20010904/DTD/svg10.dtd">
<svg xmlns="http://www.w3.org/2000/svg" xmlns:xlink="http://www.w3.org/1999/xlink" id="body_10" width="247" height="421">

<defs>
    <clipPath  id="1">

    <path id=""  clip-rule="evenodd" transform="matrix(1 0 0 1 0 0)"  d="M0 316L0 0L0 0L185 0L185 0L185 316L185 316L0 316z" />    </clipPath>
    <clipPath  id="2">

    <path id=""  clip-rule="evenodd" transform="matrix(1 0 0 1 0 0)"  d="M0 0L185 0L185 0L185 316L185 316L0 316z" />    </clipPath>
</defs>

<g transform="matrix(1.3333 0 0 1.3333 0 0)">
	<g clip-path="url(#1)" >
		<g clip-path="url(#2)" >
    <path id=""  transform="matrix(1 0 0 -1 0 316)"  d="M95.2353 215.3553C 97.166306 219.2773 94.0193 218.41829 94.0193 218.41829C 94.0193 218.41829 93.7143 220.2473 95.3403 220.1453C 96.9653 220.04329 96.7623 218.11429 96.7623 218.11429C 96.7623 218.11429 97.2693 218.9263 97.8793 219.4343C 98.4883 219.94229 100.6223 219.73929 100.6223 219.73929L100.6223 219.73929L100.6223 217.6063C 100.6223 216.5903 99.4023 215.6753 99.4023 215.6753C 100.9273 216.3873 101.3333 215.2693 101.3333 215.2693C 101.8413 213.3393 100.1143 213.0353 100.1143 213.0353C 100.1953 215.2363 97.5943 214.2963 96.5633 213.8403C 96.7853 213.4343 96.9483 212.9923 97.0423 212.5233C 106.2413 212.34529 108.8503 213.9493 108.8503 213.9493C 114.8443 217.70729 110.5773 218.9263 110.5773 218.9263C 111.8973 219.6373 114.3353 219.6373 114.3353 217.0983C 114.3353 214.55829 111.390305 213.4413 111.390305 213.4413C 111.390305 213.4413 112.7103 213.9493 113.725296 213.9493C 114.7133 213.9493 116.656296 211.72429 116.768295 211.5963L116.768295 211.5963L116.776306 211.5963L116.776306 211.5963L116.7713 211.5923L116.7713 211.5923L116.7733 211.5903L116.7733 211.5903L116.7703 211.5903C 116.6593 211.4643 114.7153 209.29129 113.7273 209.29129C 112.712296 209.29129 111.3913 209.7993 111.3913 209.7993C 111.3913 209.7993 114.337296 208.68129 114.337296 206.14229C 114.337296 203.6023 111.8993 203.6023 110.5793 204.3143C 110.5793 204.3143 114.8463 205.5333 108.8523 209.29129C 108.8523 209.29129 106.2423 210.8963 97.0423 210.7163C 96.9493 210.24829 96.7863 209.8073 96.5643 209.4023C 97.5943 208.9453 100.197296 208.00229 100.1163 210.2063C 100.1163 210.2063 101.8433 209.90129 101.3353 207.97029C 101.3353 207.97029 100.9293 206.8533 99.405304 207.5643C 99.405304 207.5643 100.6233 206.6503 100.6233 205.6343L100.6233 205.6343L100.6233 203.5013C 100.6233 203.5013 98.4903 203.2973 97.8813 203.80629C 97.2713 204.3143 96.7643 205.1263 96.7643 205.1263C 96.7643 205.1263 96.9673 203.19629 95.3423 203.0943C 93.7163 202.9933 94.0213 204.8223 94.0213 204.8223C 94.0213 204.8223 97.1693 203.96329 95.2363 207.88629C 94.7013 207.4933 94.0793 207.21129 93.403305 207.0783C 93.2233 197.8783 94.8283 195.26929 94.8283 195.26929C 98.5873 189.27629 99.806305 193.5423 99.806305 193.5423C 100.5163 192.2213 100.5163 189.7843 97.9763 189.7843C 95.4383 189.7843 94.3203 192.7293 94.3203 192.7293C 94.3203 192.7293 94.8283 191.4103 94.8283 190.3933C 94.8283 189.40729 92.6543 187.4623 92.5293 187.35129L92.5293 187.35129L92.5293 187.3443L92.5293 187.3443L92.5253 187.34729L92.5253 187.34729L92.5233 187.34529L92.5233 187.34529L92.5233 187.34929C 92.3943 187.4603 90.1713 189.40529 90.1713 190.3913C 90.1713 191.40729 90.6793 192.7273 90.6793 192.7273C 90.6793 192.7273 89.5623 189.78229 87.0213 189.78229C 84.4823 189.78229 84.4823 192.22029 85.1933 193.5403C 85.1933 193.5403 86.4123 189.27429 90.1713 195.2673C 90.1713 195.2673 91.7753 197.8763 91.5973 207.0783C 90.9213 207.21129 90.3003 207.4923 89.7643 207.8843C 87.8333 203.96329 90.9803 204.8223 90.9803 204.8223C 90.9803 204.8223 91.2853 202.9933 89.6603 203.0943C 88.0343 203.19629 88.238304 205.1263 88.238304 205.1263C 88.238304 205.1263 87.7293 204.3143 87.1203 203.80629C 86.5103 203.2973 84.3783 203.5013 84.3783 203.5013L84.3783 203.5013L84.3783 205.6343C 84.3783 206.6503 85.5963 207.5643 85.5963 207.5643C 84.0723 206.8533 83.6673 207.97029 83.6673 207.97029C 83.1583 209.90129 84.8863 210.2063 84.8863 210.2063C 84.8043 208.0033 87.405304 208.94429 88.4353 209.40129C 88.2133 209.80629 88.0513 210.24829 87.9583 210.7163C 78.7583 210.8953 76.1493 209.29129 76.1493 209.29129C 70.1563 205.5333 74.4233 204.3143 74.4233 204.3143C 73.1013 203.6023 70.6643 203.6023 70.6643 206.14229C 70.6643 208.68129 73.6093 209.7993 73.6093 209.7993C 73.6093 209.7993 72.2893 209.29129 71.2723 209.29129C 70.2873 209.29129 68.3433 211.4643 68.2313 211.5903L68.2313 211.5903L68.2233 211.5903L68.2233 211.5903L68.2273 211.5943L68.2273 211.5943L68.2253 211.5963L68.2253 211.5963L68.2293 211.5963C 68.3413 211.72429 70.2843 213.9493 71.2703 213.9493C 72.2873 213.9493 73.6063 213.4413 73.6063 213.4413C 73.6063 213.4413 70.6623 214.55829 70.6623 217.0983C 70.6623 219.6373 73.099304 219.6373 74.4213 218.9263C 74.4213 218.9263 70.1543 217.70729 76.1463 213.9493C 76.1463 213.9493 78.7563 212.3443 87.9583 212.5233C 88.0503 212.9913 88.2133 213.4343 88.4353 213.8393C 87.4073 214.29529 84.8023 215.2383 84.8843 213.0353C 84.8843 213.0353 83.1563 213.3393 83.6653 215.2693C 83.6653 215.2693 84.0703 216.3873 85.5953 215.6753C 85.5953 215.6753 84.3753 216.5903 84.3753 217.6063L84.3753 217.6063L84.3753 219.73929C 84.3753 219.73929 86.5093 219.94229 87.1173 219.4343C 87.7273 218.9263 88.2353 218.11429 88.2353 218.11429C 88.2353 218.11429 88.0313 220.04329 89.6583 220.1453C 91.2833 220.2473 90.9783 218.41829 90.9783 218.41829C 90.9783 218.41829 87.8313 219.2773 89.7623 215.3543C 90.2983 215.74829 90.9213 216.02829 91.5973 216.1623C 91.7753 225.36429 90.1713 227.9733 90.1713 227.9733C 86.4123 233.9663 85.1933 229.70029 85.1933 229.70029C 84.4823 231.0203 84.4823 233.4583 87.0213 233.4583C 89.5623 233.4583 90.6793 230.5123 90.6793 230.5123C 90.6793 230.5123 90.1713 231.83229 90.1713 232.84929C 90.1713 233.8353 92.3943 235.7793 92.5233 235.8913L92.5233 235.8913L92.5233 235.89429L92.5233 235.89429L92.5253 235.8933L92.5253 235.8933L92.5293 235.8963L92.5293 235.8963L92.5293 235.8893C 92.6543 235.77829 94.8283 233.8333 94.8283 232.8463C 94.8283 231.8313 94.3203 230.5103 94.3203 230.5103C 94.3203 230.5103 95.4383 233.4563 97.9763 233.4563C 100.5163 233.4563 100.5163 231.0183 99.806305 229.69829C 99.806305 229.69829 98.5873 233.9643 94.8283 227.9713C 94.8283 227.9713 93.2233 225.36229 93.403305 216.1623C 94.0783 216.02829 94.7003 215.74829 95.2353 215.3553zM94.7313 224.2513C 100.0243 223.3223 104.2003 219.1463 105.1313 213.8533L105.1313 213.8533L105.5103 213.9153L105.5103 213.9153L105.875305 213.9823L105.875305 213.9823L106.2103 214.0493L106.2103 214.0493L106.5193 214.1183L106.5193 214.1183L106.8023 214.18529L106.8023 214.18529L107.058304 214.2513L107.058304 214.2513L107.0703 214.25429C 105.9803 220.31929 101.197296 225.10129 95.1343 226.1913L95.1343 226.1913L95.1303 226.17929L95.1303 226.17929L95.0643 225.9233L95.0643 225.9233L94.9973 225.6413L94.9973 225.6413L94.9303 225.3313L94.9303 225.3313L94.8613 224.99629L94.8613 224.99629L94.794304 224.6313L94.794304 224.6313L94.7313 224.2513zM105.1313 209.38829C 104.2003 204.09529 100.0243 199.91829 94.7313 198.98929L94.7313 198.98929L94.7953 198.6093L94.7953 198.6093L94.8613 198.24629L94.8613 198.24629L94.9303 197.9093L94.9303 197.9093L94.9973 197.59929L94.9973 197.59929L95.0643 197.3183L95.0643 197.3183L95.1303 197.0613L95.1303 197.0613L95.1343 197.0493C 101.197296 198.1393 105.9803 202.9223 107.0703 208.98729L107.0703 208.98729L107.0593 208.9903L107.0593 208.9903L106.8043 209.05629L106.8043 209.05629L106.5203 209.12329L106.5203 209.12329L106.2123 209.1913L106.2123 209.1913L105.875305 209.2583L105.875305 209.2583L105.5113 209.3253L105.5113 209.3253L105.1313 209.38829zM90.266304 198.9903C 84.974304 199.91829 80.7983 204.09529 79.8693 209.38829L79.8693 209.38829L79.488304 209.3253L79.488304 209.3253L79.1253 209.2583L79.1253 209.2583L78.7883 209.19029L78.7883 209.19029L78.4783 209.12329L78.4783 209.12329L78.196304 209.0553L78.196304 209.0553L77.9403 208.9903L77.9403 208.9903L77.9293 208.98729C 79.0183 202.9223 83.8023 198.1393 89.8663 197.0493L89.8663 197.0493L89.8693 197.0593L89.8693 197.0593L89.9353 197.3163L89.9353 197.3163L90.0033 197.5983L90.0033 197.5983L90.0703 197.90729L90.0703 197.90729L90.1373 198.2433L90.1373 198.2433L90.2043 198.60829L90.2043 198.60829L90.266304 198.9903zM79.8693 213.8523C 80.7983 219.1453 84.974304 223.3223 90.266304 224.2513L90.266304 224.2513L90.2043 224.6333L90.2043 224.6333L90.1373 224.9973L90.1373 224.9973L90.0703 225.3333L90.0703 225.3333L90.0033 225.64229L90.0033 225.64229L89.9353 225.9243L89.9353 225.9243L89.8693 226.18129L89.8693 226.18129L89.8663 226.1913C 83.8023 225.10129 79.0173 220.3183 77.9293 214.2533L77.9293 214.2533L77.9383 214.2513L77.9383 214.2513L78.1953 214.18529L78.1953 214.18529L78.4773 214.1183L78.4773 214.1183L78.7863 214.0493L78.7863 214.0493L79.1233 213.9823L79.1233 213.9823L79.4863 213.9153L79.4863 213.9153L79.8693 213.8523z" stroke="#E7BC9E" stroke-width="0.425" fill="none" />
    <path id=""  transform="matrix(1 0 0 -1 0 316)"  d="M95.3918 211.6199C 95.3918 210.0229 94.0968 208.7279 92.4998 208.7279C 90.9028 208.7279 89.6078 210.0229 89.6078 211.6199C 89.6078 213.21791 90.9028 214.51291 92.4998 214.51291C 94.0968 214.51291 95.3918 213.21791 95.3918 211.6199" stroke="none" fill="#E7BC9E" fill-rule="evenodd" />
    <path id=""  transform="matrix(1 0 0 -1 0 316)"  d="M99.8674 218.9217C 99.6174 218.4797 99.3224 218.07771 99.0194 217.68471C 98.7214 217.28471 98.3914 216.9167 98.0604 216.54771C 97.721405 216.18971 97.3794 215.82971 97.0064 215.50171C 96.6364 215.1687 96.2614 214.84271 95.8384 214.5587C 96.0874 215.00171 96.3834 215.40271 96.6854 215.79771C 96.9834 216.19571 97.3134 216.56471 97.6444 216.93271C 97.9854 217.29071 98.3274 217.65071 98.7004 217.97871C 99.069405 218.3117 99.445404 218.63771 99.8674 218.9217" stroke="none" fill="#E7BC9E" fill-rule="nonzero" />
    <path id=""  transform="matrix(1 0 0 -1 0 316)"  d="M85.1701 218.9598C 85.5841 218.6798 85.953094 218.35779 86.315094 218.0298C 86.6811 217.7058 87.0151 217.3528 87.3481 216.99779C 87.6721 216.63579 87.994095 216.27179 88.284096 215.87779C 88.579094 215.4878 88.867096 215.09279 89.1081 214.6538C 88.6931 214.93379 88.3241 215.2558 87.9631 215.58379C 87.5971 215.90779 87.2631 216.2618 86.9301 216.6158C 86.60709 216.9798 86.284096 217.3438 85.994095 217.73679C 85.6991 218.1268 85.412094 218.5228 85.1701 218.9598" stroke="none" fill="#E7BC9E" fill-rule="nonzero" />
    <path id=""  transform="matrix(1 0 0 -1 0 316)"  d="M85.132 204.2625C 85.382 204.7045 85.678 205.10649 85.981 205.5005C 86.27801 205.89949 86.609 206.2685 86.939 206.63649C 87.27901 206.9955 87.62 207.35449 87.994 207.6835C 88.36301 208.0155 88.739006 208.3425 89.161 208.6255C 88.912 208.1825 88.616005 207.7825 88.315 207.3875C 88.017006 206.9895 87.687004 206.61949 87.356 206.2515C 87.01401 205.8935 86.673004 205.5345 86.299 205.20549C 85.93 204.8725 85.554 204.5465 85.132 204.2625" stroke="none" fill="#E7BC9E" fill-rule="nonzero" />
    <path id=""  transform="matrix(1 0 0 -1 0 316)"  d="M99.8303 204.2244C 99.4093 204.5134 99.0343 204.84439 98.6663 205.1814C 98.2943 205.51439 97.9543 205.8774 97.614296 206.2404C 97.2853 206.6124 96.9563 206.9854 96.6603 207.38739C 96.3593 207.78639 96.0653 208.1904 95.8183 208.6364C 96.239296 208.34839 96.614296 208.0174 96.9823 207.68039C 97.3543 207.3474 97.6943 206.9854 98.0333 206.6214C 98.3623 206.2484 98.6913 205.87639 98.9873 205.47339C 99.2883 205.0764 99.5823 204.6704 99.8303 204.2244" stroke="none" fill="#E7BC9E" fill-rule="nonzero" />
		</g>
	</g>
</g>
</svg>