<?xml version="1.0" standalone="no"?>
<!DOCTYPE svg PUBLIC "-//W3C//DTD SVG 1.0//EN" "http://www.w3.org/TR/2001/REC-SVG-20010904/DTD/svg10.dtd">
<svg xmlns="http://www.w3.org/2000/svg" xmlns:xlink="http://www.w3.org/1999/xlink" id="body_12" width="247" height="421">

<defs>
    <clipPath  id="1">

    <path id=""  clip-rule="evenodd" transform="matrix(1 0 0 1 0 0)"  d="M0 316L0 0L0 0L185 0L185 0L185 316L185 316L0 316z" />    </clipPath>
    <clipPath  id="2">

    <path id=""  clip-rule="evenodd" transform="matrix(1 0 0 1 0 0)"  d="M0 0L185 0L185 0L185 316L185 316L0 316z" />    </clipPath>
</defs>

<g transform="matrix(1.3333 0 0 1.3333 0 0)">
	<g clip-path="url(#1)" >
		<g clip-path="url(#2)" >
    <path id=""  transform="matrix(1 0 0 -1 0 316)"  d="M108.1418 225.2956C 108.0738 225.2356 108.0658 225.13159 108.1248 225.06259C 111.0388 221.68259 112.745804 217.5376 113.0598 213.07559C 113.065796 212.98859 113.1378 212.92259 113.2238 212.92259L113.2238 212.92259L113.2358 212.92259C 113.3268 212.9296 113.3948 213.00859 113.3888 213.0996C 113.0698 217.6326 111.3358 221.8436 108.3748 225.27759C 108.3158 225.3476 108.2108 225.35559 108.1418 225.2956" stroke="none" fill="#E7BC9E" fill-rule="nonzero" />
    <path id=""  transform="matrix(1 0 0 -1 0 316)"  d="M94.0149 232.5065C 93.9259 232.5125 93.8449 232.4445 93.8389 232.3535C 93.8319 232.2625 93.9009 232.1835 93.9919 232.1765C 98.4369 231.8565 102.5679 230.1525 105.9369 227.2495C 105.9679 227.2225 106.0059 227.2095 106.0449 227.2095C 106.0909 227.2095 106.1369 227.2295 106.1699 227.2675C 106.229904 227.3355 106.2219 227.4405 106.1529 227.4995C 102.7289 230.4485 98.5329 232.1805 94.0149 232.5065" stroke="none" fill="#E7BC9E" fill-rule="nonzero" />
    <path id=""  transform="matrix(1 0 0 -1 0 316)"  d="M100.1321 228.1081C 99.8311 228.03409 99.821106 227.6781 99.7901 226.62509C 99.7471 225.16109 99.6761 222.71109 98.5831 222.12709C 98.462105 222.06209 98.4161 221.91309 98.4811 221.7921C 98.5261 221.70909 98.6111 221.66109 98.699104 221.66109C 98.738106 221.66109 98.77811 221.6711 98.8161 221.6901C 100.1631 222.40909 100.2361 224.93709 100.2851 226.61009C 100.294106 226.9001 100.3031 227.21309 100.321106 227.43509C 100.379105 227.4211 100.4441 227.4281 100.5001 227.46109C 100.6191 227.52809 100.6611 227.6781 100.5941 227.79709C 100.5361 227.9001 100.3821 228.17009 100.1321 228.1081" stroke="none" fill="#E7BC9E" fill-rule="nonzero" />
    <path id=""  transform="matrix(1 0 0 -1 0 316)"  d="M108.678 219.7135C 108.559 219.7805 108.407 219.7385 108.340004 219.6195C 108.309 219.5635 108.301 219.4995 108.315 219.4415C 108.094 219.42351 107.78 219.4135 107.491005 219.4055C 105.817 219.3575 103.288 219.2825 102.57 217.93651C 102.506004 217.8155 102.551 217.6655 102.672005 217.6015C 102.709 217.5805 102.749 217.5715 102.788 217.5715C 102.877 217.5715 102.962 217.6195 103.007 217.7025C 103.590004 218.7965 106.04 218.86751 107.505005 218.9105C 108.559 218.9415 108.913 218.9515 108.989 219.2525C 109.05 219.5035 108.78 219.6555 108.678 219.7135" stroke="none" fill="#E7BC9E" fill-rule="nonzero" />
    <path id=""  transform="matrix(1 0 0 -1 0 316)"  d="M104.2786 225.5817C 104.2366 225.6247 104.17461 225.6447 104.1106 225.6317C 104.011604 225.6107 103.9486 225.5137 103.969604 225.4137C 104.330605 223.7417 102.216606 221.60269 102.1956 221.58069C 102.1246 221.50969 102.1246 221.39369 102.1956 221.3207C 102.2666 221.2497 102.3826 221.2497 102.455605 221.3207C 102.5486 221.4147 104.730606 223.6237 104.328606 225.49069C 104.3206 225.5267 104.302605 225.5587 104.2786 225.5817" stroke="none" fill="#E7BC9E" fill-rule="nonzero" />
    <path id=""  transform="matrix(1 0 0 -1 0 316)"  d="M106.7551 226.1286L100.9051 220.2786C 100.8331 220.2066 100.8331 220.0906 100.9051 220.0196C 100.9771 219.9476 101.093094 219.9476 101.16409 220.0196L101.16409 220.0196L107.0141 225.8686C 107.0861 225.9406 107.0861 226.0566 107.0141 226.1286C 106.94209 226.1996 106.826096 226.1996 106.7551 226.1286" stroke="none" fill="#E7BC9E" fill-rule="nonzero" />
    <path id=""  transform="matrix(1 0 0 -1 0 316)"  d="M108.0442 227.5797C 107.4902 227.7217 106.8152 226.8597 106.768196 226.33769C 106.768196 226.33769 107.0372 226.3917 107.1842 226.2257C 107.3292 226.0597 107.2332 225.81169 107.2332 225.81169C 107.2332 225.81169 108.008194 225.9267 108.2922 226.5047C 108.576195 227.0817 108.5982 227.43669 108.0442 227.5797" stroke="none" fill="#E7BC9E" fill-rule="nonzero" />
    <path id=""  transform="matrix(1 0 0 -1 0 316)"  d="M103.8147 227.3083C 103.3387 226.9653 103.3237 226.06131 103.8247 225.5603C 103.8247 225.5603 104.2537 225.9993 104.4077 225.6423C 104.4077 225.6423 104.7707 225.9543 104.750694 226.4543C 104.7297 226.9553 104.290695 227.6513 103.8147 227.3083" stroke="none" fill="#E7BC9E" fill-rule="nonzero" />
    <path id=""  transform="matrix(1 0 0 -1 0 316)"  d="M106.3713 223.4489C 104.5043 223.85089 102.2953 221.6679 102.2013 221.5749C 102.1303 221.50389 102.1303 221.3869 102.2013 221.3149C 102.2723 221.2439 102.3893 221.2439 102.461296 221.3149C 102.4823 221.3369 104.6213 223.4499 106.2943 223.0899C 106.3923 223.0679 106.4903 223.1319 106.5123 223.2299C 106.5253 223.2939 106.5053 223.3559 106.4623 223.3989C 106.4383 223.4239 106.4073 223.4409 106.3713 223.4489" stroke="none" fill="#E7BC9E" fill-rule="nonzero" />
    <path id=""  transform="matrix(1 0 0 -1 0 316)"  d="M107.3352 223.8698C 106.8342 223.8908 106.522194 223.5278 106.522194 223.5278C 106.880196 223.3738 106.4402 222.9448 106.4402 222.9448C 106.9412 222.4438 107.8462 222.4588 108.18919 222.93379C 108.5302 223.40979 107.8352 223.8488 107.3352 223.8698" stroke="none" fill="#E7BC9E" fill-rule="nonzero" />
    <path id=""  transform="matrix(1 0 0 -1 0 316)"  d="M94.2717 217.6588C 94.4937 217.5938 94.7117 217.5148 94.9267 217.4258C 95.0487 217.4968 95.1707 217.5688 95.291695 217.6358C 98.1347 219.2158 100.2147 219.3358 100.2147 219.3358C 100.2147 219.3358 100.083694 217.0748 98.304695 214.04579C 98.3947 213.8308 98.4737 213.6128 98.5387 213.3908C 103.2297 218.1648 103.485695 222.6048 103.485695 222.6048C 103.485695 222.6048 101.4047 222.4848 98.5607 220.9048C 97.2507 220.1778 95.777695 219.1378 94.2717 217.6588" stroke="none" fill="#E7BC9E" fill-rule="nonzero" />
    <path id=""  transform="matrix(1 0 0 -1 0 316)"  d="M92.5247 217.9118C 92.6037 217.9108 92.68269 217.9058 92.762695 217.90181C 94.9517 221.75081 97.358696 223.1118 97.358696 223.1118C 97.358696 223.1118 97.6347 222.0918 97.5617 220.30681C 97.903694 220.5258 98.23769 220.72481 98.5607 220.9048C 99.3437 224.4868 98.750694 226.67981 98.750694 226.67981C 98.750694 226.67981 94.914696 224.51381 92.5247 217.9118" stroke="none" fill="#E7BC9E" fill-rule="nonzero" />
    <path id=""  transform="matrix(1 0 0 -1 0 316)"  d="M92.5005 218.3446C 90.7045 218.3446 89.0145 217.6456 87.7455 216.3746C 86.4745 215.1056 85.7755 213.4166 85.7755 211.6196C 85.7755 209.82361 86.4745 208.1356 87.7455 206.8646C 89.055504 205.5546 90.777504 204.8996 92.5005 204.8996C 94.221504 204.8996 95.9445 205.5546 97.2555 206.8646C 99.8775 209.4866 99.8775 213.7536 97.2555 216.3746C 95.9845 217.6456 94.2965 218.3446 92.5005 218.3446M96.6165 207.5036C 94.346504 205.2336 90.6535 205.2336 88.3845 207.5036C 87.2845 208.6036 86.6785 210.0656 86.6785 211.6196C 86.6785 213.1756 87.2845 214.6376 88.3845 215.7366C 89.4835 216.83661 90.9455 217.4416 92.5005 217.4416C 94.054504 217.4416 95.5165 216.83661 96.6165 215.7366C 98.8865 213.4666 98.8865 209.7736 96.6165 207.5036" stroke="none" fill="#E7BC9E" fill-rule="nonzero" />
    <path id=""  transform="matrix(1 0 0 -1 0 316)"  d="M113.2307 210.2292C 113.136696 210.2362 113.0607 210.1672 113.053696 210.07721C 112.723694 205.6262 111.000694 201.4892 108.066696 198.1122C 108.0067 198.0422 108.014694 197.93921 108.083694 197.8782C 108.1147 197.8512 108.153694 197.8382 108.191696 197.8382C 108.2377 197.8382 108.2837 197.8582 108.316696 197.8952C 111.2957 201.32721 113.0477 205.5302 113.3827 210.0522C 113.389694 210.1432 113.3217 210.2222 113.2307 210.2292" stroke="none" fill="#E7BC9E" fill-rule="nonzero" />
    <path id=""  transform="matrix(1 0 0 -1 0 316)"  d="M108.1077 225.3346C 108.0387 225.27359 108.0317 225.1706 108.0907 225.1016C 111.0067 221.73059 112.722694 217.60559 113.0527 213.1706C 113.0597 213.08359 113.1317 213.0186 113.2177 213.0186L113.2177 213.0186L113.2297 213.0186C 113.320694 213.0246 113.388695 213.1046 113.3817 213.1946C 113.0467 217.7016 111.303696 221.8936 108.3397 225.31659C 108.28069 225.3866 108.1757 225.39459 108.1077 225.3346" stroke="none" fill="#E7BC9E" fill-rule="nonzero" />
    <path id=""  transform="matrix(1 0 0 -1 0 316)"  d="M109.5559 217.8825C 109.2909 218.04251 109.0329 217.79851 108.2649 217.07451C 107.1999 216.07051 105.4169 214.3885 104.2309 214.7485C 104.1009 214.78851 103.9619 214.71451 103.9209 214.58351C 103.8819 214.45251 103.9549 214.31451 104.0859 214.27551C 104.2459 214.2265 104.410904 214.2035 104.5789 214.2035C 105.9429 214.2035 107.5209 215.6925 108.604904 216.71451C 108.8159 216.91351 109.0439 217.12851 109.2129 217.27351C 109.2449 217.22151 109.2949 217.1815 109.3579 217.1645C 109.4899 217.1275 109.6249 217.20451 109.6619 217.3365C 109.6939 217.4485 109.7779 217.7485 109.5559 217.8825" stroke="none" fill="#E7BC9E" fill-rule="nonzero" />
    <path id=""  transform="matrix(1 0 0 -1 0 316)"  d="M109.3577 206.0758C 109.2957 206.0578 109.2457 206.0178 109.2127 205.9678C 109.04469 206.11081 108.8157 206.32681 108.6047 206.52481C 107.386696 207.6748 105.5477 209.4088 104.0867 208.9658C 103.955696 208.92581 103.8817 208.78781 103.9207 208.6568C 103.9617 208.5258 104.09969 208.45181 104.2307 208.4918C 105.416695 208.8528 107.1997 207.1698 108.264694 206.16481C 108.8827 205.58281 109.1707 205.3108 109.3977 205.3108C 109.4527 205.3108 109.5037 205.32681 109.555695 205.3578C 109.777695 205.4918 109.693695 205.7908 109.6627 205.90381C 109.625694 206.03581 109.48869 206.1118 109.3577 206.0758" stroke="none" fill="#E7BC9E" fill-rule="nonzero" />
    <path id=""  transform="matrix(1 0 0 -1 0 316)"  d="M110.3645 213.2633C 109.4365 211.82631 106.428505 211.80731 106.3985 211.80731C 106.2985 211.80731 106.2165 211.72531 106.2165 211.6243C 106.2165 211.5233 106.2985 211.4413 106.3985 211.4413C 106.5305 211.4413 109.636505 211.4593 110.6725 213.0643C 110.691505 213.0953 110.7015 213.1293 110.7015 213.1633C 110.7015 213.2243 110.6725 213.28331 110.6175 213.3183C 110.5325 213.3723 110.4195 213.34831 110.3645 213.2633" stroke="none" fill="#E7BC9E" fill-rule="nonzero" />
    <path id=""  transform="matrix(1 0 0 -1 0 316)"  d="M112.8381 211.7995L104.56609 211.7995C 104.465096 211.7995 104.382095 211.7175 104.382095 211.6155C 104.382095 211.5145 104.465096 211.4325 104.56609 211.4325L104.56609 211.4325L112.8381 211.4325C 112.940094 211.4325 113.022095 211.5145 113.022095 211.6155C 113.022095 211.7175 112.940094 211.7995 112.8381 211.7995" stroke="none" fill="#E7BC9E" fill-rule="nonzero" />
    <path id=""  transform="matrix(1 0 0 -1 0 316)"  d="M112.9963 211.9381C 112.9963 211.9381 113.2243 211.7861 113.2103 211.5651C 113.1963 211.3441 112.9533 211.23709 112.9533 211.23709C 112.9533 211.23709 113.5823 210.7701 114.1913 210.97809C 114.8013 211.1861 115.0673 211.4211 114.7763 211.9141C 114.4853 212.4061 113.3983 212.2731 112.9963 211.9381" stroke="none" fill="#E7BC9E" fill-rule="nonzero" />
    <path id=""  transform="matrix(1 0 0 -1 0 316)"  d="M111.594 214.7126C 111.016 214.8076 110.365005 214.1786 110.365005 213.4696C 110.365005 213.4696 110.98 213.47661 110.835 213.1146C 110.835 213.1146 111.312004 213.0786 111.652 213.4476C 111.991005 213.8166 112.172005 214.6186 111.594 214.7126" stroke="none" fill="#E7BC9E" fill-rule="nonzero" />
    <path id=""  transform="matrix(1 0 0 -1 0 316)"  d="M106.3987 211.7995C 106.2977 211.7995 106.2157 211.7175 106.2157 211.6155C 106.2157 211.5145 106.2977 211.4325 106.3987 211.4325C 106.428696 211.4325 109.4367 211.4135 110.3647 209.9765C 110.41969 209.8915 110.5327 209.8665 110.6177 209.9225C 110.6717 209.9575 110.7017 210.0165 110.7017 210.0755C 110.7017 210.1105 110.691696 210.1455 110.6717 210.1755C 109.636696 211.7805 106.5307 211.7995 106.3987 211.7995" stroke="none" fill="#E7BC9E" fill-rule="nonzero" />
    <path id=""  transform="matrix(1 0 0 -1 0 316)"  d="M110.8352 210.1247C 110.980194 209.7637 110.3652 209.77069 110.3652 209.77069C 110.3652 209.0627 111.0162 208.4337 111.5942 208.52669C 112.172195 208.6207 111.991196 209.42369 111.6512 209.7927C 111.312195 210.16069 110.8352 210.1247 110.8352 210.1247" stroke="none" fill="#E7BC9E" fill-rule="nonzero" />
    <path id=""  transform="matrix(1 0 0 -1 0 316)"  d="M98.0227 214.6374C 98.1327 214.4344 98.2317 214.22441 98.320694 214.0094C 98.458694 213.9734 98.594696 213.9384 98.7267 213.9004C 101.8547 213.00641 103.4117 211.6194 103.4117 211.6194C 103.4117 211.6194 101.7187 210.1154 98.319695 209.23041C 98.2317 209.01541 98.1327 208.8054 98.0227 208.60341C 104.7137 208.6614 108.0357 211.6194 108.0357 211.6194C 108.0357 211.6194 106.4787 213.00641 103.3517 213.9004C 101.9097 214.31241 100.1337 214.61841 98.0227 214.6374" stroke="none" fill="#E7BC9E" fill-rule="nonzero" />
    <path id=""  transform="matrix(1 0 0 -1 0 316)"  d="M96.9661 216.0514C 97.0221 215.9944 97.074104 215.93541 97.128105 215.8764C 101.3971 217.0504 104.0621 216.31041 104.0621 216.31041C 104.0621 216.31041 103.5351 215.39441 102.2221 214.18341C 102.6181 214.09741 102.9951 214.0014 103.352104 213.9004C 106.4391 215.8784 107.5681 217.84941 107.5681 217.84941C 107.5681 217.84941 103.324104 219.03041 96.9661 216.0514" stroke="none" fill="#E7BC9E" fill-rule="nonzero" />
    <path id=""  transform="matrix(1 0 0 -1 0 316)"  d="M92.5002 218.3445C 88.7922 218.3445 85.7752 215.3275 85.7752 211.61949C 85.7752 207.91249 88.7922 204.8955 92.5002 204.8955C 96.2082 204.8955 99.2252 207.91249 99.2252 211.61949C 99.2252 215.3275 96.2082 218.3445 92.5002 218.3445M92.5002 205.7985C 89.2902 205.7985 86.6782 208.40948 86.6782 211.61949C 86.6782 214.8295 89.2902 217.44249 92.5002 217.44249C 95.7102 217.44249 98.3212 214.8295 98.3212 211.61949C 98.3212 208.40948 95.7102 205.7985 92.5002 205.7985" stroke="none" fill="#E7BC9E" fill-rule="nonzero" />
    <path id=""  transform="matrix(1 0 0 -1 0 316)"  d="M105.9426 195.9958C 102.5626 193.08081 98.417595 191.3748 93.9556 191.0608C 93.86459 191.05481 93.7966 190.97481 93.8026 190.8848C 93.80859 190.7978 93.8806 190.7308 93.9666 190.7308C 93.9706 190.7308 93.974594 190.7308 93.9786 190.73181C 98.5116 191.0508 102.723595 192.7838 106.1586 195.7448C 106.22659 195.8058 106.2346 195.9088 106.1746 195.9778C 106.11559 196.0478 106.0116 196.05481 105.9426 195.9958" stroke="none" fill="#E7BC9E" fill-rule="nonzero" />
    <path id=""  transform="matrix(1 0 0 -1 0 316)"  d="M113.2336 210.2819C 113.1436 210.28891 113.0636 210.21991 113.056595 210.1289C 112.736595 205.6829 111.0326 201.5529 108.12959 198.1829C 108.069595 198.1139 108.0776 198.0099 108.1466 197.9499C 108.1776 197.9239 108.2156 197.9109 108.25459 197.9109C 108.3006 197.9109 108.346596 197.92891 108.37959 197.96791C 111.3296 201.3909 113.0606 205.58891 113.3856 210.1049C 113.39259 210.1959 113.3246 210.2749 113.2336 210.2819" stroke="none" fill="#E7BC9E" fill-rule="nonzero" />
    <path id=""  transform="matrix(1 0 0 -1 0 316)"  d="M107.5051 204.3297C 106.0401 204.3727 103.590096 204.4437 103.007095 205.5367C 102.9431 205.6577 102.7921 205.70369 102.6721 205.6397C 102.551094 205.57469 102.506096 205.4247 102.5691 205.3047C 103.28809 203.9577 105.8181 203.8837 107.4901 203.8347C 107.7791 203.8257 108.09409 203.8167 108.315094 203.7997C 108.301094 203.74069 108.3091 203.6777 108.340096 203.6207C 108.38609 203.5397 108.47009 203.49469 108.5561 203.49469C 108.5981 203.49469 108.6391 203.5047 108.67809 203.5267C 108.7791 203.5837 109.050095 203.7367 108.9881 203.9877C 108.91309 204.2887 108.5591 204.29869 107.5051 204.3297" stroke="none" fill="#E7BC9E" fill-rule="nonzero" />
    <path id=""  transform="matrix(1 0 0 -1 0 316)"  d="M100.5002 195.7799C 100.4422 195.8119 100.379196 195.81891 100.3202 195.8049C 100.3032 196.02591 100.2942 196.34091 100.2852 196.62991C 100.2362 198.3029 100.1622 200.83191 98.8152 201.5509C 98.6952 201.61491 98.5452 201.56891 98.4802 201.4479C 98.4162 201.32791 98.4622 201.17691 98.5822 201.11292C 99.6762 200.5299 99.7472 198.07991 99.7902 196.6159C 99.8202 195.56091 99.8312 195.20691 100.1322 195.1329C 100.157196 195.1259 100.1822 195.12291 100.2052 195.12291C 100.4132 195.12291 100.5422 195.34991 100.5942 195.44191C 100.6612 195.56091 100.6192 195.7129 100.5002 195.7799" stroke="none" fill="#E7BC9E" fill-rule="nonzero" />
    <path id=""  transform="matrix(1 0 0 -1 0 316)"  d="M106.2942 200.1501C 104.6212 199.7901 102.4822 201.9041 102.4612 201.9241C 102.3892 201.9971 102.27319 201.9971 102.201195 201.9241C 102.130196 201.8531 102.130196 201.7371 102.201195 201.6661C 102.2942 201.5721 104.504196 199.3891 106.3712 199.7921C 106.4062 199.7991 106.438194 199.81711 106.4622 199.8411C 106.504196 199.8831 106.5252 199.9461 106.5122 200.0091C 106.4902 200.1091 106.393196 200.1711 106.2942 200.1501" stroke="none" fill="#E7BC9E" fill-rule="nonzero" />
    <path id=""  transform="matrix(1 0 0 -1 0 316)"  d="M101.1584 203.2155C 101.0874 203.2865 100.971405 203.2865 100.8984 203.2155C 100.8274 203.1435 100.8274 203.0275 100.8984 202.9555L100.8984 202.9555L106.7484 197.1065C 106.820404 197.0345 106.9364 197.0345 107.0084 197.1065C 107.0794 197.1775 107.0794 197.2935 107.0084 197.3645z" stroke="none" fill="#E7BC9E" fill-rule="nonzero" />
    <path id=""  transform="matrix(1 0 0 -1 0 316)"  d="M107.218 197.3522C 107.218 197.3522 107.271 197.0822 107.106 196.93721C 106.941 196.7902 106.692 196.8862 106.692 196.8862C 106.692 196.8862 106.807 196.1122 107.384 195.8282C 107.962006 195.5432 108.318 195.5222 108.459 196.0762C 108.602005 196.6292 107.739006 197.3042 107.218 197.3522" stroke="none" fill="#E7BC9E" fill-rule="nonzero" />
    <path id=""  transform="matrix(1 0 0 -1 0 316)"  d="M106.4397 200.2956C 106.4397 200.2956 106.8797 199.8656 106.5217 199.7126C 106.5217 199.7126 106.834694 199.35059 107.334694 199.3696C 107.8357 199.3906 108.5307 199.8306 108.1887 200.30559C 107.845695 200.7806 106.9407 200.7966 106.4397 200.2956" stroke="none" fill="#E7BC9E" fill-rule="nonzero" />
    <path id=""  transform="matrix(1 0 0 -1 0 316)"  d="M102.1956 201.9186C 102.123604 201.8476 102.123604 201.7316 102.1956 201.65959C 102.216606 201.6386 104.330605 199.4986 103.969604 197.82559C 103.9486 197.7276 104.011604 197.6296 104.1106 197.60759C 104.1746 197.59459 104.2366 197.6156 104.2786 197.6576C 104.302605 197.68259 104.3206 197.7136 104.328606 197.7486C 104.730606 199.6166 102.5486 201.82559 102.454605 201.9186C 102.3826 201.9896 102.2666 201.9896 102.1956 201.9186" stroke="none" fill="#E7BC9E" fill-rule="nonzero" />
    <path id=""  transform="matrix(1 0 0 -1 0 316)"  d="M104.4075 197.5983C 104.2545 197.2413 103.8245 197.6803 103.8245 197.6803C 103.3235 197.17929 103.3395 196.27429 103.8145 195.93129C 104.290504 195.5893 104.7295 196.2853 104.7505 196.7863C 104.7705 197.2863 104.4075 197.5983 104.4075 197.5983" stroke="none" fill="#E7BC9E" fill-rule="nonzero" />
    <path id=""  transform="matrix(1 0 0 -1 0 316)"  d="M98.5383 209.8483C 98.4743 209.6263 98.3943 209.4093 98.3053 209.19429C 98.3763 209.0713 98.4483 208.9493 98.5153 208.8283C 100.0953 205.9863 100.2153 203.9053 100.2153 203.9053C 100.2153 203.9053 97.9543 204.0363 94.9253 205.81529C 94.711296 205.7253 94.4933 205.6463 94.2713 205.5813C 99.0453 200.8913 103.4853 200.6353 103.4853 200.6353C 103.4853 200.6353 103.3643 202.7153 101.7853 205.5593C 101.0573 206.8693 100.0183 208.3423 98.5383 209.8483" stroke="none" fill="#E7BC9E" fill-rule="nonzero" />
    <path id=""  transform="matrix(1 0 0 -1 0 316)"  d="M98.7913 211.5954C 98.7913 211.5164 98.7853 211.4374 98.782295 211.3584C 102.630295 209.1684 103.992294 206.7614 103.992294 206.7614C 103.992294 206.7614 102.9723 206.4854 101.1873 206.5584C 101.406296 206.2164 101.6053 205.8824 101.7853 205.5594C 105.367294 204.7764 107.559296 205.3694 107.559296 205.3694C 107.559296 205.3694 105.394295 209.2054 98.7913 211.5954" stroke="none" fill="#E7BC9E" fill-rule="nonzero" />
    <path id=""  transform="matrix(1 0 0 -1 0 316)"  d="M92.5005 218.3446C 90.7045 218.3446 89.0145 217.6456 87.7455 216.3746C 86.4745 215.1056 85.7755 213.4166 85.7755 211.6196C 85.7755 209.82361 86.4745 208.1356 87.7455 206.8646C 89.055504 205.5546 90.7785 204.8996 92.5005 204.8996C 94.221504 204.8996 95.943504 205.5546 97.2555 206.8646C 99.8775 209.4866 99.8775 213.7536 97.2555 216.3746C 95.9845 217.6456 94.2965 218.3446 92.5005 218.3446M96.6165 207.5036C 94.346504 205.2336 90.6535 205.2336 88.3845 207.5036C 87.2845 208.6036 86.6785 210.0656 86.6785 211.6196C 86.6785 213.1756 87.2845 214.6376 88.3845 215.7366C 89.4835 216.83661 90.9455 217.4416 92.5005 217.4416C 94.054504 217.4416 95.5165 216.83661 96.6165 215.7366C 98.8865 213.4666 98.8865 209.7736 96.6165 207.5036" stroke="none" fill="#E7BC9E" fill-rule="nonzero" />
    <path id=""  transform="matrix(1 0 0 -1 0 316)"  d="M90.9573 191.067C 86.5063 191.396 82.3683 193.121 78.9913 196.05301C 78.923294 196.113 78.8183 196.106 78.7593 196.037C 78.699295 195.968 78.7063 195.864 78.7753 195.804C 82.2063 192.824 86.4103 191.072 90.9333 190.737L90.9333 190.737L90.9443 190.737C 91.0303 190.737 91.1033 190.803 91.1093 190.889C 91.116295 190.981 91.0483 191.06 90.9573 191.067" stroke="none" fill="#E7BC9E" fill-rule="nonzero" />
    <path id=""  transform="matrix(1 0 0 -1 0 316)"  d="M105.9817 196.0299C 102.611694 193.1129 98.485695 191.39691 94.0507 191.06691C 93.959694 191.0599 93.89169 190.98091 93.8987 190.88991C 93.90469 190.8029 93.9767 190.73691 94.0627 190.73691C 94.066696 190.73691 94.070694 190.73691 94.0757 190.73792C 98.581696 191.0729 102.7737 192.8159 106.1977 195.7799C 106.2667 195.8399 106.2737 195.94391 106.2137 196.0119C 106.15469 196.08191 106.0497 196.0899 105.9817 196.0299" stroke="none" fill="#E7BC9E" fill-rule="nonzero" />
    <path id=""  transform="matrix(1 0 0 -1 0 316)"  d="M95.6282 199.8893C 95.6682 200.0203 95.5952 200.1593 95.464195 200.1993C 95.3332 200.2383 95.1942 200.16429 95.1542 200.0343C 94.7102 198.5733 96.4462 196.73329 97.5952 195.5153C 97.7932 195.30429 98.00919 195.0763 98.1522 194.9073C 98.102196 194.8753 98.062195 194.8253 98.0442 194.7623C 98.007195 194.6313 98.0852 194.4943 98.216194 194.45729C 98.270195 194.4433 98.3652 194.4153 98.466194 194.4153C 98.576195 194.4153 98.6922 194.4493 98.7622 194.56529C 98.922195 194.8293 98.6792 195.0883 97.9552 195.8553C 96.949196 196.9203 95.268196 198.7033 95.6282 199.8893" stroke="none" fill="#E7BC9E" fill-rule="nonzero" />
    <path id=""  transform="matrix(1 0 0 -1 0 316)"  d="M89.5364 200.1989C 89.4054 200.1589 89.3324 200.0199 89.3714 199.8889C 89.7324 198.7039 88.0504 196.9209 87.0454 195.8549C 86.3214 195.0889 86.0784 194.8299 86.2374 194.5649C 86.3074 194.4489 86.4244 194.4159 86.5344 194.4159C 86.6344 194.4159 86.7294 194.4429 86.7834 194.4579C 86.9154 194.4949 86.9924 194.6319 86.9564 194.7619C 86.9384 194.8249 86.8984 194.8759 86.8484 194.90689C 86.9914 195.0759 87.2064 195.3039 87.4054 195.5149C 88.5544 196.7329 90.2904 198.57289 89.8464 200.0339C 89.8064 200.1649 89.6684 200.2379 89.5364 200.1989" stroke="none" fill="#E7BC9E" fill-rule="nonzero" />
    <path id=""  transform="matrix(1 0 0 -1 0 316)"  d="M94.1438 193.7565C 92.7068 194.6835 92.6878 197.6915 92.6878 197.7215C 92.6878 197.8225 92.6058 197.9045 92.5038 197.9045C 92.4038 197.9045 92.3218 197.8215 92.3218 197.7215C 92.3218 197.5895 92.3388 194.4845 93.9448 193.4475C 93.9758 193.4285 94.009796 193.4185 94.0438 193.4185C 94.1038 193.4185 94.163795 193.4475 94.1988 193.5025C 94.2528 193.5875 94.2288 193.7005 94.1438 193.7565" stroke="none" fill="#E7BC9E" fill-rule="nonzero" />
    <path id=""  transform="matrix(1 0 0 -1 0 316)"  d="M92.4954 199.7379C 92.3944 199.7379 92.3124 199.6559 92.3124 199.5539L92.3124 199.5539L92.3124 191.2819C 92.3124 191.1799 92.3944 191.0979 92.4954 191.0979C 92.5974 191.0979 92.6794 191.1799 92.6794 191.2819L92.6794 191.2819L92.6794 199.5539C 92.6794 199.6559 92.5974 199.7379 92.4954 199.7379" stroke="none" fill="#E7BC9E" fill-rule="nonzero" />
    <path id=""  transform="matrix(1 0 0 -1 0 316)"  d="M92.4456 190.9098C 92.2246 190.92381 92.1176 191.16681 92.1176 191.16681C 92.1176 191.16681 91.650604 190.53781 91.857605 189.9288C 92.065605 189.3188 92.301605 189.05281 92.7936 189.34381C 93.2856 189.6358 93.1536 190.7218 92.817604 191.12381C 92.817604 191.12381 92.6656 190.8958 92.4456 190.9098" stroke="none" fill="#E7BC9E" fill-rule="nonzero" />
    <path id=""  transform="matrix(1 0 0 -1 0 316)"  d="M94.3499 193.7555C 94.3499 193.7555 94.3569 193.1415 93.9959 193.28549C 93.9959 193.28549 93.9589 192.80849 94.327896 192.46849C 94.6969 192.1285 95.4989 191.9475 95.592896 192.52649C 95.6869 193.10449 95.0579 193.7555 94.3499 193.7555" stroke="none" fill="#E7BC9E" fill-rule="nonzero" />
    <path id=""  transform="matrix(1 0 0 -1 0 316)"  d="M92.4954 197.9049C 92.3944 197.9049 92.3124 197.8229 92.3124 197.7209C 92.3124 197.6909 92.2944 194.6829 90.8564 193.75691C 90.7714 193.70091 90.7474 193.5879 90.8024 193.50291C 90.8374 193.4479 90.8954 193.41891 90.9564 193.41891C 90.9904 193.41891 91.0244 193.4279 91.0564 193.4479C 92.6604 194.4839 92.6794 197.5899 92.6794 197.7209C 92.6794 197.82191 92.5974 197.9049 92.4954 197.9049" stroke="none" fill="#E7BC9E" fill-rule="nonzero" />
    <path id=""  transform="matrix(1 0 0 -1 0 316)"  d="M90.6506 193.7555C 89.9426 193.7555 89.3126 193.10449 89.40759 192.52649C 89.501595 191.9475 90.3036 192.1285 90.6716 192.46849C 91.041595 192.80849 91.00459 193.28549 91.00459 193.28549C 90.64359 193.1415 90.6506 193.7555 90.6506 193.7555" stroke="none" fill="#E7BC9E" fill-rule="nonzero" />
    <path id=""  transform="matrix(1 0 0 -1 0 316)"  d="M94.7795 205.3932C 93.885506 202.2652 92.5005 200.7092 92.5005 200.7092C 92.5005 200.7092 90.9945 202.4012 90.110504 205.8002C 89.8945 205.8882 89.6855 205.9872 89.482506 206.0982C 89.541504 199.4062 92.5005 196.0842 92.5005 196.0842C 92.5005 196.0842 93.885506 197.6412 94.7795 200.7682C 95.191505 202.2102 95.499504 203.9862 95.5165 206.0982C 95.31451 205.9872 95.1045 205.8882 94.888504 205.79921C 94.8525 205.66321 94.817505 205.5252 94.7795 205.3932" stroke="none" fill="#E7BC9E" fill-rule="nonzero" />
    <path id=""  transform="matrix(1 0 0 -1 0 316)"  d="M96.7571 206.9928C 97.9301 202.7238 97.1911 200.0578 97.1911 200.0578C 97.1911 200.0578 96.2741 200.5848 95.0631 201.8978C 94.977104 201.5018 94.8821 201.1248 94.779106 200.76779C 96.7591 197.6818 98.7291 196.5528 98.7291 196.5528C 98.7291 196.5528 99.9101 200.7968 96.932106 207.1538C 96.8751 207.0978 96.8151 207.04579 96.7571 206.9928" stroke="none" fill="#E7BC9E" fill-rule="nonzero" />
    <path id=""  transform="matrix(1 0 0 -1 0 316)"  d="M92.5002 218.3445C 88.7922 218.3445 85.7752 215.3275 85.7752 211.61949C 85.7752 207.91249 88.7922 204.8955 92.5002 204.8955C 96.2082 204.8955 99.2252 207.91249 99.2252 211.61949C 99.2252 215.3275 96.2082 218.3445 92.5002 218.3445M92.5002 205.7985C 89.2902 205.7985 86.6782 208.40948 86.6782 211.61949C 86.6782 214.8295 89.2902 217.44249 92.5002 217.44249C 95.7102 217.44249 98.3212 214.8295 98.3212 211.61949C 98.3212 208.40948 95.7102 205.7985 92.5002 205.7985" stroke="none" fill="#E7BC9E" fill-rule="nonzero" />
    <path id=""  transform="matrix(1 0 0 -1 0 316)"  d="M71.9407 210.1647C 71.93369 210.2557 71.8547 210.3247 71.763695 210.3167C 71.6727 210.3107 71.6047 210.2317 71.611694 210.14171C 71.929695 205.6077 73.664696 201.3957 76.625694 197.9617C 76.6577 197.9247 76.7047 197.90471 76.750694 197.90471C 76.7887 197.90471 76.8267 197.91771 76.8577 197.9447C 76.9267 198.0047 76.9347 198.1087 76.875694 198.1777C 73.9617 201.5587 72.2547 205.7027 71.9407 210.1647" stroke="none" fill="#E7BC9E" fill-rule="nonzero" />
    <path id=""  transform="matrix(1 0 0 -1 0 316)"  d="M91.009 191.0631C 86.564 191.3841 82.433 193.0871 79.064 195.99109C 78.994 196.0501 78.89 196.0421 78.83 195.9731C 78.771 195.9041 78.77901 195.8001 78.848 195.74109C 82.271 192.79109 86.468 191.06009 90.985 190.7341L90.985 190.7341L90.997 190.7341C 91.082 190.7341 91.15501 190.79909 91.161 190.8861C 91.168 190.9771 91.100006 191.0571 91.009 191.0631" stroke="none" fill="#E7BC9E" fill-rule="nonzero" />
    <path id=""  transform="matrix(1 0 0 -1 0 316)"  d="M86.1838 201.5504C 84.8368 200.8314 84.7638 198.3034 84.7138 196.6294C 84.7058 196.3404 84.6978 196.0264 84.6788 195.8054C 84.6208 195.8194 84.5568 195.8124 84.4998 195.7794C 84.3808 195.7124 84.3388 195.5614 84.4068 195.4424C 84.4578 195.3504 84.5868 195.1224 84.7948 195.1224C 84.8188 195.1224 84.8428 195.1254 84.8688 195.1324C 85.1688 195.2064 85.1788 195.5614 85.2098 196.6154C 85.2518 198.0794 85.3238 200.5294 86.4168 201.1134C 86.537796 201.1774 86.5838 201.3274 86.5198 201.4474C 86.4548 201.5694 86.3048 201.6144 86.1838 201.5504" stroke="none" fill="#E7BC9E" fill-rule="nonzero" />
    <path id=""  transform="matrix(1 0 0 -1 0 316)"  d="M82.3284 205.6393C 82.2074 205.7033 82.057396 205.6583 81.9934 205.5373C 81.4094 204.44429 78.9594 204.3723 77.4954 204.3293C 76.4414 204.2993 76.0864 204.2883 76.0124 203.9883C 75.9504 203.7373 76.2214 203.5833 76.3224 203.5273C 76.3604 203.5043 76.4024 203.4943 76.4434 203.4943C 76.5304 203.4943 76.6144 203.53929 76.6594 203.6203C 76.6914 203.67729 76.6994 203.7413 76.6844 203.7993C 76.9064 203.81729 77.2204 203.8273 77.5104 203.8343C 79.1824 203.8833 81.7114 203.95729 82.4304 205.30429C 82.4944 205.4243 82.4484 205.5753 82.3284 205.6393" stroke="none" fill="#E7BC9E" fill-rule="nonzero" />
    <path id=""  transform="matrix(1 0 0 -1 0 316)"  d="M82.5452 201.9186C 82.452194 201.82559 80.269196 199.6166 80.672195 197.7486C 80.6802 197.7136 80.6972 197.68259 80.7212 197.6576C 80.7642 197.6156 80.826195 197.59459 80.8902 197.60759C 80.9882 197.6296 81.0522 197.7276 81.0302 197.8266C 80.6702 199.4986 82.783195 201.6386 82.8052 201.65959C 82.8762 201.7316 82.8762 201.8476 82.8052 201.9186C 82.73219 201.9906 82.616196 201.9906 82.5452 201.9186" stroke="none" fill="#E7BC9E" fill-rule="nonzero" />
    <path id=""  transform="matrix(1 0 0 -1 0 316)"  d="M83.8352 203.2213L77.9852 197.37129C 77.9142 197.2993 77.9142 197.1833 77.9852 197.1123C 78.0582 197.0403 78.174194 197.0403 78.24519 197.1123L78.24519 197.1123L84.0952 202.9613C 84.1662 203.0333 84.1662 203.14929 84.0952 203.2213C 84.0232 203.2923 83.907196 203.2923 83.8352 203.2213" stroke="none" fill="#E7BC9E" fill-rule="nonzero" />
    <path id=""  transform="matrix(1 0 0 -1 0 316)"  d="M77.8167 197.0143C 77.6707 197.1803 77.7667 197.4283 77.7667 197.4283C 77.7667 197.4283 76.99171 197.3133 76.7087 196.7363C 76.423706 196.1583 76.4017 195.80229 76.9557 195.6603C 77.509705 195.5193 78.1847 196.3803 78.231705 196.9023C 78.231705 196.9023 77.96271 196.8493 77.8167 197.0143" stroke="none" fill="#E7BC9E" fill-rule="nonzero" />
    <path id=""  transform="matrix(1 0 0 -1 0 316)"  d="M80.593 197.5983C 80.593 197.5983 80.23 197.2863 80.25 196.7863C 80.271 196.2853 80.71 195.5893 81.186005 195.93129C 81.661 196.27429 81.676 197.17929 81.175 197.6803C 81.175 197.6803 80.746 197.2413 80.593 197.5983" stroke="none" fill="#E7BC9E" fill-rule="nonzero" />
    <path id=""  transform="matrix(1 0 0 -1 0 316)"  d="M82.5393 201.9245C 82.518295 201.9035 80.378296 199.7895 78.7063 200.1505C 78.6063 200.1715 78.5103 200.1095 78.4883 200.0095C 78.475296 199.9465 78.4953 199.8835 78.5383 199.8415C 78.5613 199.8175 78.5933 199.7995 78.629295 199.7915C 80.4963 199.3895 82.7053 201.5715 82.7993 201.6655C 82.8703 201.7375 82.8703 201.8535 82.7993 201.9245C 82.726295 201.9965 82.6103 201.9965 82.5393 201.9245" stroke="none" fill="#E7BC9E" fill-rule="nonzero" />
    <path id=""  transform="matrix(1 0 0 -1 0 316)"  d="M76.8118 200.3053C 76.468796 199.83029 77.164795 199.3903 77.665794 199.3703C 78.165794 199.3503 78.4778 199.7123 78.4778 199.7123C 78.1208 199.8663 78.5598 200.2953 78.5598 200.2953C 78.0588 200.7963 77.1548 200.7813 76.8118 200.3053" stroke="none" fill="#E7BC9E" fill-rule="nonzero" />
    <path id=""  transform="matrix(1 0 0 -1 0 316)"  d="M89.7092 205.6051C 86.8652 204.0251 84.7852 203.9051 84.7852 203.9051C 84.7852 203.9051 84.9162 206.1661 86.6942 209.1951C 86.605194 209.4101 86.5262 209.6271 86.4622 209.8481C 81.771194 205.0751 81.5152 200.6351 81.5152 200.6351C 81.5152 200.6351 83.5962 200.7551 86.4382 202.3341C 87.7502 203.0631 89.2232 204.1021 90.729195 205.5821C 90.507195 205.64711 90.2882 205.7251 90.0732 205.81511C 89.951195 205.74411 89.8282 205.6711 89.7092 205.6051" stroke="none" fill="#E7BC9E" fill-rule="nonzero" />
    <path id=""  transform="matrix(1 0 0 -1 0 316)"  d="M87.6418 200.1276C 87.6418 200.1276 87.3658 201.14859 87.4378 202.9336C 87.0968 202.7136 86.7628 202.51459 86.4388 202.3346C 85.6558 198.7536 86.2498 196.5616 86.2498 196.5616C 86.2498 196.5616 90.0858 198.7276 92.4758 205.3286C 92.3958 205.3286 92.3168 205.3346 92.2378 205.3376C 90.0488 201.4896 87.6418 200.1276 87.6418 200.1276" stroke="none" fill="#E7BC9E" fill-rule="nonzero" />
    <path id=""  transform="matrix(1 0 0 -1 0 316)"  d="M92.5005 218.3446C 90.7045 218.3446 89.0145 217.6456 87.7455 216.3746C 86.4745 215.1056 85.7755 213.4166 85.7755 211.6196C 85.7755 209.82361 86.4745 208.1356 87.7455 206.8646C 89.055504 205.5546 90.7785 204.8996 92.5005 204.8996C 94.221504 204.8996 95.943504 205.5546 97.2555 206.8646C 99.8775 209.4866 99.8775 213.7536 97.2555 216.3746C 95.9845 217.6456 94.2965 218.3446 92.5005 218.3446M96.6165 207.5036C 94.346504 205.2336 90.6535 205.2336 88.3845 207.5036C 87.2845 208.6036 86.6785 210.0656 86.6785 211.6196C 86.6785 213.1756 87.2845 214.6376 88.3845 215.7366C 89.4835 216.83661 90.9455 217.4416 92.5005 217.4416C 94.054504 217.4416 95.5165 216.83661 96.6165 215.7366C 98.8865 213.4666 98.8865 209.7736 96.6165 207.5036" stroke="none" fill="#E7BC9E" fill-rule="nonzero" />
    <path id=""  transform="matrix(1 0 0 -1 0 316)"  d="M76.6838 225.3454C 73.7048 221.91339 71.9518 217.7094 71.6178 213.1874C 71.6108 213.0964 71.6788 213.0174 71.7698 213.0114C 71.7738 213.01039 71.7778 213.01039 71.7818 213.01039C 71.8678 213.01039 71.9398 213.0764 71.9468 213.16339C 72.2758 217.6144 73.9998 221.7514 76.9328 225.1284C 76.9928 225.1974 76.9858 225.30139 76.9168 225.3614C 76.8478 225.4214 76.7438 225.41339 76.6838 225.3454" stroke="none" fill="#E7BC9E" fill-rule="nonzero" />
    <path id=""  transform="matrix(1 0 0 -1 0 316)"  d="M71.9465 210.07C 71.9395 210.16101 71.8615 210.229 71.7695 210.222C 71.678505 210.216 71.610504 210.136 71.6175 210.046C 71.95351 205.539 73.6965 201.34702 76.6605 197.923C 76.692505 197.88501 76.7385 197.86601 76.7845 197.86601C 76.8235 197.86601 76.8615 197.87901 76.8925 197.906C 76.9625 197.966 76.968506 198.07 76.9095 198.139C 73.9925 201.509 72.276505 205.634 71.9465 210.07" stroke="none" fill="#E7BC9E" fill-rule="nonzero" />
    <path id=""  transform="matrix(1 0 0 -1 0 316)"  d="M80.9133 208.965C 79.4523 209.409 77.6123 207.674 76.394295 206.526C 76.185295 206.327 75.9563 206.11101 75.7873 205.967C 75.755295 206.018 75.7053 206.058 75.643295 206.076C 75.5113 206.113 75.3743 206.036 75.337296 205.904C 75.3063 205.791 75.2233 205.492 75.4443 205.358C 75.4963 205.327 75.5483 205.311 75.6033 205.311C 75.8293 205.311 76.1173 205.58301 76.7353 206.166C 77.8013 207.171 79.5843 208.853 80.7693 208.492C 80.9003 208.452 81.0383 208.526 81.0783 208.657C 81.1183 208.788 81.0443 208.926 80.9133 208.965M75.7903 205.651L75.7923 205.651z" stroke="none" fill="#E7BC9E" fill-rule="nonzero" />
    <path id=""  transform="matrix(1 0 0 -1 0 316)"  d="M80.7698 214.7487C 79.5838 214.38771 77.8008 216.0697 76.7358 217.0747C 75.9678 217.7987 75.7098 218.04271 75.4448 217.8827C 75.2228 217.7487 75.3058 217.4487 75.3368 217.3367C 75.373795 217.2047 75.510796 217.1277 75.6428 217.1647C 75.705795 217.18271 75.7548 217.22171 75.787796 217.2727C 75.956795 217.1297 76.1848 216.9137 76.3948 216.7147C 77.4798 215.6917 79.0578 214.2037 80.4208 214.2037C 80.5888 214.2037 80.7528 214.2267 80.913795 214.2747C 81.0438 214.3137 81.1188 214.4527 81.0788 214.58371C 81.038795 214.7147 80.900795 214.7887 80.7698 214.7487" stroke="none" fill="#E7BC9E" fill-rule="nonzero" />
    <path id=""  transform="matrix(1 0 0 -1 0 316)"  d="M78.6008 211.7995C 78.468796 211.7995 75.3638 211.7805 74.3278 210.1755C 74.3078 210.1455 74.2978 210.1105 74.2978 210.0755C 74.2978 210.0165 74.3288 209.9575 74.3828 209.9225C 74.4678 209.8665 74.5808 209.8915 74.6358 209.9765C 75.5638 211.4135 78.5708 211.4325 78.6018 211.4325C 78.7028 211.4325 78.7848 211.5145 78.7848 211.6155C 78.7848 211.7175 78.7028 211.7995 78.6008 211.7995" stroke="none" fill="#E7BC9E" fill-rule="nonzero" />
    <path id=""  transform="matrix(1 0 0 -1 0 316)"  d="M80.4338 211.8083L72.1618 211.8083C 72.0608 211.8083 71.9788 211.7263 71.9788 211.6243C 71.9788 211.5233 72.0608 211.4413 72.1618 211.4413L72.1618 211.4413L80.4338 211.4413C 80.5358 211.4413 80.6178 211.5233 80.6178 211.6243C 80.6178 211.7263 80.5358 211.8083 80.4338 211.8083" stroke="none" fill="#E7BC9E" fill-rule="nonzero" />
    <path id=""  transform="matrix(1 0 0 -1 0 316)"  d="M72.0471 212.0036C 72.0471 212.0036 71.4171 212.4696 70.8091 212.2626C 70.1991 212.0546 69.9331 211.8176 70.2241 211.3266C 70.5151 210.8346 71.6021 210.9666 72.0041 211.3026C 72.0041 211.3026 71.77609 211.4546 71.78909 211.6756C 71.80309 211.8956 72.0471 212.0036 72.0471 212.0036" stroke="none" fill="#E7BC9E" fill-rule="nonzero" />
    <path id=""  transform="matrix(1 0 0 -1 0 316)"  d="M74.1653 210.1247C 74.1653 210.1247 73.6883 210.16069 73.3493 209.7927C 73.0093 209.42369 72.8283 208.62169 73.406296 208.52669C 73.9843 208.4337 74.6353 209.0627 74.6353 209.77069C 74.6353 209.77069 74.0203 209.7637 74.1653 210.1247" stroke="none" fill="#E7BC9E" fill-rule="nonzero" />
    <path id=""  transform="matrix(1 0 0 -1 0 316)"  d="M78.6018 211.8083C 78.5708 211.8083 75.5638 211.82631 74.635796 213.2633C 74.580795 213.3483 74.4678 213.3723 74.3828 213.3183C 74.3288 213.28331 74.2978 213.2243 74.2978 213.1633C 74.2978 213.1293 74.3078 213.0953 74.3278 213.0653C 75.3638 211.4593 78.468796 211.4413 78.6008 211.4413C 78.7028 211.4413 78.7848 211.5233 78.7848 211.6243C 78.7848 211.72531 78.7028 211.8073 78.6018 211.8083" stroke="none" fill="#E7BC9E" fill-rule="nonzero" />
    <path id=""  transform="matrix(1 0 0 -1 0 316)"  d="M73.4065 214.7126C 72.8285 214.6186 73.0095 213.8166 73.3485 213.4476C 73.6885 213.0786 74.165504 213.1156 74.165504 213.1156C 74.0205 213.4776 74.6355 213.4696 74.6355 213.4696C 74.6355 214.1786 73.984505 214.8076 73.4065 214.7126" stroke="none" fill="#E7BC9E" fill-rule="nonzero" />
    <path id=""  transform="matrix(1 0 0 -1 0 316)"  d="M86.9778 214.6374C 80.2858 214.5784 76.9648 211.6194 76.9648 211.6194C 76.9648 211.6194 78.5208 210.2344 81.648796 209.34041C 83.0898 208.9284 84.8668 208.6214 86.9778 208.60341C 86.8668 208.8054 86.7678 209.0164 86.6798 209.2314C 86.5418 209.26741 86.4048 209.3024 86.273796 209.34041C 83.1458 210.2344 81.5888 211.6194 81.5888 211.6194C 81.5888 211.6194 83.2808 213.12541 86.6798 214.0104C 86.7688 214.2254 86.8678 214.43541 86.9778 214.6374" stroke="none" fill="#E7BC9E" fill-rule="nonzero" />
    <path id=""  transform="matrix(1 0 0 -1 0 316)"  d="M80.9387 206.9294C 80.9387 206.9294 81.4637 207.8464 82.778694 209.0574C 82.3807 209.1434 82.0047 209.2384 81.6487 209.3404C 78.5617 207.3614 77.4317 205.3914 77.4317 205.3914C 77.4317 205.3914 81.6757 204.2104 88.0337 207.18939C 87.9777 207.2444 87.9257 207.3054 87.872696 207.3644C 83.6037 206.1904 80.9387 206.9294 80.9387 206.9294" stroke="none" fill="#E7BC9E" fill-rule="nonzero" />
    <path id=""  transform="matrix(1 0 0 -1 0 316)"  d="M92.5002 218.3445C 88.7922 218.3445 85.7752 215.3275 85.7752 211.61949C 85.7752 207.91249 88.7922 204.8955 92.5002 204.8955C 96.2082 204.8955 99.2252 207.91249 99.2252 211.61949C 99.2252 215.3275 96.2082 218.3445 92.5002 218.3445M92.5002 205.7985C 89.2902 205.7985 86.6782 208.40948 86.6782 211.61949C 86.6782 214.8295 89.2902 217.44249 92.5002 217.44249C 95.7102 217.44249 98.3212 214.8295 98.3212 211.61949C 98.3212 208.40948 95.7102 205.7985 92.5002 205.7985" stroke="none" fill="#E7BC9E" fill-rule="nonzero" />
    <path id=""  transform="matrix(1 0 0 -1 0 316)"  d="M91.0208 232.5085C 86.4888 232.1905 82.276794 230.4555 78.8418 227.4945C 78.7728 227.4355 78.7648 227.3305 78.8248 227.2625C 78.857796 227.2245 78.9038 227.2045 78.9508 227.2045C 78.9888 227.2045 79.026794 227.2175 79.0578 227.2445C 82.4378 230.1585 86.582794 231.8655 91.0438 232.1795C 91.134796 232.1865 91.204796 232.2645 91.1978 232.3565C 91.190796 232.4465 91.1118 232.5145 91.0208 232.5085" stroke="none" fill="#E7BC9E" fill-rule="nonzero" />
    <path id=""  transform="matrix(1 0 0 -1 0 316)"  d="M76.6204 225.2721C 73.6714 221.84909 71.9394 217.6521 71.6134 213.1351C 71.6074 213.0441 71.6764 212.96509 71.7664 212.95909L71.7664 212.95909L71.7784 212.95909C 71.8644 212.95909 71.9364 213.0251 71.9434 213.11209C 72.2644 217.5571 73.9684 221.68709 76.8704 225.0571C 76.9304 225.1261 76.9224 225.23009 76.8524 225.2901C 76.7844 225.34909 76.6804 225.3411 76.6204 225.2721" stroke="none" fill="#E7BC9E" fill-rule="nonzero" />
    <path id=""  transform="matrix(1 0 0 -1 0 316)"  d="M77.51 219.4059C 77.22 219.4139 76.906006 219.4239 76.685005 219.4409C 76.698006 219.4999 76.692 219.5629 76.659004 219.6199C 76.593 219.73889 76.442 219.7809 76.323006 219.7139C 76.221 219.6559 75.950005 219.5039 76.012 219.2529C 76.086 218.9519 76.442 218.9409 77.495 218.9109C 78.959 218.8679 81.409004 218.7969 81.993004 217.7029C 82.037 217.6199 82.123 217.5719 82.212006 217.5719C 82.251 217.5719 82.291 217.5809 82.328 217.6009C 82.449005 217.6659 82.494 217.8149 82.43 217.9359C 81.711 219.2829 79.183 219.3569 77.51 219.4059" stroke="none" fill="#E7BC9E" fill-rule="nonzero" />
    <path id=""  transform="matrix(1 0 0 -1 0 316)"  d="M86.4172 222.1266C 85.3232 222.7106 85.2522 225.1606 85.2102 226.6246C 85.1792 227.6786 85.1692 228.0336 84.868195 228.1076C 84.617195 228.17061 84.464195 227.8996 84.4062 227.7976C 84.339195 227.6786 84.381195 227.5276 84.5002 227.4606C 84.5572 227.4286 84.6202 227.4216 84.6792 227.43561C 84.6972 227.21361 84.7062 226.8996 84.714195 226.6096C 84.7642 224.9376 84.8372 222.4086 86.1842 221.6896C 86.2212 221.67061 86.2612 221.6606 86.3002 221.6606C 86.3892 221.6606 86.4752 221.7086 86.520195 221.7916C 86.5842 221.9126 86.5382 222.0626 86.4172 222.1266" stroke="none" fill="#E7BC9E" fill-rule="nonzero" />
    <path id=""  transform="matrix(1 0 0 -1 0 316)"  d="M78.6292 223.4489C 78.5932 223.4409 78.5622 223.4239 78.5382 223.3989C 78.4952 223.3559 78.475204 223.2939 78.488205 223.2299C 78.5102 223.1319 78.6082 223.0689 78.70621 223.0899C 80.378204 223.4509 82.5182 221.3369 82.53921 221.3149C 82.611206 221.2439 82.7272 221.2439 82.7992 221.3159C 82.8702 221.3869 82.8702 221.50389 82.7992 221.5749C 82.7052 221.6679 80.4962 223.85089 78.6292 223.4489" stroke="none" fill="#E7BC9E" fill-rule="nonzero" />
    <path id=""  transform="matrix(1 0 0 -1 0 316)"  d="M78.2512 226.1344C 78.1802 226.2054 78.0642 226.2054 77.992195 226.1344C 77.9202 226.0624 77.9202 225.9474 77.992195 225.8744L77.992195 225.8744L83.8422 220.0254C 83.9132 219.9534 84.0292 219.9534 84.1012 220.0254C 84.173195 220.0974 84.173195 220.2124 84.1012 220.2844z" stroke="none" fill="#E7BC9E" fill-rule="nonzero" />
    <path id=""  transform="matrix(1 0 0 -1 0 316)"  d="M77.6155 227.4128C 77.0385 227.6968 76.6825 227.7188 76.541504 227.1648C 76.3985 226.6108 77.2605 225.93579 77.7825 225.8888C 77.7825 225.8888 77.7285 226.1568 77.8945 226.3038C 78.0595 226.4498 78.3075 226.3528 78.3075 226.3528C 78.3075 226.3528 78.193504 227.1288 77.6155 227.4128" stroke="none" fill="#E7BC9E" fill-rule="nonzero" />
    <path id=""  transform="matrix(1 0 0 -1 0 316)"  d="M78.4778 223.528C 78.4778 223.528 78.1658 223.89 77.6658 223.87C 77.164795 223.849 76.468796 223.41 76.8118 222.934C 77.1548 222.46 78.0588 222.444 78.5598 222.945C 78.5598 222.945 78.1208 223.375 78.4778 223.528" stroke="none" fill="#E7BC9E" fill-rule="nonzero" />
    <path id=""  transform="matrix(1 0 0 -1 0 316)"  d="M81.0305 225.4137C 81.051506 225.5137 80.9885 225.6107 80.8895 225.6317C 80.8265 225.6447 80.763504 225.6247 80.720505 225.5817C 80.6975 225.5587 80.679504 225.5267 80.6725 225.49069C 80.2685 223.6237 82.4525 221.4147 82.5455 221.3217C 82.6165 221.2497 82.732506 221.2497 82.804504 221.3217C 82.8765 221.3927 82.8765 221.50969 82.804504 221.5807C 82.7835 221.6017 80.6705 223.7417 81.0305 225.4137" stroke="none" fill="#E7BC9E" fill-rule="nonzero" />
    <path id=""  transform="matrix(1 0 0 -1 0 316)"  d="M81.1858 227.3083C 80.7098 227.6513 80.2708 226.9553 80.2498 226.4543C 80.2298 225.9543 80.5928 225.6423 80.5928 225.6423C 80.746796 225.9993 81.1748 225.5603 81.1748 225.5603C 81.6758 226.06131 81.6618 226.96631 81.1858 227.3083" stroke="none" fill="#E7BC9E" fill-rule="nonzero" />
    <path id=""  transform="matrix(1 0 0 -1 0 316)"  d="M83.2151 217.6813C 83.9431 216.3703 84.9821 214.89731 86.462105 213.39131C 86.5271 213.6143 86.6061 213.8313 86.69511 214.04631C 86.6231 214.1683 86.5511 214.2913 86.4851 214.41031C 84.905106 217.2543 84.7851 219.33531 84.7851 219.33531C 84.7851 219.33531 87.046104 219.20331 90.074104 217.42531C 90.2891 217.5143 90.5071 217.5933 90.7291 217.6593C 85.9551 222.3493 81.51511 222.6053 81.51511 222.6053C 81.51511 222.6053 81.6351 220.5253 83.2151 217.6813" stroke="none" fill="#E7BC9E" fill-rule="nonzero" />
    <path id=""  transform="matrix(1 0 0 -1 0 316)"  d="M81.0081 216.4792C 81.0081 216.4792 82.029106 216.7552 83.8141 216.6822C 83.5941 217.0242 83.3951 217.35721 83.2151 217.6812C 79.6331 218.4642 77.4411 217.87021 77.4411 217.87021C 77.4411 217.87021 79.6071 214.0342 86.2081 211.6452C 86.20911 211.7242 86.2141 211.8032 86.2181 211.8822C 82.3701 214.0712 81.0081 216.4792 81.0081 216.4792" stroke="none" fill="#E7BC9E" fill-rule="nonzero" />
    <path id=""  transform="matrix(1 0 0 -1 0 316)"  d="M97.2555 216.3746C 95.9845 217.6456 94.2965 218.3446 92.5005 218.3446C 90.7045 218.3446 89.0145 217.6456 87.7455 216.3746C 86.4745 215.1056 85.7755 213.4166 85.7755 211.6196C 85.7755 209.82361 86.4745 208.1356 87.7455 206.8646C 89.055504 205.5546 90.7785 204.8996 92.5005 204.8996C 94.221504 204.8996 95.943504 205.5546 97.2555 206.8646C 99.8775 209.4866 99.8775 213.7536 97.2555 216.3746M96.6165 207.5036C 94.346504 205.2336 90.6535 205.2336 88.3845 207.5036C 87.2845 208.6036 86.6785 210.0656 86.6785 211.6196C 86.6785 213.1756 87.2845 214.6376 88.3845 215.7366C 89.4835 216.83661 90.9455 217.4416 92.5005 217.4416C 94.054504 217.4416 95.5165 216.83661 96.6165 215.7366C 98.8865 213.4666 98.8865 209.7736 96.6165 207.5036" stroke="none" fill="#E7BC9E" fill-rule="nonzero" />
    <path id=""  transform="matrix(1 0 0 -1 0 316)"  d="M92.5002 235.8959C 79.1142 235.8959 68.2242 225.0069 68.2242 211.6199C 68.2242 198.2339 79.1142 187.34491 92.5002 187.34491C 105.8862 187.34491 116.7762 198.2339 116.7762 211.6199C 116.7762 225.0069 105.8862 235.8959 92.5002 235.8959zM92.5002 188.3249C 79.6552 188.3249 69.2052 198.7749 69.2052 211.6199C 69.2052 224.46591 79.6552 234.9149 92.5002 234.9149C 105.3452 234.9149 115.7952 224.46591 115.7952 211.6199C 115.7952 198.7749 105.3452 188.3249 92.5002 188.3249z" stroke="#E7BC9E" stroke-width="0.425" fill="none" />
    <path id=""  transform="matrix(1 0 0 -1 0 316)"  d="M94.0676 232.5026C 93.973595 232.51059 93.8976 232.4406 93.890594 232.3506C 93.8836 232.2596 93.9526 232.18059 94.043594 232.1736C 98.4946 231.84459 102.6306 230.1196 106.0076 227.18759C 106.0396 227.15959 106.0786 227.1476 106.11659 227.1476C 106.1636 227.1476 106.209595 227.16559 106.24159 227.2036C 106.3006 227.2726 106.29459 227.37659 106.224594 227.4366C 102.79459 230.4166 98.5896 232.1686 94.0676 232.5026" stroke="none" fill="#E7BC9E" fill-rule="nonzero" />
    <path id=""  transform="matrix(1 0 0 -1 0 316)"  d="M90.925 232.5026C 86.41901 232.16759 82.227005 230.4236 78.803 227.4606C 78.734 227.3996 78.726006 227.2966 78.786 227.2276C 78.819 227.1906 78.864006 227.1706 78.911 227.1706C 78.949005 227.1706 78.987 227.1836 79.019005 227.2106C 82.389 230.1276 86.515 231.8436 90.949005 232.1736C 91.04 232.18059 91.109 232.2596 91.102005 232.3506C 91.095 232.4406 91.01601 232.51059 90.925 232.5026" stroke="none" fill="#E7BC9E" fill-rule="nonzero" />
    <path id=""  transform="matrix(1 0 0 -1 0 316)"  d="M86.8479 228.3327C 86.8989 228.3647 86.9389 228.4147 86.9559 228.4777C 86.9929 228.6087 86.9149 228.7457 86.7839 228.7827C 86.6709 228.8137 86.3719 228.8967 86.2389 228.6757C 86.0779 228.4107 86.3219 228.1517 87.0449 227.3857C 88.049904 226.3197 89.7329 224.5367 89.3719 223.3517C 89.3319 223.2207 89.4059 223.0817 89.535904 223.0417C 89.5609 223.0347 89.5849 223.0307 89.6089 223.0307C 89.7149 223.0307 89.8129 223.10071 89.8459 223.2067C 90.2899 224.66771 88.5539 226.5077 87.4059 227.72571C 87.2069 227.9367 86.9919 228.1637 86.8479 228.3327" stroke="none" fill="#E7BC9E" fill-rule="nonzero" />
    <path id=""  transform="matrix(1 0 0 -1 0 316)"  d="M98.217 228.7829C 98.085 228.7459 98.008 228.6089 98.04401 228.4769C 98.062004 228.4149 98.102005 228.3649 98.153 228.3329C 98.009 228.1639 97.793 227.9359 97.595 227.7249C 96.446 226.5079 94.71001 224.6679 95.154 223.2069C 95.187004 223.0999 95.285 223.0309 95.392006 223.0309C 95.415 223.0309 95.44 223.0349 95.464005 223.0419C 95.595 223.0819 95.668 223.2209 95.628006 223.35089C 95.268005 224.5369 96.949005 226.3199 97.955 227.3859C 98.679 228.1519 98.922005 228.4109 98.762 228.6759C 98.628006 228.8969 98.329 228.8139 98.217 228.7829" stroke="none" fill="#E7BC9E" fill-rule="nonzero" />
    <path id=""  transform="matrix(1 0 0 -1 0 316)"  d="M91.0559 229.7926C 91.0249 229.8126 90.9909 229.82161 90.9559 229.82161C 90.8959 229.82161 90.8369 229.7916 90.8019 229.73761C 90.7469 229.6526 90.771904 229.5396 90.8569 229.4836C 92.2939 228.5576 92.3129 225.5496 92.3129 225.5196C 92.3129 225.4176 92.3949 225.3356 92.4959 225.3356C 92.5969 225.3356 92.6789 225.4176 92.6789 225.5196C 92.6789 225.6506 92.6599 228.7566 91.0559 229.7926" stroke="none" fill="#E7BC9E" fill-rule="nonzero" />
    <path id=""  transform="matrix(1 0 0 -1 0 316)"  d="M92.5042 232.1422C 92.403206 232.1422 92.321205 232.0602 92.321205 231.95819L92.321205 231.95819L92.321205 223.6862C 92.321205 223.5842 92.403206 223.5022 92.5042 223.5022C 92.6062 223.5022 92.6882 223.5842 92.6882 223.6862L92.6882 223.6862L92.6882 231.95819C 92.6882 232.0602 92.6062 232.1422 92.5042 232.1422" stroke="none" fill="#E7BC9E" fill-rule="nonzero" />
    <path id=""  transform="matrix(1 0 0 -1 0 316)"  d="M92.2063 233.8961C 91.7153 233.6051 91.8473 232.5191 92.1823 232.1161C 92.1823 232.1161 92.3343 232.34311 92.5553 232.3311C 92.7753 232.31711 92.8833 232.0741 92.8833 232.0741C 92.8833 232.0741 93.350296 232.70311 93.142296 233.3121C 92.935295 233.9201 92.698296 234.18811 92.2063 233.8961" stroke="none" fill="#E7BC9E" fill-rule="nonzero" />
    <path id=""  transform="matrix(1 0 0 -1 0 316)"  d="M89.4075 230.7135C 89.3135 230.1355 89.942505 229.4845 90.6505 229.4845C 90.6505 229.4845 90.6435 230.0995 91.0055 229.9545C 91.0055 229.9545 91.041504 230.4325 90.6725 230.7725C 90.303505 231.1115 89.5015 231.2925 89.4075 230.7135" stroke="none" fill="#E7BC9E" fill-rule="nonzero" />
    <path id=""  transform="matrix(1 0 0 -1 0 316)"  d="M94.0442 229.8219C 94.0102 229.8219 93.9762 229.8119 93.9442 229.7929C 92.339195 228.7569 92.3212 225.6509 92.3212 225.5189C 92.3212 225.4179 92.4032 225.3359 92.504196 225.3359C 92.60619 225.3359 92.688194 225.4179 92.688194 225.5189C 92.688194 225.5499 92.7062 228.5569 94.144196 229.4839C 94.229195 229.5399 94.2532 229.6529 94.1982 229.7379C 94.1632 229.7919 94.104195 229.8219 94.0442 229.8219" stroke="none" fill="#E7BC9E" fill-rule="nonzero" />
    <path id=""  transform="matrix(1 0 0 -1 0 316)"  d="M94.3274 230.7721C 93.959404 230.4321 93.9954 229.9551 93.9954 229.9551C 94.3564 230.09909 94.3494 229.48509 94.3494 229.48509C 95.0574 229.48509 95.6864 230.1351 95.5934 230.71309C 95.4994 231.29309 94.6964 231.11209 94.3274 230.7721" stroke="none" fill="#E7BC9E" fill-rule="nonzero" />
    <path id=""  transform="matrix(1 0 0 -1 0 316)"  d="M90.22 222.4713C 89.808 221.0303 89.501 219.2533 89.483 217.1423C 89.686005 217.2533 89.896 217.3523 90.112 217.44029C 90.147 217.5773 90.183 217.7153 90.22 217.8473C 91.114 220.9743 92.5 222.5313 92.5 222.5313C 92.5 222.5313 94.006004 220.8393 94.89 217.44029C 95.105 217.3513 95.315 217.2533 95.517 217.1423C 95.459 223.8343 92.5 227.1563 92.5 227.1563C 92.5 227.1563 91.114 225.5993 90.22 222.4713" stroke="none" fill="#E7BC9E" fill-rule="nonzero" />
    <path id=""  transform="matrix(1 0 0 -1 0 316)"  d="M86.2717 226.6881C 86.2717 226.6881 85.0897 222.44409 88.068695 216.08609C 88.125694 216.14209 88.1847 216.19409 88.2437 216.2481C 87.0707 220.5161 87.8097 223.1821 87.8097 223.1821C 87.8097 223.1821 88.7267 222.6561 89.9367 221.3411C 90.0237 221.73909 90.1187 222.11609 90.219696 222.4711C 88.2417 225.55809 86.2717 226.6881 86.2717 226.6881" stroke="none" fill="#E7BC9E" fill-rule="nonzero" />
    <path id=""  transform="matrix(1 0 0 -1 0 316)"  d="M92.5002 218.3445C 88.7922 218.3445 85.7752 215.3275 85.7752 211.61949C 85.7752 207.91249 88.7922 204.8955 92.5002 204.8955C 96.2082 204.8955 99.2252 207.91249 99.2252 211.61949C 99.2252 215.3275 96.2082 218.3445 92.5002 218.3445M92.5002 205.7985C 89.2902 205.7985 86.6782 208.40948 86.6782 211.61949C 86.6782 214.8295 89.2902 217.44249 92.5002 217.44249C 95.7102 217.44249 98.3212 214.8295 98.3212 211.61949C 98.3212 208.40948 95.7102 205.7985 92.5002 205.7985" stroke="none" fill="#E7BC9E" fill-rule="nonzero" />
    <path id=""  transform="matrix(1 0 0 -1 0 316)"  d="M89.2122 211.6198C 89.2122 213.43579 90.6842 214.90779 92.5002 214.90779C 94.31619 214.90779 95.78819 213.43579 95.78819 211.6198C 95.78819 209.8048 94.31619 208.3318 92.5002 208.3318C 90.6842 208.3318 89.2122 209.8048 89.2122 211.6198z" stroke="#E7BC9E" stroke-width="0.425" fill="none" />
		</g>
	</g>
</g>
</svg>