<?xml version="1.0" standalone="no"?>
<!DOCTYPE svg PUBLIC "-//W3C//DTD SVG 1.0//EN" "http://www.w3.org/TR/2001/REC-SVG-20010904/DTD/svg10.dtd">
<svg xmlns="http://www.w3.org/2000/svg" xmlns:xlink="http://www.w3.org/1999/xlink" id="body_5" width="247" height="421">

<defs>
    <clipPath  id="1">

    <path id=""  clip-rule="evenodd" transform="matrix(1 0 0 1 0 0)"  d="M0 316L0 0L0 0L185 0L185 0L185 316L185 316L0 316z" />    </clipPath>
    <clipPath  id="2">

    <path id=""  clip-rule="evenodd" transform="matrix(1 0 0 1 0 0)"  d="M0 0L185 0L185 0L185 316L185 316L0 316z" />    </clipPath>
</defs>

<g transform="matrix(1.3333 0 0 1.3333 0 0)">
	<g clip-path="url(#1)" >
		<g clip-path="url(#2)" >
    <path id=""  transform="matrix(1 0 0 -1 0 316)"  d="M106.1472 199.81929C 105.9532 199.8113 105.7612 199.7693 105.5752 199.7013C 105.3852 199.63629 105.2032 199.5423 105.0342 199.4213C 104.9692 199.39029 104.906204 199.3423 104.848206 199.2723C 104.778206 199.2143 104.7302 199.15129 104.6992 199.0863C 104.5822 198.9243 104.490204 198.7473 104.4252 198.5643C 104.3572 198.3823 104.3122 198.1973 104.3002 198.0083C 104.2762 197.6313 104.3732 197.24829 104.63821 196.9303C 104.9152 196.59929 105.3292 196.42929 105.7832 196.4393C 106.2412 196.4413 106.7162 196.6503 107.101204 197.0193C 107.4572 197.3923 107.667206 197.8513 107.68021 198.2983C 107.7002 198.7423 107.5482 199.1503 107.240204 199.4323C 106.9242 199.72029 106.5342 199.8333 106.1472 199.81929zM106.3532 197.7663C 105.767204 197.1973 105.0912 197.97429 105.5952 198.52429C 106.1432 199.02629 106.9152 198.3633 106.3532 197.7663z" stroke="#E7BC9E" stroke-width="0.425" fill="none" />
    <path id=""  transform="matrix(1 0 0 -1 0 316)"  d="M116.7229 211.6198L116.7229 211.6208C 116.872894 212.0678 116.702896 212.75479 116.245895 212.74179C 115.77689 212.7328 115.357895 212.9068 114.9769 213.1818C 114.594894 213.4578 114.26389 213.83679 113.925896 214.2538C 113.2809 215.0918 112.6429 216.07379 112.04089 216.78479C 111.815895 217.0398 111.59689 217.2898 111.371895 217.53279C 111.13989 217.7728 110.9069 218.0078 110.676895 218.2348C 111.11089 219.3578 111.1299 220.6658 110.9059 222.0498C 110.746895 223.0938 110.5169 224.0728 110.3639 225.0508C 110.1979 226.01979 110.094894 226.9808 110.136894 227.9828C 110.1719 228.0628 110.2099 228.14279 110.2529 228.2228C 110.4079 228.5038 110.22289 228.8478 109.9509 229.0698C 109.7269 229.3448 109.384895 229.5278 109.1019 229.3728C 109.022896 229.3298 108.942894 229.2918 108.8629 229.25679C 107.86189 229.21579 106.900894 229.3188 105.93089 229.4848C 104.952896 229.6388 103.9729 229.8678 102.92989 230.0258C 101.5449 230.2498 100.23589 230.2308 99.1129 229.79579L99.1129 229.79579L98.494896 230.4108C 98.2839 230.61679 98.0619 230.8058 97.8409 231.0058C 97.74989 231.0838 97.6559 231.1648 97.5599 231.2478C 97.4599 231.3248 97.356895 231.4038 97.2539 231.4838C 97.04289 231.6418 96.82089 231.81079 96.593895 231.9738C 96.136894 232.2928 95.6609 232.6358 95.22189 232.9698C 94.7829 233.3188 94.3829 233.6668 94.0899 234.05879C 93.7979 234.4518 93.61189 234.88379 93.620895 235.36679C 93.634895 235.8218 92.9469 235.9928 92.49989 235.8448L92.49989 235.8448L92.49989 235.8438C 92.052895 235.9928 91.3659 235.8228 91.3789 235.36679C 91.38789 234.89679 91.2139 234.4778 90.9379 234.0978C 90.662895 233.7148 90.2839 233.38379 89.8669 233.04579C 89.0289 232.4008 88.0459 231.7638 87.33589 231.1608C 87.080894 230.9368 86.829895 230.7168 86.5879 230.49179C 86.3479 230.2598 86.11189 230.0268 85.884895 229.7968C 84.76289 230.2308 83.454895 230.2498 82.0699 230.0258C 81.025894 229.86679 80.0469 229.6378 79.06889 229.4838C 78.0999 229.3178 77.13989 229.2148 76.13789 229.25679C 76.05589 229.2918 75.97589 229.3298 75.897896 229.3728C 75.6169 229.5278 75.272896 229.3448 75.0499 229.0708C 74.775894 228.8478 74.591896 228.50479 74.746895 228.2228C 74.7899 228.14279 74.827896 228.0628 74.86389 227.9828C 74.90489 226.9828 74.801895 226.0208 74.635895 225.0518C 74.481895 224.0728 74.2529 223.0928 74.093895 222.0498C 73.870895 220.6648 73.88989 219.3558 74.3249 218.2328L74.3249 218.2328L73.7099 217.61479C 73.50389 217.4038 73.314896 217.1828 73.1149 216.96179C 73.0359 216.8698 72.9559 216.7758 72.872894 216.6808C 72.7959 216.5798 72.716896 216.47679 72.6369 216.3738C 72.4779 216.1628 72.3089 215.9408 72.1459 215.71379C 71.827896 215.25679 71.48489 214.78079 71.150894 214.3418C 70.801895 213.9028 70.452896 213.50279 70.0609 213.2098C 69.6689 212.9178 69.23689 212.7328 68.75389 212.74179C 68.2979 212.75479 68.1279 212.0668 68.275894 211.6198C 68.1279 211.17279 68.2979 210.4858 68.75389 210.4988C 69.2229 210.5078 69.6409 210.3338 70.022896 210.0578C 70.40489 209.78279 70.73689 209.4038 71.0749 208.9868C 71.719894 208.1488 72.356895 207.1658 72.9599 206.4558C 73.18289 206.20079 73.4039 205.95079 73.6279 205.7078C 73.8609 205.4678 74.092896 205.2328 74.3239 205.0058C 73.88989 203.8828 73.870895 202.5748 74.093895 201.1908C 74.2529 200.1458 74.481895 199.1668 74.635895 198.18979C 74.802895 197.2208 74.9059 196.2598 74.86389 195.2578C 74.827896 195.1778 74.7899 195.0978 74.746895 195.01779C 74.592896 194.7368 74.775894 194.39279 75.0499 194.1698C 75.2719 193.8958 75.6159 193.7128 75.897896 193.86679C 75.97589 193.90979 76.05589 193.9478 76.13789 193.9838C 77.13789 194.0248 78.09889 193.9218 79.06889 193.7558C 80.0479 193.60179 81.0269 193.3728 82.0699 193.21379C 83.455894 192.9908 84.7639 193.0098 85.88789 193.4448L85.88789 193.4448L86.5059 192.8298C 86.716896 192.6238 86.9369 192.4348 87.1589 192.2348C 87.2509 192.15579 87.344894 192.07579 87.439896 191.9928C 87.54089 191.9158 87.6419 191.83679 87.746895 191.75679C 87.9579 191.5988 88.178894 191.4298 88.4069 191.2658C 88.8639 190.9478 89.3399 190.6048 89.7789 190.2708C 90.217896 189.9218 90.6179 189.57379 90.9099 189.1818C 91.2019 188.7888 91.38789 188.3568 91.3789 187.8738C 91.3659 187.4188 92.053894 187.2478 92.49989 187.3958L92.49989 187.3958L92.5009 187.3958C 92.9469 187.2478 93.634895 187.4178 93.621895 187.8738C 93.6129 188.3438 93.7859 188.7618 94.0609 189.14279C 94.3379 189.5248 94.716896 189.8568 95.133896 190.1948C 95.97189 190.8398 96.953896 191.47679 97.664894 192.0798C 97.9199 192.3038 98.1699 192.5238 98.412895 192.7478C 98.65289 192.9808 98.88789 193.21379 99.1149 193.4438C 100.2379 193.0098 101.5459 192.9908 102.92989 193.21379C 103.9729 193.3728 104.952896 193.6028 105.93089 193.75679C 106.898895 193.92279 107.86089 194.0258 108.8629 193.9838C 108.942894 193.9478 109.022896 193.90979 109.1019 193.86679C 109.383896 193.7128 109.7269 193.8958 109.9499 194.1698C 110.22289 194.39279 110.4079 194.7358 110.2529 195.01779C 110.2099 195.0978 110.1719 195.17679 110.136894 195.2578C 110.094894 196.2578 110.1979 197.2198 110.3649 198.1888C 110.5179 199.1678 110.746895 200.14679 110.9059 201.1908C 111.1299 202.57579 111.11089 203.8848 110.675896 205.0078L110.675896 205.0078L111.289894 205.6258C 111.496895 205.83679 111.6849 206.0578 111.885895 206.2788C 111.9639 206.3708 112.0449 206.4648 112.1279 206.5598C 112.204895 206.6608 112.2829 206.7628 112.3639 206.86679C 112.5219 207.07779 112.690895 207.2988 112.8529 207.5268C 113.1729 207.9838 113.51489 208.4598 113.8489 208.8988C 114.1989 209.3378 114.5469 209.7378 114.9379 210.03079C 115.331894 210.3228 115.76389 210.5078 116.245895 210.4988C 116.7019 210.4858 116.872894 211.1738 116.7229 211.6198zM104.426895 228.1628C 105.8769 227.8808 107.2839 227.56079 108.63889 227.75879C 108.440895 226.4038 108.760895 224.9978 109.0429 223.54779C 109.33289 222.10379 109.5909 220.6138 109.453896 219.28479C 109.3099 219.3938 109.1699 219.50279 109.024895 219.6058C 108.8779 219.7068 108.7299 219.8058 108.58289 219.9008C 108.2929 220.0948 107.9879 220.2658 107.6829 220.4238C 106.509895 221.0358 105.204895 221.2938 104.023895 221.0998C 103.4249 221.0008 102.85989 220.7968 102.3369 220.49179C 101.8109 220.18579 101.3219 219.7748 100.8689 219.2838L100.8689 219.2838L100.524895 219.64479L100.524895 219.64479L100.163895 219.9888C 100.6549 220.4418 101.065895 220.9318 101.371895 221.4568C 101.676895 221.9798 101.8799 222.5448 101.9799 223.1438C 102.1729 224.3248 101.91589 225.62979 101.303894 226.8038C 101.1459 227.1078 100.9729 227.4128 100.7799 227.70279C 100.6839 227.8498 100.5859 227.9978 100.483894 228.1458C 100.3809 228.2898 100.2719 228.4308 100.162895 228.57379C 101.4919 228.7108 102.982895 228.45279 104.426895 228.1628zM102.884895 216.1978C 104.19389 216.2948 105.303894 215.7948 106.05589 214.90979C 106.8119 214.0318 107.192894 212.7968 107.192894 211.6198C 107.192894 210.4438 106.8119 209.2088 106.05589 208.3308C 105.303894 207.4448 104.19389 206.9458 102.884895 207.0418C 103.5199 208.4758 103.8499 210.0338 103.8489 211.6198C 103.8499 213.2058 103.5199 214.7648 102.884895 216.1978zM92.49989 196.9278C 91.3239 196.9278 90.0889 197.3068 89.21089 198.0638C 88.3249 198.8158 87.8259 199.9258 87.9219 201.2358C 89.355896 200.5998 90.913895 200.26979 92.49989 200.2708C 94.0859 200.26979 95.6439 200.5998 97.077896 201.2358C 97.1749 199.9268 96.6749 198.8168 95.789894 198.06479C 94.911896 197.3068 93.675896 196.9278 92.49989 196.9278zM92.49989 194.6798C 91.7919 194.68979 91.8609 195.7188 92.49989 195.7518C 93.135895 195.7188 93.20889 194.7038 92.49989 194.6798zM96.4369 202.1088C 95.19589 201.5948 93.8629 201.3308 92.49989 201.3288C 91.136894 201.3308 89.803894 201.5948 88.5629 202.1088C 87.3229 202.6218 86.1799 203.3868 85.2229 204.3428C 84.2659 205.29979 83.50189 206.4438 82.9889 207.6828C 82.47389 208.9238 82.21089 210.25679 82.20889 211.6198C 82.21089 212.9828 82.47389 214.3168 82.9889 215.5578C 83.50189 216.7968 84.2659 217.9408 85.2229 218.89679C 86.1799 219.85379 87.3229 220.61879 88.5629 221.13179C 89.803894 221.64479 91.136894 221.90979 92.49989 221.9118C 93.8629 221.90979 95.19589 221.64479 96.4369 221.13179C 97.676895 220.61879 98.8199 219.85379 99.77689 218.89679C 100.732895 217.9408 101.497894 216.7968 102.010895 215.5578C 102.524895 214.3168 102.789894 212.9828 102.79189 211.6198C 102.789894 210.25679 102.524895 208.9238 102.010895 207.6828C 101.497894 206.4438 100.732895 205.29979 99.77689 204.3428C 98.8199 203.3868 97.676895 202.6218 96.4369 202.1088zM82.1159 207.0418C 80.8069 206.9458 79.6969 207.4448 78.9449 208.3308C 78.1869 209.2088 77.8069 210.4438 77.8069 211.6198C 77.8069 212.7968 78.1869 214.0318 78.94389 214.90979C 79.69589 215.7948 80.80589 216.2948 82.1159 216.1978C 81.4799 214.7648 81.149895 213.2058 81.150894 211.6198C 81.149895 210.0338 81.4799 208.4758 82.1159 207.0418zM92.49989 226.31279C 93.675896 226.31279 94.911896 225.9328 95.789894 225.1758C 96.6749 224.4238 97.1749 223.3138 97.077896 222.00479C 95.6439 222.6408 94.0859 222.9708 92.49989 222.9698C 90.913895 222.9708 89.355896 222.6408 87.9219 222.00479C 87.8259 223.3138 88.3249 224.4238 89.21089 225.1758C 90.0889 225.9328 91.3239 226.31279 92.49989 226.31279zM92.49989 228.56079C 93.20789 228.5508 93.13989 227.52179 92.49989 227.4888C 91.8639 227.52179 91.7919 228.5368 92.49989 228.56079zM87.064896 228.17079C 87.8819 229.0618 88.8369 229.92079 89.79289 230.7908C 90.747894 231.6718 91.7079 232.53279 92.49989 233.5638C 93.2919 232.53279 94.2519 231.6718 95.206894 230.7908C 96.163895 229.92079 97.1179 229.0618 97.9349 228.17079C 98.9109 227.1138 99.7679 225.8438 100.1039 224.5108C 100.272896 223.8428 100.3229 223.17279 100.220894 222.50479C 100.1259 221.8458 99.8789 221.1918 99.4909 220.5558C 98.954895 220.9748 98.3829 221.3478 97.7829 221.6648C 98.038895 222.9838 97.7849 224.2328 97.067894 225.2518C 96.358894 226.2648 95.189896 227.0248 93.8629 227.3118C 93.9629 227.4988 94.0329 227.7128 94.053894 227.9498C 94.092896 228.37979 93.9489 228.7898 93.6669 229.10179C 93.385895 229.4238 92.9649 229.6028 92.49989 229.6178C 92.050896 229.6028 91.6389 229.43579 91.357895 229.12979C 91.0759 228.8318 90.9239 228.4378 90.9449 228.01979C 90.9579 227.7558 91.0319 227.5188 91.1419 227.31279C 89.813896 227.0268 88.6429 226.2658 87.93289 225.25279C 87.2159 224.2338 86.96089 222.9848 87.217896 221.6648C 86.6169 221.3478 86.0449 220.9748 85.508896 220.5558C 85.120895 221.1918 84.87489 221.8458 84.7789 222.50479C 84.677895 223.17279 84.7269 223.8428 84.8959 224.5098C 85.231895 225.8438 86.0899 227.1138 87.064896 228.17079zM75.9579 223.54779C 76.2399 224.9978 76.5589 226.4038 76.3609 227.75879C 77.7159 227.56079 79.122894 227.8808 80.5719 228.1628C 82.01489 228.45279 83.5069 228.7108 84.83589 228.57379C 84.7249 228.4308 84.6179 228.2898 84.51489 228.1458C 84.412895 227.9978 84.313896 227.8498 84.219894 227.70279C 84.025894 227.4128 83.8539 227.1078 83.6969 226.8038C 83.0849 225.62979 82.8269 224.3248 83.0189 223.1438C 83.119896 222.5448 83.3239 221.9798 83.6289 221.4568C 83.9339 220.9318 84.344894 220.4418 84.8369 219.9888L84.8369 219.9888L84.4749 219.64479L84.4749 219.64479L84.1309 219.2838C 83.678894 219.7748 83.188896 220.18579 82.663895 220.49179C 82.13989 220.7968 81.5759 220.9998 80.9759 221.0998C 79.7959 221.2938 78.4899 221.0358 77.316895 220.4238C 77.011894 220.2658 76.7079 220.0938 76.41789 219.8998C 76.2699 219.8048 76.122894 219.7058 75.97389 219.60379C 75.829895 219.5008 75.689896 219.3918 75.5469 219.28279C 75.4089 220.6118 75.66789 222.10379 75.9579 223.54779zM73.329895 208.9128C 72.44789 209.86879 71.5879 210.82779 70.55589 211.6198C 71.5879 212.4128 72.44789 213.3718 73.329895 214.3268C 74.1999 215.2838 75.0569 216.2388 75.9499 217.0558C 77.0069 218.03079 78.2769 218.8888 79.60989 219.2238C 80.27789 219.39279 80.9479 219.4428 81.6149 219.34079C 82.273895 219.2458 82.928894 218.9988 83.564896 218.6108C 83.1449 218.07579 82.772896 217.50279 82.455894 216.9028C 81.135895 217.1588 79.88789 216.9048 78.8689 216.18779C 77.855896 215.47879 77.094894 214.3098 76.80789 212.9828C 76.620895 213.0838 76.4079 213.1528 76.1709 213.17479C 75.7409 213.2128 75.329895 213.0688 75.01689 212.7868C 74.69589 212.5058 74.51689 212.0848 74.50189 211.6198C 74.51689 211.17079 74.6839 210.7588 74.9909 210.4778C 75.288895 210.1958 75.6819 210.0438 76.09889 210.0648C 76.36389 210.07779 76.6009 210.1518 76.8069 210.2628C 77.093895 208.93379 77.8529 207.7638 78.8669 207.0538C 79.885895 206.3358 81.134895 206.0818 82.455894 206.3378C 82.772896 205.7378 83.1449 205.1648 83.564896 204.62979C 82.928894 204.24179 82.274895 203.9948 81.6149 203.8998C 80.9479 203.79779 80.27789 203.8478 79.60989 204.0158C 78.2769 204.35179 77.0069 205.2098 75.9499 206.1848C 75.0569 207.0018 74.1999 207.9568 73.329895 208.9128zM76.6319 211.6198C 76.5979 210.9838 75.58389 210.9118 75.5589 211.6198C 75.5699 212.3288 76.5979 212.2598 76.6319 211.6198zM80.5729 195.07779C 79.122894 195.3598 77.716896 195.6798 76.3609 195.4818C 76.55789 196.8358 76.2399 198.2428 75.956894 199.6928C 75.66789 201.1358 75.4099 202.6268 75.5469 203.9558C 75.688896 203.8468 75.829895 203.7378 75.97389 203.6348C 76.122894 203.53279 76.2699 203.4348 76.41789 203.3398C 76.7079 203.1458 77.01289 202.9738 77.316895 202.8168C 78.4899 202.2048 79.7959 201.9468 80.9759 202.1408C 81.5759 202.23979 82.13989 202.4438 82.662895 202.7488C 83.188896 203.0548 83.678894 203.46579 84.1309 203.9568L84.1309 203.9568L84.4749 203.5958L84.4749 203.5958L84.8369 203.2508C 84.345894 202.7988 83.9339 202.30879 83.6289 201.7838C 83.3239 201.2608 83.119896 200.6958 83.0199 200.0968C 82.8269 198.9158 83.0849 197.6098 83.6969 196.4368C 83.8539 196.1328 84.025894 195.82779 84.220894 195.5378C 84.314896 195.3908 84.413895 195.2428 84.5159 195.0948C 84.6189 194.95079 84.7269 194.8098 84.8379 194.6668C 83.5079 194.5298 82.0159 194.7878 80.5729 195.07779zM97.9349 195.0698C 97.1179 194.1788 96.163895 193.3198 95.206894 192.4498C 94.2519 191.5678 93.29289 190.7078 92.49989 189.67679C 91.7079 190.7078 90.747894 191.5678 89.79289 192.4498C 88.8369 193.3198 87.8819 194.1788 87.064896 195.0698C 86.0899 196.1268 85.231895 197.39679 84.8959 198.7298C 84.7269 199.3978 84.677895 200.0678 84.7789 200.7348C 84.87489 201.39479 85.120895 202.0488 85.508896 202.6848C 86.0449 202.2658 86.6169 201.89279 87.217896 201.57579C 86.9619 200.2558 87.2159 199.0078 87.9319 197.9888C 88.63989 196.9758 89.8099 196.21579 91.13789 195.9288C 91.036896 195.7408 90.967896 195.5278 90.94589 195.2908C 90.9079 194.8608 91.051895 194.45079 91.33389 194.1378C 91.6139 193.8168 92.0359 193.6378 92.49989 193.6228C 92.9499 193.6378 93.36189 193.8048 93.6419 194.1108C 93.9249 194.4088 94.0769 194.8028 94.05589 195.2208C 94.0419 195.4838 93.968895 195.7218 93.857895 195.9278C 95.1859 196.21379 96.356895 196.9738 97.066895 197.9868C 97.7839 199.0058 98.038895 200.2558 97.7829 201.57579C 98.3829 201.89279 98.954895 202.2658 99.4909 202.6848C 99.8789 202.0488 100.1259 201.39479 100.220894 200.7358C 100.3229 200.0678 100.272896 199.3978 100.1039 198.7298C 99.7679 197.39679 98.9109 196.1268 97.9349 195.0698zM109.0429 199.6928C 108.760895 198.2428 108.440895 196.83679 108.63889 195.4808C 107.2839 195.6788 105.8779 195.3598 104.427895 195.07779C 102.983894 194.7878 101.4929 194.5298 100.164894 194.6668C 100.273895 194.8098 100.3829 194.9498 100.48489 195.0948C 100.5869 195.2428 100.6849 195.3908 100.7809 195.5378C 100.9739 195.82779 101.1459 196.1328 101.303894 196.4368C 101.91589 197.6098 102.1739 198.9158 101.9799 200.0968C 101.8799 200.6958 101.676895 201.2608 101.371895 201.7838C 101.065895 202.30879 100.6549 202.7988 100.163895 203.2508L100.163895 203.2508L100.524895 203.5958L100.524895 203.5958L100.8689 203.9568C 101.3219 203.46579 101.8109 203.0548 102.3369 202.7488C 102.85989 202.4438 103.4249 202.2408 104.023895 202.1408C 105.204895 201.9468 106.509895 202.2048 107.6829 202.8168C 107.9879 202.9738 108.2929 203.14679 108.58289 203.34079C 108.7299 203.43579 108.8779 203.53479 109.024895 203.6368C 109.1699 203.73979 109.3099 203.8478 109.453896 203.9578C 109.5909 202.6288 109.33289 201.1368 109.0429 199.6928zM111.6709 208.9128C 110.7999 207.9568 109.941895 207.0018 109.050896 206.1848C 107.9939 205.2098 106.72289 204.35179 105.38989 204.0158C 104.7229 203.8478 104.052895 203.79779 103.384895 203.8998C 102.7249 203.9948 102.0719 204.24179 101.4349 204.62979C 101.8549 205.1648 102.2259 205.7378 102.5449 206.3378C 103.8639 206.0818 105.1129 206.3358 106.1309 207.0528C 107.1439 207.7618 107.9049 208.9308 108.191895 210.2578C 108.3789 210.1568 108.592896 210.0878 108.829895 210.0658C 109.259895 210.0278 109.6699 210.1718 109.981895 210.4538C 110.303894 210.7348 110.482895 211.15579 110.497894 211.6198C 110.481895 212.0698 110.315895 212.4818 110.009895 212.7628C 109.7109 213.0448 109.316895 213.1968 108.899895 213.1758C 108.635895 213.1628 108.398895 213.08879 108.192894 212.9778C 107.9069 214.3068 107.1459 215.47679 106.1329 216.1868C 105.1139 216.9038 103.8649 217.1588 102.5449 216.9028C 102.2259 217.50279 101.8549 218.07579 101.4349 218.6108C 102.0719 218.9988 102.7249 219.2458 103.384895 219.34079C 104.052895 219.4428 104.7229 219.39279 105.38989 219.2238C 106.72289 218.8888 107.9939 218.03079 109.050896 217.0558C 109.941895 216.2388 110.800896 215.2838 111.6709 214.3268C 112.551895 213.3718 113.412895 212.4128 114.44389 211.6198C 113.412895 210.82779 112.551895 209.86879 111.6709 208.9128zM108.3689 211.6198C 108.40189 212.2558 109.41589 212.3288 109.439896 211.6198C 109.43089 210.9118 108.40189 210.98079 108.3689 211.6198z" stroke="#E7BC9E" stroke-width="0.425" fill="none" />
    <path id=""  transform="matrix(1 0 0 -1 0 316)"  d="M101.4369 211.6201C 101.4349 212.8101 101.205894 213.9621 100.760895 215.03911C 100.314896 216.1131 99.650894 217.1071 98.8199 217.9401C 97.9869 218.7721 96.9929 219.4361 95.9189 219.8801C 94.842896 220.3261 93.688896 220.5551 92.4999 220.5571C 91.3099 220.5551 90.1579 220.3261 89.081894 219.8801C 88.0079 219.4361 87.0119 218.7721 86.1799 217.9401C 85.3479 217.1071 84.6839 216.1131 84.2399 215.03911C 83.7939 213.9621 83.564896 212.8101 83.5619 211.6201C 83.564896 210.4301 83.7939 209.2781 84.2399 208.2021C 84.6839 207.1281 85.3479 206.1321 86.1799 205.3001C 87.0119 204.46811 88.0079 203.80411 89.081894 203.3601C 90.1579 202.9151 91.3099 202.6851 92.4999 202.6821C 93.688896 202.6851 94.842896 202.9151 95.9189 203.3601C 96.9929 203.80411 97.9869 204.46811 98.8199 205.3001C 99.650894 206.1321 100.314896 207.1281 100.760895 208.2021C 101.205894 209.2781 101.4349 210.4301 101.4369 211.6201zM99.7829 208.6071C 99.3919 207.6611 98.8059 206.7831 98.0719 206.0481C 97.3369 205.3131 96.4589 204.7281 95.5129 204.3361C 94.565895 203.9451 93.553894 203.7431 92.4999 203.7401C 91.4459 203.7431 90.4339 203.9451 89.4869 204.3361C 88.5409 204.7281 87.662895 205.3131 86.9279 206.0481C 86.1929 206.7831 85.607895 207.6611 85.216896 208.6071C 84.8249 209.55411 84.622894 210.5661 84.619896 211.6201C 84.622894 212.6741 84.8249 213.6861 85.216896 214.6331C 85.607895 215.5791 86.1929 216.4571 86.9279 217.19211C 87.662895 217.9261 88.5409 218.5121 89.4869 218.9041C 90.4339 219.2951 91.4459 219.49811 92.4999 219.5011C 93.553894 219.49811 94.565895 219.2951 95.5129 218.9041C 96.4589 218.5121 97.3369 217.9261 98.0719 217.19211C 98.8059 216.4571 99.3919 215.5791 99.7829 214.6331C 100.175896 213.6861 100.3779 212.6741 100.3809 211.6201C 100.3779 210.5661 100.175896 209.55411 99.7829 208.6071z" stroke="#E7BC9E" stroke-width="0.425" fill="none" />
    <path id=""  transform="matrix(1 0 0 -1 0 316)"  d="M104.237 200.9333C 104.088 201.07631 103.883 201.15831 103.685 201.1663C 103.542 201.17331 103.42 201.1363 103.31 201.07431C 103.251 201.0523 103.198 201.0163 103.156 200.96431C 103.12 200.9353 103.094 200.8983 103.073 200.8573C 102.995 200.7413 102.949 200.6093 102.951996 200.4523C 102.956 200.2583 103.034996 200.0423 103.175 199.89531C 103.465996 199.5833 103.956 199.5533 104.268 199.8513C 104.56 200.15831 104.542 200.64531 104.237 200.9333z" stroke="#E7BC9E" stroke-width="0.425" fill="none" />
    <path id=""  transform="matrix(1 0 0 -1 0 316)"  d="M80.3002 199.0853C 80.2702 199.15129 80.2222 199.2133 80.1522 199.2723C 80.0932 199.3423 80.031204 199.39029 79.9662 199.4203C 79.8042 199.5373 79.627205 199.6293 79.4442 199.6953C 79.2622 199.7623 79.0772 199.8083 78.8882 199.8203C 78.5112 199.84329 78.127205 199.74629 77.8102 199.4813C 77.4792 199.2043 77.309204 198.79129 77.3192 198.3373C 77.321205 197.8793 77.530205 197.4043 77.8992 197.0193C 78.2722 196.6623 78.7302 196.4523 79.1782 196.4393C 79.6222 196.4193 80.030205 196.5723 80.3112 196.8793C 80.600204 197.19629 80.7132 197.5863 80.6992 197.9733C 80.6912 198.16629 80.6492 198.35829 80.5812 198.5443C 80.516205 198.73529 80.4222 198.9173 80.3002 199.0853zM78.6462 197.7663C 78.0762 198.3523 78.8542 199.0293 79.404205 198.52429C 79.906204 197.9763 79.2432 197.20529 78.6462 197.7663z" stroke="#E7BC9E" stroke-width="0.425" fill="none" />
    <path id=""  transform="matrix(1 0 0 -1 0 316)"  d="M81.8445 200.9645C 81.8155 201.00049 81.778496 201.02649 81.737495 201.04749C 81.6205 201.1245 81.489494 201.1715 81.3315 201.16849C 81.1385 201.16449 80.9225 201.08449 80.7755 200.9455C 80.4635 200.6545 80.432495 200.16449 80.7315 199.85149C 81.0365 199.56049 81.5255 199.57849 81.8135 199.8835C 81.9555 200.0315 82.0375 200.2365 82.0465 200.43549C 82.0535 200.57849 82.016495 200.70049 81.9525 200.81049C 81.932495 200.86949 81.8965 200.92249 81.8445 200.9645z" stroke="#E7BC9E" stroke-width="0.425" fill="none" />
    <path id=""  transform="matrix(1 0 0 -1 0 316)"  d="M78.8532 223.4213C 79.0462 223.42929 79.238205 223.4713 79.4242 223.53929C 79.615204 223.6043 79.7972 223.6983 79.9652 223.81929C 80.031204 223.8503 80.0932 223.8983 80.1522 223.96829C 80.2212 224.02629 80.2702 224.0893 80.3002 224.1543C 80.417206 224.3163 80.5092 224.4933 80.5752 224.6763C 80.642204 224.85829 80.6872 225.0423 80.6992 225.2323C 80.723206 225.60829 80.626205 225.9923 80.3612 226.3093C 80.084206 226.6413 79.6712 226.8113 79.2172 226.8013C 78.7592 226.7983 78.2842 226.5893 77.8992 226.2213C 77.542206 225.84729 77.3322 225.3893 77.3192 224.94229C 77.2992 224.49829 77.4512 224.0903 77.7592 223.8083C 78.0762 223.5193 78.4662 223.4073 78.8532 223.4213zM78.6462 225.4733C 79.2322 226.0433 79.9092 225.2663 79.404205 224.7153C 78.8562 224.2133 78.085205 224.8773 78.6462 225.4733z" stroke="#E7BC9E" stroke-width="0.425" fill="none" />
    <path id=""  transform="matrix(1 0 0 -1 0 316)"  d="M80.7634 222.3073C 80.9114 222.1633 81.11739 222.08229 81.3154 222.0733C 81.4584 222.06729 81.5804 222.1043 81.6904 222.16629C 81.7484 222.1883 81.8024 222.2233 81.8444 222.27629C 81.879395 222.3053 81.906395 222.3423 81.9274 222.3833C 82.004395 222.49829 82.0514 222.6303 82.0484 222.7883C 82.044395 222.9813 81.96439 223.1983 81.82539 223.34529C 81.5344 223.6573 81.044395 223.6873 80.7314 223.38829C 80.4394 223.08229 80.4584 222.59529 80.7634 222.3073z" stroke="#E7BC9E" stroke-width="0.425" fill="none" />
    <path id=""  transform="matrix(1 0 0 -1 0 316)"  d="M104.6992 224.1553C 104.7302 224.0893 104.778206 224.02629 104.848206 223.96829C 104.906204 223.8983 104.9682 223.8503 105.0342 223.8203C 105.196205 223.7023 105.3722 223.6113 105.556206 223.5453C 105.738205 223.4783 105.9222 223.4323 106.112206 223.4203C 106.488205 223.3973 106.8722 223.4943 107.1892 223.7583C 107.5202 224.0363 107.6912 224.4493 107.681206 224.90329C 107.6782 225.3613 107.4692 225.8363 107.101204 226.2213C 106.7272 226.5773 106.2692 226.7883 105.822205 226.8013C 105.378204 226.8203 104.9702 226.6683 104.6882 226.36029C 104.3992 226.0443 104.2862 225.6543 104.3012 225.2673C 104.309204 225.0733 104.350204 224.8813 104.418205 224.6963C 104.4842 224.5053 104.5782 224.3233 104.6992 224.1553zM106.3532 225.4733C 106.9232 224.8873 106.1462 224.2113 105.5952 224.7153C 105.0932 225.26329 105.7572 226.0353 106.3532 225.4733z" stroke="#E7BC9E" stroke-width="0.425" fill="none" />
    <path id=""  transform="matrix(1 0 0 -1 0 316)"  d="M103.156 222.276C 103.185 222.24 103.222 222.214 103.263 222.19301C 103.379 222.115 103.509995 222.069 103.669 222.072C 103.861 222.076 104.077995 222.156 104.225 222.295C 104.536995 222.586 104.567 223.076 104.268 223.388C 103.963 223.68001 103.475 223.662 103.187 223.357C 103.044 223.209 102.962 223.004 102.952995 222.80501C 102.947 222.662 102.984 222.54001 103.047 222.43001C 103.068 222.371 103.103 222.31801 103.156 222.276z" stroke="#E7BC9E" stroke-width="0.425" fill="none" />
    <path id=""  transform="matrix(1 0 0 -1 0 316)"  d="M97.94231 215.11491C 97.9413 215.8399 97.8013 216.5419 97.530304 217.19691C 97.2593 217.8509 96.8553 218.45691 96.348305 218.96391C 95.8413 219.46991 95.236305 219.87491 94.5813 220.14491C 93.9263 220.4169 93.224304 220.55591 92.499306 220.5569C 91.776306 220.55591 91.0743 220.4169 90.418304 220.14491C 89.764305 219.87491 89.1593 219.46991 88.652306 218.96391C 88.1453 218.45691 87.7413 217.8509 87.47031 217.19691C 87.1993 216.5419 87.0593 215.8399 87.057304 215.11491C 87.0593 214.3909 87.1993 213.6889 87.47031 213.0339C 87.7413 212.37991 88.1453 211.77391 88.652306 211.2669C 89.1593 210.7599 89.764305 210.35591 90.418304 210.0859C 91.0743 209.8139 91.776306 209.67491 92.499306 209.67291C 93.224304 209.67491 93.9263 209.8139 94.5813 210.0859C 95.236305 210.35591 95.8413 210.7599 96.348305 211.2669C 96.8553 211.77391 97.2593 212.37991 97.530304 213.0339C 97.8013 213.6889 97.9413 214.3909 97.94231 215.11491zM96.9353 213.2799C 96.6973 212.70491 96.3403 212.1699 95.8933 211.72191C 95.445305 211.2749 94.9113 210.91891 94.334305 210.6799C 93.7573 210.4409 93.141304 210.3179 92.499306 210.31691C 91.8583 210.3179 91.2423 210.4409 90.66431 210.6799C 90.0893 210.91891 89.554306 211.2749 89.1073 211.72191C 88.6603 212.1699 88.3033 212.70491 88.0653 213.2799C 87.8263 213.8569 87.7033 214.4729 87.7023 215.11491C 87.7033 215.7579 87.8263 216.37291 88.0653 216.9499C 88.3033 217.52591 88.6603 218.0599 89.1073 218.50891C 89.554306 218.9559 90.0893 219.3119 90.66431 219.5509C 91.2423 219.7899 91.8583 219.91191 92.499306 219.91391C 93.141304 219.91191 93.7573 219.7899 94.334305 219.5509C 94.9113 219.3119 95.445305 218.9559 95.8933 218.50891C 96.3403 218.0599 96.6973 217.52591 96.9353 216.9499C 97.1733 216.37291 97.2963 215.7579 97.2983 215.11491C 97.2963 214.4729 97.1733 213.8569 96.9353 213.2799z" stroke="#E7BC9E" stroke-width="0.425" fill="none" />
    <path id=""  transform="matrix(1 0 0 -1 0 316)"  d="M97.94231 208.1247C 97.9413 208.8497 97.8013 209.5517 97.530304 210.2067C 97.2593 210.8607 96.8553 211.46669 96.348305 211.9737C 95.8413 212.47969 95.236305 212.88469 94.5813 213.1547C 93.9263 213.4267 93.224304 213.56569 92.499306 213.56769C 91.776306 213.56569 91.0743 213.4267 90.418304 213.1547C 89.764305 212.88469 89.1593 212.47969 88.652306 211.9737C 88.1453 211.46669 87.7413 210.8607 87.47031 210.2067C 87.1993 209.5517 87.0593 208.8497 87.057304 208.1247C 87.0593 207.4007 87.1993 206.6987 87.47031 206.0437C 87.7413 205.3897 88.1453 204.78369 88.652306 204.2767C 89.1593 203.7697 89.764305 203.36569 90.418304 203.09569C 91.0743 202.8237 91.776306 202.6847 92.499306 202.6827C 93.224304 202.6847 93.9263 202.8237 94.5813 203.09569C 95.236305 203.36569 95.8413 203.7697 96.348305 204.2767C 96.8553 204.78369 97.2593 205.3897 97.530304 206.0437C 97.8013 206.6987 97.9413 207.4007 97.94231 208.1247zM96.9353 206.2907C 96.6973 205.71469 96.3403 205.1797 95.8933 204.73169C 95.445305 204.2847 94.9113 203.9287 94.334305 203.6897C 93.7573 203.4507 93.141304 203.32869 92.499306 203.32669C 91.8583 203.32869 91.2423 203.4507 90.66431 203.6897C 90.0893 203.9287 89.554306 204.2847 89.1073 204.73169C 88.6603 205.1797 88.3033 205.71469 88.0653 206.2907C 87.8263 206.8667 87.7033 207.4827 87.7023 208.1247C 87.7033 208.7677 87.8263 209.3837 88.0653 209.9597C 88.3033 210.53569 88.6603 211.0707 89.1073 211.51869C 89.554306 211.9657 90.0893 212.3217 90.66431 212.5607C 91.2423 212.7997 91.8583 212.92169 92.499306 212.92369C 93.141304 212.92169 93.7573 212.7997 94.334305 212.5607C 94.9113 212.3217 95.445305 211.9657 95.8933 211.51869C 96.3403 211.0707 96.6973 210.53569 96.9353 209.9597C 97.1733 209.3837 97.2963 208.7677 97.2983 208.1247C 97.2963 207.4827 97.1733 206.8667 96.9353 206.2907z" stroke="#E7BC9E" stroke-width="0.425" fill="none" />
    <path id=""  transform="matrix(1 0 0 -1 0 316)"  d="M95.994896 206.1772C 96.719894 206.1792 97.4219 206.3192 98.0769 206.5902C 98.730896 206.86119 99.3369 207.2652 99.843895 207.7722C 100.3499 208.27919 100.7549 208.8842 101.024895 209.5392C 101.2969 210.1942 101.4359 210.8962 101.4369 211.6202C 101.4359 212.3442 101.2969 213.0462 101.024895 213.7022C 100.7549 214.3562 100.3499 214.9612 99.843895 215.4682C 99.3369 215.97519 98.730896 216.3792 98.0769 216.65019C 97.4219 216.9212 96.719894 217.0612 95.994896 217.0622C 95.2709 217.0612 94.56889 216.9212 93.913895 216.65019C 93.259895 216.3792 92.6539 215.97519 92.1469 215.4682C 91.6399 214.9612 91.23589 214.3562 90.9659 213.7022C 90.69389 213.0462 90.55489 212.3442 90.552895 211.6202C 90.55489 210.8962 90.69389 210.1942 90.9659 209.5392C 91.23589 208.8842 91.6399 208.27919 92.1469 207.7722C 92.6539 207.2652 93.259895 206.86119 93.913895 206.5902C 94.56889 206.3192 95.2709 206.1792 95.994896 206.1772zM94.1599 207.1852C 93.5849 207.4232 93.0499 207.7802 92.6019 208.2272C 92.1549 208.6742 91.7989 209.2092 91.5599 209.7862C 91.3209 210.3622 91.1979 210.9782 91.1969 211.6202C 91.1979 212.26219 91.3209 212.87819 91.5599 213.4552C 91.7989 214.03119 92.1549 214.5652 92.6019 215.0132C 93.0499 215.46019 93.5849 215.8172 94.1599 216.05519C 94.7369 216.29419 95.3529 216.4162 95.994896 216.4182C 96.636894 216.4162 97.2529 216.29419 97.829895 216.05519C 98.4059 215.8172 98.939896 215.46019 99.3889 215.0132C 99.8359 214.5652 100.191895 214.03119 100.43089 213.4552C 100.6689 212.87819 100.7919 212.26219 100.7939 211.6202C 100.7919 210.9782 100.6689 210.3622 100.43089 209.7862C 100.191895 209.2092 99.8359 208.6742 99.3889 208.2272C 98.939896 207.7802 98.4059 207.4232 97.829895 207.1852C 97.2529 206.9462 96.636894 206.8242 95.994896 206.82219C 95.3529 206.8242 94.7369 206.9462 94.1599 207.1852z" stroke="#E7BC9E" stroke-width="0.425" fill="none" />
    <path id=""  transform="matrix(1 0 0 -1 0 316)"  d="M89.0046 206.1772C 89.7296 206.1792 90.4316 206.3192 91.0866 206.5902C 91.7406 206.86119 92.3466 207.2652 92.8536 207.7722C 93.359604 208.27919 93.7646 208.8842 94.0346 209.5392C 94.3066 210.1942 94.4456 210.8962 94.4466 211.6202C 94.4456 212.3442 94.3066 213.0462 94.0346 213.7022C 93.7646 214.3562 93.359604 214.9612 92.8536 215.4682C 92.3466 215.97519 91.7406 216.3792 91.0866 216.65019C 90.4316 216.9212 89.7296 217.0612 89.0046 217.0622C 88.2806 217.0612 87.5786 216.9212 86.9236 216.65019C 86.2696 216.3792 85.663605 215.97519 85.1566 215.4682C 84.649605 214.9612 84.2456 214.3562 83.9756 213.7022C 83.7036 213.0462 83.5646 212.3442 83.5626 211.6202C 83.5646 210.8962 83.7036 210.1942 83.9756 209.5392C 84.2456 208.8842 84.649605 208.27919 85.1566 207.7722C 85.663605 207.2652 86.2696 206.86119 86.9236 206.5902C 87.5786 206.3192 88.2806 206.1792 89.0046 206.1772zM87.1696 207.1852C 86.594604 207.4232 86.0596 207.7802 85.6116 208.2272C 85.164604 208.6742 84.8086 209.2092 84.5696 209.7862C 84.330605 210.3622 84.2076 210.9782 84.206604 211.6202C 84.2076 212.26219 84.330605 212.87819 84.5696 213.4552C 84.8086 214.03119 85.164604 214.5652 85.6116 215.0132C 86.0596 215.46019 86.594604 215.8172 87.1696 216.05519C 87.746605 216.29419 88.3626 216.4162 89.0046 216.4182C 89.6476 216.4162 90.2626 216.29419 90.8396 216.05519C 91.4156 215.8172 91.9496 215.46019 92.398605 215.0132C 92.845604 214.5652 93.2016 214.03119 93.4406 213.4552C 93.678604 212.87819 93.801605 212.26219 93.803604 211.6202C 93.801605 210.9782 93.678604 210.3622 93.4406 209.7862C 93.2016 209.2092 92.845604 208.6742 92.398605 208.2272C 91.9496 207.7802 91.4156 207.4232 90.8396 207.1852C 90.2626 206.9462 89.6476 206.8242 89.0046 206.82219C 88.3626 206.8242 87.746605 206.9462 87.1696 207.1852z" stroke="#E7BC9E" stroke-width="0.425" fill="none" />
    <path id=""  transform="matrix(1 0 0 -1 0 316)"  d="M93.3991 211.6208C 93.3991 211.12381 92.9971 210.72081 92.5001 210.72081C 92.0031 210.72081 91.5991 211.12381 91.5991 211.6208C 91.5991 212.1178 92.0031 212.5208 92.5001 212.5208C 92.9971 212.5208 93.3991 212.1178 93.3991 211.6208z" stroke="#E7BC9E" stroke-width="0.425" fill="none" />
		</g>
	</g>
</g>
</svg>